<svg viewBox="0 0 24 24" fill="none" xmlns="http://www.w3.org/2000/svg">
<g transform="translate(1.5004, 3.2503)">
<path d="M15.25 0C18.4256 0 21 2.57436 21 5.75V13.5C21 15.7091 19.2091 17.5 17 17.5H4C1.79086 17.5 1.20798e-08 15.7091 0 13.5V6C0 3.79086 1.79086 2 4 2H6.5V4H4C2.89543 4 2 4.89543 2 6V13.5C2 14.6046 2.89543 15.5 4 15.5H17C18.1046 15.5 19 14.6046 19 13.5V5.75C19 3.67893 17.3211 2 15.25 2C13.1789 2 11.5 3.67893 11.5 5.75V10.0859L14.293 7.29297L15.707 8.70703L11.207 13.207C10.8165 13.5976 10.1835 13.5976 9.79297 13.207L5.29297 8.70703L6.70703 7.29297L9.5 10.0859V5.75C9.5 2.57436 12.0744 0 15.25 0Z" fill="currentColor" />

</g>
</svg>
