<svg viewBox="0 0 24 24" fill="none" xmlns="http://www.w3.org/2000/svg">
<g transform="translate(3.0003, 1.2502)">
<path d="M9 0C11.3814 0 13.6683 0.929869 15.3574 2.58984C17.0471 4.25041 18 6.50627 18 8.8623C17.9999 12.3214 15.765 15.4752 13.7314 17.6562C12.6929 18.7702 11.6573 19.6821 10.8828 20.3154C10.4949 20.6327 10.1707 20.8819 9.94141 21.0527C9.82668 21.1382 9.73533 21.2046 9.67188 21.25C9.64027 21.2726 9.61507 21.2895 9.59766 21.3018C9.58893 21.3079 9.58213 21.3129 9.57715 21.3164C9.57479 21.318 9.57278 21.3193 9.57129 21.3203L9.56934 21.3223H9.56836L9 20.5L9.56836 21.3232C9.22639 21.5593 8.77361 21.5593 8.43164 21.3232V21.3223H8.43066L8.42871 21.3203C8.42722 21.3193 8.42521 21.318 8.42285 21.3164C8.41787 21.3129 8.41107 21.3079 8.40234 21.3018C8.38493 21.2895 8.35973 21.2726 8.32812 21.25C8.26467 21.2046 8.17332 21.1382 8.05859 21.0527C7.82925 20.8819 7.5051 20.6327 7.11719 20.3154C6.34273 19.6821 5.30714 18.7702 4.26855 17.6562C2.23505 15.4752 0.000102 12.3214 0 8.8623C3.57236e-08 6.50627 0.952878 4.25041 2.64258 2.58984C4.33169 0.929869 6.61862 0 9 0ZM9 2C7.13798 2 5.35541 2.72683 4.04395 4.01562C2.73306 5.30391 2 7.04804 2 8.8623C2.0001 11.5179 3.76509 14.1829 5.73145 16.292C6.69282 17.3231 7.6573 18.1743 8.38281 18.7676C8.61657 18.9587 8.82584 19.1211 9 19.2549C9.17416 19.1211 9.38343 18.9587 9.61719 18.7676C10.3427 18.1743 11.3072 17.3231 12.2686 16.292C14.2349 14.1829 15.9999 11.5179 16 8.8623C16 7.04804 15.2669 5.30391 13.9561 4.01562C12.6446 2.72683 10.862 2 9 2ZM9 6.5C10.1046 6.5 11 7.39543 11 8.5C11 9.60456 10.1046 10.5 9 10.5C7.89546 10.5 7.00001 9.60454 7 8.5C7 7.39545 7.89546 6.50003 9 6.5Z" fill="currentColor" />

</g>
</svg>
