<svg viewBox="0 0 24 24" fill="none" xmlns="http://www.w3.org/2000/svg">
<g transform="translate(2.0000, 2.7501)">
<path d="M18.6455 0.0656009C18.9527 -0.050935 19.2979 -0.00969158 19.5684 0.176929C19.8388 0.363619 20 0.671563 20 1.00017V15.2228C19.9998 15.638 19.7427 16.01 19.3545 16.1574L13.3545 18.4347C13.126 18.5214 12.874 18.5214 12.6455 18.4347L7 16.2912L1.35449 18.4347C1.04726 18.5513 0.702106 18.51 0.431641 18.3234C0.161228 18.1367 0 17.8288 0 17.5002V3.27751C0.000178754 2.86233 0.257324 2.49031 0.645508 2.34294L6.64551 0.0656009C6.84559 -0.0102895 7.06393 -0.0207132 7.26855 0.036304L7.35449 0.0656009L13 2.20818L18.6455 0.0656009ZM2 3.96794V16.051L6 14.5314V2.44841L2 3.96794ZM8 14.5314L12 16.051V3.96794L8 2.44841V14.5314ZM14 3.96794V16.051L18 14.5314V2.44841L14 3.96794Z" fill="currentColor" />

</g>
</svg>
