<svg viewBox="0 0 24 24" fill="none" xmlns="http://www.w3.org/2000/svg">
<g transform="translate(2.0000, 0.2929)">
<path d="M20 13.207C20 16.5207 17.3137 19.207 14 19.207H5.41406L8.20703 22L6.79297 23.4141L2.29297 18.9141C1.90244 18.5235 1.90244 17.8905 2.29297 17.5L6.79297 13L8.20703 14.4141L5.41406 17.207H14C16.2091 17.207 18 15.4162 18 13.207V10.707H20V13.207ZM17.707 4.5C18.0975 4.89051 18.0975 5.52354 17.707 5.91406L13.207 10.4141L11.793 9L14.5859 6.20703H6C3.79089 6.20703 2.00004 7.99793 2 10.207V12.707H0V10.207C4.13125e-05 6.89336 2.68632 4.20703 6 4.20703H14.5859L11.793 1.41406L13.207 0L17.707 4.5Z" fill="currentColor" />

</g>
</svg>
