<svg viewBox="0 0 24 24" fill="none" xmlns="http://www.w3.org/2000/svg">
<g transform="translate(2.8967, 2.8967)">
<path d="M2.11531 2.11531C4.93575 -0.705122 9.50872 -0.705086 12.3292 2.11531C14.9096 4.69576 15.1267 8.74128 12.9854 11.5714L18.2071 16.793L16.793 18.2071L11.5714 12.9854C8.74128 15.1267 4.69576 14.9096 2.11531 12.3292C-0.705086 9.50872 -0.705122 4.93575 2.11531 2.11531ZM10.9151 3.52938C8.87571 1.49002 5.56876 1.48999 3.52938 3.52938C1.48999 5.56876 1.49002 8.87571 3.52938 10.9151C5.56878 12.9545 8.87571 12.9545 10.9151 10.9151C12.9545 8.87571 12.9545 5.56878 10.9151 3.52938Z" fill="currentColor" />

</g>
</svg>
