<svg viewBox="0 0 24 24" fill="none" xmlns="http://www.w3.org/2000/svg">
<g transform="translate(1.2934, 4.0003)">
<path d="M6.20703 0.5V12.5859L9 9.79297L10.4141 11.207L5.91406 15.707C5.72653 15.8945 5.47223 16 5.20703 16C4.97497 16 4.75118 15.9193 4.57324 15.7734L4.5 15.707L0 11.207L1.41406 9.79297L4.20703 12.5859V0.5H6.20703ZM16.207 0C16.4722 2.52907e-07 16.7265 0.105464 16.9141 0.292969L21.4141 4.79297L20 6.20703L17.207 3.41406V15.5H15.207V3.41406L12.4141 6.20703L11 4.79297L15.5 0.292969L15.5732 0.226562C15.7512 0.0807456 15.975 2.32138e-05 16.207 0Z" fill="currentColor" />

</g>
</svg>
