<svg viewBox="0 0 16 16" fill="none" xmlns="http://www.w3.org/2000/svg">
<g transform="translate(0.7497, 2.2498)">
<path d="M11.8359 0.00488281C12.0342 0.027731 12.2165 0.129035 12.3408 0.288086L14.3408 2.84863C14.4437 2.98036 14.4999 3.14244 14.5 3.30957C14.5 4.28341 13.8461 5.03328 13 5.34375V10.75C13 11.1642 12.6642 11.5 12.25 11.5H2.25C1.83579 11.5 1.5 11.1642 1.5 10.75V5.34375C0.653934 5.03328 0 4.28341 0 3.30957C9.56683e-05 3.14244 0.0563132 2.98036 0.15918 2.84863L2.15918 0.288086L2.21582 0.223633C2.35592 0.0814344 2.54801 0 2.75 0H11.75L11.8359 0.00488281ZM10.5 4.90625C10.0614 5.28134 9.4775 5.5 8.875 5.5C8.2725 5.5 7.68857 5.28134 7.25 4.90625C6.81143 5.28134 6.2275 5.5 5.625 5.5C5.0225 5.5 4.43857 5.28134 4 4.90625C3.71624 5.14893 3.37111 5.32408 3 5.41895V10H11.5V5.41895C11.1289 5.32408 10.7838 5.14893 10.5 4.90625ZM1.54395 3.50977C1.64523 3.75787 1.92678 4 2.375 4C2.94602 4 3.25 3.60801 3.25 3.30957C3.25023 2.89555 3.58593 2.55957 4 2.55957C4.41407 2.55957 4.74977 2.89555 4.75 3.30957C4.75 3.60801 5.05398 4 5.625 4C6.19602 4 6.5 3.60801 6.5 3.30957C6.50023 2.89555 6.83593 2.55957 7.25 2.55957C7.66407 2.55957 7.99977 2.89555 8 3.30957C8 3.60801 8.30398 4 8.875 4C9.44602 4 9.75 3.60801 9.75 3.30957C9.75023 2.89555 10.0859 2.55957 10.5 2.55957C10.9141 2.55957 11.2498 2.89555 11.25 3.30957C11.25 3.60801 11.554 4 12.125 4C12.573 4 12.8537 3.75775 12.9551 3.50977L11.3848 1.5H3.11523L1.54395 3.50977Z" fill="currentColor" />

</g>
</svg>
