<svg viewBox="0 0 16 16" fill="none" xmlns="http://www.w3.org/2000/svg">
<g transform="translate(1.7500, 1.7501)">
<path d="M5.80859 0.143387C6.07155 -0.0477955 6.42845 -0.0477955 6.69141 0.143387L12.1914 4.14339C12.3611 4.26691 12.4705 4.45516 12.4951 4.66096L12.5 4.74983V11.7498C12.5 12.164 12.1642 12.4998 11.75 12.4998H7.75C7.55109 12.4998 7.36038 12.4208 7.21973 12.2801C7.07913 12.1395 7 11.9487 7 11.7498V8.99983H5.5V11.7498C5.5 12.164 5.16421 12.4998 4.75 12.4998H0.75C0.335786 12.4998 0 12.164 0 11.7498V4.74983C5.65611e-05 4.51004 0.114724 4.2845 0.308594 4.14339L5.80859 0.143387ZM1.5 5.13167V10.9998H4V8.24983C4.0001 7.8357 4.33585 7.49983 4.75 7.49983H7.75C8.16415 7.49983 8.4999 7.8357 8.5 8.24983V10.9998H11V5.13167L6.25 1.67659L1.5 5.13167Z" fill="currentColor" />

</g>
</svg>
