<svg viewBox="0 0 16 16" fill="none" xmlns="http://www.w3.org/2000/svg">
<g transform="translate(0.2585, 1.8520)">
<path d="M0.205958 3.18888C4.4988 -1.06284 10.9845 -1.06308 15.2772 3.18888C15.5485 3.45797 15.5484 3.89135 15.2948 4.17716L8.30166 12.0444C8.00332 12.3798 7.47888 12.3799 7.18057 12.0444L0.188379 4.17716C-0.0656545 3.89129 -0.0656441 3.45809 0.205958 3.18888ZM7.74111 7.67521C7.1894 7.67544 6.74126 8.12348 6.74111 8.67521C6.74118 9.22701 7.18935 9.67499 7.74111 9.67521C8.29286 9.67497 8.74104 9.227 8.74111 8.67521C8.74097 8.12349 8.29282 7.67545 7.74111 7.67521ZM6.99111 6.17521H8.49111V2.17521H6.99111V6.17521Z" fill="currentColor" />

</g>
</svg>
