<svg viewBox="0 0 16 16" fill="none" xmlns="http://www.w3.org/2000/svg">
<g transform="translate(0.1296, 1.7469)">
<path d="M0.166648 3.78458C3.66656 -0.535912 9.12451 -1.18292 13.2086 1.97598L12.7497 2.56973L12.2907 3.16251C9.04247 0.65027 4.76293 0.971027 1.75844 4.2377L7.74966 10.6566L9.2018 9.10196L10.2975 10.1254L8.29751 12.268C8.15568 12.4197 7.95739 12.5063 7.74966 12.5063C7.54194 12.5061 7.34354 12.4198 7.2018 12.268L0.201804 4.76798C-0.0531549 4.49466 -0.0683682 4.07517 0.166648 3.78458ZM15.7409 3.7543L11.7409 8.2543C11.5941 8.41945 11.3817 8.51193 11.1608 8.50626C10.9399 8.50051 10.7324 8.39754 10.5944 8.22501L8.59438 5.72501L9.76626 4.78751L11.2106 6.59317L14.6198 2.75821L15.7409 3.7543Z" fill="currentColor" />

</g>
</svg>
