<svg viewBox="0 0 16 16" fill="none" xmlns="http://www.w3.org/2000/svg">
<g transform="translate(0.7497, 0.7497)">
<path d="M2.12326 2.12326C4.95442 -0.707896 9.54583 -0.707612 12.3772 2.12326C15.2085 4.95456 15.2085 9.54587 12.3772 12.3772C9.54587 15.2085 4.95456 15.2085 2.12326 12.3772C-0.707612 9.54583 -0.707896 4.95442 2.12326 2.12326ZM11.3156 3.18479C9.0701 0.939698 5.43016 0.939414 3.18479 3.18479C0.939414 5.43016 0.939698 9.0701 3.18479 11.3156C5.4303 13.5612 9.07013 13.5612 11.3156 11.3156C13.5612 9.07013 13.5612 5.4303 11.3156 3.18479ZM7.25022 9.25022C7.80207 9.25022 8.24998 9.69841 8.25022 10.2502C8.25022 10.8022 7.80222 11.2502 7.25022 11.2502C6.69841 11.25 6.25022 10.8021 6.25022 10.2502C6.25045 9.69855 6.69855 9.25045 7.25022 9.25022ZM8.00022 7.75022H6.50022V3.25022H8.00022V7.75022Z" fill="currentColor" />

</g>
</svg>
