<svg viewBox="0 0 16 16" fill="none" xmlns="http://www.w3.org/2000/svg">
<g transform="translate(0.5919, 1.8412)">
<path d="M6.76903 0.356442C7.06214 -0.118767 7.75357 -0.118862 8.04637 0.356442L14.7036 11.1738C15.0114 11.6741 14.6503 12.3185 14.063 12.3174L0.749497 12.292C0.163236 12.2907 -0.194934 11.6475 0.112778 11.1484L6.76903 0.356442ZM7.40868 8.82031C6.8568 8.82045 6.40868 9.2684 6.40868 9.82031C6.40887 10.3721 6.85691 10.8202 7.40868 10.8203C7.96045 10.8202 8.40849 10.3721 8.40868 9.82031C8.40867 9.26839 7.96057 8.82043 7.40868 8.82031ZM6.65868 7.32031H8.15868V3.32031H6.65868V7.32031Z" fill="currentColor" />

</g>
</svg>
