<svg viewBox="0 0 16 16" fill="none" xmlns="http://www.w3.org/2000/svg">
<g transform="translate(1.4998, 0.6247)">
<path fill-rule="evenodd" clip-rule="evenodd" d="M7.09766 2.87207C7.15607 2.98608 7.19733 3.08222 7.22266 3.15918C7.24518 3.22772 7.24916 3.26208 7.24986 3.26805C7.24998 3.26912 7.25 3.26928 7.25 3.26855C7.24997 3.66377 6.92299 4 6.5 4C6.07701 4 5.75003 3.66377 5.75 3.26855C5.75 3.26928 5.75002 3.26912 5.75014 3.26805C5.75084 3.26208 5.75482 3.22772 5.77734 3.15918C5.80267 3.08222 5.84393 2.98608 5.90234 2.87207C6.01991 2.64261 6.18437 2.38557 6.36133 2.13672C6.39523 2.08905 6.42994 2.04276 6.46402 1.99731C6.47612 1.98118 6.48813 1.96516 6.5 1.94922C6.51187 1.96516 6.52388 1.98118 6.53598 1.99731C6.57006 2.04276 6.60477 2.08905 6.63867 2.13672C6.81563 2.38557 6.98009 2.64261 7.09766 2.87207ZM7.25 5.37012C8.11966 5.06458 8.74997 4.24541 8.75 3.26855C8.75 2.87596 8.58425 2.48154 8.43359 2.1875C8.26992 1.86805 8.05936 1.54606 7.86133 1.26758C7.66137 0.986396 7.463 0.7344 7.31543 0.553711C7.24137 0.463029 7.17876 0.389477 7.13477 0.337891C7.12916 0.331318 7.12384 0.325077 7.11883 0.319191C7.10422 0.302041 7.09218 0.287904 7.08301 0.277344L7.06836 0.260742C7.06743 0.259684 7.06663 0.258637 7.06593 0.257721C7.06538 0.257 7.06489 0.25636 7.06445 0.255859L7.0625 0.253906C6.92013 0.0925224 6.71521 0 6.5 0C6.28479 0 6.07987 0.0925224 5.9375 0.253906L5.93555 0.255859C5.93511 0.25636 5.93462 0.257 5.93407 0.257721C5.93337 0.258637 5.93257 0.259684 5.93164 0.260742L5.91699 0.277344C5.90782 0.287904 5.89578 0.302041 5.88117 0.319191C5.87616 0.325077 5.87084 0.331318 5.86523 0.337891C5.82124 0.389477 5.75863 0.463029 5.68457 0.553711C5.537 0.7344 5.33863 0.986396 5.13867 1.26758C4.94064 1.54606 4.73008 1.86805 4.56641 2.1875C4.41575 2.48154 4.25 2.87596 4.25 3.26855C4.25003 4.24541 4.88034 5.06458 5.75 5.37012V7.49997H2.5C1.11929 7.49997 0 8.61926 0 9.99997V14.25C0 14.5261 0.223858 14.75 0.5 14.75H12.5C12.7761 14.75 13 14.5261 13 14.25V9.99997C13 8.61926 11.8807 7.49997 10.5 7.49997H7.25V5.37012Z" fill="currentColor" />

</g>
</svg>
