<svg viewBox="0 0 16 16" fill="none" xmlns="http://www.w3.org/2000/svg">
<g transform="translate(1.2502, 0.5002)">
<path d="M6.75 0C6.9652 0 7.17013 0.0925311 7.3125 0.253906L7.31445 0.255859C7.31545 0.256994 7.31671 0.258856 7.31836 0.260742C7.32181 0.264683 7.32692 0.270337 7.33301 0.277344C7.34532 0.291526 7.36283 0.312171 7.38477 0.337891C7.42876 0.389475 7.49137 0.463036 7.56543 0.553711C7.713 0.734396 7.91138 0.986403 8.11133 1.26758C8.30935 1.54605 8.51992 1.86806 8.68359 2.1875C8.83425 2.48154 8.99999 2.87597 9 3.26855C8.99997 4.24541 8.36966 5.06457 7.5 5.37012V7H10.75C12.2688 7 13.5 8.23123 13.5 9.75V14.25C13.5 14.6642 13.1642 15 12.75 15H0.75C0.33579 15 6.18478e-06 14.6642 0 14.25V9.75C1.39456e-05 8.23123 1.23123 7 2.75 7H6V5.37012C5.13034 5.06457 4.50003 4.24541 4.5 3.26855C4.50001 2.87597 4.66575 2.48154 4.81641 2.1875C4.98008 1.86806 5.19065 1.54605 5.38867 1.26758C5.58862 0.986403 5.787 0.734396 5.93457 0.553711C6.00863 0.463036 6.07124 0.389475 6.11523 0.337891C6.13717 0.312171 6.15468 0.291526 6.16699 0.277344C6.17308 0.270337 6.17819 0.264683 6.18164 0.260742C6.18329 0.258856 6.18455 0.256994 6.18555 0.255859L6.1875 0.253906C6.32987 0.0925311 6.5348 0 6.75 0ZM2.75 8.5C2.05965 8.5 1.50001 9.05966 1.5 9.75V13.5H12V9.75C12 9.05966 11.4403 8.5 10.75 8.5H2.75ZM6.61133 2.13672C6.43437 2.38557 6.26991 2.64261 6.15234 2.87207C6.09393 2.98607 6.05267 3.08222 6.02734 3.15918C6.00077 3.24003 6 3.27332 6 3.26855C6.00003 3.66377 6.32701 4 6.75 4C7.17299 4 7.49997 3.66377 7.5 3.26855C7.5 3.27332 7.49923 3.24003 7.47266 3.15918C7.44733 3.08222 7.40607 2.98607 7.34766 2.87207C7.23009 2.64261 7.06563 2.38557 6.88867 2.13672C6.84275 2.07215 6.79533 2.01009 6.75 1.94922C6.70467 2.01009 6.65725 2.07215 6.61133 2.13672Z" fill="currentColor" />

</g>
</svg>
