<svg viewBox="0 0 16 16" fill="none" xmlns="http://www.w3.org/2000/svg">
<g transform="translate(1.0003, 1.5002)">
<path d="M1.5 0.75H11.75C12.9926 0.750001 14 1.75736 14 3V10C14 11.2426 12.9926 12.25 11.75 12.25H1.5V13H0V0H1.5V0.75ZM1.5 10.75H11.75C12.1642 10.75 12.5 10.4142 12.5 10V3C12.5 2.58579 12.1642 2.25 11.75 2.25H1.5V10.75ZM5.5 4.5C5.63807 4.5 5.75 4.61193 5.75 4.75V6.25C5.75 6.38807 5.63807 6.5 5.5 6.5H3.5C3.36193 6.5 3.25 6.38807 3.25 6.25V4.75C3.25 4.61193 3.36193 4.5 3.5 4.5H5.5Z" fill="currentColor" />

</g>
</svg>
