<svg viewBox="0 0 16 16" fill="none" xmlns="http://www.w3.org/2000/svg">
<g transform="translate(1.7503, 0.7503)">
<path d="M4.33203 1.41194C6.2004 -0.470715 9.23214 -0.47058 11.1006 1.41194C12.9659 3.2915 12.9659 6.3361 11.1006 8.21565L5.87207 13.4842C4.52867 14.8379 2.34828 14.8379 1.00488 13.4842C-0.334936 12.1338 -0.334987 9.94693 1.00488 8.59651L6.2334 3.32796C7.05178 2.50332 8.38182 2.50332 9.2002 3.32796C10.0151 4.14945 10.0153 5.47926 9.2002 6.30061L3.97168 11.5692L3.43848 11.0408L2.90625 10.5125L8.13477 5.24397C8.36959 5.00736 8.36958 4.62122 8.13477 4.3846C7.9031 4.15118 7.53051 4.15121 7.29883 4.3846L2.07031 9.65315C1.31046 10.4188 1.31046 11.6619 2.07031 12.4276C2.82702 13.19 4.05092 13.1901 4.80762 12.4276L10.0361 7.15901C11.3209 5.8643 11.321 3.76326 10.0361 2.46858C8.75443 1.17715 6.67918 1.17717 5.39746 2.46858L4.68457 3.18733L4.15137 2.65901L3.61914 2.13069L4.33203 1.41194Z" fill="currentColor" />

</g>
</svg>
