<svg viewBox="0 0 16 16" fill="none" xmlns="http://www.w3.org/2000/svg">
<g transform="translate(2.2500, 1.7500)">
<path d="M5.75 6.5C7.43057 6.5 8.86402 7.22158 9.87109 8.2168C10.8655 9.19959 11.5 10.507 11.5 11.75C11.5 12.1642 11.1642 12.5 10.75 12.5H0.75C0.335786 12.5 0 12.1642 0 11.75C0 10.507 0.634505 9.19959 1.62891 8.2168C2.63598 7.22158 4.06943 6.5 5.75 6.5ZM5.75 8C4.51402 8 3.44734 8.52854 2.68359 9.2832C2.14896 9.81155 1.78923 10.4233 1.61719 11H9.88281C9.71077 10.4233 9.35104 9.81155 8.81641 9.2832C8.05266 8.52854 6.98598 8 5.75 8ZM5.75 0C7.26878 0 8.5 1.23122 8.5 2.75C8.5 4.26878 7.26878 5.5 5.75 5.5C4.23122 5.5 3 4.26878 3 2.75C3 1.23122 4.23122 0 5.75 0ZM5.75 1.5C5.05964 1.5 4.5 2.05964 4.5 2.75C4.5 3.44036 5.05964 4 5.75 4C6.44036 4 7 3.44036 7 2.75C7 2.05964 6.44036 1.5 5.75 1.5Z" fill="currentColor" />

</g>
</svg>
