<svg viewBox="0 0 16 16" fill="none" xmlns="http://www.w3.org/2000/svg">
<g transform="translate(0.7497, 0.7497)">
<path d="M7.25 0C11.2541 0 14.5 3.24594 14.5 7.25C14.5 11.2541 11.2541 14.5 7.25 14.5C3.24594 14.5 6.44256e-08 11.2541 0 7.25C0 3.24594 3.24594 3.07811e-07 7.25 0ZM7.25 1.5C4.07436 1.5 1.5 4.07436 1.5 7.25C1.5 10.4256 4.07436 13 7.25 13C10.4256 13 13 10.4256 13 7.25C13 4.07436 10.4256 1.5 7.25 1.5ZM6.64648 2.75977V4.14746H8.01562C9.42862 4.14754 10.4121 4.90065 10.4121 6.23242C10.412 6.73435 10.1346 7.2361 9.77051 7.5498C10.3604 7.90538 10.747 8.53301 10.7471 9.24414C10.7471 10.3319 9.84381 11.218 8.71484 11.2529H5.40723C5.27637 11.2389 5.19629 11.1687 5.19629 11.0225V5.87598L6.17969 5.53516H3.74707V4.14062H5.2041V2.75977H6.64648ZM6.63867 5.49316V9.59961C6.64596 9.74604 6.73367 9.82324 6.87207 9.82324H8.70703C9.12222 9.78838 9.4502 9.45326 9.4502 9.04883C9.45002 8.61672 9.08617 8.26866 8.63477 8.26855H7.95703C7.81869 8.26852 7.72408 8.19118 7.7168 8.05176V7.17383C7.7168 7.04837 7.79682 6.95711 7.94238 6.95703L8.21191 6.94336C8.62711 6.94336 8.96191 6.6151 8.96191 6.22461C8.96166 5.83431 8.62695 5.49316 8.21191 5.49316H6.63867ZM5.2041 2.75977H5.19629L5.2041 2.75293V2.75977Z" fill="currentColor" />

</g>
</svg>
