<svg viewBox="0 0 16 16" fill="none" xmlns="http://www.w3.org/2000/svg">
<g transform="translate(0.3401,1.2500)">
<path d="M12.4787 0.0224594C12.8355 -0.0667365 13.2045 0.116371 13.3498 0.4541L15.2199 4.81738C15.4061 5.25194 15.3543 5.86053 14.8723 6.23144C14.2384 6.71875 13.4315 6.94042 12.6603 6.94043C11.8893 6.94029 11.0831 6.71867 10.4494 6.23144C9.96757 5.86049 9.91554 5.25187 10.1018 4.81738L11.3752 1.84375L8.41035 2.58496V12H10.6603V13.5H4.66035V12H6.91035V2.95996L3.69648 3.76367L5.22089 7.32031C5.40656 7.75354 5.35403 8.35064 4.88984 8.72363C3.63847 9.72879 1.68208 9.72906 0.430853 8.72363C-0.0327951 8.35064 -0.0857263 7.75336 0.0997983 7.32031L1.97089 2.9541C2.06321 2.739 2.25166 2.57938 2.4787 2.52246L12.4787 0.0224594ZM1.57245 7.69043C2.21143 8.06978 3.10777 8.07004 3.74726 7.6914L2.66035 5.1543L1.57245 7.69043ZM11.5783 5.17969C11.8808 5.3452 12.2593 5.44031 12.6603 5.44043C13.0614 5.44043 13.4398 5.34508 13.7424 5.17969L12.6603 2.6543L11.5783 5.17969Z" fill="currentColor" />

</g>
</svg>
