<svg viewBox="0 0 16 16" fill="none" xmlns="http://www.w3.org/2000/svg">
<g transform="translate(1.2501, 1.7502)">
<path d="M6.43165 0.0710761C6.66672 -0.039257 6.94552 -0.0212167 7.16602 0.125764L13.166 4.12576C13.441 4.30909 13.5636 4.65124 13.4678 4.96756C13.3719 5.28365 13.0804 5.49979 12.75 5.49979H12V10.9998H13.25V12.4998H0.250008V10.9998H1.50001V5.49979H0.750008C0.419675 5.49976 0.128131 5.28364 0.0322344 4.96756C-0.0635255 4.65126 0.0590324 4.3091 0.333992 4.12576L6.33399 0.125764L6.43165 0.0710761ZM7.50001 5.49979V10.9998H10.5V5.49979H7.50001ZM3.00001 10.9998H6.00001V5.49979H3.00001V10.9998ZM3.22657 3.99979H10.2734L6.75001 1.65115L3.22657 3.99979Z" fill="currentColor" />

</g>
</svg>
