<svg viewBox="0 0 16 16" fill="none" xmlns="http://www.w3.org/2000/svg">
<g transform="translate(0.2500,2.2500)">
<path d="M7.5 0C9.53975 0 11.2217 1.52692 11.4678 3.5H11.5C13.7091 3.5 15.5 5.29086 15.5 7.5C15.5 9.70914 13.7091 11.5 11.5 11.5H8C5.96025 11.5 4.27835 9.97308 4.03223 8H4C1.79086 8 0 6.20914 0 4C0 1.79086 1.79086 0 4 0H7.5ZM11.374 5C10.93 6.72523 9.36384 8 7.5 8H5.5498C5.78142 9.14114 6.79051 10 8 10H11.5C12.8807 10 14 8.88071 14 7.5C14 6.11929 12.8807 5 11.5 5H11.374ZM8 5C6.97512 5 6.0959 5.61743 5.70996 6.5H7.5C8.52488 6.5 9.4041 5.88257 9.79004 5H8ZM4 1.5C2.61929 1.5 1.5 2.61929 1.5 4C1.5 5.38071 2.61929 6.5 4 6.5H4.12598C4.57002 4.77477 6.13616 3.5 8 3.5H9.9502C9.71858 2.35886 8.70949 1.5 7.5 1.5H4Z" fill="currentColor" />

</g>
</svg>
