<svg viewBox="0 0 16 16" fill="none" xmlns="http://www.w3.org/2000/svg">
<g transform="translate(1.1330, 1.2499)">
<path d="M11.2593 0.00488281C11.4574 0.0278375 11.6399 0.129032 11.7642 0.288086C11.9062 0.470032 11.9568 0.707684 11.9009 0.931641C11.2625 3.48527 11.4234 5.70044 11.4234 6.75H9.92336C9.92336 5.90739 9.78827 3.88497 10.2417 1.5H1.74661C1.32033 3.26296 1.52396 4.80852 1.7886 6.50977C2.04202 8.13888 2.35043 9.91298 2.06497 12H5.67336V13.5H1.17336C0.946872 13.5 0.731772 13.3978 0.589381 13.2217C0.44702 13.0456 0.392516 12.8142 0.439967 12.5928C0.906738 10.4142 0.601133 8.63008 0.307154 6.74023C0.0145874 4.85947 -0.265064 2.87454 0.456568 0.529297L0.50149 0.416016C0.626582 0.164307 0.885413 0 1.17336 0H11.1734L11.2593 0.00488281ZM13.7339 8.74805L9.73391 13.248C9.58717 13.4131 9.37462 13.5056 9.15383 13.5C8.933 13.4943 8.72549 13.3912 8.58743 13.2188L6.58743 10.7188L7.7593 9.78125L9.20364 11.5869L12.6128 7.75195L13.7339 8.74805Z" fill="currentColor" />

</g>
</svg>
