<svg viewBox="0 0 16 16" fill="none" xmlns="http://www.w3.org/2000/svg">
<g transform="translate(1.7500, 1.7500)">
<path d="M1.5 11H4.25V12.5H0.75C0.335786 12.5 0 12.1642 0 11.75V8.25H1.5V11ZM12.5 11.75C12.5 12.1642 12.1642 12.5 11.75 12.5H8.25V11H11V8.25H12.5V11.75ZM8.9209 7.91895C8.4188 8.92142 7.4389 9.66602 6.25 9.66602C5.0611 9.66602 4.0812 8.92142 3.5791 7.91895L4.9209 7.24707C5.21724 7.83869 5.72969 8.16602 6.25 8.16602C6.77031 8.16602 7.28276 7.83869 7.5791 7.24707L8.9209 7.91895ZM4.25 1.5H1.5V4.25H0V0.75C0 0.335786 0.335786 0 0.75 0H4.25V1.5ZM11.75 0C12.1642 0 12.5 0.335786 12.5 0.75V4.25H11V1.5H8.25V0H11.75Z" fill="currentColor" />

</g>
</svg>
