<svg viewBox="0 0 16 16" fill="none" xmlns="http://www.w3.org/2000/svg">
<g transform="translate(1.1296, 1.0277)">
<path d="M10.0977 6.95095L10.8359 7.08181C10.6657 8.03762 10.2284 9.3584 9.68652 10.6121C9.14731 11.8597 8.46735 13.1286 7.77734 13.9441L6.63281 12.9754C7.17996 12.3287 7.78982 11.2199 8.30957 10.0174C8.82668 8.82091 9.21713 7.6179 9.35938 6.81912L10.0977 6.95095ZM5.67578 0.0583738C9.2325 -0.336816 11.5224 1.35259 12.5449 2.77322C13.5474 4.16616 13.943 5.89447 13.6416 7.57595C13.4019 8.90929 12.7418 10.753 12.2344 11.9451L11.5439 11.6511L10.8545 11.3572C11.3459 10.2026 11.9548 8.4796 12.165 7.31033C12.394 6.03195 12.0945 4.71529 11.3271 3.64919C10.5796 2.61068 8.79321 1.22083 5.8418 1.54861L5.67578 0.0583738ZM6.4248 2.949C8.22719 2.55886 9.90852 3.4489 10.7686 5.16873L10.0977 5.50466L9.42676 5.83962C8.84034 4.66701 7.80568 4.18462 6.74219 4.41482C6.30856 4.50878 5.93191 4.77101 5.57617 5.21169C5.21332 5.66124 4.90315 6.25919 4.60645 6.95193C4.2976 7.67303 4.0623 8.3443 3.75879 9.08962C3.47723 9.78103 3.15402 10.487 2.73438 11.0271L2.14258 10.5662L1.55078 10.1062C1.83358 9.74213 2.09279 9.20521 2.37012 8.52419C2.62555 7.89693 2.92613 7.06484 3.22754 6.36111C3.54101 5.62924 3.91575 4.88057 4.40918 4.26931C4.90971 3.64927 5.5613 3.13604 6.4248 2.949ZM6.4668 6.45779C6.53928 6.0503 6.92834 5.77829 7.33594 5.85037C7.74359 5.92265 8.01536 6.31183 7.94336 6.71951C7.8397 7.30478 7.48745 8.12752 7.14551 8.84353C6.79 9.58793 6.39557 10.3178 6.14941 10.7556L5.49609 10.3875L4.8418 10.0203C5.07735 9.6013 5.45512 8.90242 5.79199 8.19705C6.14238 7.46335 6.40366 6.81424 6.4668 6.45779ZM4.3125 1.52712L4.64746 2.19802C3.77498 2.63443 3.14528 3.45923 2.63281 4.48416C2.10657 5.53673 1.78783 6.60344 1.39258 7.59158L0.696289 7.31228L0 7.03396C0.327855 6.21428 0.732691 4.93 1.29102 3.81326C1.8632 2.66889 2.67993 1.5047 3.97656 0.856225L4.3125 1.52712Z" fill="currentColor" />

</g>
</svg>
