<svg viewBox="0 0 16 16" fill="none" xmlns="http://www.w3.org/2000/svg">
<g transform="translate(0.7497, 0.7497)">
<path d="M2.12326 2.12326C4.95442 -0.707896 9.54583 -0.707611 12.3772 2.12326C15.2085 4.95456 15.2085 9.54587 12.3772 12.3772C9.54587 15.2085 4.95456 15.2085 2.12326 12.3772C-0.707611 9.54583 -0.707896 4.95442 2.12326 2.12326ZM3.75021 11.8108C6.00501 13.5457 9.24991 13.3814 11.3156 11.3156C13.3814 9.24991 13.5457 6.00501 11.8108 3.75021L3.75021 11.8108ZM10.7492 2.68869C8.4945 0.955002 5.25004 1.11953 3.18478 3.18478C1.11953 5.25004 0.955002 8.4945 2.68869 10.7492L10.7492 2.68869Z" fill="currentColor" />

</g>
</svg>
