<svg viewBox="0 0 16 16" fill="none" xmlns="http://www.w3.org/2000/svg">
<g transform="translate(0.7497, 1.3595)">
<path d="M12.7803 3C12.9209 3.14064 13 3.33138 13 3.53027C13 3.67941 12.9555 3.824 12.874 3.94629L12.7803 4.06055L9.78028 7.06055L8.71973 6L10.4395 4.28027H4.75C4.03756 4.28027 3.5482 4.28054 3.16895 4.31152C2.79854 4.34179 2.5991 4.39732 2.45508 4.4707C2.12599 4.63844 1.85818 4.90627 1.69043 5.23535C1.61705 5.37937 1.56153 5.57882 1.53125 5.94922C1.50027 6.32846 1.5 6.81786 1.5 7.53027V8.53027C1.5 9.24268 1.50027 9.73208 1.53125 10.1113C1.56152 10.4817 1.61706 10.6812 1.69043 10.8252C1.85818 11.1543 2.12598 11.4221 2.45508 11.5898C2.5991 11.6632 2.79852 11.7188 3.16895 11.749C3.5482 11.78 4.03756 11.7803 4.75 11.7803H9.75C10.4624 11.7803 10.9518 11.78 11.3311 11.749C11.7015 11.7188 11.9009 11.6632 12.0449 11.5898C12.374 11.4221 12.6418 11.1543 12.8096 10.8252C12.8829 10.6812 12.9385 10.4817 12.9688 10.1113C12.9997 9.73208 13 9.24268 13 8.53027V7.53027H14.5V8.53027C14.5 9.21793 14.501 9.7789 14.4639 10.2334C14.426 10.6966 14.3446 11.1151 14.1455 11.5059C13.834 12.1172 13.3369 12.6142 12.7256 12.9258C12.3349 13.1249 11.9164 13.2063 11.4531 13.2441C10.9986 13.2813 10.4377 13.2803 9.75 13.2803H4.75C4.06231 13.2803 3.50138 13.2813 3.04688 13.2441C2.58363 13.2063 2.16515 13.1249 1.77442 12.9258C1.16306 12.6142 0.666051 12.1172 0.354495 11.5059C0.155422 11.1151 0.0739844 10.6966 0.0361354 10.2334C-0.000994383 9.7789 2.62509e-06 9.21794 2.62509e-06 8.53027V7.53027C2.56909e-06 6.84261 -0.00099809 6.28164 0.0361354 5.82715C0.0739881 5.36392 0.155414 4.94541 0.354495 4.55469C0.666057 3.94334 1.16306 3.44632 1.77442 3.13477C2.16514 2.93568 2.58363 2.85426 3.04688 2.81641C3.50138 2.77927 4.06231 2.78027 4.75 2.78027H10.4395L8.71973 1.06055L9.78028 0L12.7803 3Z" fill="currentColor" />

</g>
</svg>
