<svg viewBox="0 0 16 16" fill="none" xmlns="http://www.w3.org/2000/svg">
<g transform="translate(2.2497, 0.6247)">
<path d="M1.5 6.75C1.5 9.09704 3.40301 10.9997 5.75 11C8.09719 11 10 9.09719 10 6.75V6.25H11.5V6.75C11.5 9.67134 9.32112 12.0816 6.5 12.4492V14.75H5V12.4492C2.17912 12.0814 7.40801e-08 9.67118 0 6.75V6.25H1.5V6.75ZM5.75 0C7.26871 2.34224e-05 8.49991 1.23131 8.5 2.75V6.75C8.49998 8.26877 7.26877 9.5 5.75 9.5C4.23145 9.49973 3.00002 8.2686 3 6.75V2.75C3.00009 1.23145 4.23149 0.000244621 5.75 0ZM5.75 1.5C5.05991 1.50024 4.50009 2.05987 4.5 2.75V6.75C4.50002 7.44018 5.05987 7.99974 5.75 8C6.44034 8 6.99998 7.44034 7 6.75V2.75C6.99991 2.05973 6.44029 1.50001 5.75 1.5Z" fill="currentColor" />

</g>
</svg>
