<svg viewBox="0 0 16 16" fill="none" xmlns="http://www.w3.org/2000/svg">
<g transform="translate(1.3621, 1.8802)">
<path d="M6.26215 0.170748C6.46135 -0.0569159 6.81587 -0.0569159 7.01508 0.170748L9.85004 3.41098C10.015 3.59946 10.0149 3.88067 9.85004 4.06919L7.0766 7.24008H12.7758C13.1599 7.24011 13.4003 7.65579 13.2094 7.98911L11.0629 11.7372C10.8848 12.0482 10.5533 12.2401 10.1948 12.2401H3.08148C2.72311 12.24 2.39247 12.0481 2.2143 11.7372L0.0668341 7.98911C-0.123995 7.65591 0.116576 7.24043 0.500428 7.24008H6.20062L3.42621 4.06919C3.26156 3.8807 3.26142 3.59939 3.42621 3.41098L6.26215 0.170748Z" fill="currentColor" />

</g>
</svg>
