<svg viewBox="0 0 16 16" fill="none" xmlns="http://www.w3.org/2000/svg">
<g transform="translate(0.7497, 2.0832)">
<path d="M8.58398 0C9.55018 0.000351615 10.334 0.78372 10.334 1.75V2.83301H12.75C13.7165 2.83301 14.5 3.61651 14.5 4.58301V10.083C14.5 11.0495 13.7165 11.833 12.75 11.833H1.75C0.783502 11.833 2.81862e-08 11.0495 0 10.083V4.58301C0 3.61651 0.783502 2.83301 1.75 2.83301H4.16699V1.75C4.16699 0.783503 4.95049 1.07376e-08 5.91699 0H8.58398ZM1.75 4.33301C1.61193 4.33301 1.5 4.44494 1.5 4.58301V10.083C1.5 10.2211 1.61193 10.333 1.75 10.333H12.75C12.8881 10.333 13 10.2211 13 10.083V4.58301C13 4.44494 12.8881 4.33301 12.75 4.33301H1.75ZM11.6494 6.71777L11.6475 6.71875L11.6455 6.7207C11.6437 6.72186 11.6413 6.72302 11.6387 6.72461C11.6332 6.72795 11.6257 6.73218 11.6172 6.7373C11.6001 6.74754 11.5771 6.7617 11.5479 6.77832C11.4893 6.81159 11.406 6.85626 11.3008 6.90918C11.0904 7.01495 10.7883 7.15265 10.4072 7.28906C9.64573 7.56162 8.5597 7.83301 7.25 7.83301C5.9403 7.83301 4.85427 7.56162 4.09277 7.28906C3.71173 7.15265 3.40963 7.01495 3.19922 6.90918C3.09395 6.85626 3.01068 6.81159 2.95215 6.77832C2.92291 6.7617 2.89988 6.74754 2.88281 6.7373C2.87427 6.73218 2.86675 6.72795 2.86133 6.72461C2.85875 6.72302 2.85635 6.72186 2.85449 6.7207L2.85254 6.71875L2.85059 6.71777L3.64941 5.44824C3.65055 5.44893 3.65227 5.44996 3.6543 5.45117C3.66164 5.45557 3.67479 5.46308 3.69336 5.47363C3.73098 5.49502 3.79105 5.5286 3.87207 5.56934C4.03457 5.65103 4.2806 5.76344 4.59766 5.87695C5.23285 6.10434 6.14678 6.33301 7.25 6.33301C8.35322 6.33301 9.26715 6.10434 9.90234 5.87695C10.2194 5.76344 10.4654 5.65103 10.6279 5.56934C10.709 5.5286 10.769 5.49502 10.8066 5.47363C10.8252 5.46308 10.8384 5.45557 10.8457 5.45117L10.8506 5.44824L11.6494 6.71777ZM5.91699 1.5C5.77892 1.5 5.66699 1.61193 5.66699 1.75V2.83301H8.83398V1.75C8.83398 1.61215 8.72176 1.50035 8.58398 1.5H5.91699Z" fill="currentColor" />

</g>
</svg>
