<svg viewBox="0 0 16 16" fill="none" xmlns="http://www.w3.org/2000/svg">
<g transform="translate(0.7497, 1.9997)">
<path d="M8.75 0C9.7165 0 10.5 0.783502 10.5 1.75V3H12.75C13.7165 3 14.5 3.7835 14.5 4.75V7.75H13V4.75C13 4.61193 12.8881 4.5 12.75 4.5H1.75C1.61193 4.5 1.5 4.61193 1.5 4.75V10.25C1.5 10.3881 1.61193 10.5 1.75 10.5H2.5V12H1.75C0.783502 12 2.81862e-08 11.2165 0 10.25V4.75C0 3.7835 0.783502 3 1.75 3H4V1.75C4 0.783502 4.7835 1.32113e-06 5.75 0H8.75ZM5.5 12H4V9.25H5.5V12ZM8.5 12H7V6.25H8.5V12ZM11.5 12H10V7.91699H11.5V12ZM14.5 12H13V9.25H14.5V12ZM5.75 1.5C5.61193 1.5 5.5 1.61193 5.5 1.75V3H9V1.75C9 1.61193 8.88807 1.5 8.75 1.5H5.75Z" fill="currentColor" />

</g>
</svg>
