<svg viewBox="0 0 16 16" fill="none" xmlns="http://www.w3.org/2000/svg">
<g transform="translate(1.0003, 2.1252)">
<path fill-rule="evenodd" clip-rule="evenodd" d="M8.5 0C9.4665 0 10.25 0.783502 10.25 1.75V2.75H12C13.1046 2.75 14 3.64543 14 4.75V9.75C14 10.8546 13.1046 11.75 12 11.75H2C0.895431 11.75 8.05332e-09 10.8546 0 9.75V4.75C0 3.64543 0.895431 2.75 2 2.75H3.75V1.75C3.75 0.783502 4.5335 0 5.5 0H8.5ZM11.0098 5.12207C11.0012 5.12732 10.9861 5.13712 10.9648 5.14941C10.9222 5.1741 10.8543 5.21141 10.7637 5.25781C10.5817 5.35092 10.3075 5.47864 9.9541 5.60742C9.24613 5.86539 8.22827 6.12498 7 6.125C5.77181 6.12498 4.75386 5.86537 4.0459 5.60742C3.69265 5.47869 3.41825 5.3509 3.23633 5.25781C3.14564 5.2114 3.07781 5.17409 3.03516 5.14941C3.01391 5.13712 2.99887 5.12735 2.99023 5.12207C2.98618 5.1196 2.98242 5.11816 2.98242 5.11816L2.1748 6.38184L2.17578 6.38281L2.17871 6.38477C2.1807 6.38599 2.18374 6.38693 2.18652 6.38867C2.19225 6.39225 2.19991 6.3968 2.20898 6.40234C2.22734 6.41355 2.25245 6.42891 2.28418 6.44727C2.34778 6.48406 2.43771 6.53488 2.55273 6.59375C2.78289 6.71152 3.11408 6.8652 3.53223 7.01758C4.36793 7.32207 5.56133 7.62498 7 7.625C8.43875 7.62498 9.63206 7.32209 10.4678 7.01758C10.886 6.86517 11.2171 6.71154 11.4473 6.59375C11.5623 6.53489 11.6522 6.48407 11.7158 6.44727C11.7476 6.42888 11.7736 6.41355 11.792 6.40234C11.8009 6.39688 11.8088 6.3922 11.8145 6.38867C11.817 6.3871 11.8195 6.38593 11.8213 6.38477L11.8242 6.38281L11.8252 6.38184L11.0166 5.11816L11.0098 5.12207ZM5.5 1.5C5.36193 1.5 5.25 1.61193 5.25 1.75V2.75H8.75V1.75C8.75 1.61193 8.63807 1.5 8.5 1.5H5.5Z" fill="currentColor" />

</g>
</svg>
