<svg viewBox="0 0 16 16" fill="none" xmlns="http://www.w3.org/2000/svg">
<g transform="translate(1.0003, 2.0417)">
<path d="M12 2.91699C13.1046 2.91699 14 3.81242 14 4.91699V9.91699C13.9998 11.0214 13.1045 11.917 12 11.917H2C0.895539 11.917 0.000175797 11.0214 0 9.91699V4.91699C0 3.81242 0.895431 2.91699 2 2.91699H12ZM7 4.41699C5.34315 4.41699 4 5.76014 4 7.41699C4.00018 9.0737 5.34325 10.417 7 10.417C8.65675 10.417 9.99982 9.0737 10 7.41699C10 5.76014 8.65685 4.41699 7 4.41699ZM7 5.66699C7.9665 5.66699 8.75 6.45049 8.75 7.41699C8.74982 8.38334 7.96639 9.16699 7 9.16699C6.03361 9.16699 5.25018 8.38334 5.25 7.41699C5.25 6.45049 6.0335 5.66699 7 5.66699ZM7 0C7.79591 0 8.40993 0.199683 8.83496 0.412109C9.04626 0.517758 9.21002 0.626506 9.3252 0.712891C9.38268 0.756014 9.42883 0.793437 9.46289 0.823242C9.47996 0.838177 9.49361 0.851739 9.50488 0.862305C9.51041 0.867487 9.51539 0.871966 9.51953 0.875977C9.5216 0.877982 9.52367 0.880143 9.52539 0.881836C9.52623 0.88266 9.52757 0.883041 9.52832 0.883789L9.5293 0.885742H9.53027C9.53037 0.886164 9.52097 0.896022 9 1.41699C8.48899 1.928 8.47015 1.94635 8.46973 1.94727L8.47363 1.95117C8.47457 1.95209 8.47586 1.95244 8.47656 1.95312C8.47813 1.95464 8.47906 1.95565 8.47949 1.95605C8.48035 1.95686 8.47837 1.95544 8.47461 1.95215C8.46693 1.94544 8.45015 1.93112 8.4248 1.91211C8.37331 1.87352 8.28669 1.81475 8.16504 1.75391C7.92342 1.6331 7.53709 1.5 7 1.5C6.46291 1.5 6.07658 1.6331 5.83496 1.75391C5.71331 1.81475 5.62669 1.87352 5.5752 1.91211C5.54985 1.93112 5.53307 1.94544 5.52539 1.95215C5.52163 1.95544 5.51965 1.95686 5.52051 1.95605C5.52094 1.95565 5.52187 1.95464 5.52344 1.95312C5.52414 1.95244 5.52543 1.95209 5.52637 1.95117L5.53027 1.94727C5.52985 1.94635 5.51101 1.928 5 1.41699C4.47903 0.896022 4.46963 0.886164 4.46973 0.885742H4.4707L4.47168 0.883789C4.47243 0.883041 4.47377 0.88266 4.47461 0.881836C4.47633 0.880143 4.4784 0.877982 4.48047 0.875977C4.48461 0.871966 4.48959 0.867487 4.49512 0.862305C4.50639 0.851739 4.52004 0.838177 4.53711 0.823242C4.57117 0.793437 4.61732 0.756014 4.6748 0.712891C4.78998 0.626506 4.95374 0.517758 5.16504 0.412109C5.59007 0.199683 6.20409 0 7 0Z" fill="currentColor" />

</g>
</svg>
