<svg viewBox="0 0 16 16" fill="none" xmlns="http://www.w3.org/2000/svg">
<g transform="translate(0.5946, 1.9998)">
<path d="M14.8105 7.24805L10.8105 11.748C10.6637 11.9132 10.4514 12.0057 10.2305 12C10.0096 11.9942 9.80212 11.8913 9.66406 11.7188L7.66406 9.21875L8.83594 8.28125L10.2803 10.0869L13.6895 6.25195L14.8105 7.24805ZM12.25 0C13.4926 1.61066e-07 14.5 1.00736 14.5 2.25V4.75H13V2.25C13 1.83579 12.6642 1.5 12.25 1.5H2.25C1.83579 1.5 1.5 1.83579 1.5 2.25V9.25C1.5 9.66421 1.83579 10 2.25 10H6.25V11.5H2.25C1.00736 11.5 3.22128e-08 10.4926 0 9.25V2.25C0 1.00736 1.00736 4.0266e-09 2.25 0H12.25Z" fill="currentColor" />

</g>
</svg>
