<svg viewBox="0 0 16 16" fill="none" xmlns="http://www.w3.org/2000/svg">
<g transform="translate(0.3750, 1.6250)">
<path d="M7.5 2.75H2.25C1.83579 2.75 1.50001 3.08579 1.5 3.5V10.5C1.50002 10.9142 1.8358 11.25 2.25 11.25H12.25C12.6642 11.25 13 10.9142 13 10.5V7.25H14.5V10.5C14.5 11.7426 13.4926 12.75 12.25 12.75H2.25C1.00737 12.75 1.81358e-05 11.7426 0 10.5V3.5C7.28016e-06 2.25736 1.00737 1.25 2.25 1.25H7.5V2.75ZM12.75 0C12.9489 0 13.1396 0.0790743 13.2803 0.219727L15.0303 1.96973C15.3232 2.26262 15.3232 2.73738 15.0303 3.03027L11.1699 6.89062C11.0083 7.05215 10.8164 7.18068 10.6055 7.26855L7.78809 8.44238C7.51342 8.55667 7.19758 8.49746 6.98242 8.29199C6.76729 8.08654 6.69346 7.77375 6.79492 7.49414L7.71973 4.95215C7.80712 4.71189 7.94617 4.49328 8.12695 4.3125L12.2197 0.219727L12.334 0.125977C12.4563 0.0444464 12.6008 0 12.75 0ZM9.1875 5.37305C9.16167 5.39888 9.14139 5.43051 9.12891 5.46484L8.78809 6.40039L10.0293 5.88379C10.0592 5.87128 10.0864 5.85298 10.1094 5.83008L13.4395 2.5L12.75 1.81055L9.1875 5.37305Z" fill="currentColor" />

</g>
</svg>
