<svg viewBox="0 0 16 16" fill="none" xmlns="http://www.w3.org/2000/svg">
<g transform="translate(0.4967, 1.6253)">
<path d="M7.25 2.75001H2.25C1.8358 2.75001 1.50002 3.08581 1.5 3.50001V10.5C1.5 10.9142 1.83579 11.25 2.25 11.25H12.25C12.6642 11.25 13 10.9142 13 10.5V7.00001H14.5V10.5C14.5 11.7426 13.4926 12.75 12.25 12.75H2.25C1.00736 12.75 3.22128e-08 11.7426 0 10.5V3.50001C1.55908e-05 2.25738 1.00737 1.25001 2.25 1.25001H7.25V2.75001ZM11.6914 0.242195C11.7787 -0.0806735 12.237 -0.08079 12.3242 0.242195L12.793 1.98341C12.8233 2.09619 12.9116 2.18448 13.0244 2.21485L14.7646 2.6836C15.088 2.77067 15.088 3.22935 14.7646 3.31641L13.0244 3.78516C12.9116 3.81553 12.8233 3.90382 12.793 4.01661L12.3242 5.75782C12.237 6.08081 11.7787 6.08069 11.6914 5.75782L11.2227 4.01661C11.1923 3.90389 11.1039 3.81558 10.9912 3.78516L9.25 3.31641C8.92664 3.22934 8.92664 2.77067 9.25 2.6836L10.9912 2.21485C11.1039 2.18443 11.1923 2.09613 11.2227 1.98341L11.6914 0.242195Z" fill="currentColor" />

</g>
</svg>
