<svg viewBox="0 0 16 16" fill="none" xmlns="http://www.w3.org/2000/svg">
<g transform="translate(0.7087, 1.7916)">
<path d="M6.25 2.41713H2.25C1.83579 2.41713 1.5 2.75291 1.5 3.16713V10.1671C1.50018 10.5812 1.8359 10.9171 2.25 10.9171H12.25C12.6639 10.9169 12.9998 10.5811 13 10.1671V6.66713H14.5V10.1671C14.4998 11.4095 13.4924 12.4169 12.25 12.4171H2.25C1.00747 12.4171 0.000178243 11.4096 0 10.1671V3.16713C0 1.92448 1.00736 0.917126 2.25 0.917126H6.25V2.41713ZM9.35352 1.3683C9.35352 0.317163 10.4411 -0.338541 11.3115 0.182751L12.6289 0.971813L13.9268 1.74818C14.8009 2.27379 14.8009 3.59549 13.9307 4.12513L12.6328 4.90248L11.3154 5.69056C10.445 6.21617 9.35742 5.55727 9.35742 4.50599V4.29799C9.35737 4.25073 9.3448 4.20419 9.32227 4.16322C9.29973 4.12235 9.2675 4.08835 9.22852 4.06459C9.18942 4.04077 9.14486 4.02777 9.09961 4.02748C9.05446 4.02722 9.01 4.0394 8.9707 4.06263L7.76953 4.78431L6.57324 5.50209C6.53401 5.52562 6.50121 5.55981 6.47852 5.60072C6.45587 5.64161 6.44439 5.68824 6.44434 5.73549C6.44434 5.78272 6.45593 5.82935 6.47852 5.87025C6.5012 5.91121 6.53399 5.94532 6.57324 5.96888L7.76953 6.68666L8.9707 7.40931C9.00996 7.43249 9.05452 7.44473 9.09961 7.44447C9.14484 7.44418 9.18943 7.43115 9.22852 7.40736C9.26746 7.38364 9.29972 7.34952 9.32227 7.30873C9.34475 7.26786 9.35732 7.2211 9.35742 7.17396V6.75404C9.35716 6.70752 9.36859 6.66164 9.39062 6.62123C9.41264 6.58086 9.44406 6.54703 9.48242 6.52357C9.52084 6.50011 9.56488 6.48766 9.60938 6.48744C9.65378 6.48727 9.69777 6.49955 9.73633 6.52259L10.3477 6.88685C10.3878 6.90997 10.4212 6.94416 10.4443 6.98549C10.4674 7.02685 10.479 7.07433 10.4785 7.1222V7.29896C10.4785 8.35025 9.39095 9.00523 8.52051 8.48353L7.20312 7.69545L5.90527 6.9181C5.03128 6.39237 5.03115 5.07066 5.90527 4.54506L7.20312 3.76869L8.5166 2.97572C9.38702 2.45026 10.4756 3.11004 10.4756 4.16127V4.3683C10.4756 4.4155 10.4873 4.46212 10.5098 4.50306C10.5323 4.54406 10.5644 4.57886 10.6035 4.60267C10.6426 4.62648 10.6872 4.63851 10.7324 4.63881C10.7777 4.63909 10.822 4.62696 10.8613 4.60365L12.0625 3.88197L13.2588 3.1642C13.2981 3.14063 13.3308 3.10654 13.3535 3.06556C13.3761 3.02463 13.3887 2.97808 13.3887 2.9308C13.3886 2.88353 13.3762 2.83694 13.3535 2.79603C13.3308 2.75513 13.298 2.72093 13.2588 2.6974L12.0625 1.97963L10.8613 1.25795C10.822 1.23472 10.7776 1.2225 10.7324 1.22279C10.6872 1.22308 10.6426 1.23609 10.6035 1.2599C10.5646 1.28368 10.5323 1.31766 10.5098 1.35853C10.4872 1.39952 10.4756 1.44601 10.4756 1.4933V1.91322C10.4758 1.95969 10.4644 2.00566 10.4424 2.04603C10.4203 2.08644 10.388 2.12022 10.3496 2.14369C10.3112 2.16708 10.2671 2.1796 10.2227 2.17982C10.1783 2.17996 10.1342 2.16768 10.0957 2.14466L9.48438 1.77943C9.44433 1.75626 9.41076 1.72213 9.3877 1.6808C9.36466 1.63941 9.35303 1.59196 9.35352 1.54408V1.3683Z" fill="currentColor" />

</g>
</svg>
