<svg viewBox="0 0 16 16" fill="none" xmlns="http://www.w3.org/2000/svg">
<g transform="translate(0.6097, 1.8598)">
<path d="M14.7803 7.28027L12.8105 9.25L14.7803 11.2197L13.7197 12.2803L11.75 10.3105L9.78027 12.2803L8.71973 11.2197L10.6895 9.25L8.71973 7.28027L9.78027 6.21973L11.75 8.18945L13.7197 6.21973L14.7803 7.28027ZM12.25 0C13.4926 1.61066e-07 14.5 1.00736 14.5 2.25V4.75H13V2.25C13 1.83579 12.6642 1.5 12.25 1.5H2.25C1.83579 1.5 1.5 1.83579 1.5 2.25V9.25C1.5 9.66421 1.83579 10 2.25 10H7.25V11.5H2.25C1.00736 11.5 3.22128e-08 10.4926 0 9.25V2.25C0 1.00736 1.00736 4.0266e-09 2.25 0H12.25Z" fill="currentColor" />

</g>
</svg>
