<svg viewBox="0 0 16 16" fill="none" xmlns="http://www.w3.org/2000/svg">
<g transform="translate(0.4163, 1.3748)">
<path d="M12.75 11.25C13.3023 11.25 13.75 11.6977 13.75 12.25C13.75 12.8023 13.3023 13.25 12.75 13.25C12.1977 13.25 11.75 12.8023 11.75 12.25C11.75 11.6977 12.1977 11.25 12.75 11.25ZM12.25 0C13.4926 1.61066e-07 14.5 1.00736 14.5 2.25V3.75H13V2.25C13 1.83579 12.6642 1.5 12.25 1.5H2.25C1.83579 1.5 1.5 1.83579 1.5 2.25V9.25C1.5 9.66421 1.83579 10 2.25 10H10.25V11.5H2.25C1.00736 11.5 3.22128e-08 10.4926 0 9.25V2.25C0 1.00736 1.00736 4.0266e-09 2.25 0H12.25ZM12.75 5C14.129 5.00015 15.167 6.05721 15.167 7.39062C15.1669 8.06916 14.8868 8.64243 14.4238 9.04297C14.1555 9.27501 13.8379 9.43707 13.5 9.53906V10.25H12V8.21191L12.7041 8.16797C13.0416 8.14679 13.2912 8.03896 13.4424 7.9082C13.5792 7.78972 13.6669 7.62916 13.667 7.39062C13.667 6.88841 13.3033 6.50014 12.75 6.5C12.201 6.50014 11.7748 6.89577 11.6533 7.53125L10.917 7.39062L10.1807 7.24902C10.4011 6.09655 11.304 5.00015 12.75 5Z" fill="currentColor" />

</g>
</svg>
