<svg viewBox="0 0 16 16" fill="none" xmlns="http://www.w3.org/2000/svg">
<g transform="translate(0.6247, 2.7498)">
<path d="M12.2539 0C13.1561 0 13.5969 1.10071 12.9443 1.72363L4.18457 10.085C3.90564 10.3512 3.535 10.4999 3.14941 10.5H1.5C0.671573 10.5 0 9.82843 0 9V1.5C0 0.671573 0.671573 0 1.5 0H12.2539ZM7.70508 7.82715C8.18099 7.31147 8.9614 7.30274 9.44824 7.80762C9.93492 8.31253 9.94361 9.1396 9.46777 9.65527C8.84987 10.3249 7.23708 10.4432 6.75 9.93848C7.48539 9.53813 7.22917 8.34288 7.70508 7.82715ZM14.1279 2.35059C14.2732 2.21381 14.4976 2.21702 14.6387 2.3584C14.7797 2.49986 14.7876 2.73005 14.6572 2.88184L10.8057 7.36523C10.6194 7.58203 10.2934 7.59438 10.0918 7.39258L9.82617 7.12598C9.62487 6.92391 9.62953 6.59009 9.83691 6.39453L14.1279 2.35059ZM3 2.75C2.86193 2.75 2.75 2.86193 2.75 3V4.5C2.75 4.63807 2.86193 4.75 3 4.75H5C5.13807 4.75 5.25 4.63807 5.25 4.5V3C5.25 2.86193 5.13807 2.75 5 2.75H3Z" fill="currentColor" />

</g>
</svg>
