<svg viewBox="0 0 16 16" fill="none" xmlns="http://www.w3.org/2000/svg">
<g transform="translate(0.5002, 1.7502)">
<path d="M11.2803 4.78027L10.5605 5.5H11.5C13.433 5.5 15 7.067 15 9C15 10.933 13.433 12.5 11.5 12.5C10.413 12.5 9.44155 12.0033 8.80078 11.2275C8.30121 10.6226 8 9.84546 8 9H9.5C9.5 9.48417 9.67125 9.92643 9.95703 10.2725C10.3251 10.718 10.8792 11 11.5 11C12.6046 11 13.5 10.1046 13.5 9C13.5 7.89543 12.6046 7 11.5 7H10.5605L11.2803 7.71973L10.2197 8.78027L8.21973 6.78027C7.92683 6.48738 7.92683 6.01262 8.21973 5.71973L10.2197 3.71973L11.2803 4.78027ZM12.25 0C13.4926 1.61066e-07 14.5 1.00736 14.5 2.25V3.75H13V2.25C13 1.83579 12.6642 1.5 12.25 1.5H2.25C1.83579 1.5 1.5 1.83579 1.5 2.25V9.25C1.5 9.66421 1.83579 10 2.25 10H6.25V11.5H2.25C1.00736 11.5 3.22128e-08 10.4926 0 9.25V2.25C0 1.00736 1.00736 4.0266e-09 2.25 0H12.25Z" fill="currentColor" />

</g>
</svg>
