<svg viewBox="0 0 16 16" fill="none" xmlns="http://www.w3.org/2000/svg">
<g transform="translate(0.7497, 2.2498)">
<path d="M12.25 0C13.4926 1.61066e-07 14.5 1.00736 14.5 2.25V9.25C14.5 10.4926 13.4926 11.5 12.25 11.5H2.25C1.00736 11.5 3.22128e-08 10.4926 0 9.25V2.25C0 1.00736 1.00736 4.0266e-09 2.25 0H12.25ZM2.25 1.5C1.83579 1.5 1.5 1.83579 1.5 2.25V9.25C1.5 9.66421 1.83579 10 2.25 10H12.25C12.6642 10 13 9.66421 13 9.25V2.25C13 1.83579 12.6642 1.5 12.25 1.5H2.25ZM7.75 8H3.25V6.5H7.75V8ZM11.25 8H9.25V6.5H11.25V8Z" fill="currentColor" />

</g>
</svg>
