<svg viewBox="0 0 16 16" fill="none" xmlns="http://www.w3.org/2000/svg">
<g transform="translate(1.2501, 1.2501)">
<path d="M1.5 12H4.25V13.5H0.75C0.33579 13.5 0 13.1642 0 12.75V9.25H1.5V12ZM13.5 12.75C13.5 13.1642 13.1642 13.5 12.75 13.5H9.25V12H12V9.25H13.5V12.75ZM8.36523 2.25C8.45703 2.25 8.52535 2.34086 8.50586 2.43652L8.3291 3.30273C8.93184 3.50015 9.42216 3.85431 9.72461 4.29102C9.76791 4.35359 9.75459 4.4409 9.69824 4.49023L8.95508 5.13867C8.88969 5.19574 8.7927 5.18014 8.73926 5.11035C8.36367 4.61949 7.77379 4.34277 7.13574 4.34277C6.44184 4.34292 5.97949 4.67089 5.97949 5.14258C5.97965 5.53212 6.32663 5.73733 7.38672 5.9834H7.3877C8.73705 6.29107 9.35433 6.88582 9.35449 7.89062C9.35449 9.15062 8.38925 10.0812 6.88379 10.1797L6.73633 10.9277C6.72232 10.9988 6.66377 11.0498 6.5957 11.0498H5.42969C5.33686 11.0498 5.26783 10.9576 5.28906 10.8613L5.47656 10.0234C4.72576 9.79605 4.12263 9.35224 3.77344 8.80566C3.7326 8.74173 3.74759 8.65602 3.80469 8.6084L4.62012 7.93359C4.68724 7.87803 4.78414 7.89637 4.83398 7.96973C5.26298 8.60302 5.92046 8.97841 6.71191 8.97852C7.42536 8.97852 7.96582 8.60853 7.96582 8.0752C7.96563 7.66525 7.695 7.48044 6.78906 7.27539C5.22758 6.92669 4.61045 6.31156 4.61035 5.30664C4.61035 4.14049 5.53211 3.25889 6.92188 3.14453L7.07422 2.37207C7.08823 2.30103 7.14677 2.25 7.21484 2.25H8.36523ZM4.25 1.5H1.5V4.25H0V0.75C0 0.335789 0.33579 4.12322e-06 0.75 0H4.25V1.5ZM12.75 0C13.1642 0 13.5 0.335786 13.5 0.75V4.25H12V1.5H9.25V0H12.75Z" fill="currentColor" />

</g>
</svg>
