<svg viewBox="0 0 16 16" fill="none" xmlns="http://www.w3.org/2000/svg">
<g transform="translate(1.0003, 1.0003)">
<path d="M11 0C12.6569 0 14 1.34315 14 3V11C14 12.6569 12.6569 14 11 14H3C1.34315 14 0 12.6569 0 11V3C1.28851e-07 1.34315 1.34315 0 3 0H11ZM7.58105 1.5C7.496 1.5 7.42282 1.5636 7.40527 1.65234L7.21387 2.61816C5.47699 2.76126 4.3253 3.86285 4.3252 5.32031C4.3252 6.57664 5.09677 7.34631 7.04883 7.78223C8.18166 8.03864 8.51953 8.26941 8.51953 8.78223C8.51941 9.44873 7.84471 9.91006 6.95312 9.91016C5.96362 9.91016 5.14178 9.44115 4.60547 8.64941C4.54318 8.55768 4.42181 8.53502 4.33789 8.60449L3.31934 9.44727C3.24767 9.5066 3.2275 9.61427 3.27832 9.69434C3.71479 10.3776 4.46961 10.9325 5.4082 11.2168L5.17383 12.2637C5.14696 12.3842 5.23343 12.5 5.34961 12.5H6.80762C6.8925 12.4998 6.96592 12.4363 6.9834 12.3477L7.16797 11.4121C9.04942 11.2889 10.2546 10.1264 10.2549 8.55176C10.2549 7.37392 9.57736 6.64638 8.10254 6.24316L7.79688 6.16699H7.7959C6.47048 5.85933 6.03711 5.60238 6.03711 5.11523C6.03721 4.52566 6.615 4.11535 7.48242 4.11523C8.27988 4.11523 9.01683 4.46176 9.48633 5.0752C9.55312 5.16248 9.67411 5.18171 9.75586 5.11035L10.6846 4.2998C10.7551 4.23819 10.7719 4.13004 10.7178 4.05176C10.3398 3.50598 9.72784 3.06321 8.97461 2.81641L9.19531 1.73242C9.21948 1.61307 9.13399 1.50027 9.01953 1.5H7.58105Z" fill="currentColor" />

</g>
</svg>
