<svg viewBox="0 0 16 16" fill="none" xmlns="http://www.w3.org/2000/svg">
<g transform="translate(0.2497, 1.4165)">
<path d="M7.75029 0C8.75122 7.01867e-05 9.53696 0.302874 10.1243 0.804688C10.6987 1.29568 11.0313 1.93071 11.2239 2.51465C11.4168 3.09932 11.4835 3.67172 11.5042 4.08789C11.5065 4.13486 11.5059 4.18022 11.5071 4.22363C12.5586 4.09761 13.5888 3.92104 14.5784 3.6875C14.8347 3.62713 15.1037 3.70502 15.2874 3.89355C15.4711 4.08223 15.5431 4.35375 15.4759 4.6084L13.6595 11.4912C13.3987 12.4787 12.5051 13.167 11.4837 13.167H4.01689C2.99554 13.1669 2.10185 12.4787 1.84111 11.4912L0.0247056 4.6084C-0.04245 4.35382 0.0295666 4.08222 0.213182 3.89355C0.396903 3.70504 0.66595 3.62716 0.922167 3.6875C1.91846 3.92264 2.95599 4.10041 4.01494 4.22656C4.01599 4.18373 4.01683 4.13906 4.01885 4.09277C4.03699 3.6766 4.09996 3.10367 4.28935 2.51855C4.47857 1.93425 4.8065 1.29769 5.3792 0.805664C5.96487 0.302681 6.74952 9.83775e-05 7.75029 0ZM13.7142 5.39941C9.88097 6.12562 5.61855 6.12577 1.78545 5.39941L3.29131 11.1084C3.37826 11.4374 3.67655 11.6669 4.01689 11.667H11.4837C11.8241 11.667 12.1223 11.4374 12.2093 11.1084L13.7142 5.39941ZM7.75029 1.5C7.07143 1.50009 6.64383 1.69776 6.35674 1.94434C6.05678 2.20212 5.85059 2.56604 5.71611 2.98145C5.58199 3.39599 5.53147 3.82359 5.51689 4.15723C5.51357 4.23344 5.51221 4.30362 5.51201 4.36621C7.00325 4.47053 8.51905 4.47054 10.0101 4.36523C10.0093 4.30415 10.0088 4.23595 10.0052 4.16211C9.98856 3.82847 9.93595 3.4004 9.79912 2.98535C9.662 2.56967 9.45336 2.2042 9.15068 1.94531C8.86058 1.69739 8.42936 1.50007 7.75029 1.5Z" fill="currentColor" />

</g>
</svg>
