<svg viewBox="0 0 16 16" fill="none" xmlns="http://www.w3.org/2000/svg">
<g transform="translate(0.2502, 2.7497)">
<path d="M8.91681 0C9.68793 0.000188362 10.3683 0.505085 10.5916 1.24316L11.2801 3.52148L15.2977 7.81445C15.5496 8.08419 15.5679 8.49716 15.3406 8.78809C15.1132 9.07915 14.7073 9.16113 14.3846 8.98145C11.9154 7.60603 9.92841 8.52102 7.67072 9.48926C6.58253 9.95593 5.38538 10.4517 4.13654 10.4971C2.82821 10.5445 1.53273 10.1008 0.234192 8.87109C-0.0478425 8.60399 -0.0790829 8.16592 0.161926 7.86133L3.57306 3.55273L4.2713 1.24316C4.49464 0.504895 5.17575 0 5.94708 0H8.91681ZM1.78693 8.22363C2.61185 8.84364 3.36189 9.02411 4.08185 8.99805C5.00988 8.96436 5.95899 8.59064 7.07892 8.11035C8.56919 7.47123 10.3081 6.65721 12.2938 6.7998L10.2889 4.65723H4.61212L1.78693 8.22363ZM5.94708 1.5C5.83689 1.5 5.73973 1.57227 5.70782 1.67773L5.26056 3.15723H9.60333L9.15607 1.67773C9.12421 1.57239 9.02683 1.50019 8.91681 1.5H5.94708Z" fill="currentColor" />

</g>
</svg>
