<svg viewBox="0 0 16 16" fill="none" xmlns="http://www.w3.org/2000/svg">
<g transform="translate(1.0003, 2.0003)">
<path d="M14 3.5H10.9941C10.9165 3.50002 10.8432 3.53609 10.7959 3.59766L4.5957 11.7061C4.45379 11.8914 4.23346 12 4 12H0V10.5H1.09473L1.51953 7.38672C1.70615 6.01935 2.87481 5.00001 4.25488 5C5.29649 5.00014 6.23141 5.58488 6.7002 6.4834L9.60449 2.68652C9.9356 2.25385 10.4493 2.00002 10.9941 2H14V3.5ZM4.25488 6.5C3.62481 6.50001 3.09099 6.96555 3.00586 7.58984L2.60938 10.5H3.62891L5.6123 7.90527L5.46094 7.39746C5.30091 6.86493 4.81095 6.50017 4.25488 6.5ZM4.25 0C5.35457 0 6.25 0.89543 6.25 2C6.25 3.10457 5.35457 4 4.25 4C3.14543 4 2.25 3.10457 2.25 2C2.25 0.89543 3.14543 0 4.25 0ZM4.25 1.5C3.97386 1.5 3.75 1.72386 3.75 2C3.75 2.27614 3.97386 2.5 4.25 2.5C4.52614 2.5 4.75 2.27614 4.75 2C4.75 1.72386 4.52614 1.5 4.25 1.5Z" fill="currentColor" />

</g>
</svg>
