<svg viewBox="0 0 16 16" fill="none" xmlns="http://www.w3.org/2000/svg">
<g transform="translate(1.1665, 1.2499)">
<path d="M9.24978 1.5H6.99978V3H10.2498C10.664 3.00001 10.9998 3.33579 10.9998 3.75V5H11.9168C12.8831 5.00018 13.6668 5.78361 13.6668 6.75V9.75C13.6668 10.7164 12.8831 11.4998 11.9168 11.5H10.9998V12.75C10.9998 12.9489 10.9207 13.1396 10.7801 13.2803C10.6394 13.4209 10.4487 13.5 10.2498 13.5H2.24978C1.83557 13.5 1.49979 13.1642 1.49978 12.75V5.99902L0.150169 4.2002C-0.0201858 3.97305 -0.0479309 3.66904 0.0788797 3.41504C0.205924 3.16095 0.4657 3 0.749778 3H5.49978V1.5H3.24978V0H9.24978V1.5ZM2.84939 5.2998C2.94675 5.42962 2.99978 5.58773 2.99978 5.75V12H9.49978V4.5H6.99978V9.5H8.24978V11H4.24978V9.5H5.49978V4.5H2.24978L2.84939 5.2998ZM10.9998 10H11.9168C12.0547 9.99982 12.1668 9.88795 12.1668 9.75V6.75C12.1668 6.61204 12.0547 6.50018 11.9168 6.5H10.9998V10Z" fill="currentColor" />

</g>
</svg>
