<svg viewBox="0 0 16 16" fill="none" xmlns="http://www.w3.org/2000/svg">
<g transform="translate(0.2499, 1.2500)">
<path d="M10.2804 12.5303C9.60802 13.2027 8.64891 13.4999 7.75014 13.5C6.85135 13.5 5.89234 13.2027 5.21987 12.5303L6.28041 11.4697C6.60795 11.7972 7.1491 12 7.75014 12C8.35115 11.9999 8.89241 11.7972 9.21987 11.4697L10.2804 12.5303ZM8.50014 2.75H11.2501L11.3273 2.75391C11.7051 2.79268 12.0001 3.11195 12.0001 3.5C12.0001 4.437 11.4735 5.37321 10.7404 6.05078C10.6966 6.09119 10.6514 6.13083 10.6056 6.16992C10.9764 6.27511 11.3521 6.40108 11.7228 6.55273C13.1415 7.13327 14.5673 8.10269 15.4083 9.64062C15.5351 9.87283 15.5305 10.1552 15.3956 10.3828C15.2606 10.6105 15.0148 10.7499 14.7501 10.75H0.750141C0.485377 10.75 0.239732 10.6105 0.104634 10.3828C-0.0303512 10.1551 -0.0348892 9.87291 0.0919383 9.64062C0.933062 8.10267 2.35872 7.13324 3.77749 6.55273C4.14785 6.40122 4.52325 6.27505 4.8937 6.16992C4.84812 6.13098 4.80346 6.09103 4.75991 6.05078C4.02666 5.37319 3.50014 4.43707 3.50014 3.5C3.50014 3.30109 3.57922 3.11038 3.71987 2.96973C3.8605 2.82918 4.05131 2.75 4.25014 2.75H7.00014V0H8.50014V2.75ZM7.75014 7.25C6.85648 7.25 5.56946 7.44083 4.34584 7.94141C3.57064 8.25858 2.84898 8.68904 2.26577 9.25H13.2345C12.6513 8.68903 11.9296 8.2586 11.1544 7.94141C9.93089 7.44081 8.64386 7.25005 7.75014 7.25ZM5.22475 4.25C5.35248 4.48273 5.53439 4.72454 5.77749 4.94922C6.22748 5.36499 6.81963 5.6666 7.46889 5.73535L7.75014 5.75L8.03139 5.73535C8.68061 5.66652 9.27285 5.365 9.7228 4.94922C9.96585 4.72454 10.1478 4.48271 10.2755 4.25H5.22475Z" fill="currentColor" />

</g>
</svg>
