<svg viewBox="0 0 16 16" fill="none" xmlns="http://www.w3.org/2000/svg">
<g transform="translate(1.9999, 1.6250)">
<path d="M1.5 4.83571C1.50002 4.87118 1.50702 4.89469 1.51172 4.90504L1.5127 4.907C1.85543 5.15491 2.47605 5.49977 3.25 5.49977C4.02347 5.49977 4.64346 5.15488 4.98633 4.907C4.98667 4.90636 4.98786 4.90597 4.98828 4.90504C4.99298 4.8947 4.99998 4.87118 5 4.83571V0.749771H6.5V4.83571C6.49996 5.28843 6.31944 5.7948 5.87109 6.11989C5.49916 6.38956 4.84843 6.77422 4 6.92946V12.7498H2.5V6.92946C1.65157 6.77422 1.00084 6.38956 0.628906 6.11989C0.180558 5.7948 4.075e-05 5.28843 0 4.83571V0.749771H1.5V4.83571ZM10.9297 0.0720365C11.1619 -0.0376132 11.4344 -0.0213998 11.6514 0.115982C11.8684 0.253514 12 0.49286 12 0.749771V12.7498H10.5V9.99977H8.25C8.05129 9.99968 7.86028 9.92051 7.71973 9.78004C7.57918 9.63941 7.5 9.4486 7.5 9.24977C7.5 8.26961 7.46632 6.42902 7.8457 4.64626C8.22092 2.88322 9.04573 0.961745 10.9297 0.0720365ZM10.5 2.25856C9.91491 2.94388 9.54049 3.88744 9.3125 4.95876C9.04626 6.20994 9.00631 7.50645 9.00098 8.49977H10.5V2.25856ZM4 4.74977H2.5V0.749771H4V4.74977Z" fill="currentColor" />

</g>
</svg>
