<svg viewBox="0 0 16 16" fill="none" xmlns="http://www.w3.org/2000/svg">
<g transform="translate(1.1630, 2.2499)">
<path d="M2.5 0C3.88057 0.000164926 5 1.11939 5 2.5C4.99998 2.72076 4.97006 2.93516 4.91602 3.13965L7.40332 4.84082L12.8262 1.13086L13.6738 2.36914L8.73145 5.75L13.6738 9.13086L12.8262 10.3691L7.40332 6.6582L4.91602 8.36035C4.97004 8.56483 5 8.77926 5 9C4.99991 10.3805 3.88052 11.4998 2.5 11.5C1.11934 11.5 9.09755e-05 10.3806 0 9C0 7.61929 1.11929 6.5 2.5 6.5C3.11577 6.50007 3.67914 6.72341 4.11426 7.0918L6.0752 5.75L4.11426 4.4082C3.67914 4.77659 3.11577 4.99993 2.5 5C1.11934 5 9.07175e-05 3.88063 0 2.5C2.57702e-07 1.11929 1.11929 0 2.5 0ZM2.5 8C1.94772 8 1.5 8.44772 1.5 9C1.50009 9.55221 1.94777 10 2.5 10C3.05209 9.99984 3.49991 9.55211 3.5 9C3.5 8.80717 3.44564 8.62903 3.35254 8.47754C3.17543 8.18961 2.8595 8.00011 2.5 8ZM2.5 1.5C1.94772 1.5 1.5 1.94772 1.5 2.5C1.50009 3.05221 1.94777 3.5 2.5 3.5C2.8595 3.49989 3.17543 3.31039 3.35254 3.02246C3.4457 2.87096 3.49997 2.69287 3.5 2.5C3.5 1.94782 3.05214 1.50016 2.5 1.5Z" fill="currentColor" />

</g>
</svg>
