<svg viewBox="0 0 16 16" fill="none" xmlns="http://www.w3.org/2000/svg">
<g transform="translate(0.6247, 1.1247)">
<path d="M7 9.25C8.24264 9.25 9.25 10.2574 9.25 11.5C9.25 12.7426 8.24264 13.75 7 13.75C5.75736 13.75 4.75 12.7426 4.75 11.5H6.25C6.25 11.9142 6.58579 12.25 7 12.25C7.41421 12.25 7.75 11.9142 7.75 11.5C7.75 11.0858 7.41421 10.75 7 10.75H0V9.25H7ZM12.5 6.5C13.7426 6.5 14.75 7.50736 14.75 8.75C14.75 9.99264 13.7426 11 12.5 11C11.2574 11 10.25 9.99264 10.25 8.75H11.75C11.75 9.16421 12.0858 9.5 12.5 9.5C12.9142 9.5 13.25 9.16421 13.25 8.75C13.25 8.33579 12.9142 8 12.5 8H0V6.5H12.5ZM7 0C8.59036 0 10.0195 0.659333 11.0488 1.625C12.0713 2.58432 12.75 3.89666 12.75 5.25H11.25C11.25 4.39438 10.8094 3.4571 10.0225 2.71875C9.24215 1.9867 8.17106 1.5 7 1.5C5.82894 1.5 4.75785 1.9867 3.97754 2.71875C3.19057 3.4571 2.75 4.39438 2.75 5.25H1.25C1.25 3.89666 1.92874 2.58432 2.95117 1.625C3.9805 0.659333 5.40964 0 7 0Z" fill="currentColor" />

</g>
</svg>
