<svg viewBox="0 0 16 16" fill="none" xmlns="http://www.w3.org/2000/svg">
<g transform="translate(0.3174, 2.9378)">
<path d="M4.10449 3.15332C5.51665 3.1159 7.07649 3.60523 8.76562 4.80469C9.35391 5.22247 10.5504 6.15225 11.583 6.96387C12.1025 7.37214 12.5865 7.75527 12.9404 8.03613C13.0084 8.09007 13.0721 8.14052 13.1299 8.18652C13.5869 8.00994 14.0671 7.77375 14.5723 7.45898L15.3652 8.73242C13.6612 9.79406 12.1282 10.1503 10.7061 10.123C9.30905 10.0962 8.0586 9.6971 6.95703 9.33691C5.81901 8.9648 4.86885 8.64649 3.90723 8.625C2.99643 8.60468 2.04008 8.85501 0.9375 9.73828L0.46875 9.15234L0 8.56738C1.36491 7.47396 2.6615 7.0975 3.94043 7.12598C4.35587 7.13526 4.76512 7.18945 5.16699 7.26855L7.10254 5.5166C5.9585 4.85711 4.97442 4.63037 4.14453 4.65234C3.12833 4.67937 2.2559 5.08068 1.52051 5.66895L0.583008 4.49707C1.51405 3.75229 2.69265 3.19089 4.10449 3.15332ZM6.88477 7.73633C7.06656 7.79505 7.24625 7.85339 7.42285 7.91113C8.536 8.27511 9.5891 8.60098 10.7344 8.62305C10.9023 8.62628 11.073 8.62047 11.2471 8.60938C11.0595 8.46109 10.8607 8.30324 10.6562 8.14258C9.86005 7.5168 8.9921 6.84152 8.38086 6.38281L6.88477 7.73633ZM12.3857 0C13.9044 0.00013245 15.1357 1.2313 15.1357 2.75C15.1357 4.2687 13.9044 5.49987 12.3857 5.5C10.867 5.5 9.63574 4.26878 9.63574 2.75C9.63574 1.23122 10.867 3.22128e-08 12.3857 0ZM12.3857 1.5C11.6954 1.5 11.1357 2.05964 11.1357 2.75C11.1357 3.44036 11.6954 4 12.3857 4C13.076 3.99987 13.6357 3.44027 13.6357 2.75C13.6357 2.05973 13.076 1.50013 12.3857 1.5Z" fill="currentColor" />

</g>
</svg>
