<svg viewBox="0 0 16 16" fill="none" xmlns="http://www.w3.org/2000/svg">
<g transform="translate(1.7501, 1.2324)">
<path d="M11.7497 0C12.0144 3.21779e-05 12.2601 0.139596 12.3952 0.367188C12.5302 0.594746 12.5346 0.877093 12.4079 1.10938L9.46357 6.50684C10.1083 7.25194 10.4996 8.22252 10.4997 9.28516C10.4997 11.6323 8.59684 13.5351 6.2497 13.5352C3.90249 13.5352 1.9997 11.6324 1.9997 9.28516C1.99977 8.22241 2.39001 7.25099 3.03486 6.50586L0.091496 1.10938C-0.0352575 0.876994 -0.0299534 0.594805 0.105168 0.367188C0.223468 0.167999 0.425868 0.0365638 0.652043 0.00683594L0.749699 0H11.7497ZM6.2497 6.53516C4.73101 6.53516 3.49985 7.76651 3.4997 9.28516C3.4997 10.8039 4.73092 12.0352 6.2497 12.0352C7.76841 12.0351 8.9997 10.8039 8.9997 9.28516C8.99954 7.76656 7.76832 6.53524 6.2497 6.53516ZM8.71357 1.5L6.91864 5.08789C7.40369 5.1646 7.86125 5.32366 8.27704 5.5498L10.486 1.5H8.71357ZM2.01337 1.5L4.22138 5.54883C4.52762 5.38225 4.85692 5.25264 5.20282 5.16504L7.03583 1.5H2.01337Z" fill="currentColor" />

</g>
</svg>
