<svg viewBox="0 0 16 16" fill="none" xmlns="http://www.w3.org/2000/svg">
<g transform="translate(1.1100, 1.1100)">
<path d="M4.47852 1.06055L3.2998 2.23828L6.68164 5.62109L8.54395 3.75977L8.6582 3.66602C8.78047 3.5844 8.92506 3.54012 9.07422 3.54004C9.27308 3.54004 9.46385 3.61919 9.60449 3.75977L12.96 7.11426C13.5995 7.7538 13.8909 8.66352 13.7422 9.55566L13.2324 12.6152C13.1797 12.9313 12.9313 13.1797 12.6152 13.2324L9.55566 13.7422C8.66352 13.8909 7.7538 13.5995 7.11426 12.96L3.75977 9.60449C3.46699 9.31159 3.46691 8.8368 3.75977 8.54395L5.62109 6.68164L2.23828 3.2998L1.06055 4.47852L0 3.41797L3.41797 0L4.47852 1.06055ZM5.34961 9.07422L8.1748 11.8994C8.47178 12.1964 8.89432 12.3317 9.30859 12.2627L11.8408 11.8408L12.2627 9.30859C12.3317 8.89432 12.1964 8.47178 11.8994 8.1748L9.07422 5.34961L5.34961 9.07422Z" fill="currentColor" />

</g>
</svg>
