<svg viewBox="0 0 16 16" fill="none" xmlns="http://www.w3.org/2000/svg">
<g transform="translate(1.5002, 1.6251)">
<path d="M1.5 2.5C1.5 3.74264 2.50736 4.75 3.75 4.75C4.99264 4.75 6 3.74264 6 2.5V0H7.5V2.5C7.5 4.31421 6.21166 5.82734 4.5 6.1748V8.5C4.5 10.0188 5.73122 11.25 7.25 11.25C8.72979 11.25 9.93217 10.081 9.99316 8.61621C9.1234 8.30512 8.5 7.47671 8.5 6.5C8.5 5.25736 9.50736 4.25 10.75 4.25C11.9926 4.25 13 5.25736 13 6.5C13 7.48075 12.3715 8.31206 11.4961 8.62012C11.4325 10.9118 9.55702 12.75 7.25 12.75C4.90279 12.75 3 10.8472 3 8.5V6.1748C1.28834 5.82734 0 4.3142 0 2.5V0H1.5V2.5ZM10.75 5.75C10.3358 5.75 10 6.08579 10 6.5C10 6.91421 10.3358 7.25 10.75 7.25C11.1642 7.25 11.5 6.91421 11.5 6.5C11.5 6.08579 11.1642 5.75 10.75 5.75Z" fill="currentColor" />

</g>
</svg>
