<svg viewBox="0 0 16 16" fill="none" xmlns="http://www.w3.org/2000/svg">
<g transform="translate(1.2501, 1.2501)">
<path d="M6.75 0C10.4779 0 13.5 3.02208 13.5 6.75V10.75C13.4998 12.2686 12.2687 13.5 10.75 13.5H9.75C9.33593 13.5 9.00018 13.164 9 12.75V6.75C9 6.33581 9.33582 6.00004 9.75 6H10.75C11.192 6 11.6085 6.10666 11.9785 6.29199C11.7465 3.60689 9.49524 1.5 6.75 1.5C4.00473 1.5 1.75243 3.60685 1.52051 6.29199C1.89077 6.1064 2.30762 6 2.75 6H3.75C4.16421 6 4.5 6.33579 4.5 6.75V12.75C4.49982 13.1641 4.16411 13.5 3.75 13.5H2.75C1.23133 13.5 0.00017548 12.2686 0 10.75V6.75C6.44277e-08 3.02208 3.02208 9.6643e-08 6.75 0ZM2.75 7.5C2.05964 7.5 1.5 8.05964 1.5 8.75V10.75C1.50018 11.4402 2.05975 12 2.75 12H3V7.5H2.75ZM10.5 12H10.75C11.4402 12 11.9998 11.4402 12 10.75V8.75C12 8.05964 11.4404 7.5 10.75 7.5H10.5V12Z" fill="currentColor" />

</g>
</svg>
