<svg viewBox="0 0 16 16" fill="none" xmlns="http://www.w3.org/2000/svg">
<g transform="translate(1.5002, 1.7502)">
<path d="M10.5 0C10.8067 7.26639e-07 11.0824 0.186936 11.1963 0.47168L12.0078 2.5H13V4H12.1289L10.7383 11.8799C10.675 12.2383 10.3639 12.5 10 12.5H3C2.63607 12.5 2.32496 12.2383 2.26172 11.8799L0.871094 4H0V2.5H0.992188L1.80371 0.47168L1.85352 0.369141C1.98682 0.142735 2.23172 0 2.5 0H10.5ZM3.62891 11H9.37109L10.6064 4H2.39355L3.62891 11ZM2.60742 2.5H10.3926L9.99219 1.5H3.00781L2.60742 2.5Z" fill="currentColor" />

</g>
</svg>
