<svg viewBox="0 0 16 16" fill="none" xmlns="http://www.w3.org/2000/svg">
<g transform="translate(1.1248, 1.7498)">
<path d="M7.25 0C8.2165 0 9 0.783502 9 1.75V5.16699H10.25C10.6642 5.167 11 5.50278 11 5.91699V8C11 8.27613 11.2239 8.49998 11.5 8.5C11.7761 8.49999 12 8.27614 12 8V3.65137L10.834 2.87402L11.666 1.62598L13.166 2.62598C13.3747 2.76508 13.5 2.99924 13.5 3.25V8C13.5 9.10456 12.6046 9.99999 11.5 10C10.3954 9.99998 9.5 9.10456 9.5 8V6.66699H9V11H13.75V12.5H0.75C0.335786 12.5 0 12.1642 0 11.75V1.75C0 0.783501 0.783502 2.81862e-08 1.75 0H7.25ZM1.75 1.5C1.61193 1.5 1.5 1.61193 1.5 1.75V11H7.5V1.75C7.5 1.61193 7.38807 1.5 7.25 1.5H1.75Z" fill="currentColor" />

</g>
</svg>
