<svg viewBox="0 0 16 16" fill="none" xmlns="http://www.w3.org/2000/svg">
<g transform="translate(0.7497, 1.2500)">
<path d="M1.86734 0.273441C2.14855 0.0133427 2.53168 -0.057316 2.86734 0.0449251C3.1821 0.140903 3.43702 0.38147 3.55582 0.699222C5.77801 4.30174 9.20223 5.83993 12.9689 5.28223C13.5331 5.19872 14.0681 5.45404 14.3351 5.91407C14.6201 6.40572 14.5385 7.03164 14.0734 7.45801C13.1723 8.28377 11.867 9.06983 10.3869 9.44727C10.7753 9.55194 11.186 9.64559 11.6213 9.72559L12.1125 9.8086L12.1535 9.81641C12.9631 9.99094 13.3418 11.0613 12.6359 11.6709C9.71379 14.1935 5.03527 14.1739 2.17984 11.1914C-0.663965 8.22081 -0.639283 3.42038 1.75309 0.396488L1.86734 0.273441ZM2.35758 2.19043C0.99685 4.65463 1.22598 8.02448 3.26383 10.1533C5.30087 12.281 8.53034 12.5274 10.8693 11.1045C8.49724 10.6035 6.65696 9.70893 5.25699 8.2295C3.85744 6.7504 2.96436 4.75708 2.35758 2.19043ZM4.5441 4.2295C5.02487 5.45524 5.61642 6.42632 6.34684 7.19825C6.62398 7.49112 6.92641 7.75803 7.25504 8.00293C9.11336 8.51305 11.0713 7.83654 12.4406 6.85157C9.4861 7.10068 6.73927 6.20268 4.5441 4.2295Z" fill="currentColor" />

</g>
</svg>
