<svg viewBox="0 0 16 16" fill="none" xmlns="http://www.w3.org/2000/svg">
<g transform="translate(2.7501, 1.2501)">
<path d="M7.75 0C7.99454 0 8.22388 0.119116 8.36426 0.319336C8.50455 0.519624 8.53852 0.776021 8.45508 1.00586V1.00684H8.4541V1.00781L8.4502 1.01953C8.4476 1.02649 8.44393 1.03611 8.43945 1.04785C8.43026 1.07193 8.4163 1.10648 8.39941 1.14844C8.36562 1.23236 8.31652 1.35033 8.25293 1.49023C8.1264 1.76856 7.93834 2.1454 7.69531 2.52734C7.52707 2.79172 7.32219 3.07235 7.08301 3.3291C9.07862 4.07273 10.5 5.99526 10.5 8.25C10.4998 11.1493 8.14935 13.5 5.25 13.5C2.35076 13.4999 0.000234994 11.1492 0 8.25C0 5.99542 1.42161 4.07284 3.41699 3.3291C3.17786 3.07237 2.97289 2.79168 2.80469 2.52734C2.56164 2.14536 2.37359 1.76856 2.24707 1.49023C2.18346 1.35028 2.13437 1.23235 2.10059 1.14844C2.08367 1.10643 2.06974 1.07193 2.06055 1.04785C2.05605 1.03606 2.0524 1.0265 2.0498 1.01953L2.0459 1.00781V1.00684H2.04492V1.00586C1.96152 0.776089 1.99555 0.51959 2.13574 0.319336C2.27607 0.119134 2.50552 8.23036e-05 2.75 0H7.75ZM5.25 4.5C3.17904 4.50013 1.5 6.17901 1.5 8.25C1.50023 10.3208 3.17919 11.9999 5.25 12C7.32092 12 8.99976 10.3209 9 8.25C9 6.17893 7.32107 4.5 5.25 4.5ZM4.07031 1.72266C4.26754 2.03255 4.48612 2.30777 4.71094 2.49805C4.93598 2.68845 5.11407 2.74992 5.25 2.75C5.38593 2.75 5.56396 2.68846 5.78906 2.49805C6.01389 2.3078 6.23245 2.03255 6.42969 1.72266C6.47686 1.64853 6.52196 1.57362 6.56445 1.5H3.93555C3.97804 1.57364 4.02313 1.6485 4.07031 1.72266Z" fill="currentColor" />

</g>
</svg>
