<svg viewBox="0 0 16 16" fill="none" xmlns="http://www.w3.org/2000/svg">
<g transform="translate(1.2501, 1.2501)">
<path d="M6.75 0C7.07979 0 7.37042 0.215856 7.4668 0.53125L8.75391 4.74512L12.9688 6.0332C13.2841 6.12958 13.5 6.42021 13.5 6.75C13.5 7.07979 13.2841 7.37042 12.9688 7.4668L8.75391 8.75391L7.4668 12.9688C7.37042 13.2841 7.07979 13.5 6.75 13.5C6.42021 13.5 6.12958 13.2841 6.0332 12.9688L4.74512 8.75391L0.53125 7.4668C0.215856 7.37042 0 7.07979 0 6.75C0 6.42021 0.215856 6.12958 0.53125 6.0332L4.74512 4.74512L6.0332 0.53125L6.07812 0.416992C6.20302 0.164776 6.46164 0 6.75 0ZM6.0625 5.56445C5.98962 5.80297 5.80297 5.98962 5.56445 6.0625L3.31445 6.75L5.56445 7.4375L5.65137 7.46973C5.84802 7.55751 5.9987 7.72675 6.0625 7.93555L6.75 10.1846L7.4375 7.93555L7.46973 7.84863C7.55751 7.65198 7.72675 7.5013 7.93555 7.4375L10.1846 6.75L7.93555 6.0625C7.69703 5.98962 7.51038 5.80297 7.4375 5.56445L6.75 3.31445L6.0625 5.56445Z" fill="currentColor" />

</g>
</svg>
