<svg viewBox="0 0 16 16" fill="none" xmlns="http://www.w3.org/2000/svg">
<g transform="translate(0.7497, 1.7497)">
<path d="M8.82227 0.0556961C9.00881 -0.0207662 9.21914 -0.0182042 9.4043 0.0615555L14.0469 2.06156C14.3218 2.18013 14.5 2.45064 14.5 2.75003V6.25003C14.4999 6.5023 14.3728 6.7383 14.1621 6.87699C13.9514 7.01544 13.6847 7.03823 13.4531 6.93851L12.1865 6.39261L12.2246 11.7451C12.2259 11.9448 12.1475 12.1367 12.0068 12.2784C11.866 12.4201 11.6744 12.5 11.4746 12.5H3.07129C2.65721 12.5 2.3214 12.1641 2.32129 11.75V6.3887L1.04688 6.93851C0.815289 7.03823 0.548595 7.01544 0.337891 6.87699C0.127153 6.7383 7.11847e-05 6.5023 0 6.25003V2.75003C0 2.45064 0.178234 2.18013 0.453125 2.06156L5.0957 0.0615555C5.28086 -0.0182042 5.49119 -0.0207662 5.67773 0.0556961C5.86413 0.132196 6.01202 0.28114 6.08789 0.467805C6.19704 0.735632 6.60434 1.01077 7.25 1.01077C7.89566 1.01077 8.30296 0.735632 8.41211 0.467805C8.48798 0.28114 8.63587 0.132196 8.82227 0.0556961ZM9.37988 1.68363C8.82036 2.27582 7.9665 2.51077 7.25 2.51077C6.5333 2.51077 5.67866 2.27618 5.11914 1.68363L1.5 3.2432V5.11038L2.77441 4.56156C3.00616 4.46174 3.27261 4.48536 3.4834 4.62406C3.6941 4.76277 3.82125 4.99777 3.82129 5.25003V11H10.7197L10.6787 5.25589C10.6769 5.00272 10.8028 4.76506 11.0137 4.62503C11.2248 4.48503 11.4929 4.46136 11.7256 4.56156L13 5.11038V3.2432L9.37988 1.68363Z" fill="currentColor" />

</g>
</svg>
