<svg viewBox="0 0 16 16" fill="none" xmlns="http://www.w3.org/2000/svg">
<g transform="translate(0.2979, 1.7500)">
<path d="M10.7754 0C11.6275 8.3375e-05 12.407 0.481943 12.7881 1.24414L14.1621 3.99219C14.1986 4.06526 14.231 4.1401 14.2607 4.21582C14.514 4.15664 14.7609 4.0943 15 4.02734L15.4043 5.47266C15.0975 5.55855 14.7794 5.63706 14.4521 5.71094V11.75C14.4521 12.1642 14.1164 12.5 13.7021 12.5H10.7021C10.288 12.4999 9.95215 12.1642 9.95215 11.75V10.5H5.45215V11.75C5.45215 12.1642 5.11636 12.5 4.70215 12.5H1.70215C1.28797 12.5 0.952148 12.1642 0.952148 11.75V5.71094C0.624916 5.63706 0.306759 5.55855 0 5.47266L0.404297 4.02734C0.643109 4.09421 0.889627 4.1567 1.14258 4.21582C1.17237 4.13999 1.2056 4.06537 1.24219 3.99219L2.61719 1.24414C2.99826 0.481988 3.77681 0.000139149 4.62891 0H10.7754ZM12.9521 5.99805C9.66205 6.52371 5.74223 6.52373 2.45215 5.99805V11H3.95215V9.75C3.95215 9.33583 4.288 9.00008 4.70215 9H10.7021C11.1164 9 11.4521 9.33579 11.4521 9.75V11H12.9521V5.99805ZM4.62891 1.5C4.34497 1.50014 4.085 1.66106 3.95801 1.91504L2.65918 4.51074C5.80434 5.01727 9.5988 5.0181 12.7441 4.51172L11.4463 1.91504C11.3193 1.66102 11.0594 1.50008 10.7754 1.5H4.62891Z" fill="currentColor" />

</g>
</svg>
