<svg viewBox="0 0 16 16" fill="none" xmlns="http://www.w3.org/2000/svg">
<g transform="translate(1.0003, 1.0003)">
<path d="M5.75 2.25H8.25V0H9.75V2.25H11C11.4142 2.25 11.75 2.58579 11.75 3V4.25H14V5.75H11.75V8.25H14V9.75H11.75V11C11.75 11.4142 11.4142 11.75 11 11.75H9.75V14H8.25V11.75H5.75V14H4.25V11.75H3C2.58579 11.75 2.25 11.4142 2.25 11V9.75H0V8.25H2.25V5.75H0V4.25H2.25V3C2.25 2.58579 2.58579 2.25 3 2.25H4.25V0H5.75V2.25ZM3.75 10.25H10.25V3.75H3.75V10.25Z" fill="currentColor" />

</g>
</svg>
