<svg viewBox="0 0 16 16" fill="none" xmlns="http://www.w3.org/2000/svg">
<g transform="translate(1.2717, 1.2717)">
<path d="M2.77631 0.167956C3.07089 -0.0721054 3.5057 -0.0548003 3.78022 0.219713L8.28022 4.71971C8.57295 5.01253 8.57283 5.48737 8.28022 5.78026L7.56049 6.49999L11.4267 10.3662L11.7499 10.043L13.457 11.75L11.7499 13.457L10.0429 11.75L10.3662 11.4267L6.49994 7.56053L5.78022 8.28026C5.48735 8.57313 5.01257 8.57308 4.71967 8.28026L0.21967 3.78026C-0.0732233 3.48737 -0.0732233 3.01261 0.21967 2.71971L2.71967 0.219713L2.77631 0.167956ZM1.81049 3.24999L5.24994 6.68944L6.6894 5.24999L3.24994 1.81053L1.81049 3.24999Z" fill="currentColor" />

</g>
</svg>
