<svg viewBox="0 0 16 16" fill="none" xmlns="http://www.w3.org/2000/svg">
<g transform="translate(0.5630, 1.6670)">
<path d="M2.02539 1.16602H5.12402C5.4081 1.16602 5.66788 1.32697 5.79492 1.58105L6.50781 3.00684C6.91517 3.82154 7.6457 4.42838 8.52148 4.67871L10.3301 5.19531L11.4258 5.50781C12.9337 5.93864 14.0357 7.18869 14.3076 8.69141C14.6328 8.77352 14.874 9.06537 14.874 9.41602V11.916C14.874 12.3302 14.5382 12.666 14.124 12.666H1.12402C0.709817 12.666 0.374023 12.3302 0.374023 11.916V9.41602C0.374027 9.08973 0.583103 8.8141 0.874023 8.71094V2.14258L0 0.832031L1.24805 0L2.02539 1.16602ZM1.87402 11.166H13.374V10.166H1.87402V11.166ZM2.37402 8.66602H8.81152C8.79442 8.25946 8.79528 7.72503 8.88867 7.2666C8.9485 6.97315 9.04014 6.67061 9.12891 6.41113L8.11035 6.12012C6.83014 5.75434 5.76146 4.86861 5.16602 3.67773L4.66016 2.66602H2.37402V8.66602ZM10.5762 6.82422C10.4918 7.06375 10.4076 7.32894 10.3594 7.56543C10.299 7.86157 10.2936 8.28045 10.3125 8.66602H12.7598C12.5103 7.85131 11.8658 7.19353 11.0146 6.9502L10.5762 6.82422Z" fill="currentColor" />

</g>
</svg>
