<svg viewBox="0 0 16 16" fill="none" xmlns="http://www.w3.org/2000/svg">
<g transform="translate(0.2501, 1.2500)">
<path d="M6.34939 0C8.6644 5.31392e-05 10.5486 1.86666 10.5486 4.17871C10.5485 4.92759 10.3933 5.68776 10.0535 6.35254H13.824L13.9236 6.35938C14.1543 6.39035 14.3598 6.52759 14.4763 6.7334C14.8552 7.40295 15.4997 8.25547 15.4998 9.89258C15.4996 11.9543 13.6748 13.5 11.5877 13.5H4.91189C2.82492 13.4998 0.999982 11.9542 0.999777 9.89258C0.999895 8.47799 1.89728 7.35529 3.09157 6.77051C2.93992 6.5813 2.80362 6.37785 2.68337 6.16406L0.471457 5.2793C0.169513 5.15844 -0.0202862 4.85673 0.00173062 4.53223C0.0237591 4.20773 0.252637 3.93443 0.568137 3.85547L2.21462 3.44336C2.56404 1.48335 4.28567 0.000152872 6.34939 0ZM6.34939 1.5C4.85423 1.50017 3.64919 2.70381 3.64919 4.17871C3.64938 5.09795 4.19794 5.97954 4.9656 6.47168C5.23155 6.64231 5.36194 6.96141 5.29177 7.26953C5.22143 7.57749 4.96568 7.80912 4.65212 7.84766C3.3778 8.00433 2.49995 8.92472 2.49978 9.89258C2.49999 10.9863 3.50665 11.9998 4.91189 12H11.5877C12.9931 12 13.9996 10.9864 13.9998 9.89258C13.9997 8.92989 13.7282 8.42511 13.3924 7.85254H8.42556C8.09471 7.8524 7.80214 7.63518 7.70681 7.31836C7.61191 7.00178 7.73604 6.6601 8.0115 6.47754C8.66813 6.04362 9.04849 5.2049 9.04861 4.17871C9.04861 2.70373 7.84464 1.50005 6.34939 1.5Z" fill="currentColor" />

</g>
</svg>
