<svg viewBox="0 0 16 16" fill="none" xmlns="http://www.w3.org/2000/svg">
<g transform="translate(0.2500, 2.0000)">
<path d="M3.25 5.5C5.04493 5.5 6.5 6.95507 6.5 8.75C6.49997 10.5449 5.04491 12 3.25 12C1.45509 12 2.88623e-05 10.5449 0 8.75C0 6.95507 1.45507 5.5 3.25 5.5ZM7.75 1.5H4.33496L4.1084 2.40527L10.1826 6.24121C10.7444 5.77777 11.4649 5.5 12.25 5.5C14.0449 5.5 15.5 6.95507 15.5 8.75C15.5 10.5449 14.0449 12 12.25 12C10.4551 12 9.00003 10.5449 9 8.75C9 8.28444 9.09809 7.84178 9.27441 7.44141L2.84961 3.38379C2.57603 3.21094 2.4441 2.88233 2.52246 2.56836L3.02246 0.568359C3.10592 0.23451 3.40588 3.69282e-05 3.75 0H7.75V1.5ZM3.25 7C2.2835 7 1.5 7.7835 1.5 8.75C1.50003 9.71647 2.28352 10.5 3.25 10.5C4.21648 10.5 4.99997 9.71647 5 8.75C5 7.7835 4.2165 7 3.25 7ZM12.25 7C12.016 7 11.7929 7.04653 11.5889 7.12988L13.1504 8.11621L12.3496 9.38379L10.5703 8.25977C10.525 8.41536 10.5 8.57977 10.5 8.75C10.5 9.71647 11.2835 10.5 12.25 10.5C13.2165 10.5 14 9.71647 14 8.75C14 7.7835 13.2165 7 12.25 7ZM13.75 4.5H9.75V3H13.75V4.5Z" fill="currentColor" />

</g>
</svg>
