<svg viewBox="0 0 16 16" fill="none" xmlns="http://www.w3.org/2000/svg">
<g transform="translate(2.7503, 1.0003)">
<path d="M1.53218 6.1748C3.58659 3.94229 6.94554 3.94227 8.99995 6.1748C11.0275 8.3784 10.9826 11.5681 8.96772 13.7578C8.82578 13.9121 8.62558 13.9999 8.41597 14H2.05171C1.84206 13.9999 1.64192 13.9121 1.49995 13.7578C-0.527733 11.5543 -0.482606 8.36455 1.53218 6.1748ZM7.89644 7.19043C6.43623 5.60361 4.09591 5.60363 2.63569 7.19043C1.2097 8.74039 1.12325 10.9022 2.39741 12.5H8.07026C9.36064 10.8901 9.31092 8.72788 7.89644 7.19043ZM6.3271 0.00390625C6.70505 0.0425499 6.99995 0.36185 6.99995 0.75V2.47852C7.52961 2.61637 8.05847 2.81591 8.58491 3.0791L7.91499 4.4209C6.12615 3.52647 4.37375 3.52649 2.58491 4.4209L1.91499 3.0791C2.44145 2.81591 2.97027 2.61637 3.49995 2.47852V0.75C3.49995 0.335786 3.83574 0 4.24995 0H6.24995L6.3271 0.00390625ZM4.99995 2.25684C5.16666 2.25066 5.33324 2.25065 5.49995 2.25684V1.5H4.99995V2.25684Z" fill="currentColor" />

</g>
</svg>
