<svg viewBox="0 0 16 16" fill="none" xmlns="http://www.w3.org/2000/svg">
<g transform="translate(0.2500, 1.5000)">
<path d="M1.5 9.5H14V4.25H15.5V10.25C15.5 10.6642 15.1642 11 14.75 11H13.5V13H12V11H3.5V13H2V11H0.75C0.551088 11 0.360379 10.9209 0.219727 10.7803C0.0790743 10.6396 0 10.4489 0 10.25V4.25H1.5V9.5ZM10.5 0C11.7426 0 12.75 1.00736 12.75 2.25V7.5C12.75 7.91421 12.4142 8.25 12 8.25H3.5C3.08579 8.25 2.75 7.91421 2.75 7.5V2.25C2.75 1.00736 3.75736 2.0133e-08 5 0H10.5ZM5 1.5C4.58579 1.5 4.25 1.83579 4.25 2.25V6.75H11.25V2.25C11.25 1.83579 10.9142 1.5 10.5 1.5H5Z" fill="currentColor" />

</g>
</svg>
