<svg viewBox="0 0 16 16" fill="none" xmlns="http://www.w3.org/2000/svg">
<g transform="translate(0.2499, 1.7500)">
<path d="M9.75015 0C11.5649 0 13.1627 1.19557 13.675 2.93652L15.4699 9.03809C15.5365 9.26479 15.4923 9.50999 15.3507 9.69922C15.2091 9.88845 14.9865 10 14.7502 10H14.4181C14.1044 11.4195 12.9061 12.5 11.2502 12.5C9.59412 12.5 8.39587 11.4195 8.08219 10H7.41812C7.10444 11.4195 5.9062 12.5 4.25015 12.5C2.59416 12.5 1.39587 11.4195 1.08219 10H0.750155C0.513802 10 0.291174 9.88845 0.149569 9.69922C0.00803086 9.50999 -0.036237 9.2648 0.0304281 9.03809L1.82535 2.93652C2.33756 1.19557 3.93539 2.77497e-06 5.75015 0V1.5C4.60069 1.5 3.58817 2.25759 3.26383 3.36035L2.30972 6.60449C2.83438 6.22514 3.49464 6.00001 4.25015 6C5.90618 6 7.10447 7.08042 7.41812 8.5H8.08219C8.39584 7.08041 9.59412 6 11.2502 6C12.0057 6.00001 12.6659 6.22514 13.1906 6.60449L12.2365 3.36035C11.9121 2.25759 10.8996 1.5 9.75015 1.5V0ZM4.25015 7.5C3.18791 7.50003 2.50015 8.25964 2.50015 9.25C2.50018 10.2403 3.18788 11 4.25015 11C5.31243 11 6.00013 10.2404 6.00015 9.25C6.00015 8.25959 5.31241 7.5 4.25015 7.5ZM11.2502 7.5C10.1879 7.5 9.50015 8.2596 9.50015 9.25C9.50019 10.2404 10.1879 11 11.2502 11C12.3124 11 13.0001 10.2403 13.0002 9.25C13.0002 8.25964 12.3124 7.50002 11.2502 7.5Z" fill="currentColor" />

</g>
</svg>
