<svg viewBox="0 0 16 16" fill="none" xmlns="http://www.w3.org/2000/svg">
<g transform="translate(2.2502, 1.0003)">
<path d="M1.5 6.75C1.5 8.54492 2.95508 10 4.75 10H6.75C8.54492 10 10 8.54492 10 6.75H11.5C11.5 9.37335 9.37335 11.5 6.75 11.5H6.5V12.5H7.75V14H3.75V12.5H5V11.5H4.75C2.12665 11.5 0 9.37335 0 6.75H1.5ZM5.75 0C7.54492 5.15404e-07 9 1.45507 9 3.25V5.75C9 7.54493 7.54492 9 5.75 9C3.95507 9 2.5 7.54493 2.5 5.75V3.25C2.5 1.45507 3.95507 0 5.75 0ZM5.75 1.5C4.7835 1.5 4 2.2835 4 3.25V5.75C4 6.7165 4.7835 7.5 5.75 7.5C6.7165 7.5 7.5 6.7165 7.5 5.75V3.25C7.5 2.2835 6.7165 1.5 5.75 1.5Z" fill="currentColor" />

</g>
</svg>
