<svg viewBox="0 0 16 16" fill="none" xmlns="http://www.w3.org/2000/svg">
<g transform="translate(1.2495, 1.2495)">
<path d="M7.03728 1.10862C8.51572 -0.369516 10.9133 -0.369565 12.3918 1.10862C13.8702 2.58702 13.87 4.98459 12.3918 6.46311L9.42692 9.42698L6.46306 12.3918C4.98453 13.8699 2.58693 13.8702 1.10856 12.3918C-0.369583 10.9134 -0.36946 8.51579 1.10856 7.03733L4.07341 4.07346L7.03728 1.10862ZM2.17009 8.09788C1.27756 8.99053 1.27763 10.4376 2.17009 11.3303C3.06276 12.223 4.50979 12.2229 5.40251 11.3303L7.8361 8.89671L4.60368 5.66429L2.17009 8.09788ZM11.3302 2.17014C10.4375 1.27765 8.99046 1.2775 8.09782 2.17014L5.66423 4.60374L8.89665 7.83616L11.3302 5.40257C12.223 4.50985 12.223 3.06286 11.3302 2.17014Z" fill="currentColor" />

</g>
</svg>
