<svg viewBox="0 0 16 16" fill="none" xmlns="http://www.w3.org/2000/svg">
<g transform="translate(0.2979, 1.1250)">
<path d="M10.7754 2.75C11.6275 2.7501 12.406 3.23196 12.7871 3.99414L14.1621 6.74219C14.1986 6.81526 14.231 6.8901 14.2607 6.96582C14.514 6.90662 14.7609 6.84431 15 6.77734L15.4043 8.22266C15.0975 8.30857 14.7794 8.38705 14.4521 8.46094V13C14.4521 13.4142 14.1163 13.75 13.7021 13.75H10.7021C10.5033 13.75 10.3125 13.6709 10.1719 13.5303C10.0313 13.3896 9.95216 13.1989 9.95215 13V12.25H5.45215V13C5.45212 13.4142 5.11635 13.75 4.70215 13.75H1.70215C1.50326 13.75 1.31251 13.6709 1.17188 13.5303C1.03124 13.3896 0.952159 13.1989 0.952148 13V8.46094C0.624918 8.38706 0.30675 8.30855 0 8.22266L0.202148 7.5L0.404297 6.77832C0.643103 6.84519 0.889629 6.90768 1.14258 6.9668C1.17246 6.89067 1.20546 6.81564 1.24219 6.74219L2.61719 3.99414C2.99827 3.23198 3.77681 2.75014 4.62891 2.75H10.7754ZM12.9521 8.74805C9.66209 9.27378 5.74218 9.27378 2.45215 8.74805V12.25H3.95215V11.5C3.95215 11.0858 4.288 10.7501 4.70215 10.75H10.7021C10.901 10.75 11.0918 10.8291 11.2324 10.9697C11.3731 11.1104 11.4521 11.3011 11.4521 11.5V12.25H12.9521V8.74805ZM4.62891 4.25C4.34497 4.25014 4.085 4.41106 3.95801 4.66504L2.65918 7.26172C5.8043 7.76811 9.59887 7.76834 12.7441 7.26172L11.4463 4.66504C11.3193 4.41103 11.0594 4.2501 10.7754 4.25H4.62891ZM7.70215 0C8.60098 -4.37214e-08 9.55994 0.297301 10.2324 0.969727L9.17188 2.03027C8.84435 1.7028 8.30327 1.5 7.70215 1.5C7.10105 1.50003 6.55992 1.7028 6.23242 2.03027L5.17188 0.969727C5.84433 0.297306 6.80333 2.50754e-05 7.70215 0Z" fill="currentColor" />

</g>
</svg>
