<svg viewBox="0 0 16 16" fill="none" xmlns="http://www.w3.org/2000/svg">
<g transform="translate(1.2501, 1.7503)">
<path d="M11.7501 0C12.1379 0 12.4619 0.295547 12.4972 0.681641L13.4972 11.6816C13.5163 11.8915 13.446 12.1003 13.3039 12.2559C13.1618 12.4114 12.9608 12.5 12.7501 12.5H0.750145C0.539474 12.5 0.338525 12.4114 0.196434 12.2559C0.0543371 12.1003 -0.0160032 11.8915 0.00307452 11.6816L1.00307 0.681641L1.02944 0.541992C1.12023 0.226516 1.41069 0 1.75014 0H11.7501ZM1.57143 11H11.9289L11.0646 1.5H2.43569L1.57143 11ZM5.00014 3.25V4.25C5.00014 4.66421 5.33593 5 5.75014 5H7.75014C8.16436 5 8.50014 4.66421 8.50014 4.25V3.25H10.0001V4.25C10.0001 5.49264 8.99278 6.5 7.75014 6.5H5.75014C4.5075 6.5 3.50014 5.49264 3.50014 4.25V3.25H5.00014Z" fill="currentColor" />

</g>
</svg>
