<svg viewBox="0 0 16 16" fill="none" xmlns="http://www.w3.org/2000/svg">
<g transform="translate(0.7497, 1.9997)">
<path d="M3.79199 0.156334C3.97606 0.0144411 4.21565 -0.0344945 4.44043 0.0244985L13.9404 2.5245C14.2699 2.6112 14.5 2.90938 14.5 3.25008V11.2501C14.5 11.6643 14.1642 12.0001 13.75 12.0001H0.75C0.335786 12.0001 0 11.6643 0 11.2501V7.25008C2.40653e-06 6.98094 0.14425 6.73225 0.37793 6.59872L3.5 4.81454V0.750084C3.5 0.517587 3.60791 0.298334 3.79199 0.156334ZM1.5 7.68465V10.5001H3.5V6.54208L1.5 7.68465ZM5 10.5001H13V3.82821L5 1.72274V10.5001Z" fill="currentColor" />

</g>
</svg>
