<svg viewBox="0 0 16 16" fill="none" xmlns="http://www.w3.org/2000/svg">
<g transform="translate(1.2495, 1.4998)">
<path d="M8.25024 0C9.21674 0 10.0002 0.783502 10.0002 1.75V3H12.7502C12.9644 3 13.1685 3.09191 13.3108 3.25195C13.453 3.41198 13.5204 3.62529 13.4954 3.83789L12.4954 12.3379C12.4508 12.7155 12.1305 13 11.7502 13H1.75024C1.37 13 1.04966 12.7155 1.00512 12.3379L0.0051217 3.83789C-0.0198904 3.62529 0.0475131 3.41197 0.189692 3.25195C0.332014 3.09191 0.536065 3 0.750239 3H3.50024V1.75C3.50024 0.783502 4.28374 2.65755e-07 5.25024 0H8.25024ZM2.41723 11.5H11.0832L11.9065 4.5H1.59399L2.41723 11.5ZM5.25024 1.5C5.11217 1.5 5.00024 1.61193 5.00024 1.75V3H8.50024V1.75C8.50024 1.61193 8.38831 1.5 8.25024 1.5H5.25024Z" fill="currentColor" />

</g>
</svg>
