<svg viewBox="0 0 16 16" fill="none" xmlns="http://www.w3.org/2000/svg">
<g transform="translate(0.7497, 2.1249)">
<path d="M0.283203 0.162808C0.46206 0.0205555 0.696265 -0.0321339 0.918945 0.0192533L13.9189 3.01925C14.259 3.09793 14.5 3.40062 14.5 3.74972V11.7497H13V4.34543L1.5 1.6921V11.7497H0V0.749722C0 0.521202 0.104393 0.305099 0.283203 0.162808ZM8.68359 5.49972C9.2983 5.49972 9.8683 5.82222 10.1846 6.34933L11.0479 7.78878C11.2787 7.71629 11.5046 7.64026 11.7217 7.55343L12.2783 8.94601C12.0267 9.04666 11.7665 9.13771 11.5 9.2214V11.7497H10V9.59152C8.22151 9.92112 6.27888 9.92301 4.5 9.59543V11.7497H3V9.22628C2.7336 9.14276 2.47327 9.05249 2.22168 8.95187L2.77832 7.55929C2.99412 7.64561 3.21881 7.72067 3.44824 7.79269L4.31543 6.34933C4.6317 5.82222 5.2017 5.49972 5.81641 5.49972H8.68359ZM5.81641 6.99972C5.72863 6.99972 5.64675 7.04557 5.60156 7.12082L4.97949 8.15695C6.45064 8.40217 8.04594 8.40006 9.51758 8.15304L8.89844 7.12082C8.85325 7.04557 8.77137 6.99972 8.68359 6.99972H5.81641Z" fill="currentColor" />

</g>
</svg>
