<svg viewBox="0 0 16 16" fill="none" xmlns="http://www.w3.org/2000/svg">
<g transform="translate(0.7503, 0.7503)">
<path d="M8.01538 0.756593C9.02419 -0.252216 10.6599 -0.252179 11.6687 0.756593C12.054 1.14193 12.2906 1.61906 12.3816 2.11694C12.8799 2.2078 13.3573 2.44518 13.7429 2.83081C14.7517 3.83964 14.7517 5.47532 13.7429 6.48413C12.9185 7.30832 11.6763 7.45733 10.699 6.93433L6.93433 10.699C7.45734 11.6763 7.30833 12.9185 6.48413 13.7429C5.47532 14.7517 3.83965 14.7517 2.83081 13.7429C2.44518 13.3573 2.2078 12.8799 2.11694 12.3816C1.61906 12.2906 1.14193 12.054 0.756593 11.6687C-0.252178 10.6599 -0.252217 9.02419 0.756593 8.01538C1.58071 7.19152 2.82239 7.04194 3.79956 7.56421L7.56421 3.79956C7.04194 2.82239 7.19152 1.58071 8.01538 0.756593ZM10.6082 1.81714C10.1851 1.39415 9.49895 1.39412 9.07593 1.81714C8.65319 2.24019 8.65304 2.92641 9.07593 3.34937C9.21658 3.49002 9.29566 3.68073 9.29566 3.87964C9.29558 4.07844 9.21651 4.26933 9.07593 4.40991L4.40991 9.07593C4.11702 9.36882 3.64226 9.36882 3.34937 9.07593C2.92642 8.65303 2.24019 8.65319 1.81714 9.07593C1.39412 9.49895 1.39416 10.1851 1.81714 10.6082C2.06737 10.8584 2.40921 10.9613 2.73706 10.9148C2.97046 10.8818 3.20612 10.96 3.3728 11.1267C3.53949 11.2934 3.61775 11.5291 3.58472 11.7625C3.53816 12.0903 3.64113 12.4321 3.89136 12.6824C4.31441 13.1054 5.00056 13.1054 5.42359 12.6824C5.84632 12.2593 5.84648 11.5731 5.42359 11.1501C5.28293 11.0095 5.20386 10.8188 5.20386 10.6199C5.20394 10.4211 5.283 10.2302 5.42359 10.0896L10.0896 5.42358L10.1472 5.37183C10.4418 5.13169 10.8756 5.14904 11.1501 5.42358C11.5731 5.84647 12.2593 5.84632 12.6824 5.42358C13.1054 5.00056 13.1054 4.3144 12.6824 3.89136C12.4321 3.64113 12.0903 3.53816 11.7625 3.58472C11.5291 3.61775 11.2934 3.53949 11.1267 3.3728C10.96 3.20612 10.8818 2.97045 10.9148 2.73706C10.9614 2.40921 10.8584 2.06737 10.6082 1.81714Z" fill="currentColor" />

</g>
</svg>
