<svg viewBox="0 0 16 16" fill="none" xmlns="http://www.w3.org/2000/svg">
<g transform="translate(1.8750, 1.7500)">
<path d="M3.25 0C4.17044 0 4.99569 0.310142 5.59277 0.907227C5.71134 1.02579 5.81831 1.15355 5.91406 1.28906C5.94326 1.25407 5.9726 1.21929 6.00293 1.18555C6.62266 0.496005 7.55066 -0.00190395 8.62305 0.176758C9.65005 0.347966 10.2746 1.06379 10.7002 1.46289C11.146 1.88089 11.5315 2.16699 12.25 2.16699V3.66699C10.9686 3.66699 10.2289 3.0771 9.6748 2.55762C9.10056 2.01925 8.8495 1.73512 8.37695 1.65625C7.94392 1.58406 7.49692 1.76698 7.11816 2.18848C6.73491 2.61509 6.50001 3.21014 6.5 3.75V4.4502C7.00603 4.15308 7.60445 4 8.25 4C9.17044 4 9.99569 4.31014 10.5928 4.90723C11.1899 5.50431 11.5 6.32956 11.5 7.25H10C10 6.67044 9.81014 6.24569 9.53223 5.96777C9.25431 5.68986 8.82956 5.5 8.25 5.5C7.67044 5.5 7.24569 5.68986 6.96777 5.96777C6.68986 6.24569 6.5 6.67044 6.5 7.25V11H9.75V12.5H1.75V11H5V7.25C5 6.67044 4.81014 6.24569 4.53223 5.96777C4.25431 5.68986 3.82956 5.5 3.25 5.5C2.67044 5.5 2.24569 5.68986 1.96777 5.96777C1.68986 6.24569 1.5 6.67044 1.5 7.25H0C0 6.32956 0.310142 5.50431 0.907227 4.90723C1.50431 4.31014 2.32956 4 3.25 4C3.89555 4 4.49397 4.15308 5 4.4502V3.25C5 2.67044 4.81014 2.24569 4.53223 1.96777C4.25431 1.68986 3.82956 1.5 3.25 1.5C2.67044 1.5 2.24569 1.68986 1.96777 1.96777C1.68986 2.24569 1.5 2.67044 1.5 3.25H0C0 2.32956 0.310142 1.50431 0.907227 0.907227C1.50431 0.310142 2.32956 0 3.25 0Z" fill="currentColor" />

</g>
</svg>
