<svg viewBox="0 0 16 16" fill="none" xmlns="http://www.w3.org/2000/svg">
<g transform="translate(0.2500, 1.7500)">
<path d="M9.75 0C12.9256 6.44277e-08 15.5 2.57436 15.5 5.75V9.5C15.5 11.1569 14.1569 12.5 12.5 12.5C11.0135 12.5 9.78007 11.4188 9.54199 10H5.95801C5.71993 11.4188 4.48647 12.5 3 12.5C1.34315 12.5 0 11.1569 0 9.5V5.75C0 2.57436 2.57436 6.44256e-08 5.75 0H9.75ZM5.75 1.5C3.40279 1.5 1.5 3.40279 1.5 5.75V9.5C1.5 10.3284 2.17157 11 3 11C3.82843 11 4.5 10.3284 4.5 9.5V9.25C4.5 8.83579 4.83579 8.5 5.25 8.5H10.25C10.6642 8.5 11 8.83579 11 9.25V9.5C11 10.3284 11.6716 11 12.5 11C13.3284 11 14 10.3284 14 9.5V5.75C14 3.40279 12.0972 1.5 9.75 1.5H5.75ZM6 4.5H7.25V6H6V7.25H4.5V6H3.25V4.5H4.5V3.25H6V4.5Z" fill="currentColor" />

</g>
</svg>
