<svg viewBox="0 0 16 16" fill="none" xmlns="http://www.w3.org/2000/svg">
<g transform="translate(0.2500, 0.2502)">
<path d="M4.35545 0.11208C4.64101 -0.0644046 5.00935 -0.0297941 5.25681 0.197041L11.042 5.49978H13.5C14.6045 5.49978 15.5 6.39521 15.5 7.49978C15.5 8.60434 14.6045 9.49978 13.5 9.49978H11.0605L5.28025 15.28C5.0343 15.526 4.65132 15.5703 4.35545 15.3875C4.0598 15.2045 3.92811 14.8423 4.03806 14.5125L5.70896 9.49978H2.74998C2.52215 9.49977 2.30637 9.39643 2.16404 9.21853L0.164039 6.71853C-0.016057 6.4934 -0.0506926 6.18443 0.0741956 5.92458C0.199148 5.66492 0.461796 5.49978 0.749977 5.49978H8.82224L6.15427 3.05349C6.21623 3.29567 6.27433 3.53004 6.3242 3.74196C6.37216 3.94583 6.41314 4.13525 6.44334 4.29372C6.46958 4.43152 6.49998 4.60687 6.49998 4.74978H4.99998C4.99998 4.76767 4.99905 4.72399 4.97068 4.57497C4.94619 4.44641 4.909 4.28012 4.86326 4.08571C4.77202 3.69795 4.64966 3.22177 4.52537 2.75564C4.40136 2.29059 4.27685 1.83988 4.18357 1.50564C4.13702 1.33883 4.09838 1.20112 4.07127 1.10524C4.0577 1.05728 4.04725 1.01935 4.04002 0.993916C4.03646 0.981405 4.03306 0.972023 4.03123 0.965596C4.0303 0.962356 4.02973 0.959393 4.02927 0.957784V0.95583C3.93709 0.633171 4.07011 0.288627 4.35545 0.11208ZM3.1113 7.99978H6.74998C6.99106 7.99978 7.21741 8.11573 7.35838 8.3113C7.49933 8.50687 7.53812 8.75838 7.46189 8.98708L6.46677 11.9724L10.2197 8.2195C10.3604 8.07885 10.5511 7.99978 10.75 7.99978H13.5C13.7761 7.99978 14 7.77592 14 7.49978C14 7.22364 13.7761 6.99978 13.5 6.99978H2.3115L3.1113 7.99978Z" fill="currentColor" />

</g>
</svg>
