<svg viewBox="0 0 16 16" fill="none" xmlns="http://www.w3.org/2000/svg">
<g transform="translate(0.5002, 2.0002)">
<path d="M4.75 0C4.75 0.806251 4.97324 1.78675 5.44727 2.54102C5.9065 3.27161 6.56589 3.75 7.5 3.75C8.43411 3.75 9.0935 3.27161 9.55273 2.54102C10.0268 1.78675 10.25 0.806251 10.25 0H11.75C11.75 0.742423 12.0623 1.70905 12.6572 2.4834C13.2432 3.24616 14.0422 3.75 15 3.75V5.25C13.6308 5.25 12.5318 4.59809 11.75 3.7334V8.25H15V9.75H11.75V12H10.25V9.75H4.75V12H3.25V9.75H0V8.25H3.25V3.7334C2.46824 4.59809 1.36919 5.25 0 5.25V3.75C0.957765 3.75 1.75677 3.24616 2.34277 2.4834C2.93766 1.70905 3.25 0.742423 3.25 0H4.75ZM10.25 4.07617C9.58827 4.76681 8.67907 5.25 7.5 5.25C6.32093 5.25 5.41173 4.76681 4.75 4.07617V8.25H10.25V4.07617Z" fill="currentColor" />

</g>
</svg>
