<svg viewBox="0 0 16 16" fill="none" xmlns="http://www.w3.org/2000/svg">
<g transform="translate(1.2501, 1.5621)">
<path d="M4 11.376H9.5V7.62598H11V12.126C11 12.5402 10.6642 12.876 10.25 12.876H3.25C2.83579 12.876 2.5 12.5402 2.5 12.126V7.62598H4V11.376ZM4.07715 0.178711C4.56596 -0.157254 5.17265 0.0134328 5.47754 0.416992L5.53418 0.500976L5.63477 0.655273C5.88841 1.01687 6.27321 1.37598 6.75 1.37598C7.29456 1.37598 7.71952 0.907782 7.96582 0.501953L8.02246 0.417969C8.30774 0.0405589 8.85674 -0.13367 9.32617 0.120117L9.4248 0.180664L11.1641 1.38379L11.1934 1.40527C12.7865 2.62564 13.4999 4.91445 13.5 6.62598V12.626H12V6.62598C11.9999 5.20377 11.383 3.44811 10.2891 2.60352L8.96484 1.68652C8.55846 2.20463 7.82974 2.87598 6.75 2.87598C5.66848 2.87598 4.93826 2.20311 4.53223 1.68457L3.19629 2.60352C2.11518 3.44933 1.50007 5.20514 1.5 6.62598V12.626H0V6.62598C7.08843e-05 4.91487 0.713472 2.62857 2.29102 1.4082L2.3252 1.38281L4.07715 0.178711ZM9.25 5.87598H6.75V4.37598H9.25V5.87598Z" fill="currentColor" />

</g>
</svg>
