<svg viewBox="0 0 16 16" fill="none" xmlns="http://www.w3.org/2000/svg">
<g transform="translate(0.8386, 2.1238)">
<path d="M8.66113 11.752H5.66113V10.252H8.66113V11.752ZM12.7188 1.00391L8.16992 6.05664L11.4531 9.70508C11.6144 9.68287 11.8188 9.65588 12.0488 9.62109C12.6255 9.53387 13.3574 9.41127 14 9.26953L14.3223 10.7344C13.632 10.8866 12.863 11.0143 12.2734 11.1035C11.9775 11.1483 11.7231 11.1837 11.543 11.208C11.453 11.2201 11.3805 11.23 11.3311 11.2363C11.3068 11.2395 11.2875 11.2425 11.2744 11.2441C11.268 11.2449 11.2622 11.2447 11.2588 11.2451C11.2573 11.2454 11.2557 11.246 11.2549 11.2461H11.2529C11.01 11.2759 10.7673 11.1858 10.6035 11.0039L7.16113 7.17871L3.71875 11.0039C3.55492 11.1857 3.31222 11.2761 3.06934 11.2461H3.06738C3.06648 11.2459 3.06494 11.2453 3.06348 11.2451C3.05996 11.2447 3.05417 11.2449 3.04785 11.2441C3.03472 11.2425 3.01548 11.2395 2.99121 11.2363C2.94167 11.2299 2.86923 11.2201 2.7793 11.208C2.59909 11.1837 2.34477 11.1483 2.04883 11.1035C1.45915 11.0143 0.690272 10.8866 0 10.7344L0.322266 9.26953C0.964862 9.41128 1.69669 9.53385 2.27344 9.62109C2.50347 9.65589 2.70782 9.68287 2.86914 9.70508L6.15137 6.05664L1.60352 1.00391L2.71875 0L7.16113 4.93555L11.6035 0L12.7188 1.00391Z" fill="currentColor" />

</g>
</svg>
