<svg viewBox="0 0 16 16" fill="none" xmlns="http://www.w3.org/2000/svg">
<g transform="translate(0.7497, 2.7499)">
<path d="M0.415266 0.171752C0.58784 0.0293517 0.815704 -0.0288235 1.03538 0.0135493L1.03831 0.0145258C1.04075 0.0149914 1.04495 0.0155335 1.05003 0.016479C1.06073 0.0184945 1.07742 0.0213472 1.09886 0.025268C1.14252 0.033254 1.20835 0.0454687 1.29027 0.0594477C1.45446 0.087457 1.68722 0.124547 1.95823 0.161987C2.50729 0.237822 3.19042 0.31037 3.78148 0.310424C4.3685 0.310424 4.96795 0.23903 5.42796 0.164916C5.65573 0.128213 5.84544 0.0915377 5.97679 0.0643305C6.04218 0.0507825 6.09353 0.0387212 6.12718 0.0311274C6.14361 0.0274204 6.15645 0.0251282 6.16429 0.0233149C6.16767 0.0225234 6.17048 0.0217583 6.1721 0.0213618H6.17308C6.48153 -0.0531943 6.80417 0.0741002 6.97777 0.339721V0.340698L6.97874 0.341674C6.9797 0.343133 6.9817 0.345589 6.98363 0.34851C6.98758 0.354552 6.99343 0.363989 7.0012 0.375854C7.01689 0.39978 7.04071 0.435049 7.07054 0.480346C7.13034 0.571154 7.21649 0.702898 7.32249 0.862182C7.53469 1.18104 7.82554 1.61304 8.13792 2.06726C8.78482 3.00788 9.46258 3.94721 9.76878 4.25378C10.1283 4.61347 10.686 4.98767 11.3166 5.33777C11.937 5.68217 12.5849 5.98011 13.094 6.19714C13.918 6.54842 14.5002 7.35723 14.5002 8.29089C14.5002 9.51087 13.5112 10.4999 12.2912 10.4999H8.27562C6.98685 10.4997 6.15542 9.75228 5.56956 9.14539C5.29434 8.86027 5.10078 8.64081 4.89476 8.44031L4.50804 9.93738C4.42243 10.2684 4.12336 10.4999 3.78148 10.4999H1.53441C1.17858 10.4995 0.871477 10.2489 0.800031 9.90027L0.15843 6.76746C0.156998 6.76045 0.155756 6.75301 0.154524 6.74597C-0.020301 5.74765 -0.0178496 4.68059 0.0226877 3.66492C0.0645801 2.61556 0.142803 1.66388 0.142805 0.749877C0.142815 0.526261 0.242933 0.314216 0.415266 0.171752ZM2.14671 8.99988H3.2014L3.49534 7.85828L1.84984 7.55554L2.14671 8.99988ZM5.66624 1.64539C5.16339 1.72639 4.47799 1.81042 3.78148 1.81042C3.08891 1.81037 2.32719 1.7276 1.75316 1.64831C1.70854 1.64214 1.66484 1.63393 1.6223 1.62781C1.5956 2.32721 1.54857 3.05181 1.52171 3.72449C1.48994 4.52043 1.48714 5.27864 1.56175 5.97742L4.5598 6.52917L4.59984 6.53796C5.10041 6.65896 5.49357 6.95071 5.80198 7.2323C6.09424 7.49917 6.40845 7.85552 6.64866 8.10437C7.186 8.66096 7.63895 8.99975 8.27562 8.99988H12.2912C12.6828 8.99988 13.0002 8.68244 13.0002 8.29089C13.0002 7.99573 12.8124 7.70761 12.5061 7.57703C11.9692 7.34817 11.2698 7.02773 10.5881 6.64929C9.91638 6.27633 9.21548 5.82175 8.70823 5.31433C8.28186 4.88767 7.51552 3.81052 6.90159 2.91785C6.58357 2.45542 6.28842 2.01624 6.07347 1.69324C6.04825 1.65535 6.02415 1.61844 6.0012 1.58386C5.90075 1.60246 5.78837 1.62571 5.66624 1.64539Z" fill="currentColor" />

</g>
</svg>
