<svg viewBox="0 0 16 16" fill="none" xmlns="http://www.w3.org/2000/svg">
<g transform="translate(2.2500, 0.7497)">
<path d="M5.74972 0C8.99217 0.000140081 11.0081 2.67097 10.6892 5.33301H10.7497C11.0247 5.3331 11.2778 5.48393 11.4089 5.72559C11.5399 5.96754 11.5279 6.26267 11.3777 6.49316L6.37765 14.1602C6.23921 14.3721 6.0029 14.4999 5.74972 14.5C5.49649 14.5 5.26029 14.3721 5.12179 14.1602L0.121791 6.49316C-0.0285614 6.26262 -0.0405558 5.9676 0.0905414 5.72559C0.221731 5.48392 0.474709 5.33301 0.749721 5.33301H0.810268C0.491288 2.67089 2.50711 8.18319e-08 5.74972 0ZM9.38253 6.80566C8.0002 6.72498 6.89286 7.06918 5.64718 7.31836C4.62083 7.52363 3.55035 7.63891 2.38839 7.22363L5.74972 12.377L9.38253 6.80566ZM5.74972 1.5C3.25752 1.5 1.87427 3.65615 2.38058 5.58301C3.37688 6.1228 4.26096 6.06589 5.35226 5.84766C6.37805 5.64248 7.65572 5.26384 9.17941 5.29785C9.48614 3.4497 8.11941 1.50014 5.74972 1.5Z" fill="currentColor" />

</g>
</svg>
