<svg viewBox="0 0 16 16" fill="none" xmlns="http://www.w3.org/2000/svg">
<g transform="translate(2.2502, 0.7087)">
<path d="M9.25 3.08301C10.4926 3.08301 11.5 4.09037 11.5 5.33301V12.333C11.5 13.5756 10.4926 14.583 9.25 14.583H2.25C1.00736 14.583 0 13.5756 0 12.333V5.33301C8.31085e-06 4.09037 1.00736 3.08301 2.25 3.08301H9.25ZM1.5 12.333C1.5 12.7472 1.83579 13.083 2.25 13.083H9.25C9.66421 13.083 10 12.7472 10 12.333V11.583H1.5V12.333ZM2.25 4.58301C1.83579 4.58301 1.50001 4.9188 1.5 5.33301V10.083H10V5.33301C9.99999 4.9188 9.66421 4.58301 9.25 4.58301H2.25ZM5.75 0C6.64886 6.34824e-08 7.6078 0.297249 8.28027 0.969727L7.21973 2.03027C6.89221 1.70275 6.35114 1.5 5.75 1.5C5.14886 1.5 4.60779 1.70275 4.28027 2.03027L3.21973 0.969727C3.89221 0.297243 4.85114 1.77396e-06 5.75 0Z" fill="currentColor" />

</g>
</svg>
