<svg viewBox="0 0 16 16" fill="none" xmlns="http://www.w3.org/2000/svg">
<g transform="translate(0.2499, 2.2501)">
<path d="M6.70215 0.00275785C7.00992 -0.0237666 7.30876 0.142698 7.44434 0.430492L7.44531 0.431469C7.44576 0.432423 7.44635 0.434379 7.44727 0.436352C7.44942 0.440903 7.45362 0.448608 7.45801 0.457836C7.46683 0.476386 7.48 0.504347 7.49707 0.539867C7.53147 0.611431 7.58184 0.715511 7.64453 0.842602C7.77024 1.09743 7.94486 1.44504 8.14258 1.81623C8.55672 2.59372 9.01341 3.36414 9.31445 3.68635C9.67858 4.07591 10.4099 4.5081 11.3184 4.92073C12.1994 5.32091 13.1512 5.66114 13.8682 5.89631C14.2662 6.02696 14.604 6.24172 14.8359 6.56623C15.0658 6.88801 15.1379 7.24236 15.1465 7.55256C15.1548 7.85465 15.1038 8.1541 15.0508 8.4051C15.0405 8.4539 15.0276 8.5024 15.0166 8.55061C15.1333 8.65462 15.2315 8.77734 15.3066 8.91487C15.4973 9.26413 15.5269 9.65813 15.4814 9.98811C15.4354 10.3222 15.3023 10.6733 15.0703 10.9569C14.8324 11.2477 14.4568 11.4997 13.9678 11.4998H2.08398C0.909759 11.4998 0.000214203 10.5227 0 9.37092V7.89338C3.78943e-05 7.55586 0.120268 7.2249 0.333008 6.9676V3.16389C0.333058 2.92941 0.443128 2.70801 0.629883 2.56623C0.816693 2.42455 1.05935 2.37818 1.28516 2.44123H1.28613L1.32031 2.451C1.34506 2.45767 1.38264 2.4679 1.43066 2.4803C1.52689 2.50514 1.66595 2.53933 1.83398 2.57795C2.17261 2.65579 2.62035 2.74793 3.07129 2.80842C3.53382 2.87045 3.9502 2.89182 4.24512 2.8553C4.32237 2.84572 4.37787 2.83287 4.41602 2.82209C4.47623 2.61566 4.52253 2.43968 4.59473 2.19026C4.67038 1.92892 4.76466 1.63849 4.90527 1.36018C5.20977 0.757734 5.70955 0.25937 6.57031 0.0261954L6.70215 0.00275785ZM6.97266 8.5008C4.97897 8.08159 3.27481 7.79143 1.5 7.96272V9.37092C1.50021 9.74232 1.78546 9.99983 2.08398 9.99983H13.9131C13.9442 9.95856 13.9817 9.88064 13.9951 9.78303C13.9994 9.75193 13.9999 9.72384 13.999 9.70002C11.2313 9.46165 8.96566 8.91988 6.97266 8.5008ZM6.42871 1.76448C6.35295 1.84413 6.29521 1.93499 6.24414 2.03596C6.16704 2.18852 6.10294 2.3731 6.03516 2.60725C5.97751 2.80643 5.89457 3.13048 5.81641 3.38459C5.7044 3.74837 5.44781 3.98251 5.19043 4.12092C4.94533 4.25267 4.67301 4.31441 4.42969 4.34455C3.94181 4.405 3.37367 4.36202 2.87207 4.29475C2.5025 4.24518 2.14222 4.17504 1.83301 4.11018V6.43342C3.68017 6.32875 5.43766 6.64538 7.28125 7.03303C9.17072 7.43033 11.168 7.90358 13.5693 8.15217C13.5735 8.13313 13.579 8.11436 13.583 8.09553C13.6293 7.87595 13.6498 7.71518 13.6465 7.59358C13.6433 7.48055 13.6207 7.44591 13.6152 7.4383C13.6114 7.43291 13.5726 7.37763 13.4004 7.32112C12.658 7.0776 11.6492 6.71884 10.6982 6.28694C9.77475 5.86748 8.80178 5.33372 8.21875 4.70979C7.7592 4.21793 7.21511 3.26431 6.81934 2.52131C6.67357 2.24766 6.54048 1.98686 6.42871 1.76448Z" fill="currentColor" />

</g>
</svg>
