<svg viewBox="0 0 16 16" fill="none" xmlns="http://www.w3.org/2000/svg">
<g transform="translate(0.2500, 1.7500)">
<path d="M7.75 0C9.08454 0.000173234 10.167 1.08241 10.167 2.41699V2.45312C10.1667 3.31419 9.71485 4.11251 8.97656 4.55566L8.5 4.84082V5.33203L14.6377 9.13184C15.1736 9.46368 15.5 10.0493 15.5 10.6797C15.4998 11.6848 14.6849 12.5 13.6797 12.5H1.82031C0.815113 12.5 0.000220777 11.6848 0 10.6797C0 10.0493 0.326357 9.46368 0.862305 9.13184L7 5.33203V4.41699C7 4.15358 7.1384 3.90899 7.36426 3.77344L8.2041 3.26953C8.49076 3.09749 8.66671 2.78741 8.66699 2.45312V2.41699C8.66699 1.91084 8.25611 1.50017 7.75 1.5C7.24389 1.50018 6.83398 1.91084 6.83398 2.41699V2.75H5.33398V2.41699C5.33398 1.08241 6.41546 0.000175961 7.75 0ZM1.65137 10.4072C1.55729 10.4657 1.5 10.5689 1.5 10.6797C1.50022 10.8564 1.64354 11 1.82031 11H13.6797C13.8565 11 13.9998 10.8564 14 10.6797C14 10.5689 13.9427 10.4657 13.8486 10.4072L7.75 6.63184L1.65137 10.4072Z" fill="currentColor" />

</g>
</svg>
