<svg viewBox="0 0 16 16" fill="none" xmlns="http://www.w3.org/2000/svg">
<g transform="translate(1.2501, 1.6252)">
<path d="M6.75008 0C8.09764 3.55448e-07 9.06164 0.376551 9.70222 0.783203C10.0193 0.984515 10.2517 1.18996 10.4093 1.35156C10.4879 1.43221 10.5477 1.50289 10.5909 1.55664C10.6124 1.58341 10.6303 1.60595 10.6436 1.62402C10.6501 1.63284 10.6557 1.64095 10.6602 1.64746C10.6624 1.6506 10.6653 1.65368 10.6671 1.65625C10.6678 1.65736 10.6684 1.65911 10.669 1.66016L10.671 1.66211V1.66309C10.667 1.66629 10.6178 1.69969 10.0499 2.08301L10.672 1.66406C10.8504 1.9288 10.8419 2.27768 10.6505 2.5332L9.70906 3.78809C9.96574 3.91655 10.2628 4.07222 10.5714 4.25879C11.4641 4.79857 12.612 5.65794 13.13 6.81348C13.3698 7.3488 13.4511 7.99519 13.4815 8.45117C13.4975 8.68991 13.5007 8.90003 13.5001 9.05078C13.4997 9.12621 13.4984 9.18783 13.4971 9.23145C13.4965 9.25302 13.4957 9.27069 13.4952 9.2832V12.75H11.9952V10.0186H10.4971V12.75H8.99715V10.0186H7.50008V12.75H6.00008V10.0186H4.50301V12.75H3.00301V10.0186H1.50496V12.75H0.00495874V9.2832C0.00444985 9.27069 0.00364819 9.25302 0.00300561 9.23145C0.00170972 9.18783 0.000401867 9.12621 7.59236e-05 9.05078C-0.000570632 8.90003 0.00268609 8.68991 0.0186306 8.45117C0.0490982 7.99523 0.130389 7.34878 0.370193 6.81348C0.888041 5.65798 2.03607 4.7986 2.92879 4.25879C3.23705 4.07241 3.53361 3.91649 3.79011 3.78809L2.84969 2.5332C2.65837 2.27774 2.64985 1.92873 2.8282 1.66406L3.45027 2.08301C2.87116 1.69211 2.83162 1.66525 2.82918 1.66309V1.66211L2.83113 1.66016C2.83181 1.65916 2.83234 1.65741 2.83308 1.65625C2.83485 1.65369 2.83768 1.65061 2.83992 1.64746C2.8445 1.64096 2.85004 1.63284 2.85652 1.62402C2.86981 1.60595 2.88774 1.58342 2.90926 1.55664C2.95244 1.50291 3.01228 1.43223 3.0909 1.35156C3.24844 1.18997 3.48087 0.984535 3.79793 0.783203C4.43846 0.376527 5.40252 5.96049e-05 6.75008 0ZM6.75008 1.5C5.698 1.50006 5.01102 1.78988 4.60164 2.0498C4.54403 2.0864 4.49123 2.12294 4.44344 2.1582L5.54988 3.63379C5.691 3.82208 5.73629 4.06592 5.67097 4.29199C5.60556 4.5179 5.43756 4.70024 5.21785 4.78418C5.21711 4.78436 5.21553 4.78454 5.21394 4.78516C5.2098 4.7868 5.20272 4.79024 5.19344 4.79395C5.17436 4.80154 5.14408 4.81302 5.10554 4.8291C5.02811 4.86142 4.91435 4.91089 4.77449 4.97559C4.49285 5.10588 4.10917 5.29809 3.70418 5.54297C2.85892 6.05415 2.05898 6.71352 1.73933 7.42676C1.61541 7.70336 1.54763 8.1158 1.51863 8.51855H11.9815C11.9525 8.11574 11.8848 7.70335 11.7608 7.42676C11.4411 6.71351 10.6413 6.05415 9.79597 5.54297C9.39094 5.29808 9.00727 5.10586 8.72566 4.97559C8.58575 4.91087 8.472 4.8614 8.39461 4.8291C8.35602 4.813 8.32573 4.80153 8.30672 4.79395C8.29736 4.79021 8.29028 4.78674 8.28621 4.78516C8.28452 4.78455 8.28292 4.78442 8.2823 4.78418C8.0627 4.70018 7.89455 4.51784 7.82918 4.29199C7.76391 4.06601 7.80926 3.82204 7.95027 3.63379L9.05574 2.1582C9.00811 2.12308 8.95587 2.08623 8.89851 2.0498C8.48907 1.78989 7.80213 1.5 6.75008 1.5Z" fill="currentColor" />

</g>
</svg>
