<svg viewBox="0 0 16 16" fill="none" xmlns="http://www.w3.org/2000/svg">
<g transform="translate(0.7497, 2.3748)">
<path d="M13.75 0C14.1642 0 14.5 0.335786 14.5 0.75C14.5 2.56147 14.2427 3.87758 13.7578 4.85645C13.2604 5.86046 12.5533 6.4492 11.7852 6.85156C11.0764 7.22278 10.2235 7.46969 9.58496 7.70996C8.89821 7.96841 8.29473 8.26582 7.78027 8.78027C7.48738 9.07317 7.01262 9.07317 6.71973 8.78027C6.20527 8.26582 5.60179 7.96841 4.91504 7.70996C4.27654 7.46969 3.42358 7.22278 2.71484 6.85156C2.28148 6.62456 1.86775 6.33799 1.5 5.95117V11.25H0V0.75C0 0.335786 0.335786 0 0.75 0H13.75ZM1.51953 1.5C1.58088 2.76196 1.79663 3.60628 2.08594 4.19043C2.41667 4.85813 2.86591 5.23833 3.41016 5.52344C4.01376 5.83961 4.6298 5.99912 5.44434 6.30566C6.0316 6.52669 6.65793 6.80871 7.25 7.25879C7.84207 6.80871 8.4684 6.52669 9.05566 6.30566C9.8702 5.99912 10.4862 5.83961 11.0898 5.52344C11.6341 5.23833 12.0833 4.85813 12.4141 4.19043C12.7034 3.60628 12.9191 2.76196 12.9805 1.5H1.51953Z" fill="currentColor" />

</g>
</svg>
