<svg viewBox="0 0 16 16" fill="none" xmlns="http://www.w3.org/2000/svg">
<g transform="translate(1.0003, 1.5002)">
<path d="M2.25 11.25C2.25 11.3881 2.36193 11.5 2.5 11.5H11.5C11.6381 11.5 11.75 11.3881 11.75 11.25V10.25H13.25V11.25C13.25 12.2165 12.4665 13 11.5 13H2.5C1.5335 13 0.75 12.2165 0.75 11.25V10.25H2.25V11.25ZM14 8.5C13.2807 8.5 12.8729 8.63544 12.4277 8.79102C11.9415 8.96095 11.3855 9.16699 10.5 9.16699C9.6082 9.16699 9.07792 8.95928 8.63672 8.77539C8.24654 8.61277 7.9902 8.5 7.5 8.5C7.08447 8.5 6.79257 8.67076 6.24512 8.98438C5.71279 9.28933 5.01874 9.66699 4 9.66699C3.03651 9.66699 2.42955 9.25362 1.95117 8.99023C1.49651 8.73992 0.987224 8.5 0 8.5V7C1.31121 7 2.07007 7.3438 2.6748 7.67676C3.25587 7.99668 3.5001 8.16699 4 8.16699C4.60723 8.16699 5.01311 7.96098 5.49902 7.68262C5.96975 7.41295 6.61477 7 7.5 7C8.31046 7 8.80436 7.21994 9.21387 7.39062C9.57246 7.54008 9.8918 7.66699 10.5 7.66699C11.1144 7.66699 11.4661 7.53839 11.9336 7.375C12.442 7.1973 13.0345 7 14 7V8.5ZM7 0C10.6052 0 13.25 2.22286 13.25 5.25C13.25 5.66421 12.9142 6 12.5 6H1.5C1.08579 6 0.75 5.66421 0.75 5.25C0.75 2.22286 3.39485 3.77318e-06 7 0ZM7 1.5C4.36752 1.5 2.71783 2.84846 2.33594 4.5H11.6641C11.2822 2.84846 9.63248 1.5 7 1.5Z" fill="currentColor" />

</g>
</svg>
