<svg viewBox="0 0 16 16" fill="none" xmlns="http://www.w3.org/2000/svg">
<g transform="translate(0.7497, 0.7497)">
<path d="M7.90039 0C8.09911 0.000142667 8.29014 0.0792013 8.43066 0.219727L10.3799 2.16992C10.6725 2.46284 10.6727 2.93767 10.3799 3.23047C10.1347 3.47609 10.1344 3.87468 10.3799 4.12012C10.6253 4.36528 11.024 4.36518 11.2695 4.12012L11.3838 4.02637C11.5061 3.94474 11.6506 3.90043 11.7998 3.90039C11.9987 3.90043 12.1895 3.9795 12.3301 4.12012L14.2803 6.06934C14.4207 6.20987 14.4999 6.40097 14.5 6.59961C14.4999 6.79828 14.4207 6.98935 14.2803 7.12988L7.12988 14.2803C6.9893 14.4207 6.79831 14.5 6.59961 14.5C6.40097 14.4999 6.20987 14.4207 6.06934 14.2803L4.12012 12.3301C3.97956 12.1895 3.9005 11.9986 3.90039 11.7998C3.90044 11.601 3.97959 11.4101 4.12012 11.2695C4.36531 11.024 4.36532 10.6254 4.12012 10.3799C3.87463 10.1344 3.47608 10.1346 3.23047 10.3799C2.93766 10.6725 2.46279 10.6725 2.16992 10.3799L0.219727 8.43066C0.0792641 8.2902 0.000213008 8.09901 0 7.90039C-3.03766e-09 7.70163 0.0792798 7.51074 0.219727 7.37012L7.37012 0.219727L7.48438 0.125977C7.60662 0.0445613 7.75135 -2.27788e-09 7.90039 0ZM1.81055 7.89941L2.79688 8.88672C3.58104 8.53161 4.536 8.67467 5.18066 9.31934C5.82496 9.96387 5.96711 10.9182 5.6123 11.7021L6.59961 12.6885L12.6885 6.59961L11.7021 5.6123C10.9182 5.96709 9.96386 5.82496 9.31934 5.18066C8.67475 4.53608 8.53178 3.58099 8.88672 2.79688L7.89941 1.81055L1.81055 7.89941Z" fill="currentColor" />

</g>
</svg>
