<svg viewBox="0 0 16 16" fill="none" xmlns="http://www.w3.org/2000/svg">
<g transform="translate(0.6247, 2.2499)">
<path d="M8.91504 0.0789092C9.14745 -0.0371272 9.42354 -0.0244661 9.64453 0.112112C9.86541 0.24881 10 0.490028 10 0.749808V10.7498C9.99993 11.0095 9.86541 11.2509 9.64453 11.3875C9.42358 11.524 9.1474 11.5367 8.91504 11.4207L2.91504 8.42071C2.66101 8.29369 2.50008 8.03381 2.5 7.74981V3.74981L2.50781 3.64434C2.5421 3.40276 2.69286 3.19003 2.91504 3.07891L8.91504 0.0789092ZM14.2002 9.1502L13.2998 10.3494L11.2998 8.84942L12.2002 7.6502L14.2002 9.1502ZM4 4.2127V7.28594L8.5 9.53594V1.9627L4 4.2127ZM1.5 7.74981H0V3.74981H1.5V7.74981ZM14.75 6.49981H12.25V4.99981H14.75V6.49981ZM14.2002 2.34942L12.2002 3.84942L11.2998 2.6502L13.2998 1.1502L14.2002 2.34942Z" fill="currentColor" />

</g>
</svg>
