<svg viewBox="0 0 16 16" fill="none" xmlns="http://www.w3.org/2000/svg">
<g transform="translate(1.7510, 1.7505)">
<path d="M7.95428 0.417156C9.44394 -0.155693 10.903 -0.20605 11.8039 0.694499C12.7047 1.5953 12.654 3.05439 12.0812 4.54411C11.8722 5.08764 11.5477 5.67511 11.1808 6.24919C11.5478 6.82349 11.8721 7.41148 12.0812 7.95524C12.654 9.44497 12.7047 10.904 11.8039 11.8049C10.903 12.7054 9.44395 12.655 7.95428 12.0822C7.38644 11.8638 6.81299 11.5698 6.24725 11.2209C5.68559 11.5671 5.11359 11.8622 4.54412 12.0812C3.05427 12.6541 1.59539 12.7048 0.694513 11.8039C-0.206044 10.903 -0.155692 9.44394 0.417169 7.95426C0.635195 7.38748 0.926477 6.8139 1.27459 6.24919C0.92667 5.6847 0.635103 5.11164 0.417169 4.54509C-0.155695 3.0554 -0.206057 1.59638 0.694513 0.695476C1.59539 -0.205403 3.05427 -0.154795 4.54412 0.418132C5.11345 0.637105 5.68573 0.931392 6.24725 1.27751C6.81284 0.928684 7.38659 0.635497 7.95428 0.417156ZM10.7433 1.75505C10.501 1.51311 9.83611 1.30073 8.49236 1.81755C7.20046 2.31444 5.7816 3.31058 4.54608 4.54606C4.0055 5.08663 3.51325 5.66444 3.08611 6.24919C3.51336 6.83416 4.0053 7.41252 4.54608 7.95329C5.7816 9.18878 7.20046 10.1849 8.49236 10.6818C9.83614 11.1986 10.501 10.9862 10.7433 10.7443C10.9854 10.5023 11.1977 9.83744 10.6808 8.49333C10.5746 8.21709 10.4223 7.91137 10.2385 7.58903C9.75214 8.22977 9.26158 8.81567 8.86541 9.25309L7.75408 8.24528C8.21116 7.74059 8.81115 7.01785 9.36541 6.24919C8.81128 5.48076 8.21103 4.75862 7.75408 4.25407L8.86541 3.24626C9.26145 3.68353 9.75229 4.26885 10.2385 4.90934C10.4221 4.58729 10.5747 4.28205 10.6808 4.00602C11.1977 2.66192 10.9854 1.99709 10.7433 1.75505ZM2.22772 7.6027C2.06782 7.90344 1.92966 8.20096 1.81756 8.49235C1.30072 9.83612 1.51312 10.501 1.75506 10.7433C1.99713 10.9854 2.66169 11.1979 4.00604 10.6808C4.2966 10.5691 4.59446 10.4313 4.89666 10.2707C4.40582 9.88191 3.9311 9.45939 3.48553 9.01384C3.03987 8.56818 2.61655 8.09365 2.22772 7.6027ZM4.00604 1.81852C2.66169 1.30147 1.99713 1.51395 1.75506 1.75602C1.51311 1.99834 1.30072 2.66321 1.81756 4.007C1.92956 4.29815 2.068 4.59519 2.22772 4.89567C2.61641 4.40494 3.04006 3.93098 3.48553 3.48551C3.93124 3.03982 4.40565 2.61656 4.89666 2.2277C4.5946 2.06719 4.29647 1.93023 4.00604 1.81852Z" fill="currentColor" />

</g>
</svg>
