<svg viewBox="0 0 16 16" fill="none" xmlns="http://www.w3.org/2000/svg">
<g transform="translate(0.5816, 2.7530)">
<path d="M6.50684 3.00305C7.31486 2.92571 7.91884 3.45524 8.12695 4.05285C8.23407 4.36085 8.25218 4.72191 8.12402 5.06848C8.08069 5.18548 8.02057 5.29467 7.94922 5.39563L12.8438 5.09289C13.9338 5.02556 14.6449 5.82535 14.8018 6.63098C14.8814 7.0403 14.8324 7.49991 14.5947 7.90344C14.3507 8.31733 13.9419 8.61126 13.4199 8.73547L13.4209 8.73645L7.13281 10.296C6.60135 10.4278 6.05537 10.4942 5.50781 10.4943H0.524414V8.99426H5.50781C5.93364 8.99423 6.35817 8.94247 6.77148 8.83996L13.0605 7.28039L13.0703 7.27746C13.2333 7.2393 13.2836 7.17411 13.3027 7.14172C13.3293 7.09644 13.3488 7.0186 13.3291 6.91711C13.3091 6.8151 13.256 6.72504 13.1904 6.66809C13.1336 6.61886 13.0559 6.58266 12.9365 6.58996L4.71094 7.09973C4.35292 7.12189 4.02897 6.88721 3.93848 6.54016C3.84837 6.19303 4.01649 5.83007 4.33984 5.67493L6.70215 4.54211C6.70338 4.54136 6.70491 4.53976 6.70605 4.53918C6.70291 4.53191 6.70033 4.52343 6.69531 4.51672C6.68879 4.50806 6.68222 4.50227 6.67773 4.49914C6.67388 4.49649 6.67076 4.49571 6.66895 4.49524C6.6677 4.49492 6.66023 4.49356 6.64551 4.49524C6.63457 4.4965 6.62329 4.49739 6.6123 4.49817L3.47266 4.71789C3.1348 4.74158 2.82043 4.90198 2.60254 5.16125L1.14844 6.89368L0 5.92883L1.4541 4.19641C1.93351 3.62576 2.62466 3.27388 3.36816 3.2218L6.50684 3.00207V3.00305ZM10.9355 0.356566C11.3879 -0.118855 12.1219 -0.118855 12.5742 0.356566C13.0262 0.831973 13.0264 1.60292 12.5742 2.07825L10.7529 3.83215C10.6561 3.92547 10.5031 3.92547 10.4062 3.83215L8.58594 2.07825C8.13357 1.60282 8.13357 0.831987 8.58594 0.356566C9.03831 -0.118799 9.77129 -0.118837 10.2236 0.356566L10.5801 0.730589L10.9355 0.356566Z" fill="currentColor" />

</g>
</svg>
