<svg viewBox="0 0 16 16" fill="none" xmlns="http://www.w3.org/2000/svg">
<g transform="translate(0.7497, 0.8429)">
<path d="M7.25 2.53322H3.25C2.28352 2.53323 1.50003 3.31675 1.5 4.28322V8.78322C1.50025 9.74951 2.28366 10.5332 3.25 10.5332H5.83594C6.30001 10.5333 6.74509 10.7178 7.07324 11.0459L9.28027 13.2529L8.21973 14.3135L6.0127 12.1065C5.96585 12.0596 5.90219 12.0333 5.83594 12.0332H3.25C1.45523 12.0332 0.000252908 10.5779 0 8.78322V4.28322C3.02799e-05 2.48833 1.4551 1.03323 3.25 1.03322H7.25V2.53322ZM14.5 8.78322C14.4997 10.5779 13.0448 12.0332 11.25 12.0332H9.25V10.5332H11.25C12.2163 10.5332 12.9997 9.74951 13 8.78322V5.78322H14.5V8.78322ZM8.3457 4.1719C8.42108 3.9427 8.74591 3.9427 8.82129 4.1719L9.03906 4.83498C9.06392 4.91026 9.12292 4.96939 9.19824 4.99416L9.86133 5.21193C10.0905 5.28732 10.0905 5.61214 9.86133 5.68752L9.19824 5.90529C9.12289 5.9301 9.06388 5.98912 9.03906 6.06447L8.82129 6.72756C8.74591 6.95675 8.42108 6.95675 8.3457 6.72756L8.12793 6.06447C8.10316 5.98917 8.04401 5.93016 7.96875 5.90529L7.30566 5.68752C7.07647 5.61214 7.07647 5.28731 7.30566 5.21193L7.96875 4.99416C8.04398 4.96933 8.10311 4.91022 8.12793 4.83498L8.3457 4.1719ZM11.3457 0.171895C11.4211 -0.0572984 11.7459 -0.0572984 11.8213 0.171895L12.2861 1.58693C12.3109 1.66218 12.3701 1.72121 12.4453 1.74611L13.8613 2.21193C14.0904 2.28731 14.0903 2.61104 13.8613 2.68654L12.4453 3.15236C12.3701 3.17721 12.311 3.23637 12.2861 3.31154L11.8213 4.72756C11.7459 4.95673 11.4211 4.95668 11.3457 4.72756L10.8799 3.31154C10.855 3.23635 10.796 3.17712 10.7207 3.15236L9.30566 2.68654C9.07647 2.61117 9.07647 2.28731 9.30566 2.21193L10.7207 1.74611C10.7961 1.72131 10.8551 1.66236 10.8799 1.58693L11.3457 0.171895Z" fill="currentColor" />

</g>
</svg>
