<svg viewBox="0 0 16 16" fill="none" xmlns="http://www.w3.org/2000/svg">
<g transform="translate(0.2500, 0.8598)">
<path d="M8.75 0C10.2688 -1.27317e-08 11.5 1.23122 11.5 2.75V4H12.75C14.2688 4 15.5 5.23122 15.5 6.75V9.75C15.5 11.2688 14.2688 12.5 12.75 12.5H11.75V11H12.75C13.4404 11 14 10.4404 14 9.75V6.75C14 6.05964 13.4404 5.5 12.75 5.5H11.5V5.75C11.5 7.26878 10.2688 8.5 8.75 8.5H5.5V9.75C5.5 10.4404 6.05964 11 6.75 11H8.33594C8.80001 11 9.24509 11.1845 9.57324 11.5127L11.2803 13.2197L10.2197 14.2803L8.5127 12.5732C8.46585 12.5264 8.40219 12.5 8.33594 12.5H6.75C5.23122 12.5 4 11.2688 4 9.75V8.5H2.75C1.23122 8.5 3.35172e-07 7.26878 0 5.75V2.75C5.71393e-07 1.23122 1.23122 1.93123e-07 2.75 0H8.75ZM2.75 1.5C2.05964 1.5 1.5 2.05964 1.5 2.75V5.75C1.5 6.44036 2.05964 7 2.75 7H4V6.75C4 5.23122 5.23122 4 6.75 4H10V2.75C10 2.05964 9.44036 1.5 8.75 1.5H2.75ZM6.75 5.5C6.05964 5.5 5.5 6.05964 5.5 6.75V7H8.75C9.44036 7 10 6.44035 10 5.75V5.5H6.75Z" fill="currentColor" />

</g>
</svg>
