<svg viewBox="0 0 16 16" fill="none" xmlns="http://www.w3.org/2000/svg">
<g transform="translate(2.0003, 1.0003)">
<path d="M12 4.5H11.1758L10.2461 13.3281C10.2059 13.7098 9.88382 14 9.5 14H2.5C2.11618 14 1.79409 13.7098 1.75391 13.3281L0.824219 4.5H0V3H12V4.5ZM3.17578 12.5H8.82422L9.66699 4.5H2.33301L3.17578 12.5ZM6 0C6.79591 0 7.40993 0.199682 7.83496 0.412109C8.04626 0.517758 8.21002 0.626506 8.3252 0.712891C8.38268 0.756015 8.42883 0.793438 8.46289 0.823242C8.47996 0.838181 8.49361 0.851737 8.50488 0.862305C8.51041 0.867491 8.51539 0.871964 8.51953 0.875977C8.52161 0.877986 8.52367 0.88014 8.52539 0.881836C8.52623 0.882664 8.52756 0.883038 8.52832 0.883789L8.5293 0.885742H8.53027C8.53036 0.886178 8.52055 0.896442 8 1.41699C7.4882 1.92879 7.4701 1.94641 7.46973 1.94727L7.47168 1.94922L7.47363 1.9502L7.47949 1.95605C7.48035 1.95686 7.47837 1.95544 7.47461 1.95215C7.46693 1.94545 7.45016 1.93113 7.4248 1.91211C7.37332 1.87352 7.28669 1.81475 7.16504 1.75391C6.92342 1.6331 6.53709 1.5 6 1.5C5.46291 1.5 5.07658 1.6331 4.83496 1.75391C4.71331 1.81475 4.62668 1.87352 4.5752 1.91211C4.54984 1.93113 4.53307 1.94545 4.52539 1.95215C4.52163 1.95544 4.51965 1.95686 4.52051 1.95605L4.52637 1.9502L4.52832 1.94922L4.53027 1.94727C4.5299 1.94641 4.5118 1.92879 4 1.41699C3.47945 0.896443 3.46964 0.886178 3.46973 0.885742H3.4707L3.47168 0.883789C3.47244 0.883038 3.47377 0.882664 3.47461 0.881836C3.47633 0.88014 3.47839 0.877986 3.48047 0.875977C3.48461 0.871964 3.48959 0.867491 3.49512 0.862305C3.50639 0.851737 3.52004 0.838181 3.53711 0.823242C3.57117 0.793438 3.61732 0.756015 3.6748 0.712891C3.78998 0.626506 3.95374 0.517758 4.16504 0.412109C4.59007 0.199682 5.20409 9.97633e-09 6 0Z" fill="currentColor" />

</g>
</svg>
