<svg viewBox="0 0 16 16" fill="none" xmlns="http://www.w3.org/2000/svg">
<g transform="translate(1.0003, 1.8646)">
<path d="M6.41895 0.186188C6.76659 -0.0620627 7.23341 -0.0620625 7.58105 0.186188L13.5811 4.47134C13.8439 4.65905 14 4.96284 14 5.2858V11.2711C13.9999 11.8233 13.5522 12.2711 13 12.2711H1C0.447804 12.2711 0.000143769 11.8233 0 11.2711V5.2858C0 4.96284 0.156144 4.65906 0.418945 4.47134L6.41895 0.186188ZM1.69043 5.27115C1.45667 5.27122 1.35067 5.56386 1.53027 5.71353L6.83984 10.1374C6.93256 10.2146 7.06744 10.2146 7.16016 10.1374L12.4697 5.71353C12.6493 5.56386 12.5433 5.27121 12.3096 5.27115H1.69043Z" fill="currentColor" />

</g>
</svg>
