<svg viewBox="0 0 16 16" fill="none" xmlns="http://www.w3.org/2000/svg">
<g transform="translate(0.7497, 1.3595)">
<path d="M11.25 0C13.0449 1.94935e-07 14.5 1.45509 14.5 3.25V7.75C14.5 9.54492 13.0449 11 11.25 11H9.25V9.5H11.25C12.2165 9.5 13 8.71649 13 7.75V3.25C13 2.28352 12.2165 1.5 11.25 1.5H3.25C2.28352 1.5 1.50003 2.28353 1.5 3.25V7.75C1.5 8.7165 2.2835 9.5 3.25 9.5H5.83594C6.30001 9.50004 6.74509 9.68454 7.07324 10.0127L9.28027 12.2197L8.21973 13.2803L6.0127 11.0732C5.96585 11.0264 5.90219 11 5.83594 11H3.25C1.45508 11 3.96223e-06 9.54492 0 7.75V3.25C3.02799e-05 1.4551 1.4551 3.16017e-06 3.25 0H11.25ZM4.25 4.5C4.80226 4.5 5.24997 4.94774 5.25 5.5C5.25 6.05228 4.80228 6.5 4.25 6.5C3.69772 6.5 3.25 6.05228 3.25 5.5C3.25003 4.94774 3.69774 4.5 4.25 4.5ZM7.25 4.5C7.80226 4.5 8.24997 4.94774 8.25 5.5C8.25 6.05228 7.80228 6.5 7.25 6.5C6.69772 6.5 6.25 6.05228 6.25 5.5C6.25003 4.94774 6.69774 4.5 7.25 4.5ZM10.25 4.5C10.8023 4.5 11.25 4.94774 11.25 5.5C11.25 6.05228 10.8023 6.5 10.25 6.5C9.69772 6.5 9.25 6.05228 9.25 5.5C9.25003 4.94774 9.69774 4.5 10.25 4.5Z" fill="currentColor" />

</g>
</svg>
