<svg viewBox="0 0 16 16" fill="none" xmlns="http://www.w3.org/2000/svg">
<g transform="translate(1.2501, 1.2503)">
<path d="M3.65234 0.00641296C3.97716 -0.0362536 4.29259 0.137073 4.43066 0.434147L6.12598 4.08551C6.24228 4.33601 6.21152 4.63113 6.0459 4.85212L4.7627 6.56403C4.77812 6.59041 4.79299 6.61928 4.81055 6.64801C4.98969 6.9409 5.28 7.34986 5.71484 7.78473C6.14971 8.2196 6.55865 8.50985 6.85156 8.68903C6.88063 8.70681 6.90888 8.72325 6.93555 8.73883L8.64746 7.45368C8.86842 7.28805 9.16358 7.25736 9.41406 7.3736L13.0654 9.06891C13.3682 9.20947 13.5366 9.52997 13.4932 9.85016L13.4619 9.98688C13.2678 10.5691 12.9349 11.8816 11.8672 12.6832C10.919 13.3949 9.8063 13.4996 9.09766 13.4996C3.91053 13.4995 2.262e-07 9.52403 0 4.34919H0.000976562C0.000367807 3.8445 0.107161 3.24593 0.282227 2.69587C0.454973 2.15322 0.71992 1.57393 1.08594 1.15583C1.82187 0.315332 2.81925 0.116039 3.65234 0.00641296ZM3.31055 1.58356C2.81827 1.68879 2.47331 1.8469 2.21387 2.14313C2.03957 2.34223 1.8544 2.70336 1.71191 3.15094C1.57202 3.59049 1.49949 4.03283 1.5 4.34821V4.34919C1.5 8.70794 4.75125 11.9995 9.09766 11.9996C9.69334 11.9996 10.4079 11.9025 10.9668 11.483C11.404 11.1546 11.6357 10.6708 11.8242 10.147L9.18945 8.92341L7.46094 10.2193C7.25275 10.3754 6.97847 10.4122 6.73633 10.317H6.73535L6.73438 10.316L6.73242 10.315C6.73092 10.3144 6.72843 10.3138 6.72656 10.3131C6.72285 10.3115 6.71808 10.3094 6.71289 10.3072C6.70205 10.3027 6.68782 10.297 6.6709 10.2896C6.63637 10.2745 6.58878 10.2533 6.53125 10.2252C6.41613 10.1688 6.25774 10.0842 6.06836 9.96833C5.68959 9.73662 5.18439 9.37537 4.6543 8.84528C4.12422 8.31518 3.76293 7.80996 3.53125 7.43122C3.41544 7.24187 3.33073 7.08341 3.27441 6.96833C3.2463 6.91085 3.2251 6.86317 3.20996 6.82868C3.20257 6.81182 3.19687 6.79748 3.19238 6.78669C3.19024 6.78155 3.18801 6.77668 3.18652 6.77301C3.18581 6.77115 3.18514 6.76858 3.18457 6.76716L3.18359 6.7652L3.18262 6.76423L3.88086 6.48883L3.18262 6.76325C3.0875 6.52118 3.12422 6.24674 3.28027 6.03864L4.57715 4.3111L3.31055 1.58356Z" fill="currentColor" />

</g>
</svg>
