<svg viewBox="0 0 16 16" fill="none" xmlns="http://www.w3.org/2000/svg">
<g transform="translate(0.8450, 1.2501)">
<path d="M14.3105 8.74805L10.3105 13.248C10.1637 13.4132 9.95142 13.5057 9.73047 13.5C9.50957 13.4942 9.30212 13.3913 9.16406 13.2188L7.16406 10.7188L8.33594 9.78125L9.78027 11.5869L13.1895 7.75195L14.3105 8.74805ZM6.75 6.5C8.41931 6.5 9.89164 7.01567 11.0293 7.78906L10.6074 8.40918L10.1865 9.03027C9.28788 8.41929 8.10716 8 6.75 8C5.18031 8 3.84727 8.56058 2.91406 9.3291C2.2722 9.85775 1.85441 10.4528 1.64941 11H6.25V12.5H0.75C0.335786 12.5 0 12.1642 0 11.75C0 10.4543 0.789584 9.13554 1.96094 8.1709C3.15271 7.18951 4.8198 6.5 6.75 6.5ZM6.75 0C8.26878 0 9.5 1.23122 9.5 2.75C9.5 4.26878 8.26878 5.5 6.75 5.5C5.23122 5.49999 4 4.26878 4 2.75C4 1.23122 5.23122 7.98885e-06 6.75 0ZM6.75 1.5C6.05965 1.50001 5.5 2.05965 5.5 2.75C5.5 3.44035 6.05965 3.99999 6.75 4C7.44036 4 8 3.44036 8 2.75C8 2.05964 7.44036 1.5 6.75 1.5Z" fill="currentColor" />

</g>
</svg>
