<svg viewBox="0 0 16 16" fill="none" xmlns="http://www.w3.org/2000/svg">
<g transform="translate(0.2500, 2.7500)">
<path fill-rule="evenodd" clip-rule="evenodd" d="M5.25 1.5C5.66421 1.5 6 1.83579 6 2.25C6 2.66421 5.66421 3 5.25 3C4.83579 3 4.5 2.66421 4.5 2.25C4.5 1.83579 4.83579 1.5 5.25 1.5ZM5.25 4.5C6.49264 4.5 7.5 3.49264 7.5 2.25C7.5 1.00736 6.49264 0 5.25 0C4.00736 0 3 1.00736 3 2.25C3 3.49264 4.00736 4.5 5.25 4.5ZM5.25 5.5C6.12599 5.5 6.9836 5.68121 7.74338 6.01114C8.49294 5.68283 9.34843 5.5 10.25 5.5C12.9632 5.5 15.5 7.2383 15.5 9.75C15.5 10.1642 15.1642 10.5 14.75 10.5H9.75H5.75H0.75C0.335786 10.5 0 10.1642 0 9.75C0 7.2383 2.53684 5.5 5.25 5.5ZM5.25 7C7.08805 7 8.4195 7.92514 8.85059 9H5.75H1.64941C2.0805 7.92514 3.41195 7 5.25 7ZM12.5 2.25C12.5 3.35457 11.6046 4.25 10.5 4.25C9.39543 4.25 8.5 3.35457 8.5 2.25C8.5 1.14543 9.39543 0.25 10.5 0.25C11.6046 0.25 12.5 1.14543 12.5 2.25Z" fill="currentColor" />

</g>
</svg>
