<svg viewBox="0 0 16 16" fill="none" xmlns="http://www.w3.org/2000/svg">
<g transform="translate(0.8597, 1.6097)">
<path d="M14.2803 7.78027L12.3105 9.75L14.2803 11.7197L13.2197 12.7803L11.25 10.8105L9.28027 12.7803L8.21973 11.7197L10.1895 9.75L8.21973 7.78027L9.28027 6.71973L11.25 8.68945L13.2197 6.71973L14.2803 7.78027ZM6.75 8C5.18031 8 3.84727 8.56058 2.91406 9.3291C2.2722 9.85775 1.85441 10.4528 1.64941 11H6.75V12.5H0.75C0.335786 12.5 0 12.1642 0 11.75C0 10.4543 0.789584 9.13554 1.96094 8.1709C3.15271 7.18951 4.8198 6.5 6.75 6.5V8ZM6.75 0C8.26878 0 9.5 1.23122 9.5 2.75C9.5 4.26878 8.26878 5.5 6.75 5.5C5.23122 5.49999 4 4.26878 4 2.75C4 1.23122 5.23122 7.98885e-06 6.75 0ZM6.75 1.5C6.05965 1.50001 5.5 2.05965 5.5 2.75C5.5 3.44035 6.05965 3.99999 6.75 4C7.44036 4 8 3.44036 8 2.75C8 2.05964 7.44036 1.5 6.75 1.5Z" fill="currentColor" />

</g>
</svg>
