<svg viewBox="0 0 16 16" fill="none" xmlns="http://www.w3.org/2000/svg">
<g transform="translate(3.2108, 1.7137)">
<path d="M5.69531 0C6.67067 5.18752e-05 7.51409 0.28348 8.18945 0.851562C8.85418 1.41086 9.29778 2.19732 9.57812 3.1084L8.86133 3.3291L8.14453 3.54883C7.92091 2.82234 7.60451 2.31945 7.22363 1.99902C6.85334 1.68761 6.36544 1.50005 5.69531 1.5C4.95204 1.50009 4.2275 1.798 3.67188 2.49902C3.3541 2.90019 3.07633 3.45353 2.89355 4.19141H6.51855V5.69141H2.68262C2.67234 5.88169 2.66504 6.07979 2.66504 6.28613C2.66504 6.45883 2.66986 6.62574 2.67676 6.78711H5.97266V8.28711H2.86426C3.03996 9.0758 3.31724 9.65998 3.64258 10.0771C4.18263 10.7694 4.90193 11.0722 5.69531 11.0723C6.36569 11.0722 6.8535 10.8845 7.22363 10.5732C7.60448 10.2528 7.92087 9.74932 8.14453 9.02246L9.57812 9.46387C9.29778 10.3749 8.85421 11.1614 8.18945 11.7207C7.51414 12.2888 6.67089 12.5722 5.69531 12.5723C4.47772 12.5722 3.30593 12.0849 2.45898 10.999C1.91996 10.3077 1.53737 9.4041 1.33398 8.28711H0V6.78711H1.17578C1.16961 6.62353 1.16504 6.45657 1.16504 6.28613C1.16504 6.08295 1.17152 5.88476 1.18066 5.69141H0V4.19141H1.35742C1.57332 3.11292 1.96427 2.23971 2.49609 1.56836C3.34926 0.491454 4.51499 9.03358e-05 5.69531 0Z" fill="currentColor" />

</g>
</svg>
