<svg viewBox="0 0 16 16" fill="none" xmlns="http://www.w3.org/2000/svg">
<g transform="translate(3.5241, 1.0003)">
<path d="M5.50391 1.10156C7.16948 1.34319 8.36509 2.37347 8.94336 3.52148L8.27441 3.8584L7.60449 4.19629C7.25652 3.50547 6.5425 2.8446 5.50391 2.625V6.25C6.18596 6.40335 6.91305 6.6053 7.50879 6.9541C7.9098 7.18894 8.27995 7.50553 8.54688 7.94238C8.81587 8.38267 8.95208 8.89971 8.95215 9.49023C8.95215 10.4986 8.51694 11.396 7.75 12.0264C7.15536 12.5151 6.38544 12.8244 5.50391 12.9355V14H4.00391V12.9404C2.02623 12.728 0.720839 11.6748 0 10.2842L0.666016 9.93848L1.33203 9.59375C1.80371 10.5036 2.62577 11.2357 4.00391 11.4297V7.46484C3.33851 7.31871 2.63101 7.13297 2.05176 6.81738C1.6536 6.60041 1.27802 6.30418 1.00488 5.88574C0.727966 5.4614 0.5879 4.95954 0.587891 4.38672C0.587891 3.43862 0.99005 2.57595 1.74609 1.96582C2.33348 1.49191 3.10229 1.19417 4.00391 1.08984V0H5.50391V1.10156ZM5.50391 11.417C6.05705 11.3199 6.4888 11.1203 6.79688 10.8672C7.22348 10.5166 7.45215 10.0418 7.45215 9.49023C7.45209 9.13726 7.37363 8.8984 7.26758 8.72461C7.15928 8.54737 6.99305 8.39085 6.75098 8.24902C6.41804 8.0541 5.9976 7.91505 5.50391 7.79199V11.417ZM4.00391 2.60449C3.41776 2.69651 2.985 2.89367 2.68848 3.13281C2.28916 3.45501 2.08789 3.88691 2.08789 4.38672C2.0879 4.70575 2.16242 4.91461 2.26074 5.06543C2.36297 5.22206 2.52429 5.36635 2.76953 5.5C3.10132 5.68076 3.51693 5.80506 4.00391 5.92188V2.60449Z" fill="currentColor" />

</g>
</svg>
