<svg viewBox="0 0 16 16" fill="none" xmlns="http://www.w3.org/2000/svg">
<g transform="translate(2.9239, 1.6553)">
<path d="M5.74807 0C6.88119 6.24458e-06 7.85714 0.394375 8.5469 1.12793C9.23135 1.85584 9.5722 2.85178 9.57229 3.9502H8.07229C8.0722 3.15903 7.83001 2.55502 7.45413 2.15527C7.0834 1.76106 6.5222 1.50001 5.74807 1.5C4.96301 1.5 4.37397 1.75674 3.98538 2.13574C3.59753 2.51425 3.35647 3.06598 3.35647 3.75781C3.35658 4.46664 3.60592 5.05984 3.94729 5.7373H7.22659V7.2373H4.66507C4.85448 7.72733 4.9951 8.27014 4.99514 8.87305C4.99514 9.14921 4.96341 9.47595 4.89749 9.82031C4.95209 9.86694 5.00638 9.91171 5.05862 9.95605C5.81773 10.6004 6.44301 11.0557 7.27737 11.0557C7.75379 11.0557 8.04995 10.8911 8.25003 10.6348C8.47191 10.3501 8.64108 9.86407 8.65237 9.12305L9.40237 9.13379L10.1524 9.14551C10.1383 10.0757 9.92562 10.9246 9.43167 11.5576C8.91558 12.2189 8.16162 12.5557 7.27737 12.5557C6.00303 12.5557 5.06921 11.9103 4.35452 11.3232C3.93668 12.033 3.226 12.6895 2.13577 12.6895C1.57702 12.6894 1.03663 12.5079 0.62991 12.1279C0.217093 11.7421 -0.00283951 11.2021 2.76812e-05 10.6006C0.00299253 9.99082 0.239756 9.44554 0.672879 9.05957C1.09802 8.68074 1.65875 8.50102 2.24514 8.50098C2.71319 8.50098 3.12672 8.62733 3.49124 8.80762C3.47734 8.27008 3.29435 7.79211 3.02347 7.2373H1.09378V5.7373H2.28909C2.04811 5.16343 1.85655 4.5099 1.85647 3.75781C1.85647 2.70256 2.23277 1.74984 2.9385 1.06152C3.64375 0.373692 4.62581 0 5.74807 0ZM2.24514 10.001C1.95822 10.001 1.77395 10.0871 1.67093 10.1787C1.57592 10.2634 1.50111 10.3947 1.50003 10.6074C1.49895 10.8284 1.57291 10.9562 1.65432 11.0322C1.74201 11.1141 1.89683 11.1894 2.13577 11.1895C2.54341 11.1895 2.86228 10.9551 3.11917 10.4609C3.13643 10.4277 3.15105 10.3927 3.16702 10.3584C3.13028 10.3332 3.09453 10.3066 3.05764 10.2832C2.75142 10.0889 2.49699 10.001 2.24514 10.001Z" fill="currentColor" />

</g>
</svg>
