<svg viewBox="0 0 16 16" fill="none" xmlns="http://www.w3.org/2000/svg">
<g transform="translate(2.0946, 2.3444)">
<path d="M1.42676 7.85659C2.12965 7.12931 3.2697 7.1294 3.97266 7.85659C4.67558 8.5839 4.67554 9.76304 3.97266 10.4904C3.05986 11.4348 0.702943 11.5771 0 10.8498C1.07986 10.291 0.724021 8.58399 1.42676 7.85659ZM10.9199 0.128071C11.1176 -0.0497154 11.4204 -0.0413552 11.6084 0.146626L11.6641 0.203266C11.8521 0.391262 11.8604 0.693089 11.6826 0.890766L5.80664 7.41909C5.61504 7.63195 5.2846 7.64105 5.08203 7.43862L4.37305 6.72963C4.17051 6.52709 4.17874 6.19569 4.3916 6.00405L10.9199 0.128071Z" fill="currentColor" />

</g>
</svg>
