<svg viewBox="0 0 16 16" fill="none" xmlns="http://www.w3.org/2000/svg">
<g transform="translate(1.2501, 1.2501)">
<path d="M5.75 2.50195C3.49181 2.50195 1.50031 4.70901 1.5 7.24414C1.5 9.87027 3.62883 11.9998 6.25488 12C8.79087 12 11 10.0073 10.998 7.75H11.748L12.498 7.74902C12.5008 10.9917 9.45416 13.5 6.25488 13.5C2.80041 13.4998 0 10.6987 0 7.24414C0.000311956 4.04438 2.50857 1.00195 5.75 1.00195V2.50195ZM7.75 0C10.9256 0 13.5 2.57436 13.5 5.75C13.5 6.16421 13.1642 6.5 12.75 6.5H7.75C7.33579 6.5 7 6.16421 7 5.75V0.75C7 0.335786 7.33579 0 7.75 0ZM8.5 5H11.9326C11.6217 3.25409 10.2459 1.8773 8.5 1.56641V5Z" fill="currentColor" />

</g>
</svg>
