<svg viewBox="0 0 16 16" fill="none" xmlns="http://www.w3.org/2000/svg">
<g transform="translate(1.7500, 1.7500)">
<path d="M10.75 0C11.7165 0 12.5 0.783502 12.5 1.75V10.75C12.5 11.7165 11.7165 12.5 10.75 12.5H1.75C0.783501 12.5 1.61064e-08 11.7165 0 10.75V1.75C0 0.783501 0.783502 1.61064e-08 1.75 0H10.75ZM1.75 1.5C1.61193 1.5 1.5 1.61193 1.5 1.75V10.75C1.5 10.8881 1.61193 11 1.75 11H10.75C10.8881 11 11 10.8881 11 10.75V1.75C11 1.61193 10.8881 1.5 10.75 1.5H1.75ZM8.5 7.25C9.19036 7.25 9.75 7.80964 9.75 8.5C9.75 9.19036 9.19036 9.75 8.5 9.75C7.80964 9.75 7.25 9.19036 7.25 8.5C7.25 7.80964 7.80964 7.25 8.5 7.25Z" fill="currentColor" />

</g>
</svg>
