<svg viewBox="0 0 16 16" fill="none" xmlns="http://www.w3.org/2000/svg">
<g transform="translate(0.7497, 1.9997)">
<path d="M11.75 0C12.1642 0 12.5 0.335786 12.5 0.75V3.28613L14.085 4.0791C14.339 4.20615 14.5 4.46592 14.5 4.75V9.25C14.5 9.66421 14.1642 10 13.75 10H12.4854C12.3609 11.1249 11.4081 12 10.25 12C9.0919 12 8.13906 11.1249 8.01465 10H4.48535C4.36094 11.1249 3.4081 12 2.25 12C1.00736 12 4.0266e-09 10.9926 0 9.75V0.75C0 0.335786 0.335786 0 0.75 0H11.75ZM1.5 4H7.75V5.5H1.5V9.75C1.5 10.1642 1.83579 10.5 2.25 10.5C2.66421 10.5 3 10.1642 3 9.75V9.25C3 8.83579 3.33579 8.5 3.75 8.5H8.75C9.16421 8.5 9.5 8.83579 9.5 9.25V9.75C9.5 10.1642 9.83579 10.5 10.25 10.5C10.6642 10.5 11 10.1642 11 9.75V9.25C11 8.83579 11.3358 8.5 11.75 8.5H13V5.21289L11.415 4.4209C11.161 4.29385 11 4.03408 11 3.75V1.5H1.5V4Z" fill="currentColor" />

</g>
</svg>
