<svg viewBox="0 0 16 16" fill="none" xmlns="http://www.w3.org/2000/svg">
<g transform="translate(0.7497, 1.7497)">
<path d="M1.5 11H4.25V12.5H0.75C0.335787 12.5 2.21021e-07 12.1642 0 11.75V8.25H1.5V11ZM14.5 11.75C14.5 12.1642 14.1642 12.5 13.75 12.5H10.25V11H13V8.25H14.5V11.75ZM4.25 8.75H2.75V3.75H4.25V8.75ZM6.5 8.75H5.5V3.75H6.5V8.75ZM9.5 8.75H8V3.75H9.5V8.75ZM11.75 8.75H10.75V3.75H11.75V8.75ZM4.25 1.5H1.5V4.25H0V0.75C1.28464e-07 0.335787 0.335787 1.81058e-08 0.75 0H4.25V1.5ZM13.75 0C14.1642 0 14.5 0.335786 14.5 0.75V4.25H13V1.5H10.25V0H13.75Z" fill="currentColor" />

</g>
</svg>
