<svg viewBox="0 0 16 16" fill="none" xmlns="http://www.w3.org/2000/svg">
<g transform="translate(0.7497, 1.4997)">
<path d="M10.5 0C12.7091 6.44266e-07 14.5 1.79086 14.5 4V9.75C14.5 11.5449 13.0449 13 11.25 13H3.25C1.45507 13 4.83192e-08 11.5449 0 9.75V5.25C4.83199e-08 3.45507 1.45507 2 3.25 2H4.75V3.5H3.25C2.2835 3.5 1.5 4.2835 1.5 5.25V9.75C1.5 10.7165 2.2835 11.5 3.25 11.5H11.25C12.2165 11.5 13 10.7165 13 9.75V4C13 2.61929 11.8807 1.5 10.5 1.5C9.11929 1.5 8 2.61929 8 4V7.43945L9.71973 5.71973L10.7803 6.78027L7.78027 9.78027C7.63962 9.92093 7.44891 10 7.25 10C7.05109 10 6.86038 9.92092 6.71973 9.78027L3.71973 6.78027L4.78027 5.71973L6.5 7.43945V4C6.5 1.79086 8.29086 0 10.5 0Z" fill="currentColor" />

</g>
</svg>
