<svg viewBox="0 0 16 16" fill="none" xmlns="http://www.w3.org/2000/svg">
<g transform="translate(0.7497, 1.7497)">
<path d="M1.5 11H4.25V12.5H0.75C0.335787 12.5 2.21021e-07 12.1642 0 11.75V8.25H1.5V11ZM14.5 11.75C14.5 12.1642 14.1642 12.5 13.75 12.5H10.25V11H13V8.25H14.5V11.75ZM7.05664 3.52539C8.29766 3.19445 9.78847 2.7795 11.5547 3.56445C11.8255 3.68482 11.9999 3.95367 12 4.25V8.25C12 8.50384 11.871 8.74058 11.6582 8.87891C11.4454 9.01704 11.1772 9.03858 10.9453 8.93555C9.71162 8.38726 8.70224 8.63891 7.44336 8.97461C6.20234 9.30555 4.71151 9.72051 2.94531 8.93555C2.67453 8.81518 2.50005 8.54633 2.5 8.25V4.25C2.50004 3.99619 2.62899 3.75942 2.8418 3.62109C3.05459 3.483 3.32285 3.46143 3.55469 3.56445C4.7884 4.11276 5.79774 3.8611 7.05664 3.52539ZM10.5 4.76758C9.46 4.44969 8.54753 4.68017 7.44336 4.97461C6.45736 5.23754 5.31413 5.55136 4 5.27637V7.73145C5.04014 8.04949 5.95234 7.81987 7.05664 7.52539C8.04259 7.26247 9.18595 6.94775 10.5 7.22266V4.76758ZM4.25 1.5H1.5V4.25H0V0.75C1.28464e-07 0.335787 0.335787 4.65577e-08 0.75 0H4.25V1.5ZM13.75 0C14.1642 0 14.5 0.335787 14.5 0.75V4.25H13V1.5H10.25V0H13.75Z" fill="currentColor" />

</g>
</svg>
