<svg viewBox="0 0 16 16" fill="none" xmlns="http://www.w3.org/2000/svg">
<g transform="translate(0.7497, 2.5005)">
<path d="M7.09863 0.652576C9.21529 0.125595 11.6479 -0.519328 14.082 0.682849C14.3377 0.809128 14.4997 1.06961 14.5 1.35472V9.60961C14.5 9.86884 14.3657 10.1104 14.1455 10.2473C13.9254 10.3839 13.6503 10.3972 13.418 10.2825C11.5537 9.36176 9.67494 9.81132 7.46094 10.3625C5.33426 10.892 2.88577 11.5171 0.414062 10.2805C0.160337 10.1533 0 9.89345 0 9.60961V1.35472C0.000243626 1.0951 0.134621 0.85357 0.355469 0.717029C0.576568 0.580476 0.853511 0.568569 1.08594 0.684802C2.99145 1.63789 4.89451 1.20133 7.09863 0.652576ZM13 1.84496C11.2712 1.17557 9.50981 1.59756 7.46094 2.10765C5.64624 2.55945 3.59768 3.08035 1.5 2.45531V9.1223C3.26895 9.82645 5.05374 9.41657 7.09863 8.90746C8.90139 8.45863 10.9331 7.92469 13 8.51879V1.84496ZM7.25 3.49926C8.18743 3.49926 8.49995 4.39481 8.5 5.49926C8.5 6.60383 8.1875 7.49926 7.25 7.49926C6.3125 7.49926 6 6.60383 6 5.49926C6.00005 4.39481 6.31257 3.49926 7.25 3.49926Z" fill="currentColor" />

</g>
</svg>
