<svg viewBox="0 0 16 16" fill="none" xmlns="http://www.w3.org/2000/svg">
<g transform="translate(2.7501, 1.2501)">
<path d="M8.75 0C9.7165 0 10.5 0.783502 10.5 1.75V11.75C10.5 12.7165 9.7165 13.5 8.75 13.5H1.75C0.783502 13.5 1.61064e-08 12.7165 0 11.75V1.75C0 0.783501 0.783502 4.0266e-09 1.75 0H8.75ZM1.75 1.5C1.61193 1.5 1.5 1.61193 1.5 1.75V11.75C1.5 11.8881 1.61193 12 1.75 12H8.75C8.88807 12 9 11.8881 9 11.75V1.75C9 1.61193 8.88807 1.5 8.75 1.5H1.75ZM7.25 4H3.25V2.5H7.25V4Z" fill="currentColor" />

</g>
</svg>
