<svg viewBox="0 0 16 16" fill="none" xmlns="http://www.w3.org/2000/svg">
<g transform="translate(0.5002, 2.5001)">
<path d="M15 11H0V9.5H15V11ZM11.5 0C12.4665 1.28853e-07 13.25 0.783502 13.25 1.75V6.75C13.25 7.7165 12.4665 8.5 11.5 8.5H3.5C2.5335 8.5 1.75 7.7165 1.75 6.75V1.75C1.75 0.783502 2.5335 8.05319e-09 3.5 0H11.5ZM3.5 1.5C3.36193 1.5 3.25 1.61193 3.25 1.75V6.75C3.25 6.88807 3.36193 7 3.5 7H11.5C11.6381 7 11.75 6.88807 11.75 6.75V1.75C11.75 1.61193 11.6381 1.5 11.5 1.5H3.5Z" fill="currentColor" />

</g>
</svg>
