<svg viewBox="0 0 16 16" fill="none" xmlns="http://www.w3.org/2000/svg">
<g transform="translate(1.2501, 2.0001)">
<path d="M9.75 12H3.75V10.5H9.75V12ZM11.75 0C12.7165 1.61067e-08 13.5 0.783502 13.5 1.75V7.75C13.5 8.7165 12.7165 9.5 11.75 9.5H1.75C0.783502 9.5 0 8.7165 0 7.75V1.75C0 0.783502 0.783501 0 1.75 0H11.75ZM1.75 1.5C1.61193 1.5 1.5 1.61193 1.5 1.75V7.75C1.5 7.88807 1.61193 8 1.75 8H11.75C11.8881 8 12 7.88807 12 7.75V1.75C12 1.61193 11.8881 1.5 11.75 1.5H1.75Z" fill="currentColor" />

</g>
</svg>
