<svg viewBox="0 0 16 16" fill="none" xmlns="http://www.w3.org/2000/svg">
<g transform="translate(2.0002, 0.5002)">
<path d="M4.75 3H1.75C1.61197 3 1.50007 3.11199 1.5 3.25V13.25C1.50001 13.3881 1.61193 13.5 1.75 13.5H8.75C8.88804 13.5 8.99996 13.388 9 13.25V7.25H10.5V13.25C10.5 14.2165 9.71647 15 8.75 15H1.75C0.783506 15 5.13792e-06 14.2165 0 13.25V3.25C6.59716e-05 2.28358 0.783563 1.50003 1.75 1.5H4.75V3ZM6.25 3C7.76875 3.00004 9 4.23124 9 5.75H7.5C7.5 5.05967 6.94032 4.50004 6.25 4.5V3ZM6.25 0C9.4256 4.12319e-05 12 2.57439 12 5.75H10.5C10.5 3.40282 8.59718 1.50004 6.25 1.5V0Z" fill="currentColor" />

</g>
</svg>
