<svg viewBox="0 0 16 16" fill="none" xmlns="http://www.w3.org/2000/svg">
<g transform="translate(0.2500, 0.8794)">
<path d="M9.75 14.2412H6.08301V12.7412H9.75V14.2412ZM11.083 0.491211L11.6504 0.982422L8.39258 4.74121H9.03516L13.6875 1.85352L14.4785 3.12891L11.8809 4.74121H14.75C15.1642 4.74121 15.5 5.077 15.5 5.49121C15.4998 9.32331 11.9175 12.2412 7.75 12.2412C3.58251 12.2412 0.000152152 9.32331 0 5.49121C0 5.077 0.335786 4.74121 0.75 4.74121H6.4082L10.5166 0L11.083 0.491211ZM1.56543 6.24121C1.99477 8.71103 4.50877 10.7412 7.75 10.7412C10.9912 10.7412 13.5052 8.71103 13.9346 6.24121H1.56543Z" fill="currentColor" />

</g>
</svg>
