<svg viewBox="0 0 16 16" fill="none" xmlns="http://www.w3.org/2000/svg">
<g transform="translate(0.9996, 1.0001)">
<path d="M6.42751 0.638075C6.94268 0.122902 7.68184 -0.100512 8.39626 0.0423716L12.3181 0.826551C12.7494 0.9128 13.0863 1.24983 13.1726 1.68104L13.9578 5.60292C14.1007 6.31734 13.8763 7.0565 13.3611 7.57167L7.2527 13.6801C6.82722 14.1055 6.13717 14.1055 5.71169 13.6801L0.319111 8.28749C-0.10637 7.86201 -0.10637 7.17195 0.319111 6.74647L6.42751 0.638075ZM9.70681 4.29237C9.31632 3.90201 8.68324 3.90203 8.29274 4.29237C7.90226 4.68286 7.90234 5.3159 8.29274 5.70643C8.68327 6.09696 9.31628 6.09696 9.70681 5.70643C10.0972 5.3159 10.0973 4.68285 9.70681 4.29237Z" fill="currentColor" />

</g>
</svg>
