<svg viewBox="0 0 16 16" fill="none" xmlns="http://www.w3.org/2000/svg">
<g transform="translate(1.7500, 1.7500)">
<path d="M10.25 8C11.4926 8 12.5 9.00736 12.5 10.25C12.5 11.4926 11.4926 12.5 10.25 12.5C9.00736 12.5 8 11.4926 8 10.25C8 9.00736 9.00736 8 10.25 8ZM12.2803 1.28027L1.28027 12.2803L0.219727 11.2197L11.2197 0.219727L12.2803 1.28027ZM10.25 9.5C9.83579 9.5 9.5 9.83579 9.5 10.25C9.5 10.6642 9.83579 11 10.25 11C10.6642 11 11 10.6642 11 10.25C11 9.83579 10.6642 9.5 10.25 9.5ZM2.25 0C3.49264 2.37488e-07 4.5 1.00736 4.5 2.25C4.5 3.49264 3.49264 4.5 2.25 4.5C1.00736 4.5 6.85434e-08 3.49264 0 2.25C1.08635e-07 1.00736 1.00736 1.97396e-07 2.25 0ZM2.25 1.5C1.83579 1.5 1.5 1.83579 1.5 2.25C1.5 2.66421 1.83579 3 2.25 3C2.66421 3 3 2.66421 3 2.25C3 1.83579 2.66421 1.5 2.25 1.5Z" fill="currentColor" />

</g>
</svg>
