<svg viewBox="0 0 16 16" fill="none" xmlns="http://www.w3.org/2000/svg">
<g transform="translate(0.2499, 0.2499)">
<path d="M7.78809 0.159445C7.95541 0.0286223 8.172 -0.0263913 8.38379 0.0119839L13.8838 1.01198C14.1911 1.06786 14.4324 1.30919 14.4883 1.61648L15.4883 7.11648C15.5321 7.35846 15.4542 7.60662 15.2803 7.78054L7.78027 15.2805C7.48739 15.5734 7.01261 15.5734 6.71973 15.2805L0.219727 8.78054C0.0791252 8.63991 2.05778e-05 8.44912 0 8.25027C2.79717e-05 8.05141 0.0791235 7.86062 0.219727 7.71999L7.71973 0.219992L7.78809 0.159445ZM1.81055 8.25027L7.25 13.6897L13.9414 6.99734L13.1045 2.3948L8.50195 1.55788L1.81055 8.25027ZM9.48242 4.25027C9.97057 3.76227 10.7619 3.76221 11.25 4.25027C11.7381 4.73837 11.738 5.52968 11.25 6.01784C10.7618 6.506 9.97058 6.506 9.48242 6.01784C8.99432 5.52968 8.99428 4.7384 9.48242 4.25027Z" fill="currentColor" />

</g>
</svg>
