<svg viewBox="0 0 16 16" fill="none" xmlns="http://www.w3.org/2000/svg">
<g transform="translate(1.4852, 0.8597)">
<path d="M6 12.7803H7V14.2803H0V12.7803H1V11.7803H6V12.7803ZM12.0762 4.5957L11.5459 5.12695L11.0156 5.65723L10.4844 5.12598L9.05957 6.55078L13.0293 10.498L11.9707 11.5625L7.99805 7.6123L6.5957 9.01465L7.12695 9.5459L6.59668 10.0762L6.06543 10.6064L1.46973 6.01074L2 5.48047L2.53027 4.94922L3.06055 5.47949L6.94922 1.59082L6.41895 1.06055L6.9502 0.530273L7.48047 0L12.0762 4.5957ZM4.12109 6.54102L5.53516 7.95508L9.4248 4.06543L8.01074 2.65137L4.12109 6.54102Z" fill="currentColor" />

</g>
</svg>
