<svg viewBox="0 0 16 16" fill="none" xmlns="http://www.w3.org/2000/svg">
<g transform="translate(1.2882, 0.7497)">
<path d="M10.6734 7C12.1919 7.00024 13.4234 8.23136 13.4234 9.75C13.4234 10.4794 13.1368 11.1406 12.6734 11.6328V14.25C12.6734 14.456 12.4378 14.5736 12.273 14.4502L10.8228 13.3623C10.7339 13.2958 10.6118 13.2958 10.523 13.3623L9.07278 14.4502C8.90798 14.5736 8.67337 14.4559 8.67337 14.25V11.6338C8.20937 11.1415 7.92337 10.4799 7.92337 9.75C7.92337 8.23122 9.15458 7 10.6734 7ZM11.2593 0.00488281C11.4574 0.0278378 11.6399 0.129033 11.7642 0.288086C11.9062 0.470033 11.9568 0.707684 11.9009 0.931641C11.4883 2.5822 11.4086 4.10767 11.4048 5.25293L9.90481 5.24707C9.90815 4.24921 9.96841 2.94535 10.2437 1.5H1.74661C1.32033 3.26296 1.52396 4.80851 1.7886 6.50977C2.04202 8.13888 2.35043 9.91298 2.06497 12H6.67337V13.5H1.17337C0.946874 13.5 0.731773 13.3978 0.589381 13.2217C0.44702 13.0456 0.392516 12.8142 0.439967 12.5928C0.90674 10.4142 0.601134 8.63008 0.307154 6.74023C0.0145875 4.85947 -0.265064 2.87454 0.456568 0.529297L0.50149 0.416016C0.626582 0.164306 0.885412 0 1.17337 0H11.1734L11.2593 0.00488281ZM10.6734 8.5C9.98301 8.5 9.42337 9.05964 9.42337 9.75C9.42337 10.4404 9.98301 11 10.6734 11C11.3635 10.9998 11.9234 10.4402 11.9234 9.75C11.9234 9.05979 11.3635 8.50024 10.6734 8.5Z" fill="currentColor" />

</g>
</svg>
