<svg viewBox="0 0 16 16" fill="none" xmlns="http://www.w3.org/2000/svg">
<g transform="translate(1.0386, 1.2503)">
<path d="M11.1734 0C11.4041 0.000133432 11.6221 0.10627 11.7642 0.288086C11.9062 0.470033 11.9568 0.707684 11.9009 0.931641C11.6675 1.8651 11.4732 2.60709 11.4732 3.25H9.97317C9.97317 2.68465 10.0846 2.08542 10.2193 1.5H1.74661C1.32033 3.26296 1.52396 4.80851 1.7886 6.50977C2.04202 8.13888 2.35043 9.91298 2.06497 12H5.67337V13.5H1.17337C0.946874 13.5 0.731773 13.3978 0.589381 13.2217C0.44702 13.0456 0.392516 12.8142 0.439967 12.5928C0.90674 10.4142 0.601134 8.63008 0.307154 6.74023C0.0145875 4.85947 -0.265064 2.87454 0.456568 0.529297L0.50149 0.416016C0.626582 0.164306 0.885412 0 1.17337 0H11.1734ZM12.814 4.0918C13.0642 3.95536 13.3706 3.97211 13.604 4.13574C13.8373 4.29957 13.9578 4.58247 13.9146 4.86426C13.6923 6.31132 13.3206 8.07165 12.5376 9.50098C11.8237 10.8042 10.7248 11.8925 9.06692 12.1631C9.0587 12.2137 9.04892 12.2667 9.04055 12.3213C8.97796 12.7296 8.92337 13.1866 8.92337 13.5H7.42337C7.42337 13.0635 7.49444 12.5092 7.55813 12.0938C7.59093 11.8798 7.62342 11.6905 7.64797 11.5547C7.66024 11.4868 7.67095 11.4319 7.67825 11.3936C7.68189 11.3744 7.68501 11.3591 7.68704 11.3486C7.68798 11.3438 7.68844 11.3397 7.68899 11.3369C7.68928 11.3355 7.6898 11.3338 7.68997 11.333V11.3311L7.69094 11.3281C8.29939 8.33992 10.1805 5.52943 12.814 4.0918ZM12.0767 6.44922C10.9003 7.50839 9.98507 8.93801 9.4634 10.5039C10.2132 10.197 10.7771 9.59271 11.2222 8.78027C11.5996 8.09136 11.8711 7.28268 12.0767 6.44922Z" fill="currentColor" />

</g>
</svg>
