<svg viewBox="0 0 16 16" fill="none" xmlns="http://www.w3.org/2000/svg">
<g transform="translate(1.9101, 1.2501)">
<path d="M11.1734 0C11.4112 0.000139431 11.6346 0.113352 11.7759 0.304688C11.9173 0.496137 11.9602 0.743227 11.8902 0.970703C11.2784 2.95879 11.4978 4.64054 11.7886 6.50977C12.0779 8.36986 12.4399 10.4192 11.9068 12.9072C11.8327 13.2529 11.5268 13.4998 11.1734 13.5H1.17337C0.946875 13.5 0.731773 13.3978 0.589381 13.2217C0.44702 13.0456 0.392516 12.8142 0.439967 12.5928C0.906739 10.4142 0.601133 8.63008 0.307154 6.74023C0.0145875 4.85947 -0.265064 2.87454 0.456568 0.529297L0.50149 0.416016C0.626583 0.164307 0.885413 0 1.17337 0H11.1734ZM1.74661 1.5C1.32033 3.26296 1.52396 4.80851 1.7886 6.50977C2.04202 8.13888 2.35043 9.91298 2.06497 12H10.5474C10.848 10.0843 10.5741 8.456 10.3072 6.74023C10.0558 5.12432 9.81595 3.43213 10.2105 1.5H1.74661ZM8.67337 6H3.17337V4.5H8.67337V6Z" fill="currentColor" />

</g>
</svg>
