<svg viewBox="0 0 16 16" fill="none" xmlns="http://www.w3.org/2000/svg">
<g transform="translate(0.2500, 2.2504)">
<path d="M7.59863 0.704709C9.85876 0.132271 12.4189 -0.554564 15.0762 0.729123C15.3353 0.854304 15.5 1.11716 15.5 1.4049V10.0582C15.5 10.3163 15.3671 10.5568 15.1484 10.694C14.9299 10.831 14.6561 10.8461 14.4238 10.734C12.3301 9.72248 10.3092 10.2189 7.9668 10.8121C5.69664 11.3871 3.11867 12.0527 0.419922 10.7321C0.162909 10.6061 2.35387e-05 10.3445 0 10.0582V1.4049C-2.22519e-08 1.14621 0.133128 0.905207 0.352539 0.768185C0.572097 0.63119 0.847626 0.617324 1.08008 0.731076C3.21932 1.77776 5.26629 1.29543 7.59863 0.704709ZM14 1.89514C12.0553 1.13613 10.1509 1.60564 7.9668 2.15881C6.00122 2.65664 3.80558 3.22089 1.5 2.50647V9.57092C3.48917 10.3673 5.41922 9.91002 7.59863 9.35803C9.55202 8.86328 11.7294 8.28404 14 8.96447V1.89514ZM11.5 7.24963H10V3.24963H11.5V7.24963Z" fill="currentColor" />

</g>
</svg>
