<svg viewBox="0 0 16 16" fill="none" xmlns="http://www.w3.org/2000/svg">
<g transform="translate(2.0003, 1.0003)">
<path d="M7.33691 1.18055e-07C7.5815 1.18055e-07 7.70425 -0.000286214 7.81934 0.0273439C7.92136 0.0518414 8.01894 0.0926383 8.1084 0.147461C8.20926 0.209298 8.29587 0.295871 8.46875 0.46875L11.5312 3.53125C11.7041 3.70413 11.7907 3.79074 11.8525 3.8916C11.9074 3.98106 11.9482 4.07864 11.9727 4.18066C12.0003 4.29575 12 4.4185 12 4.66309V12.4004C12 12.9602 11.9996 13.2402 11.8906 13.4541C11.7948 13.6421 11.6421 13.7948 11.4541 13.8906C11.2402 13.9996 10.9602 14 10.4004 14H1.59961C1.03982 14 0.75976 13.9996 0.545898 13.8906C0.357928 13.7948 0.205215 13.6421 0.109375 13.4541C0.000406859 13.2402 5.8917e-09 12.9602 0 12.4004V1.59961C5.91373e-09 1.03982 0.000406907 0.75976 0.109375 0.545899C0.205215 0.357928 0.357928 0.205215 0.545898 0.109375C0.75976 0.000406978 1.03982 1.23948e-07 1.59961 1.18055e-07H7.33691ZM3 9.75H9V8.25H3V9.75ZM3 4.25V5.75H7.5V4.25H3Z" fill="currentColor" />

</g>
</svg>
