<svg viewBox="0 0 16 16" fill="none" xmlns="http://www.w3.org/2000/svg">
<g transform="translate(0.6860, 3.0724)">
<path d="M14.6279 0.576172C13.9701 2.15504 13.1767 3.11567 12.2109 3.54004C11.2352 3.96852 10.2746 3.766 9.5 3.47949C9.11062 3.33543 8.73376 3.15605 8.40234 2.99902C8.05765 2.83571 7.76726 2.69862 7.50098 2.60254C6.95241 2.40476 6.80036 2.48385 6.69434 2.58984C6.60675 2.67743 6.58464 2.74765 6.58008 2.82324C6.57421 2.9228 6.6 3.08102 6.70215 3.31445C6.91412 3.79848 7.33627 4.35871 7.84375 5.01172C8.31492 5.618 8.87333 6.32077 9.18945 6.98145C9.35068 7.31857 9.48202 7.70996 9.47656 8.12109C9.47052 8.56171 9.30671 8.97747 8.96582 9.31836C8.6423 9.64188 8.25568 9.81692 7.83398 9.84961C7.4376 9.88025 7.05921 9.78151 6.73145 9.6543C6.1153 9.41506 5.38658 8.9437 4.78223 8.60547C4.11881 8.23425 3.48172 7.94083 2.8418 7.8584C2.23592 7.78051 1.58814 7.88626 0.871094 8.39844L0 7.17773C1.03255 6.4403 2.06126 6.24611 3.0332 6.37109C3.97081 6.49184 4.81601 6.90496 5.51465 7.2959C6.27224 7.71986 6.78788 8.06693 7.27441 8.25586C7.4974 8.34239 7.63573 8.36069 7.71777 8.35449C7.77456 8.35009 7.82885 8.33424 7.90527 8.25781C7.96417 8.19891 7.97576 8.15864 7.97656 8.10059C7.97765 8.01304 7.94732 7.86185 7.83594 7.62891C7.60597 7.14835 7.17163 6.59202 6.65918 5.93262C6.1831 5.32001 5.62993 4.60525 5.32812 3.91602C5.17363 3.56302 5.0571 3.15853 5.08203 2.73535C5.10847 2.28832 5.28963 1.87346 5.63379 1.5293C6.39173 0.771445 7.33167 0.947439 8.01074 1.19238C8.35834 1.31783 8.71818 1.48875 9.04492 1.64355C9.38494 1.80465 9.70318 1.95485 10.0205 2.07227C10.6599 2.30878 11.162 2.36156 11.6074 2.16602C12.0631 1.9658 12.6511 1.42087 13.2432 0L14.6279 0.576172Z" fill="currentColor" />

</g>
</svg>
