<svg viewBox="0 0 16 16" fill="none" xmlns="http://www.w3.org/2000/svg">
<g transform="translate(1.7500, 1.7500)">
<path d="M9.00024 0C9.19915 4.45161e-07 9.38986 0.0790759 9.53051 0.219727L12.2805 2.96973C12.5734 3.26262 12.5734 3.7374 12.2805 4.03027L5.40551 10.9053C5.32324 10.9875 5.22288 11.0501 5.11254 11.0869L0.987544 12.4619C0.718139 12.5516 0.42077 12.481 0.219966 12.2803C0.0191761 12.0795 -0.051336 11.7821 0.0383253 11.5127L1.41333 7.3877C1.45011 7.27736 1.51277 7.17701 1.59497 7.09473L8.46997 0.219727L8.58422 0.125977C8.70647 0.0444837 8.85116 4.18762e-05 9.00024 0ZM2.78149 8.0293L1.93676 10.5635L4.47094 9.71875L10.6897 3.5L9.00024 1.81055L2.78149 8.0293Z" fill="currentColor" />

</g>
</svg>
