<svg viewBox="0 0 16 16" fill="none" xmlns="http://www.w3.org/2000/svg">
<g transform="translate(0.1250, 1.7915)">
<path d="M4.33301 10.417C4.88529 10.417 5.33301 10.8647 5.33301 11.417C5.33283 11.9691 4.88518 12.417 4.33301 12.417C3.78098 12.4168 3.33318 11.969 3.33301 11.417C3.33301 10.8648 3.78088 10.4172 4.33301 10.417ZM13 10.417C13.5523 10.417 14 10.8647 14 11.417C13.9998 11.9691 13.5522 12.417 13 12.417C12.4478 12.417 12.0002 11.9691 12 11.417C12 10.8647 12.4477 10.417 13 10.417ZM9.5 0C11.1049 7.5888e-06 12.6492 0.450743 13.8105 1.33887C14.9883 2.23961 15.75 3.57859 15.75 5.25L15.7393 5.53809C15.6371 6.96568 14.7821 8.19 13.5547 9.04688C12.2446 9.96131 10.464 10.5 8.5 10.5C6.53598 10.5 4.75539 9.9613 3.44531 9.04688C2.13605 8.13289 1.25 6.80091 1.25 5.25V3.75C1.25 3.61194 1.13805 3.50002 1 3.5H0V2H1C1.96648 2.00002 2.75 2.78352 2.75 3.75V4.5H8.75V0.75C8.75 0.335786 9.08579 0 9.5 0ZM2.86719 6C3.07448 6.66528 3.55762 7.29592 4.30469 7.81738C5.32792 8.53143 6.79764 9 8.5 9C10.2024 8.99999 11.6721 8.53143 12.6953 7.81738C13.4424 7.29593 13.9255 6.66528 14.1328 6H2.86719ZM10.25 4.5H14.1729C14.0007 3.68482 13.5469 3.02552 12.8994 2.53027C12.2095 2.00265 11.2873 1.65377 10.25 1.54004V4.5Z" fill="currentColor" />

</g>
</svg>
