<svg viewBox="0 0 16 16" fill="none" xmlns="http://www.w3.org/2000/svg">
<g transform="translate(0.2500, 1.6250)">
<path d="M7.75 7.75C6.50302 7.74999 4.88527 8.10666 3.60352 8.84961C2.57327 9.44687 1.83414 10.2429 1.58887 11.25H6.11523C6.32287 10.5606 6.79601 9.91701 7.39844 9.4209C8.23605 8.73118 9.40313 8.25 10.75 8.25C12.0969 8.25 13.264 8.73118 14.1016 9.4209C14.9187 10.0939 15.5 11.0376 15.5 12C15.5 12.4142 15.1642 12.75 14.75 12.75H0.75C0.335786 12.75 0 12.4142 0 12C0 9.90487 1.30717 8.44699 2.85156 7.55176C4.38838 6.66096 6.27126 6.24999 7.75 6.25V7.75ZM10.75 9.75C9.76364 9.75 8.93061 10.1022 8.35156 10.5791C8.08687 10.7971 7.89235 11.0289 7.75488 11.25H13.7451C13.6077 11.0289 13.4131 10.7971 13.1484 10.5791C12.5694 10.1022 11.7364 9.75 10.75 9.75ZM10.75 3C11.9926 3 13 4.00736 13 5.25C13 6.49264 11.9926 7.5 10.75 7.5C9.50736 7.5 8.5 6.49264 8.5 5.25C8.5 4.00736 9.50736 3 10.75 3ZM10.75 4.5C10.3358 4.5 10 4.83579 10 5.25C10 5.66421 10.3358 6 10.75 6C11.1642 6 11.5 5.66421 11.5 5.25C11.5 4.83579 11.1642 4.5 10.75 4.5ZM5.75 0C7.26878 0 8.5 1.23122 8.5 2.75C8.5 4.26878 7.26878 5.5 5.75 5.5C4.23122 5.5 3 4.26878 3 2.75C3 1.23122 4.23122 0 5.75 0ZM5.75 1.5C5.05964 1.5 4.5 2.05964 4.5 2.75C4.5 3.44036 5.05964 4 5.75 4C6.44036 4 7 3.44036 7 2.75C7 2.05964 6.44036 1.5 5.75 1.5Z" fill="currentColor" />

</g>
</svg>
