<svg viewBox="0 0 16 16" fill="none" xmlns="http://www.w3.org/2000/svg">
<g transform="translate(0.2508, 0.2499)">
<path d="M6.98649 0.464686C7.31884 -0.199331 8.33375 -0.151624 8.56852 0.607264L10.007 5.25961H14.6408C15.0784 5.25977 15.3672 5.56712 15.4601 5.86703C15.5523 6.16498 15.4879 6.56146 15.1593 6.81234L11.38 9.69613L12.8283 14.3787C12.9441 14.7538 12.7935 15.121 12.5275 15.3241C12.2559 15.5313 11.8315 15.585 11.4894 15.3241L7.74918 12.4686L4.00895 15.3241C3.66684 15.5849 3.24242 15.5313 2.97086 15.3241C2.70503 15.121 2.55431 14.7537 2.67008 14.3787L4.11735 9.69613L0.339025 6.81234C0.0106182 6.56147 -0.0538525 6.16492 0.0382436 5.86703C0.131082 5.56715 0.420097 5.25989 0.85758 5.25961H5.49137L6.92985 0.607264L6.98649 0.464686Z" fill="currentColor" />

</g>
</svg>
