<svg viewBox="0 0 16 16" fill="none" xmlns="http://www.w3.org/2000/svg">
<g transform="translate(1.1145, 0.7503)">
<path d="M6.73762 0.014458C6.88241 -0.0143826 7.03384 -8.27498e-05 7.17219 0.0574267L13.1722 2.55743C13.4168 2.65934 13.5903 2.88296 13.6273 3.14532C14.0094 5.86494 13.6314 8.09601 12.4974 9.96465C11.3726 11.8178 9.55552 13.2279 7.22492 14.4178C7.02039 14.5221 6.77922 14.5274 6.57062 14.4315C4.17636 13.329 2.35913 11.8718 1.2464 9.97051C0.130155 8.06291 -0.230447 5.7886 0.140936 3.14532L0.161444 3.04864C0.22264 2.82886 0.382125 2.64658 0.596014 2.55743L6.59601 0.0574267L6.73762 0.014458ZM1.57355 3.77422C1.33323 5.96672 1.68534 7.74984 2.54133 9.2127C3.40894 10.6952 4.83887 11.9215 6.86847 12.9109C8.89601 11.8318 10.3369 10.6333 11.2152 9.18633C12.0775 7.76535 12.4425 6.0288 12.1927 3.77422L6.8841 1.56133L1.57355 3.77422ZM6.8841 3.4793C6.88414 3.3713 6.99508 3.29862 7.09406 3.34161L10.7347 4.93438C10.8255 4.97416 10.8841 5.06384 10.8821 5.1629C10.8357 7.31436 9.86264 9.66556 7.1009 11.1385C7.0026 11.1909 6.88433 11.1189 6.8841 11.0076V3.4793Z" fill="currentColor" />

</g>
</svg>
