<svg viewBox="0 0 16 16" fill="none" xmlns="http://www.w3.org/2000/svg">
<g transform="translate(2.4699, 1.6447)">
<path d="M6.19043 0.710938L4.35449 4.11914L5.79492 5.55957L8.92383 5.11328C9.20396 5.07326 9.48349 5.1938 9.64551 5.42578C9.80751 5.65788 9.82462 5.96173 9.69043 6.21094L8.55469 8.31934L11.0605 10.8252L10 11.8857L7.8125 9.69824L6.19043 12.7109L4.87012 12L6.70508 8.59082L5.26465 7.15039L2.13672 7.59766C1.85659 7.63767 1.57706 7.51714 1.41504 7.28516C1.25304 7.05306 1.23593 6.74921 1.37012 6.5L2.50488 4.39062L0 1.88574L1.06055 0.825195L3.24707 3.01172L4.87012 0L6.19043 0.710938ZM7.12109 6.88574L7.44824 7.21289L7.66602 6.80859L7.12109 6.88574ZM3.39551 5.90332L3.93945 5.8252L3.6123 5.49805L3.39551 5.90332Z" fill="currentColor" />

</g>
</svg>
