<svg viewBox="0 0 16 16" fill="none" xmlns="http://www.w3.org/2000/svg">
<g transform="translate(1.2501, 1.7500)">
<path d="M10.25 0C10.4922 0 10.7196 0.117356 10.8604 0.314453L13.3604 3.81445C13.5464 4.0751 13.5464 4.4249 13.3604 4.68555L12.3613 6.08301C12.8318 6.26244 13.167 6.71652 13.167 7.25V11.25C13.167 11.9402 12.6071 12.4997 11.917 12.5H6.91699C6.22664 12.5 5.66699 11.9404 5.66699 11.25V7.25C5.66699 6.55964 6.22664 6 6.91699 6H7.33301V5.75C7.33301 4.23133 8.56437 3.00018 10.083 3V4.5C9.3928 4.50018 8.83301 5.05975 8.83301 5.75V6H10.5781L11.8281 4.24902L9.86426 1.5H1.5V7H3.75V8.5H0.75C0.335786 8.5 0 8.16421 0 7.75V0.75C0 0.335786 0.335786 0 0.75 0H10.25ZM7.16699 11H11.667V7.5H7.16699V11Z" fill="currentColor" />

</g>
</svg>
