<svg viewBox="0 0 16 16" fill="none" xmlns="http://www.w3.org/2000/svg">
<g transform="translate(0.2500, 1.7500)">
<path d="M11.7148 0.00683594C13.1776 0.0760494 14.1909 0.662433 14.792 1.68164C15.3817 2.68173 15.5 3.987 15.5 5.25H14C14 4.01306 13.8685 3.06825 13.5 2.44336C13.2574 2.03195 12.8745 1.69782 12.167 1.56348V3.06152C12.167 4.97565 10.8204 6.87741 8.75195 6.99414L8.5498 7C7.56598 7.00004 7.11884 7.29404 6.91406 7.56348C6.69599 7.85046 6.61162 8.29348 6.72461 8.85156C6.83658 9.40433 7.12675 9.97141 7.50195 10.3906C7.88846 10.8224 8.27183 10.9999 8.5498 11C8.74193 11 8.95799 10.9168 9.20508 10.708C9.45448 10.4972 9.69067 10.1949 9.89941 9.85645C10.1053 9.52253 10.2671 9.183 10.3779 8.92383C10.4329 8.79532 10.4738 8.68887 10.501 8.61621C10.5145 8.57994 10.525 8.55194 10.5312 8.53418C10.5343 8.52563 10.5359 8.51927 10.5371 8.51562C10.5377 8.51379 10.5389 8.51219 10.5391 8.51172V8.5127L11.9609 8.9873V8.98926C11.9607 8.99007 11.9603 8.99105 11.96 8.99219C11.9591 8.9946 11.9583 8.99812 11.957 9.00195C11.9544 9.00961 11.9499 9.02021 11.9453 9.0332C11.9361 9.05936 11.9233 9.09611 11.9062 9.1416C11.8721 9.23298 11.8221 9.36104 11.7568 9.51367C11.6271 9.81698 11.4323 10.2275 11.1758 10.6436C11.1035 10.7607 11.0237 10.88 10.9385 11H12.75V12.5H6.25C2.79822 12.5 0 9.70178 0 6.25C0 2.79822 2.79822 0 6.25 0H11.417L11.7148 0.00683594ZM1.58984 5.3291C1.5313 5.62706 1.5 5.93489 1.5 6.25C1.5 8.8135 3.53077 10.9011 6.07129 10.9951C5.68096 10.4497 5.38765 9.80423 5.25488 9.14844C5.15087 8.63446 5.13761 8.0747 5.2832 7.54492L1.58984 5.3291ZM6.25 1.5C4.48236 1.5 2.94102 2.46599 2.12305 3.89844L6.07812 6.27148C6.66616 5.7613 7.50596 5.50003 8.5498 5.5C9.70467 5.5 10.667 4.42305 10.667 3.06152V1.5H6.25ZM8 2.5C8.55224 2.5 8.99993 2.94777 9 3.5C9 4.05228 8.55228 4.5 8 4.5C7.44772 4.5 7 4.05228 7 3.5C7.00007 2.94777 7.44776 2.5 8 2.5Z" fill="currentColor" />

</g>
</svg>
