<svg viewBox="0 0 16 16" fill="none" xmlns="http://www.w3.org/2000/svg">
<g transform="translate(1.0003, 1.0003)">
<path d="M7.75 14H6.25V9.7998H7.75V14ZM5.55078 9.50977L2.58105 12.4805L2.0498 11.9502L1.51953 11.4189L4.49023 8.44922L5.55078 9.50977ZM12.4805 11.4189L11.9502 11.9502L11.4199 12.4805L8.44922 9.51074L8.97949 8.97949L9.50977 8.44922L12.4805 11.4189ZM4.2002 7.75H0V6.25H4.2002V7.75ZM14 7.75H9.7998V6.25H14V7.75ZM5.55078 4.49023L4.49023 5.55078L1.51953 2.58105L2.0498 2.0498L2.58105 1.51953L5.55078 4.49023ZM11.9502 2.0498L12.4805 2.58105L9.50977 5.55078L8.44922 4.49023L11.4189 1.51953L11.9502 2.0498ZM7.75 4.2002H6.25V0H7.75V4.2002Z" fill="currentColor" />

</g>
</svg>
