<svg viewBox="0 0 16 16" fill="none" xmlns="http://www.w3.org/2000/svg">
<g transform="translate(1.2503, 1.1413)">
<path d="M3.59375 0.478717C4.02674 0.0457261 4.66322 -0.103986 5.29004 0.0724669C5.98215 0.267444 6.54631 0.832478 6.74121 1.52462L6.75 1.55684C7.02616 1.13557 7.45153 0.813837 7.94043 0.675982C8.5673 0.499459 9.20467 0.648228 9.6377 1.08126C10.0704 1.51426 10.2194 2.15088 10.043 2.77754C9.99952 2.93175 9.93688 3.07916 9.85938 3.21797H12.75C13.1642 3.21797 13.4999 3.55383 13.5 3.96797V6.96797C13.5 7.29413 13.2907 7.56882 13 7.67208V12.968C13 13.3822 12.6642 13.7179 12.25 13.718H1.25C0.835786 13.718 0.5 13.3822 0.5 12.968V7.67208C0.209258 7.56882 0 7.29413 0 6.96797V3.96797C8.20661e-05 3.55383 0.335837 3.21797 0.75 3.21797H3.87207C3.54849 2.94804 3.30378 2.58416 3.18848 2.17501C3.01196 1.54817 3.16078 0.911743 3.59375 0.478717ZM2 7.71797V12.218H6.03711L6.0166 7.71797H2ZM7.5166 7.71797L7.53711 12.218H11.5V7.71797H7.5166ZM7.50977 6.21797H12V4.71797H7.50293L7.50977 6.21797ZM1.5 6.21797H6.00977L6.00293 4.71797H1.5V6.21797ZM8.34766 2.11934C8.15844 2.17268 7.98709 2.34421 7.93359 2.5334L7.83398 2.88301L8.18457 2.78536C8.37377 2.73208 8.54506 2.56045 8.59863 2.37129C8.62115 2.29135 8.61672 2.23643 8.60938 2.20528C8.60196 2.17423 8.58949 2.15428 8.57715 2.1418C8.56471 2.12937 8.54493 2.1161 8.51367 2.1086C8.48263 2.10119 8.42792 2.09677 8.34766 2.11934ZM4.71777 1.50606C4.68639 1.51355 4.66676 1.5268 4.6543 1.53926C4.64186 1.55173 4.62857 1.57142 4.62109 1.60274C4.61377 1.63384 4.60947 1.6881 4.63184 1.76778C4.68518 1.95708 4.85662 2.12938 5.0459 2.18282L5.39551 2.28047L5.29785 1.93087C5.24448 1.74167 5.07296 1.57028 4.88379 1.5168C4.80374 1.49426 4.7489 1.4987 4.71777 1.50606Z" fill="currentColor" />

</g>
</svg>
