<svg viewBox="0 0 16 16" fill="none" xmlns="http://www.w3.org/2000/svg">
<g transform="translate(0.7497, 0.7497)">
<path d="M8.64551 0.0790635C9.32948 -0.113514 10.0175 0.0507802 10.4834 0.516563C10.9493 0.982447 11.1134 1.67047 10.9209 2.35445C10.856 2.58498 10.7527 2.80261 10.6201 2.99996H12.25C13.4925 2.99996 14.4998 4.00751 14.5 5.24996V12.25C14.5 13.4926 13.4926 14.5 12.25 14.5H2.25C1.00738 14.4999 3.22125e-08 13.4926 0 12.25V5.24996C0.000226226 4.00753 1.00752 2.99998 2.25 2.99996H3.87988C3.74727 2.80262 3.64403 2.58497 3.5791 2.35445C3.38662 1.67047 3.55072 0.982445 4.0166 0.516563C4.48253 0.0507628 5.17052 -0.113493 5.85449 0.0790635C6.44753 0.24609 6.9552 0.662829 7.25 1.19918C7.5448 0.66282 8.05247 0.246092 8.64551 0.0790635ZM9.45508 13H12.25C12.6642 13 13 12.6642 13 12.25V10.2724L9.45508 13ZM1.5 9.1191V12.25C1.5 12.6642 1.8358 12.9999 2.25 13H6.99512L13 8.37984V5.24996C12.9998 4.83594 12.6641 4.49996 12.25 4.49996H7.50391L1.5 9.1191ZM2.25 4.49996C1.83594 4.49998 1.50023 4.83595 1.5 5.24996V7.22555L5.04297 4.49996H2.25ZM5.44727 1.5234C5.23828 1.46471 5.12552 1.52886 5.07715 1.57711C5.02889 1.62537 4.96479 1.73814 5.02344 1.94723C5.09501 2.20138 5.32105 2.42736 5.5752 2.49899L6.16602 2.665L5.99902 2.07516C5.92733 1.82111 5.70134 1.59495 5.44727 1.5234ZM9.42285 1.57711C9.37445 1.52886 9.2617 1.46469 9.05273 1.5234C8.79866 1.59495 8.57267 1.82111 8.50098 2.07516L8.33398 2.665L8.9248 2.49899C9.17897 2.42738 9.40499 2.2014 9.47656 1.94723C9.53522 1.73814 9.47111 1.62537 9.42285 1.57711Z" fill="currentColor" />

</g>
</svg>
