<svg viewBox="0 0 16 16" fill="none" xmlns="http://www.w3.org/2000/svg">
<g transform="translate(0.7510, 1.7484)">
<path d="M3.57535 1.69983L4.23941 2.04944L1.78824 6.7135C1.18266 7.86621 1.56651 9.31105 2.55191 9.93615L3.7648 10.7057C4.70304 11.3006 5.93821 10.9804 6.52554 9.86291L8.97672 5.19885L10.3048 5.89612L7.85367 10.5612C6.89392 12.3874 4.70228 13.0767 2.96109 11.9723L1.7482 11.2028C0.0541329 10.1281 -0.480077 7.80766 0.46109 6.01623L2.91226 1.35119L3.57535 1.69983ZM6.64468 1.94201C7.60438 0.115872 9.79514 -0.573327 11.5363 0.530881L12.7492 1.30041C14.4431 2.3751 14.9784 4.69555 14.0373 6.48694L11.5861 11.152L10.922 10.8033L10.258 10.4537L12.7091 5.78967C13.3148 4.63703 12.9317 3.19224 11.9464 2.56701L10.7336 1.79748C9.79522 1.20224 8.55918 1.52247 7.97183 2.64026L5.52164 7.30432L4.19351 6.60705L6.64468 1.94201Z" fill="currentColor" />

</g>
</svg>
