<svg viewBox="0 0 16 16" fill="none" xmlns="http://www.w3.org/2000/svg">
<g transform="translate(2.2498, 1.9998)">
<path d="M1.5 0.499023L1.93066 0.408203C3.29464 0.118317 4.71859 0.228721 6.01758 0.725586C7.04509 1.11866 8.17478 1.20644 9.25684 0.976562L10.5938 0.692383C10.8149 0.645374 11.0459 0.700573 11.2217 0.842773C11.3975 0.985146 11.5 1.19956 11.5 1.42578V7.57422C11.4999 7.92817 11.2524 8.23388 10.9062 8.30762L9.56934 8.5918C8.20535 8.88168 6.78141 8.77128 5.48242 8.27441C4.45491 7.88134 3.32522 7.79356 2.24316 8.02344L1.5 8.18066V12H0V0H1.5V0.499023ZM9.56934 2.44336C8.5539 2.65917 7.50557 2.65186 6.5 2.42969V4C6.5 4.24108 6.38405 4.46743 6.18848 4.6084C5.9929 4.74935 5.7414 4.78815 5.5127 4.71191C4.3309 4.31798 2.77346 4.26959 1.5 4.56738V6.64746L1.93066 6.55664C3.29468 6.26675 4.71857 6.37713 6.01758 6.87402C7.04507 7.26709 8.17479 7.35486 9.25684 7.125L10 6.9668V2.35156L9.56934 2.44336ZM5 1.96875C4.10718 1.71607 3.15849 1.68055 2.24316 1.875L1.5 2.03223V3.03418C2.6256 2.82126 3.8744 2.82126 5 3.03418V1.96875Z" fill="currentColor" />

</g>
</svg>
