<svg viewBox="0 0 16 16" fill="none" xmlns="http://www.w3.org/2000/svg">
<g transform="translate(1.7500, 1.7500)">
<path d="M4.75 7C5.16421 7 5.5 7.33579 5.5 7.75V11.75C5.5 12.1642 5.16421 12.5 4.75 12.5H0.75C0.33598 12.4998 0 12.1641 0 11.75V7.75C0 7.33593 0.33598 7.00023 0.75 7H4.75ZM11.75 7C12.1642 7 12.5 7.33579 12.5 7.75V11.75C12.5 12.1642 12.1642 12.5 11.75 12.5H7.75C7.33598 12.4998 7 12.1641 7 11.75V7.75C7 7.33593 7.33598 7.00023 7.75 7H11.75ZM1.5 11H4V8.5H1.5V11ZM8.5 11H11V8.5H8.5V11ZM4.75 0C5.16421 0 5.5 0.335786 5.5 0.75V4.75C5.5 5.16421 5.16421 5.5 4.75 5.5H0.75C0.33598 5.49977 0 5.16407 0 4.75V0.75C0 0.335927 0.33598 0.000227974 0.75 0H4.75ZM11.75 0C12.1642 0 12.5 0.335786 12.5 0.75V4.75C12.5 5.16421 12.1642 5.5 11.75 5.5H7.75C7.33598 5.49977 7 5.16407 7 4.75V0.75C7 0.335927 7.33598 0.000227974 7.75 0H11.75ZM1.5 4H4V1.5H1.5V4ZM8.5 4H11V1.5H8.5V4Z" fill="currentColor" />

</g>
</svg>
