<svg viewBox="0 0 16 16" fill="none" xmlns="http://www.w3.org/2000/svg">
<g transform="translate(0.5816, 2.5828)">
<path d="M8.32854 3.34277L8.32951 3.3418L11.7504 3.58105C12.3136 3.62062 12.8375 3.88702 13.2006 4.31934L14.8363 6.26855L13.6879 7.2334L12.0522 5.28418C11.9506 5.1632 11.8035 5.08833 11.6459 5.07715L8.22405 4.83789C8.21311 4.83712 8.20173 4.83621 8.19084 4.83496C8.17684 4.83334 8.16929 4.83455 8.1674 4.83496C8.1657 4.83542 8.16317 4.83647 8.15959 4.83887C8.15515 4.84194 8.14852 4.84786 8.14201 4.85645C8.13685 4.86334 8.13253 4.87145 8.12932 4.87891C8.13071 4.87969 8.13267 4.8811 8.1342 4.88184L10.4965 6.01465C10.8197 6.16995 10.9881 6.53279 10.8979 6.87988C10.8074 7.22651 10.484 7.46116 10.1264 7.43945L1.89983 6.92969C1.78034 6.92233 1.70277 6.95855 1.64592 7.00781C1.58026 7.06483 1.52718 7.15469 1.50725 7.25684C1.48753 7.35852 1.50699 7.43627 1.53362 7.48145C1.5529 7.51398 1.60353 7.57918 1.76604 7.61719L1.77678 7.62012L8.30217 9.23828C8.55793 9.30167 8.8209 9.33398 9.0844 9.33398H14.3119V10.834H9.0844C8.69916 10.834 8.31476 10.787 7.94084 10.6943L1.41545 9.07617V9.0752C0.893915 8.95094 0.485586 8.65667 0.241623 8.24316C0.00376731 7.83961 -0.0440007 7.38011 0.0355687 6.9707C0.192366 6.16495 0.902354 5.36517 1.9926 5.43262L6.88615 5.73535C6.81493 5.63455 6.75563 5.52499 6.71233 5.4082C6.58402 5.06158 6.6023 4.70066 6.7094 4.39258C6.91734 3.79502 7.52075 3.26582 8.32854 3.34277ZM3.79924 0C5.13356 0.000294535 6.21506 1.08265 6.21526 2.41699C6.21508 3.75135 5.13357 4.83271 3.79924 4.83301C2.46466 4.83301 1.38242 3.75153 1.38225 2.41699C1.38245 1.08247 2.46467 0 3.79924 0ZM3.79924 1.5C3.2931 1.5 2.88245 1.9109 2.88225 2.41699C2.88242 2.9231 3.29309 3.33301 3.79924 3.33301C4.30514 3.33271 4.71508 2.92292 4.71526 2.41699C4.71506 1.91108 4.30513 1.50029 3.79924 1.5Z" fill="currentColor" />

</g>
</svg>
