<svg viewBox="0 0 16 16" fill="none" xmlns="http://www.w3.org/2000/svg">
<g transform="translate(0.2499,1.7500)">
<path d="M8.29696 1.19038C9.9445 -0.396788 12.6055 -0.396796 14.253 1.19038C15.916 2.79265 15.9158 5.40246 14.253 7.00483C14.2453 7.0123 14.2367 7.02016 14.2286 7.02729L8.24618 12.3124C7.96271 12.5625 7.53746 12.5625 7.25399 12.3124L1.27157 7.02729C1.26349 7.02016 1.25491 7.0123 1.24715 7.00483C-0.415644 5.40246 -0.415791 2.79265 1.24715 1.19038C2.89462 -0.396707 5.55467 -0.396551 7.20223 1.19038H7.20321L7.75008 1.71674L8.29696 1.19038ZM5.87411 6.66596C5.73501 6.87461 5.50084 6.99994 5.25008 6.99995H3.50594L7.75008 10.749L11.9942 6.99995H10.0606L8.78036 8.28022C8.62147 8.4391 8.39946 8.51818 8.17586 8.49604C7.9524 8.47381 7.75063 8.35283 7.62606 8.16596L6.25008 6.10151L5.87411 6.66596ZM13.212 2.27045C12.1454 1.24299 10.4046 1.24297 9.33797 2.27045L8.27059 3.29877C7.98012 3.57861 7.52004 3.57861 7.22957 3.29877L6.16219 2.27045C5.0956 1.24296 3.35479 1.243 2.28817 2.27045C1.37423 3.15093 1.256 4.49783 1.93172 5.49995H4.84871L5.62606 4.33393L5.6827 4.25971C5.82413 4.09603 6.03072 3.99995 6.25008 3.99995C6.50081 3.99995 6.735 4.12533 6.87411 4.33393L8.36629 6.57221L9.21981 5.71967L9.33407 5.62592C9.45635 5.54442 9.60095 5.49995 9.75008 5.49995H13.5684C14.2442 4.49783 14.1259 3.15093 13.212 2.27045Z" fill="currentColor" />

</g>
</svg>
