<svg viewBox="0 0 16 16" fill="none" xmlns="http://www.w3.org/2000/svg">
<g transform="translate(3.7567, 1.3747)">
<path d="M4.40332 11.25C4.95558 11.25 5.40332 11.6977 5.40332 12.25C5.40331 12.8023 4.95557 13.25 4.40332 13.25C3.85104 13.25 3.40333 12.8023 3.40332 12.25C3.40332 11.6977 3.85104 11.25 4.40332 11.25ZM4.40332 0C6.74852 0.000195405 8.48629 1.77899 8.48633 4.03027C8.48633 5.16818 8.02237 6.10926 7.25879 6.76953C6.67813 7.27148 5.94595 7.59177 5.15332 7.74219V9.75H3.65332V6.37891L4.35645 6.33496C5.15965 6.28486 5.82579 6.02498 6.27734 5.63477C6.71474 5.25654 6.98633 4.7282 6.98633 4.03027C6.98629 2.6102 5.92287 1.50019 4.40332 1.5C2.85664 1.50016 1.76495 2.64124 1.47266 4.1709L0 3.88965C0.391069 1.84281 1.95936 0.000166921 4.40332 0Z" fill="currentColor" />

</g>
</svg>
