<svg viewBox="0 0 16 16" fill="none" xmlns="http://www.w3.org/2000/svg">
<g transform="translate(1.0003, 1.0003)">
<path d="M7 0C10.866 0 14 3.13401 14 7C14 10.866 10.866 14 7 14C3.13401 14 0 10.866 0 7C0 3.13401 3.13401 0 7 0ZM7 9.33301C6.44789 9.33304 6.00023 9.78094 6 10.333C6 10.8853 6.44774 11.333 7 11.333C7.55228 11.333 8 10.8853 8 10.333C7.99977 9.78092 7.55214 9.33301 7 9.33301ZM7 3.08301C5.55415 3.08316 4.65118 4.17968 4.43066 5.33203L5.16699 5.47363L5.90332 5.61426C6.02484 4.97897 6.45113 4.58315 7 4.58301C7.55321 4.58312 7.91682 4.97157 7.91699 5.47363C7.91689 5.71208 7.82917 5.87274 7.69238 5.99121C7.54115 6.12198 7.29162 6.2298 6.9541 6.25098L6.25 6.29492V8.33301H7.75V7.62207C8.08785 7.52008 8.40548 7.358 8.67383 7.12598C9.13671 6.72545 9.41687 6.1521 9.41699 5.47363C9.4168 4.14036 8.37887 3.08313 7 3.08301Z" fill="currentColor" />

</g>
</svg>
