<svg viewBox="0 0 16 16" fill="none" xmlns="http://www.w3.org/2000/svg">
<g transform="translate(0.7497, 0.7497)">
<path d="M2.12326 2.12326C4.95442 -0.707896 9.54583 -0.707612 12.3772 2.12326C15.2085 4.95456 15.2085 9.54587 12.3772 12.3772C9.54587 15.2085 4.95456 15.2085 2.12326 12.3772C-0.707612 9.54583 -0.707896 4.95442 2.12326 2.12326ZM11.3156 3.18479C9.0701 0.939698 5.43016 0.939414 3.18479 3.18479C0.939414 5.43016 0.939698 9.0701 3.18479 11.3156C5.4303 13.5612 9.07013 13.5612 11.3156 11.3156C13.5612 9.07013 13.5612 5.4303 11.3156 3.18479ZM7.25119 9.5842C7.80325 9.58446 8.25119 10.0321 8.25119 10.5842C8.25113 11.1363 7.80321 11.5839 7.25119 11.5842C6.69895 11.5842 6.25126 11.1364 6.25119 10.5842C6.25119 10.0319 6.69891 9.5842 7.25119 9.5842ZM7.25022 3.3342C8.62934 3.3342 9.66721 4.3913 9.66721 5.72482C9.66704 6.40337 9.38707 6.97666 8.92404 7.37717C8.65565 7.60918 8.3381 7.7713 8.00022 7.87326V8.5842H6.50022V6.54611L7.20432 6.50217C7.54183 6.48104 7.79131 6.37313 7.9426 6.2424C8.07954 6.12394 8.16706 5.96336 8.16721 5.72482C8.16721 5.22251 7.8037 4.8342 7.25022 4.8342C6.70132 4.83443 6.27494 5.23 6.15354 5.86545L5.41721 5.72482L4.68088 5.58322C4.90125 4.43077 5.8043 3.33445 7.25022 3.3342Z" fill="currentColor" />

</g>
</svg>
