<svg viewBox="0 0 16 16" fill="none" xmlns="http://www.w3.org/2000/svg">
<g transform="translate(0.7087, 2.1251)">
<path d="M7.25 1.74998H2.25C1.83579 1.74998 1.5 2.08576 1.5 2.49998V9.49998C1.50014 9.91407 1.83588 10.25 2.25 10.25H12.25C12.6641 10.2499 12.9999 9.91403 13 9.49998V5.99998H14.5V9.49998C14.4999 10.7425 13.4925 11.7499 12.25 11.75H2.25C1.00745 11.75 0.000143987 10.7425 0 9.49998V2.49998C0 1.25734 1.00736 0.249978 2.25 0.249978H7.25V1.74998ZM12.3232 0.415993C12.8402 -0.138664 13.6783 -0.138664 14.1953 0.415993C14.7122 0.970601 14.7121 1.86916 14.1953 2.42381L12.0918 4.49412C11.9945 4.58963 11.8385 4.58967 11.7412 4.49412L9.6377 2.42381C9.12097 1.86917 9.1209 0.970585 9.6377 0.415993C10.1547 -0.138664 10.9928 -0.138664 11.5098 0.415993L11.917 0.852517L12.3232 0.415993Z" fill="currentColor" />

</g>
</svg>
