<svg viewBox="0 0 16 16" fill="none" xmlns="http://www.w3.org/2000/svg">
<g transform="translate(1.2508, 1.2507)">
<path d="M12.3246 6.65486C13.8904 8.22064 13.8903 10.7589 12.3246 12.3248C10.7588 13.8906 8.22053 13.8906 6.65469 12.3248L5.27187 10.942L6.33242 9.88142L7.71523 11.2642C8.69529 12.2443 10.284 12.2443 11.2641 11.2642C12.244 10.2842 12.2441 8.6954 11.2641 7.7154L9.88125 6.33259L10.9418 5.27204L12.3246 6.65486ZM10.1215 9.06111L9.06094 10.1217L3.37734 4.43806L4.43789 3.37751L10.1215 9.06111ZM1.17422 1.17439C2.69106 -0.34229 5.1208 -0.390027 6.69473 1.03181L6.84414 1.17439L6.86367 1.19392L8.29922 2.73884L7.19961 3.76032L5.78359 2.23493L5.59316 2.06208C4.60753 1.25846 3.15347 1.31639 2.23477 2.23493C1.25482 3.21488 1.25503 4.80369 2.23477 5.78376L3.61758 7.16657L2.55703 8.22712L1.17422 6.84431C-0.391301 5.27845 -0.391512 2.74012 1.17422 1.17439Z" fill="currentColor" />

</g>
</svg>
