<svg viewBox="0 0 16 16" fill="none" xmlns="http://www.w3.org/2000/svg">
<g transform="translate(0.7497, 2.7498)">
<path d="M13.75 0C14.1642 0 14.5 0.335786 14.5 0.75V9.75C14.5 10.1642 14.1642 10.5 13.75 10.5H0.75C0.335786 10.5 0 10.1642 0 9.75V0.75C0 0.335786 0.335786 0 0.75 0H13.75ZM1.5 9H13V1.5H1.5V9ZM7.25 7H3.25V5.5H7.25V7ZM5.25 2.75C5.80228 2.75 6.25 3.19772 6.25 3.75C6.25 4.30228 5.80228 4.75 5.25 4.75C4.69772 4.75 4.25 4.30228 4.25 3.75C4.25 3.19772 4.69772 2.75 5.25 2.75Z" fill="currentColor" />

</g>
</svg>
