<svg viewBox="0 0 16 16" fill="none" xmlns="http://www.w3.org/2000/svg">
<g transform="translate(2.2501, 1.2501)">
<path d="M10.75 0C11.1642 0 11.5 0.335786 11.5 0.75V12.75C11.5 13.1642 11.1642 13.5 10.75 13.5H0.75C0.335786 13.5 0 13.1642 0 12.75V0.75C0 0.335786 0.335786 0 0.75 0H10.75ZM1.5 12H10V1.5H1.5V12ZM8.25 10.5H3.25V9H8.25V10.5ZM4.91602 2.68066C5.39481 2.73573 5.81151 2.95325 6.08594 3.09082C6.40673 3.25162 6.58601 3.33301 6.75586 3.35254C6.87223 3.36583 7.03676 3.35565 7.30469 3.1582C7.53235 2.99034 7.83537 2.9644 8.08789 3.0918C8.34041 3.2194 8.5 3.47878 8.5 3.76172V6.07227C8.4999 6.31026 8.3868 6.53446 8.19531 6.67578C7.65457 7.07445 7.11628 7.21452 6.58398 7.15332C6.10525 7.09827 5.6885 6.88074 5.41406 6.74316C5.09322 6.58233 4.914 6.50098 4.74414 6.48145C4.62774 6.46815 4.46336 6.47821 4.19531 6.67578C3.9677 6.84352 3.66455 6.86949 3.41211 6.74219C3.15961 6.61465 3.00011 6.35513 3 6.07227V3.76172L3.00488 3.67285C3.02918 3.46867 3.1372 3.28188 3.30469 3.1582C3.84549 2.75944 4.38366 2.61945 4.91602 2.68066ZM4.74414 4.1709C4.68025 4.1636 4.60199 4.16341 4.5 4.19727V4.98633C4.63902 4.9741 4.7777 4.97531 4.91602 4.99121C5.39495 5.04629 5.81151 5.26478 6.08594 5.40234C6.4067 5.56313 6.58602 5.64356 6.75586 5.66309C6.81978 5.67039 6.89793 5.66966 7 5.63574V4.84668C6.86097 4.85892 6.72231 4.85868 6.58398 4.84277C6.1051 4.78771 5.6885 4.56921 5.41406 4.43164C5.09324 4.27082 4.914 4.19044 4.74414 4.1709Z" fill="currentColor" />

</g>
</svg>
