<svg viewBox="0 0 16 16" fill="none" xmlns="http://www.w3.org/2000/svg">
<g transform="translate(2.2499, 0.4163)">
<path d="M7.75 15.167H3.75V13.667H7.75V15.167ZM5.75 0C8.92091 4.3801e-05 11.4998 2.55556 11.5 5.71777C11.5 7.83718 10.2189 9.81457 8.5 10.8223V11.917C8.49982 12.331 8.16407 12.6669 7.75 12.667H3.75C3.3359 12.667 3.00018 12.3311 3 11.917V10.8223C1.28102 9.81459 1.26668e-05 7.83723 0 5.71777C0.000178354 2.55553 2.57906 0 5.75 0ZM5.75 1.5C3.39832 1.5 1.50018 3.3931 1.5 5.71777C1.50001 7.38787 2.62367 9.01347 4.07031 9.69629C4.33245 9.82017 4.49985 10.0841 4.5 10.374V11.167H7V10.374C7.00015 10.0841 7.16755 9.82017 7.42969 9.69629C8.87627 9.01343 9.99999 7.38781 10 5.71777C9.99982 3.39313 8.10165 1.50004 5.75 1.5Z" fill="currentColor" />

</g>
</svg>
