<svg viewBox="0 0 16 16" fill="none" xmlns="http://www.w3.org/2000/svg">
<g transform="translate(0.5002, 2.2502)">
<path d="M14.25 0C14.6642 0 15 0.335786 15 0.75V10.75C15 11.1642 14.6642 11.5 14.25 11.5H0.75C0.335786 11.5 0 11.1642 0 10.75V0.75C0 0.335786 0.335786 0 0.75 0H14.25ZM1.5 10H13.5V1.5H1.5V10ZM7.0498 4.15039C7.31647 3.95039 7.68353 3.95039 7.9502 4.15039L11.9502 7.15039C12.2082 7.34412 12.314 7.68117 12.2119 7.9873C12.1098 8.29356 11.8228 8.5 11.5 8.5H3.5C3.17718 8.5 2.89017 8.29356 2.78809 7.9873C2.68604 7.68117 2.79177 7.34412 3.0498 7.15039L7.0498 4.15039ZM5.75 7H9.25L7.5 5.68652L5.75 7ZM4.16699 2.75C4.71913 2.75018 5.16699 3.19782 5.16699 3.75C5.16699 4.30218 4.71913 4.74982 4.16699 4.75C3.61471 4.75 3.16699 4.30228 3.16699 3.75C3.16699 3.19772 3.61471 2.75 4.16699 2.75Z" fill="currentColor" />

</g>
</svg>
