<svg viewBox="0 0 16 16" fill="none" xmlns="http://www.w3.org/2000/svg">
<g transform="translate(0.7497, 0.7497)">
<path d="M2.12344 2.12344C4.95472 -0.707836 9.54604 -0.707792 12.3773 2.12344C15.2086 4.95474 15.2086 9.54605 12.3773 12.3773C9.54605 15.2086 4.95474 15.2086 2.12344 12.3773C-0.707792 9.54604 -0.707836 4.95472 2.12344 2.12344ZM11.3158 3.18497C9.07031 0.939518 5.43046 0.939474 3.18497 3.18497C0.939474 5.43046 0.939517 9.0703 3.18497 11.3158C5.43048 13.5613 9.07031 13.5613 11.3158 11.3158C13.5613 9.07031 13.5613 5.43048 11.3158 3.18497ZM8.00039 11.2504H6.50039V6.7504H8.00039V11.2504ZM7.25039 3.2504C7.80237 3.2504 8.25036 3.69842 8.25039 4.2504C8.25039 4.8024 7.80239 5.2504 7.25039 5.2504C6.69842 5.25036 6.25039 4.80237 6.25039 4.2504C6.25043 3.69845 6.69845 3.25043 7.25039 3.2504Z" fill="currentColor" />

</g>
</svg>
