<svg viewBox="0 0 16 16" fill="none" xmlns="http://www.w3.org/2000/svg">
<g transform="translate(2.7504, 0.2499)">
<path d="M6.37456 0.253198C6.6295 -0.0352132 7.06194 -0.0836059 7.37456 0.140894C7.68717 0.365717 7.77879 0.791668 7.58648 1.12527L5.21441 5.23757L10.0142 7.04812C10.2449 7.1351 10.4177 7.33036 10.4771 7.5696C10.5363 7.80883 10.4743 8.06268 10.3111 8.24734L8.06109 10.7923L4.12359 15.2473C3.86861 15.5351 3.43691 15.5838 3.12456 15.3596C2.81204 15.1349 2.72063 14.7088 2.91265 14.3753L5.28374 10.262L0.484916 8.45242C0.254385 8.36547 0.0815103 8.17001 0.022025 7.93093C-0.0373083 7.69175 0.0249579 7.43792 0.188041 7.2532L2.43804 4.70828L6.37456 0.253198ZM2.03179 7.43093L6.63921 9.16921L7.27984 9.4114L8.46734 8.06765L3.85992 6.33035L3.21831 6.08816L2.03179 7.43093Z" fill="currentColor" />

</g>
</svg>
