<svg viewBox="0 0 16 16" fill="none" xmlns="http://www.w3.org/2000/svg">
<g transform="translate(2.7504, 0.2499)">
<path fill-rule="evenodd" clip-rule="evenodd" d="M7.37461 0.140894C7.06199 -0.0836059 6.62954 -0.0352132 6.37461 0.253198L2.43809 4.70828L0.188087 7.2532C0.0247835 7.43795 -0.0372981 7.69161 0.0220709 7.93093C0.0814804 8.17018 0.2543 8.36543 0.484962 8.45242L5.28379 10.262L2.9127 14.3753C2.72038 14.7089 2.81196 15.1348 3.12461 15.3596C3.43708 15.584 3.86868 15.5354 4.12363 15.2473L8.06113 10.7923L10.3111 8.24734C10.4744 8.06259 10.5365 7.80893 10.4771 7.5696C10.4177 7.33036 10.2449 7.1351 10.0143 7.04812L5.21445 5.23757L7.58652 1.12527C7.77885 0.791647 7.68726 0.365706 7.37461 0.140894Z" fill="currentColor" />

</g>
</svg>
