<svg viewBox="0 0 16 16" fill="none" xmlns="http://www.w3.org/2000/svg">
<g transform="translate(0.7497, 0.7497)">
<path d="M7.25 0C11.2541 1.61069e-07 14.5 3.24594 14.5 7.25C14.5 11.2541 11.2541 14.5 7.25 14.5C3.24594 14.5 6.76491e-07 11.2541 0 7.25C6.12063e-07 3.24594 3.24594 6.76491e-07 7.25 0ZM5.02344 8C5.09775 9.3193 5.36524 10.5695 5.80957 11.5322C6.35683 12.7178 6.93287 13 7.25 13C7.56713 13 8.14317 12.7178 8.69043 11.5322C9.13476 10.5695 9.40225 9.3193 9.47656 8H5.02344ZM1.5498 8C1.79305 9.86691 2.93179 11.4515 4.52051 12.3105C4.49608 12.2607 4.47075 12.211 4.44727 12.1602C3.89617 10.9659 3.59685 9.49044 3.52148 8H1.5498ZM10.9785 8C10.9032 9.49044 10.6038 10.9659 10.0527 12.1602C10.0292 12.2112 10.003 12.2606 9.97852 12.3105C11.5676 11.4516 12.7069 9.8672 12.9502 8H10.9785ZM10.0527 2.33984C10.6038 3.53409 10.9032 5.00956 10.9785 6.5H12.9502C12.7069 4.63264 11.5678 3.04741 9.97852 2.18848C10.0031 2.23867 10.0291 2.28856 10.0527 2.33984ZM7.25 1.5C6.93287 1.5 6.35683 1.78217 5.80957 2.96777C5.36524 3.93049 5.09775 5.1807 5.02344 6.5H9.47656C9.40225 5.1807 9.13476 3.93049 8.69043 2.96777C8.14317 1.78217 7.56713 1.5 7.25 1.5ZM4.52051 2.18848C2.93157 3.0475 1.79307 4.63294 1.5498 6.5H3.52148C3.59685 5.00956 3.89617 3.53409 4.44727 2.33984C4.47087 2.28869 4.49594 2.23855 4.52051 2.18848Z" fill="currentColor" />

</g>
</svg>
