<svg viewBox="0 0 16 16" fill="none" xmlns="http://www.w3.org/2000/svg">
<g transform="translate(1.2501, 2.6250)">
<path d="M3.41602 9.25V10.75H0.0830078V9.25H3.41602ZM8.08301 10.75H4.75V9.25H8.08301V10.75ZM1.5 0C1.50005 0.903439 1.73103 2.21078 2.22168 3.26758C2.72903 4.36021 3.37248 4.91682 4.08301 4.91699C4.31946 4.91699 4.57642 4.83459 4.88867 4.65332C5.20903 4.4673 5.52893 4.21344 5.90918 3.91211C6.5964 3.36751 7.55388 2.58301 8.75 2.58301C9.75283 2.58302 10.5289 3.20995 11.0859 3.90625C11.6526 4.61461 12.1016 5.52597 12.4463 6.3877C12.7943 7.25777 13.0533 8.12224 13.2246 8.76465C13.3105 9.08691 13.3756 9.35721 13.4189 9.54688C13.4405 9.64135 13.4567 9.71656 13.4678 9.76855C13.4733 9.7944 13.4776 9.81498 13.4805 9.8291C13.4819 9.83602 13.4836 9.8418 13.4844 9.8457C13.4848 9.84756 13.4851 9.84946 13.4854 9.85059V9.85254L13.4971 9.93555C13.5137 10.1292 13.4547 10.3236 13.3301 10.4756C13.1876 10.6492 12.9746 10.75 12.75 10.75H9.41699V9.25H11.7998C11.7914 9.21805 11.7842 9.18458 11.7754 9.15137C11.6134 8.544 11.3721 7.74142 11.0537 6.94531C10.7318 6.14066 10.3472 5.38525 9.91406 4.84375C9.47111 4.29006 9.08049 4.08302 8.75 4.08301C8.16836 4.08301 7.62581 4.46582 6.84082 5.08789C6.4852 5.36971 6.0754 5.69881 5.64258 5.9502C5.20154 6.20627 4.67975 6.41699 4.08301 6.41699C2.46078 6.41682 1.43721 5.13957 0.861328 3.89941C0.268762 2.62312 4.98982e-05 1.09652 0 0H1.5Z" fill="currentColor" />

</g>
</svg>
