<svg viewBox="0 0 16 16" fill="none" xmlns="http://www.w3.org/2000/svg">
<g transform="translate(0.1607, 1.9052)">
<path d="M12.8721 0.0117324C13.0675 0.0469221 13.241 0.158373 13.3545 0.321303L15.6787 3.66115L14.4473 4.51857L13.168 2.6797C13.0133 3.47854 12.8041 4.45585 12.5361 5.44728C12.2185 6.62251 11.8117 7.85302 11.3076 8.83595C11.0556 9.32732 10.7651 9.78578 10.4277 10.1485C10.0925 10.5088 9.66841 10.8205 9.14746 10.9248C8.22125 11.1101 7.505 10.7595 6.98047 10.2197C6.4998 9.72499 6.1477 9.04076 5.8584 8.4629C5.54435 7.83561 5.29269 7.30968 4.99316 6.92091C4.70832 6.55125 4.48185 6.43947 4.25 6.43947C3.99028 6.43947 3.67881 6.58102 3.31934 6.98927C2.96225 7.39488 2.63281 7.98404 2.35156 8.66408C1.78436 10.0357 1.5 11.5618 1.5 12.1895H0C1.1092e-06 11.3172 0.344108 9.59312 0.96582 8.08986C1.27899 7.33275 1.68411 6.57762 2.19336 5.99904C2.70041 5.42309 3.38783 4.93947 4.25 4.93947C5.14009 4.93947 5.75613 5.45269 6.18164 6.0049C6.59234 6.53789 6.91883 7.23096 7.19922 7.79103C7.50435 8.40052 7.76312 8.87278 8.05664 9.17482C8.30633 9.43169 8.52904 9.51871 8.85254 9.45412C8.95636 9.43335 9.11851 9.3544 9.33008 9.12697C9.53951 8.9018 9.75694 8.57487 9.97363 8.15236C10.407 7.30727 10.7815 6.19374 11.0889 5.05665C11.3457 4.10645 11.5474 3.1629 11.6973 2.38771L9.82715 3.68947L8.9707 2.45802L12.3105 0.134779L12.4395 0.0625137C12.5742 0.00386439 12.7253 -0.0146081 12.8721 0.0117324Z" fill="currentColor" />

</g>
</svg>
