<svg viewBox="0 0 16 16" fill="none" xmlns="http://www.w3.org/2000/svg">
<g transform="translate(1.2501, 2.6250)">
<path d="M3.41602 10L3.41699 10.75H0.0839844L0.0830078 9.25H3.41699L3.41602 10ZM8.08301 10V10.75H4.75V9.25H8.08398L8.08301 10ZM1.5 0C1.5 0.90345 1.73097 2.21066 2.22168 3.26758C2.72905 4.36037 3.37242 4.91682 4.08301 4.91699C4.31949 4.91699 4.57636 4.83464 4.88867 4.65332C5.20907 4.46728 5.52886 4.2135 5.90918 3.91211C6.5964 3.36751 7.55388 2.58301 8.75 2.58301C9.75283 2.58302 10.5289 3.20995 11.0859 3.90625C11.6526 4.61464 12.1015 5.5259 12.4463 6.3877C12.7944 7.25786 13.0533 8.12217 13.2246 8.76465C13.3106 9.08703 13.3756 9.35715 13.4189 9.54688C13.4406 9.64149 13.4567 9.71651 13.4678 9.76855C13.4733 9.79454 13.4775 9.81493 13.4805 9.8291C13.4819 9.83616 13.4836 9.84174 13.4844 9.8457C13.4848 9.84768 13.4851 9.8494 13.4854 9.85059V9.85254L13.4971 9.93555C13.5138 10.1293 13.4548 10.3235 13.3301 10.4756C13.1876 10.6493 12.9747 10.75 12.75 10.75H9.41699V9.25H11.7998C11.7914 9.21796 11.7843 9.18468 11.7754 9.15137C11.6134 8.54394 11.3722 7.74151 11.0537 6.94531C10.7318 6.14057 10.3473 5.38526 9.91406 4.84375C9.47111 4.29006 9.08049 4.08302 8.75 4.08301C8.16836 4.08301 7.62581 4.46582 6.84082 5.08789C6.48517 5.36973 6.07546 5.69878 5.64258 5.9502C5.20151 6.2063 4.67981 6.41699 4.08301 6.41699C2.46067 6.41682 1.43719 5.13965 0.861328 3.89941C0.268707 2.62301 4.87024e-08 1.09654 0 0H1.5Z" fill="currentColor" />

</g>
</svg>
