<svg viewBox="0 0 16 16" fill="none" xmlns="http://www.w3.org/2000/svg">
<g transform="translate(1.4715, 1.7498)">
<path d="M11 12.5H0V11H11V12.5ZM13.0566 6.08594L9.74512 9.75195C9.6001 9.91254 9.39309 10.0035 9.17676 10C8.96032 9.9964 8.7559 9.89875 8.61621 9.7334L6.92676 7.7334L7.5 7.25L8.07324 6.76562L9.20703 8.10938L11.9434 5.08008L13.0566 6.08594ZM3.25 9.75H1.75V2.75H3.25V9.75ZM6.25 9.75H4.75V2.75H6.25V9.75ZM9.25 5.75H7.75V2.75H9.25V5.75ZM11 1.5H0V0H11V1.5Z" fill="currentColor" />

</g>
</svg>
