<svg viewBox="0 0 16 16" fill="none" xmlns="http://www.w3.org/2000/svg">
<g transform="translate(0.2499, 1.7500)">
<path d="M8.29698 1.19043C9.94454 -0.39681 12.6055 -0.39681 14.253 1.19043C15.916 2.79272 15.9159 5.40252 14.253 7.00488C14.2453 7.01237 14.2367 7.0202 14.2286 7.02734L8.2462 12.3125C7.96273 12.5625 7.53748 12.5625 7.25401 12.3125L1.27159 7.02734C1.2635 7.0202 1.25495 7.01237 1.24718 7.00488C-0.415669 5.40252 -0.415782 2.79272 1.24718 1.19043C2.89465 -0.396728 5.55468 -0.396566 7.20226 1.19043H7.20323L7.75011 1.7168L8.29698 1.19043ZM13.212 2.27051C12.1454 1.24297 10.4046 1.24295 9.338 2.27051L8.27062 3.29883C7.98015 3.57866 7.52007 3.57866 7.2296 3.29883L6.16222 2.27051C5.09561 1.24295 3.35482 1.24298 2.28819 2.27051C1.239 3.28129 1.23751 4.90715 2.28331 5.91992L7.75011 10.749L13.2159 5.91992C14.2622 4.90719 14.2614 3.28145 13.212 2.27051Z" fill="currentColor" />

</g>
</svg>
