<svg viewBox="0 0 16 16" fill="none" xmlns="http://www.w3.org/2000/svg">
<g transform="translate(1.5002, 2.0002)">
<path d="M6.5 3C6.73888 3 6.96321 3.11402 7.10449 3.30664L12.6045 10.8066C12.7716 11.0345 12.7966 11.3368 12.6689 11.5889C12.5412 11.841 12.2826 12 12 12H1C0.717373 12 0.458807 11.841 0.331055 11.5889C0.203354 11.3368 0.228392 11.0345 0.395508 10.8066L5.89551 3.30664L5.95215 3.23828C6.09305 3.0874 6.29093 3.00001 6.5 3ZM2.47949 10.5H10.5205L6.5 5.01758L2.47949 10.5ZM13 1.5H0V0H13V1.5Z" fill="currentColor" />

</g>
</svg>
