<svg viewBox="0 0 16 16" fill="none" xmlns="http://www.w3.org/2000/svg">
<g transform="translate(0.7503, 1.7502)">
<path d="M2.50014 11H12.0001V7.25H13.5001V11.75C13.5001 12.1642 13.1644 12.5 12.7501 12.5H1.75014C1.33594 12.5 1.00014 12.1642 1.00014 11.75V7.25H2.50014V11ZM11.1505 0C11.3797 0.000118853 11.5944 0.105074 11.7355 0.28125L11.7921 0.361328L14.3917 4.65723C14.5095 4.85171 14.5322 5.08918 14.4542 5.30273C14.3764 5.51608 14.2064 5.68281 13.9914 5.75586C10.8994 6.80374 8.96867 6.53926 7.11343 6.19629C5.331 5.86676 3.677 5.4834 0.915183 6.10742C0.62623 6.17253 0.325605 6.06173 0.148582 5.82422C-0.0281814 5.58672 -0.0490859 5.26696 0.0958474 5.00879L2.69643 0.382812C2.81266 0.176008 3.01883 0.0380197 3.25014 0.00683594L3.34975 0H11.1505ZM3.78921 1.5L2.17788 4.36719C4.3755 4.10596 5.92455 4.45134 7.38686 4.72168C8.91077 5.00339 10.3763 5.21502 12.6095 4.60938L10.7277 1.5H3.78921Z" fill="currentColor" />

</g>
</svg>
