<svg viewBox="0 0 16 16" fill="none" xmlns="http://www.w3.org/2000/svg">
<g transform="translate(2.2498, 0.7497)">
<path d="M5.75 0C8.91566 0 11.4998 2.5335 11.5 5.68066C11.5 6.62838 11.1217 7.64586 10.6338 8.58301C10.1376 9.53597 9.48493 10.4869 8.8457 11.3223C8.20447 12.1603 7.56512 12.8977 7.08691 13.4248C6.84757 13.6886 6.64764 13.9009 6.50684 14.0479C6.43648 14.1213 6.38028 14.1785 6.3418 14.2178C6.32255 14.2374 6.30722 14.2532 6.29688 14.2637L6.28027 14.2803C6.00567 14.5549 5.57095 14.5723 5.27637 14.332L5.21973 14.2803L5.20312 14.2637C5.19278 14.2532 5.17745 14.2374 5.1582 14.2178C5.11972 14.1785 5.06352 14.1213 4.99316 14.0479C4.85236 13.9009 4.65243 13.6886 4.41309 13.4248C3.93488 12.8977 3.29553 12.1603 2.6543 11.3223C2.01507 10.4869 1.36239 9.53597 0.866211 8.58301C0.37829 7.64586 0 6.62838 0 5.68066C0.000202801 2.5335 2.58434 0 5.75 0ZM5.75 1.5C3.39306 1.5 1.5002 3.3815 1.5 5.68066C1.5 6.26743 1.74671 7.02712 2.19629 7.89062C2.63754 8.73807 3.23511 9.61215 3.8457 10.4102C4.45444 11.2057 5.06513 11.9107 5.52441 12.417C5.60386 12.5046 5.68064 12.5843 5.75 12.6592C5.81936 12.5843 5.89614 12.5046 5.97559 12.417C6.43487 11.9107 7.04556 11.2057 7.6543 10.4102C8.26489 9.61215 8.86246 8.73807 9.30371 7.89062C9.75329 7.02712 10 6.26743 10 5.68066C9.9998 3.3815 8.10694 1.5 5.75 1.5ZM5.75 4.25C6.57843 4.25 7.25 4.92157 7.25 5.75C7.25 6.57843 6.57843 7.25 5.75 7.25C4.92157 7.25 4.25 6.57843 4.25 5.75C4.25 4.92157 4.92157 4.25 5.75 4.25Z" fill="currentColor" />

</g>
</svg>
