<svg viewBox="0 0 16 16" fill="none" xmlns="http://www.w3.org/2000/svg">
<g transform="translate(1.9999, 0.8103)">
<path d="M6 0C7.59111 0 9.11701 0.622149 10.2422 1.72949C11.3674 2.83708 12 4.33989 12 5.90625C11.9998 9.28211 8.08572 12.8862 6.29297 14.2783C6.1197 14.4129 5.8803 14.4129 5.70703 14.2783C3.91428 12.8862 0.000205668 9.28211 0 5.90625C0 4.33989 0.632594 2.83708 1.75781 1.72949C2.88299 0.622149 4.40889 0 6 0ZM6 4C4.89543 4 4 4.89543 4 6C4 7.10457 4.89543 8 6 8C7.10457 8 8 7.10457 8 6C8 4.89543 7.10457 4 6 4Z" fill="currentColor" />

</g>
</svg>
