<svg viewBox="0 0 16 16" fill="none" xmlns="http://www.w3.org/2000/svg">
<g transform="translate(0.7497, 0.7498)">
<path d="M10.25 4C11.3784 4 12.4601 4.45031 13.2568 5.25098C14.0534 6.05151 14.5 7.13706 14.5 8.26758C14.4999 9.91998 13.4655 11.4692 12.5713 12.5205C12.1084 13.0647 11.6471 13.5159 11.3027 13.8311C11.1301 13.989 10.9856 14.1148 10.8828 14.2012C10.8316 14.2442 10.7905 14.2774 10.7617 14.3008L10.7178 14.3359L10.7139 14.3398C10.7137 14.34 10.7131 14.34 10.25 13.75L10.7129 14.3398C10.4411 14.5532 10.0589 14.5532 9.78711 14.3398L10.25 13.75C9.78693 14.34 9.7863 14.34 9.78613 14.3398L9.78223 14.3359L9.73828 14.3008C9.70947 14.2774 9.66837 14.2442 9.61719 14.2012C9.51444 14.1148 9.3699 13.989 9.19727 13.8311C8.85288 13.5159 8.3916 13.0647 7.92871 12.5205C7.09038 11.5349 6.12877 10.1117 6.01172 8.57617L6 8.26758C6 7.13706 6.44659 6.05151 7.24316 5.25098C8.03991 4.45031 9.12164 4 10.25 4ZM10.25 5.5C9.52185 5.5 8.82265 5.79102 8.30664 6.30957C7.79066 6.82823 7.5 7.53259 7.5 8.26758L7.50781 8.47168C7.5896 9.49875 8.26909 10.6057 9.07129 11.5488C9.4832 12.0331 9.8972 12.4393 10.209 12.7246C10.2224 12.7369 10.237 12.748 10.25 12.7598C10.263 12.748 10.2776 12.7369 10.291 12.7246C10.6028 12.4393 11.0168 12.0331 11.4287 11.5488C12.2843 10.5429 12.9999 9.35059 13 8.26758C13 7.53259 12.7093 6.82823 12.1934 6.30957C11.7419 5.85586 11.1501 5.57641 10.5215 5.51367L10.25 5.5ZM12.4287 0.00878906C13.3113 0.0982963 14 0.843826 14 1.75V3.25H12.5V1.75C12.5 1.62931 12.4145 1.52833 12.3008 1.50488L12.25 1.5H1.75C1.61193 1.5 1.5 1.61193 1.5 1.75V8.75C1.5 8.88807 1.61193 9 1.75 9H4.25V10.5H1.75C0.783502 10.5 0 9.7165 0 8.75V1.75C4.02666e-09 0.783502 0.783501 0 1.75 0H12.25L12.4287 0.00878906ZM10.25 7.25C10.8023 7.25 11.25 7.69772 11.25 8.25C11.25 8.80228 10.8023 9.25 10.25 9.25C9.69772 9.25 9.25 8.80228 9.25 8.25C9.25 7.69772 9.69772 7.25 10.25 7.25Z" fill="currentColor" />

</g>
</svg>
