<svg viewBox="0 0 16 16" fill="none" xmlns="http://www.w3.org/2000/svg">
<g transform="translate(1.2502, 0.5002)">
<path d="M6.75 0C8.82107 0 10.5 1.67893 10.5 3.75H9C9 2.50736 7.99264 1.5 6.75 1.5C5.50736 1.5 4.5 2.50736 4.5 3.75V5.5H11.75C12.7165 5.5 13.5 6.2835 13.5 7.25V13.25C13.5 14.2165 12.7165 15 11.75 15H1.75C0.783501 15 0 14.2165 0 13.25V7.25C0 6.2835 0.783502 5.5 1.75 5.5H3V3.75C3 1.67893 4.67893 0 6.75 0ZM1.75 7C1.61193 7 1.5 7.11193 1.5 7.25V13.25C1.5 13.3881 1.61193 13.5 1.75 13.5H11.75C11.8881 13.5 12 13.3881 12 13.25V7.25C12 7.11193 11.8881 7 11.75 7H1.75Z" fill="currentColor" />

</g>
</svg>
