<svg viewBox="0 0 16 16" fill="none" xmlns="http://www.w3.org/2000/svg">
<g transform="translate(1.5002, 1.7502)">
<path d="M4.25 1.5H1.5V11H4.25V12.5H0.75C0.551192 12.5 0.360358 12.4208 0.219727 12.2803C0.0791794 12.1397 0.000117103 11.9488 0 11.75V0.75C1.31268e-06 0.335788 0.335787 2.87616e-07 0.75 0H4.25V1.5ZM12.7803 5.71973C12.9208 5.86036 13 6.05119 13 6.25C12.9999 6.44876 12.9208 6.63972 12.7803 6.78027L9.78027 9.78027L8.71973 8.71973L10.4395 7H3.75V5.5H10.4395L8.71973 3.78027L9.78027 2.71973L12.7803 5.71973Z" fill="currentColor" />

</g>
</svg>
