<svg viewBox="0 0 16 16" fill="none" xmlns="http://www.w3.org/2000/svg">
<g transform="translate(1.0003, 2.0003)">
<path d="M6.15528 1.89379C6.1554 0.438452 7.78725 -0.468635 9.09278 0.253167L11.0684 1.34496L13.0156 2.42114C14.3269 3.14894 14.3271 4.97888 13.0215 5.71215L11.0742 6.78735L9.09864 7.87914C7.79309 8.60685 6.16141 7.6949 6.16114 6.23949V5.95141C6.1611 5.88597 6.14315 5.82162 6.10938 5.76489C6.07554 5.70811 6.02642 5.66016 5.96778 5.62719C5.90933 5.59446 5.84297 5.57684 5.77539 5.57641C5.70753 5.57601 5.64012 5.59296 5.58106 5.62524L3.78028 6.62524L1.98536 7.6184C1.92651 7.65099 1.8778 7.69848 1.84375 7.75512C1.80975 7.81179 1.79107 7.87616 1.79102 7.94164C1.79102 8.00716 1.80976 8.07146 1.84375 8.12817C1.8778 8.18491 1.92643 8.23225 1.98536 8.26489L3.78028 9.25903L5.58106 10.258C5.64012 10.2903 5.70753 10.3073 5.77539 10.3069C5.84305 10.3064 5.90928 10.2889 5.96778 10.2561C6.02636 10.2232 6.07554 10.1761 6.10938 10.1194C6.14316 10.0627 6.16104 9.99825 6.16114 9.93285V9.3518C6.16074 9.28739 6.17789 9.22318 6.21094 9.16723C6.24398 9.1114 6.29209 9.0649 6.34961 9.03246C6.40714 9.00009 6.47248 8.98298 6.53907 8.98266C6.60573 8.98236 6.67161 8.99861 6.7295 9.03051L7.64649 9.53637C7.70676 9.56845 7.75731 9.61571 7.792 9.67309C7.82651 9.7303 7.84442 9.79537 7.84375 9.86156V10.1067C7.8435 11.5621 6.21182 12.4687 4.90625 11.7463L2.93067 10.6545L0.983403 9.57934C-0.327757 8.85147 -0.327845 7.021 0.983403 6.29321L2.93067 5.21801L4.90039 4.12133C6.206 3.39354 7.83776 4.30545 7.83789 5.76098V6.04906C7.83794 6.11449 7.85589 6.17886 7.88965 6.23559C7.92349 6.29237 7.97261 6.33934 8.03125 6.37231C8.0899 6.40528 8.15674 6.42269 8.22461 6.42309C8.2923 6.42341 8.35906 6.40742 8.41797 6.37524L10.2188 5.37524L12.0137 4.3811C12.0726 4.34848 12.1222 4.30206 12.1563 4.24535C12.1902 4.18874 12.2079 4.12425 12.208 4.05883C12.208 3.99326 12.1903 3.92807 12.1563 3.87133C12.1222 3.81465 12.0726 3.7682 12.0137 3.73559L10.2188 2.74145L8.41797 1.74145C8.35907 1.70928 8.29229 1.69327 8.22461 1.6936C8.15676 1.694 8.08989 1.71142 8.03125 1.74438C7.97261 1.77735 7.92349 1.82432 7.88965 1.8811C7.85588 1.93781 7.83796 2.0022 7.83789 2.06762V2.64867C7.83829 2.71302 7.82108 2.77635 7.78809 2.83227C7.75508 2.88816 7.70794 2.93553 7.65039 2.96801C7.59277 3.0005 7.5267 3.01751 7.45997 3.01781C7.39328 3.01809 7.32743 3.00093 7.26954 2.96899L6.35254 2.4641C6.29227 2.43202 6.24172 2.38477 6.20704 2.32739C6.17246 2.27007 6.15455 2.20426 6.15528 2.13793V1.89379Z" fill="currentColor" />

</g>
</svg>
