<svg viewBox="0 0 16 16" fill="none" xmlns="http://www.w3.org/2000/svg">
<g transform="translate(2.3587, 1.3333)">
<path d="M7.28511 0C9.10572 0 10.3108 0.8034 11.1943 1.98145C11.328 2.14205 11.3017 2.35639 11.1679 2.49023L9.82905 3.77539C9.64164 3.96277 9.34671 3.90909 9.21284 3.72168C8.78446 3.05234 8.19517 2.59668 7.36519 2.59668C6.34796 2.59688 5.43803 3.26692 5.4648 4.73926C5.4648 4.9534 5.4644 5.22106 5.49116 5.46191H8.62398C8.89157 5.46191 9.05191 5.70252 9.02534 5.94336L8.70405 7.3623C8.65051 7.57649 8.4901 7.68359 8.30269 7.68359H5.89351C6.0006 8.75454 5.67882 10.2009 5.0898 10.7363H9.96284C10.2036 10.7364 10.391 10.977 10.3378 11.2178L9.9355 13.0117C9.88199 13.199 9.74869 13.3328 9.56148 13.333H0.40425C0.136693 13.3329 -0.0237998 13.0924 0.00288238 12.8516L0.324171 11.4326C0.35094 11.2988 0.457919 11.1645 0.59175 11.1377C2.03735 10.6826 3.21547 9.58529 3.21577 8.46094C3.21577 8.32717 3.18882 8.08608 3.16206 7.95215L3.10835 7.71094H1.58296C1.342 7.71094 1.15441 7.46948 1.20796 7.22852L1.47554 5.7832C1.52908 5.59582 1.68954 5.48832 1.87691 5.48828H2.59956C2.51932 5.11363 2.49312 4.73891 2.49312 4.36426C2.49312 1.63341 4.71491 8.6518e-05 7.28511 0Z" fill="currentColor" />

</g>
</svg>
