<svg viewBox="0 0 16 16" fill="none" xmlns="http://www.w3.org/2000/svg">
<g transform="translate(2.9999, 1.0003)">
<path d="M7.30142 0C7.5682 0.000118879 7.76694 0.247701 7.71255 0.511719L7.45669 1.74219C8.92912 2.00878 10.0006 2.93186 10.0006 4.35352C10.0005 5.65357 9.09713 6.53597 8.00161 6.84961C8.87486 7.28314 9.43702 8.13527 9.43716 9.18164C9.43716 10.9605 7.85379 12.3368 5.36684 12.3369H5.12466L4.84927 13.6621C4.80801 13.8603 4.63438 14.0015 4.43423 14L2.88052 13.9883C2.61459 13.9863 2.41736 13.7377 2.47231 13.4746L2.71255 12.3369H0.315087C0.113584 12.3367 -0.0356856 12.1478 0.00746978 11.9492L2.20376 1.91113C2.23571 1.76554 2.36375 1.66211 2.51138 1.66211H5.05923L5.33852 0.335938C5.37973 0.139759 5.55101 6.53964e-05 5.74966 0H7.30142ZM3.33071 7.76172L2.77114 10.3184H5.30727C6.40278 10.3184 7.03957 9.76487 7.0397 8.97266C7.0397 8.19518 6.41767 7.76172 5.39614 7.76172H3.33071ZM4.22036 3.69531L3.74282 5.87793H6.1813C7.02509 5.87786 7.61684 5.48861 7.61684 4.72656C7.61673 4.08356 7.1285 3.69538 6.28481 3.69531H4.22036Z" fill="currentColor" />

</g>
</svg>
