<svg viewBox="0 0 16 16" fill="none" xmlns="http://www.w3.org/2000/svg">
<g transform="translate(1.0003, 1.0003)">
<path d="M11.6602 7.29302e-08C11.9674 -7.65437e-05 12.2718 0.0602146 12.5557 0.177734C12.8394 0.295203 13.0972 0.467487 13.3145 0.68457C13.5317 0.90179 13.7047 1.1605 13.8223 1.44434C13.9397 1.72793 14 2.03193 14 2.33887V11.6592C14 12.2798 13.7532 12.8756 13.3145 13.3145C12.8757 13.7532 12.2807 13.9998 11.6602 14H2.33984C1.71935 13.9998 1.1243 13.7532 0.685547 13.3145C0.246775 12.8756 -1.92777e-08 12.2798 0 11.6592V2.33887C3.95745e-05 2.03193 0.0603258 1.72793 0.177734 1.44434C0.295325 1.1605 0.468273 0.90179 0.685547 0.68457C0.902759 0.467486 1.16059 0.295203 1.44434 0.177734C1.7282 0.0602146 2.03261 -7.65437e-05 2.33984 7.29302e-08H11.6602ZM3.28516 2.5459C3.1882 2.5459 3.09152 2.56444 3.00195 2.60156C2.91248 2.63866 2.83117 2.69322 2.7627 2.76172C2.69417 2.8303 2.63959 2.91236 2.60254 3.00195C2.5656 3.09143 2.5468 3.18737 2.54688 3.28418V10.7168C2.54685 10.8136 2.56556 10.9096 2.60254 10.999C2.63956 11.0885 2.69425 11.1697 2.7627 11.2383C2.83114 11.3068 2.91251 11.3613 3.00195 11.3984C3.09152 11.4356 3.1882 11.4551 3.28516 11.4551H10.7168C10.9124 11.4548 11.1 11.3767 11.2383 11.2383C11.3765 11.0999 11.454 10.9124 11.4541 10.7168V3.28418C11.4541 3.08842 11.3767 2.9002 11.2383 2.76172C11.1 2.62346 10.9123 2.54615 10.7168 2.5459H3.28516ZM8.4873 5.08105C8.54309 5.08113 8.59889 5.0928 8.65039 5.11426C8.70173 5.13571 8.74885 5.1666 8.78809 5.20605C8.82741 5.24561 8.85774 5.29313 8.87891 5.34473C8.90002 5.39621 8.91131 5.45119 8.91113 5.50684V8.47363C8.91129 8.52937 8.90011 8.58517 8.87891 8.63672C8.8577 8.6882 8.8264 8.73496 8.78711 8.77441C8.7478 8.81386 8.70083 8.84579 8.64941 8.86719C8.59811 8.88846 8.54285 8.89934 8.4873 8.89941H5.5127C5.45693 8.89941 5.40111 8.88858 5.34961 8.86719C5.29826 8.84582 5.25215 8.81381 5.21289 8.77441C5.17358 8.73494 5.14227 8.68824 5.12109 8.63672C5.09991 8.58514 5.08864 8.52939 5.08887 8.47363V5.50684C5.08862 5.4513 5.09913 5.39614 5.12012 5.34473C5.14126 5.29309 5.17257 5.24562 5.21191 5.20605C5.25117 5.16658 5.29822 5.13568 5.34961 5.11426C5.40114 5.09283 5.45688 5.08105 5.5127 5.08105H8.4873Z" fill="currentColor" />

</g>
</svg>
