<svg viewBox="0 0 16 16" fill="none" xmlns="http://www.w3.org/2000/svg">
<g transform="translate(2.8865, 0.5002)">
<path d="M7.86723 0C8.02357 0.000167363 8.13968 0.154409 8.10648 0.317383L7.8057 1.79492C8.8331 2.13143 9.66809 2.7351 10.1836 3.47949C10.2573 3.58618 10.2348 3.73432 10.1387 3.81836L8.87211 4.92383C8.76065 5.02111 8.59503 4.99495 8.50395 4.87598C7.86374 4.03928 6.85911 3.56641 5.77152 3.56641C4.58875 3.56656 3.80009 4.1258 3.79984 4.92969C3.79984 5.59397 4.39187 5.94374 6.19926 6.36328H6.20023C8.50061 6.88777 9.55271 7.90214 9.55277 9.61523C9.55277 11.763 7.90796 13.3488 5.34184 13.5166L5.09086 14.792C5.06698 14.9131 4.96666 15 4.85063 15H2.86234C2.7041 14.9997 2.58744 14.842 2.62406 14.6777L2.94242 13.25C1.66258 12.8624 0.634296 12.1065 0.0391017 11.1748C-0.0306166 11.0657 -0.00390443 10.919 0.0937892 10.8379L1.48344 9.6875C1.59794 9.59288 1.76383 9.62475 1.84867 9.75C2.57993 10.8293 3.69992 11.4686 5.04887 11.4688C6.26496 11.4688 7.18559 10.8388 7.18559 9.92969C7.18542 9.23065 6.72519 8.91599 5.1807 8.56641C2.5186 7.97202 1.46691 6.92313 1.46684 5.20996C1.46684 3.2222 3.03737 1.72032 5.40629 1.52539L5.66605 0.208008C5.6899 0.087074 5.78948 0.000234877 5.90531 0H7.86723Z" fill="currentColor" />

</g>
</svg>
