<svg viewBox="0 0 16 16" fill="none" xmlns="http://www.w3.org/2000/svg">
<g transform="translate(2.2828, 1.3333)">
<path d="M8.06116 0C9.3634 0 10.4259 0.360131 11.2594 0.942383C11.4712 1.09069 11.4932 1.3974 11.3102 1.58008L10.0758 2.81445C9.93334 2.95678 9.71304 2.9702 9.54456 2.85938C9.15693 2.60421 8.68554 2.4502 8.06116 2.4502C7.44229 2.45022 5.58051 2.5235 4.83167 5.42773H7.42347C7.60726 5.42773 7.74608 5.59529 7.71058 5.77539L7.41956 7.26074C7.38077 7.4572 7.20859 7.59846 7.00843 7.59863H4.54359C4.51488 10.5652 6.30703 10.9014 6.87269 10.9014C7.40525 10.9013 7.88593 10.7625 8.32191 10.4717C8.4886 10.3603 8.71024 10.3786 8.85218 10.5205L9.94788 11.6162C10.1205 11.7889 10.112 12.075 9.92444 12.2314C9.1131 12.9053 8.09756 13.333 6.71058 13.333C5.0423 13.333 1.62864 12.5977 1.66077 7.59863H0.291632C0.108323 7.59839 -0.0296707 7.43092 0.00549938 7.25098L0.297492 5.76562C0.336047 5.56924 0.507561 5.42795 0.707648 5.42773H1.87073C2.84608 0.368524 6.88997 5.87611e-05 8.06116 0Z" fill="currentColor" />

</g>
</svg>
