<svg viewBox="0 0 16 16" fill="none" xmlns="http://www.w3.org/2000/svg">
<g transform="translate(0.5685, 1.0685)">
<path d="M14.8635 12.8031L13.8029 13.8636L7.30293 7.36362L8.36348 6.30307L14.8635 12.8031ZM4.86738 9.59213C4.91317 9.46921 5.08727 9.46916 5.13301 9.59213L5.59004 10.8265C5.60436 10.8652 5.63438 10.8961 5.67305 10.9105L6.90742 11.3675C7.03075 11.4132 7.03075 11.5875 6.90742 11.6331L5.67305 12.0892C5.6344 12.1036 5.60439 12.1345 5.59004 12.1732L5.13301 13.4076C5.08734 13.5308 4.9131 13.5307 4.86738 13.4076L4.41035 12.1732C4.39599 12.1344 4.36512 12.1035 4.32637 12.0892L3.09297 11.6331C2.96964 11.5875 2.96964 11.4132 3.09297 11.3675L4.32637 10.9105C4.36514 10.8961 4.396 10.8653 4.41035 10.8265L4.86738 9.59213ZM1.32637 4.12045C1.38586 3.95967 1.6134 3.95981 1.67305 4.12045L1.96992 4.92123C1.98861 4.97165 2.02794 5.01186 2.07832 5.03061L2.8791 5.32651C3.03996 5.38603 3.03996 5.61366 2.8791 5.67319L2.07832 5.96909C2.02796 5.98781 1.98864 6.0281 1.96992 6.07846L1.67305 6.87924C1.6135 7.04005 1.38588 7.04009 1.32637 6.87924L1.03047 6.07846C1.01173 6.02798 0.971606 5.98778 0.921094 5.96909L0.120312 5.67319C-0.0400834 5.61349 -0.0401249 5.38616 0.120312 5.32651L0.921094 5.03061C0.971661 5.0119 1.01175 4.9718 1.03047 4.92123L1.32637 4.12045ZM7.36348 5.30307L6.30293 6.36362L4.30293 4.36362L5.36348 3.30307L7.36348 5.30307ZM7.92109 0.112641C7.9769 -0.0375896 8.18942 -0.0375045 8.24531 0.112641L8.61641 1.11459C8.63392 1.16193 8.67161 1.19962 8.71895 1.21713L9.7209 1.58823C9.87086 1.6442 9.871 1.85662 9.7209 1.91245L8.71895 2.28256C8.67162 2.30007 8.63393 2.33779 8.61641 2.3851L8.24531 3.38706C8.18955 3.53755 7.9768 3.5376 7.92109 3.38706L7.55 2.3851C7.53246 2.33785 7.49571 2.30006 7.44844 2.28256L6.44648 1.91245C6.29591 1.85673 6.29591 1.64395 6.44648 1.58823L7.44844 1.21713C7.49572 1.1996 7.5325 1.16189 7.55 1.11459L7.92109 0.112641Z" fill="currentColor" />

</g>
</svg>
