<svg viewBox="0 0 16 16" fill="none" xmlns="http://www.w3.org/2000/svg">
<g transform="translate(1.2501, 1.7503)">
<path d="M12.4863 0.0476508C12.7165 -0.0386633 12.9746 -0.00636981 13.1768 0.133588C13.3789 0.27367 13.4999 0.503872 13.5 0.749799V10.2498C13.5 10.5623 13.3062 10.8421 13.0137 10.9519L9.01367 12.4519C8.84388 12.5156 8.65612 12.5156 8.48633 12.4519L4.75 11.0506L1.01367 12.4519C0.78342 12.5383 0.525395 12.506 0.323242 12.366C0.121105 12.2259 0 11.9958 0 11.7498V2.7498C6.41967e-05 2.43734 0.193828 2.15749 0.486328 2.04765L4.48633 0.547651C4.59317 0.507593 4.70768 0.49213 4.82031 0.502729L4.93164 0.52226L8.70508 1.46562L12.4863 0.0476508ZM1.5 3.26933V10.6668L4 9.72929V2.33183L1.5 3.26933ZM5.5 9.72929L8 10.6668V2.83476L5.5 2.20976V9.72929ZM9.5 2.76933V10.6668L12 9.72929V1.83183L9.5 2.76933Z" fill="currentColor" />

</g>
</svg>
