<svg viewBox="0 0 16 16" fill="none" xmlns="http://www.w3.org/2000/svg">
<g transform="translate(0.2896, 2.2500)">
<path d="M14.6709 0C14.9307 3.44802e-05 15.1719 0.134563 15.3086 0.355469C15.4451 0.576437 15.4578 0.852575 15.3418 1.08496L14.0879 3.59277V10.75C14.0879 11.1641 13.7519 11.4998 13.3379 11.5H2.00391C1.58984 11.4998 1.25391 11.1641 1.25391 10.75V3.59277L0 1.08496L1.3418 0.415039L2.46777 2.66699H5.54004L6.66699 0.415039L6.7207 0.324219C6.8594 0.123234 7.08929 0 7.33789 0H14.6709ZM2.75391 10H5.25391V4.16699H2.75391V10ZM6.75391 10H12.5879V4.16699H6.75391V10ZM7.21777 2.66699H12.874L13.458 1.5H7.80078L7.21777 2.66699Z" fill="currentColor" />

</g>
</svg>
