<svg viewBox="0 0 16 16" fill="none" xmlns="http://www.w3.org/2000/svg">
<g transform="translate(1.2501, 1.5002)">
<path d="M11.8867 0.00580314C12.0848 -0.0189528 12.2852 0.0361176 12.4424 0.159123C12.5996 0.282282 12.7011 0.463728 12.7246 0.662053V0.66303C12.7247 0.663804 12.7254 0.665446 12.7256 0.666936C12.726 0.67011 12.7268 0.675416 12.7275 0.681584C12.729 0.69401 12.7306 0.712549 12.7334 0.736272C12.7391 0.784806 12.7473 0.856832 12.7578 0.948186C12.7789 1.13119 12.8095 1.39542 12.8457 1.71772C12.9181 2.3623 13.0148 3.24314 13.1113 4.18647C13.3025 6.05444 13.5 8.2276 13.5 9.27143C13.4999 10.8105 12.2167 12.0156 10.6875 12.0156C9.15835 12.0155 7.87514 10.8104 7.875 9.27143C7.87514 7.73244 9.15835 6.52737 10.6875 6.52729C11.1082 6.52729 11.4993 6.62462 11.8486 6.79096C11.782 6.00893 11.7027 5.15549 11.6191 4.33881C11.5232 3.40164 11.4265 2.52604 11.3545 1.88471C11.3426 1.77921 11.3307 1.67985 11.3203 1.58783L4.93457 2.38569C4.94563 2.48313 4.95804 2.58931 4.9707 2.70209C5.04306 3.34668 5.13881 4.22748 5.23535 5.17084C5.42652 7.03885 5.62497 9.21195 5.625 10.2558L5.61035 10.54C5.46388 11.9406 4.24621 12.9999 2.8125 12.9999C1.28325 12.9999 9.19979e-05 11.7949 0 10.2558C0.000136943 8.71676 1.28328 7.51166 2.8125 7.51166C3.22412 7.51169 3.61694 7.60108 3.97266 7.75873C3.90625 6.98125 3.82615 6.13408 3.74316 5.32319C3.64725 4.38604 3.55148 3.51039 3.47949 2.86908C3.44351 2.54855 3.41355 2.28607 3.39258 2.10444C3.38214 2.01403 3.37376 1.94333 3.36816 1.89545C3.36539 1.87168 3.36374 1.85299 3.3623 1.84076C3.36161 1.83493 3.36071 1.83012 3.36035 1.82709C3.36022 1.82563 3.36044 1.8239 3.36035 1.82319L3.35938 1.82221C3.3113 1.41301 3.60284 1.04129 4.01172 0.990178L11.8867 0.00580314ZM2.8125 9.01166C2.06391 9.01166 1.50014 9.59219 1.5 10.2558C1.50009 10.9195 2.06388 11.4999 2.8125 11.4999C3.56104 11.4999 4.12491 10.9194 4.125 10.2558C4.12486 9.59224 3.56101 9.01175 2.8125 9.01166ZM10.6875 8.02729C9.93899 8.02737 9.37514 8.60786 9.375 9.27143C9.37515 9.93499 9.93899 10.5155 10.6875 10.5156C11.4317 10.5156 11.9923 9.94185 11.999 9.28315C11.9591 8.65164 11.3761 8.02729 10.6875 8.02729Z" fill="currentColor" />

</g>
</svg>
