<svg viewBox="0 0 16 16" fill="none" xmlns="http://www.w3.org/2000/svg">
<g transform="translate(0.2500, 1.2500)">
<path d="M5.25 0C7.34653 1.1514e-06 9.15563 1.22909 9.99707 3.00586C10.0809 3.00188 10.1652 3 10.25 3C13.1495 3 15.5 5.35051 15.5 8.25C15.5 11.1495 13.1495 13.5 10.25 13.5C8.15301 13.5 6.34315 12.2706 5.50195 10.4932C5.41845 10.4971 5.33448 10.5 5.25 10.5C2.35051 10.5 2.25317e-07 8.14949 0 5.25C6.38848e-08 2.35051 2.35051 -1.13503e-06 5.25 0ZM10.4463 4.50488C10.4809 4.74833 10.5 4.99699 10.5 5.25C10.5 7.52149 9.05707 9.45507 7.03809 10.1865C7.69478 11.2734 8.88753 12 10.25 12C12.3211 12 14 10.3211 14 8.25C14 6.24477 12.4261 4.60697 10.4463 4.50488ZM5.25 1.5C3.17894 1.5 1.5 3.17893 1.5 5.25C1.5 7.25488 3.07339 8.89154 5.05273 8.99414C5.01824 8.75104 5 8.50263 5 8.25C5 5.97872 6.44225 4.04411 8.46094 3.3125C7.8041 2.22628 6.61199 1.5 5.25 1.5ZM8.96289 4.72656C7.52579 5.25168 6.5 6.63111 6.5 8.25C6.5 8.4273 6.51233 8.60172 6.53613 8.77246C7.97352 8.2475 9 6.8691 9 5.25C9 5.07232 8.98679 4.89765 8.96289 4.72656Z" fill="currentColor" />

</g>
</svg>
