<svg viewBox="0 0 16 16" fill="none" xmlns="http://www.w3.org/2000/svg">
<g transform="translate(1.1665, 1.2500)">
<path d="M6.5 2.49994H1.75C1.61193 2.49994 1.5 2.61187 1.5 2.74994V11.7499C1.50023 11.8878 1.61207 11.9999 1.75 11.9999H10.75C10.8879 11.9999 10.9998 11.8878 11 11.7499V7.24994H12.5V11.7499C12.4998 12.7162 11.7164 13.4999 10.75 13.4999H1.75C0.783642 13.4999 0.000228107 12.7162 0 11.7499V2.74994C0 1.78345 0.783502 0.999944 1.75 0.999944H6.5V2.49994ZM10.6992 0.166936C10.9933 -0.0719142 11.4259 -0.0542771 11.7002 0.218694L13.4453 1.95502C13.5862 2.09538 13.6666 2.2864 13.667 2.4853C13.6672 2.68407 13.5886 2.87574 13.4482 3.01655L9.68164 6.79487C9.36795 7.10951 8.98244 7.34424 8.55859 7.47748L6.47461 8.13178C6.20885 8.21519 5.91823 8.14458 5.7207 7.94819C5.52335 7.75168 5.4512 7.46139 5.5332 7.19526L6.17578 5.11713C6.30849 4.68777 6.54481 4.29749 6.86328 3.98041L10.6426 0.218694L10.6992 0.166936ZM7.9209 5.04291C7.77618 5.18703 7.6687 5.36536 7.6084 5.56049L7.3877 6.27143L8.1084 6.04584C8.30091 5.98532 8.47662 5.87912 8.61914 5.73627L11.8555 2.48823L11.1709 1.80756L7.9209 5.04291Z" fill="currentColor" />

</g>
</svg>
