<svg viewBox="0 0 16 16" fill="none" xmlns="http://www.w3.org/2000/svg">
<g transform="translate(0.2500, 2.3601)">
<path d="M10.9463 5.94676L8.80957 8.0825L10.9463 10.2192L9.88574 11.2798L7.74902 9.14304L5.61328 11.2798L4.55273 10.2192L6.68848 8.0825L4.55273 5.94676L5.61328 4.88621L7.74902 7.02195L9.88574 4.88621L10.9463 5.94676ZM2.7998 2.69676L3.31738 3.23972C2.18885 4.31571 1.50004 5.79265 1.5 7.41648H0C3.52922e-05 5.35466 0.878352 3.49414 2.2832 2.15476L2.7998 2.69676ZM13.2168 2.15476C14.6216 3.49414 15.5 5.35466 15.5 7.41648H14C14 5.79265 13.3112 4.31571 12.1826 3.23972L12.7002 2.69676L13.2168 2.15476ZM3.8877 0.978982C6.25454 -0.326327 9.24546 -0.326327 11.6123 0.978982L11.25 1.63523L10.8877 2.29246C8.97176 1.23583 6.52824 1.23583 4.6123 2.29246L4.25 1.63523L3.8877 0.978982Z" fill="currentColor" />

</g>
</svg>
