<svg viewBox="0 0 16 16" fill="none" xmlns="http://www.w3.org/2000/svg">
<g transform="translate(1.6250, 1.7501)">
<path d="M9.0002 0C9.19912 4.52683e-07 9.38983 0.0790759 9.53048 0.219727L12.2805 2.96973C12.5733 3.26262 12.5733 3.7374 12.2805 4.03027L5.40548 10.9053C5.36961 10.9411 5.32936 10.9723 5.28731 11H12.7502V12.5H0.750204C0.509242 12.4999 0.282734 12.3839 0.141806 12.1885C0.000924738 11.993 -0.0377925 11.7413 0.0382903 11.5127L1.41329 7.3877C1.45007 7.27736 1.51273 7.17701 1.59493 7.09473L8.46993 0.219727L8.58419 0.125977C8.70643 0.0444837 8.85112 4.19114e-05 9.0002 0ZM2.78145 8.0293L1.93673 10.5635L4.47091 9.71875L10.6897 3.5L9.0002 1.81055L2.78145 8.0293Z" fill="currentColor" />

</g>
</svg>
