<svg viewBox="0 0 16 16" fill="none" xmlns="http://www.w3.org/2000/svg">
<g transform="translate(2.2498, 0.7497)">
<path d="M8.28022 13.5303C7.60776 14.2027 6.64876 14.5 5.74994 14.5C4.85112 14.5 3.89215 14.2027 3.21967 13.5303L4.28022 12.4697C4.60774 12.7972 5.14883 13 5.74994 13C6.35104 13 6.89217 12.7972 7.21967 12.4697L8.28022 13.5303ZM5.74994 0C7.8518 2.34517e-05 9.66195 1.48387 10.0742 3.54492L11.4853 10.6025C11.5294 10.8229 11.4725 11.0518 11.33 11.2256C11.1876 11.3993 10.9746 11.5 10.7499 11.5H0.749942C0.525267 11.5 0.312318 11.3993 0.169864 11.2256C0.0274099 11.0518 -0.0294758 10.8229 0.0145905 10.6025L1.42572 3.54492C1.83794 1.48386 3.64806 0 5.74994 0ZM5.74994 1.5C4.3631 1.5 3.16941 2.47896 2.8974 3.83887L1.66498 10H9.8349L8.60248 3.83887C8.33048 2.47897 7.13677 1.50002 5.74994 1.5Z" fill="currentColor" />

</g>
</svg>
