<svg viewBox="0 0 16 16" fill="none" xmlns="http://www.w3.org/2000/svg">
<g transform="translate(2.1210, 0.7497)">
<path d="M8.40858 13.5303C7.73611 14.2027 6.77711 14.5 5.87831 14.5C4.97952 14.4999 4.02045 14.2027 3.34803 13.5303L4.40858 12.4697C4.73606 12.7972 5.27727 12.9999 5.87831 13C6.47937 13 7.0205 12.7972 7.34803 12.4697L8.40858 13.5303ZM5.87831 0C8.06095 0 9.94284 1.53547 10.3803 3.67383L11.7465 10.3525C11.8148 10.6869 11.5585 11 11.2172 11H0.539441C0.19814 10.9999 -0.057227 10.6869 0.0111203 10.3525L1.37733 3.67383C1.81477 1.53561 3.69581 0.000128272 5.87831 0Z" fill="currentColor" />

</g>
</svg>
