<svg viewBox="0 0 16 16" fill="none" xmlns="http://www.w3.org/2000/svg">
<g transform="translate(2.2500, 2.2500)">
<path d="M1.25 9C1.94036 9 2.5 9.55964 2.5 10.25C2.5 10.9404 1.94036 11.5 1.25 11.5C0.559644 11.5 0 10.9404 0 10.25C0 9.55964 0.559644 9 1.25 9ZM5.75 9C6.44036 9 7 9.55964 7 10.25C7 10.9404 6.44036 11.5 5.75 11.5C5.05964 11.5 4.5 10.9404 4.5 10.25C4.5 9.55964 5.05964 9 5.75 9ZM10.25 9C10.9404 9 11.5 9.55964 11.5 10.25C11.5 10.9404 10.9404 11.5 10.25 11.5C9.55964 11.5 9 10.9404 9 10.25C9 9.55964 9.55964 9 10.25 9ZM1.25 4.5C1.94036 4.5 2.5 5.05964 2.5 5.75C2.5 6.44036 1.94036 7 1.25 7C0.559644 7 0 6.44036 0 5.75C0 5.05964 0.559644 4.5 1.25 4.5ZM5.75 4.5C6.44036 4.5 7 5.05964 7 5.75C7 6.44036 6.44036 7 5.75 7C5.05964 7 4.5 6.44036 4.5 5.75C4.5 5.05964 5.05964 4.5 5.75 4.5ZM10.25 4.5C10.9404 4.5 11.5 5.05964 11.5 5.75C11.5 6.44036 10.9404 7 10.25 7C9.55964 7 9 6.44036 9 5.75C9 5.05964 9.55964 4.5 10.25 4.5ZM1.25 0C1.94036 0 2.5 0.559644 2.5 1.25C2.5 1.94036 1.94036 2.5 1.25 2.5C0.559644 2.5 0 1.94036 0 1.25C0 0.559644 0.559644 0 1.25 0ZM5.75 0C6.44036 0 7 0.559644 7 1.25C7 1.94036 6.44036 2.5 5.75 2.5C5.05964 2.5 4.5 1.94036 4.5 1.25C4.5 0.559644 5.05964 0 5.75 0ZM10.25 0C10.9404 0 11.5 0.559644 11.5 1.25C11.5 1.94036 10.9404 2.5 10.25 2.5C9.55964 2.5 9 1.94036 9 1.25C9 0.559644 9.55964 0 10.25 0Z" fill="currentColor" />

</g>
</svg>
