<svg viewBox="0 0 16 16" fill="none" xmlns="http://www.w3.org/2000/svg">
<g transform="translate(1.2500, 0.8750)">
<path d="M1.5 7.25C1.50006 8.49259 2.5074 9.49999 3.75 9.5H9.75C10.9926 9.5 11.9999 8.49259 12 7.25H13.5C13.4999 9.32102 11.821 11 9.75 11H7.5V12H7.75C8.99264 12 10 13.0074 10 14.25H8.5C8.5 13.8358 8.16421 13.5 7.75 13.5H5.75C5.3358 13.5 5 13.8358 5 14.25H3.5C3.5 13.0074 4.50737 12 5.75 12H6V11H3.75C1.67898 11 5.64355e-05 9.32101 0 7.25H1.5ZM7.46777 0C8.86441 0.000136715 10.039 1.04715 10.1992 2.43457L10.7451 7.16406C10.7696 7.37649 10.7018 7.58939 10.5596 7.74902C10.4173 7.90855 10.2138 8 10 8H3.5L3.41992 7.99609C3.23595 7.97635 3.06484 7.8885 2.94043 7.74902C2.79815 7.58939 2.73041 7.37649 2.75488 7.16406L3.30078 2.43457C3.46098 1.04716 4.6356 0.000146995 6.03223 0H7.46777ZM6.03223 1.5C5.39753 1.50015 4.86392 1.97596 4.79102 2.60645L4.34082 6.5H9.1582L8.70898 2.60645C8.63608 1.97595 8.10247 1.50014 7.46777 1.5H6.03223Z" fill="currentColor" />

</g>
</svg>
