<svg viewBox="0 0 16 16" fill="none" xmlns="http://www.w3.org/2000/svg">
<g transform="translate(0.7497, 0.7497)">
<path d="M1.5 7.25C1.5 10.4256 4.07436 13 7.25 13V14.5C3.24594 14.5 0 11.2541 0 7.25H1.5ZM13.5283 8.93262L14.2529 9.12598C13.5714 11.6695 11.6186 13.5328 9.26465 14.2158L9.05566 13.4951L8.84668 12.7754C10.7175 12.2326 12.2636 10.754 12.8037 8.73828L13.5283 8.93262ZM10.8105 5.24805L6.81055 9.74805C6.66371 9.91324 6.45142 10.0057 6.23047 10C6.00954 9.99425 5.80212 9.89132 5.66406 9.71875L3.66406 7.21875L4.83594 6.28125L6.28027 8.08691L9.68945 4.25195L10.8105 5.24805ZM7.25 0C11.2541 0 14.5 3.24594 14.5 7.25H13C13 4.07436 10.4256 1.5 7.25 1.5V0ZM5.44434 1.00488L5.65332 1.72461C3.7825 2.26741 2.23645 3.74605 1.69629 5.76172L0.97168 5.56738L0.24707 5.37402C0.928605 2.8305 2.8814 0.96716 5.23535 0.28418L5.44434 1.00488Z" fill="currentColor" />

</g>
</svg>
