<svg viewBox="0 0 16 16" fill="none" xmlns="http://www.w3.org/2000/svg">
<g transform="translate(0.2896, 1.1251)">
<path d="M11.9209 6.75C12.6502 6.75003 13.3495 7.04531 13.8652 7.57031C14.3808 8.09527 14.6708 8.85725 14.6709 9.59961C14.6709 10.9962 12.8022 12.995 12.1455 13.6543C12.0187 13.7816 11.8232 13.7816 11.6963 13.6543C11.0396 12.995 9.1709 10.9962 9.1709 9.59961C9.17097 8.85719 9.4609 8.09528 9.97656 7.57031C10.4923 7.04528 11.1916 6.75 11.9209 6.75ZM14.6709 0C14.9307 4.21319e-05 15.1719 0.134569 15.3086 0.355469C15.4451 0.576433 15.4578 0.85258 15.3418 1.08496L13.9209 3.92676V5.25H12.4209V4.5H6.4209V10H7.6709V11.5H2.1709C1.75668 11.5 1.4209 11.1642 1.4209 10.75V3.92676L0 1.08496L1.3418 0.415039L2.63477 3H5.20703L6.5 0.415039C6.62705 0.160979 6.88684 0 7.1709 0H14.6709ZM11.9209 8.5C11.3514 8.5 10.8898 8.96999 10.8896 9.5498C10.8896 10.1297 11.3514 10.5996 11.9209 10.5996C12.4904 10.5995 12.9521 10.1297 12.9521 9.5498C12.952 8.97003 12.4903 8.50006 11.9209 8.5ZM2.9209 10H4.9209V4.5H2.9209V10ZM6.88477 3H12.707L13.457 1.5H7.63477L6.88477 3Z" fill="currentColor" />

</g>
</svg>
