<svg viewBox="0 0 16 16" fill="none" xmlns="http://www.w3.org/2000/svg">
<g transform="translate(0.2896, 0.8598)">
<path d="M12.4209 5.5C14.0777 5.50008 15.4209 6.8432 15.4209 8.5C15.4209 10.1568 14.0777 11.4999 12.4209 11.5H8.48145L10.2012 13.2197L9.14062 14.2803L6.14062 11.2803C5.84773 10.9874 5.84773 10.5126 6.14062 10.2197L9.14062 7.21973L10.2012 8.28027L8.48145 10H12.4209C13.2493 9.99992 13.9209 9.32838 13.9209 8.5C13.9209 7.67162 13.2493 7.00008 12.4209 7H11.1709V5.5H12.4209ZM14.6709 0C14.9307 4.21319e-05 15.1719 0.134569 15.3086 0.355469C15.4451 0.576433 15.4578 0.85258 15.3418 1.08496L13.8418 4.08496C13.7148 4.33901 13.4549 4.49995 13.1709 4.5H6.4209V7.75H4.9209V4.5H2.9209V10H4.6709V11.5H2.1709C1.75668 11.5 1.4209 11.1642 1.4209 10.75V3.92676L0 1.08496L1.3418 0.415039L2.63477 3H5.20703L6.5 0.415039C6.62705 0.160979 6.88684 0 7.1709 0H14.6709ZM6.88477 3H12.707L13.457 1.5H7.63477L6.88477 3Z" fill="currentColor" />

</g>
</svg>
