<svg viewBox="0 0 16 16" fill="none" xmlns="http://www.w3.org/2000/svg">
<g transform="translate(1.3600, 1.3599)">
<path d="M6.87891 1.09834C8.34337 -0.36612 10.7172 -0.366106 12.1816 1.09834C13.646 2.56281 13.6461 4.93664 12.1816 6.40107C10.8987 7.68396 8.91795 7.84259 7.46191 6.87764L5.59082 8.74971L7.39355 10.5524L6.33301 11.613L4.53027 9.81025L3.59082 10.7497L4.72754 11.8864L3.66699 12.947L2.53027 11.8103L1.06055 13.28L0 12.2194L6.40137 5.81709C5.4372 4.36116 5.59633 2.381 6.87891 1.09834ZM11.1211 2.15889C10.2424 1.28023 8.81813 1.28021 7.93945 2.15889C7.06088 3.03757 7.06083 4.46188 7.93945 5.34053C8.81811 6.21907 10.2424 6.21907 11.1211 5.34053C11.9997 4.46188 11.9997 3.03757 11.1211 2.15889Z" fill="currentColor" />

</g>
</svg>
