<svg viewBox="0 0 16 16" fill="none" xmlns="http://www.w3.org/2000/svg">
<g transform="translate(0.6820, 1.9999)">
<path d="M14.6357 12H13.1357V0H14.6357V12ZM3.63574 5.1748L5 4.35742L5.38574 5L5.77148 5.64355L4.09473 6.64844L5.41602 7.96973L4.35547 9.03027L2.88574 7.56055L1.41602 9.03027L0.355469 7.96973L1.67578 6.64844L0 5.64355L0.771484 4.35645L2.13574 5.1748L2.1377 3.5H3.6377L3.63574 5.1748ZM10.1357 5.1748L11.5 4.35742L11.8857 5L12.2715 5.64355L10.5947 6.64844L11.916 7.96973L10.8555 9.03027L9.38574 7.56055L7.91602 9.03027L6.85547 7.96973L8.17578 6.64844L6.5 5.64355L7.27148 4.35645L8.63574 5.1748L8.6377 3.5H10.1377L10.1357 5.1748Z" fill="currentColor" />

</g>
</svg>
