<svg viewBox="0 0 16 16" fill="none" xmlns="http://www.w3.org/2000/svg">
<g transform="translate(1.9998, 1.9998)">
<path d="M2.5 7C3.88071 7 5 8.11929 5 9.5C5 10.8807 3.88071 12 2.5 12C1.11929 12 0 10.8807 0 9.5C0 8.11929 1.11929 7 2.5 7ZM9.5 7C10.8807 7 12 8.11929 12 9.5C12 10.8807 10.8807 12 9.5 12C8.11929 12 7 10.8807 7 9.5C7 8.11929 8.11929 7 9.5 7ZM2.5 8.5C1.94772 8.5 1.5 8.94772 1.5 9.5C1.5 10.0523 1.94772 10.5 2.5 10.5C3.05228 10.5 3.5 10.0523 3.5 9.5C3.5 8.94772 3.05228 8.5 2.5 8.5ZM9.5 8.5C8.94772 8.5 8.5 8.94772 8.5 9.5C8.5 10.0523 8.94772 10.5 9.5 10.5C10.0523 10.5 10.5 10.0523 10.5 9.5C10.5 8.94772 10.0523 8.5 9.5 8.5ZM2.5 0C3.88071 0 5 1.11929 5 2.5C5 3.88071 3.88071 5 2.5 5C1.11929 5 0 3.88071 0 2.5C0 1.11929 1.11929 0 2.5 0ZM9.5 0C10.8807 0 12 1.11929 12 2.5C12 3.88071 10.8807 5 9.5 5C8.11929 5 7 3.88071 7 2.5C7 1.11929 8.11929 0 9.5 0ZM9.5 1.5C8.94772 1.5 8.5 1.94772 8.5 2.5C8.5 3.05228 8.94772 3.5 9.5 3.5C10.0523 3.5 10.5 3.05228 10.5 2.5C10.5 1.94772 10.0523 1.5 9.5 1.5Z" fill="currentColor" />

</g>
</svg>
