<svg viewBox="0 0 16 16" fill="none" xmlns="http://www.w3.org/2000/svg">
<g transform="translate(1.7500, 1.7500)">
<path d="M10.75 0C11.7165 0 12.5 0.783502 12.5 1.75V10.75C12.5 11.7165 11.7165 12.5 10.75 12.5H1.75C0.783501 12.5 1.61064e-08 11.7165 0 10.75V1.75C0 0.783501 0.783502 1.61064e-08 1.75 0H10.75ZM8.56055 11H10.75C10.8881 11 11 10.8881 11 10.75V8.56055L8.56055 11ZM1.75 1.5C1.61193 1.5 1.5 1.61193 1.5 1.75V10.75C1.5 10.8881 1.61193 11 1.75 11H6.43945L11 6.43945V1.75C11 1.61193 10.8881 1.5 10.75 1.5H1.75Z" fill="currentColor" />

</g>
</svg>
