<svg viewBox="0 0 16 16" fill="none" xmlns="http://www.w3.org/2000/svg">
<g transform="translate(0.2500,1.5559)">
<path d="M11.6875 0.960938C12.7106 0.875711 14.0861 0.893771 15.1357 1.52344C15.3614 1.65886 15.4997 1.90285 15.5 2.16602V11.5C15.4999 11.7591 15.3656 11.9999 15.1455 12.1367C14.9254 12.2734 14.6503 12.2866 14.418 12.1719C12.549 11.2495 10.4241 11.7033 7.94238 12.2568C5.58443 12.7828 2.88243 13.4043 0.415039 12.1709C0.161097 12.0439 0.000105979 11.7839 0 11.5V2C9.38936e-05 1.74018 0.13445 1.49794 0.355469 1.36133C0.576447 1.22481 0.852587 1.21307 1.08496 1.3291C1.68624 1.62974 2.59897 1.86463 3.52832 2.02344C4.44742 2.18047 5.30263 2.25 5.75 2.25V3.75C5.19742 3.75 4.25508 3.66936 3.27539 3.50195C2.69721 3.40315 2.07692 3.26902 1.5 3.0918V11.0127C3.30498 11.7197 5.32071 11.305 7.61621 10.793C9.62142 10.3457 11.8726 9.81438 14 10.4141V2.63965C13.4019 2.42171 12.6137 2.38836 11.8125 2.45508C11.3452 2.494 10.9116 2.5633 10.5674 2.62402C10.3683 2.65916 10.2744 2.67719 10.123 2.7041C10.0338 2.71997 9.8735 2.75 9.75 2.75V1.25C9.70968 1.25 9.71612 1.25335 9.86133 1.22754C9.94444 1.21276 10.1532 1.17374 10.3076 1.14648C10.6716 1.08226 11.1551 1.0053 11.6875 0.960938ZM8.5 0V6.68945L10.2197 4.96973L11.2803 6.03027L8.28027 9.03027C8.00567 9.30488 7.57095 9.32234 7.27637 9.08203L7.21973 9.03027L4.21973 6.03027L5.28027 4.96973L7 6.68945V0H8.5Z" fill="currentColor" />

</g>
</svg>
