<svg viewBox="0 0 16 16" fill="none" xmlns="http://www.w3.org/2000/svg">
<g transform="translate(1.0003, 1.0003)">
<path d="M7 0C10.866 0 14 3.13401 14 7C14 10.866 10.866 14 7 14C3.13401 14 0 10.866 0 7C0 3.13401 3.13401 0 7 0ZM3.5 6C2.94776 6.00005 2.5 6.44775 2.5 7C2.50003 7.55223 2.94778 7.99995 3.5 8C4.05226 8 4.49997 7.55226 4.5 7C4.5 6.44772 4.05228 6 3.5 6ZM7 6C6.44774 6.00003 6 6.44774 6 7C6.00007 7.55221 6.44778 7.99997 7 8C7.55224 8 7.99993 7.55223 8 7C8 6.44772 7.55228 6 7 6ZM10.5 6C9.94776 6.00005 9.5 6.44775 9.5 7C9.50003 7.55223 9.94778 7.99995 10.5 8C11.0523 8 11.5 7.55226 11.5 7C11.5 6.44772 11.0523 6 10.5 6Z" fill="currentColor" />

</g>
</svg>
