<svg viewBox="0 0 16 16" fill="none" xmlns="http://www.w3.org/2000/svg">
<g transform="translate(3.0000, 7.0000)">
<path d="M1 0C1.55228 0 2 0.447715 2 1C2 1.55228 1.55228 2 1 2C0.447715 2 0 1.55228 0 1C1.61064e-08 0.447715 0.447715 1.61065e-08 1 0ZM5 0C5.55228 0 6 0.447715 6 1C6 1.55228 5.55228 2 5 2C4.44772 2 4 1.55228 4 1C4 0.447715 4.44772 1.61065e-08 5 0ZM9 0C9.55228 0 10 0.447715 10 1C10 1.55228 9.55228 2 9 2C8.44772 2 8 1.55228 8 1C8 0.447715 8.44772 1.61065e-08 9 0Z" fill="currentColor" />

</g>
</svg>
