<svg viewBox="0 0 16 16" fill="none" xmlns="http://www.w3.org/2000/svg">
<g transform="translate(1.4997, 0.7497)">
<path d="M8.73436 6.68465C8.82582 6.43852 9.17416 6.43852 9.26561 6.68465L10.1787 9.1534C10.2074 9.23094 10.2691 9.29267 10.3467 9.32136L12.8154 10.2345C13.0615 10.3259 13.0615 10.6742 12.8154 10.7657L10.3467 11.6788C10.2691 11.7075 10.2074 11.7692 10.1787 11.8468L9.26561 14.3155C9.17416 14.5616 8.82582 14.5616 8.73436 14.3155L7.82128 11.8468C7.79258 11.7692 7.73086 11.7075 7.65331 11.6788L5.18456 10.7657C4.93844 10.6742 4.93844 10.3259 5.18456 10.2345L7.65331 9.32136C7.73086 9.29267 7.79258 9.23094 7.82128 9.1534L8.73436 6.68465ZM2.80077 2.13875C2.86927 1.95388 3.13071 1.95388 3.19921 2.13875L3.88475 3.99031C3.90628 4.04828 3.95179 4.09378 4.00975 4.11531L5.86132 4.80086C6.0462 4.86935 6.04619 5.1308 5.86132 5.19929L4.00975 5.88484C3.95179 5.90637 3.90629 5.95188 3.88475 6.00984L3.19921 7.8614C3.13072 8.0463 2.86926 8.0463 2.80077 7.8614L2.11522 6.00984C2.09369 5.95188 2.04819 5.90637 1.99022 5.88484L0.13866 5.19929C-0.0462172 5.1308 -0.046223 4.86935 0.13866 4.80086L1.99022 4.11531C2.04819 4.09378 2.0937 4.04828 2.11522 3.99031L2.80077 2.13875ZM10.8144 0.128981C10.8782 -0.0429942 11.1218 -0.0429935 11.1855 0.128981L11.6094 1.27449C11.6294 1.32832 11.6717 1.37067 11.7256 1.3907L12.8711 1.81453C13.0431 1.87824 13.0431 2.12191 12.8711 2.18562L11.7256 2.60945C11.6717 2.62948 11.6294 2.67183 11.6094 2.72566L11.1855 3.87117C11.1218 4.04314 10.8782 4.04314 10.8144 3.87117L10.3906 2.72566C10.3706 2.67183 10.3282 2.62948 10.2744 2.60945L9.12889 2.18562C8.95692 2.12191 8.95692 1.87824 9.12889 1.81453L10.2744 1.3907C10.3282 1.37067 10.3706 1.32832 10.3906 1.27449L10.8144 0.128981Z" fill="currentColor" />

</g>
</svg>
