<svg viewBox="0 0 16 16" fill="none" xmlns="http://www.w3.org/2000/svg">
<g transform="translate(0.7497, 1.4997)">
<path d="M12.75 3C13.7165 3 14.5 3.7835 14.5 4.75V11.25C14.5 12.2165 13.7165 13 12.75 13H1.75C0.783502 13 0 12.2165 0 11.25V4.75C0 3.7835 0.783502 3 1.75 3H12.75ZM1.75 4.5C1.61193 4.5 1.5 4.61193 1.5 4.75V11.25C1.5 11.3881 1.61193 11.5 1.75 11.5H12.75C12.8881 11.5 13 11.3881 13 11.25V4.75C13 4.61193 12.8881 4.5 12.75 4.5H1.75ZM7.25 5.75C8.49264 5.75 9.5 6.75736 9.5 8C9.5 9.24264 8.49264 10.25 7.25 10.25C6.00736 10.25 5 9.24264 5 8C5 6.75736 6.00736 5.75 7.25 5.75ZM7.25 7.25C6.83579 7.25 6.5 7.58579 6.5 8C6.5 8.41421 6.83579 8.75 7.25 8.75C7.66421 8.75 8 8.41421 8 8C8 7.58579 7.66421 7.25 7.25 7.25ZM7.25 0C8.06341 0 8.68932 0.230453 9.11816 0.47168C9.33083 0.59135 9.49404 0.713097 9.6084 0.80957C9.66572 0.857939 9.7116 0.900596 9.74512 0.933594C9.76171 0.94993 9.77528 0.964144 9.78613 0.975586C9.7916 0.981351 9.79676 0.986832 9.80078 0.991211C9.80265 0.993249 9.80411 0.995352 9.80566 0.99707C9.80643 0.997923 9.8079 0.998252 9.80859 0.999023L9.80957 1.00098H9.81055L8.68945 1.99902H8.69043L8.69336 2.00195H8.69238C8.68415 1.99386 8.66723 1.97769 8.6416 1.95605C8.58939 1.912 8.50216 1.846 8.38184 1.77832C8.14399 1.64463 7.76955 1.5 7.25 1.5C6.73045 1.5 6.35601 1.64463 6.11816 1.77832C5.99784 1.846 5.91061 1.912 5.8584 1.95605C5.83277 1.97769 5.81585 1.99386 5.80762 2.00195H5.80664L5.80957 1.99902H5.81055L4.68945 1.00098H4.69043L4.69141 0.999023C4.6921 0.998252 4.69357 0.997923 4.69434 0.99707C4.69589 0.995352 4.69735 0.993249 4.69922 0.991211C4.70324 0.986832 4.7084 0.981351 4.71387 0.975586C4.72472 0.964144 4.73829 0.94993 4.75488 0.933594C4.7884 0.900596 4.83428 0.857939 4.8916 0.80957C5.00596 0.713097 5.16917 0.59135 5.38184 0.47168C5.81068 0.230453 6.43659 1.12403e-08 7.25 0Z" fill="currentColor" />

</g>
</svg>
