<svg viewBox="0 0 16 16" fill="none" xmlns="http://www.w3.org/2000/svg">
<g transform="translate(0.4699, 1.7501)">
<path d="M10.5303 0C10.7992 0.000174347 11.0482 0.14439 11.1816 0.37793L12.6943 3.02441L14 1.71973L15.0605 2.78027L13.2207 4.61914L11.7656 11.8975C11.6954 12.2477 11.3874 12.4998 11.0303 12.5H4.03027C3.67292 12.5 3.36522 12.2478 3.29492 11.8975L1.83887 4.61914L0 2.78027L1.06055 1.71973L2.36523 3.02441L3.87891 0.37793C4.01247 0.144372 4.26121 0 4.53027 0H10.5303ZM4.64551 11H10.415L11.6152 5H3.44531L4.64551 11ZM3.82324 3.5H11.2373L10.0947 1.5H4.96582L3.82324 3.5Z" fill="currentColor" />

</g>
</svg>
