<svg viewBox="0 0 16 16" fill="none" xmlns="http://www.w3.org/2000/svg">
<g transform="translate(0.1714,1.6427)">
<path d="M10.9551 0.464844L11.5439 0.929688C10.198 2.63325 8.54306 3.36222 6.56445 3.3623C5.61631 3.3623 4.86685 3.72142 4.34863 4.29297C3.82449 4.87125 3.5 5.7094 3.5 6.71484C3.50003 7.88703 3.78099 8.70485 4.24219 9.38184C4.48778 9.74226 4.79298 10.0744 5.15723 10.4053C5.18348 10.015 5.50836 9.70621 5.90527 9.70605H10.7988C11.2115 9.70626 11.5456 10.04 11.5479 10.4521C12.4443 9.71829 13.0778 8.99144 13.4189 7.83105C13.5128 7.51191 13.806 7.29301 14.1387 7.29297H14.1572V6.37891H14.1387C13.806 6.37887 13.5129 6.1599 13.4189 5.84082C13.288 5.39537 12.9771 4.85971 12.5273 4.44238C12.0832 4.03039 11.546 3.77055 10.9551 3.77051V2.27051C12.0107 2.27055 12.8969 2.73795 13.5479 3.3418C14.0317 3.79068 14.4095 4.33586 14.6562 4.87891H14.9072C15.3213 4.87898 15.6571 5.21487 15.6572 5.62891V8.04297C15.657 8.45696 15.3212 8.79289 14.9072 8.79297H14.6709C13.96 10.6069 12.609 11.5667 11.2422 12.5693C11.0144 12.7364 10.712 12.7613 10.46 12.6338C10.2079 12.5061 10.0489 12.2474 10.0488 11.9648V11.2061H6.65527V11.9648C6.6552 12.2474 6.49621 12.5061 6.24414 12.6338C5.99212 12.7613 5.68971 12.7363 5.46191 12.5693C4.51087 11.8716 3.63299 11.1504 3.00293 10.2256C2.46122 9.43035 2.12346 8.51646 2.02832 7.39062C1.64078 7.30979 1.25736 7.15757 0.924805 6.9082C0.354923 6.48065 5.50171e-05 5.81773 0 4.96484H1.5C1.50005 5.36158 1.64533 5.57409 1.8252 5.70898C1.89325 5.75995 1.97452 5.80347 2.06543 5.84082C2.21325 4.8597 2.61175 3.97519 3.2373 3.28516C4.05022 2.38858 5.20868 1.8623 6.56445 1.8623C8.09838 1.86223 9.3144 1.3325 10.3672 0L10.9551 0.464844ZM9.74902 5.88184H6.41602V4.38184H9.74902V5.88184Z" fill="currentColor" />

</g>
</svg>
