<svg viewBox="0 0 16 16" fill="none" xmlns="http://www.w3.org/2000/svg">
<g transform="translate(1.3648, 1.0501)">
<path d="M9.66206 11.1331L10.4062 11.2249C10.2675 12.3526 9.5121 13.367 8.36128 13.7483C7.21411 14.1284 6.00961 13.7681 5.23042 12.9476L6.31831 11.9144C6.72303 12.3405 7.32869 12.5104 7.8896 12.3245C8.45351 12.1376 8.84414 11.633 8.91694 11.0413L9.66206 11.1331ZM1.67573 8.30206C1.41058 8.82097 1.43934 9.47952 1.80757 9.99249C2.32014 10.7061 3.27294 10.8481 3.93647 10.3528C4.50507 9.92824 4.70799 9.15189 4.4394 8.48077L5.13569 8.20147L5.83198 7.92315C6.33925 9.19023 5.97659 10.7007 4.83393 11.554C3.47626 12.5678 1.57519 12.241 0.588817 10.8675C-0.116171 9.88541 -0.174001 8.62348 0.339793 7.61846L1.67573 8.30206ZM10.206 3.97491C11.8982 3.97505 13.2705 5.34718 13.2705 7.03936C13.27 8.73114 11.8979 10.1027 10.206 10.1028C8.51424 10.1026 7.143 8.73107 7.14253 7.03936C7.14253 5.34725 8.51395 3.97516 10.206 3.97491ZM10.206 5.47491C9.34238 5.47516 8.64253 6.17567 8.64253 7.03936C8.643 7.90264 9.34267 8.60259 10.206 8.60284C11.0694 8.6027 11.77 7.90271 11.7705 7.03936C11.7705 6.1756 11.0697 5.47505 10.206 5.47491ZM0.786082 2.47784C1.48183 1.48588 2.65589 1.04632 3.7685 1.2503L3.63276 1.9876L3.498 2.72588C2.94509 2.62452 2.36301 2.84098 2.01362 3.33917C1.51923 4.04452 1.68131 5.04664 2.38179 5.56573C2.96553 5.99774 3.73043 5.95132 4.24311 5.51104L4.73139 6.08038L5.22065 6.64874C4.18172 7.541 2.64018 7.62413 1.48823 6.77081C0.138712 5.77074 -0.178465 3.85336 0.786082 2.47784ZM4.87886 2.13702C5.37743 0.518868 7.08119 -0.381542 8.6894 0.155572C9.83376 0.53796 10.6013 1.54064 10.7646 2.65948L10.0224 2.76788L9.2812 2.87627C9.19455 2.28277 8.78908 1.77062 8.21479 1.57842C7.42224 1.3137 6.56832 1.74809 6.31245 2.57842C6.09389 3.28832 6.38961 4.04597 6.97847 4.42413L6.16792 5.68585C5.02144 4.9495 4.45918 3.5 4.87886 2.13702Z" fill="currentColor" />

</g>
</svg>
