<svg viewBox="0 0 16 16" fill="none" xmlns="http://www.w3.org/2000/svg">
<g transform="translate(0.7497, 1.7497)">
<path d="M12.25 0C13.4926 1.61066e-07 14.5 1.00736 14.5 2.25V7.75C14.5 8.99264 13.4926 10 12.25 10H11.5V11.75C11.5 12.1642 11.1642 12.5 10.75 12.5H3.75C3.33579 12.5 3 12.1642 3 11.75V10H2.25C1.00736 10 2.0133e-08 8.99264 0 7.75V2.25C0 1.00736 1.00736 4.0266e-09 2.25 0H12.25ZM4.5 7.5V11H10V7.5H4.5ZM2.25 1.5C1.83579 1.5 1.5 1.83579 1.5 2.25V7.75C1.5 8.16421 1.83579 8.5 2.25 8.5H3V6.75C3 6.33579 3.33579 6 3.75 6H10.75C11.1642 6 11.5 6.33579 11.5 6.75V8.5H12.25C12.6642 8.5 13 8.16421 13 7.75V2.25C13 1.83579 12.6642 1.5 12.25 1.5H2.25ZM5.75 5H3.25V3.5H5.75V5Z" fill="currentColor" />

</g>
</svg>
