<svg viewBox="0 0 16 16" fill="none" xmlns="http://www.w3.org/2000/svg">
<g transform="translate(1.7500, 1.7500)">
<path d="M6.25 5.5C6.4489 5.5 6.63962 5.57908 6.78027 5.71973C6.92092 5.86037 6.99999 6.0511 7 6.25V11.75C7 12.1642 6.66421 12.5 6.25 12.5H0.75C0.551088 12.5 0.360379 12.4209 0.219727 12.2803C0.079075 12.1396 -1.44104e-10 11.9489 0 11.75V6.25C2.3963e-05 5.83581 0.335803 5.5 0.75 5.5H6.25ZM12.5 11.75C12.5 12.1642 12.1642 12.5 11.75 12.5H8.25V11H11V8.25H12.5V11.75ZM1.5 11H5.5V7H1.5V11ZM9.25 6.25C9.80227 6.25 10.25 6.69773 10.25 7.25C10.25 7.80228 9.80228 8.25 9.25 8.25C8.69772 8.25 8.25 7.80228 8.25 7.25C8.25002 6.69773 8.69773 6.25 9.25 6.25ZM11.75 0C11.9489 9.70979e-09 12.1396 0.0790849 12.2803 0.219727C12.4209 0.360371 12.5 0.551099 12.5 0.75V4.25C12.5 4.44891 12.4209 4.63962 12.2803 4.78027C12.1396 4.92093 11.9489 5 11.75 5H8.25C7.83579 5 7.5 4.66421 7.5 4.25V0.75C7.50002 0.335802 7.8358 9.938e-07 8.25 0H11.75ZM4.25 1.5H1.5V4.25H0V0.75C2.21019e-07 0.335787 0.335787 5.76308e-07 0.75 0H4.25V1.5ZM5.25 2.25C5.80227 2.25 6.24998 2.69773 6.25 3.25C6.25 3.80228 5.80228 4.25 5.25 4.25C4.69772 4.25 4.25 3.80228 4.25 3.25C4.25002 2.69773 4.69773 2.25 5.25 2.25ZM9 3.5H11V1.5H9V3.5Z" fill="currentColor" />

</g>
</svg>
