<svg viewBox="0 0 16 16" fill="none" xmlns="http://www.w3.org/2000/svg">
<g transform="translate(2.2501, 2.2500)">
<path d="M5.74995 0C6.03402 1.94141e-07 6.2938 0.160965 6.42085 0.415039L11.4208 10.415C11.5677 10.7092 11.5061 11.0647 11.2685 11.292C11.0307 11.5193 10.6721 11.5654 10.3847 11.4053L5.74995 8.81934L1.11518 11.4053C0.827829 11.5654 0.4692 11.5193 0.231392 11.292C-0.00613509 11.0647 -0.0677892 10.7092 0.0790482 10.415L5.07905 0.415039C5.20608 0.160969 5.46589 2.22935e-05 5.74995 0ZM2.50776 8.91016L5.38471 7.30664L5.47163 7.26465C5.67979 7.18149 5.91646 7.19583 6.11518 7.30664L8.99116 8.91016L5.74995 2.42676L2.50776 8.91016Z" fill="currentColor" />

</g>
</svg>
