<svg viewBox="0 0 16 16" fill="none" xmlns="http://www.w3.org/2000/svg">
<g transform="translate(0.7501, 0.4699)">
<path d="M14.5 6.53027V7.53027C14.5 10.1536 12.3734 12.2803 9.75 12.2803H4.56055L6.28027 14L5.21973 15.0605L2.21973 12.0605C2.07909 11.9199 2 11.7292 2 11.5303C2.00001 11.3314 2.07909 11.1406 2.21973 11L5.21973 8L6.28027 9.06055L4.56055 10.7803H9.75C11.5449 10.7803 13 9.3252 13 7.53027V6.53027H14.5ZM12.2803 3C12.4209 3.14064 12.5 3.33138 12.5 3.53027C12.5 3.72917 12.4209 3.9199 12.2803 4.06055L9.28027 7.06055L8.21973 6L9.93945 4.28027H4.75C2.9551 4.28027 1.50003 5.73538 1.5 7.53027V8.53027H0V7.53027C3.4094e-05 4.90695 2.12667 2.78027 4.75 2.78027H9.93945L8.21973 1.06055L9.28027 0L12.2803 3Z" fill="currentColor" />

</g>
</svg>
