<svg viewBox="0 0 16 16" fill="none" xmlns="http://www.w3.org/2000/svg">
<g transform="translate(1.7498, 0.8597)">
<path d="M10.2803 2.5C10.5731 2.79287 10.5731 3.26765 10.2803 3.56055L7.78027 6.06055L6.71973 5L7.93945 3.78027H6C3.51476 3.78027 1.50007 5.79505 1.5 8.28027C1.5 10.7656 3.51472 12.7803 6 12.7803H6.25C8.87329 12.7802 11 10.6536 11 8.03027V7.53027H12.5V8.03027C12.5 11.482 9.70172 14.2802 6.25 14.2803H6C2.68629 14.2803 0 11.594 0 8.28027C6.97088e-05 4.96662 2.68633 2.28027 6 2.28027H7.93945L6.71973 1.06055L7.78027 0L10.2803 2.5Z" fill="currentColor" />

</g>
</svg>
