<svg viewBox="0 0 16 16" fill="none" xmlns="http://www.w3.org/2000/svg">
<g transform="translate(1.7500, 2.3598)">
<path d="M8.25 0C10.5972 1.026e-07 12.5 1.90279 12.5 4.25C12.5 6.59721 10.5972 8.5 8.25 8.5H2.56055L4.28027 10.2197L3.21973 11.2803L0.219727 8.28027C0.0790763 8.13962 1.89503e-06 7.94891 0 7.75C2.30006e-07 7.55109 0.0790768 7.36038 0.219727 7.21973L3.21973 4.21973L4.28027 5.28027L2.56055 7H8.25C9.76878 7 11 5.76878 11 4.25C11 2.73122 9.76878 1.5 8.25 1.5H6.75V0H8.25Z" fill="currentColor" />

</g>
</svg>
