<svg viewBox="0 0 16 16" fill="none" xmlns="http://www.w3.org/2000/svg">
<g transform="translate(0.7497, 0.7497)">
<path d="M7.25 0C11.2541 0 14.5 3.24594 14.5 7.25C14.5 11.2541 11.2541 14.5 7.25 14.5C3.24594 14.5 1.28851e-07 11.2541 0 7.25C0 3.24594 3.24594 2.19047e-07 7.25 0ZM8.74609 10.0273C7.75718 9.99111 6.74182 9.99109 5.75293 10.0273C5.86233 10.5928 6.00572 11.1172 6.18262 11.5771C6.40558 12.1568 6.64295 12.5358 6.85352 12.7578C7.06126 12.9768 7.19701 13 7.25 13C7.30299 13 7.43874 12.9768 7.64648 12.7578C7.85705 12.5358 8.09442 12.1568 8.31738 11.5771C8.49426 11.1173 8.6367 10.5927 8.74609 10.0273ZM4.24609 10.1133C3.59539 10.164 2.97041 10.2335 2.3877 10.3184C2.99982 11.2863 3.89264 12.0579 4.95215 12.5205C4.89318 12.3904 4.83612 12.2554 4.78223 12.1152C4.54932 11.5096 4.37378 10.8301 4.24609 10.1133ZM10.2529 10.1133C10.1252 10.8301 9.95066 11.5097 9.71777 12.1152C9.66383 12.2555 9.60591 12.3903 9.54688 12.5205C10.6066 12.058 11.4991 11.2864 12.1113 10.3184C11.5286 10.2335 10.9036 10.1639 10.2529 10.1133ZM1.74121 5.59961C1.5848 6.12244 1.5 6.67629 1.5 7.25C1.5 7.82338 1.58497 8.37685 1.74121 8.89941C2.45513 8.78154 3.23617 8.68959 4.05469 8.62402C4.01867 8.16859 4 7.70802 4 7.25C4 6.79166 4.01862 6.33075 4.05469 5.875C3.23614 5.80943 2.45515 5.71749 1.74121 5.59961ZM12.7578 5.59961C12.0438 5.71746 11.2629 5.80945 10.4443 5.875C10.4804 6.33077 10.5 6.79163 10.5 7.25C10.5 7.70805 10.4804 8.16857 10.4443 8.62402C11.2628 8.68957 12.0439 8.78157 12.7578 8.89941C12.9141 8.37677 13 7.82348 13 7.25C13 6.67619 12.9143 6.12252 12.7578 5.59961ZM8.94629 5.96484C7.82633 6.00997 6.67267 6.00999 5.55273 5.96484C5.5186 6.38566 5.5 6.81643 5.5 7.25C5.5 7.68324 5.51865 8.11367 5.55273 8.53418C6.67265 8.48903 7.82636 8.48906 8.94629 8.53418C8.98037 8.11365 9 7.68327 9 7.25C9 6.8164 8.98042 6.38569 8.94629 5.96484ZM7.25 1.5C7.19701 1.5 7.06126 1.52315 6.85352 1.74219C6.64295 1.9642 6.40558 2.34323 6.18262 2.92285C6.00582 3.38254 5.86231 3.90661 5.75293 4.47168C6.74185 4.50794 7.75716 4.50792 8.74609 4.47168C8.63672 3.90668 8.49417 3.38249 8.31738 2.92285C8.09442 2.34323 7.85705 1.9642 7.64648 1.74219C7.43874 1.52315 7.30299 1.5 7.25 1.5ZM4.95215 1.97852C3.89274 2.44096 2.99988 3.21291 2.3877 4.18066C2.97042 4.26555 3.59537 4.33506 4.24609 4.38574C4.37376 3.66924 4.54942 2.9901 4.78223 2.38477C4.83623 2.24436 4.89304 2.1089 4.95215 1.97852ZM9.54688 1.97852C9.60604 2.10901 9.66372 2.24423 9.71777 2.38477C9.95056 2.99005 10.1253 3.6693 10.2529 4.38574C10.9036 4.33508 11.5286 4.26553 12.1113 4.18066C11.499 3.21286 10.6065 2.44085 9.54688 1.97852Z" fill="currentColor" />

</g>
</svg>
