<svg viewBox="0 0 16 16" fill="none" xmlns="http://www.w3.org/2000/svg">
<g transform="translate(1.0003, 1.0003)">
<path d="M7.75 1.88379C10.0055 2.21155 11.7885 3.9945 12.1162 6.25H14V7.75H12.1162C11.7885 10.0055 10.0054 11.7874 7.75 12.1152V14H6.25V12.1152C3.99456 11.7874 2.21154 10.0055 1.88379 7.75H0V6.25H1.88379C2.21155 3.9945 3.9945 2.21155 6.25 1.88379V0H7.75V1.88379ZM7 3.3291C4.97253 3.3291 3.3291 4.97253 3.3291 7C3.3291 9.02747 4.97253 10.6709 7 10.6709C9.02747 10.6709 10.6709 9.02747 10.6709 7C10.6709 4.97253 9.02747 3.3291 7 3.3291ZM7 5.5C7.82843 5.5 8.5 6.17157 8.5 7C8.5 7.82843 7.82843 8.5 7 8.5C6.17157 8.5 5.5 7.82843 5.5 7C5.5 6.17157 6.17157 5.5 7 5.5Z" fill="currentColor" />

</g>
</svg>
