<svg viewBox="0 0 16 16" fill="none" xmlns="http://www.w3.org/2000/svg">
<g transform="translate(1.7499, 1.2501)">
<path d="M4.11501 0.012261C4.33886 -0.0286917 4.56901 0.0341132 4.74099 0.183159L12.241 6.68316C12.4773 6.88813 12.562 7.21813 12.4529 7.51128C12.3434 7.80453 12.0628 7.99955 11.7498 7.99957H5.4988V8.99957H11.7498C12.0097 8.9996 12.2518 9.13395 12.3884 9.35503C12.5249 9.57601 12.5367 9.85218 12.4207 10.0845L11.7498 11.4263C11.1146 12.6965 9.81643 13.4994 8.39626 13.4996H4.10427C2.684 13.4996 1.38506 12.6966 0.749774 11.4263L0.0788757 10.0845C-0.0371384 9.85216 -0.0244272 9.576 0.112079 9.35503C0.248766 9.1341 0.489958 8.99957 0.749774 8.99957H3.9988V7.99957H0.749774C0.485899 7.99956 0.241614 7.86081 0.106219 7.63433C-0.0291105 7.40776 -0.0354331 7.12649 0.0896179 6.8941L3.58962 0.394097L3.63356 0.321831C3.7459 0.159942 3.91897 0.0482277 4.11501 0.012261ZM2.09157 10.7554C2.47276 11.5175 3.25214 11.9996 4.10427 11.9996H8.39626C9.24827 11.9994 10.0269 11.5175 10.408 10.7554L10.5359 10.4996H1.96364L2.09157 10.7554ZM2.00563 6.49957H9.74001L4.46559 1.92828L2.00563 6.49957Z" fill="currentColor" />

</g>
</svg>
