<svg viewBox="0 0 16 16" fill="none" xmlns="http://www.w3.org/2000/svg">
<g transform="translate(0.6097, 1.7498)">
<path d="M10.7764 0.168034C11.0709 -0.072214 11.5057 -0.0547332 11.7803 0.219792L14.7803 3.21979L13.7197 4.28034L12 2.56061V6.50007C12 6.7249 11.9997 6.85917 11.9951 6.97565C11.8773 9.97401 9.47394 12.3774 6.47559 12.4952C6.35908 12.4998 6.2249 12.5001 6 12.5001H5.75C2.57437 12.5001 0 9.9257 0 6.75007C6.3587e-05 3.57448 2.5744 1.00007 5.75 1.00007V2.50007C3.40283 2.50007 1.50006 4.40291 1.5 6.75007C1.5 9.09727 3.40279 11.0001 5.75 11.0001H6C6.23925 11.0001 6.33731 11.0003 6.41699 10.9971C8.63308 10.91 10.4099 9.13314 10.4971 6.91706C10.5002 6.83739 10.5 6.7392 10.5 6.50007V2.56061L8.78027 4.28034L7.71973 3.21979L10.7197 0.219792L10.7764 0.168034Z" fill="currentColor" />

</g>
</svg>
