<svg viewBox="0 0 16 16" fill="none" xmlns="http://www.w3.org/2000/svg">
<g transform="translate(0.7497, 1.3748)">
<path d="M8.05976 4.10859C9.14409 4.33452 9.93188 5.03562 10.3264 5.81855L9.65644 6.15644L8.98652 6.49335C8.82144 6.16582 8.50966 5.84363 8.05976 5.66816V7.55488C8.46837 7.65472 8.90276 7.78818 9.27168 8.0041C9.56547 8.17611 9.84753 8.41381 10.0519 8.74824C10.2582 9.08599 10.3585 9.47744 10.3586 9.91035C10.3586 10.6586 10.0329 11.3273 9.46503 11.7941C9.0785 12.1117 8.59769 12.3186 8.05976 12.4182V13.2502H6.55976V12.4289C5.28033 12.2257 4.40926 11.5022 3.91816 10.5549L4.58418 10.2092L5.25019 9.86445C5.49445 10.3356 5.89509 10.7329 6.55976 10.9016V8.75703C6.16376 8.66318 5.74361 8.5417 5.38789 8.34785C5.09703 8.18929 4.81128 7.96631 4.60078 7.64375C4.38655 7.31534 4.28242 6.93201 4.28242 6.508C4.28255 5.80133 4.58418 5.15406 5.14765 4.69941C5.53186 4.38957 6.01302 4.18979 6.55976 4.09589V3.25019H8.05976V4.10859ZM2.12324 2.12324C4.95438 -0.707904 9.5458 -0.707588 12.3771 2.12324C15.2084 4.95454 15.2084 9.54584 12.3771 12.3771L11.3156 11.3156C13.5611 9.07011 13.5611 5.43028 11.3156 3.18476C9.07007 0.939722 5.43012 0.939406 3.18476 3.18476C0.939406 5.43012 0.939722 9.07007 3.18476 11.3156L2.12324 12.3771C-0.707588 9.5458 -0.707904 4.95438 2.12324 2.12324ZM8.05976 10.8762C8.24845 10.8128 8.39917 10.7284 8.51289 10.635C8.74033 10.4479 8.85859 10.2017 8.85859 9.91035C8.85848 9.71496 8.81524 9.60191 8.77168 9.53046C8.72584 9.45556 8.64883 9.37706 8.51386 9.29804C8.38736 9.22405 8.23617 9.16395 8.05976 9.10859V10.8762ZM6.55976 5.63007C6.35466 5.69184 6.1999 5.77706 6.08906 5.8664C5.88245 6.0331 5.78254 6.24974 5.78242 6.508C5.78242 6.67834 5.8208 6.7694 5.85664 6.82441C5.89628 6.8851 5.96802 6.95539 6.10566 7.03046C6.23296 7.09984 6.38465 7.1533 6.55976 7.20527V5.63007Z" fill="currentColor" />

</g>
</svg>
