<svg viewBox="0 0 16 16" fill="none" xmlns="http://www.w3.org/2000/svg">
<g transform="translate(1.9998, 1.3144)">
<path d="M9.81836 0.0223056C10.0423 -0.0336165 10.2799 0.0169426 10.4619 0.159024C10.6436 0.301163 10.75 0.519103 10.75 0.749845C10.7499 3.40976 8.72328 5.08534 6.75 5.43149V9.58188C7.9726 7.98493 9.8129 6.99984 12 6.99984V8.49984C9.31407 8.49984 7.22217 10.419 6.74023 13.3709H5.25977C4.77776 10.4189 2.68594 8.49984 0 8.49984V6.99984C2.18714 6.99984 4.02743 7.98493 5.25 9.58188V5.43149C3.27672 5.08535 1.25012 3.40977 1.25 0.749845C1.25 0.519103 1.35635 0.301163 1.53809 0.159024C1.72006 0.0169426 1.95765 -0.0336165 2.18164 0.0223056C4.72884 0.659096 7.27116 0.659096 9.81836 0.0223056ZM9.10547 1.71078C7.03549 2.09486 4.96353 2.09498 2.89355 1.71078C3.33866 3.14989 4.74794 3.99984 6 3.99984C7.25198 3.99984 8.66026 3.14971 9.10547 1.71078Z" fill="currentColor" />

</g>
</svg>
