<svg viewBox="0 0 16 16" fill="none" xmlns="http://www.w3.org/2000/svg">
<g transform="translate(0.8597, 0.8597)">
<path d="M5.63904 0.873047C6.4571 0.736483 7.26724 0.753334 8.03846 0.90332L7.8949 1.63965L7.75232 2.37598C7.15437 2.25967 6.52475 2.24594 5.88611 2.35254C3.02697 2.83011 1.09541 5.53538 1.57264 8.39453C2.05014 11.2537 4.75547 13.1852 7.61463 12.708C10.4739 12.2305 12.4054 9.52523 11.9281 6.66602L12.6674 6.54199L13.4076 6.41895C14.0213 10.0953 11.538 13.5735 7.8617 14.1875C4.18544 14.8011 0.707114 12.3179 0.0931444 8.6416C-0.520539 4.96535 1.9628 1.48708 5.63904 0.873047ZM14.2806 1.06055L13.0492 2.29102C13.481 2.3948 13.9017 2.62105 14.2806 3L13.2201 4.06055C12.9756 3.81605 12.7425 3.73732 12.5267 3.72461C12.2904 3.71074 12.0247 3.77484 11.7484 3.90039C11.4751 4.02465 11.2284 4.19139 11.0463 4.33301C10.9569 4.40252 10.8866 4.46319 10.8402 4.50488C10.8171 4.52561 10.8006 4.54205 10.7904 4.55176C10.7853 4.55658 10.7813 4.55997 10.7797 4.56152L7.28064 8.06055L6.2201 7L9.7201 3.5V3.49902H9.72107L13.2201 0L14.2806 1.06055Z" fill="currentColor" />

</g>
</svg>
