<svg viewBox="0 0 16 16" fill="none" xmlns="http://www.w3.org/2000/svg">
<g transform="translate(1.3599, 1.3599)">
<path d="M1.53769 1.53769C3.58794 -0.512563 6.91127 -0.512563 8.96152 1.53769C10.8315 3.40787 10.9953 6.33688 9.45371 8.39316L13.2799 12.2193L12.2193 13.2799L8.39316 9.45371C6.33688 10.9953 3.40787 10.8315 1.53769 8.96152C-0.512563 6.91127 -0.512563 3.58794 1.53769 1.53769ZM7.90097 2.59824C6.4365 1.13377 4.0627 1.13377 2.59824 2.59824C1.13377 4.0627 1.13377 6.4365 2.59824 7.90097C4.06272 9.36521 6.43658 9.36536 7.90097 7.90097C9.36536 6.43658 9.36521 4.06272 7.90097 2.59824Z" fill="currentColor" />

</g>
</svg>
