<svg viewBox="0 0 16 16" fill="none" xmlns="http://www.w3.org/2000/svg">
<g transform="translate(1.4982, 1.0525)">
<path d="M6.292 0.0459233C6.42481 -0.0153725 6.5781 -0.015243 6.71095 0.0459233L12.7207 2.81936C12.893 2.89905 13.0051 3.06897 13.0039 3.25881C12.9973 4.30944 12.8681 7.79382 11.502 9.94924C10.2104 11.9869 7.50258 13.4503 6.71876 13.8438C6.58188 13.9125 6.42206 13.9124 6.28517 13.8438C5.50136 13.4504 2.7935 11.9869 1.50196 9.94924C0.135783 7.79382 0.00659957 4.30945 9.21433e-06 3.25881C-0.00116965 3.06893 0.110859 2.89903 0.283212 2.81936L6.292 0.0459233ZM6.50196 8.44924C5.95 8.44924 5.50203 8.8973 5.50196 9.44924C5.50196 10.0012 5.94996 10.4492 6.50196 10.4492C7.05394 10.4492 7.50196 10.0012 7.50196 9.44924C7.5019 8.89731 7.0539 8.44926 6.50196 8.44924ZM5.75196 6.94924H7.25196V2.94924H5.75196V6.94924Z" fill="currentColor" />

</g>
</svg>
