<svg viewBox="0 0 16 16" fill="none" xmlns="http://www.w3.org/2000/svg">
<g transform="translate(0.7496, 0.2500)">
<path d="M7.02581 0.0341762C7.19636 -0.0192918 7.38161 -0.00990762 7.54729 0.0615199L14.0414 2.86132L14.1362 2.91015C14.3475 3.03947 14.4832 3.26741 14.4936 3.51953V3.52539C14.4937 3.5282 14.4944 3.53241 14.4946 3.53711C14.4949 3.54702 14.495 3.56132 14.4955 3.5791C14.4966 3.61549 14.4985 3.66867 14.4994 3.73535C14.5013 3.86891 14.5019 4.06108 14.4975 4.29785C14.4887 4.77099 14.4593 5.42955 14.3774 6.17187C14.2163 7.63076 13.8409 9.52163 12.935 10.9512C12.0948 12.2767 10.7339 13.3958 9.63714 14.1631C8.5299 14.9376 7.61584 15.4054 7.59124 15.418C7.40394 15.5135 7.18648 15.5257 6.99163 15.4541L6.9096 15.418L6.90764 15.417C6.90693 15.4166 6.90575 15.4165 6.90472 15.416C6.90237 15.4148 6.89891 15.4132 6.89495 15.4111C6.88699 15.407 6.8759 15.401 6.86175 15.3936C6.83277 15.3783 6.79044 15.3557 6.73772 15.3271C6.63227 15.27 6.48156 15.1863 6.29729 15.0791C5.92881 14.8647 5.42157 14.5536 4.86468 14.1641C3.76764 13.3968 2.40637 12.2772 1.56585 10.9512C0.659944 9.52162 0.284521 7.63078 0.123465 6.17187C0.0415336 5.42953 0.0121229 4.77099 0.00334799 4.29785C-0.00103407 4.06108 -0.000468099 3.86891 0.00139487 3.73535C0.00232967 3.66868 0.00428477 3.61549 0.00530112 3.5791C0.00579517 3.56132 0.00593666 3.54701 0.00627768 3.53711C0.00646586 3.53242 0.00714869 3.5282 0.00725424 3.52539V3.51953L0.018973 3.41308C0.0642324 3.16972 0.22786 2.96118 0.459403 2.86132L6.95354 0.0615199L7.02581 0.0341762ZM1.50237 4.04394C1.50276 4.11254 1.50185 4.18819 1.50335 4.26953C1.51148 4.70841 1.53888 5.31997 1.61468 6.00683C1.76926 7.40725 2.11609 9.01659 2.83343 10.1484C3.51251 11.2197 4.67662 12.2013 5.72503 12.9346C6.24048 13.2951 6.71117 13.5838 7.05218 13.7822C7.12324 13.8236 7.18967 13.8594 7.24847 13.8926C7.58801 13.7011 8.15035 13.3725 8.77776 12.9336C9.82578 12.2004 10.9887 11.2191 11.6674 10.1484C12.3847 9.0166 12.7316 7.40721 12.8862 6.00683C12.962 5.31998 12.9894 4.70841 12.9975 4.26953C12.999 4.18819 12.9971 4.11254 12.9975 4.04394L7.25042 1.5664L1.50237 4.04394ZM7.25042 5.25C8.07868 5.25006 8.75023 5.92177 8.75042 6.75C8.75042 7.30485 8.44829 7.78837 8.00042 8.04785V9.75H6.50042V8.04785C6.05246 7.78839 5.75042 7.30491 5.75042 6.75C5.75061 5.92173 6.42211 5.25 7.25042 5.25Z" fill="currentColor" />

</g>
</svg>
