<svg viewBox="0 0 16 16" fill="none" xmlns="http://www.w3.org/2000/svg">
<g transform="translate(1.4982, 1.0525)">
<path d="M6.292 0.0459234C6.42481 -0.0153725 6.5781 -0.0152431 6.71095 0.0459234L12.7207 2.81936C12.893 2.89905 13.0051 3.06897 13.0039 3.25881C12.9973 4.30944 12.8681 7.79382 11.502 9.94924C10.2104 11.9869 7.50258 13.4503 6.71876 13.8438C6.58188 13.9125 6.42206 13.9124 6.28517 13.8438C5.50136 13.4504 2.7935 11.9869 1.50196 9.94924C0.135782 7.79382 0.00659957 4.30946 9.21419e-06 3.25881C-0.00116964 3.06893 0.110859 2.89903 0.283212 2.81936L6.292 0.0459234ZM6.50196 4.44924C5.67357 4.44924 5.00201 5.12086 5.00196 5.94924C5.00196 6.5042 5.30396 6.98765 5.75196 7.2471V8.94924H7.25196V7.2471C7.69991 6.98763 8.00196 6.50415 8.00196 5.94924C8.00191 5.12088 7.33033 4.44928 6.50196 4.44924Z" fill="currentColor" />

</g>
</svg>
