<svg viewBox="0 0 16 16" fill="none" xmlns="http://www.w3.org/2000/svg">
<g transform="translate(0.7497, 1.7498)">
<path d="M7.25002 0C7.5424 4.52666e-06 7.80801 0.170179 7.93068 0.435547L10.5508 6.11328L13.3145 4.13965C13.5662 3.96001 13.9025 3.95358 14.1611 4.12305C14.42 4.29294 14.5483 4.60447 14.4834 4.90723L12.9834 11.9072C12.9092 12.2529 12.6036 12.5 12.25 12.5H2.25002C1.89656 12.4998 1.59071 12.2529 1.51662 11.9072L0.0166175 4.90723C-0.0482099 4.60461 0.0802518 4.29298 0.338883 4.12305C0.597511 3.95346 0.933756 3.96013 1.18556 4.13965L3.94826 6.11328L6.56935 0.435547L6.62209 0.34082C6.75901 0.130555 6.99431 0.000183139 7.25002 0ZM4.93068 7.56445C4.83704 7.76701 4.65808 7.91735 4.4424 7.97461C4.22664 8.03166 3.99613 7.98999 3.81447 7.86035L1.88869 6.48438L2.85646 11H11.6436L12.6104 6.48438L10.6856 7.86035C10.5038 7.9899 10.2734 8.03179 10.0576 7.97461C9.84205 7.91725 9.66292 7.76698 9.56935 7.56445L7.25002 2.53906L4.93068 7.56445Z" fill="currentColor" />

</g>
</svg>
