<svg viewBox="0 0 16 16" fill="none" xmlns="http://www.w3.org/2000/svg">
<g transform="translate(0.7503, 0.7503)">
<path d="M13.5292 0.0331788C13.7947 -0.0485188 14.0837 0.0232752 14.2801 0.219702C14.4766 0.416138 14.5484 0.70516 14.4667 0.970679L10.4667 13.9707C10.3768 14.2626 10.1186 14.4707 9.81432 14.497C9.51019 14.5233 9.22062 14.3627 9.08189 14.0908L6.15318 8.34568L0.409043 5.41794C0.137155 5.2792 -0.0234582 4.98964 0.00279257 4.68552C0.0291626 4.38125 0.237274 4.12305 0.52916 4.03318L13.5292 0.0331788ZM2.73912 4.92185L6.56627 6.87205L7.79674 5.64255L8.85728 6.7031L7.62682 7.93259L9.57701 11.7597L12.6161 1.88279L2.73912 4.92185Z" fill="currentColor" />

</g>
</svg>
