<svg viewBox="0 0 16 16" fill="none" xmlns="http://www.w3.org/2000/svg">
<g transform="translate(0.3875, 3.2500)">
<path d="M7.61248 0C9.43408 3.40946e-08 11.0665 0.781591 12.3127 1.63477C13.5651 2.49235 14.4932 3.46772 14.924 3.95703C15.3255 4.41303 15.3255 5.08697 14.924 5.54297C14.4932 6.03228 13.5651 7.00765 12.3127 7.86523C11.0665 8.71841 9.43408 9.5 7.61248 9.5C5.7909 9.49991 4.15838 8.71842 2.91228 7.86523C1.65981 7.0076 0.731686 6.0322 0.300955 5.54297C-0.100318 5.08703 -0.100319 4.41298 0.300955 3.95703L0.714041 3.50879C1.21555 2.98798 1.97268 2.27817 2.91228 1.63477C4.15838 0.781583 5.7909 8.92708e-05 7.61248 0ZM7.61248 1.5C6.21397 1.50009 4.87903 2.10585 3.75994 2.87207C2.7977 3.53094 2.04438 4.27767 1.60857 4.75C2.04438 5.22233 2.7977 5.96906 3.75994 6.62793C4.87903 7.39415 6.21397 7.99991 7.61248 8C9.01102 8 10.3459 7.39413 11.465 6.62793C12.4269 5.96933 13.1795 5.2224 13.6154 4.75C13.1795 4.2776 12.4269 3.53067 11.465 2.87207C10.3459 2.10587 9.01102 1.5 7.61248 1.5ZM7.61248 2.75C8.71704 2.75 9.61247 3.64544 9.61248 4.75C9.61248 5.85457 8.71705 6.75 7.61248 6.75C6.50806 6.74983 5.61248 5.85446 5.61248 4.75C5.61249 3.64555 6.50806 2.75017 7.61248 2.75Z" fill="currentColor" />

</g>
</svg>
