<svg viewBox="0 0 16 16" fill="none" xmlns="http://www.w3.org/2000/svg">
<g transform="translate(0.3875, 1.4698)">
<path d="M14.1428 1.06055L11.9943 3.20801C12.1024 3.27713 12.2097 3.34454 12.3127 3.41504C13.5651 4.2726 14.4932 5.24798 14.924 5.7373C15.3255 6.1933 15.3255 6.86724 14.924 7.32324C14.4932 7.81254 13.5652 8.7879 12.3127 9.64551C11.0665 10.4987 9.4341 11.2803 7.61248 11.2803C6.52853 11.2802 5.51208 11.0025 4.60369 10.5986L2.14276 13.0605L1.08221 12L3.22967 9.85156C3.12202 9.78273 3.01481 9.71571 2.91229 9.64551C1.65983 8.78787 0.731686 7.81247 0.300958 7.32324C-0.100298 6.86729 -0.100341 6.19324 0.300958 5.7373L0.714044 5.28906C1.21556 4.76825 1.97266 4.05845 2.91229 3.41504C4.15838 2.56186 5.7909 1.78036 7.61248 1.78027C8.69586 1.78027 9.71226 2.05742 10.6203 2.46094L13.0822 0L14.1428 1.06055ZM5.75799 9.44434C6.35359 9.65323 6.97614 9.78023 7.61248 9.78027C9.01103 9.78027 10.3459 9.17442 11.465 8.4082C12.4269 7.74958 13.1795 7.00267 13.6154 6.53027C13.1795 6.05788 12.4269 5.31093 11.465 4.65234C11.2842 4.52855 11.0969 4.41042 10.9055 4.29688L5.75799 9.44434ZM7.61248 3.28027C6.21397 3.28036 4.87903 3.88613 3.75994 4.65234C2.79769 5.31121 2.04438 6.05794 1.60858 6.53027C2.04437 7.0026 2.79772 7.74934 3.75994 8.4082C3.94041 8.53176 4.12847 8.64837 4.31951 8.76172L9.466 3.61523C8.87083 3.40668 8.24831 3.28027 7.61248 3.28027Z" fill="currentColor" />

</g>
</svg>
