<svg viewBox="0 0 16 16" fill="none" xmlns="http://www.w3.org/2000/svg">
<g transform="translate(0.7499, 0.7497)">
<path d="M9.1239 0C9.53787 0.000286392 9.8739 0.335963 9.8739 0.75V1.94434L10.4852 2.30176L11.4979 1.71094L11.6327 1.64844C11.7727 1.60042 11.9251 1.59495 12.0702 1.63379C12.2634 1.6856 12.428 1.8126 12.5272 1.98633L14.4012 5.27051C14.6048 5.62761 14.4827 6.08166 14.1278 6.28906L13.1093 6.88379V7.61523L14.1278 8.21094C14.4827 8.41834 14.6048 8.87239 14.4012 9.22949L12.5272 12.5137C12.428 12.6874 12.2634 12.8144 12.0702 12.8662C11.8768 12.918 11.6708 12.89 11.4979 12.7891L10.4852 12.1973L9.8739 12.5547V13.75C9.8739 14.164 9.53787 14.4997 9.1239 14.5H5.37586C4.96183 14.4998 4.62586 14.1641 4.62586 13.75V12.5547L4.01355 12.1973L3.00183 12.7891C2.82901 12.89 2.62291 12.9179 2.42957 12.8662C2.23628 12.8144 2.07179 12.6874 1.97254 12.5137L0.0985117 9.22949C-0.10509 8.87236 0.0169556 8.41832 0.371949 8.21094L1.3905 7.61523V6.88379L0.371949 6.28906C0.0169557 6.08168 -0.105089 5.62764 0.0985117 5.27051L1.97254 1.98633L2.05847 1.86523C2.15569 1.75382 2.2846 1.67263 2.42957 1.63379C2.62291 1.58206 2.82901 1.60998 3.00183 1.71094L4.01355 2.30176L4.62586 1.94434V0.75C4.62586 0.335923 4.96183 0.000220855 5.37586 0H9.1239ZM6.12586 2.375C6.12586 2.64147 5.98477 2.88796 5.75476 3.02246L4.39246 3.81836C4.15878 3.95479 3.86928 3.95482 3.63562 3.81836L2.89929 3.3877L1.76843 5.36816L2.51941 5.80664C2.74931 5.94112 2.89042 6.18775 2.8905 6.4541V8.0459C2.89042 8.31225 2.74931 8.55888 2.51941 8.69336L1.76843 9.13086L2.89929 11.1113L3.63562 10.6816C3.86928 10.5452 4.15878 10.5452 4.39246 10.6816L5.75476 11.4775C5.98477 11.612 6.12586 11.8585 6.12586 12.125V13H8.3739V12.125C8.3739 11.8585 8.51493 11.612 8.745 11.4775L10.1073 10.6816L10.1971 10.6367C10.4122 10.5472 10.6597 10.5622 10.8641 10.6816L11.5995 11.1113L12.7303 9.13086L11.9803 8.69336C11.7504 8.5589 11.6093 8.31228 11.6093 8.0459V6.4541C11.6093 6.18772 11.7504 5.9411 11.9803 5.80664L12.7303 5.36816L11.5995 3.3877L10.8641 3.81836C10.6305 3.95486 10.341 3.95476 10.1073 3.81836L8.745 3.02246C8.51493 2.88797 8.3739 2.64151 8.3739 2.375V1.5H6.12586V2.375ZM7.25086 4.5C8.76964 4.5 10.0009 5.73122 10.0009 7.25C10.0009 8.76878 8.76964 10 7.25086 10C5.73218 9.99987 4.50086 8.7687 4.50086 7.25C4.50086 5.7313 5.73218 4.50013 7.25086 4.5ZM7.25086 6C6.56061 6.00013 6.00086 6.55973 6.00086 7.25C6.00086 7.94027 6.56061 8.49987 7.25086 8.5C7.94121 8.5 8.50086 7.94036 8.50086 7.25C8.50086 6.55964 7.94121 6 7.25086 6Z" fill="currentColor" />

</g>
</svg>
