<svg viewBox="0 0 16 16" fill="none" xmlns="http://www.w3.org/2000/svg">
<g transform="translate(1.5836, 0.9166)">
<path d="M10.75 0C11.9003 0.000176259 12.8328 0.932673 12.833 2.08301C12.8328 3.23334 11.9003 4.16682 10.75 4.16699C10.232 4.16699 9.75943 3.97604 9.39551 3.66406L4.14844 6.48926C4.1591 6.57464 4.16699 6.66173 4.16699 6.75C4.16697 6.87923 4.15258 7.00585 4.12988 7.12891L9.4873 10.4258C9.83726 10.1588 10.2751 10 10.75 10C11.9003 10.0002 12.8328 10.9327 12.833 12.083C12.8328 13.2333 11.9003 14.1668 10.75 14.167C9.59952 14.167 8.66717 13.2335 8.66699 12.083C8.66701 11.9535 8.67936 11.8264 8.70215 11.7031L3.34473 8.40723C2.99495 8.67382 2.55754 8.83294 2.08301 8.83301C0.932673 8.83283 0.000175904 7.90034 0 6.75C9.66308e-08 5.59952 0.932564 4.66717 2.08301 4.66699C2.60011 4.66707 3.07236 4.85697 3.43652 5.16895L8.68262 2.34473C8.67186 2.25911 8.667 2.17129 8.66699 2.08301C8.66717 0.932564 9.59952 -5.02893e-08 10.75 0ZM10.75 11.5C10.5408 11.5 10.3568 11.6098 10.2529 11.7783C10.1986 11.8665 10.1671 11.9699 10.167 12.083C10.1672 12.405 10.4279 12.667 10.75 12.667C11.0719 12.6668 11.3328 12.4049 11.333 12.083C11.3328 11.7611 11.0719 11.5002 10.75 11.5ZM2.08301 6.16699C1.76099 6.16717 1.5 6.42794 1.5 6.75C1.50018 7.07191 1.7611 7.33283 2.08301 7.33301C2.29196 7.33289 2.47716 7.22395 2.58105 7.05566C2.63544 6.96747 2.66693 6.86317 2.66699 6.75C2.66699 6.42794 2.40502 6.16717 2.08301 6.16699ZM10.75 1.5C10.4279 1.5 10.1672 1.76099 10.167 2.08301C10.167 2.18428 10.1924 2.27803 10.2363 2.35938C10.336 2.54362 10.5292 2.66699 10.75 2.66699C11.0719 2.66682 11.3328 2.40492 11.333 2.08301C11.3328 1.7611 11.0719 1.50018 10.75 1.5Z" fill="currentColor" />

</g>
</svg>
