<svg viewBox="0 0 16 16" fill="none" xmlns="http://www.w3.org/2000/svg">
<g transform="translate(0.2501, 1.1251)">
<path d="M11.9998 6.75C12.7291 6.75007 13.4285 7.04534 13.9442 7.57031C14.4597 8.09527 14.7498 8.85728 14.7498 9.59961C14.7498 10.9961 12.8812 12.9949 12.2245 13.6543C12.0976 13.7817 11.9011 13.7817 11.7743 13.6543C11.1173 12.9947 9.24984 10.996 9.24984 9.59961C9.24992 8.85719 9.53985 8.09528 10.0555 7.57031C10.5712 7.04532 11.2705 6.75 11.9998 6.75ZM9.24984 0C10.2162 0.000126455 10.9998 0.78358 10.9998 1.75V3H14.7498C14.9805 3.00007 15.1986 3.10634 15.3407 3.28809C15.4827 3.47003 15.5333 3.70771 15.4774 3.93164L14.9774 5.93164L13.5223 5.56836L13.7899 4.5H1.70981L3.28793 10.8105C3.31577 10.9218 3.4164 11 3.53109 11H8.24984V12.5H3.53109C2.72821 12.5 2.02775 11.9536 1.83285 11.1748L0.0223056 3.93164C-0.0336165 3.70765 0.0169426 3.47006 0.159024 3.28809C0.301163 3.10635 0.519103 3 0.749845 3H4.49984V1.75C4.49984 0.783502 5.28335 8.05319e-09 6.24984 0H9.24984ZM11.9998 8.5C11.4304 8.5 10.9687 8.96999 10.9686 9.5498C10.9686 10.1297 11.4303 10.5996 11.9998 10.5996C12.5693 10.5995 13.0311 10.1296 13.0311 9.5498C13.031 8.97008 12.5692 8.50013 11.9998 8.5ZM6.24984 1.5C6.11177 1.5 5.99984 1.61193 5.99984 1.75V3H9.49984V1.75C9.49984 1.61201 9.38781 1.50013 9.24984 1.5H6.24984Z" fill="currentColor" />

</g>
</svg>
