<svg viewBox="0 0 16 16" fill="none" xmlns="http://www.w3.org/2000/svg">
<g transform="translate(0.4585, 1.6252)">
<path d="M4.66699 10.75C5.21928 10.75 5.66699 11.1977 5.66699 11.75C5.66682 12.3021 5.21917 12.75 4.66699 12.75C4.11482 12.75 3.66717 12.3021 3.66699 11.75C3.66699 11.1977 4.11471 10.75 4.66699 10.75ZM12 10.75C12.5523 10.75 13 11.1977 13 11.75C12.9998 12.3021 12.5522 12.75 12 12.75C11.448 12.7498 11.0002 12.302 11 11.75C11 11.1978 11.4479 10.7502 12 10.75ZM1.78613 0.00976562C2.0584 0.0536141 2.28861 0.244964 2.37793 0.512695L2.87402 2H14.333C14.5701 2 14.7931 2.11253 14.9346 2.30273C15.076 2.49293 15.1199 2.73878 15.0518 2.96582L13.0518 9.63184C12.9565 9.94886 12.6641 10.167 12.333 10.167H4.33301C4.00214 10.1667 3.71041 9.94875 3.61523 9.63184L1.62207 2.9873L1.12598 1.5H0V0H1.66699L1.78613 0.00976562ZM4.8916 8.66699H11.7754L13.3252 3.5H3.3418L4.8916 8.66699Z" fill="currentColor" />

</g>
</svg>
