<svg viewBox="0 0 16 16" fill="none" xmlns="http://www.w3.org/2000/svg">
<g transform="translate(0.2502, 1.7500)">
<path d="M9.24984 0C10.2162 0.000212795 10.9998 0.783633 10.9998 1.75V3H14.7498C14.9805 3.00014 15.1986 3.10638 15.3407 3.28809C15.4826 3.47001 15.5332 3.70776 15.4774 3.93164L13.6668 11.1748C13.472 11.9535 12.7713 12.4998 11.9686 12.5H3.53012C2.72744 12.4998 2.02773 11.9535 1.83285 11.1748L0.0223059 3.93164C-0.0336164 3.70765 0.0169417 3.47006 0.159025 3.28809C0.301165 3.1064 0.519136 3 0.749845 3H4.49984V1.75C4.49984 0.783522 5.28337 3.29931e-05 6.24984 0H9.24984ZM3.28793 10.8105C3.31575 10.9216 3.41562 10.9998 3.53012 11H11.9686C12.0831 10.9998 12.184 10.9217 12.2118 10.8105L13.7899 4.5H1.70981L3.28793 10.8105ZM6.24984 1.5C6.1118 1.50003 5.99984 1.61195 5.99984 1.75V3H9.49984V1.75C9.49984 1.61206 9.38774 1.50021 9.24984 1.5H6.24984Z" fill="currentColor" />

</g>
</svg>
