<svg viewBox="0 0 16 16" fill="none" xmlns="http://www.w3.org/2000/svg">
<g transform="translate(1.2501, 1.2501)">
<path d="M6.75 0C10.4779 0 13.5 3.02208 13.5 6.75C13.5 10.4779 10.4779 13.5 6.75 13.5C3.02208 13.5 4.1878e-07 10.4779 0 6.75C9.66416e-08 3.02208 3.02208 4.40242e-07 6.75 0ZM6.75 1.5C3.85051 1.5 1.5 3.85051 1.5 6.75C1.5 9.64949 3.85051 12 6.75 12C9.64949 12 12 9.6495 12 6.75C12 3.8505 9.6495 1.5 6.75 1.5ZM6.69824 3.05078C6.71449 2.99826 6.78551 2.99826 6.80176 3.05078L7.59082 5.60156C7.59809 5.62505 7.61907 5.6416 7.64258 5.6416H10.1953C10.2478 5.6416 10.2699 5.71163 10.2275 5.74414L8.16211 7.32129C8.14317 7.33574 8.1345 7.36136 8.1416 7.38477L8.93066 9.93652C8.9468 9.98899 8.89015 10.0324 8.84766 10L6.78223 8.42285C6.76321 8.40833 6.73679 8.40833 6.71777 8.42285L4.65234 10C4.60984 10.0324 4.5532 9.989 4.56934 9.93652L5.35742 7.38477C5.36467 7.36128 5.3569 7.3358 5.33789 7.32129L3.27246 5.74414C3.23011 5.71163 3.25217 5.6416 3.30469 5.6416H5.85742C5.88093 5.6416 5.90191 5.62505 5.90918 5.60156L6.69824 3.05078Z" fill="currentColor" />

</g>
</svg>
