<svg viewBox="0 0 16 16" fill="none" xmlns="http://www.w3.org/2000/svg">
<g transform="translate(0.7556, 0.7556)">
<path d="M6.78906 0.00315301C7.29284 -0.0284013 7.75174 0.179695 8.07324 0.5012L13.9873 6.41526C14.3087 6.73676 14.5169 7.19575 14.4854 7.69944C14.2468 11.4887 11.099 14.4885 7.25 14.4885C3.24605 14.4885 0.000178485 11.2424 0 7.2385C-1.6825e-07 3.38938 2.99962 0.241519 6.78906 0.00315301ZM6.88281 1.50022C3.87866 1.6892 1.5 4.18626 1.5 7.2385C1.50018 10.414 4.07447 12.9885 7.25 12.9885C10.3021 12.9885 12.7992 10.6097 12.9883 7.60569C12.9899 7.58027 12.9801 7.52922 12.9268 7.47581L7.0127 1.56175C6.95923 1.50828 6.90826 1.49863 6.88281 1.50022ZM9.9209 9.24046C9.4188 10.2429 8.4389 10.9875 7.25 10.9875C6.0611 10.9875 5.0812 10.2429 4.5791 9.24046L5.9209 8.56858C6.21724 9.16019 6.7297 9.48753 7.25 9.48753C7.7703 9.48753 8.28276 9.16019 8.5791 8.56858L9.9209 9.24046Z" fill="currentColor" />

</g>
</svg>
