<svg viewBox="0 0 16 16" fill="none" xmlns="http://www.w3.org/2000/svg">
<g transform="translate(0.2500, 1.8751)">
<path d="M7.44043 0.0670535C7.66989 -0.0370692 7.93918 -0.0200122 8.15527 0.118811L15.1553 4.61881C15.3699 4.75681 15.5 4.99449 15.5 5.24967C15.4999 5.50476 15.3699 5.74257 15.1553 5.88053L8.15527 10.3805C7.90831 10.5392 7.59168 10.5392 7.34473 10.3805L5 8.87272V12.2497H3.5V7.90885L0.344727 5.88053C0.13014 5.74257 8.68377e-05 5.50476 0 5.24967C4.72284e-06 4.9945 0.130101 4.75681 0.344727 4.61881L7.34473 0.118811L7.44043 0.0670535ZM2.13574 5.24967L4.39551 6.70182L7.7998 4.15006L8.7002 5.34928L5.74121 7.56705L7.75 8.85807L13.3633 5.24967L7.75 1.6403L2.13574 5.24967Z" fill="currentColor" />

</g>
</svg>
