<svg viewBox="0 0 16 16" fill="none" xmlns="http://www.w3.org/2000/svg">
<g transform="translate(0.7497, 0.7497)">
<path d="M2.12326 2.12326C4.95442 -0.707896 9.54583 -0.70761 12.3772 2.12326C15.2085 4.95456 15.2085 9.54587 12.3772 12.3772C9.54587 15.2085 4.95456 15.2085 2.12326 12.3772C-0.707611 9.54583 -0.707896 4.95442 2.12326 2.12326ZM11.3156 3.18478C9.07009 0.939699 5.43015 0.939414 3.18478 3.18478C0.939414 5.43015 0.939699 9.07009 3.18478 11.3156C5.4303 13.5612 9.07013 13.5612 11.3156 11.3156C13.5612 9.07013 13.5612 5.4303 11.3156 3.18478ZM10.7502 8.00021H3.75021V6.50021H10.7502V8.00021Z" fill="currentColor" />

</g>
</svg>
