<svg viewBox="0 0 16 16" fill="none" xmlns="http://www.w3.org/2000/svg">
<g transform="translate(3.5086, 0.7497)">
<path d="M4.64844 11.5C5.47686 11.5 6.14844 12.1716 6.14844 13C6.14844 13.8284 5.47686 14.5 4.64844 14.5C3.82021 14.4998 3.14844 13.8283 3.14844 13C3.14844 12.1717 3.82021 11.5002 4.64844 11.5ZM4.64941 0C7.13213 0.000291512 8.98238 1.89052 8.98242 4.28027C8.98242 5.49146 8.48585 6.50073 7.66797 7.20801C7.09989 7.69917 6.40146 8.02336 5.64941 8.19531V10H3.64941V6.39355L4.58691 6.33496C5.34775 6.28747 5.95845 6.04284 6.36035 5.69531C6.74328 5.36411 6.98242 4.90477 6.98242 4.28027C6.98238 2.9988 6.03125 2.00028 4.64941 2C3.25216 2 2.24074 3.02429 1.96484 4.46777L0 4.09277C0.407557 1.95966 2.05573 0 4.64941 0Z" fill="currentColor" />

</g>
</svg>
