<svg viewBox="0 0 16 16" fill="none" xmlns="http://www.w3.org/2000/svg">
<g transform="translate(1.6250, 1.6250)">
<path fill-rule="evenodd" clip-rule="evenodd" d="M3.25 1.5C4.2165 1.5 5 2.2835 5 3.25C5 4.2165 4.2165 5 3.25 5C2.2835 5 1.5 4.2165 1.5 3.25C1.5 2.2835 2.2835 1.5 3.25 1.5ZM3.25 6.5C5.04493 6.5 6.5 5.04493 6.5 3.25C6.5 1.45507 5.04493 0 3.25 0C1.45507 0 0 1.45507 0 3.25C0 5.04493 1.45507 6.5 3.25 6.5ZM9.25 12.75C11.183 12.75 12.75 11.183 12.75 9.25C12.75 7.317 11.183 5.75 9.25 5.75C7.317 5.75 5.75 7.317 5.75 9.25C5.75 11.183 7.317 12.75 9.25 12.75Z" fill="currentColor" />

</g>
</svg>
