<svg viewBox="0 0 16 16" fill="none" xmlns="http://www.w3.org/2000/svg">
<g transform="translate(0.9695, 2.2498)">
<path d="M11.2803 3.75V8.93945L13 7.21973L14.0605 8.28027L11.0605 11.2803C10.9199 11.4209 10.7292 11.5 10.5303 11.5C10.3811 11.5 10.2365 11.4555 10.1143 11.374L10 11.2803L7 8.28027L8.06055 7.21973L9.78027 8.93945V3.75H11.2803ZM3.53027 0C3.72917 7.98232e-07 3.9199 0.0790996 4.06055 0.219727L7.06055 3.21973L6 4.28027L4.28027 2.56055V7.75H2.78027V2.56055L1.06055 4.28027L0 3.21973L3 0.219727L3.11426 0.125977C3.23654 0.0444536 3.38114 1.56108e-05 3.53027 0Z" fill="currentColor" />

</g>
</svg>
