<svg viewBox="0 0 16 16" fill="none" xmlns="http://www.w3.org/2000/svg">
<g transform="translate(3.1099, 0.4699)">
<path d="M6.66113 0C10.82 4.15886 10.8201 10.9017 6.66113 15.0605L5.60059 14C9.17372 10.427 9.17366 4.63362 5.60059 1.06055L6.66113 0ZM4.79395 1.86621C7.922 4.99418 7.92206 10.0664 4.79395 13.1943L4.26367 12.6641L3.7334 12.1328C6.27546 9.59072 6.27541 5.46986 3.7334 2.92773L4.26367 2.39648L4.79395 1.86621ZM2.92773 3.7334C5.02446 5.83037 5.02452 9.23021 2.92773 11.3271L1.86719 10.2666C3.37819 8.75545 3.37813 6.30513 1.86719 4.79395L2.92773 3.7334ZM1.06055 5.59961C2.12662 6.66571 2.12668 8.39487 1.06055 9.46094L0 8.40039C0.480302 7.92012 0.480245 7.14047 0 6.66016L1.06055 5.59961Z" fill="currentColor" />

</g>
</svg>
