<svg viewBox="0 0 16 16" fill="none" xmlns="http://www.w3.org/2000/svg">
<g transform="translate(1.0003, 1.1253)">
<path d="M7 2.75C9.29443 2.75 10.7472 3.91342 11.5996 5.0498C12.0212 5.61189 12.3002 6.1706 12.4736 6.58691C12.4973 6.64369 12.5181 6.69842 12.5381 6.75H14V8.25H12.75V12.25H14V13.75H0V12.25H1.25V8.25H0V6.75H1.46191C1.48191 6.69842 1.50271 6.64369 1.52637 6.58691C1.69983 6.1706 1.97882 5.61189 2.40039 5.0498C3.25279 3.91342 4.70557 2.75 7 2.75ZM2.75 12.25H4.25V8.25H2.75V12.25ZM5.75 12.25H8.25V8.25H5.75V12.25ZM9.75 12.25H11.25V8.25H9.75V12.25ZM7 4.25C5.29465 4.25 4.24724 5.08668 3.59961 5.9502C3.3943 6.22398 3.23316 6.50055 3.10547 6.75H10.8945C10.7668 6.50055 10.6057 6.22398 10.4004 5.9502C9.75275 5.08668 8.70535 4.25 7 4.25ZM8.5 1.5H6.5V0H9L8.5 1.5Z" fill="currentColor" />

</g>
</svg>
