<svg viewBox="0 0 16 16" fill="none" xmlns="http://www.w3.org/2000/svg">
<g transform="translate(0.7497, 2.3748)">
<path d="M4.65039 0C5.44505 4.91133e-05 6.27255 0.150349 6.9209 0.607422C7.03983 0.691293 7.14946 0.783706 7.25 0.883789C7.35054 0.783706 7.46017 0.691293 7.5791 0.607422C8.22745 0.150349 9.05495 4.90924e-05 9.84961 0H13.75C14.1642 2.57704e-07 14.5 0.335787 14.5 0.75V9.21387C14.4999 9.62797 14.1641 9.96387 13.75 9.96387H9.84961C9.19433 9.96391 8.72024 10.0795 8.42969 10.2744C8.1911 10.4345 8 10.6959 8 11.25H6.5C6.5 10.6959 6.3089 10.4345 6.07031 10.2744C5.77976 10.0795 5.30567 9.96391 4.65039 9.96387H0.75C0.335863 9.96387 0.000124469 9.62797 0 9.21387V0.75C0 0.335786 0.335786 0 0.75 0H4.65039ZM1.5 8.46387H4.65039C5.2761 8.4639 5.92971 8.54958 6.5 8.80762V2.84961C6.49991 2.29298 6.30611 2.00895 6.05664 1.83301C5.76414 1.6268 5.29135 1.50005 4.65039 1.5H1.5V8.46387ZM9.84961 1.5C9.20865 1.50005 8.73586 1.6268 8.44336 1.83301C8.22507 1.98696 8.04938 2.22369 8.00879 2.65332L8 2.84961V8.80762C8.57029 8.54958 9.2239 8.4639 9.84961 8.46387H13V1.5H9.84961Z" fill="currentColor" />

</g>
</svg>
