<svg viewBox="0 0 16 16" fill="none" xmlns="http://www.w3.org/2000/svg">
<g transform="translate(1.2501, 1.2501)">
<path d="M6.75 0C10.4779 0 13.5 3.02208 13.5 6.75C13.5 6.77479 13.4985 6.79955 13.4961 6.82422C13.3994 7.79126 13.0636 8.50958 12.4717 8.96582C11.9049 9.40268 11.2269 9.49985 10.6729 9.51855C10.3899 9.52809 10.1077 9.51715 9.8584 9.50684C9.59855 9.49608 9.38019 9.4857 9.17969 9.48926C8.7336 9.49718 8.64843 9.57745 8.64258 9.58398C8.52778 9.71228 8.45721 9.89872 8.44141 10.2119C8.42422 10.5527 8.47146 10.8794 8.50293 11.3242C8.52839 11.6841 8.55746 12.24 8.30859 12.7041C7.99681 13.2855 7.40657 13.5 6.75 13.5C3.02208 13.5 0 10.4779 0 6.75C9.66416e-08 3.02208 3.02208 9.66384e-08 6.75 0ZM6.75 1.5C3.8505 1.5 1.5 3.8505 1.5 6.75C1.5 9.6495 3.8505 12 6.75 12C6.88768 12 6.9594 11.9826 6.99414 11.9707C6.99475 11.9685 6.99643 11.9664 6.99707 11.9639C7.00325 11.9393 7.00947 11.9026 7.01367 11.8516C7.02238 11.7452 7.01956 11.6095 7.00684 11.4297C6.98431 11.1114 6.92012 10.5983 6.94336 10.1367C6.96805 9.64738 7.08993 9.06846 7.52441 8.58301C7.9936 8.05883 8.68748 7.9985 9.15332 7.99023C9.40873 7.98571 9.67988 7.99784 9.9209 8.00781C10.1723 8.01821 10.4031 8.02598 10.623 8.01855C11.0749 8.00325 11.3648 7.92446 11.5557 7.77734C11.7187 7.6517 11.9254 7.38455 11.999 6.71191C11.9785 3.82995 9.63679 1.5 6.75 1.5ZM4.08301 7.25C4.63529 7.25 5.08301 7.69772 5.08301 8.25C5.08301 8.80228 4.63529 9.25 4.08301 9.25C3.53086 9.24984 3.08301 8.80218 3.08301 8.25C3.08301 7.69782 3.53086 7.25016 4.08301 7.25ZM4.08301 4.25C4.63529 4.25 5.08301 4.69772 5.08301 5.25C5.08301 5.80228 4.63529 6.25 4.08301 6.25C3.53086 6.24984 3.08301 5.80218 3.08301 5.25C3.08301 4.69782 3.53086 4.25016 4.08301 4.25ZM9.25 3.58301C9.80218 3.58301 10.2498 4.03087 10.25 4.58301C10.25 5.13529 9.80228 5.58301 9.25 5.58301C8.69772 5.58301 8.25 5.13529 8.25 4.58301C8.25018 4.03087 8.69782 3.58301 9.25 3.58301ZM6.41699 2.75C6.96914 2.75016 7.41699 3.19782 7.41699 3.75C7.41699 4.30218 6.96914 4.74984 6.41699 4.75C5.86471 4.75 5.41699 4.30228 5.41699 3.75C5.41699 3.19772 5.86471 2.75 6.41699 2.75Z" fill="currentColor" />

</g>
</svg>
