<svg viewBox="0 0 16 16" fill="none" xmlns="http://www.w3.org/2000/svg">
<g transform="translate(1.9332, 1.4667)">
<path d="M7.33691 0C8.36762 0.000281258 9.14504 0.937068 8.95508 1.9502L8.32129 5.33301H9.87988C11.5912 5.3331 12.6763 7.16849 11.8516 8.66797C11.8461 8.67793 11.8399 8.68757 11.834 8.69727L10.0156 11.6709L10.0137 11.6699C9.48554 12.6025 8.46462 13.1458 7.39453 13.0566L0.6875 12.4971C0.298958 12.4645 0 12.1399 0 11.75V6.75L0.0107422 6.62305C0.0602299 6.3341 0.276377 6.0955 0.568359 6.02246C2.29446 5.5909 3.34497 4.88295 4.08496 4.0498C4.84493 3.19404 5.31629 2.16686 5.82812 0.989258C6.08912 0.388764 6.68202 4.81332e-05 7.33691 0ZM7.33691 1.5C7.27942 1.50005 7.22708 1.53405 7.2041 1.58691C6.69911 2.7488 6.14562 3.988 5.20605 5.0459C4.3408 6.02009 3.17853 6.80778 1.5 7.31836V11.0596L7.51953 11.5615C8.01098 11.6023 8.48009 11.3501 8.71777 10.918C8.72325 10.908 8.72943 10.8984 8.73535 10.8887L10.5381 7.94141C10.8098 7.44217 10.4491 6.8331 9.87988 6.83301H7.41699C7.19404 6.83297 6.9823 6.73399 6.83984 6.5625C6.69743 6.39087 6.63864 6.16452 6.67969 5.94531L7.48047 1.67383C7.49735 1.58382 7.42841 1.50028 7.33691 1.5Z" fill="currentColor" />

</g>
</svg>
