<svg viewBox="0 0 16 16" fill="none" xmlns="http://www.w3.org/2000/svg">
<g transform="translate(1.9334, 1.4673)">
<path d="M7.39453 0.00953045C8.46426 -0.0796129 9.48538 0.462338 10.0137 1.3943H10.0156L11.834 4.36793L11.8516 4.3982C12.6757 5.89759 11.591 7.7321 9.87988 7.73219H8.32031L8.95508 11.116C9.14455 12.1288 8.36738 13.0649 7.33691 13.0652C6.68221 13.0651 6.0892 12.6771 5.82812 12.0769C5.31621 10.8991 4.84507 9.87127 4.08496 9.01539C3.34496 8.1822 2.29455 7.47431 0.568359 7.04273C0.234674 6.95925 0.000173396 6.65914 0 6.31519V1.31519C0.000186988 0.925448 0.299132 0.60073 0.6875 0.568124L7.39453 0.00953045ZM7.51953 1.50367L1.5 2.00562V5.74586C3.17867 6.25641 4.34074 7.04508 5.20605 8.0193C6.14551 9.07709 6.69915 10.3165 7.2041 11.4783C7.22712 11.531 7.27955 11.5651 7.33691 11.5652C7.42822 11.5649 7.49694 11.4821 7.48047 11.3923L6.67969 7.12086C6.6386 6.90175 6.69761 6.67531 6.83984 6.50367C6.98228 6.33204 7.19396 6.23225 7.41699 6.23219H9.87988C10.448 6.2321 10.8087 5.62539 10.54 5.12672L8.73535 2.1775C8.72938 2.16773 8.7233 2.15726 8.71777 2.14723C8.48006 1.71527 8.01088 1.4629 7.51953 1.50367Z" fill="currentColor" />

</g>
</svg>
