<svg viewBox="0 0 16 16" fill="none" xmlns="http://www.w3.org/2000/svg">
<g transform="translate(1.7497, 0.7497)">
<path d="M6.25 2C7.80549 2 9.22795 2.57004 10.3213 3.50977L11.2539 2.6875L12.2461 3.8125L11.334 4.61621C12.067 5.64017 12.5 6.89488 12.5 8.25C12.5 11.7018 9.70176 14.5 6.25 14.5C2.79824 14.5 3.35021e-05 11.7018 0 8.25C2.57711e-07 4.79822 2.79822 2 6.25 2ZM6.25 3.5C3.62665 3.5 1.5 5.62665 1.5 8.25C1.50003 10.8733 3.62667 13 6.25 13C8.87333 13 11 10.8733 11 8.25C11 7.01043 10.5258 5.88341 9.74805 5.03711C8.87885 4.09134 7.63415 3.5 6.25 3.5ZM7 7.5H8.75V9H6.25C5.83581 9 5.50003 8.66419 5.5 8.25V5.75H7V7.5ZM8.25 1.5H4.25V0H8.25V1.5Z" fill="currentColor" />

</g>
</svg>
