<svg viewBox="0 0 16 16" fill="none" xmlns="http://www.w3.org/2000/svg">
<g transform="translate(1.0945, 1.7497)">
<path d="M10.75 0C11.7165 0 12.5 0.783502 12.5 1.75V5.25H11V1.75C11 1.61193 10.8881 1.5 10.75 1.5H1.75C1.61193 1.5 1.5 1.61193 1.5 1.75V10.75C1.5 10.8881 1.61193 11 1.75 11H5.25V12.5H1.75C0.783502 12.5 1.61064e-08 11.7165 0 10.75V1.75C0 0.783501 0.783502 1.61064e-08 1.75 0H10.75ZM13.8105 7.74805L9.81055 12.248C9.66371 12.4132 9.45142 12.5057 9.23047 12.5C9.00958 12.4942 8.80212 12.3913 8.66406 12.2188L6.66406 9.71875L7.83594 8.78125L9.28027 10.5869L12.6895 6.75195L13.8105 7.74805Z" fill="currentColor" />

</g>
</svg>
