<svg viewBox="0 0 16 16" fill="none" xmlns="http://www.w3.org/2000/svg">
<g transform="translate(1.2501, 1.2501)">
<path d="M9.75 0C11.8569 0 13.5 1.78665 13.5 3.9082C13.4999 5.76191 12.3479 7.47015 10.4492 7.90039C9.06111 8.21481 7.68479 7.80046 6.54199 7.4707C5.31803 7.11753 4.32735 6.84825 3.38184 7.0625C2.25745 7.31731 1.50012 8.34118 1.5 9.5918C1.5 10.9584 2.54314 12 3.75 12C4.95686 12 6 10.9584 6 9.5918V8.96094H7.5V9.5918C7.5 11.7134 5.85685 13.5 3.75 13.5C1.64315 13.5 0 11.7134 0 9.5918C0.000127573 7.73809 1.15209 6.02985 3.05078 5.59961C4.43889 5.28519 5.81521 5.69954 6.95801 6.0293C8.18197 6.38247 9.17265 6.65175 10.1182 6.4375C11.2425 6.18269 11.9999 5.15882 12 3.9082C12 2.54164 10.9569 1.5 9.75 1.5C8.54314 1.5 7.5 2.54165 7.5 3.9082V4.53906H6V3.9082C6 1.78665 7.64315 2.02148e-07 9.75 0Z" fill="currentColor" />

</g>
</svg>
