<svg viewBox="0 0 16 16" fill="none" xmlns="http://www.w3.org/2000/svg">
<g transform="translate(2.6737, 1.7500)">
<path d="M9.82582 0C10.1989 0 10.516 0.274254 10.569 0.643555C10.8048 2.29463 10.5463 3.41486 9.73793 4.28809C9.36476 4.69109 8.90434 5.00697 8.42543 5.29492C7.97134 5.56793 7.3766 5.8849 6.83657 6.19727C6.80421 6.21598 6.77082 6.23259 6.73793 6.25C6.77082 6.26741 6.80421 6.28402 6.83657 6.30273C7.3766 6.61511 7.97134 6.93207 8.42543 7.20508C8.90434 7.49303 9.36476 7.80891 9.73793 8.21191C10.5463 9.08514 10.8048 10.2054 10.569 11.8564C10.5161 12.2258 10.1989 12.5 9.82582 12.5H0.825824C0.499687 12.4997 0.216969 12.2898 0.115863 11.9902L0.0836367 11.8564C-0.152228 10.2055 0.106456 9.08512 0.914691 8.21191C1.28777 7.80901 1.74743 7.49298 2.22621 7.20508C2.68038 6.932 3.2758 6.61523 3.81606 6.30273C3.84835 6.28405 3.88187 6.26738 3.91469 6.25C3.88188 6.23262 3.84835 6.21594 3.81606 6.19727C3.27581 5.88478 2.68037 5.56799 2.22621 5.29492C1.74744 5.00702 1.28777 4.69099 0.914691 4.28809C0.106466 3.41488 -0.152229 2.29453 0.0836367 0.643555L0.115863 0.509766C0.216967 0.210165 0.499695 0.000284379 0.825824 0H9.82582ZM6.08559 7.60059C5.61904 7.3308 5.03356 7.33073 4.56704 7.60059C3.93222 7.96778 3.46443 8.2108 2.99965 8.49023C2.55967 8.75479 2.24372 8.98467 2.01528 9.23145C1.68765 9.58543 1.46062 10.0584 1.50551 11H9.14711C9.19198 10.0584 8.96501 9.58544 8.63735 9.23145C8.40888 8.98467 8.09298 8.7548 7.65297 8.49023C7.1882 8.21079 6.72041 7.96779 6.08559 7.60059ZM1.50551 1.5C1.46062 2.4416 1.68765 2.91457 2.01528 3.26855C2.24371 3.51533 2.55968 3.74521 2.99965 4.00977C3.46442 4.2892 3.93223 4.53222 4.56704 4.89941C5.03355 5.16926 5.61904 5.1692 6.08559 4.89941C6.7204 4.53221 7.1882 4.2892 7.65297 4.00977C8.09298 3.7452 8.40888 3.51532 8.63735 3.26855C8.96501 2.91456 9.19198 2.44164 9.14711 1.5H1.50551Z" fill="currentColor" />

</g>
</svg>
