<svg viewBox="0 0 16 16" fill="none" xmlns="http://www.w3.org/2000/svg">
<g transform="translate(0.7497, 0.7497)">
<path d="M2.12326 2.12326C4.95442 -0.707895 9.54583 -0.707612 12.3772 2.12326C15.2085 4.95456 15.2085 9.54587 12.3772 12.3772C9.54587 15.2085 4.95456 15.2085 2.12326 12.3772C-0.707612 9.54583 -0.707895 4.95442 2.12326 2.12326ZM11.3156 3.18478C9.0701 0.939697 5.43016 0.939415 3.18478 3.18478C0.939415 5.43016 0.939698 9.0701 3.18478 11.3156C5.4303 13.5612 9.07013 13.5612 11.3156 11.3156C13.5612 9.07013 13.5612 5.4303 11.3156 3.18478ZM8.00021 7.00021H9.75021V8.50021H7.25021C6.8362 8.49998 6.50021 8.16428 6.50021 7.75021V4.25021H8.00021V7.00021Z" fill="currentColor" />

</g>
</svg>
