<svg viewBox="0 0 16 16" fill="none" xmlns="http://www.w3.org/2000/svg">
<g transform="translate(1.2501, 1.8599)">
<path d="M6.09082 0C7.42122 0 8.5 1.07878 8.5 2.40918C8.49987 3.54496 7.70629 4.52666 6.5957 4.76465L2.4375 5.65527C1.891 5.77238 1.50007 6.25556 1.5 6.81445C1.5 7.46913 2.03087 8 2.68555 8H10.9395L9.21973 6.28027L10.2803 5.21973L13.2803 8.21973C13.4209 8.36038 13.5 8.55109 13.5 8.75C13.5 8.89915 13.4556 9.04372 13.374 9.16602L13.2803 9.28027L10.2803 12.2803L9.21973 11.2197L10.9395 9.5H2.68555C1.20244 9.5 0 8.29756 0 6.81445C7.03994e-05 5.54825 0.884939 4.45379 2.12305 4.18848L6.28125 3.29785C6.70023 3.20807 6.99987 2.83765 7 2.40918C7 1.9072 6.5928 1.5 6.09082 1.5H3.25V0H6.09082Z" fill="currentColor" />

</g>
</svg>
