<svg viewBox="0 0 16 16" fill="none" xmlns="http://www.w3.org/2000/svg">
<g transform="translate(1.4698, 1.2501)">
<path d="M6.53027 0C8.08127 0 9.45829 0.74367 10.3252 1.89355L12 0.219727L13.0605 1.28027L11.0498 3.29004C11.1983 3.75018 11.2803 4.24043 11.2803 4.75V8.75C11.2803 11.3734 9.15363 13.5 6.53027 13.5C4.97879 13.5 3.60122 12.756 2.73438 11.6055L1.06055 13.2803L0 12.2197L2.00977 10.209C1.86148 9.74919 1.78027 9.25912 1.78027 8.75V4.75C1.78027 2.12667 3.90695 3.06667e-05 6.53027 0ZM3.81055 10.5293C4.39109 11.4149 5.39226 12 6.53027 12C8.3252 12 9.78027 10.5449 9.78027 8.75V4.75C9.78027 4.68804 9.77784 4.62653 9.77441 4.56543L3.81055 10.5293ZM6.53027 1.5C4.73537 1.50003 3.28027 2.95509 3.28027 4.75V8.75C3.28027 8.81161 3.28177 8.87283 3.28516 8.93359L9.24902 2.96973C8.66835 2.08477 7.6678 1.5 6.53027 1.5Z" fill="currentColor" />

</g>
</svg>
