<svg viewBox="0 0 32 32" fill="none" xmlns="http://www.w3.org/2000/svg">
<g transform="translate(7.8309, 1.3278)">
<path d="M8.95703 3.19629C10.8336 3.3197 12.4886 3.83441 13.7002 4.90039C14.9869 6.03252 15.576 7.61076 15.5762 9.40332C15.5762 11.4842 14.6293 13.0937 13.1611 14.168C13.5332 14.3791 13.8743 14.6135 14.1836 14.8721C15.779 16.206 16.3378 17.9808 16.3379 19.6113C16.3379 21.5599 15.6171 23.2677 14.1953 24.4619C12.8501 25.5916 11.0248 26.1376 8.95703 26.1719V29.3438H5.95703V26.1758H0V3.16797H1.5C2.70585 3.16797 3.9117 3.17186 5.11426 3.17578C5.39514 3.17669 5.67643 3.17589 5.95703 3.17676V0H8.95703V3.19629ZM3 23.1758H8.74902C10.4265 23.1757 11.5693 22.7496 12.2656 22.165C12.9297 21.6072 13.3379 20.7823 13.3379 19.6113C13.3378 18.6773 13.0382 17.8248 12.2598 17.1738C11.4424 16.4905 9.89418 15.8585 7.05859 15.8584H3V23.1758ZM3 12.8584H7.05859C8.8076 12.8583 10.2485 12.4911 11.2002 11.8789C12.0858 11.3088 12.5762 10.5232 12.5762 9.40332C12.576 8.29591 12.2361 7.60754 11.7188 7.15234C11.163 6.66344 10.205 6.26943 8.66504 6.18262C7.47717 6.1825 6.28918 6.17964 5.10449 6.17578C4.40233 6.17349 3.70071 6.1724 3 6.1709V12.8584Z" fill="currentColor" />

</g>
</svg>
