<svg width="24" height="24" viewBox="0 0 24 24" fill="none" xmlns="http://www.w3.org/2000/svg">
<path d="M10.7501 14.9167H9.08342V9.08332H10.7501V14.9167Z" fill="#767676"/>
<path d="M14.9168 14.9167H13.2501V9.08332H14.9168V14.9167Z" fill="#767676"/>
<path fill-rule="evenodd" clip-rule="evenodd" d="M6.10735 6.10725C9.36166 2.85294 14.6384 2.85306 17.8928 6.10725C21.1472 9.36162 21.1472 14.6384 17.8928 17.8927C14.6385 21.1471 9.36172 21.1471 6.10735 17.8927C2.85316 14.6383 2.85304 9.36156 6.10735 6.10725ZM16.7144 7.28563C14.1109 4.68232 9.88917 4.6822 7.28573 7.28563C4.6823 9.88907 4.68242 14.1108 7.28573 16.7143C9.88923 19.3178 14.1109 19.3178 16.7144 16.7143C19.3179 14.1109 19.3179 9.88913 16.7144 7.28563Z" fill="#767676"/>
</svg>
