<svg width="24" height="24" viewBox="0 0 24 24" fill="none" xmlns="http://www.w3.org/2000/svg">
<path d="M13.5869 3.08882C13.883 2.78122 14.3637 2.74721 14.7002 3.00988C15.0366 3.27285 15.12 3.74761 14.8931 4.10933L11.8039 9.02958L18.1059 11.2122C18.3746 11.3052 18.5775 11.529 18.6439 11.8055C18.7102 12.0818 18.6309 12.373 18.4339 12.5778L10.4131 20.9111C10.1169 21.2187 9.63544 21.253 9.29898 20.99C8.96271 20.727 8.88009 20.2522 9.10692 19.8906L12.1953 14.9695L5.89403 12.7877C5.62551 12.6947 5.42244 12.4708 5.35611 12.1945C5.28981 11.9182 5.36915 11.6269 5.56607 11.4222L13.5869 3.08882Z" fill="#64748B"/>
</svg>
