<svg width="24" height="24" viewBox="0 0 24 24" fill="none" xmlns="http://www.w3.org/2000/svg">
<path fill-rule="evenodd" clip-rule="evenodd" d="M6.10728 6.10729C9.36155 2.85303 14.6384 2.85324 17.8928 6.10729C21.1471 9.36166 21.1471 14.6384 17.8928 17.8928C14.6384 21.1471 9.36165 21.1471 6.10728 17.8928C2.85324 14.6384 2.85302 9.36155 6.10728 6.10729ZM10.1055 8.41116C10.0464 8.41675 9.99256 8.44718 9.95738 8.49498C9.91713 8.55005 9.91669 8.64677 9.91669 8.83922V15.1616C9.91669 15.3542 9.91699 15.4509 9.95738 15.5059C9.99258 15.5536 10.0465 15.5841 10.1055 15.5897C10.1734 15.596 10.2562 15.5463 10.4212 15.4473L15.6906 12.2865C15.8474 12.1924 15.9259 12.1447 15.9527 12.0839C15.9759 12.0308 15.9758 11.9701 15.9527 11.917C15.926 11.8561 15.8476 11.8086 15.6906 11.7144L10.4212 8.55358C10.2561 8.45447 10.1735 8.40483 10.1055 8.41116Z" fill="#65A30D"/>
</svg>
