<svg width="48" height="48" viewBox="0 0 48 48" fill="none" xmlns="http://www.w3.org/2000/svg">
<path d="M37 0C43.0751 5.15406e-07 48 4.92487 48 11V37C48 43.0751 43.0751 48 37 48H11C4.92487 48 1.28855e-07 43.0751 0 37V11C5.15422e-07 4.92487 4.92487 1.28852e-07 11 0H37ZM25.7012 7.75C25.2364 7.75007 24.8358 8.07396 24.7393 8.52832L24.085 11.6006H18.124C17.7786 11.6006 17.479 11.8404 17.4043 12.1777L12.2676 35.4326C12.1666 35.8929 12.5155 36.3291 12.9873 36.3291H18.5947L18.0332 38.9658C17.9047 39.5754 18.3661 40.1507 18.9883 40.1553L22.624 40.1826C23.0922 40.1859 23.4983 39.8585 23.5947 39.3994L24.2393 36.3291H24.8047C30.6234 36.3291 34.329 33.1424 34.3291 29.0215C34.3291 26.5973 33.0137 24.6227 30.9707 23.6182C33.5338 22.8914 35.6455 20.8469 35.6455 17.835C35.6455 14.5417 33.14 12.4038 29.6953 11.7861L30.2939 8.93652C30.4213 8.32472 29.9555 7.75006 29.3311 7.75H25.7012ZM24.875 25.7314C27.2648 25.7315 28.7188 26.7351 28.7188 28.5361C28.7186 30.3715 27.2301 31.6533 24.667 31.6533H18.7334L20.042 25.7314H24.875ZM26.9521 16.3105C28.9264 16.3106 30.0692 17.2103 30.0693 18.7002C30.0693 20.4657 28.6843 21.3672 26.71 21.3672H21.0059L22.123 16.3105H26.9521Z" fill="white"/>
</svg>
