<svg width="25" height="25" viewBox="0 0 25 25" fill="none" xmlns="http://www.w3.org/2000/svg">
<path d="M20.7985 2.08757C20.9153 1.97081 21.1046 1.97081 21.2214 2.08757L22.9118 3.778C23.0285 3.89475 23.0285 4.08409 22.9118 4.20085L14.6139 12.4997L22.9118 20.7985C23.0285 20.9153 23.0285 21.1046 22.9118 21.2214L21.2214 22.9118C21.1046 23.0285 20.9153 23.0285 20.7985 22.9118L12.4997 14.613L4.20085 22.9118C4.08409 23.0285 3.89475 23.0285 3.778 22.9118L2.08757 21.2214C1.97081 21.1046 1.97081 20.9153 2.08757 20.7985L10.3854 12.4997L2.08757 4.20085C1.97081 4.08409 1.97081 3.89475 2.08757 3.778L3.778 2.08757C3.89475 1.97081 4.08409 1.97081 4.20085 2.08757L12.4997 10.3854L20.7985 2.08757Z" fill="white"/>
</svg>
