<svg width="16" height="16" viewBox="0 0 16 16" fill="none" xmlns="http://www.w3.org/2000/svg">
<path fill-rule="evenodd" clip-rule="evenodd" d="M13 2.66669C14.1046 2.66669 15 3.56212 15 4.66669V11.3334C15 12.4379 14.1046 13.3334 13 13.3334H3C1.89543 13.3334 1 12.4379 1 11.3334V4.66669C1 3.56212 1.89543 2.66669 3 2.66669H13ZM2.33333 7.00002V11.3334C2.33333 11.7015 2.63181 12 3 12H13C13.3682 12 13.6667 11.7015 13.6667 11.3334V7.00002H2.33333ZM3 4.00002C2.63181 4.00002 2.33333 4.2985 2.33333 4.66669V5.66669H13.6667V4.66669C13.6667 4.2985 13.3682 4.00002 13 4.00002H3Z" fill="#767676"/>
</svg>
