<svg width="16" height="16" viewBox="0 0 16 16" fill="none" xmlns="http://www.w3.org/2000/svg">
<path d="M14.6666 9C14.6666 11.2091 12.8758 13 10.6666 13H4.94269L6.80467 14.862L5.86196 15.8047L2.86196 12.8047C2.60161 12.5443 2.60161 12.1223 2.86196 11.862L5.86196 8.86198L6.80467 9.80469L4.94269 11.6667H10.6666C12.1394 11.6667 13.3333 10.4728 13.3333 9V7.33333H14.6666V9Z" fill="#767676"/>
<path d="M13.138 3.19531C13.3983 3.45565 13.3983 3.87767 13.138 4.13802L10.138 7.13802L9.19529 6.19531L11.0573 4.33333H5.33331C3.86057 4.33333 2.66667 5.52726 2.66665 7V8.66667H1.33331V7C1.33334 4.79088 3.12419 3 5.33331 3H11.0573L9.19529 1.13802L10.138 0.195312L13.138 3.19531Z" fill="#767676"/>
</svg>
