<svg width="16" height="16" viewBox="0 0 16 16" fill="none" xmlns="http://www.w3.org/2000/svg">
<path fill-rule="evenodd" clip-rule="evenodd" d="M8.66636 2.17448C10.3408 2.39256 11.5399 3.41718 12.1149 4.55859L10.9242 5.15885C10.5543 4.42451 9.78515 3.72789 8.66636 3.52539V7.31771C9.36482 7.47243 10.1081 7.67256 10.7119 8.02604C11.1042 8.25572 11.4635 8.56316 11.7217 8.98568C11.9818 9.41129 12.1143 9.91331 12.1143 10.4909C12.1142 11.4739 11.6905 12.3468 10.9424 12.9616C10.3455 13.4521 9.5655 13.7614 8.66636 13.8626V15H7.33303V13.8678C5.34108 13.6771 4.03696 12.6287 3.32001 11.2454L4.5036 10.6322C4.99851 11.5869 5.87071 12.3506 7.33303 12.5273V8.39714C6.65055 8.24916 5.92583 8.06463 5.33759 7.74414C4.94788 7.53176 4.58429 7.24383 4.32066 6.83984C4.05367 6.43071 3.91702 5.94544 3.91701 5.38672C3.91701 4.46346 4.30829 3.62474 5.04462 3.0306C5.6332 2.55572 6.41187 2.25899 7.33303 2.16406V1H8.66636V2.17448ZM8.66636 12.5182C9.27885 12.4267 9.75694 12.2103 10.096 11.9316C10.5416 11.5655 10.7809 11.0677 10.7809 10.4909C10.7809 10.1241 10.699 9.8697 10.5837 9.68099C10.4665 9.48923 10.2899 9.32348 10.0388 9.17643C9.67358 8.96264 9.20836 8.81725 8.66636 8.68685V12.5182ZM7.33303 3.50716C6.68608 3.59369 6.20812 3.80511 5.88186 4.06836C5.46275 4.40655 5.25035 4.86202 5.25035 5.38672C5.25035 5.72007 5.32885 5.94529 5.43719 6.11133C5.54891 6.28248 5.72191 6.43466 5.97561 6.57292C6.33922 6.77104 6.79808 6.90561 7.33303 7.02995V3.50716Z" fill="#767676"/>
</svg>
