<svg width="32" height="32" viewBox="0 0 32 32" fill="none" xmlns="http://www.w3.org/2000/svg">

<path fill-rule="evenodd" clip-rule="evenodd" d="M11.3412 11.3412C13.2215 9.46089 16.2701 9.46091 18.1504 11.3412C19.8707 13.0615 20.0154 15.7585 18.5879 17.6452L22.069 21.1263L21.1263 22.069L17.6452 18.5879C15.7585 20.0154 13.0615 19.8707 11.3412 18.1504C9.4609 16.2701 9.46088 13.2215 11.3412 11.3412ZM17.2077 12.2839C15.8481 10.9243 13.6435 10.9243 12.2839 12.2839C10.9243 13.6435 10.9243 15.8481 12.2839 17.2077C13.6435 18.5673 15.8481 18.5673 17.2077 17.2077C18.5673 15.8481 18.5673 13.6435 17.2077 12.2839Z" fill="#f0f0f0"/>
</svg>
