<svg width="32" height="32" viewBox="0 0 32 32" fill="none" xmlns="http://www.w3.org/2000/svg">

<path d="M20.6667 14.6667C21.4027 14.6667 22 15.264 22 16C22 16.736 21.4027 17.3333 20.6667 17.3333C19.9307 17.3333 19.3333 16.736 19.3333 16C19.3333 15.264 19.9307 14.6667 20.6667 14.6667Z" fill="#f0f0f0"/>
<path d="M16 14.6667C16.736 14.6667 17.3333 15.264 17.3333 16C17.3333 16.736 16.736 17.3333 16 17.3333C15.264 17.3333 14.6667 16.736 14.6667 16C14.6667 15.264 15.264 14.6667 16 14.6667Z" fill="#f0f0f0"/>
<path d="M12.6667 16C12.6667 15.264 12.0693 14.6667 11.3333 14.6667C10.5973 14.6667 10 15.264 10 16C10 16.736 10.5973 17.3333 11.3333 17.3333C12.0693 17.3333 12.6667 16.736 12.6667 16Z" fill="#f0f0f0"/>
</svg>
