<svg width="32" height="32" viewBox="0 0 32 32" fill="none" xmlns="http://www.w3.org/2000/svg">
<path d="M25 4.5C25.4616 4.5 25.8974 4.71256 26.1816 5.07617L30.1816 10.1963C30.3877 10.46 30.5 10.7854 30.5 11.1201C30.4999 13.0676 29.1919 14.5658 27.5 15.1865V26C27.5 26.8284 26.8284 27.5 26 27.5H6C5.17157 27.5 4.5 26.8284 4.5 26V15.1865C2.80807 14.5658 1.50005 13.0676 1.5 11.1201C1.5 10.7854 1.61232 10.46 1.81836 10.1963L5.81836 5.07617L5.93164 4.94727C6.21184 4.66287 6.59603 4.5 7 4.5H25ZM22.5 14.3145C21.623 15.0641 20.4545 15.5 19.25 15.5C18.0455 15.5 16.877 15.0641 16 14.3145C15.123 15.0641 13.9545 15.5 12.75 15.5C11.5455 15.5 10.377 15.0641 9.5 14.3145C8.93244 14.7996 8.24243 15.1516 7.5 15.3408V24.5H24.5V15.3408C23.7576 15.1516 23.0676 14.7996 22.5 14.3145ZM4.58691 11.5244C4.79084 12.0193 5.35587 12.5 6.25 12.5C7.39197 12.5 7.99992 11.717 8 11.1201C8 10.2917 8.67157 9.62012 9.5 9.62012C10.3284 9.62012 11 10.2917 11 11.1201C11.0001 11.717 11.608 12.5 12.75 12.5C13.892 12.5 14.4999 11.717 14.5 11.1201C14.5 10.2917 15.1716 9.62012 16 9.62012C16.8284 9.62012 17.5 10.2917 17.5 11.1201C17.5001 11.717 18.108 12.5 19.25 12.5C20.392 12.5 20.9999 11.717 21 11.1201C21 10.2917 21.6716 9.62012 22.5 9.62012C23.3284 9.62012 24 10.2917 24 11.1201C24.0001 11.717 24.608 12.5 25.75 12.5C26.6439 12.5 27.2081 12.0191 27.4121 11.5244L24.2686 7.5H7.73145L4.58691 11.5244Z" fill="white"/>
</svg>
