<svg width="32" height="32" viewBox="0 0 32 32" fill="none" xmlns="http://www.w3.org/2000/svg">
<path d="M20.7828 1.33337C21.3475 1.33337 21.7689 1.85235 21.6539 2.40564L21.1119 4.98376C24.2276 5.54234 26.4937 7.47577 26.4937 10.4545C26.4936 13.1787 24.5835 15.0277 22.2652 15.6849C24.1132 16.5934 25.3032 18.379 25.3033 20.5717C25.3033 24.2989 21.9518 27.181 16.689 27.181H16.1773L15.5943 29.9584C15.5071 30.3737 15.14 30.6695 14.7164 30.6664L11.4283 30.642C10.8656 30.6378 10.4477 30.1171 10.564 29.5658L11.0718 27.181H6.00054C5.57385 27.181 5.25786 26.7868 5.34918 26.3705L9.99566 5.33826C10.0631 5.03315 10.3337 4.81599 10.6461 4.8158H16.0377L16.6294 2.03748C16.7166 1.62643 17.0792 1.33351 17.4996 1.33337H20.7828ZM12.3814 17.5961L11.1978 22.9525H16.564C18.8822 22.9525 20.2288 21.7931 20.2291 20.1332C20.2291 18.5042 18.914 17.5961 16.7525 17.5961H12.3814ZM14.2632 9.07556L13.2535 13.6488H18.4127C20.1983 13.6487 21.4507 12.8334 21.4507 11.2367C21.4505 9.88932 20.417 9.07556 18.6314 9.07556H14.2632Z" fill="black"/>
</svg>
