<svg width="120" height="120" viewBox="0 0 120 120" fill="none" xmlns="http://www.w3.org/2000/svg">
<path d="M99.9453 1.10069e-06C102.579 -0.000614443 105.186 0.517218 107.619 1.52442C110.052 2.53173 112.264 4.00921 114.126 5.87109C115.988 7.73291 117.466 9.9432 118.474 12.376C119.482 14.8088 120 17.4165 120 20.0498V99.9404C120 105.26 117.887 110.361 114.126 114.123C110.365 117.885 105.264 119.999 99.9453 120H20.0547C14.7356 119.999 9.63482 117.885 5.87402 114.123C2.11323 110.361 0.000113873 105.26 0 99.9404V20.0498C2.7916e-05 17.4165 0.518484 14.8088 1.52637 12.376C2.53423 9.9432 4.01182 7.73291 5.87402 5.87109C7.73637 4.00921 9.9477 2.53173 12.3809 1.52442C14.8138 0.517223 17.4215 -0.000615694 20.0547 1.10069e-06H99.9453ZM28.1553 21.8203C27.3243 21.8203 26.5011 21.9836 25.7334 22.3018C24.9657 22.6199 24.2681 23.0869 23.6807 23.6748C23.0935 24.2625 22.6271 24.9598 22.3096 25.7275C21.992 26.4955 21.8294 27.3194 21.8301 28.1504V91.8555C21.8295 92.6863 21.9921 93.5095 22.3096 94.2773C22.6271 95.0453 23.0933 95.7432 23.6807 96.3311C24.268 96.9189 24.9657 97.385 25.7334 97.7031C26.5011 98.0213 27.3243 98.1846 28.1553 98.1846H91.8555C93.5332 98.1831 95.1422 97.516 96.3281 96.3291C97.5139 95.1423 98.1796 93.5331 98.1797 91.8555V28.1504C98.1797 26.4725 97.514 24.8627 96.3281 23.6758C95.1422 22.4889 93.5332 21.8218 91.8555 21.8203H28.1553ZM72.75 43.5547C73.2281 43.5553 73.7012 43.6511 74.1426 43.835C74.584 44.0189 74.9851 44.2879 75.3223 44.627C75.6595 44.966 75.9269 45.3681 76.1084 45.8105C76.2898 46.2529 76.3819 46.7269 76.3799 47.2051V72.6348C76.3812 73.1125 76.2882 73.5865 76.1064 74.0283C75.9247 74.47 75.6574 74.8715 75.3203 75.21C74.9832 75.5484 74.5826 75.8174 74.1416 76.001C73.7006 76.1845 73.2277 76.2796 72.75 76.2803H47.25C46.772 76.2803 46.2988 76.1853 45.8574 76.002C45.4161 75.8186 45.015 75.5505 44.6777 75.2119C44.3405 74.8732 44.0731 74.4705 43.8916 74.0283C43.7102 73.5863 43.6181 73.1125 43.6201 72.6348V47.2051C43.6175 46.7267 43.7094 46.2523 43.8906 45.8096C44.0719 45.3669 44.3385 44.9642 44.6758 44.625C45.0131 44.2858 45.4147 44.0167 45.8564 43.833C46.2981 43.6494 46.7717 43.5547 47.25 43.5547H72.75Z" fill="white"/>
</svg>
