<svg width="16" height="16" viewBox="0 0 16 16" fill="none" xmlns="http://www.w3.org/2000/svg">
<path d="M10.2499 7.50011C10.6641 7.50011 10.9999 7.8359 10.9999 8.25011V13.4396L12.7197 11.7198C13.0126 11.4269 13.4873 11.427 13.7802 11.7198C14.0731 12.0127 14.0731 12.4875 13.7802 12.7804L10.7802 15.7804L10.7236 15.8321C10.429 16.0724 9.99427 16.055 9.71966 15.7804L6.71966 12.7804C6.42678 12.4875 6.42677 12.0127 6.71966 11.7198C7.01255 11.4269 7.48731 11.427 7.78021 11.7198L9.49994 13.4396V8.25011C9.49994 7.83591 9.83573 7.50012 10.2499 7.50011ZM5.2763 0.168079C5.57088 -0.0722256 6.0056 -0.0547524 6.28021 0.219837L9.28021 3.21984C9.5731 3.51273 9.5731 3.98749 9.28021 4.28038C8.98732 4.57328 8.51256 4.57328 8.21966 4.28038L6.49994 2.56066V7.75011C6.49994 8.16432 6.16415 8.50011 5.74994 8.50011C5.33573 8.5001 4.99994 8.16432 4.99994 7.75011V2.56066L3.28021 4.28038C2.98732 4.57328 2.51256 4.57328 2.21966 4.28038C1.92678 3.98749 1.92677 3.51272 2.21966 3.21984L5.21966 0.219837L5.2763 0.168079Z" fill="white"/>
</svg>
