<svg viewBox="0 0 32 32" fill="none" xmlns="http://www.w3.org/2000/svg">
<g transform="translate(1.0007, 1.0005)">
<path d="M13.4959 0.691032C14.2926 -0.230344 15.7071 -0.230344 16.5037 0.691032L18.4578 2.9508C18.9101 3.47356 19.5956 3.72497 20.2733 3.61681L23.161 3.15588C24.3622 2.96416 25.4527 3.8943 25.4715 5.12658L25.5174 8.10509C25.5281 8.80379 25.893 9.44804 26.4832 9.8092L29.033 11.3688C30.072 12.0044 30.3174 13.4237 29.5535 14.3795L27.7088 16.6871C27.2748 17.2302 27.1475 17.9619 27.3719 18.6227L28.3319 21.4479C28.7267 22.6104 28.0174 23.8588 26.827 24.0963L23.9119 24.6774C23.2367 24.8121 22.6778 25.2898 22.4315 25.941L21.3885 28.6979C20.9526 29.8499 19.6101 30.3436 18.5467 29.7428L15.9735 28.2887C15.3681 27.9467 14.6316 27.9467 14.0262 28.2887L11.452 29.7428C10.3887 30.3433 9.04706 29.8497 8.61116 28.6979L7.56819 25.941C7.32184 25.2897 6.76203 24.8121 6.08674 24.6774L3.1717 24.0963C1.98151 23.8586 1.2729 22.6104 1.6678 21.4479L2.62678 18.6227C2.85128 17.9618 2.72396 17.2302 2.28987 16.6871L0.446117 14.3795C-0.317807 13.4237 -0.0724534 12.0044 0.966624 11.3688L3.51545 9.8092C4.10581 9.44806 4.47156 8.80386 4.48225 8.10509L4.52717 5.12658C4.54602 3.8943 5.63743 2.96416 6.83869 3.15588L9.72639 3.61681C10.4041 3.72498 11.0896 3.47367 11.5418 2.9508L13.4959 0.691032ZM13.5545 17.6168L10.5731 13.8903L9.49983 14.7496L8.42659 15.608L12.4266 20.608C12.6796 20.9242 13.0589 21.113 13.4637 21.1236C13.8687 21.1341 14.258 20.9655 14.5272 20.6627L22.5272 11.6627L20.4725 9.83654L13.5545 17.6168Z" fill="currentColor" />

</g>
</svg>
