<svg viewBox="0 0 32 32" fill="none" xmlns="http://www.w3.org/2000/svg">
<g transform="translate(3.5000, 3.5002)">
<path d="M11.6182 0.286719C12.1111 -0.0715421 12.7678 -0.0941305 13.2812 0.219336L13.3818 0.286719L24.3818 8.28672C24.7212 8.53354 24.9398 8.90955 24.9893 9.3209L25 9.49961V23.4996C24.9999 24.328 24.3284 24.9996 23.5 24.9996H15.5C15.1022 24.9996 14.7208 24.8415 14.4395 24.5602C14.1583 24.2789 14 23.8973 14 23.4996V17.9996H11V23.4996C11 24.328 10.3284 24.9996 9.5 24.9996H1.5C0.671573 24.9996 0 24.328 0 23.4996V9.49961C0.000143459 9.01987 0.230169 8.5689 0.618164 8.28672L11.6182 0.286719ZM3 10.2623V21.9996H8V16.4996C8.00024 15.6714 8.67172 14.9996 9.5 14.9996H15.5C16.3283 14.9996 16.9998 15.6714 17 16.4996V21.9996H22V10.2623L12.5 3.35313L3 10.2623Z" fill="currentColor" />

</g>
</svg>
