<svg viewBox="0 0 32 32" fill="none" xmlns="http://www.w3.org/2000/svg">
<g transform="translate(1.4994, 4.4995)">
<path d="M23.6719 0.00976562C24.0683 0.055462 24.4329 0.25807 24.6816 0.576172L28.6816 5.69629C28.8877 5.96002 29 6.28544 29 6.62012C28.9999 8.5676 27.6919 10.0658 26 10.6865V21.5C26 22.3284 25.3284 23 24.5 23H4.5C3.67157 23 3 22.3284 3 21.5V10.6865C1.30807 10.0658 5.24995e-05 8.5676 0 6.62012C0 6.28544 0.112319 5.96002 0.318359 5.69629L4.31836 0.576172L4.43164 0.447266C4.71184 0.162869 5.09603 0 5.5 0H23.5L23.6719 0.00976562ZM21 9.81445C20.123 10.5641 18.9545 11 17.75 11C16.5455 11 15.377 10.5641 14.5 9.81445C13.623 10.5641 12.4545 11 11.25 11C10.0455 11 8.87704 10.5641 8 9.81445C7.43244 10.2996 6.74243 10.6516 6 10.8408V20H23V10.8408C22.2576 10.6516 21.5676 10.2996 21 9.81445ZM3.08691 7.02441C3.29084 7.51927 3.85587 8 4.75 8C5.89197 8 6.49992 7.21698 6.5 6.62012C6.5 5.79169 7.17157 5.12012 8 5.12012C8.82843 5.12012 9.5 5.79169 9.5 6.62012C9.50008 7.21698 10.108 8 11.25 8C12.392 8 12.9999 7.21698 13 6.62012C13 5.79169 13.6716 5.12012 14.5 5.12012C15.3284 5.12012 16 5.79169 16 6.62012C16.0001 7.21698 16.608 8 17.75 8C18.892 8 19.4999 7.21698 19.5 6.62012C19.5 5.79169 20.1716 5.12012 21 5.12012C21.8284 5.12012 22.5 5.79169 22.5 6.62012C22.5001 7.21698 23.108 8 24.25 8C25.1439 8 25.7081 7.51914 25.9121 7.02441L22.7686 3H6.23145L3.08691 7.02441Z" fill="currentColor" />

</g>
</svg>
