<svg viewBox="0 0 32 32" fill="none" xmlns="http://www.w3.org/2000/svg">
<g transform="translate(0.4396, 3.4998)">
<path d="M0.334651 7.56491C7.33462 -1.0713 18.2487 -2.36442 26.4167 3.94968L24.5827 6.32273C18.0863 1.30071 9.52436 1.93961 3.51531 8.46824L15.4997 21.3022L18.403 18.1938L20.5964 20.2407L16.5964 24.5239C16.3127 24.8274 15.9151 25.0005 15.4997 25.0005C15.0842 25.0003 14.6866 24.8276 14.403 24.5239L0.40301 9.53269C-0.107438 8.98586 -0.136053 8.14624 0.334651 7.56491ZM29.9997 6.50046L31.1208 7.49656L23.1208 16.4966C22.8271 16.8267 22.4024 17.011 21.9606 16.9995C21.519 16.9879 21.1048 16.7819 20.8288 16.437L16.8288 11.437L17.9997 10.5005L19.1706 9.56296L22.0593 13.1743L28.8786 5.50339L29.9997 6.50046Z" fill="currentColor" />

</g>
</svg>
