<svg viewBox="0 0 32 32" fill="none" xmlns="http://www.w3.org/2000/svg">
<g transform="translate(1.5007, 1.5007)">
<path d="M4.24695 4.24695C9.90955 -1.41565 19.0902 -1.41565 24.7528 4.24695C30.4154 9.90955 30.4154 19.0902 24.7528 24.7528C19.0902 30.4154 9.90955 30.4154 4.24695 24.7528C-1.41565 19.0902 -1.41565 9.90955 4.24695 4.24695ZM22.6317 6.36804C18.1407 1.87702 10.8591 1.87702 6.36804 6.36804C1.87702 10.8591 1.87702 18.1407 6.36804 22.6317C10.8591 27.1227 18.1407 27.1227 22.6317 22.6317C27.1227 18.1407 27.1227 10.8591 22.6317 6.36804ZM14.4999 18.4999C15.6039 18.4999 16.4999 19.3959 16.4999 20.4999C16.4999 21.6039 15.6039 22.4999 14.4999 22.4999C13.3959 22.4999 12.4999 21.6039 12.4999 20.4999C12.4999 19.3959 13.3959 18.4999 14.4999 18.4999ZM15.9999 15.4999H12.9999V6.49988H15.9999V15.4999Z" fill="currentColor" />

</g>
</svg>
