<svg viewBox="0 0 32 32" fill="none" xmlns="http://www.w3.org/2000/svg">
<g transform="translate(0.8068, 3.6169)">
<path d="M0.219711 7.59099C8.5839 -2.53026 21.8028 -2.5304 30.167 7.59099C30.4763 7.96534 30.4541 8.5124 30.1269 8.87126L15.9316 24.4396C15.535 24.8744 14.8506 24.8746 14.4541 24.4396L0.258774 8.87126C-0.0684239 8.5124 -0.0896448 7.96534 0.219711 7.59099ZM15.1933 15.7502C14.0893 15.7502 13.1933 16.6462 13.1933 17.7502C13.1933 18.8542 14.0893 19.7502 15.1933 19.7502C16.2973 19.7501 17.1933 18.8541 17.1933 17.7502C17.1933 16.6462 16.2973 15.7503 15.1933 15.7502ZM13.6933 12.7502H16.6933V4.25017H13.6933V12.7502Z" fill="currentColor" />

</g>
</svg>
