<svg viewBox="0 0 32 32" fill="none" xmlns="http://www.w3.org/2000/svg">
<g transform="translate(2.5004, 1.0005)">
<path d="M13.5 0C13.9304 0 14.3403 0.185062 14.625 0.507812V0.508789L14.6377 0.521484C14.6446 0.529363 14.6539 0.540705 14.666 0.554688C14.6907 0.583127 14.7265 0.624147 14.7705 0.675781C14.8585 0.778991 14.9827 0.926981 15.1309 1.1084C15.426 1.46974 15.8229 1.97299 16.2227 2.53516C16.6187 3.09213 17.0389 3.73706 17.3662 4.37598C17.6675 4.96402 18 5.75207 18 6.53711C17.9999 8.49128 16.7399 10.1334 15 10.7441V14H21.5C24.5375 14 27 16.4625 27 19.5V28.5C27 29.3284 26.3284 30 25.5 30H1.5C0.671581 30 1.23696e-05 29.3284 0 28.5V19.5C2.80894e-05 16.4625 2.46245 14 5.5 14H12V10.7441C10.2601 10.1334 9.00005 8.49128 9 6.53711C9.00001 5.75207 9.33252 4.96402 9.63379 4.37598C9.96115 3.73706 10.3813 3.09213 10.7773 2.53516C11.1771 1.97299 11.574 1.46974 11.8691 1.1084C12.0173 0.926981 12.1415 0.778991 12.2295 0.675781C12.2735 0.624147 12.3093 0.583127 12.334 0.554688C12.3461 0.540705 12.3554 0.529363 12.3623 0.521484L12.375 0.508789V0.507812C12.6597 0.185062 13.0696 0 13.5 0ZM5.5 17C4.11931 17 3.00003 18.1193 3 19.5V27H24V19.5C24 18.1193 22.8807 17 21.5 17H5.5ZM13.2227 4.27441C12.8689 4.77196 12.5388 5.28437 12.3037 5.74316C12.1867 5.97162 12.1043 6.16527 12.0537 6.31934C12.0007 6.48081 12 6.54663 12 6.53711C12.0001 7.32755 12.654 8 13.5 8C14.346 8 14.9999 7.32755 15 6.53711C15 6.54663 14.9993 6.48081 14.9463 6.31934C14.8957 6.16527 14.8133 5.97162 14.6963 5.74316C14.4612 5.28437 14.1311 4.77196 13.7773 4.27441C13.6844 4.14375 13.5917 4.01566 13.5 3.89258C13.4083 4.01566 13.3156 4.14375 13.2227 4.27441Z" fill="currentColor" />

</g>
</svg>
