<svg viewBox="0 0 32 32" fill="none" xmlns="http://www.w3.org/2000/svg">
<g transform="translate(2.9994, 1.2494)">
<path fill-rule="evenodd" clip-rule="evenodd" d="M14.4998 6.53665C14.5 6.5383 14.5 6.53843 14.5 6.53711C14.4999 7.32755 13.846 8 13 8C12.154 8 11.5001 7.32755 11.5 6.53711C11.5 6.53843 11.5 6.5383 11.5002 6.53665C11.5012 6.52646 11.508 6.45835 11.5537 6.31934C11.6043 6.16526 11.6866 5.97164 11.8037 5.74316C12.0388 5.28436 12.3688 4.77198 12.7227 4.27441C12.8156 4.14374 12.9083 4.01567 13 3.89258C13.0917 4.01567 13.1844 4.14374 13.2773 4.27441C13.6312 4.77198 13.9612 5.28436 14.1963 5.74316C14.3134 5.97164 14.3957 6.16526 14.4463 6.31934C14.492 6.45835 14.4988 6.52646 14.4998 6.53665ZM14.5 10.7441C16.24 10.1334 17.4999 8.49129 17.5 6.53711C17.5 5.75205 17.1675 4.96403 16.8662 4.37598C16.5388 3.73705 16.1187 3.09214 15.7227 2.53516C15.3229 1.97297 14.926 1.46975 14.6309 1.1084C14.4827 0.926967 14.3585 0.778996 14.2705 0.675781C14.232 0.630647 14.1999 0.593644 14.1759 0.566046L14.166 0.554688C14.1595 0.547131 14.1537 0.540354 14.1488 0.534476C14.1445 0.529467 14.1409 0.525112 14.1377 0.521484L14.125 0.508789V0.507812C13.8403 0.185045 13.4304 0 13 0C12.5696 0 12.1597 0.185045 11.875 0.507812V0.508789L11.8623 0.521484C11.8591 0.525112 11.8555 0.529467 11.8512 0.534476C11.8463 0.540354 11.8405 0.547131 11.834 0.554688L11.8241 0.566046C11.8001 0.593644 11.768 0.630647 11.7295 0.675781C11.6415 0.778996 11.5173 0.926967 11.3691 1.1084C11.074 1.46975 10.6771 1.97297 10.2773 2.53516C9.88127 3.09214 9.46115 3.73705 9.13379 4.37598C8.83251 4.96403 8.5 5.75205 8.5 6.53711C8.50005 8.49129 9.76004 10.1334 11.5 10.7441V14.9999H5C2.23858 14.9999 0 17.2385 0 19.9999V28.5C0 29.0523 0.447715 29.5 1 29.5H25C25.5523 29.5 26 29.0523 26 28.5V19.9999C26 17.2385 23.7614 14.9999 21 14.9999H14.5V10.7441Z" fill="currentColor" />

</g>
</svg>
