<svg viewBox="0 0 32 32" fill="none" xmlns="http://www.w3.org/2000/svg">
<g transform="translate(2.0005, 2.0005)">
<path d="M3 2.5H23.5C25.9853 2.5 28 4.51472 28 7V21C28 23.4853 25.9853 25.5 23.5 25.5H3V28H0V0H3V2.5ZM3 22.5H23.5C24.3284 22.5 25 21.8284 25 21V7C25 6.17157 24.3284 5.5 23.5 5.5H3V22.5ZM11.25 10C11.3881 10 11.5 10.1119 11.5 10.25V13.75C11.5 13.8881 11.3881 14 11.25 14H6.75C6.61193 14 6.5 13.8881 6.5 13.75V10.25C6.5 10.1119 6.61193 10 6.75 10H11.25Z" fill="currentColor" />

</g>
</svg>
