<svg viewBox="0 0 32 32" fill="none" xmlns="http://www.w3.org/2000/svg">
<g transform="translate(3.5008, 1.5007)">
<path d="M8.66451 2.82399C12.4013 -0.941397 18.4647 -0.941263 22.2016 2.82399C25.9321 6.58311 25.9322 12.6733 22.2016 16.4324L11.7446 26.9695C9.05786 29.6766 4.697 29.6765 2.01022 26.9695C-0.670056 24.2685 -0.670088 19.8941 2.01022 17.1931L12.4672 6.65602C14.1039 5.00681 16.7621 5.00695 18.3989 6.65602C20.0292 8.29897 20.0293 10.9575 18.3989 12.6004L7.94186 23.1375L5.81295 21.0242L16.27 10.4871C16.7394 10.0138 16.7395 9.24147 16.27 8.76833C15.8066 8.3017 15.0594 8.30161 14.5962 8.76833L4.13912 19.3054C2.61957 20.8367 2.61965 23.3249 4.13912 24.8562C5.65242 26.3811 8.10127 26.3809 9.61471 24.8562L20.0717 14.3191C22.6415 11.7297 22.6415 7.52669 20.0717 4.93727C17.5082 2.35453 13.3568 2.3543 10.7934 4.93727L9.36764 6.37379L7.23873 4.26051L8.66451 2.82399Z" fill="currentColor" />

</g>
</svg>
