<svg viewBox="0 0 32 32" fill="none" xmlns="http://www.w3.org/2000/svg">
<g transform="translate(2.5002, 3.2502)">
<path d="M13.5 13.5C17.1069 13.5 20.4305 14.5951 22.8857 16.4365C25.3412 18.2783 27 20.9369 27 24C27 24.8284 26.3284 25.5 25.5 25.5H1.5C0.671573 25.5 0 24.8284 0 24C0 20.9369 1.65884 18.2783 4.11426 16.4365C6.56951 14.5951 9.89312 13.5 13.5 13.5ZM13.5 16.5C10.4796 16.5 7.80292 17.4201 5.91504 18.8359C4.52945 19.8751 3.60916 21.1443 3.2168 22.5H23.7832C23.3908 21.1443 22.4705 19.8751 21.085 18.8359C19.1971 17.4201 16.5204 16.5 13.5 16.5ZM13.5 0C16.5376 0 19 2.46243 19 5.5C19 8.53757 16.5376 11 13.5 11C10.4624 11 8 8.53757 8 5.5C8 2.46243 10.4624 0 13.5 0ZM13.5 3C12.1193 3 11 4.11929 11 5.5C11 6.88071 12.1193 8 13.5 8C14.8807 8 16 6.88071 16 5.5C16 4.11929 14.8807 3 13.5 3Z" fill="currentColor" />

</g>
</svg>
