<svg viewBox="0 0 32 32" fill="none" xmlns="http://www.w3.org/2000/svg">
<g transform="translate(1.4994, 1.4994)">
<path d="M14.5 0C22.5081 0 29 6.49187 29 14.5C29 22.5081 22.5081 29 14.5 29C6.49187 29 1.28852e-07 22.5081 0 14.5C0 6.49187 6.49187 6.15624e-07 14.5 0ZM14.5 3C8.14873 3 3 8.14873 3 14.5C3 20.8513 8.14873 26 14.5 26C20.8513 26 26 20.8513 26 14.5C26 8.14872 20.8513 3 14.5 3ZM13.292 5.51855V8.29395H16.0312C18.8572 8.2941 20.8241 9.80046 20.8242 12.4639C20.8242 13.4678 20.2703 14.472 19.542 15.0996C20.722 15.8109 21.4941 17.0668 21.4941 18.4893C21.4939 20.6645 19.6874 22.435 17.4297 22.5049H10.8154C10.5532 22.477 10.3926 22.3378 10.3926 22.0449V11.7529L12.3594 11.0693H7.49414V8.28027H10.4072V5.51855H13.292ZM13.2773 10.9863V19.2002C13.292 19.4927 13.4667 19.6463 13.7432 19.6465H17.415C18.2452 19.5767 18.9002 18.9073 18.9004 18.0986C18.9004 17.2341 18.1726 16.5363 17.2695 16.5361H15.9141C15.6374 16.5361 15.4482 16.3824 15.4336 16.1035V14.3467C15.4336 14.0958 15.5937 13.9142 15.8848 13.9141L16.4238 13.8867C17.2542 13.8867 17.9248 13.2311 17.9248 12.4502C17.9248 11.6692 17.2542 10.9863 16.4238 10.9863H13.2773ZM10.4072 5.51855H10.3926L10.4072 5.50488V5.51855Z" fill="currentColor" />

</g>
</svg>
