<svg viewBox="0 0 32 32" fill="none" xmlns="http://www.w3.org/2000/svg">
<g transform="translate(0.6806,2.5000)">
<path d="M24.9568 0.0448797C25.6709 -0.133415 26.41 0.232705 26.7 0.909138L30.4392 9.63472C30.8117 10.5039 30.7072 11.721 29.743 12.4628C28.4755 13.4374 26.8633 13.8816 25.3211 13.8818C23.7786 13.8818 22.1659 13.4376 20.8982 12.4628C19.9337 11.7211 19.8295 10.504 20.2019 9.63472L22.7508 3.68746L16.8211 5.17086V24H21.3211V27H9.32108V24H13.8211V5.92086L7.39334 7.5273L10.4412 14.6406C10.8125 15.5069 10.7081 16.7012 9.78006 17.4472C7.27736 19.4582 3.3648 19.4573 0.862092 17.4462C-0.0662911 16.7002 -0.171361 15.507 0.199983 14.6406L3.94217 5.90914L4.0203 5.75289C4.22208 5.40183 4.55921 5.14436 4.95682 5.04488L24.9568 0.0448797ZM3.14334 15.3867C4.42144 16.1444 6.21848 16.144 7.49686 15.3867L5.32108 10.3076L3.14334 15.3867ZM23.1551 10.3584C23.7605 10.6899 24.5179 10.8818 25.3211 10.8818C26.1236 10.8817 26.88 10.6896 27.4851 10.3584L25.3201 5.30758L23.1551 10.3584Z" fill="currentColor" />

</g>
</svg>
