<svg viewBox="0 0 32 32" fill="none" xmlns="http://www.w3.org/2000/svg">
<g transform="translate(0.5000,4.5000)">
<path d="M16 0C20.099 1.651e-06 23.4755 3.08309 23.9424 7.05664C27.9165 7.52309 31 10.9006 31 15C31 19.4183 27.4183 23 23 23H15C10.9006 23 7.52309 19.9164 7.05664 15.9424C3.0831 15.4754 2.73922e-06 12.099 0 8C3.37191e-07 3.58172 3.58172 -1.06786e-06 8 0H16ZM23.7324 10.0537C22.8257 13.4767 19.7082 16 16 16H10.1006C10.5639 18.2822 12.5811 20 15 20H23C25.7614 20 28 17.7614 28 15C28 12.4874 26.1466 10.4081 23.7324 10.0537ZM15 10C12.9498 10 11.1886 11.2343 10.417 13H16C18.0502 13 19.8114 11.7657 20.583 10H15ZM8 3C5.23858 3 3 5.23858 3 8C3 10.5122 4.85295 12.5904 7.2666 12.9453C8.17359 9.52268 11.2921 7 15 7H20.8994C20.4361 4.71782 18.4189 3 16 3H8Z" fill="currentColor" />

</g>
</svg>
