<svg viewBox="0 0 32 32" fill="none" xmlns="http://www.w3.org/2000/svg">
<g transform="translate(1.5007, 2.7170)">
<path d="M13.6601 0.102135C14.2114 -0.0340192 14.7885 -0.0340706 15.3398 0.102135C16.028 0.272348 16.6192 0.709669 17.1747 1.09432L28.3535 8.83358C28.8928 9.20704 29.1271 9.88805 28.9316 10.5142C28.736 11.1404 28.156 11.5669 27.4999 11.567H25.9999V23.567H28.4999V26.567H0.49994V23.567H2.99994V11.567H1.49994C0.843885 11.567 0.264008 11.1404 0.068299 10.5142C-0.127302 9.88796 0.106963 9.20704 0.646424 8.83358L11.8251 1.09432C12.3807 0.709677 12.9719 0.272283 13.6601 0.102135ZM5.99994 23.567H12.9999V11.567H5.99994V23.567ZM15.9999 23.567H22.9999V11.567H15.9999V23.567ZM14.3798 3.01424C14.3655 3.01977 14.3216 3.03947 14.2314 3.09335C14.0759 3.18619 13.8766 3.32266 13.5322 3.56112L6.3017 8.56698H22.6982L15.4677 3.56112C15.1232 3.32262 14.924 3.18621 14.7685 3.09335C14.6785 3.03959 14.6346 3.01988 14.6201 3.01424C14.5414 2.99481 14.4585 2.99485 14.3798 3.01424Z" fill="currentColor" />

</g>
</svg>
