<svg viewBox="0 0 32 32" fill="none" xmlns="http://www.w3.org/2000/svg">
<g transform="translate(2.2661, 2.5000)">
<path d="M22.5186 0.00976562C22.9154 0.0554962 23.2806 0.258607 23.5293 0.577148C23.8134 0.941176 23.9138 1.41628 23.8018 1.86426C22.5251 6.97131 22.8467 11.4009 22.8467 13.5H19.8467C19.8467 11.8148 19.5766 7.76988 20.4834 3H3.4893C2.6371 6.52547 3.04991 9.61738 3.57914 13.0195C4.08597 16.2777 4.70277 19.8261 4.13188 24H11.3467V27H2.34672C1.89397 27 1.46546 26.7953 1.1807 26.4434C0.895921 26.0911 0.785014 25.6285 0.879924 25.1855C1.81353 20.8284 1.20227 17.2602 0.614299 13.4805C0.029173 9.71897 -0.53012 5.74902 0.913127 1.05859L0.954142 0.943359C1.18 0.37762 1.72942 4.34147e-05 2.34672 0H22.3467L22.5186 0.00976562ZM27.4678 17.4961L19.4678 26.4961C19.1741 26.8265 18.7496 27.0105 18.3077 26.999C17.8658 26.9875 17.4519 26.7816 17.1758 26.4365L13.1758 21.4365L14.3467 20.5L15.5176 19.5625L18.4063 23.1738L25.2256 15.5039L27.4678 17.4961Z" fill="currentColor" />

</g>
</svg>
