<svg viewBox="0 0 32 32" fill="none" xmlns="http://www.w3.org/2000/svg">
<g transform="translate(2.5002, 2.5002)">
<path d="M3 24H8.5V27H1.5C0.671573 27 0 26.3284 0 25.5V18.5H3V24ZM27 25.5C27 26.3284 26.3284 27 25.5 27H18.5V24H24V18.5H27V25.5ZM18.8408 16.8389C17.8365 18.8435 15.8776 20.334 13.5 20.334C11.1224 20.334 9.16346 18.8435 8.15918 16.8389L10.8408 15.4951C11.4335 16.6783 12.4594 17.334 13.5 17.334C14.5406 17.334 15.5665 16.6783 16.1592 15.4951L18.8408 16.8389ZM8.5 3H3V8.5H0V1.5C0 0.671573 0.671573 0 1.5 0H8.5V3ZM25.5 0C26.3284 0 27 0.671573 27 1.5V8.5H24V3H18.5V0H25.5Z" fill="currentColor" />

</g>
</svg>
