<svg viewBox="0 0 32 32" fill="none" xmlns="http://www.w3.org/2000/svg">
<g transform="translate(1.5615, 1.3346)">
<path d="M21.2617 14.6052L22.7383 14.8679C22.3801 16.8791 21.4582 19.6631 20.3145 22.3093C19.176 24.9435 17.7432 27.616 16.293 29.3299L15.1484 28.3601L14.0029 27.3914C15.1674 26.0151 16.461 23.663 17.5605 21.1189C18.6548 18.5871 19.483 16.0386 19.7852 14.3416L21.2617 14.6052ZM11.9258 0.122822C19.4084 -0.708563 24.2188 2.84522 26.3643 5.82595C28.4696 8.75133 29.3018 12.38 28.6689 15.9109H28.668C28.1631 18.7195 26.7707 22.6093 25.6992 25.1267L24.3184 24.5398L22.9385 23.9519C23.978 21.5097 25.2698 17.8615 25.7158 15.3806C26.204 12.6559 25.5638 9.84966 23.9287 7.5779C22.333 5.36131 18.5292 2.40734 12.2568 3.10427L12.0918 1.61306L11.9258 0.122822ZM13.5176 6.23024C17.2848 5.4148 20.8014 7.27312 22.6035 10.8767L19.9199 12.2185C18.665 9.70935 16.4418 8.66729 14.1523 9.16286C13.2115 9.3667 12.3997 9.93419 11.6396 10.8758C10.8653 11.835 10.2062 13.1076 9.57812 14.574C8.9258 16.0971 8.42488 17.525 7.78613 19.0935C7.19137 20.5541 6.51281 22.0353 5.63379 23.1668L3.26465 21.3269C3.87023 20.5475 4.42135 19.4028 5.00781 17.9627C5.55037 16.6303 6.1829 14.8816 6.82031 13.3933C7.48193 11.8486 8.27008 10.2738 9.30566 8.99099C10.3553 7.6908 11.717 6.62018 13.5176 6.23024ZM13.6709 13.5789C13.8155 12.7634 14.5946 12.2198 15.4102 12.364C16.2256 12.5087 16.7693 13.2868 16.625 14.1023C16.4082 15.3263 15.6685 17.0549 14.9453 18.5691C14.1951 20.14 13.3633 21.6801 12.8438 22.6043L11.5361 21.8689L10.2285 21.1345C10.7269 20.248 11.5253 18.769 12.2383 17.2761C12.9784 15.7264 13.5352 14.3452 13.6709 13.5789ZM9.03516 3.14138L9.70508 4.48317C7.83705 5.41735 6.49565 7.17958 5.40918 9.35231C4.29508 11.5805 3.61666 13.8467 2.78516 15.9256L1.39258 15.3689L0 14.8113C0.696728 13.0693 1.54741 10.3679 2.72559 8.01149C3.9316 5.59956 5.64757 3.15793 8.36426 1.79958L9.03516 3.14138Z" fill="currentColor" />

</g>
</svg>
