<svg viewBox="0 0 32 32" fill="none" xmlns="http://www.w3.org/2000/svg">
<g transform="translate(1.5007, 1.5007)">
<path d="M4.24695 4.24695C9.90955 -1.41565 19.0902 -1.41565 24.7528 4.24695C30.4154 9.90955 30.4154 19.0902 24.7528 24.7528C19.0902 30.4154 9.90955 30.4154 4.24695 24.7528C-1.41565 19.0902 -1.41565 9.90955 4.24695 4.24695ZM7.4989 23.621C12.0085 27.0914 18.5001 26.7634 22.6317 22.6317C26.7634 18.5001 27.0914 12.0085 23.621 7.4989L7.4989 23.621ZM21.4999 5.37781C16.9903 1.90826 10.4994 2.23672 6.36805 6.36804C2.23672 10.4994 1.90826 16.9903 5.37781 21.4999L21.4999 5.37781Z" fill="currentColor" />

</g>
</svg>
