<svg viewBox="0 0 32 32" fill="none" xmlns="http://www.w3.org/2000/svg">
<g transform="translate(1.4994, 2.7191)">
<path d="M25.5605 6C25.8418 6.28128 26 6.66277 26 7.06055C26 7.40853 25.8787 7.74387 25.6602 8.01074L25.5605 8.12109L19.5605 14.1211L17.4395 12L20.8789 8.56055H9.5C8.07512 8.56055 7.0964 8.56205 6.33789 8.62402C5.59712 8.68457 5.19917 8.79563 4.91113 8.94238C4.25265 9.27792 3.71739 9.81321 3.38184 10.4717C3.23508 10.7597 3.12403 11.1577 3.06348 11.8984C3.00151 12.6569 3 13.6357 3 15.0605V17.0605C3 18.4854 3.00151 19.4642 3.06348 20.2227C3.12402 20.9634 3.2351 21.3614 3.38184 21.6494C3.71738 22.3079 4.25264 22.8432 4.91113 23.1787C5.19917 23.3255 5.59709 23.4365 6.33789 23.4971C7.0964 23.559 8.07512 23.5605 9.5 23.5605H19.5C20.9249 23.5605 21.9036 23.559 22.6621 23.4971C23.4029 23.4365 23.8008 23.3255 24.0889 23.1787C24.7474 22.8432 25.2826 22.3079 25.6182 21.6494C25.7649 21.3614 25.876 20.9634 25.9365 20.2227C25.9985 19.4642 26 18.4854 26 17.0605V15.0605H29V17.0605C29 18.4359 29.001 19.5578 28.9268 20.4668C28.8511 21.3932 28.6901 22.2303 28.292 23.0117C27.6688 24.2348 26.6742 25.2294 25.4512 25.8525C24.6697 26.2507 23.8327 26.4116 22.9063 26.4873C21.9972 26.5616 20.8754 26.5605 19.5 26.5605H9.5C8.12462 26.5605 7.00276 26.5616 6.09375 26.4873C5.16728 26.4116 4.33027 26.2507 3.54883 25.8525C2.3258 25.2294 1.33118 24.2348 0.708009 23.0117C0.309877 22.2303 0.148943 21.3932 0.0732429 20.4668C-0.00101679 19.5578 7.43684e-07 18.4359 7.43684e-07 17.0605V15.0605C6.86305e-07 13.6852 -0.00102412 12.5633 0.0732429 11.6543C0.148951 10.7279 0.309858 9.89079 0.708009 9.10938C1.33119 7.88637 2.32581 6.89172 3.54883 6.26855C4.33026 5.8704 5.1673 5.70949 6.09375 5.63379C7.00276 5.55952 8.12463 5.56055 9.5 5.56055H20.8789L17.4395 2.12109L19.5605 0L25.5605 6Z" fill="currentColor" />

</g>
</svg>
