<svg viewBox="0 0 32 32" fill="none" xmlns="http://www.w3.org/2000/svg">
<g transform="translate(4.4995, 1.2494)">
<path d="M3 13.5C3.00015 18.1941 6.80591 21.9997 11.5 22C16.1943 22 19.9999 18.1943 20 13.5V12.5H23V13.5C22.9999 19.3426 18.6422 24.1632 13 24.8984V29.5H10V24.8984C4.35811 24.1629 0.000135123 19.3424 0 13.5V12.5H3V13.5ZM11.5 0C14.5374 4.68452e-05 16.9999 2.46259 17 5.5V13.5C16.9999 16.5375 14.5375 19 11.5 19C8.46273 18.9997 6.00007 16.5373 6 13.5V5.5C6.00015 2.46271 8.46275 0.000256309 11.5 0ZM11.5 3C10.1196 3.00026 9.00015 4.11957 9 5.5V13.5C9.00007 14.8805 10.1196 15.9997 11.5 16C12.8807 16 13.9999 14.8807 14 13.5V5.5C13.9999 4.11943 12.8806 3.00002 11.5 3Z" fill="currentColor" />

</g>
</svg>
