<svg viewBox="0 0 32 32" fill="none" xmlns="http://www.w3.org/2000/svg">
<g transform="translate(3.0853, 3.8889)">
<path fill-rule="evenodd" clip-rule="evenodd" d="M14.0434 13.932L19.0503 8.20987C19.5451 7.64433 19.5451 6.79989 19.0502 6.23436L14.0434 0.512242C13.4458 -0.170748 12.3833 -0.170747 11.7857 0.512244L6.77882 6.23436C6.28398 6.7999 6.28398 7.64433 6.77882 8.20987L11.7857 13.932C11.8876 14.0485 12.0031 14.1451 12.1274 14.2219L1.50222 14.2219C0.349835 14.2219 -0.372136 15.4674 0.200585 16.4674L3.92159 22.9643C4.36702 23.7421 5.19471 24.2219 6.09098 24.2219L19.7381 24.2219C20.6343 24.2219 21.462 23.7421 21.9075 22.9643L25.6285 16.4674C26.2012 15.4674 25.4792 14.2219 24.3268 14.2219L13.7016 14.2219C13.826 14.1451 13.9415 14.0485 14.0434 13.932Z" fill="currentColor" />

</g>
</svg>
