<svg viewBox="0 0 32 32" fill="none" xmlns="http://www.w3.org/2000/svg">
<g transform="translate(1.4994, 3.9995)">
<path d="M18.5 0C19.8807 1.28853e-07 21 1.11929 21 2.5V5H25.5L25.6797 5.00488C27.5292 5.09842 29 6.62727 29 8.5V21.5C29 22.8807 27.8807 24 26.5 24H3.5C1.567 24 0 22.433 0 20.5V8.5C0 6.567 1.567 5 3.5 5H8V2.5C8 1.11929 9.11929 8.05319e-09 10.5 0H18.5ZM3.5 8C3.22386 8 3 8.22386 3 8.5V20.5C3 20.7761 3.22386 21 3.5 21H26V8.5C26 8.25829 25.8286 8.05629 25.6006 8.00977L25.5 8H3.5ZM7.30859 11.2363C7.32333 11.2452 7.34937 11.261 7.38672 11.2822C7.46206 11.3251 7.58276 11.391 7.74512 11.4727C8.07011 11.636 8.5613 11.8609 9.19531 12.0879C10.4657 12.5427 12.2936 13 14.5 13C16.7064 13 18.5343 12.5427 19.8047 12.0879C20.4387 11.8609 20.9299 11.636 21.2549 11.4727C21.4172 11.391 21.5379 11.3251 21.6133 11.2822C21.6506 11.261 21.6767 11.2452 21.6914 11.2363L21.7012 11.2314L23.2988 13.7695L23.2979 13.7705L23.2959 13.7715L23.2764 13.7832C23.2655 13.7899 23.2514 13.7984 23.2344 13.8086C23.2003 13.829 23.154 13.8565 23.0957 13.8896C22.9787 13.9562 22.813 14.0465 22.6025 14.1523C22.1817 14.3639 21.5779 14.6392 20.8154 14.9121C19.2924 15.4573 17.1199 16 14.5 16C11.8801 16 9.7076 15.4573 8.18457 14.9121C7.42215 14.6392 6.8183 14.3639 6.39746 14.1523C6.18696 14.0465 6.02133 13.9562 5.9043 13.8896C5.84598 13.8565 5.7997 13.829 5.76562 13.8086C5.7486 13.7984 5.73447 13.7899 5.72363 13.7832L5.7041 13.7715L5.70215 13.7705L5.70117 13.7695L7.29785 11.2305C7.30028 11.2317 7.30412 11.2336 7.30859 11.2363ZM11 5H18V3H11V5Z" fill="currentColor" />

</g>
</svg>
