<svg viewBox="0 0 32 32" fill="none" xmlns="http://www.w3.org/2000/svg">
<g transform="translate(2.0005, 4.2504)">
<path d="M18 0C19.3807 1.28853e-07 20.5 1.11929 20.5 2.5V5.5H26C27.1046 5.5 28 6.39543 28 7.5V21.5C28 22.6046 27.1046 23.5 26 23.5H2C0.895431 23.5 0 22.6046 0 21.5V7.5C0 6.39543 0.895431 5.5 2 5.5H7.5V2.5C7.5 1.11929 8.61929 8.05319e-09 10 0H18ZM4.34863 12.7627L4.35254 12.7656L4.35742 12.7686L4.37207 12.7783C4.38356 12.7855 4.3987 12.7945 4.41699 12.8057C4.45372 12.8281 4.50381 12.8587 4.56738 12.8955C4.69468 12.9692 4.87606 13.0686 5.10645 13.1865C5.56686 13.4221 6.22885 13.7294 7.06543 14.0342C8.7369 14.6432 11.1225 15.25 14 15.25C16.8775 15.25 19.2631 14.6432 20.9346 14.0342C21.7711 13.7294 22.4331 13.4221 22.8936 13.1865C23.1239 13.0686 23.3053 12.9692 23.4326 12.8955C23.4962 12.8587 23.5463 12.8281 23.583 12.8057C23.6013 12.7945 23.6164 12.7855 23.6279 12.7783L23.6426 12.7686L23.6475 12.7656L23.6514 12.7627C23.6493 12.7586 23.6055 12.6907 22.8418 11.5C22.0852 10.3205 22.0361 10.2426 22.0332 10.2373L22.0195 10.2451C22.0023 10.2556 21.9721 10.2733 21.9297 10.2979C21.8443 10.3472 21.7092 10.4236 21.5273 10.5166C21.1634 10.7028 20.615 10.9583 19.9082 11.2158C18.4922 11.7318 16.4567 12.25 14 12.25C11.5433 12.25 9.50779 11.7318 8.0918 11.2158C7.38496 10.9583 6.83661 10.7028 6.47266 10.5166C6.29084 10.4236 6.15569 10.3472 6.07031 10.2979C6.02794 10.2733 5.99772 10.2556 5.98047 10.2451L5.96387 10.2354L4.34863 12.7627ZM10.5 5.5H17.5V3H10.5V5.5Z" fill="currentColor" />

</g>
</svg>
