<svg viewBox="0 0 32 32" fill="none" xmlns="http://www.w3.org/2000/svg">
<g transform="translate(1.4994, 3.9995)">
<path d="M18.5 0C19.8807 1.28853e-07 21 1.11929 21 2.5V5H25.5C27.433 5 29 6.567 29 8.5V15.5H26V8.5C26 8.22386 25.7761 8 25.5 8H3.5C3.22386 8 3 8.22386 3 8.5V20.5C3 20.7761 3.22386 21 3.5 21H5V24H3.5C1.567 24 0 22.433 0 20.5V8.5C0 6.567 1.567 5 3.5 5H8V2.5C8 1.11929 9.11929 8.05319e-09 10.5 0H18.5ZM11 24H8V18.5H11V24ZM17 24H14V12.5H17V24ZM23 24H20V15.833H23V24ZM29 24H26V18.5H29V24ZM11 5H18V3H11V5Z" fill="currentColor" />

</g>
</svg>
