<svg viewBox="0 0 32 32" fill="none" xmlns="http://www.w3.org/2000/svg">
<g transform="translate(2.0005, 4.0839)">
<path d="M24 5.83301C26.2091 5.83301 27.9999 7.62399 28 9.83301V19.833C28 22.0421 26.2091 23.833 24 23.833H4C1.79086 23.833 0 22.0421 0 19.833V9.83301C0.000140199 7.62399 1.79095 5.83301 4 5.83301H24ZM14 8.83301C10.6864 8.83301 8.00014 11.5194 8 14.833C8 18.1467 10.6863 20.833 14 20.833C17.3137 20.833 20 18.1467 20 14.833C19.9999 11.5194 17.3136 8.83301 14 8.83301ZM14 11.333C15.9329 11.333 17.4999 12.9001 17.5 14.833C17.5 16.766 15.933 18.333 14 18.333C12.067 18.333 10.5 16.766 10.5 14.833C10.5001 12.9001 12.0671 11.333 14 11.333ZM14 0C15.6267 0 16.8777 0.459963 17.7354 0.942383C18.1614 1.18202 18.4889 1.426 18.7178 1.61914C18.8323 1.71579 18.9232 1.80026 18.9902 1.86621C19.0238 1.89921 19.0514 1.92813 19.0732 1.95117C19.0841 1.96261 19.0936 1.97274 19.1016 1.98145C19.1056 1.98581 19.109 1.9905 19.1123 1.99414L19.1201 2.00195L16.8799 3.99805L16.8857 4.00391L16.8955 4.01562C16.8947 4.01481 16.8911 4.01108 16.8848 4.00488C16.8684 3.98882 16.8341 3.95592 16.7822 3.91211C16.6778 3.82402 16.505 3.69283 16.2646 3.55762C15.789 3.29007 15.0398 3 14 3C12.9602 3 12.211 3.29007 11.7354 3.55762C11.495 3.69283 11.3222 3.82402 11.2178 3.91211C11.1659 3.95592 11.1316 3.98882 11.1152 4.00488C11.1089 4.01108 11.1053 4.01481 11.1045 4.01562L11.1143 4.00391L11.1201 3.99805L8.87988 2.00195L8.8877 1.99414C8.89098 1.9905 8.89444 1.98581 8.89844 1.98145C8.90642 1.97274 8.91591 1.96261 8.92676 1.95117C8.94861 1.92813 8.97624 1.89921 9.00977 1.86621C9.07676 1.80026 9.16769 1.71579 9.28223 1.61914C9.51114 1.426 9.83864 1.18202 10.2646 0.942383C11.1223 0.459963 12.3733 0 14 0Z" fill="currentColor" />

</g>
</svg>
