<svg viewBox="0 0 32 32" fill="none" xmlns="http://www.w3.org/2000/svg">
<g transform="translate(1.4994, 4.4995)">
<path d="M24.5 0C26.9853 3.22133e-07 29 2.01472 29 4.5V18.5C29 20.9853 26.9853 23 24.5 23H4.5C2.09234 23 0.126322 21.1092 0.00585938 18.7314L0 18.5V4.5C0 2.01472 2.01472 8.0532e-09 4.5 0H24.5ZM3 18.5L3.00781 18.6533C3.08461 19.4097 3.72334 20 4.5 20H24.5C25.3284 20 26 19.3284 26 18.5V9H3V18.5ZM4.5 3C3.67157 3 3 3.67157 3 4.5V6H26V4.5C26 3.67157 25.3284 3 24.5 3H4.5Z" fill="currentColor" />

</g>
</svg>
