<svg viewBox="0 0 32 32" fill="none" xmlns="http://www.w3.org/2000/svg">
<g transform="translate(0.9398, 4.0005)">
<path d="M30.1211 14.4961L22.1211 23.4961C21.8274 23.8265 21.4028 24.0105 20.9609 23.999C20.5191 23.9875 20.1052 23.7816 19.8291 23.4365L15.8291 18.4365L17 17.5L18.1709 16.5625L21.0596 20.1738L27.8789 12.5039L30.1211 14.4961ZM24.5 0C26.9853 3.22133e-07 29 2.01472 29 4.5V9.5H26V4.5C26 3.67157 25.3284 3 24.5 3H4.5C3.67157 3 3 3.67157 3 4.5V18.5C3 19.3284 3.67157 20 4.5 20H13.5V23H4.5C2.01472 23 6.44256e-08 20.9853 0 18.5V4.5C0 2.01472 2.01472 8.0532e-09 4.5 0H24.5Z" fill="currentColor" />

</g>
</svg>
