<svg viewBox="0 0 32 32" fill="none" xmlns="http://www.w3.org/2000/svg">
<g transform="translate(0.8341, 4.0004)">
<path d="M17.5 4H4.5C3.67158 4 3.00001 4.67158 3 5.5V19.5C3 20.3284 3.67157 21 4.5 21H24.5C25.3284 21 26 20.3284 26 19.5V13.5H29V19.5C29 21.9853 26.9853 24 24.5 24H4.5C2.01472 24 6.44256e-08 21.9853 0 19.5V5.5C1.08235e-05 3.01473 2.01473 1 4.5 1H17.5V4ZM26.0332 0C26.4309 4.6456e-05 26.8125 0.158286 27.0938 0.439453L29.8936 3.23926C30.4793 3.82501 30.4792 4.77456 29.8936 5.36035L20.8506 14.4043C20.5155 14.7392 20.1157 15.0027 19.6758 15.1787L15.3896 16.8926C14.8327 17.1151 14.1966 16.9847 13.7725 16.5605C13.3484 16.1364 13.2179 15.5003 13.4404 14.9434L15.1543 10.6572C15.3303 10.2173 15.5947 9.81749 15.9297 9.48242L24.9727 0.439453L25.082 0.339844C25.3489 0.121063 25.6851 7.55626e-05 26.0332 0ZM18.0508 11.6035C18.0031 11.6513 17.9655 11.7088 17.9404 11.7715L17.5254 12.8076L18.5615 12.3936C18.6243 12.3684 18.6816 12.33 18.7295 12.2822L26.7119 4.2998L26.0332 3.62109L18.0508 11.6035Z" fill="currentColor" />

</g>
</svg>
