<svg viewBox="0 0 32 32" fill="none" xmlns="http://www.w3.org/2000/svg">
<g transform="translate(0.9920, 3.2497)">
<path d="M14.5 5.49971H4.5C3.67159 5.49971 3.00003 6.1713 3 6.99971V20.9997C3 21.8281 3.67157 22.4997 4.5 22.4997H24.5C25.3284 22.4997 26 21.8281 26 20.9997V13.9997H29V20.9997C29 23.485 26.9853 25.4997 24.5 25.4997H4.5C2.01472 25.4997 6.44256e-08 23.485 0 20.9997V6.99971C2.88624e-05 4.51445 2.01474 2.49971 4.5 2.49971H14.5V5.49971ZM23.3818 0.485057C23.556 -0.161686 24.4733 -0.161686 24.6475 0.485057L25.585 3.9665C25.6457 4.19208 25.8223 4.36866 26.0479 4.42939L29.5303 5.36689C30.1765 5.54127 30.1765 6.45815 29.5303 6.63252L26.0479 7.57002C25.8223 7.63076 25.6457 7.80734 25.585 8.03291L24.6475 11.5144C24.4733 12.1611 23.556 12.1611 23.3818 11.5144L22.4443 8.03291C22.3836 7.80746 22.2078 7.63085 21.9824 7.57002L18.5 6.63252C17.8533 6.45837 17.8533 5.54104 18.5 5.36689L21.9824 4.42939C22.2078 4.36856 22.3836 4.19195 22.4443 3.9665L23.3818 0.485057Z" fill="currentColor" />

</g>
</svg>
