<svg viewBox="0 0 32 32" fill="none" xmlns="http://www.w3.org/2000/svg">
<g transform="translate(1.4174, 3.5835)">
<path d="M12.5 4.83392H4.5C3.67157 4.83392 3 5.50549 3 6.33392V20.3339C3.00022 21.1622 3.67171 21.8339 4.5 21.8339H24.5C25.3281 21.8337 25.9998 21.162 26 20.3339V13.3339H29V20.3339C28.9998 22.8189 26.985 24.8337 24.5 24.8339H4.5C2.01485 24.8339 0.000216539 22.819 0 20.3339V6.33392C0 3.84863 2.01472 1.83392 4.5 1.83392H12.5V4.83392ZM18.707 2.73528C18.7073 0.632883 20.8832 -0.677253 22.624 0.366142L25.2578 1.94329L27.8545 3.497C29.6024 4.54848 29.6021 7.19186 27.8613 8.25091L25.2656 9.80462L22.6318 11.3818C20.891 12.4331 18.7148 11.1142 18.7148 9.01165V8.59661C18.7148 8.502 18.6906 8.40812 18.6455 8.3261C18.6004 8.24426 18.5351 8.17639 18.457 8.12884C18.379 8.08134 18.2905 8.05623 18.2002 8.0556C18.1097 8.05502 18.0202 8.07929 17.9414 8.12591L15.54 9.56927L13.1465 11.0048C13.068 11.052 13.0024 11.1202 12.957 11.2021C12.9118 11.284 12.8877 11.377 12.8877 11.4716C12.8877 11.5662 12.9117 11.6593 12.957 11.7411C13.0024 11.8231 13.0679 11.8913 13.1465 11.9384L15.54 13.374L17.9414 14.8173C18.0202 14.8639 18.1097 14.8882 18.2002 14.8876C18.2905 14.887 18.379 14.8619 18.457 14.8144C18.5352 14.7668 18.6004 14.6982 18.6455 14.6161C18.6905 14.5342 18.7148 14.4411 18.7148 14.3466V13.5077C18.7143 13.4147 18.7372 13.3229 18.7812 13.2421C18.8253 13.1613 18.889 13.0937 18.9658 13.0468C19.0426 13 19.1299 12.975 19.2188 12.9745C19.3077 12.9741 19.3955 12.9987 19.4727 13.0449L20.6953 13.7743C20.7756 13.8207 20.8424 13.8888 20.8887 13.9716C20.9349 14.0545 20.959 14.1491 20.958 14.245V14.5976C20.958 16.7001 18.7819 18.011 17.041 16.9677L14.4072 15.3906L11.8105 13.8368C10.0626 12.7855 10.0627 10.1422 11.8105 9.09075L14.4072 7.53704L17.0332 5.95208C18.774 4.90085 20.95 6.21884 20.9502 8.32122V8.73724C20.9502 8.83179 20.9745 8.92479 21.0195 9.00677C21.0646 9.08878 21.1298 9.15739 21.208 9.20501C21.286 9.25246 21.3746 9.27761 21.4648 9.27825C21.5553 9.27883 21.6449 9.25456 21.7236 9.20794L24.125 7.76458L26.5186 6.32903C26.5971 6.28189 26.6626 6.21373 26.708 6.13177C26.7533 6.04989 26.7773 5.95683 26.7773 5.86224C26.7773 5.76769 26.7532 5.67456 26.708 5.5927C26.6626 5.51081 26.597 5.44257 26.5186 5.39544L24.125 3.95989L21.7236 2.51556C21.6449 2.46896 21.5553 2.44467 21.4648 2.44524C21.3745 2.44588 21.2861 2.47193 21.208 2.51946C21.1299 2.56703 21.0646 2.63483 21.0195 2.71673C20.9745 2.79863 20.9503 2.89178 20.9502 2.98626V3.8261C20.9507 3.91914 20.9279 4.0109 20.8838 4.09173C20.8397 4.17241 20.776 4.2392 20.6992 4.28606C20.6224 4.33297 20.5352 4.35887 20.4463 4.35931C20.3574 4.35971 20.2696 4.33514 20.1924 4.28899L18.9697 3.5595C18.8895 3.51323 18.8226 3.44496 18.7764 3.36224C18.7301 3.2794 18.7061 3.18469 18.707 3.0888V2.73528Z" fill="currentColor" />

</g>
</svg>
