<svg viewBox="0 0 32 32" fill="none" xmlns="http://www.w3.org/2000/svg">
<g transform="translate(1.2194, 3.7194)">
<path d="M29.5605 14.5605L25.6211 18.5L29.5605 22.4395L27.4395 24.5605L23.5 20.6211L19.5605 24.5605L17.4395 22.4395L21.3789 18.5L17.4395 14.5605L19.5605 12.4395L23.5 16.3789L27.4395 12.4395L29.5605 14.5605ZM24.5 0C26.9853 3.22133e-07 29 2.01472 29 4.5V9.5H26V4.5C26 3.67157 25.3284 3 24.5 3H4.5C3.67157 3 3 3.67157 3 4.5V18.5C3 19.3284 3.67157 20 4.5 20H14.5V23H4.5C2.01472 23 6.44256e-08 20.9853 0 18.5V4.5C0 2.01472 2.01472 8.0532e-09 4.5 0H24.5Z" fill="currentColor" />

</g>
</svg>
