<svg viewBox="0 0 32 32" fill="none" xmlns="http://www.w3.org/2000/svg">
<g transform="translate(0.8341, 2.7505)">
<path d="M25.5 22.5C26.6045 22.5 27.4999 23.3955 27.5 24.5C27.5 25.6046 26.6046 26.5 25.5 26.5C24.3954 26.5 23.5 25.6046 23.5 24.5C23.5001 23.3955 24.3955 22.5 25.5 22.5ZM24.5 0C26.9853 3.22133e-07 29 2.01472 29 4.5V7.5H26V4.5C26 3.67157 25.3284 3 24.5 3H4.5C3.67157 3 3 3.67157 3 4.5V18.5C3 19.3284 3.67157 20 4.5 20H20.5V23H4.5C2.01472 23 6.44256e-08 20.9853 0 18.5V4.5C0 2.01472 2.01472 8.0532e-09 4.5 0H24.5ZM25.5 10C28.258 10.0002 30.3329 12.1134 30.333 14.7803C30.333 16.1382 29.7724 17.2847 28.8457 18.0859C28.3089 18.55 27.6758 18.8771 27 19.0811V20.5H24V16.4238L25.4062 16.3359C26.0818 16.2938 26.5811 16.079 26.8838 15.8174C27.1581 15.5802 27.333 15.2582 27.333 14.7803C27.3329 13.7758 26.6067 13.0002 25.5 13C24.402 13.0002 23.5496 13.7906 23.3066 15.0615L20.3594 14.499C20.7998 12.1936 22.6074 10.0002 25.5 10Z" fill="currentColor" />

</g>
</svg>
