<svg viewBox="0 0 32 32" fill="none" xmlns="http://www.w3.org/2000/svg">
<g transform="translate(1.7499, 5.5000)">
<path d="M24.207 0C25.0802 5.92074e-09 25.5336 1.04082 24.9395 1.68066L7.89062 20.041C7.32299 20.6523 6.52561 21 5.69141 21H3C1.3432 21 3.09561e-05 19.6568 0 18V3C1.9261e-05 1.34325 1.34328 0.000139103 3 0H24.207ZM14.4102 15.6543C15.362 14.6229 16.9228 14.6055 17.8965 15.6152C18.8699 16.6251 18.8873 18.2792 17.9355 19.3105C16.6995 20.6499 13.4737 20.8858 12.5 19.876C13.9708 19.0753 13.4583 16.6858 14.4102 15.6543ZM27.2549 4.70117C27.5454 4.42735 27.9941 4.43419 28.2764 4.7168C28.5587 4.9997 28.5764 5.45999 28.3154 5.76367L20.6104 14.7305C20.2376 15.1638 19.5867 15.1882 19.1836 14.7842L18.6523 14.2529C18.2493 13.8488 18.2598 13.1803 18.6748 12.7891L27.2549 4.70117ZM4.75 5.5C4.61199 5.50007 4.5 5.61197 4.5 5.75V9.25C4.5 9.38803 4.61199 9.49993 4.75 9.5H9.25C9.38807 9.5 9.5 9.38807 9.5 9.25V5.75C9.5 5.61193 9.38807 5.5 9.25 5.5H4.75Z" fill="currentColor" />

</g>
</svg>
