<svg viewBox="0 0 32 32" fill="none" xmlns="http://www.w3.org/2000/svg">
<g transform="translate(1.4994, 4.4995)">
<path d="M24.5 0C26.9853 3.22133e-07 29 2.01472 29 4.5V18.5C29 20.9853 26.9853 23 24.5 23H4.5C2.01472 23 6.44256e-08 20.9853 0 18.5V4.5C0 2.01472 2.01472 8.0532e-09 4.5 0H24.5ZM4.5 3C3.67157 3 3 3.67157 3 4.5V18.5C3 19.3284 3.67157 20 4.5 20H24.5C25.3284 20 26 19.3284 26 18.5V4.5C26 3.67157 25.3284 3 24.5 3H4.5ZM12.25 7.5C12.3881 7.5 12.5 7.61193 12.5 7.75V11.25C12.5 11.3881 12.3881 11.5 12.25 11.5H7.75C7.61193 11.5 7.5 11.3881 7.5 11.25V7.75C7.5 7.61193 7.61193 7.5 7.75 7.5H12.25Z" fill="currentColor" />

</g>
</svg>
