<svg viewBox="0 0 32 32" fill="none" xmlns="http://www.w3.org/2000/svg">
<g transform="translate(1.4994, 3.4995)">
<path d="M23.5605 9.56055L22.1182 11.002C25.9296 11.065 29 14.1735 29 18C29 21.866 25.866 25 22 25C18.134 25 15 21.866 15 18H18C18 20.2091 19.7909 22 22 22C24.2091 22 26 20.2091 26 18C26 15.8324 24.2758 14.0685 22.124 14.0029L23.5605 15.4395L21.4395 17.5605L17.4395 13.5605C16.8537 12.9748 16.8537 12.0252 17.4395 11.4395L21.4395 7.43945L23.5605 9.56055ZM24.5 0C26.9853 3.22133e-07 29 2.01472 29 4.5V8.5H26V4.5C26 3.67157 25.3284 3 24.5 3H4.5C3.67157 3 3 3.67157 3 4.5V18.5C3 19.3284 3.67157 20 4.5 20H12V23H4.5C2.01472 23 6.44256e-08 20.9853 0 18.5V4.5C0 2.01472 2.01472 8.0532e-09 4.5 0H24.5Z" fill="currentColor" />

</g>
</svg>
