<svg viewBox="0 0 32 32" fill="none" xmlns="http://www.w3.org/2000/svg">
<g transform="translate(2.5002, 2.5002)">
<path d="M3 24H8.5V27H1.5C0.671573 27 0 26.3284 0 25.5V18.5H3V24ZM27 25.5C27 26.3284 26.3284 27 25.5 27H18.5V24H24V18.5H27V25.5ZM16.7305 4.5C16.914 4.5 17.0507 4.68076 17.0117 4.87207L16.6582 6.60645C17.8635 7.00123 18.8433 7.70878 19.4482 8.58203C19.535 8.70731 19.5085 8.88183 19.3955 8.98047L17.9092 10.2773C17.7784 10.3913 17.5853 10.3602 17.4785 10.2207C16.7273 9.23899 15.5485 8.68458 14.2725 8.68457C12.8844 8.68457 11.9593 9.34082 11.959 10.2842C11.959 11.0636 12.6528 11.4745 14.7734 11.9668H14.7754C17.4744 12.5822 18.708 13.7721 18.708 15.7822C18.7079 18.302 16.7792 20.1623 13.7686 20.3594L13.4727 21.8564C13.4445 21.9983 13.3274 22.0996 13.1914 22.0996H10.8584C10.6727 22.0993 10.5361 21.9144 10.5791 21.7217L10.9521 20.0459C9.45057 19.5911 8.24418 18.7045 7.5459 17.6113C7.46412 17.4832 7.49551 17.3109 7.61035 17.2158L9.24023 15.8662C9.37458 15.7552 9.56941 15.7925 9.66895 15.9395C10.527 17.2062 11.8416 17.9561 13.4248 17.9561C14.8515 17.9559 15.9316 17.2179 15.9316 16.1514C15.9316 15.3309 15.3913 14.962 13.5791 14.5518C10.4556 13.8544 9.22089 12.6233 9.2207 10.6133C9.2207 8.28102 11.0633 6.51881 13.8428 6.29004L14.1475 4.74414C14.1755 4.60205 14.2935 4.5 14.4297 4.5H16.7305ZM8.5 3H3V8.5H0V1.5C0 0.671573 0.671573 0 1.5 0H8.5V3ZM25.5 0C26.3284 0 27 0.671573 27 1.5V8.5H24V3H18.5V0H25.5Z" fill="currentColor" />

</g>
</svg>
