<svg viewBox="0 0 32 32" fill="none" xmlns="http://www.w3.org/2000/svg">
<g transform="translate(3.0003, 3.0003)">
<path d="M16.9209 3.13568e-10C19.5429 8.90333e-10 20.8318 -0.000250368 22.248 0.445313C23.7858 1.00246 24.9985 2.21495 25.5557 3.75391C26.0001 5.15785 26 6.46033 26 9.07129V16.9287C26 19.536 26.0001 20.8384 25.5557 22.2461C24.9985 23.785 23.7871 24.9975 22.248 25.5547C20.8441 26.0003 19.5424 26 16.9326 26H9.05566C6.44948 26 5.14674 26.0004 3.74023 25.5547C2.20251 24.9975 0.990766 23.785 0.433594 22.2461C0.000252703 20.8421 3.85032e-10 19.5508 0 16.9287V9.06055C0 6.45337 -3.14221e-05 5.15072 0.444336 3.74316C1.00151 2.20421 2.21417 0.991713 3.75195 0.43457C5.14472 0.00134596 6.44968 0.000976563 9.05566 0.000976563V3.13568e-10H16.9209ZM14.0156 4.41211C13.7694 4.41224 13.5552 4.58386 13.502 4.8252L13.2305 6.15039C10.6565 6.2768 8.47363 7.55254 8.47363 10.166C8.47364 12.4243 10.2778 13.3965 12.1846 14.0762C13.9885 14.7472 14.9443 14.9958 14.9443 15.9404C14.9443 16.8851 13.991 17.4805 12.5869 17.4805C11.225 17.5015 9.90741 16.9868 8.92188 16.0459C8.71758 15.8454 8.39054 15.8453 8.1875 16.0459L7.1123 17.0977C6.90553 17.297 6.89929 17.6272 7.09863 17.834C7.1034 17.8388 7.10748 17.8431 7.1123 17.8467C7.98892 18.6675 9.05977 19.2546 10.2236 19.5518L9.92285 20.9268C9.86367 21.2163 10.0493 21.4992 10.3389 21.5586C10.3697 21.5647 10.4016 21.5703 10.4336 21.5703H12.373C12.6218 21.5715 12.8386 21.3979 12.8906 21.1553L13.1699 19.8525C16.254 19.6631 18.1404 18.0034 18.1406 15.5732C18.1406 13.336 16.2604 12.3912 13.9785 11.6211C12.7551 11.1615 11.6873 10.8495 11.5586 10.0146L11.5459 9.84277C11.546 8.87473 12.5981 8.52545 13.6504 8.52539C14.9281 8.52787 16.1643 8.98087 17.1387 9.80664C17.3479 9.99607 17.6686 9.99009 17.8691 9.79199L18.873 8.78418C19.0748 8.58372 19.0762 8.25848 18.876 8.05664C18.8661 8.04797 18.8556 8.03796 18.8457 8.0293C18.0571 7.35833 17.1463 6.84632 16.1621 6.52441L16.4629 5.04199C16.5211 4.75847 16.3382 4.48202 16.0547 4.42383C16.0201 4.41646 15.984 4.41211 15.9482 4.41211H14.0156Z" fill="currentColor" />

</g>
</svg>
