<svg viewBox="0 0 32 32" fill="none" xmlns="http://www.w3.org/2000/svg">
<g transform="translate(0.5003, 5.5000)">
<path d="M18.12 0.0117188C19.5423 0.128158 20.7648 1.10286 21.1835 2.4873L22.5614 7.04492L30.5946 15.6279C31.0992 16.1674 31.1364 16.995 30.6815 17.5771C30.2265 18.1589 29.4147 18.3221 28.7694 17.9629C23.8309 15.212 19.8563 17.042 15.3407 18.9785C13.1644 19.9118 10.7708 20.9024 8.27329 20.9932C5.65666 21.088 3.06567 20.2016 0.468607 17.7422C-0.0956135 17.2078 -0.158365 16.3309 0.324075 15.7217L7.14634 7.10547L8.5438 2.4873C8.99032 1.01059 10.3507 9.74021e-05 11.8934 0H17.8329L18.12 0.0117188ZM3.57505 16.4473C5.22464 17.6869 6.72419 18.0472 8.16392 17.9951C10.02 17.9277 11.9191 17.1823 14.159 16.2217C17.1392 14.9436 20.616 13.3138 24.5868 13.5986L20.576 9.31348H9.22544L3.57505 16.4473ZM11.8124 3.00684C11.6267 3.03737 11.4707 3.1709 11.4149 3.35547L10.5204 6.31348H19.2059L18.3124 3.35547C18.2566 3.17114 18.1003 3.0376 17.9149 3.00684L17.8329 3H11.8934L11.8124 3.00684Z" fill="currentColor" />

</g>
</svg>
