<svg viewBox="0 0 32 32" fill="none" xmlns="http://www.w3.org/2000/svg">
<g transform="translate(0.6065, 2.8648)">
<path d="M4.06445 2.48828H11.4258L11.5439 2.49219C12.1321 2.5387 12.6433 2.9285 12.8408 3.49219L14.2471 7.51074C14.5078 8.25586 15.1052 8.83394 15.8584 9.07031L20.9863 10.6797L24.4385 11.6709C27.2621 12.4815 29.3011 14.8726 29.71 17.7168C30.3602 18.1682 30.787 18.919 30.7871 19.7705V23.7705C30.7871 25.1511 29.6677 26.2704 28.2871 26.2705H3.28711C1.9064 26.2705 0.787109 25.1512 0.787109 23.7705V19.7705C0.787208 18.9856 1.14892 18.2854 1.71484 17.8271V4.40332L0 1.54102L2.57422 0L4.06445 2.48828ZM3.78711 23.2705H27.7871V20.2705H3.78711V23.2705ZM4.71484 17.2705H18.5781C18.4879 16.8123 18.419 16.3067 18.4189 15.8145C18.419 14.9927 18.6119 13.9315 18.7725 13.1699C18.7751 13.1575 18.7776 13.1442 18.7803 13.1318L14.96 11.9326C13.3031 11.4126 11.9886 10.1411 11.415 8.50195L10.3613 5.48828H4.71484V17.2705ZM21.666 13.9961C21.526 14.69 21.419 15.3807 21.4189 15.8145C21.419 16.2291 21.5231 16.7647 21.6582 17.2705H26.5205C26.05 15.9794 24.9879 14.9492 23.6104 14.5537L21.666 13.9961Z" fill="currentColor" />

</g>
</svg>
