<svg viewBox="0 0 32 32" fill="none" xmlns="http://www.w3.org/2000/svg">
<g transform="translate(1.4994, 3.9995)">
<path d="M19.5 0C24.7467 0 29 4.2533 29 9.5V18.5C29 21.5376 26.5376 24 23.5 24C20.631 24 18.2761 21.8032 18.0234 19H10.9766C10.7239 21.8032 8.36899 24 5.5 24C2.46243 24 4.0266e-08 21.5376 0 18.5V9.5C0 4.25329 4.2533 1.61064e-07 9.5 0H19.5ZM9.5 3C5.91015 3 3 5.91015 3 9.5V18.5C3 19.8807 4.11929 21 5.5 21C6.79434 21 7.85918 20.0164 7.9873 18.7559L8.0127 18.2441C8.14082 16.9836 9.20566 16 10.5 16H18.5C19.7943 16 20.8592 16.9836 20.9873 18.2441L21.0127 18.7559C21.1408 20.0164 22.2057 21 23.5 21C24.8807 21 26 19.8807 26 18.5V9.5C26 5.91015 23.0899 3 19.5 3H9.5ZM12 8H14.5V11H12V13.5H9V11H6.5V8H9V5.5H12V8Z" fill="currentColor" />

</g>
</svg>
