<svg viewBox="0 0 32 32" fill="none" xmlns="http://www.w3.org/2000/svg">
<g transform="translate(1.5007, 2.5009)">
<path d="M3.61642 0.66325C4.18617 0.0477566 5.0144 -0.129006 5.73361 0.0900081C6.36534 0.282528 6.87787 0.764759 7.11447 1.40348C11.5588 8.60437 18.4055 11.6795 25.9367 10.5646L26.1477 10.5412C27.1967 10.4629 28.1675 10.9649 28.6682 11.8273C29.2389 12.8109 29.0765 14.0632 28.1457 14.9162C26.3439 16.5673 23.734 18.1387 20.7746 18.8937C21.5508 19.1029 22.3716 19.2905 23.2414 19.4504L24.2229 19.6174L24.3069 19.633C25.9262 19.9821 26.6829 22.1228 25.2707 23.342C19.4264 28.3871 10.0703 28.3463 4.35959 22.381C-1.32781 16.4398 -1.27861 6.84084 3.50607 0.793133L3.61642 0.66325ZM4.71506 4.38102C1.99372 9.30941 2.4509 16.0492 6.52658 20.3068C10.6003 24.562 17.0596 25.0553 21.7375 22.2101C16.9932 21.2081 13.3129 19.4172 10.5129 16.4582C7.71404 13.5001 5.92858 9.51387 4.71506 4.38102ZM9.0881 8.45817C10.0496 10.9096 11.2318 12.8518 12.6926 14.3957C13.245 14.9795 13.8455 15.5146 14.5002 16.0031C18.2207 17.0283 22.1441 15.6758 24.885 13.7033C18.9744 14.2028 13.4795 12.4054 9.0881 8.45817Z" fill="currentColor" />

</g>
</svg>
