<svg viewBox="0 0 32 32" fill="none" xmlns="http://www.w3.org/2000/svg">
<g transform="translate(0.5002, 2.8335)">
<path d="M15.4988 0C17.5012 0 19.072 0.605482 20.2469 1.60938C21.3961 2.5915 22.0588 3.86217 22.4442 5.03027C22.8299 6.19962 22.9633 7.34343 23.0047 8.17578C23.0094 8.2708 23.0099 8.36247 23.0125 8.4502C25.1155 8.19814 27.1758 7.84016 29.1551 7.37305C29.6676 7.25228 30.2065 7.40904 30.574 7.78613C30.9415 8.16342 31.0842 8.70656 30.95 9.21582L27.3172 22.9814C26.7958 24.9566 25.0094 26.3328 22.9666 26.333H8.03302C5.99008 26.333 4.20384 24.9567 3.68243 22.9814L0.0496211 9.21582C-0.0847201 8.70647 0.0580262 8.16348 0.425598 7.78613C0.7932 7.40921 1.33208 7.2521 1.84454 7.37305C3.83653 7.84316 5.91007 8.20281 8.02716 8.45508C8.0292 8.36852 8.02991 8.27819 8.034 8.18457C8.07029 7.35226 8.19724 6.20824 8.57599 5.03809C8.95434 3.86927 9.6101 2.59662 10.7557 1.6123C11.9272 0.605804 13.4966 9.50436e-05 15.4988 0ZM27.4276 10.8037C19.7621 12.2558 11.2365 12.2559 3.57111 10.8037L6.58282 22.2158C6.75662 22.8742 7.35205 23.333 8.03302 23.333H22.9666C23.6474 23.3328 24.2431 22.8741 24.4168 22.2158L27.4276 10.8037ZM15.4988 3C14.1406 3.00009 13.285 3.39438 12.7108 3.8877C12.1107 4.40331 11.6985 5.13098 11.4295 5.96191C11.161 6.79161 11.0602 7.64783 11.0311 8.31543C11.0243 8.4704 11.0216 8.61272 11.0213 8.73926C14.0041 8.94797 17.037 8.94604 20.0193 8.73535C20.0181 8.61193 20.0161 8.47389 20.0086 8.32422C19.9754 7.65666 19.8694 6.80017 19.5955 5.96973C19.3211 5.13799 18.9035 4.40842 18.2977 3.89062C17.7174 3.39481 16.8572 3 15.4988 3Z" fill="currentColor" />

</g>
</svg>
