<svg viewBox="0 0 32 32" fill="none" xmlns="http://www.w3.org/2000/svg">
<g transform="translate(0.7500, 3.5000)">
<path d="M18.7891 0.179623C19.2539 -0.0706794 19.8163 -0.0588816 20.2695 0.211849C20.7227 0.482597 21 0.972028 21 1.49994V23.4999C21 24.0278 20.7227 24.5173 20.2695 24.788C19.8163 25.0587 19.2539 25.0705 18.7891 24.8202L5.78906 17.8202C5.30324 17.5586 5.00004 17.0517 5 16.4999V8.49994C5 7.94811 5.3032 7.44027 5.78906 7.17865L18.7891 0.179623ZM29.4004 19.2997L27.5996 21.7001L23.5996 18.7001L25.4004 16.2997L29.4004 19.2997ZM8 9.39447V15.6044L18 20.9882V4.01068L8 9.39447ZM3 16.4999H0V8.49994H3V16.4999ZM30.5 13.9999H25.5V10.9999H30.5V13.9999ZM29.4004 5.70013L25.4004 8.70013L23.5996 6.29974L27.5996 3.29974L29.4004 5.70013Z" fill="currentColor" />

</g>
</svg>
