<svg viewBox="0 0 32 32" fill="none" xmlns="http://www.w3.org/2000/svg">
<g transform="translate(3.5010, 3.5010)">
<path d="M15.9084 0.835192C18.8884 -0.310946 21.8077 -0.412987 23.6096 1.3889C25.4115 3.19082 25.3095 6.1101 24.1633 9.09007C23.7451 10.1774 23.0954 11.3511 22.3616 12.4993C23.0954 13.6474 23.7451 14.8211 24.1633 15.9084C25.3095 18.8884 25.4115 21.8077 23.6096 23.6096C21.8077 25.4115 18.8884 25.3095 15.9084 24.1633C14.7741 23.727 13.6274 23.1424 12.4973 22.4455C11.3742 23.138 10.2292 23.7252 9.09007 24.1633C6.1101 25.3095 3.19082 25.4115 1.3889 23.6096C-0.412987 21.8077 -0.310946 18.8884 0.835192 15.9084C1.27125 14.7747 1.85566 13.6287 2.55199 12.4993C1.85569 11.3698 1.27124 10.2238 0.835192 9.09007C-0.310911 6.11014 -0.412995 3.1908 1.3889 1.3889C3.19081 -0.412956 6.11014 -0.31092 9.09007 0.835192C10.2293 1.27337 11.3751 1.8595 12.4983 2.55199C13.628 1.85547 14.7744 1.27135 15.9084 0.835192ZM4.45629 15.2043C4.13592 15.8064 3.8594 16.4021 3.635 16.9856C2.60101 19.6741 3.02686 21.0034 3.51097 21.4875C3.9951 21.9717 5.32439 22.3975 8.01293 21.3635C8.59408 21.14 9.18978 20.8638 9.79418 20.5422C8.81225 19.7645 7.86336 18.9181 6.97191 18.0266C6.08043 17.1351 5.23407 16.1863 4.45629 15.2043ZM21.4875 3.51097C21.0034 3.02686 19.6741 2.60101 16.9856 3.635C14.4016 4.62883 11.5651 6.62283 9.09398 9.09398C8.01162 10.1763 7.0206 11.3286 6.16527 12.4993C7.0206 13.6699 8.01162 14.8222 9.09398 15.9045C11.5651 18.3757 14.4016 20.3697 16.9856 21.3635C19.6741 22.3975 21.0034 21.9717 21.4875 21.4875C21.9716 21.0034 22.3975 19.674 21.3635 16.9856C21.1513 16.4338 20.8467 15.8244 20.4797 15.1809C19.5074 16.4619 18.5248 17.6314 17.7327 18.5061L16.6203 17.4993L15.509 16.4924C16.4233 15.4829 17.6247 14.0372 18.7336 12.4993C17.6247 10.9614 16.4233 9.51555 15.509 8.50609L16.6203 7.49925L17.7327 6.49242C18.5247 7.36692 19.5076 8.53588 20.4797 9.81664C20.8465 9.17336 21.1514 8.56446 21.3635 8.01293C22.3975 5.32439 21.9717 3.9951 21.4875 3.51097ZM8.01293 3.635C5.32451 2.60106 3.99514 3.02687 3.51097 3.51097C3.02685 3.99509 2.60105 5.32445 3.635 8.01293C3.85929 8.59609 4.13612 9.19141 4.45629 9.7932C5.23394 8.81146 6.08062 7.8632 6.97191 6.97191C7.86371 6.08011 8.81281 5.23333 9.79515 4.45531C9.19065 4.1337 8.59417 3.85855 8.01293 3.635Z" fill="currentColor" />

</g>
</svg>
