<svg viewBox="0 0 32 32" fill="none" xmlns="http://www.w3.org/2000/svg">
<g transform="translate(3.5003, 3.0003)">
<path d="M19.5 0C20.0881 2.22936e-06 20.6217 0.343669 20.8652 0.878906L22.9658 5.5H25V8.5H23.2646L20.4785 24.7539C20.3549 25.4738 19.7305 26 19 26H6C5.26951 26 4.64511 25.4738 4.52148 24.7539L1.73535 8.5H0V5.5H2.03418L4.13477 0.878906L4.18359 0.78125C4.44497 0.302253 4.94855 0 5.5 0H19.5ZM4.77832 8.5L7.26465 23H17.7354L20.2207 8.5H4.77832ZM5.3291 5.5H19.6709L18.5342 3H6.46582L5.3291 5.5Z" fill="currentColor" />

</g>
</svg>
