<svg viewBox="0 0 32 32" fill="none" xmlns="http://www.w3.org/2000/svg">
<g transform="translate(3.9999, 1.3332)">
<path d="M11.9999 0C18.54 0 22.5123 5.65035 21.8778 11H22.4999C23.0564 11 23.5675 11.3085 23.827 11.8008C24.0864 12.293 24.0516 12.8886 23.7372 13.3477L13.2372 28.6807C12.9576 29.089 12.4948 29.333 11.9999 29.333C11.505 29.333 11.0422 29.089 10.7626 28.6807L0.26259 13.3477C-0.0517713 12.8886 -0.0865762 12.293 0.172746 11.8008C0.432298 11.3085 0.943355 11 1.49989 11H2.12197C1.48745 5.65035 5.45978 1.92264e-06 11.9999 0ZM19.6698 13.9775C16.7133 13.7198 14.4061 14.4483 11.7938 14.9707C9.58334 15.4128 7.27056 15.6497 4.7372 14.5732L11.9999 25.1787L19.6698 13.9775ZM11.9999 3C7.07302 3 4.23094 7.56856 5.26259 11.499C7.25529 12.5786 9.02313 12.4659 11.2059 12.0293C13.2576 11.619 15.8118 10.8607 18.8593 10.9287C19.4906 7.14015 16.69 3 11.9999 3Z" fill="currentColor" />

</g>
</svg>
