<svg viewBox="0 0 32 32" fill="none" xmlns="http://www.w3.org/2000/svg">
<g transform="translate(2.5001, 2.0005)">
<path d="M13.5004 0C17.0317 0.000239782 20.0003 2.76354 20.0004 6.2998V7H25.5004C25.9269 7.00013 26.3341 7.18219 26.6185 7.5C26.9027 7.81783 27.0387 8.24228 26.9916 8.66602L24.9916 26.666C24.9071 27.4254 24.2644 27.9998 23.5004 28H3.50038C2.73618 28 2.09374 27.4255 2.00917 26.666L0.00916709 8.66602C-0.0379281 8.24216 0.0979347 7.81787 0.382214 7.5C0.666757 7.18222 1.07381 7 1.50038 7H7.00038V6.2998C7.00049 2.76338 9.96889 0 13.5004 0ZM4.84315 25H22.1576L23.8236 10H3.17714L4.84315 25ZM13.5004 3C11.5092 3 10.0005 4.53447 10.0004 6.2998V7H17.0004V6.2998C17.0003 4.5346 15.4914 3.00024 13.5004 3Z" fill="currentColor" />

</g>
</svg>
