<svg viewBox="0 0 32 32" fill="none" xmlns="http://www.w3.org/2000/svg">
<g transform="translate(2.3339, 2.0005)">
<path d="M18.5002 3H14.0002V6H20.5002C21.3286 6.00002 22.0002 6.67158 22.0002 7.5V11H24.8332C26.2139 11 27.3332 12.1193 27.3332 13.5V21.5C27.3332 22.8807 26.2139 24 24.8332 24H22.0002V26.5C22.0001 27.3284 21.3286 28 20.5002 28H4.50017C3.67176 28 3.00019 27.3284 3.00017 26.5V12L0.299971 8.40039C-0.0409118 7.94588 -0.0956963 7.33727 0.15837 6.8291C0.412457 6.32093 0.932013 6 1.50017 6H11.0002V3H6.50017V0H18.5002V3ZM5.70036 10.5996C5.89508 10.8592 6.00017 11.1755 6.00017 11.5V25H19.0002V9H14.0002V19H16.5002V22H8.50017V19H11.0002V9H4.50114L5.70036 10.5996ZM22.0002 21H24.3332V14H22.0002V21Z" fill="currentColor" />

</g>
</svg>
