<svg viewBox="0 0 32 32" fill="none" xmlns="http://www.w3.org/2000/svg">
<g transform="translate(0.5957, 4.0000)">
<path d="M21.5498 0C23.2542 0 24.8129 0.962889 25.5752 2.4873L28.5352 8.40723C28.5385 8.41386 28.5407 8.42108 28.5439 8.42773C29.0427 8.31086 29.5288 8.18763 30 8.05566L30.8086 10.9443C30.195 11.1162 29.5589 11.2741 28.9043 11.4219V22.5C28.9043 23.3284 28.2327 24 27.4043 24H21.4043C20.576 23.9999 19.9043 23.3283 19.9043 22.5V19H10.9043V22.5C10.9043 23.3284 10.2327 24 9.4043 24H3.4043C2.57591 23.9999 1.9043 23.3284 1.9043 22.5V11.4219C1.24977 11.2741 0.613558 11.1162 0 10.9443L0.808594 8.05566C1.27944 8.18752 1.76531 8.31095 2.26367 8.42773C2.26701 8.42094 2.27005 8.414 2.27344 8.40723L5.2334 2.4873C5.99568 0.962894 7.55441 3.55574e-05 9.25879 0H21.5498ZM4.9043 21H7.9043V17.5C7.9043 16.6717 8.57598 16.0001 9.4043 16H21.4043C22.2327 16 22.9043 16.6716 22.9043 17.5V21H25.9043V11.9961C19.3242 13.0476 11.4843 13.0466 4.9043 11.9951V21ZM9.25879 3C8.69073 3.00004 8.17109 3.32104 7.91699 3.8291L5.31836 9.02441C11.6089 10.0376 19.1986 10.0374 25.4893 9.02441L22.8916 3.8291C22.6375 3.32104 22.1179 3 21.5498 3H9.25879Z" fill="currentColor" />

</g>
</svg>
