<svg viewBox="0 0 32 32" fill="none" xmlns="http://www.w3.org/2000/svg">
<g transform="translate(2.5002, 3.4997)">
<path d="M24.4996 0C25.3014 0 25.9611 0.63066 25.9976 1.43164L26.9976 23.4316C27.0162 23.8407 26.8674 24.24 26.5846 24.5361C26.3016 24.8322 25.9092 25 25.4996 25H1.4996C1.09008 24.9999 0.697564 24.8322 0.414638 24.5361C0.131948 24.24 -0.0170337 23.8406 0.00155188 23.4316L1.00155 1.43164L1.01522 1.28418C1.12051 0.554713 1.74781 0.000175929 2.4996 0H24.4996ZM3.06893 22H23.9303L23.067 3H3.93222L3.06893 22ZM9.9996 6.5V8.5C9.9996 9.32831 10.6713 9.99981 11.4996 10H15.4996C16.328 10 16.9996 9.32843 16.9996 8.5V6.5H19.9996V8.5C19.9996 10.9853 17.9849 13 15.4996 13H11.4996C9.01448 12.9998 6.9996 10.9852 6.9996 8.5V6.5H9.9996Z" fill="currentColor" />

</g>
</svg>
