<svg viewBox="0 0 32 32" fill="none" xmlns="http://www.w3.org/2000/svg">
<g transform="translate(2.1891, 2.1890)">
<path d="M5.55353 0.335908C6.14268 -0.144209 7.01134 -0.109601 7.56036 0.439424L16.5604 9.43942C17.1461 10.0252 17.1461 10.9747 16.5604 11.5605L15.1209 13L22.4998 20.3789L23.4998 19.3789L27.6209 23.5L23.4998 27.6211L19.3787 23.5L20.3787 22.5L12.9998 15.1211L11.5604 16.5605C10.9746 17.1462 10.025 17.1462 9.43927 16.5605L0.439269 7.56052C-0.14647 6.97478 -0.146376 6.02522 0.439269 5.43942L5.43927 0.439424L5.55353 0.335908ZM3.62091 6.49997L10.4998 13.3789L13.3787 10.5L6.49982 3.62106L3.62091 6.49997Z" fill="currentColor" />

</g>
</svg>
