<svg viewBox="0 0 32 32" fill="none" xmlns="http://www.w3.org/2000/svg">
<g transform="translate(2.5002, 3.0002)">
<path d="M13.5 0C20.9557 0 26.9998 6.04431 27 13.5V20.5C27 23.5376 24.5376 26 21.5 26H19C18.1716 26 17.5 25.3284 17.5 24.5V12.5C17.5002 11.6717 18.1717 11 19 11H21.5L21.7832 11.0068C22.5037 11.0434 23.1874 11.2191 23.8086 11.5068C22.8771 6.66139 18.6172 3 13.5 3C8.38206 3 4.12109 6.66232 3.19043 11.5088C3.89282 11.1833 4.67492 11 5.5 11H8C8.82831 11 9.4998 11.6717 9.5 12.5V24.5C9.5 25.3284 8.82843 26 8 26H5.5C2.46243 26 6.44256e-08 23.5376 0 20.5V13.5C0.000176056 6.04431 6.04426 0 13.5 0ZM5.5 14C4.11941 14 3.0002 15.1195 3 16.5V20.5C3 21.8807 4.11929 23 5.5 23H6.5V14H5.5ZM20.5 23H21.5C22.8807 23 24 21.8807 24 20.5V16.5C23.9998 15.2058 23.0163 14.1408 21.7559 14.0127L21.5 14H20.5V23Z" fill="currentColor" />

</g>
</svg>
