<svg viewBox="0 0 32 32" fill="none" xmlns="http://www.w3.org/2000/svg">
<g transform="translate(2.5002, 3.0619)">
<path d="M8 22.8765H19V15.3765H22V24.3765C22 25.205 21.3284 25.8765 20.5 25.8765H6.5C5.67157 25.8765 5 25.205 5 24.3765V15.3765H8V22.8765ZM8.5752 0.205634C9.39414 -0.232913 10.3689 0.06478 10.8564 0.76911L10.9531 0.926337L11.1035 1.18513C11.2855 1.47664 11.5598 1.85421 11.916 2.18122C12.3836 2.61036 12.9047 2.87653 13.5 2.87653C14.0951 2.87653 14.6156 2.61007 15.083 2.18122C15.558 1.74533 15.8874 1.21986 16.0469 0.927314L16.1436 0.770087C16.6668 0.0143462 17.751 -0.273398 18.6016 0.315009L22.3271 2.89313L22.3857 2.9361C25.5722 5.37684 26.9999 9.95345 27 13.3765V25.3765H24V13.3765C23.9999 10.5338 22.7684 7.02394 20.583 5.33356L17.9316 3.4986C17.7028 3.79079 17.4305 4.09932 17.1113 4.39216C16.2908 5.14498 15.0797 5.87653 13.5 5.87653C11.9197 5.87653 10.7083 5.14433 9.8877 4.39118C9.56744 4.09719 9.29376 3.78786 9.06445 3.4947L6.39355 5.33161C4.23094 7.02307 3.00014 10.5346 3 13.3765V25.3765H0V13.3765C0.000130567 9.95415 1.4266 5.38066 4.58203 2.94001C4.60413 2.92292 4.62738 2.90603 4.65039 2.8902L8.40234 0.311103L8.5752 0.205634ZM18.5 11.8765H13.5V8.87653H18.5V11.8765Z" fill="currentColor" />

</g>
</svg>
