<svg viewBox="0 0 32 32" fill="none" xmlns="http://www.w3.org/2000/svg">
<g transform="translate(0.4998, 3.2500)">
<path d="M11.5002 3H9.49336C8.38434 3.00001 7.40785 3.73097 7.09492 4.79492L4.61934 13.21C5.66872 12.451 6.98892 12 8.50019 12C11.8123 12 14.2099 14.1607 14.8371 17H16.1633C16.7905 14.1607 19.188 12 22.5002 12C24.0115 12 25.3317 12.451 26.3811 13.21L23.9055 4.79492C23.5925 3.73097 22.6161 3 21.507 3H19.5002V0H21.507C23.9469 0 26.095 1.60754 26.7834 3.94824L30.9396 18.0771C31.0728 18.5304 30.9843 19.0201 30.7014 19.3984C30.4182 19.7769 29.9729 20 29.5002 20H28.8723C28.674 21.1454 28.2355 22.2704 27.4904 23.2148C26.3814 24.6205 24.6895 25.5 22.5002 25.5C20.3109 25.5 18.619 24.6205 17.51 23.2148C16.7649 22.2704 16.3264 21.1455 16.1281 20H14.8723C14.674 21.1455 14.2355 22.2704 13.4904 23.2148C12.3814 24.6205 10.6895 25.5 8.50019 25.5C6.31087 25.5 4.61897 24.6205 3.50996 23.2148C2.76486 22.2704 2.32638 21.1454 2.12812 20H1.50019C1.02749 20 0.582234 19.7769 0.299023 19.3984C0.0160443 19.0201 -0.0723725 18.5304 0.0607419 18.0771L4.21699 3.94824C4.90543 1.60754 7.05352 5.55059e-06 9.49336 0H11.5002V3ZM8.50019 15C6.37571 15.0001 5.00019 16.5193 5.00019 18.5C5.00022 19.6331 5.31116 20.6539 5.86543 21.3564C6.38139 22.0104 7.18962 22.5 8.50019 22.5C9.8108 22.5 10.619 22.0104 11.135 21.3564C11.6892 20.6539 12.0002 19.6331 12.0002 18.5C12.0002 16.5192 10.6247 15 8.50019 15ZM22.5002 15C20.3757 15 19.0002 16.5192 19.0002 18.5C19.0002 19.633 19.3112 20.6539 19.8654 21.3564C20.3814 22.0104 21.1897 22.5 22.5002 22.5C23.8106 22.5 24.619 22.0104 25.135 21.3564C25.6893 20.6539 26.0002 19.633 26.0002 18.5C26.0002 16.5193 24.6247 15 22.5002 15Z" fill="currentColor" />

</g>
</svg>
