<svg viewBox="0 0 32 32" fill="none" xmlns="http://www.w3.org/2000/svg">
<g transform="translate(4.4996, 1.6244)">
<path d="M17.6934 0.0126953C18.1378 0.0704211 18.5374 0.324825 18.7764 0.711914C19.0154 1.0992 19.0638 1.57086 18.916 1.99414L18.8408 2.17285L18.8398 2.17383L18.8359 2.18164C18.8338 2.18594 18.8306 2.19142 18.8271 2.19824C18.8201 2.21204 18.8111 2.23128 18.7988 2.25488C18.774 2.30245 18.7387 2.3698 18.6934 2.45312C18.6029 2.61958 18.4715 2.8527 18.3047 3.13086C17.9728 3.68411 17.4891 4.43047 16.8887 5.18457C16.5331 5.63106 16.1227 6.09558 15.666 6.53125C19.9573 8.20034 23 12.3685 23 17.25C23 23.6013 17.8513 28.75 11.5 28.75C5.14873 28.75 0 23.6013 0 17.25C1.98061e-07 12.3688 3.04213 8.20056 7.33301 6.53125C6.87649 6.09572 6.46673 5.63089 6.11133 5.18457C5.51087 4.43047 5.02717 3.68411 4.69531 3.13086C4.52847 2.8527 4.39714 2.61958 4.30664 2.45312C4.26133 2.3698 4.22597 2.30245 4.20117 2.25488C4.18887 2.23128 4.1799 2.21204 4.17285 2.19824C4.16936 2.19142 4.16624 2.18594 4.16406 2.18164L4.16016 2.17383L4.15918 2.17285C3.92593 1.70786 3.95043 1.15461 4.22363 0.711914C4.49687 0.269386 4.9799 0 5.5 0H17.5L17.6934 0.0126953ZM11.5 8.75C6.80558 8.75 3 12.5556 3 17.25C3 21.9444 6.80558 25.75 11.5 25.75C16.1944 25.75 20 21.9444 20 17.25C20 12.5556 16.1944 8.75 11.5 8.75ZM8.45801 3.31543C8.95798 3.94333 9.51001 4.5183 10.0732 4.9248C10.6422 5.33533 11.118 5.5 11.5 5.5C11.882 5.5 12.3578 5.33533 12.9268 4.9248C13.49 4.5183 14.042 3.94333 14.542 3.31543C14.6253 3.21081 14.704 3.10431 14.7822 3H8.21777C8.29604 3.10431 8.37471 3.21081 8.45801 3.31543Z" fill="currentColor" />

</g>
</svg>
