<svg viewBox="0 0 32 32" fill="none" xmlns="http://www.w3.org/2000/svg">
<g transform="translate(1.0005, 2.5004)">
<path d="M20.0605 25.0605C18.7155 26.4055 16.7977 27 15 27C13.2023 27 11.2843 26.4055 9.93941 25.0605L12.0605 22.9395C12.7155 23.5945 13.7977 24 15 24C16.2022 24 17.2844 23.5945 17.9394 22.9395L20.0605 25.0605ZM16.5 5.5H22L22.1533 5.50781C22.9097 5.58461 23.5 6.22334 23.5 7C23.5 8.87415 22.4469 10.7464 20.9804 12.1016C20.8808 12.1936 20.7777 12.2834 20.6728 12.3721C21.3539 12.5779 22.0402 12.8249 22.7187 13.1162C25.4484 14.2885 28.1489 16.2312 29.8164 19.2803C30.0704 19.7449 30.06 20.3091 29.79 20.7646C29.5198 21.2202 29.0296 21.5 28.5 21.5H1.49996C0.970314 21.5 0.480037 21.2202 0.209919 20.7646C-0.0600606 20.3091 -0.0704515 19.7449 0.183551 19.2803C1.85103 16.2312 4.55152 14.2885 7.28121 13.1162C7.95936 12.825 8.6453 12.5779 9.32613 12.3721C9.22142 12.2836 9.11895 12.1935 9.01949 12.1016C7.55304 10.7464 6.49996 8.87412 6.49996 7C6.49996 6.60221 6.65815 6.22075 6.93941 5.93945C7.22068 5.65818 7.60218 5.50004 7.99996 5.5H13.5V0H16.5V5.5ZM15 14.5C13.2176 14.5 10.7775 14.8798 8.4648 15.873C6.99647 16.5037 5.61869 17.3648 4.48629 18.5H25.5136C24.3812 17.3648 23.0035 16.5037 21.5351 15.873C19.2224 14.8799 16.7823 14.5 15 14.5ZM9.94625 8.5C10.2018 8.96603 10.5687 9.4485 11.0556 9.89844C12.0197 10.7893 13.3089 11.4171 14.7168 11.4922L15 11.5L15.2832 11.4922C16.691 11.4171 17.9802 10.7893 18.9443 9.89844C19.4312 9.4485 19.7981 8.96604 20.0537 8.5H9.94625Z" fill="currentColor" />

</g>
</svg>
