<svg viewBox="0 0 32 32" fill="none" xmlns="http://www.w3.org/2000/svg">
<g transform="translate(2.2200, 2.2200)">
<path d="M7.89551 1.06055L8.95703 2.12109L6.59961 4.47852L13.3643 11.2432L17.0889 7.51855L17.1982 7.41895C17.4651 7.20025 17.8013 7.07912 18.1494 7.0791C18.5471 7.07917 18.9287 7.23741 19.21 7.51855L25.9199 14.2285C27.199 15.5076 27.7817 17.3261 27.4844 19.1104L26.4639 25.2314C26.3584 25.8634 25.8634 26.3584 25.2314 26.4639L19.1104 27.4844C17.3261 27.7817 15.5076 27.199 14.2285 25.9199L7.51855 19.21C6.93306 18.6243 6.93318 17.6746 7.51855 17.0889L11.2432 13.3643L4.47852 6.59961L2.12109 8.95703L1.06055 7.89551L0 6.83496L3.41797 3.41797L6.83496 0L7.89551 1.06055ZM10.7012 18.1494L16.3506 23.7988C16.9445 24.3926 17.7887 24.6634 18.6172 24.5254L23.6807 23.6807L24.5254 18.6172C24.6634 17.7887 24.3926 16.9445 23.7988 16.3506L18.1494 10.7012L10.7012 18.1494Z" fill="currentColor" />

</g>
</svg>
