<svg viewBox="0 0 32 32" fill="none" xmlns="http://www.w3.org/2000/svg">
<g transform="translate(2.5002, 2.5002)">
<path d="M13.5 0C14.1595 0 14.7418 0.43079 14.9346 1.06152L17.5098 9.48926L25.9385 12.0654C26.5692 12.2582 27 12.8405 27 13.5C27 14.1595 26.5692 14.7418 25.9385 14.9346L17.5098 17.5098L14.9346 25.9385C14.7418 26.5692 14.1595 27 13.5 27C12.8405 27 12.2582 26.5692 12.0654 25.9385L9.48926 17.5098L1.06152 14.9346C0.43079 14.7418 0 14.1595 0 13.5C0 12.8405 0.43079 12.2582 1.06152 12.0654L9.48926 9.48926L12.0654 1.06152L12.1064 0.945312C12.3318 0.378509 12.8818 0 13.5 0ZM12.126 11.1299C11.9802 11.6068 11.6068 11.9802 11.1299 12.126L6.63281 13.5L11.1299 14.874L11.3037 14.9395C11.6966 15.1151 11.9984 15.4529 12.126 15.8701L13.5 20.3662L14.874 15.8701C15.0198 15.3932 15.3932 15.0198 15.8701 14.874L20.3662 13.5L15.8701 12.126C15.3932 11.9802 15.0198 11.6068 14.874 11.1299L13.5 6.63281L12.126 11.1299Z" fill="currentColor" />

</g>
</svg>
