<svg viewBox="0 0 32 32" fill="none" xmlns="http://www.w3.org/2000/svg">
<g transform="translate(2.5002, 3.2503)">
<path d="M13.5002 0C16.1955 5.72149e-05 18.1233 0.75398 19.4045 1.56738C20.0385 1.97 20.5025 2.37998 20.8175 2.70312C20.975 2.86467 21.0963 3.00471 21.1828 3.1123C21.2259 3.16595 21.2607 3.21186 21.2873 3.24805C21.3005 3.26612 21.3121 3.2827 21.3214 3.2959C21.326 3.30234 21.3305 3.30826 21.3341 3.31348C21.3359 3.31605 21.3375 3.31904 21.339 3.32129C21.3397 3.32224 21.3404 3.32332 21.341 3.32422L21.342 3.32617C21.3371 3.3305 21.2583 3.38497 20.0998 4.16699L21.3439 3.32715C21.7013 3.8568 21.6832 4.55516 21.3 5.06641L19.4201 7.57227C19.9337 7.82934 20.5262 8.1442 21.1437 8.51758C22.9291 9.59714 25.2241 11.3151 26.2599 13.626C26.7398 14.6969 26.9021 15.9912 26.963 16.9033C26.9949 17.3809 27.0015 17.8011 27.0002 18.1025C26.9995 18.2537 26.9969 18.3767 26.9943 18.4639C26.993 18.5075 26.9914 18.5423 26.9904 18.5674V25.5H23.9904V20.0361H20.9953V25.5H17.9953V20.0361H15.0002V25.5H12.0002V20.0361H9.00504V25.5H6.00504V20.0361H3.00992V25.5H0.00991928V18.5674C0.00889714 18.5423 0.00731203 18.5075 0.00601303 18.4639C0.00341612 18.3767 0.000810966 18.2537 0.000153654 18.1025C-0.00114899 17.8011 0.00537754 17.3809 0.037263 16.9033C0.0981852 15.9912 0.260425 14.6969 0.740388 13.626C1.77625 11.315 4.07122 9.59712 5.8566 8.51758C6.4738 8.14439 7.06584 7.82926 7.57926 7.57227L5.70035 5.06641C5.31692 4.5551 5.29885 3.85687 5.6564 3.32715L6.90054 4.16699C5.75386 3.39298 5.66481 3.33156 5.65836 3.32617L5.65933 3.32422C5.65994 3.32332 5.66064 3.32224 5.66129 3.32129C5.66282 3.31902 5.66441 3.31603 5.66617 3.31348C5.66977 3.30826 5.67433 3.30234 5.67886 3.2959C5.68817 3.28269 5.69976 3.26612 5.71304 3.24805C5.73966 3.21185 5.77443 3.16594 5.81754 3.1123C5.90402 3.00469 6.02528 2.86466 6.18277 2.70312C6.49788 2.37996 6.96183 1.96998 7.59586 1.56738C8.87701 0.754001 10.8048 0 13.5002 0ZM13.5002 3C11.3959 3 10.0231 3.57976 9.20426 4.09961C9.08871 4.17297 8.9827 4.2457 8.88687 4.31641L11.0998 7.2666C11.3821 7.6432 11.4716 8.13079 11.341 8.58301C11.2103 9.0351 10.8752 9.40033 10.4357 9.56836V9.56738L10.4279 9.57129C10.4198 9.57446 10.4056 9.57947 10.3869 9.58691C10.3488 9.60207 10.2892 9.62601 10.2121 9.6582C10.0571 9.72288 9.82856 9.82139 9.54801 9.95117C8.98479 10.2117 8.21936 10.5952 7.40933 11.085C5.71834 12.1074 4.11817 13.4267 3.47867 14.8535C3.23084 15.4065 3.09433 16.2308 3.03629 17.0361H23.964C23.906 16.2308 23.7694 15.4065 23.5216 14.8535C22.8822 13.4267 21.2819 12.1074 19.591 11.085C18.781 10.5952 18.0155 10.2117 17.4523 9.95117C17.1718 9.82141 16.9432 9.7229 16.7882 9.6582C16.7111 9.62603 16.6515 9.60209 16.6134 9.58691C16.5948 9.5795 16.5806 9.57448 16.5724 9.57129C16.5687 9.56982 16.5659 9.568 16.5646 9.56738C16.1251 9.39935 15.79 9.03505 15.6593 8.58301C15.5287 8.13071 15.6181 7.64324 15.9005 7.2666L18.1125 4.31641C18.0168 4.24585 17.9113 4.17282 17.7961 4.09961C16.9772 3.57975 15.6044 3.00006 13.5002 3Z" fill="currentColor" />

</g>
</svg>
