<svg viewBox="0 0 32 32" fill="none" xmlns="http://www.w3.org/2000/svg">
<g transform="translate(1.4994, 5.4995)">
<path d="M12.3467 0.0419745C12.9636 -0.106906 13.6081 0.148327 13.9551 0.67967V0.680646C13.9558 0.681241 13.9573 0.682437 13.958 0.683576L14.002 0.751935C14.0334 0.799869 14.0801 0.871393 14.1397 0.961896C14.2593 1.14355 14.4327 1.40526 14.6446 1.72362C15.069 2.36138 15.6496 3.22618 16.2744 4.13475C17.5688 6.0168 18.9252 7.89657 19.5371 8.50877C20.3328 9.30459 21.6045 10.1295 23.0078 10.8818C24.3863 11.6207 25.7879 12.2351 26.7637 12.6357C28.0793 13.1762 28.9998 14.4597 29 15.9375V17.5C28.9998 19.4326 27.4327 20.9997 25.5 21H16.5508C13.9734 21 12.3105 19.5057 11.1387 18.292C10.5884 17.7219 10.2019 17.2817 9.79006 16.8808L9.01565 19.876C8.84429 20.5374 8.24674 20.9996 7.5635 21H3.06936C2.35717 21 1.74283 20.4984 1.59963 19.8008L0.315451 13.5351C0.312628 13.5214 0.310069 13.507 0.307638 13.4931C-0.0421436 11.4962 -0.0351771 9.36076 0.0459196 7.32908C0.129699 5.23062 0.285149 3.32779 0.285177 1.49998C0.285178 1.05227 0.485749 0.627704 0.831076 0.342756C1.13305 0.0937723 1.51846 -0.0258699 1.90432 0.00486517L2.07033 0.0273261C2.0715 0.0275182 2.07408 0.0278986 2.07619 0.0283027C2.08119 0.0292847 2.08938 0.0312544 2.09963 0.0331855C2.12131 0.037256 2.15495 0.0428407 2.19826 0.0507636C2.28567 0.0667495 2.41541 0.090213 2.57912 0.118146C2.90767 0.174197 3.37348 0.249258 3.91604 0.324201C5.01447 0.475902 6.38127 0.621076 7.5635 0.621076C8.73757 0.62101 9.9356 0.477316 10.8555 0.329084C11.3113 0.255626 11.6905 0.182323 11.9531 0.127912C12.0842 0.100762 12.1867 0.0786251 12.2539 0.0634589C12.2872 0.0559594 12.3125 0.0505071 12.3281 0.0468574C12.3357 0.0450841 12.3417 0.0436813 12.3447 0.0429511H12.3467V0.0419745ZM4.29299 18H6.40139L6.99123 15.7178L3.70119 15.1113L4.29299 18ZM11.333 3.291C10.3274 3.45304 8.95679 3.62101 7.5635 3.62108C6.17821 3.62108 4.65424 3.45448 3.50588 3.29588C3.41668 3.28356 3.32922 3.26908 3.24416 3.25682C3.19076 4.65521 3.09668 6.10429 3.04299 7.4492C2.97946 9.04099 2.97384 10.5576 3.12307 11.9551L9.11916 13.0596L9.19924 13.0762C10.2004 13.3183 10.9868 13.9016 11.6035 14.4648C12.1881 14.9987 12.8166 15.7104 13.2969 16.208C14.3718 17.3214 15.2771 18 16.5508 18H25.5C25.7758 17.9997 25.9998 17.7758 26 17.5V15.9375C25.9998 15.7314 25.8658 15.5106 25.624 15.4111C24.5953 14.9887 23.0922 14.3301 21.5908 13.5254C20.1146 12.734 18.5292 11.7432 17.416 10.6299C16.5634 9.77693 15.0309 7.62072 13.8028 5.83494C13.1666 4.90999 12.5765 4.0318 12.1465 3.38572C12.0976 3.31223 12.0505 3.24109 12.0059 3.17381C11.8043 3.21114 11.5783 3.25146 11.333 3.291Z" fill="currentColor" />

</g>
</svg>
