<svg viewBox="0 0 32 32" fill="none" xmlns="http://www.w3.org/2000/svg">
<g transform="translate(2.5002, 2.5002)">
<path d="M14.0741 2.2177C17.0312 -0.739203 21.8252 -0.739265 24.7822 2.2177C27.7391 5.17467 27.7391 9.96871 24.7822 12.9257L18.8544 18.8544L12.9257 24.7822C9.96871 27.7391 5.17467 27.7391 2.2177 24.7822C-0.739264 21.8252 -0.739206 17.0312 2.2177 14.0741L8.14544 8.14544L14.0741 2.2177ZM4.3388 16.1952C2.55346 17.9807 2.5534 20.8757 4.3388 22.6611C6.12419 24.4465 9.01919 24.4464 10.8046 22.6611L15.6708 17.7929L9.20599 11.3281L4.3388 16.1952ZM22.6611 4.3388C20.8757 2.5534 17.9807 2.55346 16.1952 4.3388L11.3281 9.20598L17.7929 15.6708L22.6611 10.8046C24.4464 9.01919 24.4465 6.12419 22.6611 4.3388Z" fill="currentColor" />

</g>
</svg>
