<svg viewBox="0 0 32 32" fill="none" xmlns="http://www.w3.org/2000/svg">
<g transform="translate(0.5957, 1.7500)">
<path d="M21.5498 5.5C23.2542 5.5 24.8129 6.46287 25.5752 7.9873L28.5352 13.9072C28.5383 13.9136 28.5408 13.9204 28.5439 13.9268C29.0426 13.8099 29.5289 13.6876 30 13.5557L30.8086 16.4443C30.195 16.6162 29.5589 16.7741 28.9043 16.9219V27C28.9043 27.8284 28.2327 28.5 27.4043 28.5H21.4043C20.576 28.4999 19.9043 27.8283 19.9043 27V24.5H10.9043V27C10.9043 27.8284 10.2327 28.5 9.4043 28.5H3.4043C2.57594 28.5 1.90434 27.8284 1.9043 27V16.9219C1.24976 16.7741 0.613567 16.6162 0 16.4443L0.808594 13.5557C1.27938 13.6875 1.76538 13.81 2.26367 13.9268L5.2334 7.9873C5.99568 6.46289 7.55441 5.50003 9.25879 5.5H21.5498ZM25.9043 17.4951C19.3242 18.5466 11.4844 18.5466 4.9043 17.4951V25.5H7.9043V23C7.9043 22.1716 8.57597 21.5001 9.4043 21.5H21.4043C22.2327 21.5 22.9043 22.1716 22.9043 23V25.5H25.9043V17.4951ZM9.25879 8.5C8.69072 8.50003 8.17109 8.82104 7.91699 9.3291L5.31836 14.5244C11.6089 15.5376 19.1986 15.5374 25.4893 14.5244L22.8916 9.3291C22.6375 8.82102 22.1179 8.5 21.5498 8.5H9.25879ZM15.4043 0C17.202 -8.74429e-08 19.1199 0.594603 20.4648 1.93945L18.3438 4.06055C17.6887 3.4056 16.6065 3 15.4043 3C14.2021 3.00005 13.1198 3.40561 12.4648 4.06055L10.3438 1.93945C11.6887 0.594613 13.6067 5.0361e-05 15.4043 0Z" fill="currentColor" />

</g>
</svg>
