<svg viewBox="0 0 32 32" fill="none" xmlns="http://www.w3.org/2000/svg">
<g transform="translate(0.5002, 2.5000)">
<path d="M12.6988 0C17.3287 0.000106278 21.098 3.73345 21.0982 8.35742C21.0982 9.85535 20.7887 11.3763 20.1089 12.7061H27.647L27.8472 12.7197C28.3084 12.7817 28.7196 13.0554 28.9527 13.4668C29.7103 14.806 30.9995 16.5115 30.9996 19.7861C30.9993 23.9097 27.3496 26.9999 23.1753 27H9.82378C5.6496 26.9998 1.99981 23.9097 1.99956 19.7861C1.99968 16.9583 3.79046 14.7101 6.17729 13.54C5.87388 13.1611 5.59992 12.7546 5.35991 12.3262L0.942918 10.5596C0.338849 10.3179 -0.0405864 9.71455 0.00346524 9.06543C0.0475186 8.41649 0.50438 7.86988 1.1353 7.71191L4.4312 6.8877C5.12998 2.96768 8.57127 0.000138922 12.6988 0ZM12.6988 3C9.7084 3.00016 7.29952 5.40763 7.29936 8.35742C7.29947 10.196 8.39493 11.9589 9.93022 12.9434C10.4624 13.2845 10.7238 13.9227 10.5835 14.5391C10.4431 15.1553 9.93158 15.6172 9.30425 15.6943C6.75524 16.0075 4.99973 17.8502 4.99956 19.7861C4.99982 21.9738 7.013 23.9998 9.82378 24H23.1753C25.9863 23.9999 27.9993 21.9739 27.9996 19.7861C27.9995 17.8609 27.4563 16.851 26.7847 15.7061H16.8511C16.1892 15.7059 15.6052 15.2717 15.4146 14.6377C15.2242 14.0037 15.4717 13.3191 16.024 12.9541C17.3373 12.0861 18.0981 10.41 18.0982 8.35742C18.098 5.4076 15.6892 3.00011 12.6988 3Z" fill="currentColor" />

</g>
</svg>
