<svg viewBox="0 0 32 32" fill="none" xmlns="http://www.w3.org/2000/svg">
<g transform="translate(1.4994, 4.7495)">
<path d="M27.5 0C28.3284 4.12322e-06 29 0.671575 29 1.5C29 5.12294 28.4853 7.75516 27.5156 9.71289C26.5209 11.7209 25.1076 12.8994 23.5713 13.7041C22.1535 14.4468 20.4461 14.9393 19.1689 15.4199C17.7955 15.9368 16.5894 16.5317 15.5605 17.5605C14.9748 18.1463 14.0252 18.1463 13.4395 17.5605C12.4106 16.5317 11.2045 15.9368 9.83105 15.4199C8.55389 14.9393 6.8465 14.4468 5.42871 13.7041C4.5622 13.2502 3.73536 12.6767 3 11.9033V22.5H0V1.5C0 0.671573 0.671573 0 1.5 0H27.5ZM3.03711 3C3.15979 5.52397 3.59326 7.21255 4.17188 8.38086C4.83339 9.71637 5.73267 10.4757 6.82129 11.0459C8.02844 11.6782 9.25873 11.9983 10.8877 12.6113C12.062 13.0533 13.316 13.6149 14.5 14.5146C15.684 13.6149 16.938 13.0533 18.1123 12.6113C19.7413 11.9983 20.9716 11.6782 22.1787 11.0459C23.2673 10.4757 24.1666 9.71637 24.8281 8.38086C25.4067 7.21255 25.8402 5.52397 25.9629 3H3.03711Z" fill="currentColor" />

</g>
</svg>
