<svg viewBox="0 0 32 32" fill="none" xmlns="http://www.w3.org/2000/svg">
<g transform="translate(4.0004, 2.7506)">
<path d="M3 9.67165C3.00007 9.7422 3.01404 9.78856 3.02344 9.80935C3.02431 9.81118 3.02571 9.81294 3.02637 9.81423C3.71199 10.31 4.95266 10.9998 6.5 10.9998C8.04686 10.9998 9.28691 10.31 9.97266 9.81423C9.97336 9.81286 9.97557 9.81134 9.97656 9.80935C9.98596 9.78855 9.99993 9.74219 10 9.67165V1.49978H13V9.67165C12.9999 10.5769 12.6386 11.5889 11.7422 12.239C10.9983 12.7784 9.69695 13.5494 8 13.8601V26.4998H5V13.8601C3.30305 13.5494 2.00172 12.7784 1.25781 12.239C0.361431 11.5889 0.000142196 10.5769 0 9.67165V1.49978H3V9.67165ZM21.8594 0.143333C22.324 -0.0759678 22.8688 -0.0417598 23.3027 0.233177C23.7366 0.508265 24 0.986043 24 1.49978V26.4998H21V20.9998H16.5C16.1024 20.9997 15.7207 20.8414 15.4395 20.5603C15.1583 20.2791 15.0001 19.8974 15 19.4998C15 17.5352 14.9339 13.6164 15.6875 9.81325C16.4258 6.08766 18.053 1.94083 21.8594 0.143333ZM21 4.5906C19.8444 6.0356 19.0923 8.06854 18.6309 10.3972C18.0916 13.1191 18.0119 15.9325 18.002 17.9998H21V4.5906ZM8 9.49978H5V1.49978H8V9.49978Z" fill="currentColor" />

</g>
</svg>
