<svg viewBox="0 0 32 32" fill="none" xmlns="http://www.w3.org/2000/svg">
<g transform="translate(0.5000, 4.0000)">
<path d="M6.5 11C10.0899 11 13 13.9101 13 17.5C13 21.0898 10.0898 24 6.5 24C2.91017 24 2.88625e-05 21.0898 0 17.5C0 13.9101 2.91015 11 6.5 11ZM15.5 3H8.6709L8.21094 4.83789L20.0703 12.7441C21.2312 11.6624 22.788 11 24.5 11C28.0899 11 31 13.9101 31 17.5C31 21.0898 28.0898 24 24.5 24C20.9102 24 18 21.0898 18 17.5C18 16.7047 18.1429 15.9426 18.4043 15.2383L5.66797 6.74805C5.14061 6.39641 4.89123 5.75067 5.04492 5.13574L6.04492 1.13574L6.08105 1.01367C6.28695 0.411909 6.85469 6.9174e-05 7.5 0H15.5V3ZM6.5 14C4.567 14 3 15.567 3 17.5C3.00003 19.433 4.56702 21 6.5 21C8.43298 21 9.99997 19.433 10 17.5C10 15.567 8.433 14 6.5 14ZM24.5 14C23.8419 14 23.226 14.1812 22.7002 14.4971L25.332 16.252L23.668 18.748L21.0361 16.9932C21.0121 17.1586 21 17.3279 21 17.5C21 19.433 22.567 21 24.5 21C26.433 21 28 19.433 28 17.5C28 15.567 26.433 14 24.5 14ZM27.5 9H19.5V6H27.5V9Z" fill="currentColor" />

</g>
</svg>
