<svg viewBox="0 0 32 32" fill="none" xmlns="http://www.w3.org/2000/svg">
<g transform="translate(1.4994, 3.9997)">
<path d="M13.5353 0.351149C14.093 -0.11705 14.9073 -0.11705 15.465 0.351149L15.4669 0.353102C15.4679 0.353937 15.4695 0.354919 15.4708 0.356032C15.4738 0.358547 15.4781 0.361977 15.4826 0.365798C15.4916 0.373516 15.5037 0.384088 15.5187 0.397048C15.5488 0.423088 15.5906 0.459813 15.6427 0.506423C15.7472 0.599839 15.894 0.734148 16.0724 0.905837C16.429 1.24906 16.9171 1.74564 17.4542 2.3697C18.2298 3.27075 19.1322 4.46721 19.8908 5.87752C21.2343 5.06281 22.5452 4.46766 23.6046 4.05427C24.3359 3.76897 24.9575 3.5653 25.4005 3.4322C25.6218 3.36574 25.7996 3.31705 25.9249 3.28377C25.9875 3.26715 26.0378 3.25458 26.0734 3.24568C26.091 3.24127 26.1057 3.23752 26.1163 3.23494C26.1213 3.23374 26.1257 3.2328 26.129 3.23201C26.1307 3.23162 26.1327 3.23045 26.1339 3.23006H26.1369C26.8229 3.06844 27.5285 3.40604 27.8331 4.04158L26.4806 4.69002C27.7557 4.07931 27.8297 4.04421 27.8341 4.04256V4.04353L27.8351 4.04549C27.8358 4.04684 27.8372 4.0487 27.838 4.05037L27.8615 4.10115C27.8757 4.13233 27.8944 4.17535 27.9171 4.2281C27.9628 4.33405 28.0245 4.48302 28.0949 4.66951C28.2354 5.04221 28.4135 5.571 28.5744 6.21638C28.894 7.49904 29.1583 9.2945 28.8888 11.273C28.6364 13.1247 27.8412 14.6588 26.8097 16.2164C24.9835 18.9735 21.9284 20.8963 19.4933 22.1041C18.2518 22.7198 17.1174 23.1759 16.2931 23.4781C15.8802 23.6295 15.5421 23.7432 15.3048 23.8199C15.1864 23.8582 15.0922 23.8877 15.0265 23.9078C14.9939 23.9177 14.9678 23.9258 14.9494 23.9312C14.9403 23.9339 14.9324 23.9355 14.9269 23.9371C14.9243 23.9379 14.9218 23.9395 14.9201 23.94H14.9181L14.9171 23.941L14.5001 22.4996L14.9161 23.941C14.6445 24.0194 14.3558 24.0194 14.0841 23.941L14.5001 22.4996L14.0831 23.941L14.0822 23.94H14.0802C14.0784 23.9395 14.0761 23.9379 14.0734 23.9371C14.0679 23.9355 14.0601 23.934 14.0509 23.9312C14.0324 23.9257 14.0065 23.9178 13.9738 23.9078C13.908 23.8877 13.814 23.8582 13.6954 23.8199C13.4581 23.7432 13.1201 23.6295 12.7072 23.4781C11.8828 23.1759 10.7486 22.7198 9.50697 22.1041C7.0718 20.8963 4.01673 18.9736 2.19056 16.2164C1.15906 14.6588 0.363877 13.1247 0.11146 11.273C-0.158059 9.29454 0.106286 7.49903 0.425913 6.21638C0.586756 5.57106 0.76491 5.04221 0.905405 4.66951C0.975689 4.48309 1.03752 4.33404 1.08314 4.2281C1.10583 4.17542 1.12462 4.13232 1.1388 4.10115L1.16224 4.05037C1.16301 4.04875 1.16445 4.04682 1.16517 4.04549L1.16615 4.04353V4.04256C1.16636 4.04215 1.17049 4.0439 2.47669 4.66951L1.16712 4.04158C1.47172 3.40605 2.17741 3.06847 2.86341 3.23006L2.51966 4.69002L2.86439 3.23006H2.86634C2.8676 3.23035 2.8695 3.23158 2.87123 3.23201C2.87459 3.23281 2.87888 3.23372 2.88392 3.23494C2.89454 3.23752 2.90913 3.24124 2.92689 3.24568C2.96248 3.25458 3.01262 3.26711 3.07533 3.28377C3.20064 3.31705 3.37836 3.3657 3.59974 3.4322C4.04274 3.56529 4.66422 3.76891 5.39564 4.05427C6.45497 4.46759 7.76517 5.06297 9.10853 5.87752C9.86706 4.46712 10.7705 3.27082 11.546 2.3697C12.0831 1.74574 12.5713 1.24905 12.9279 0.905837C13.1062 0.734243 13.2531 0.599833 13.3576 0.506423C13.4096 0.459906 13.4515 0.423079 13.4816 0.397048C13.4964 0.384176 13.5087 0.373501 13.5177 0.365798C13.5221 0.362055 13.5265 0.358528 13.5294 0.356032C13.5307 0.354985 13.5323 0.353894 13.5333 0.353102L13.5353 0.351149ZM14.5001 3.57771C14.2927 3.79445 14.0618 4.04522 13.8195 4.32674C12.8781 5.42043 11.7988 6.92422 11.1251 8.64021C10.7193 9.67423 10.4708 10.761 10.4708 11.8678C10.471 14.2727 11.6468 16.6205 12.9572 18.4615C13.5028 19.2281 14.0518 19.8752 14.5001 20.3668C14.9485 19.8753 15.4975 19.228 16.0431 18.4615C17.3535 16.6205 18.5293 14.2727 18.5294 11.8678C18.5294 10.761 18.281 9.67426 17.8751 8.64021C17.2015 6.92413 16.1221 5.42044 15.1808 4.32674C14.9384 4.04515 14.7076 3.79449 14.5001 3.57771ZM3.33705 6.94197C3.07789 7.98202 2.88111 9.37751 3.08412 10.8678C3.24772 12.068 3.7627 13.1576 4.69154 14.5601C5.81901 16.2624 7.67318 17.6618 9.56166 18.7369C8.44296 16.845 7.47097 14.4642 7.47083 11.8678C7.47083 10.751 7.65177 9.68388 7.94251 8.68806C6.65752 7.86345 5.35989 7.26047 4.3058 6.8492C3.99316 6.72722 3.70407 6.62307 3.44642 6.53474C3.40976 6.66206 3.3728 6.7985 3.33705 6.94197ZM25.5529 6.53474C25.2955 6.62299 25.0066 6.7274 24.6945 6.8492C23.6402 7.26055 22.3419 7.86329 21.0568 8.68806C21.3476 9.68398 21.5294 10.7509 21.5294 11.8678C21.5293 14.4644 20.5564 16.845 19.4376 18.7369C21.3263 17.6618 23.1811 16.2625 24.3087 14.5601C25.2376 13.1576 25.7525 12.068 25.9161 10.8678C26.1192 9.37748 25.9224 7.98202 25.6632 6.94197C25.6274 6.79837 25.5896 6.66216 25.5529 6.53474Z" fill="currentColor" />

</g>
</svg>
