<svg viewBox="0 0 32 32" fill="none" xmlns="http://www.w3.org/2000/svg">
<g transform="translate(0.5002, 0.5002)">
<path d="M8.69771 0.231957C9.26987 -0.129626 10.0141 -0.0631247 10.5131 0.394066L22.0835 10.9995H27.4995C29.4323 10.9995 30.9992 12.5668 30.9995 14.4995V15.4995C30.9995 17.4325 29.4325 18.9995 27.4995 18.9995H22.1206L10.56 30.5601C10.0682 31.0518 9.30307 31.1413 8.71138 30.7759C8.11984 30.4101 7.85667 29.6848 8.07662 29.0249L11.4184 18.9995H5.49947C5.04406 18.9995 4.6132 18.7925 4.32857 18.437L0.328572 13.437C-0.0313453 12.9869 -0.101722 12.3696 0.147908 11.8501C0.397726 11.3307 0.923044 10.9996 1.49947 10.9995H17.644L12.4253 6.21536C12.502 6.50296 12.5768 6.78071 12.642 7.04153C12.7385 7.42723 12.8229 7.78984 12.8842 8.09621C12.9375 8.36267 12.9994 8.70807 12.9995 8.99954H9.99947C9.99947 9.04117 9.99888 8.96436 9.94283 8.68411C9.89477 8.4439 9.82277 8.1336 9.73189 7.77004C9.55038 7.04401 9.30534 6.15553 9.05709 5.28664C8.80953 4.4202 8.56175 3.58248 8.37545 2.96145C8.28245 2.65145 8.20498 2.39522 8.15084 2.21731C8.12388 2.12873 8.10176 2.05925 8.08736 2.01223C8.08029 1.98909 8.07539 1.97042 8.07174 1.95852C8.06993 1.95275 8.06774 1.94773 8.06685 1.94485C8.06652 1.9438 8.06606 1.94252 8.06588 1.94192V1.94094C7.8671 1.29415 8.12587 0.593678 8.69771 0.231957ZM6.22115 15.9995H13.4995C13.9815 15.9995 14.4343 16.2317 14.7163 16.6226C14.9981 17.0136 15.0746 17.5168 14.9223 17.9741L12.9321 23.9458L20.4389 16.439C20.7202 16.1578 21.1018 15.9996 21.4995 15.9995H27.4995C27.7756 15.9995 27.9995 15.7757 27.9995 15.4995V14.4995C27.9992 14.2236 27.7755 13.9995 27.4995 13.9995H4.62056L6.22115 15.9995Z" fill="currentColor" />

</g>
</svg>
