<svg viewBox="0 0 32 32" fill="none" xmlns="http://www.w3.org/2000/svg">
<g transform="translate(0.5000, 0.5000)">
<path d="M17.2314 1.59568C19.3592 -0.531939 22.8087 -0.53185 24.9365 1.59568C25.7697 2.42892 26.2733 3.46608 26.4541 4.5449C27.5333 4.72552 28.5708 5.22994 29.4043 6.06346C31.5318 8.19124 31.5319 11.6408 29.4043 13.7685C27.6444 15.5285 24.9808 15.831 22.9082 14.6797L14.6797 22.9082C15.831 24.9808 15.5285 27.6443 13.7685 29.4043C11.6408 31.5319 8.19125 31.5318 6.06346 29.4043C5.22994 28.5708 4.72552 27.5333 4.5449 26.4541C3.46608 26.2733 2.42892 25.7697 1.59569 24.9365C-0.531847 22.8087 -0.531943 19.3592 1.59569 17.2314C3.35528 15.4718 6.01832 15.1687 8.0908 16.3193L16.3193 8.0908C15.1687 6.01831 15.4718 3.35528 17.2314 1.59568ZM22.8154 3.71678C21.8592 2.76082 20.3087 2.76073 19.3525 3.71678C18.3964 4.67293 18.3965 6.22342 19.3525 7.17967C19.6337 7.46088 19.7919 7.84253 19.792 8.24021C19.792 8.63804 19.6338 9.02043 19.3525 9.30174L9.30174 19.3525C8.71595 19.9383 7.76546 19.9383 7.17967 19.3525C6.22342 18.3965 4.67293 18.3964 3.71678 19.3525C2.76072 20.3087 2.76082 21.8592 3.71678 22.8154C4.28247 23.3811 5.05536 23.6129 5.79588 23.5078C6.26285 23.4415 6.73386 23.5991 7.06736 23.9326C7.40087 24.2661 7.55844 24.7371 7.49217 25.2041C7.38702 25.9446 7.61886 26.7175 8.18455 27.2832C9.14077 28.2391 10.6913 28.2392 11.6474 27.2832C12.6036 26.3271 12.6034 24.7766 11.6474 23.8203C11.3662 23.5391 11.2081 23.1574 11.208 22.7597C11.208 22.3619 11.3661 21.9795 11.6474 21.6982L21.6982 11.6474L21.8125 11.5439C22.4016 11.0635 23.2712 11.0983 23.8203 11.6474C24.7765 12.6034 26.327 12.6036 27.2832 11.6474C28.2392 10.6913 28.2391 9.14076 27.2832 8.18455C26.7175 7.61886 25.9446 7.38702 25.2041 7.49217C24.7371 7.55844 24.2661 7.40087 23.9326 7.06736C23.5991 6.73385 23.4415 6.26285 23.5078 5.79588C23.6129 5.05536 23.3811 4.28247 22.8154 3.71678Z" fill="currentColor" />

</g>
</svg>
