<svg viewBox="0 0 32 32" fill="none" xmlns="http://www.w3.org/2000/svg">
<g transform="translate(1.6772, 4.2484)">
<path d="M17.3232 23.5039H11.3232V20.5039H17.3232V23.5039ZM25.4385 2.00781L16.3418 12.1143L22.9092 19.4121C23.2317 19.3677 23.639 19.3107 24.0986 19.2412C25.2522 19.0667 26.7146 18.8226 28 18.5391L28.6465 21.4688C27.2654 21.7734 25.7275 22.0296 24.5479 22.208C23.9552 22.2977 23.4464 22.3683 23.0859 22.417C22.9058 22.4413 22.7621 22.4599 22.6631 22.4727C22.6136 22.479 22.5751 22.484 22.5488 22.4873C22.5357 22.489 22.5255 22.4903 22.5186 22.4912C22.5153 22.4916 22.5126 22.492 22.5107 22.4922H22.5068C22.0209 22.5521 21.5357 22.3716 21.208 22.0078L14.3232 14.3574L7.43848 22.0078C7.11085 22.3717 6.62558 22.5521 6.13965 22.4922H6.13574C6.13389 22.492 6.13116 22.4916 6.12793 22.4912C6.12097 22.4903 6.1107 22.4889 6.09766 22.4873C6.07137 22.484 6.03279 22.479 5.9834 22.4727C5.8844 22.4599 5.7406 22.4413 5.56055 22.417C5.20009 22.3683 4.69123 22.2976 4.09863 22.208C2.91899 22.0296 1.38105 21.7734 0 21.4688L0.646484 18.5391C1.93188 18.8226 3.39434 19.0667 4.54785 19.2412C5.00748 19.3107 5.41481 19.3677 5.7373 19.4121L12.3037 12.1143L3.20801 2.00781L5.43848 0L14.3232 9.87207L23.208 0L25.4385 2.00781Z" fill="currentColor" />

</g>
</svg>
