<svg viewBox="0 0 32 32" fill="none" xmlns="http://www.w3.org/2000/svg">
<g transform="translate(3.5003, 2.4648)">
<path d="M23.4998 0C24.0292 8.04541e-06 24.5196 0.279147 24.7898 0.734375C25.06 1.1896 25.0707 1.754 24.8172 2.21875L18.9285 13.0137C20.2179 14.504 20.9998 16.446 20.9998 18.5713C20.9996 23.2655 17.194 27.0712 12.4998 27.0713C7.80551 27.0713 4.00001 23.2655 3.99979 18.5713C3.99979 16.4456 4.78135 14.5031 6.07108 13.0127L0.183386 2.21875C-0.0700758 1.75407 -0.0603485 1.18957 0.209753 0.734375C0.446187 0.3361 0.851393 0.0723776 1.3035 0.0126953L1.49979 0H23.4998ZM12.4998 13.0713C9.46223 13.0713 6.99979 15.5337 6.99979 18.5713C7.00001 21.6087 9.46236 24.0713 12.4998 24.0713C15.5372 24.0712 17.9996 21.6086 17.9998 18.5713C17.9998 15.5338 15.5373 13.0714 12.4998 13.0713ZM17.4275 3L13.8387 10.1768C14.8085 10.3302 15.7241 10.6464 16.5555 11.0986L20.9734 3H17.4275ZM4.02714 3L8.44413 11.0977C9.05632 10.7647 9.71461 10.5062 10.406 10.3311L14.0721 3H4.02714Z" fill="currentColor" />

</g>
</svg>
