<svg viewBox="0 0 32 32" fill="none" xmlns="http://www.w3.org/2000/svg">
<g transform="translate(2.3271, 4.5004)">
<path d="M5 0C7.76142 0 10 2.23858 10 5C9.99997 5.44119 9.93997 5.86961 9.83203 6.27832L14.8076 9.68262L25.6533 2.26172L27.3467 4.73828L17.4639 11.5L27.3467 18.2617L25.6533 20.7383L14.8076 13.3164L9.83203 16.7217C9.93996 17.1304 10 17.5588 10 18C9.99982 20.7613 7.76131 23 5 23C2.23886 22.9998 0.00018191 20.7611 0 18C0 15.2387 2.23874 13.0002 5 13C6.23203 13 7.35905 13.4464 8.22949 14.1836L12.1514 11.5L8.22949 8.81641C7.35909 9.5534 6.23188 10 5 10C2.23886 9.9998 0.000181392 7.76115 0 5C5.15382e-07 2.2387 2.23875 0.000197918 5 0ZM5 16C3.8956 16.0002 3 16.8956 3 18C3.00018 19.1043 3.89571 19.9998 5 20C6.10446 20 6.99982 19.1044 7 18C7 17.6143 6.89233 17.2581 6.70605 16.9551C6.35175 16.3789 5.71934 16 5 16ZM5 3C3.8956 3.0002 3 3.89555 3 5C3.00018 6.10429 3.89571 6.9998 5 7C5.71917 7 6.35171 6.62084 6.70605 6.04492C6.8923 5.74196 6.99994 5.38565 7 5C7 3.89543 6.10457 3 5 3Z" fill="currentColor" />

</g>
</svg>
