<svg viewBox="0 0 32 32" fill="none" xmlns="http://www.w3.org/2000/svg">
<g transform="translate(4.4995, 1.4994)">
<path d="M3 14.5C3 18.0898 5.91015 21 9.5 21H13.5C17.0898 21 20 18.0899 20 14.5H23C23 19.7467 18.7467 24 13.5 24H13V26H15.5V29H7.5V26H10V24H9.5C4.2533 24 0 19.7467 0 14.5H3ZM12.5 0C15.5376 0 18 2.46243 18 5.5V13.5C18 16.5376 15.5376 19 12.5 19H10.5C7.46244 19 5 16.5376 5 13.5V5.5C5 2.46244 7.46244 3.12474e-06 10.5 0H12.5ZM10.5 3C9.11929 3 8 4.11929 8 5.5V13.5C8 14.8807 9.11929 16 10.5 16H12.5C13.8807 16 15 14.8807 15 13.5V5.5C15 4.11929 13.8807 3 12.5 3H10.5Z" fill="currentColor" />

</g>
</svg>
