<svg viewBox="0 0 32 32" fill="none" xmlns="http://www.w3.org/2000/svg">
<g transform="translate(3.7500, 3.5000)">
<path d="M6.5 0C8.34087 0 9.99138 0.620284 11.1855 1.81445C11.4223 2.05126 11.6358 2.30653 11.8271 2.57715C11.8854 2.50736 11.9444 2.43841 12.0049 2.37109C13.2444 0.991643 15.1018 -0.00410731 17.2471 0.353516C19.3014 0.696144 20.5502 2.12873 21.4014 2.92676C22.2929 3.76257 23.0633 4.33301 24.5 4.33301V7.33301C21.9369 7.33301 20.4569 6.15428 19.3486 5.11523C18.2001 4.03842 17.6983 3.4701 16.7529 3.3125C15.887 3.16832 14.9937 3.53323 14.2363 4.37598C13.4696 5.22924 13 6.42011 13 7.5V8.90039C14.0121 8.30617 15.2089 8 16.5 8C18.3409 8 19.9914 8.62028 21.1855 9.81445C22.3797 11.0086 23 12.6591 23 14.5H20C20 13.3409 19.6203 12.4914 19.0645 11.9355C18.5086 11.3797 17.6591 11 16.5 11C15.3409 11 14.4914 11.3797 13.9355 11.9355C13.3797 12.4914 13 13.3409 13 14.5V22H19.5V25H3.5V22H10V14.5C10 13.3409 9.62028 12.4914 9.06445 11.9355C8.50862 11.3797 7.65913 11 6.5 11C5.34087 11 4.49138 11.3797 3.93555 11.9355C3.37972 12.4914 3 13.3409 3 14.5H0C0 12.6591 0.620284 11.0086 1.81445 9.81445C3.00862 8.62028 4.65913 8 6.5 8C7.7911 8 8.98794 8.30617 10 8.90039V6.5C10 5.34087 9.62028 4.49138 9.06445 3.93555C8.50862 3.37972 7.65913 3 6.5 3C5.34087 3 4.49138 3.37972 3.93555 3.93555C3.37972 4.49138 3 5.34087 3 6.5H0C0 4.65913 0.620284 3.00862 1.81445 1.81445C3.00862 0.620284 4.65913 0 6.5 0Z" fill="currentColor" />

</g>
</svg>
