<svg viewBox="0 0 32 32" fill="none" xmlns="http://www.w3.org/2000/svg">
<g transform="translate(0.5000, 3.5000)">
<path d="M15.5 0C18.169 0.000175794 20.3327 2.16404 20.333 4.83301V4.90527C20.333 6.62832 19.4287 8.22483 17.9512 9.11133L17 9.68164V10.6641L29.3418 18.3047C30.3723 18.9426 30.9999 20.0693 31 21.2812V21.5C31 23.433 29.433 25 27.5 25H3.5C1.567 25 0 23.433 0 21.5V21.2812C0.000112241 20.0693 0.62768 18.9426 1.6582 18.3047L14 10.6641V8.83301C14.0002 8.30646 14.2761 7.81788 14.7275 7.54688L16.4082 6.53906C16.982 6.19471 17.333 5.57447 17.333 4.90527V4.83301C17.3327 3.82089 16.5122 3.00018 15.5 3C14.4878 3.00017 13.6664 3.82089 13.666 4.83301V5.5H10.666V4.83301C10.6664 2.16404 12.831 0.000173142 15.5 0ZM3.2373 20.8555C3.09017 20.9466 3.00011 21.1082 3 21.2812V21.5C3 21.7761 3.22386 22 3.5 22H27.5C27.7761 22 28 21.7761 28 21.5V21.2812C27.9999 21.1082 27.9098 20.9466 27.7627 20.8555L15.5 13.2637L3.2373 20.8555Z" fill="currentColor" />

</g>
</svg>
