<svg viewBox="0 0 32 32" fill="none" xmlns="http://www.w3.org/2000/svg">
<g transform="translate(4.4999, 1.7499)">
<path d="M19.5 5.5C21.433 5.5 23 7.06701 23 9V25C23 26.933 21.433 28.5 19.5 28.5H3.5C1.567 28.5 1.07375e-07 26.933 0 25V9C1.17293e-05 7.06702 1.56701 5.5 3.5 5.5H19.5ZM3 25C3 25.2761 3.22386 25.5 3.5 25.5H19.5C19.7761 25.5 20 25.2761 20 25V23.167H3V25ZM3.5 8.5C3.22387 8.5 3.00001 8.72387 3 9V20.167H20V9C20 8.72387 19.7761 8.5 19.5 8.5H3.5ZM11.5 0C13.2977 -2.92168e-06 15.2156 0.594496 16.5605 1.93945L14.4395 4.06055C13.7844 3.40551 12.7023 3 11.5 3C10.2977 3 9.21559 3.4055 8.56055 4.06055L6.43945 1.93945C7.78441 0.594488 9.70229 3.54793e-06 11.5 0Z" fill="currentColor" />

</g>
</svg>
