<svg viewBox="0 0 32 32" fill="none" xmlns="http://www.w3.org/2000/svg">
<g transform="translate(1.2494, 2.2494)">
<path d="M14 18.5C16.4853 18.5 18.5 20.5147 18.5 23C18.5 25.4853 16.4853 27.5 14 27.5C11.5147 27.5 9.5 25.4853 9.5 23H12.5C12.5 23.8284 13.1716 24.5 14 24.5C14.8284 24.5 15.5 23.8284 15.5 23C15.5 22.1716 14.8284 21.5 14 21.5H0V18.5H14ZM25 13C27.4853 13 29.5 15.0147 29.5 17.5C29.5 19.9853 27.4853 22 25 22C22.5147 22 20.5 19.9853 20.5 17.5H23.5C23.5 18.3284 24.1716 19 25 19C25.8284 19 26.5 18.3284 26.5 17.5C26.5 16.6716 25.8284 16 25 16H0V13H25ZM14 0C17.1807 0 20.039 1.31769 22.0977 3.24902C24.1428 5.16771 25.5 7.7931 25.5 10.5H22.5C22.5 8.78876 21.6189 6.9142 20.0449 5.4375C18.4843 3.9734 16.3421 3 14 3C11.6579 3 9.5157 3.9734 7.95508 5.4375C6.38115 6.9142 5.5 8.78876 5.5 10.5H2.5C2.5 7.7931 3.8572 5.16771 5.90234 3.24902C7.96101 1.31769 10.8193 0 14 0Z" fill="currentColor" />

</g>
</svg>
