<svg viewBox="0 0 32 32" fill="none" xmlns="http://www.w3.org/2000/svg">
<g transform="translate(0.5002, 4.4999)">
<path d="M13.2725 0.0227887C13.933 -0.0938039 14.5993 0.244696 14.8896 0.861656L14.8906 0.864586C14.8917 0.866715 14.8936 0.870232 14.8955 0.874351C14.8998 0.883514 14.9064 0.898099 14.915 0.916343C14.9327 0.953491 14.9599 1.00923 14.9941 1.08041C15.0629 1.22353 15.1638 1.4309 15.2891 1.6849C15.5405 2.19467 15.8905 2.89049 16.2861 3.63314C17.1143 5.18792 18.0269 6.72806 18.6289 7.3724C19.3571 8.15157 20.8196 9.01778 22.6367 9.8431C24.3987 10.6434 26.3016 11.322 27.7354 11.7923C28.5318 12.0536 29.2068 12.4838 29.6709 13.1331C30.1308 13.7768 30.2758 14.4853 30.293 15.1058C30.3096 15.71 30.2075 16.3089 30.1016 16.8109C30.081 16.9081 30.056 17.0049 30.0342 17.1009C30.2677 17.3091 30.463 17.5561 30.6133 17.8314C30.9945 18.5299 31.0529 19.317 30.9619 19.9769C30.8697 20.645 30.6035 21.3464 30.1396 21.9134C29.6636 22.4951 28.9127 23.0003 27.9346 23.0003H4.16699C1.81846 23.0003 0.000229304 21.0452 0 18.7415V15.7874C0 15.1119 0.241033 14.4497 0.666992 13.9349V6.32748C0.667129 5.85866 0.886415 5.41667 1.25977 5.13314C1.6336 4.84954 2.11941 4.75671 2.57129 4.88314H2.57031C2.5708 4.8833 2.57213 4.88381 2.57324 4.88412C2.57575 4.8848 2.58031 4.8855 2.58594 4.88705C2.5977 4.89029 2.61612 4.89606 2.64062 4.90267C2.69005 4.916 2.76454 4.93555 2.86035 4.96029C3.05283 5.00999 3.33151 5.07924 3.66797 5.15658C4.34538 5.31228 5.24148 5.49653 6.14355 5.61752C7.06837 5.74153 7.9005 5.78525 8.49023 5.71224C8.64512 5.69305 8.75669 5.66742 8.83301 5.64584C8.95357 5.23258 9.04398 4.8794 9.18848 4.38021C9.33981 3.85746 9.52925 3.27674 9.81055 2.72005C10.4195 1.51522 11.4183 0.518481 13.1396 0.0520856L13.2725 0.0227887ZM13.9453 17.0023C9.95794 16.1639 6.54962 15.5826 3 15.9251V18.7415C3.00022 19.4845 3.56988 20.0003 4.16699 20.0003H27.8271C27.8893 19.9178 27.9633 19.7615 27.9902 19.5667C27.9988 19.5046 27.9988 19.4483 27.9971 19.4007C22.4622 18.9239 17.9311 17.8404 13.9453 17.0023ZM12.8574 3.5306C12.706 3.69 12.5904 3.87152 12.4883 4.07357C12.3341 4.37868 12.2059 4.74691 12.0703 5.21517C11.955 5.61364 11.7881 6.26079 11.6318 6.76888C11.4078 7.49681 10.8958 7.96668 10.3809 8.24349C9.8907 8.50691 9.34597 8.6295 8.85938 8.68978C7.88365 8.81066 6.74731 8.72471 5.74414 8.59017C5.00587 8.49114 4.28494 8.35648 3.66699 8.22689V12.8665C7.36097 12.6574 10.8756 13.2915 14.5625 14.0667C18.3415 14.8613 22.3359 15.8088 27.1387 16.306C27.1472 16.2674 27.1579 16.2289 27.166 16.1908C27.2586 15.7521 27.3005 15.4319 27.2939 15.1888C27.2877 14.9635 27.2417 14.8931 27.2305 14.8773C27.2237 14.8678 27.1476 14.7567 26.8008 14.6429C25.3159 14.1558 23.2976 13.4385 21.3955 12.5745C19.5486 11.7357 17.6026 10.669 16.4365 9.42123C15.5174 8.43759 14.4293 6.52938 13.6377 5.0433C13.3464 4.49644 13.0808 3.97514 12.8574 3.5306Z" fill="currentColor" />

</g>
</svg>
