<svg viewBox="0 0 32 32" fill="none" xmlns="http://www.w3.org/2000/svg">
<g transform="translate(4.0004, 1.5151)">
<path d="M19.2939 2.94141L15.3184 3.73633L14.9658 5.9707H24V8.9707H22.3574L20.4922 27.6201C20.4155 28.3869 19.7706 28.9707 19 28.9707H5C4.22942 28.9707 3.58452 28.3869 3.50781 27.6201L1.64258 8.9707H0V5.9707H11.9287L12.5186 2.23633L12.541 2.12207C12.676 1.5564 13.1289 1.11544 13.7061 1L18.7061 0L19.2939 2.94141ZM6.35742 25.9707H17.6426L19.3428 8.9707H14.4922L12.4814 21.7051L9.51855 21.2363L11.4551 8.9707H4.65723L6.35742 25.9707Z" fill="currentColor" />

</g>
</svg>
