<svg viewBox="0 0 32 32" fill="none" xmlns="http://www.w3.org/2000/svg">
<g transform="translate(1.4994, 3.4995)">
<path d="M17.6455 0.112279C18.0185 -0.0405866 18.4374 -0.0373869 18.8076 0.122045L28.0938 4.12205C28.6438 4.35908 29 4.90104 29 5.49997V12.5C29 13.0047 28.7458 13.4755 28.3242 13.7529C27.9027 14.0302 27.3697 14.0775 26.9062 13.8779L24.373 12.7861L24.4502 23.4892C24.453 23.8887 24.296 24.273 24.0146 24.5566C23.7331 24.8402 23.3498 24.9999 22.9502 25H6.14258C5.31427 24.9998 4.64258 24.3283 4.64258 23.5V12.7793L2.09375 13.8779C1.63031 14.0775 1.09734 14.0302 0.675781 13.7529C0.254208 13.4755 9.67139e-06 13.0047 0 12.5V5.49997C1.90919e-05 4.90102 0.356196 4.35906 0.90625 4.12205L10.1924 0.122045L10.333 0.0702872C10.6665 -0.0353005 11.0279 -0.0215633 11.3545 0.112279C11.7276 0.265199 12.024 0.562004 12.1758 0.935522C12.3939 1.47128 13.2084 2.02146 14.5 2.02146C15.7916 2.02145 16.6062 1.47129 16.8242 0.935522C16.976 0.562005 17.2724 0.265198 17.6455 0.112279ZM18.7627 3.36912C17.6437 4.55399 15.9333 5.02145 14.5 5.02146C13.0665 5.02146 11.3554 4.55434 10.2363 3.36912L3 6.48728V10.2207L5.5498 9.12302C6.0133 8.92344 6.54622 8.96963 6.96777 9.24705C7.38919 9.52446 7.64249 9.99545 7.64258 10.5V22H21.4395L21.3574 10.5107C21.3539 10.0042 21.6062 9.52993 22.0283 9.24997C22.4504 8.97017 22.9851 8.9227 23.4502 9.12302L26 10.2207V6.48728L18.7627 3.36912Z" fill="currentColor" />

</g>
</svg>
