<svg viewBox="0 0 32 32" fill="none" xmlns="http://www.w3.org/2000/svg">
<g transform="translate(0.5000, 3.7500)">
<path d="M0.577148 0.317294C0.94118 0.0332265 1.41628 -0.0671601 1.86426 0.0448335L29.8643 7.04483C30.5318 7.21193 31 7.81177 31 8.49991V24.4999H28V9.67081L3 3.42081V24.4999H0V1.49991C4.17945e-06 1.03801 0.213078 0.601552 0.577148 0.317294ZM19.3232 11.4999C20.5943 11.4999 21.7655 12.1896 22.3828 13.3007L24.1113 16.411C24.3967 16.3144 24.6752 16.2146 24.9434 16.1073L26.0566 18.8925C25.558 19.0919 25.0374 19.272 24.5 19.4374V24.4999H21.5V20.1591C19.5705 20.5081 17.5258 20.6819 15.501 20.6835C13.4758 20.6851 11.4304 20.5149 9.5 20.1679V24.4999H6.5V19.4472C5.96266 19.2821 5.44197 19.1027 4.94336 18.9032L6.05664 16.1181C6.32299 16.2246 6.59947 16.3239 6.88281 16.4198L8.61719 13.2997C9.23452 12.1888 10.4058 11.4999 11.6768 11.4999H19.3232ZM11.6768 14.4999C11.4952 14.4999 11.3274 14.5981 11.2393 14.7567L9.8877 17.1894C11.6483 17.516 13.5628 17.685 15.499 17.6835C17.4339 17.682 19.3472 17.5109 21.1074 17.1825L19.7598 14.7567C19.6715 14.5983 19.5046 14.4999 19.3232 14.4999H11.6768Z" fill="currentColor" />

</g>
</svg>
