<svg viewBox="0 0 32 32" fill="none" xmlns="http://www.w3.org/2000/svg">
<g transform="translate(0.6348, 6.0000)">
<path d="M8.20996 6.30762C11.0345 6.2328 14.1537 7.21105 17.5322 9.61035C18.709 10.4461 21.1007 12.3055 23.166 13.9287C24.2058 14.746 25.1748 15.5123 25.8828 16.0742C25.9405 16.12 25.9967 16.1641 26.0508 16.207C27.0277 15.847 28.0564 15.3479 29.1445 14.6699L29.9375 15.9434L30.7305 17.2158C27.3218 19.3396 24.2559 20.0518 21.4111 19.9971C18.6171 19.9433 16.1172 19.1462 13.9141 18.4258C11.638 17.6816 9.7377 17.0449 7.81445 17.002C5.99287 16.9613 4.08016 17.461 1.875 19.2275L0 16.8857C2.73 14.6989 5.3238 13.9458 7.88184 14.0029C8.79117 14.0233 9.68627 14.1481 10.5625 14.332L14.2061 11.0342C11.9177 9.71484 9.95 9.26271 8.29004 9.30664C6.25729 9.36051 4.51198 10.1612 3.04102 11.3379L2.10449 10.167L1.16797 8.99512C3.03017 7.50559 5.38614 6.38257 8.20996 6.30762ZM13.9727 15.291C14.2668 15.3867 14.5584 15.4803 14.8457 15.5742C17.0721 16.3022 19.1781 16.9539 21.4688 16.998C21.7099 17.0027 21.9539 16.9981 22.2012 16.9883C21.914 16.7618 21.6167 16.5262 21.3125 16.2871C19.7195 15.035 17.9835 13.6842 16.7607 12.7666L13.9727 15.291ZM24.7705 0C27.8081 0 30.2705 2.46243 30.2705 5.5C30.2705 8.53757 27.8081 11 24.7705 11C21.7332 10.9997 19.2705 8.5374 19.2705 5.5C19.2705 2.4626 21.7332 0.000262905 24.7705 0ZM24.7705 3C23.39 3.00026 22.2705 4.11945 22.2705 5.5C22.2705 6.88055 23.39 7.99974 24.7705 8C26.1512 8 27.2705 6.88071 27.2705 5.5C27.2705 4.11929 26.1512 3 24.7705 3Z" fill="currentColor" />

</g>
</svg>
