<svg viewBox="0 0 32 32" fill="none" xmlns="http://www.w3.org/2000/svg">
<g transform="translate(1.4994, 1.4994)">
<path d="M15.7998 0C16.1976 1.36643e-05 16.5791 0.158222 16.8604 0.439453L20.7607 4.33887C21.3463 4.92467 21.3465 5.87523 20.7607 6.46094C20.2699 6.95213 20.2697 7.74818 20.7607 8.23926C21.2518 8.7301 22.048 8.73007 22.5391 8.23926C22.8203 7.95804 23.2019 7.79991 23.5996 7.7998C23.9974 7.79982 24.3798 7.95797 24.6611 8.23926L28.5605 12.1396C28.8416 12.4209 29 12.8025 29 13.2002C28.9998 13.5978 28.8417 13.9796 28.5605 14.2607L14.2607 28.5605C13.9795 28.8417 13.5978 28.9999 13.2002 29C12.8025 29 12.4209 28.8416 12.1396 28.5605L8.23926 24.6611C7.95805 24.3799 7.79991 23.9973 7.7998 23.5996C7.79991 23.202 7.95816 22.8203 8.23926 22.5391C8.73025 22.048 8.73016 21.2519 8.23926 20.7607C7.74812 20.2696 6.95211 20.2697 6.46094 20.7607C5.87521 21.3463 4.92461 21.3462 4.33887 20.7607L0.439453 16.8604C0.158307 16.5792 0.000110284 16.1974 0 15.7998C5.15029e-05 15.4021 0.158308 15.0205 0.439453 14.7393L14.7393 0.439453C15.0205 0.158194 15.4021 5.1514e-05 15.7998 0ZM3.62109 15.7998L5.59277 17.7715C7.16112 17.0612 9.07101 17.3503 10.3604 18.6396C11.6494 19.9289 11.9375 21.8381 11.2275 23.4062L13.2002 25.3789L25.3789 13.2002L23.4062 11.2275C21.8381 11.9374 19.9288 11.6493 18.6396 10.3604C17.3504 9.07109 17.0614 7.16106 17.7715 5.59277L15.7998 3.62109L3.62109 15.7998Z" fill="currentColor" />

</g>
</svg>
