<svg viewBox="0 0 32 32" fill="none" xmlns="http://www.w3.org/2000/svg">
<g transform="translate(0.5000, 4.5000)">
<path d="M8.57715 0.317294C8.94118 0.0332265 9.41628 -0.0671601 9.86426 0.0448335L29.8643 5.04483C30.5318 5.21193 31 5.81177 31 6.49991V21.4999C31 22.3283 30.3284 22.9999 29.5 22.9999H1.5C0.671573 22.9999 0 22.3283 0 21.4999V13.4999L0.0146484 13.29C0.082932 12.8063 0.384329 12.3805 0.829102 12.1581L8 8.57218V1.49991C8 1.03801 8.21308 0.601552 8.57715 0.317294ZM3 14.4267V19.9999H8V11.9267L3 14.4267ZM11 19.9999H28V7.67081L11 3.42081V19.9999Z" fill="currentColor" />

</g>
</svg>
