<svg viewBox="0 0 32 32" fill="none" xmlns="http://www.w3.org/2000/svg">
<g transform="translate(1.0005, 4.0004)">
<path d="M9.5 0C9.5 1.54937 10.04 3.51067 11.0625 5.05176C12.0765 6.57994 13.4163 7.5 15 7.5C16.5837 7.5 17.9235 6.57994 18.9375 5.05176C19.96 3.51067 20.5 1.54937 20.5 0H23.5C23.5 1.61073 23.9451 3.54022 24.9795 5.02148C25.9672 6.4357 27.5212 7.5 30 7.5V10.5C27.157 10.5 25.0157 9.45917 23.5 7.91895V16.5H30V19.5H23.5V24H20.5V19.5H9.5V24H6.5V19.5H0V16.5H6.5V8.33887C5.00863 9.67453 2.88899 10.5 0 10.5V7.5C3.05123 7.5 4.53885 6.38119 5.35547 5.08203C6.25106 3.65689 6.5 1.75659 6.5 0H9.5ZM20.5 7.91602C19.1588 9.39828 17.3194 10.5 15 10.5C12.6806 10.5 10.8412 9.39828 9.5 7.91602V16.5H20.5V7.91602Z" fill="currentColor" />

</g>
</svg>
