<svg viewBox="0 0 32 32" fill="none" xmlns="http://www.w3.org/2000/svg">
<g transform="translate(0.5000, 3.0000)">
<path d="M3 19H28V8.5H31V20.5C30.9999 21.3284 30.3284 22 29.5 22H27V26H24V22H7V26H4V22H1.5C1.1022 22 0.720752 21.8418 0.439453 21.5605C0.158177 21.2793 3.23478e-05 20.8978 0 20.5V8.5H3V19ZM21 0C23.4853 0 25.5 2.01472 25.5 4.5V15C25.4999 15.8284 24.8284 16.5 24 16.5H7C6.17161 16.5 5.50007 15.8284 5.5 15V4.5C5.5 2.01472 7.51472 4.02671e-08 10 0H21ZM10 3C9.17157 3 8.5 3.67157 8.5 4.5V13.5H22.5V4.5C22.5 3.67157 21.8284 3 21 3H10Z" fill="currentColor" />

</g>
</svg>
