<svg viewBox="0 0 32 32" fill="none" xmlns="http://www.w3.org/2000/svg">
<g transform="translate(3.0002, 2.5002)">
<path d="M3 24H23V21.5H26V24.5C26 25.8807 24.8807 27 23.5 27H2.5C1.11929 27 0 25.8807 0 24.5V21.5H3V24ZM14 15.667C15.7361 15.667 16.7942 16.3224 17.5967 16.7822C18.3136 17.1931 18.889 17.5 20 17.5C20.6181 17.5 21.0009 17.4237 21.2725 17.3369C21.5606 17.2448 21.7811 17.1262 22.1553 16.9268C22.5224 16.7311 23.0012 16.4804 23.6455 16.2939C24.2905 16.1073 25.0431 16 26 16V19C25.2718 19 24.8067 19.0811 24.4795 19.1758C24.1518 19.2706 23.9029 19.3949 23.5664 19.5742C23.2373 19.7496 22.7766 20.0054 22.1855 20.1943C21.5775 20.3887 20.8816 20.5 20 20.5C18.1112 20.5 16.987 19.8904 16.1045 19.3848C15.3076 18.9281 14.8654 18.667 14 18.667C13.2136 18.667 12.7663 18.9683 11.8145 19.5898C10.8446 20.2231 9.56759 21 7.5 21C5.52881 21 4.42801 20.1345 3.58203 19.6064C2.83397 19.1395 1.96244 18.667 0 18.667V15.667C2.63488 15.667 4.04999 16.3619 5.1709 17.0615C6.19355 17.6999 6.54461 18 7.5 18C8.68422 18 9.35721 17.6114 10.1738 17.0781C11.0084 16.5331 12.1848 15.667 14 15.667ZM13 0C19.5086 1.27305e-05 26 4.0726 26 11.5C26 12.3284 25.3284 13 24.5 13H1.5C0.671573 13 0 12.3284 0 11.5C0 4.0726 6.49141 0 13 0ZM13 3C8.05767 3 3.91347 5.67654 3.13379 10H22.8662C22.0865 5.67656 17.9423 3.00001 13 3Z" fill="currentColor" />

</g>
</svg>
