<svg viewBox="0 0 32 32" fill="none" xmlns="http://www.w3.org/2000/svg">
<g transform="translate(3.4549, 3.0003)">
<path d="M3 6.40918C3.00005 8.39231 4.60769 9.99995 6.59082 10C8.57399 10 10.1816 8.39234 10.1816 6.40918V0H13.1816V6.40918C13.1816 9.53301 11.0079 12.147 8.09082 12.8262V17.5C8.09082 20.5375 10.5534 22.9999 13.5908 23C16.6284 23 19.0908 20.5376 19.0908 17.5V16.7422C17.3434 16.1242 16.0908 14.459 16.0908 12.5C16.0908 10.0148 18.1057 8.00014 20.5908 8C23.0761 8 25.0908 10.0147 25.0908 12.5C25.0908 14.4592 23.8384 16.1243 22.0908 16.7422V17.5C22.0908 22.1944 18.2852 26 13.5908 26C8.89652 25.9999 5.09082 22.1943 5.09082 17.5V12.8262C2.1738 12.147 4.15646e-05 9.53298 0 6.40918V0H3V6.40918ZM20.5908 11C19.7625 11.0001 19.0908 11.6717 19.0908 12.5C19.0908 13.3283 19.7625 13.9999 20.5908 14C21.4192 14 22.0908 13.3284 22.0908 12.5C22.0908 11.6716 21.4192 11 20.5908 11Z" fill="currentColor" />

</g>
</svg>
