<svg viewBox="0 0 32 32" fill="none" xmlns="http://www.w3.org/2000/svg">
<g transform="translate(5.4999, 1.7499)">
<path d="M3.06446 12.8486C7.17323 8.38362 13.8912 8.38374 18 12.8486C22.0556 17.2559 21.9655 23.6361 17.9356 28.0156C17.6515 28.3242 17.2505 28.5 16.8311 28.5H4.10352C3.68431 28.4998 3.28389 28.3241 3.00001 28.0156C-1.05534 23.6084 -0.96541 17.2281 3.06446 12.8486ZM15.792 14.8799C12.8716 11.7068 8.19277 11.7067 5.27247 14.8799C2.42 17.9798 2.24656 22.3043 4.79493 25.5H16.1406C18.7216 22.2799 18.6216 17.9548 15.792 14.8799ZM13 0C13.8284 0 14.5 0.671573 14.5 1.5V5.22461C15.6406 5.57349 16.7487 6.07368 17.7949 6.72754L16.2051 9.27246C12.6915 7.07654 8.30848 7.07648 4.79493 9.27246L3.20509 6.72754C4.25128 6.0737 5.35949 5.5735 6.50001 5.22461V1.5C6.50001 0.671629 7.17166 9.17344e-05 8.00001 0H13ZM9.50001 4.66113C10.1658 4.61223 10.8342 4.61225 11.5 4.66113V3H9.50001V4.66113Z" fill="currentColor" />

</g>
</svg>
