<svg viewBox="0 0 32 32" fill="none" xmlns="http://www.w3.org/2000/svg">
<g transform="translate(3.2500, 3.5000)">
<path d="M13.5 0C14.8807 0 16 1.11929 16 2.5V10H19.5C20.3284 10 21 10.6716 21 11.5V16.5C21 16.7761 21.2239 17 21.5 17H22C22.2761 17 22.5 16.7761 22.5 16.5V6.75977L20.6621 5.8418L22.0039 3.1582L24.6709 4.49121C25.179 4.74525 25.4999 5.26498 25.5 5.83301V16.5C25.5 18.433 23.933 20 22 20H21.5C19.567 20 18 18.433 18 16.5V13H16V22H25.5V25H1.5C0.671573 25 0 24.3284 0 23.5V2.5C1.9328e-07 1.11929 1.11929 2.4765e-09 2.5 0H13.5ZM3 22H13V3H3V22Z" fill="currentColor" />

</g>
</svg>
