<svg viewBox="0 0 32 32" fill="none" xmlns="http://www.w3.org/2000/svg">
<g transform="translate(1.6669, 1.6669)">
<path d="M11.833 3.5H16.833V0H19.833V3.5H23.667C24.4953 3.50018 25.167 4.17168 25.167 5V8.83301H28.667V11.833H25.167V16.833H28.667V19.833H25.167V23.667C25.1668 24.4952 24.4952 25.1668 23.667 25.167H19.833V28.667H16.833V25.167H11.833V28.667H8.83301V25.167H5C4.17168 25.167 3.50018 24.4953 3.5 23.667V19.833H0V16.833H3.5V11.833H0V8.83301H3.5V5C3.5 4.17157 4.17157 3.5 5 3.5H8.83301V0H11.833V3.5ZM6.5 22.167H22.167V6.5H6.5V22.167Z" fill="currentColor" />

</g>
</svg>
