<svg viewBox="0 0 32 32" fill="none" xmlns="http://www.w3.org/2000/svg">
<g transform="translate(2.0005, 4.0004)">
<path d="M28 7H21.7412L9.19141 23.4111C8.9076 23.7822 8.46718 24 8 24H0V21H2.19043L3.04199 14.7568C3.41471 12.0238 5.76663 10.0001 8.50879 10C10.5834 10 12.4649 11.1651 13.4023 12.9648L19.5078 4.98145C19.9808 4.36292 20.7155 4.00002 21.4941 4H28V7ZM8.50879 13C7.25067 13.0001 6.18252 13.9315 6.01465 15.1621L5.21875 21H7.25879L11.2266 15.8096L10.918 14.7812C10.6024 13.7303 9.61921 13 8.50879 13ZM8.5 0C10.7091 0 12.5 1.79086 12.5 4C12.5 6.20914 10.7091 8 8.5 8C6.29086 8 4.5 6.20914 4.5 4C4.5 1.79086 6.29086 0 8.5 0ZM8.5 3C7.94772 3 7.5 3.44772 7.5 4C7.5 4.55228 7.94772 5 8.5 5C9.05228 5 9.5 4.55228 9.5 4C9.5 3.44772 9.05228 3 8.5 3Z" fill="currentColor" />

</g>
</svg>
