<svg viewBox="0 0 32 32" fill="none" xmlns="http://www.w3.org/2000/svg">
<g transform="translate(1.1632, 5.5057)">
<path d="M13.0156 6.00703C14.6314 5.85255 15.8387 6.91056 16.2549 8.10567C16.4694 8.72209 16.5049 9.44422 16.248 10.1379C16.1613 10.3722 16.0423 10.5901 15.8994 10.7922L25.6885 10.1867C27.869 10.0517 29.2898 11.6514 29.6035 13.2629C29.7628 14.0818 29.6671 15.0006 29.1914 15.8078C28.7035 16.6355 27.8864 17.2233 26.8428 17.4719L26.8438 17.4729L13.5547 20.7688C12.9641 20.9152 12.3575 20.9895 11.749 20.9895H1.0498V17.9895H11.749C12.1141 17.9895 12.4787 17.9445 12.833 17.8566L26.1211 14.5617L26.1416 14.5568C26.4682 14.4805 26.5682 14.3492 26.6064 14.2844C26.6597 14.194 26.6986 14.0395 26.6592 13.8361C26.6193 13.6315 26.5124 13.4512 26.3809 13.3371C26.2672 13.2387 26.1129 13.1671 25.874 13.1818L9.42188 14.2004C8.7057 14.2445 8.05855 13.7747 7.87793 13.0803C7.69752 12.3858 8.03366 11.6601 8.68066 11.3498L13.4062 9.08516C13.4092 9.08372 13.4114 9.08069 13.4141 9.0793C13.4077 9.06468 13.4007 9.04888 13.3906 9.03536C13.3775 9.01793 13.3644 9.00641 13.3555 9.0002C13.3477 8.99489 13.3424 8.99235 13.3389 8.99141C13.3356 8.99064 13.3217 8.98808 13.293 8.99141C13.2705 8.99401 13.2472 8.99569 13.2246 8.99727L6.10059 9.49629C5.96549 9.50582 5.83907 9.57033 5.75195 9.67403L2.29785 13.7873L1.14941 12.8225L0 11.8586L3.45508 7.74434C4.0652 7.01791 4.94429 6.57046 5.89062 6.50411L13.0156 6.00411V6.00703ZM21.873 0.71309C22.7778 -0.237668 24.2447 -0.237725 25.1494 0.71309C26.0541 1.66391 26.0541 3.20561 25.1494 4.15645L21.335 7.83321C21.2381 7.92651 21.0841 7.92652 20.9873 7.83321L17.1729 4.15645C16.2682 3.20561 16.2682 1.6639 17.1729 0.71309C18.0775 -0.237716 19.5445 -0.237642 20.4492 0.71309L21.1611 1.46114L21.873 0.71309Z" fill="currentColor" />

</g>
</svg>
