<svg viewBox="0 0 32 32" fill="none" xmlns="http://www.w3.org/2000/svg">
<g transform="translate(0.5000,1.7197)">
<path d="M17.5 0C20.5376 -8.98887e-08 23 2.46243 23 5.5V8H25.5C28.5376 8 31 10.4624 31 13.5V19.5C31 22.5376 28.5376 25 25.5 25H23.5V22H25.5C26.8807 22 28 20.8807 28 19.5V13.5C28 12.1193 26.8807 11 25.5 11H23V11.5C23 14.5376 20.5376 17 17.5 17H11V19.5C11 20.8807 12.1193 22 13.5 22H17.0859C17.666 22 18.2251 22.202 18.6699 22.5664L18.8535 22.7324L22.5605 26.4395L20.4395 28.5605L16.8789 25H13.5C10.4624 25 8 22.5376 8 19.5V17H5.5C2.46243 17 0 14.5376 0 11.5V5.5C1.07836e-06 2.46243 2.46244 3.86246e-07 5.5 0H17.5ZM5.5 3C4.11929 3 3 4.11929 3 5.5V11.5C3 12.8807 4.11929 14 5.5 14H8V13.5C8 10.4624 10.4624 8 13.5 8H20V5.5C20 4.11929 18.8807 3 17.5 3H5.5ZM13.5 11C12.1193 11 11 12.1193 11 13.5V14H17.5C18.8807 14 20 12.8807 20 11.5V11H13.5Z" fill="currentColor" />

</g>
</svg>
