<svg viewBox="0 0 32 32" fill="none" xmlns="http://www.w3.org/2000/svg">
<g transform="translate(1.5005, 1.4625)">
<path d="M14.5 5.61619H6.5C4.56701 5.6162 3.00001 7.18321 3 9.11619V17.1162C3.00003 19.0492 4.56702 20.6162 6.5 20.6162H12.0312C12.7731 20.6162 13.4772 20.9457 13.9521 21.5156L18.6523 27.1562L16.3477 29.0762L11.7969 23.6162H6.5C2.91017 23.6162 2.8348e-05 20.706 0 17.1162V9.11619C7.12994e-06 5.52635 2.91016 2.6162 6.5 2.61619H14.5V5.61619ZM29 17.1162C29 20.706 26.0898 23.6162 22.5 23.6162H18.5V20.6162H22.5C24.433 20.6162 26 19.0492 26 17.1162V12.1162H29V17.1162ZM16.9297 8.17186C17.0052 7.94295 17.3289 7.94283 17.4043 8.17186L18.1172 10.3398C18.142 10.4151 18.2011 10.4741 18.2764 10.499L20.4443 11.2129C20.6735 11.2883 20.6735 11.6121 20.4443 11.6875L18.2764 12.4004C18.2011 12.4252 18.142 12.4843 18.1172 12.5596L17.4043 14.7275C17.3289 14.9567 17.0051 14.9567 16.9297 14.7275L16.2158 12.5596C16.191 12.4843 16.132 12.4251 16.0566 12.4004L13.8887 11.6875C13.6596 11.6121 13.6598 11.2884 13.8887 11.2129L16.0566 10.499C16.1321 10.4742 16.191 10.4152 16.2158 10.3398L16.9297 8.17186ZM22.9297 0.171858C23.0051 -0.0572612 23.3289 -0.0573108 23.4043 0.171858L24.6123 3.84471C24.6371 3.92008 24.6961 3.97906 24.7715 4.00389L28.4443 5.2119C28.6735 5.28727 28.6735 5.61211 28.4443 5.68748L24.7715 6.89549C24.6961 6.92033 24.6371 6.9793 24.6123 7.05467L23.4043 10.7275C23.3289 10.9567 23.0051 10.9566 22.9297 10.7275L21.7217 7.05467C21.6969 6.97925 21.6369 6.9203 21.5615 6.89549L17.8887 5.68748C17.6595 5.6121 17.6595 5.28728 17.8887 5.2119L21.5615 4.00389C21.6369 3.97908 21.6969 3.92013 21.7217 3.84471L22.9297 0.171858Z" fill="currentColor" />

</g>
</svg>
