<svg viewBox="0 0 32 32" fill="none" xmlns="http://www.w3.org/2000/svg">
<g transform="translate(1.5007, 1.5007)">
<path d="M4.24695 4.24695C9.90955 -1.41565 19.0902 -1.41565 24.7528 4.24695C30.4154 9.90956 30.4154 19.0902 24.7528 24.7528C19.0902 30.4154 9.90956 30.4154 4.24695 24.7528C-1.41565 19.0902 -1.41565 9.90955 4.24695 4.24695ZM22.6317 6.36804C18.1407 1.87702 10.8591 1.87702 6.36804 6.36804C1.87702 10.8591 1.87701 18.1407 6.36804 22.6317C10.8591 27.1227 18.1407 27.1227 22.6317 22.6317C27.1227 18.1407 27.1227 10.8591 22.6317 6.36804ZM21.621 10.496L13.621 19.496C13.3273 19.8263 12.9027 20.0104 12.4608 19.9989C12.019 19.9874 11.6051 19.7815 11.329 19.4364L7.32898 14.4364L8.49988 13.4999L9.67078 12.5624L12.5595 16.1737L19.3788 8.50379L21.621 10.496Z" fill="currentColor" />

</g>
</svg>
