<svg viewBox="0 0 32 32" fill="none" xmlns="http://www.w3.org/2000/svg">
<g transform="translate(4.0004, 2.0005)">
<path d="M24 9H22.3506L20.4922 26.6572C20.4118 27.4206 19.7676 28 19 28H5C4.23242 28 3.58824 27.4206 3.50781 26.6572L1.64941 9H0V6H24V9ZM6.35059 25H17.6494L19.333 9H4.66699L6.35059 25ZM12 0C13.5925 0 14.8208 0.400146 15.6709 0.825195C16.0934 1.03647 16.4201 1.25205 16.6504 1.4248C16.7655 1.51117 16.8566 1.58778 16.9248 1.64746C16.959 1.67734 16.9882 1.7025 17.0107 1.72363C17.022 1.73419 17.0317 1.74383 17.04 1.75195L17.0596 1.77148L14.9404 3.89453L14.9414 3.89648L14.9434 3.89746C14.9445 3.8986 14.9453 3.90036 14.9463 3.90137L14.9502 3.90527C14.9351 3.89208 14.901 3.86373 14.8496 3.8252C14.7466 3.74798 14.573 3.63074 14.3291 3.50879C13.8459 3.26717 13.0742 3 12 3C10.9258 3 10.1541 3.26717 9.6709 3.50879C9.42702 3.63074 9.25337 3.74798 9.15039 3.8252C9.09901 3.86373 9.06488 3.89208 9.0498 3.90527L9.05371 3.90137C9.05473 3.90036 9.05549 3.8986 9.05664 3.89746L9.05859 3.89648L9.05957 3.89453L6.94043 1.77148L6.95996 1.75195C6.96835 1.74383 6.978 1.73419 6.98926 1.72363C7.0118 1.7025 7.04105 1.67734 7.0752 1.64746C7.14341 1.58778 7.23446 1.51117 7.34961 1.4248C7.57994 1.25205 7.90657 1.03647 8.3291 0.825195C9.1792 0.400146 10.4075 1.99608e-08 12 0Z" fill="currentColor" />

</g>
</svg>
