<svg viewBox="0 0 32 32" fill="none" xmlns="http://www.w3.org/2000/svg">
<g transform="translate(3.0003, 3.0004)">
<path d="M5.14453 0.110168C6.50381 -0.295838 7.88026 0.459687 8.50293 1.73029L10.623 6.05646C11.2968 7.43136 10.9341 9.088 9.74609 10.0574L7.64355 11.7723C7.53649 11.9373 7.47356 12.127 7.46094 12.3231C7.44831 12.5193 7.48707 12.716 7.57227 12.8934C8.7596 15.3363 10.7425 17.3065 13.1973 18.4832C13.3783 18.5686 13.5786 18.6057 13.7783 18.5906C13.9779 18.5755 14.17 18.5089 14.3359 18.3973L16.252 16.8631C17.1295 16.1602 18.3049 15.9498 19.373 16.3045L23.9062 17.8094C25.4072 18.3079 26.3682 19.8099 25.8652 21.3045C25.4633 22.4985 24.894 23.6594 24.1875 24.2791C22.924 25.3874 21.2985 25.9994 19.6152 25.9998C14.4131 25.9998 9.42362 23.9406 5.74512 20.2752C2.06669 16.6098 8.97367e-05 11.6385 0 6.4549C0.000379411 4.77745 0.614266 3.15738 1.72656 1.89825C2.41132 1.1231 3.79349 0.513757 5.14453 0.110168Z" fill="currentColor" />

</g>
</svg>
