<svg viewBox="0 0 32 32" fill="none" xmlns="http://www.w3.org/2000/svg">
<g transform="translate(2.0005, 2.6723)">
<path d="M13.1279 0.2794C13.6495 -0.0931333 14.3505 -0.0931333 14.8721 0.2794L27.1621 9.0587C27.6876 9.43406 27.9999 10.0399 28 10.6856V25.1564C28 25.9848 27.3284 26.6564 26.5 26.6564H1.5C0.671573 26.6564 0 25.9848 0 25.1564V10.6856C0.000107445 10.0399 0.312389 9.43405 0.837891 9.0587L13.1279 0.2794ZM3.38086 11.6573C2.91345 11.6575 2.70164 12.2417 3.06055 12.5411L13.6797 21.3898C13.8651 21.5443 14.1349 21.5443 14.3203 21.3898L24.9395 12.5411C25.2984 12.2417 25.0866 11.6575 24.6191 11.6573H3.38086Z" fill="currentColor" />

</g>
</svg>
