<svg viewBox="0 0 32 32" fill="none" xmlns="http://www.w3.org/2000/svg">
<g transform="translate(1.4994, 2.7694)">
<path d="M22.5 0C26.0898 1.68542e-05 28.9999 2.91021 29 6.5V14.5C29 18.0898 26.0898 21 22.5 21H18.5V18H22.5C24.433 18 26 16.433 26 14.5V6.5C25.9999 4.56706 24.433 3.00001 22.5 3H6.5C4.56701 3 3.00001 4.56701 3 6.5V14.5C3.00001 16.433 4.56703 18 6.5 18H12.0312C12.7731 18 13.4772 18.3296 13.9521 18.8994L18.6523 24.54L16.3477 26.46L11.7969 21H6.5C2.91019 21 1.17904e-05 18.0898 0 14.5V6.5C1.44819e-05 2.91016 2.91016 -4.37016e-07 6.5 0H22.5Z" fill="currentColor" />

</g>
</svg>
