<svg viewBox="0 0 32 32" fill="none" xmlns="http://www.w3.org/2000/svg">
<g transform="translate(1.4994, 2.7694)">
<path d="M22.5 0C26.0898 1.68545e-05 28.9999 2.91021 29 6.5V14.5C28.9999 18.0898 26.0898 21 22.5 21H18.5V18H22.5C24.433 18 25.9999 16.4329 26 14.5V6.5C25.9999 4.56706 24.433 3.00001 22.5 3H6.5C4.56701 3 3.00001 4.56701 3 6.5V14.5C3.00007 16.4329 4.56706 18 6.5 18H12.0312C12.7731 18 13.4772 18.3296 13.9521 18.8994L18.6523 24.54L16.3477 26.46L11.7969 21H6.5C2.91022 21 6.59739e-05 18.0898 0 14.5V6.5C1.44819e-05 2.91016 2.91016 -4.37016e-07 6.5 0H22.5ZM8.5 9C9.60455 9 10.5 9.89546 10.5 11C10.5 12.1046 9.60457 13 8.5 13C7.39543 13 6.5 12.1046 6.5 11C6.50003 9.89546 7.39545 9 8.5 9ZM14.5 9C15.6045 9 16.5 9.89546 16.5 11C16.5 12.1046 15.6046 13 14.5 13C13.3954 13 12.5 12.1046 12.5 11C12.5 9.89546 13.3955 9 14.5 9ZM20.5 9C21.6045 9 22.5 9.89546 22.5 11C22.5 12.1046 21.6046 13 20.5 13C19.3954 13 18.5 12.1046 18.5 11C18.5 9.89546 19.3955 9 20.5 9Z" fill="currentColor" />

</g>
</svg>
