<svg viewBox="0 0 32 32" fill="none" xmlns="http://www.w3.org/2000/svg">
<g transform="translate(0.5000,5.5000)">
<path fill-rule="evenodd" clip-rule="evenodd" d="M10.5 3C11.3284 3 12 3.67157 12 4.5C12 5.32843 11.3284 6 10.5 6C9.67157 6 9 5.32843 9 4.5C9 3.67157 9.67157 3 10.5 3ZM10.5 9C12.9853 9 15 6.98528 15 4.5C15 2.01472 12.9853 0 10.5 0C8.01472 0 6 2.01472 6 4.5C6 6.98528 8.01472 9 10.5 9ZM10.5 11C12.2526 11 13.9684 11.3627 15.4883 12.023C16.9871 11.3663 18.6971 11 20.5 11C25.9263 11 31 14.4766 31 19.5C31 20.3284 30.3284 21 29.5 21H19.5H11.5H1.5C0.671573 21 0 20.3284 0 19.5C0 14.4766 5.07367 11 10.5 11ZM10.5 14C14.1757 14 16.8368 15.8506 17.6992 18H11.5H3.30078C4.16323 15.8506 6.82428 14 10.5 14ZM25 4.5C25 6.70914 23.2091 8.5 21 8.5C18.7909 8.5 17 6.70914 17 4.5C17 2.29086 18.7909 0.5 21 0.5C23.2091 0.5 25 2.29086 25 4.5Z" fill="currentColor" />

</g>
</svg>
