<svg viewBox="0 0 32 32" fill="none" xmlns="http://www.w3.org/2000/svg">
<g transform="translate(1.6900, 2.2508)">
<path d="M28.6211 17.9961L20.6211 26.9961C20.3274 27.3265 19.9028 27.5105 19.4609 27.499C19.0191 27.4875 18.6052 27.2816 18.3291 26.9365L14.3291 21.9365L15.5 21L16.6709 20.0625L19.5596 23.6738L26.3789 16.0039L28.6211 17.9961ZM13.5 13.5C15.1877 13.5 16.9523 13.7725 18.5049 14.2197C20.0251 14.6577 21.4931 15.3068 22.4785 16.1553L20.5215 18.4287C20.0069 17.9856 19.0112 17.4875 17.6748 17.1025C16.3708 16.7269 14.8856 16.5 13.5 16.5C10.4796 16.5 7.80292 17.4201 5.91504 18.8359C4.52945 19.8751 3.60916 21.1443 3.2168 22.5H12.5V25.5H1.5C0.671573 25.5 0 24.8284 0 24C0 20.9369 1.65884 18.2783 4.11426 16.4365C6.56951 14.5951 9.89312 13.5 13.5 13.5ZM13.5 0C16.5376 0 19 2.46243 19 5.5C19 8.53757 16.5376 11 13.5 11C10.4624 11 8 8.53757 8 5.5C8 2.46243 10.4624 0 13.5 0ZM13.5 3C12.1193 3 11 4.11929 11 5.5C11 6.88071 12.1193 8 13.5 8C14.8807 8 16 6.88071 16 5.5C16 4.11929 14.8807 3 13.5 3Z" fill="currentColor" />

</g>
</svg>
