<svg viewBox="0 0 32 32" fill="none" xmlns="http://www.w3.org/2000/svg">
<g transform="translate(1.7194, 2.9694)">
<path d="M28.5605 16.0605L24.6211 20L28.5605 23.9395L26.4395 26.0605L22.5 22.1211L18.5605 26.0605L16.4395 23.9395L20.3789 20L16.4395 16.0605L18.5605 13.9395L22.5 17.8789L26.4395 13.9395L28.5605 16.0605ZM13.5 16.5C10.4796 16.5 7.80292 17.4201 5.91504 18.8359C4.52945 19.8751 3.60916 21.1443 3.2168 22.5H13.5V25.5H1.5C0.671573 25.5 0 24.8284 0 24C0 20.9369 1.65884 18.2783 4.11426 16.4365C6.56951 14.5951 9.89312 13.5 13.5 13.5V16.5ZM13.5 0C16.5376 0 19 2.46243 19 5.5C19 8.53757 16.5376 11 13.5 11C10.4624 11 8 8.53757 8 5.5C8 2.46243 10.4624 0 13.5 0ZM13.5 3C12.1193 3 11 4.11929 11 5.5C11 6.88071 12.1193 8 13.5 8C14.8807 8 16 6.88071 16 5.5C16 4.11929 14.8807 3 13.5 3Z" fill="currentColor" />

</g>
</svg>
