<svg viewBox="0 0 32 32" fill="none" xmlns="http://www.w3.org/2000/svg">
<g transform="translate(7.0482, 2.0005)">
<path d="M11.0078 2.20312C14.339 2.68638 16.7312 4.74692 17.8877 7.04297L15.208 8.39258C14.512 7.0109 13.0851 5.68819 11.0078 5.24902V12.502C12.3717 12.8086 13.8253 13.2108 15.0166 13.9082C15.8188 14.3779 16.5598 15.0109 17.0938 15.8848C17.6319 16.7656 17.9043 17.8 17.9043 18.9814C17.9043 20.9982 17.0329 22.7911 15.499 24.0518C14.3098 25.0291 12.7709 25.6487 11.0078 25.8711V28H8.00781V25.8848C4.05199 25.4599 1.44167 23.3489 0 20.5674L1.33203 19.877L2.66406 19.1875C3.60748 21.0074 5.25121 22.4754 8.00781 22.8633V14.9297C6.67687 14.6374 5.2621 14.2651 4.10352 13.6338C3.30721 13.1998 2.55603 12.6084 2.00977 11.7715C1.45593 10.9228 1.1758 9.91908 1.17578 8.77344C1.17578 6.87723 1.9801 5.1519 3.49219 3.93164C4.66693 2.98384 6.20462 2.38932 8.00781 2.18066V0H11.0078V2.20312ZM11.0078 22.8389C12.1148 22.6447 12.9784 22.2409 13.5947 21.7344C14.4478 21.0331 14.9043 20.0844 14.9043 18.9814C14.9043 18.2744 14.7467 17.796 14.5342 17.4482C14.3174 17.0936 13.9855 16.7808 13.501 16.4971C12.8353 16.1074 11.9949 15.832 11.0078 15.5859V22.8389ZM8.00781 5.20703C6.83503 5.39111 5.96909 5.78712 5.37598 6.26562C4.5774 6.91001 4.17578 7.77386 4.17578 8.77344C4.1758 9.41201 4.32558 9.83014 4.52246 10.1318C4.72694 10.4449 5.04878 10.7328 5.53906 11C6.20299 11.3617 7.0332 11.6169 8.00781 11.8506V5.20703Z" fill="currentColor" />

</g>
</svg>
