<svg viewBox="0 0 32 32" fill="none" xmlns="http://www.w3.org/2000/svg">
<g transform="translate(5.8473, 3.3107)">
<path d="M11.4961 0C13.7624 1.24893e-05 15.7143 0.78875 17.0938 2.25586C18.4629 3.71188 19.1456 5.70416 19.1456 7.90137H16.1456C16.1456 6.31858 15.6602 5.11019 14.9083 4.31055C14.1668 3.52212 13.0444 3.00001 11.4961 3C9.92612 3 8.74892 3.51259 7.97174 4.27051C7.19555 5.02754 6.71295 6.13049 6.71295 7.51465C6.71295 8.93213 7.20628 10.1202 7.88873 11.4746H14.4532V14.4746H9.33111C9.70957 15.4549 9.98931 16.5412 9.98931 17.7471C9.98929 18.2994 9.93072 18.953 9.79888 19.6416C9.90743 19.7343 10.0143 19.8249 10.1182 19.9131C11.6364 21.2016 12.8861 22.1103 14.5547 22.1104C15.5076 22.1104 16.0989 21.7832 16.4991 21.2705C16.9433 20.7013 17.2832 19.7285 17.3057 18.2451L18.8057 18.2676L20.3057 18.291C20.2775 20.1514 19.8523 21.8502 18.8643 23.1162C17.8321 24.4388 16.3232 25.1104 14.5547 25.1104C12.0061 25.1103 10.1394 23.8196 8.71002 22.6455C7.87448 24.0654 6.45334 25.3787 4.27252 25.3789C3.15497 25.3789 2.07433 25.0167 1.2608 24.2568C0.434732 23.4851 -0.00568061 22.4044 5.53243e-05 21.2012C0.00598501 19.9816 0.478535 18.8901 1.34478 18.1182C2.19508 17.3605 3.31747 17.003 4.49029 17.0029C5.42772 17.0029 6.2556 17.2558 6.98541 17.6172C6.95802 16.5415 6.5916 15.5846 6.04888 14.4746H2.18756V11.4746H4.57623C4.0943 10.3268 3.71295 9.01893 3.71295 7.51465C3.71295 5.40415 4.46554 3.49968 5.87701 2.12305C7.28749 0.747385 9.25162 0 11.4961 0ZM4.49029 20.0029C3.91557 20.003 3.54674 20.1749 3.34088 20.3584C3.1509 20.5277 3.00223 20.7894 3.00006 21.2148C2.99791 21.6567 3.14582 21.9123 3.30865 22.0645C3.48409 22.2283 3.79431 22.3789 4.27252 22.3789C5.0876 22.3787 5.72465 21.9101 6.23834 20.9219C6.27344 20.8543 6.30648 20.7846 6.33892 20.7148C6.26464 20.6638 6.18987 20.6147 6.11529 20.5674C5.50265 20.1786 4.9941 20.0029 4.49029 20.0029Z" fill="currentColor" />

</g>
</svg>
