<svg viewBox="0 0 32 32" fill="none" xmlns="http://www.w3.org/2000/svg">
<g transform="translate(6.4210, 3.4283)">
<path d="M11.3906 0C13.3416 6.28582e-05 15.0291 0.565778 16.3799 1.70215C17.7094 2.82073 18.5975 4.39363 19.1582 6.21582L16.291 7.09863C15.8438 5.64517 15.2101 4.63906 14.4482 3.99805C13.7076 3.375 12.7312 3.00006 11.3906 3C9.9037 3.00012 8.45513 3.59628 7.34375 4.99902C6.70821 5.80125 6.15342 6.9075 5.78809 8.38281H13.0371V11.3828H5.36426C5.34372 11.7634 5.33105 12.1596 5.33105 12.5723C5.33106 12.9177 5.3407 13.2515 5.35449 13.5742H11.9453V16.5742H5.72656C6.07773 18.152 6.63434 19.3199 7.28516 20.1543C8.36533 21.539 9.80365 22.1434 11.3906 22.1436C12.7321 22.1435 13.7088 21.7694 14.4492 21.1465C15.2108 20.5056 15.8437 19.4995 16.291 18.0459L17.7246 18.4863L19.1582 18.9277C18.5976 20.7497 17.7102 22.3227 16.3809 23.4414C15.0301 24.578 13.3422 25.1435 11.3906 25.1436C8.95545 25.1434 6.61384 24.1707 4.91992 21.999C3.84133 20.6162 3.07493 18.8089 2.66797 16.5742H0V13.5742H2.35156C2.33921 13.2471 2.33106 12.9131 2.33105 12.5723C2.33105 12.1659 2.34306 11.7695 2.36133 11.3828H0V8.38281H2.71582C3.14736 6.22537 3.92841 4.47849 4.99219 3.13574C6.69856 0.982055 9.03001 0.00012196 11.3906 0Z" fill="currentColor" />

</g>
</svg>
