<svg viewBox="0 0 32 32" fill="none" xmlns="http://www.w3.org/2000/svg">
<g transform="translate(4.0944, 4.5941)">
<path d="M2.85449 15.9025C4.26037 14.4479 6.53943 14.4479 7.94531 15.9025C9.3512 17.3572 9.3512 19.7155 7.94531 21.1701C6.11968 23.0588 1.40602 23.3433 0 21.8889C2.15995 20.7714 1.44872 17.3572 2.85449 15.9025ZM22.1924 0.128123C22.39 -0.0497647 22.6928 -0.0413381 22.8809 0.146678L23.6641 0.929881C23.8521 1.11792 23.8605 1.42068 23.6826 1.61836L11.2617 15.4191C11.0701 15.6321 10.7387 15.6412 10.5361 15.4387L8.37305 13.2746C8.17049 13.072 8.17868 12.7407 8.3916 12.549L22.1924 0.128123Z" fill="currentColor" />

</g>
</svg>
