<svg viewBox="0 0 32 32" fill="none" xmlns="http://www.w3.org/2000/svg">
<g transform="translate(2.5002, 2.5002)">
<path d="M11.5 5.00488C6.98337 5.00488 3.00018 9.41865 3 14.4893C3.00007 19.7417 7.25832 24 12.5107 24C17.5826 23.9999 21.9989 20.0155 21.9951 15.501L24.9951 15.499C25.0005 21.9842 18.9092 26.9999 12.5107 27C5.60148 27 6.59765e-05 21.3986 0 14.4893C0.000177419 8.08942 5.01685 2.00488 11.5 2.00488V5.00488ZM15.5 0C21.8513 0 27 5.14872 27 11.5C27 12.3284 26.3284 13 25.5 13H15.5C14.6716 13 14 12.3284 14 11.5V1.5C14 0.671573 14.6716 0 15.5 0ZM17 10H23.8652C23.2433 6.50824 20.4918 3.75564 17 3.13379V10Z" fill="currentColor" />

</g>
</svg>
