<svg viewBox="0 0 32 32" fill="none" xmlns="http://www.w3.org/2000/svg">
<g transform="translate(1.4994, 3.9995)">
<path d="M23.5 0C24.3284 0 25 0.671573 25 1.5V6.57227L28.1709 8.1582C28.6791 8.41229 29 8.93184 29 9.5V18.5C29 19.3284 28.3284 20 27.5 20H24.9717C24.7229 22.2499 22.8162 24 20.5 24C18.1838 24 16.2771 22.2499 16.0283 20H8.97168C8.72292 22.2499 6.81624 24 4.5 24C2.01472 24 8.0532e-09 21.9853 0 19.5V1.5C0 0.671573 0.671573 0 1.5 0H23.5ZM3 8H15.5V11H3V19.5C3 20.3284 3.67157 21 4.5 21C5.32843 21 6 20.3284 6 19.5V18.5C6 17.6716 6.67157 17 7.5 17H17.5C18.3284 17 19 17.6716 19 18.5V19.5C19 20.3284 19.6716 21 20.5 21C21.3284 21 22 20.3284 22 19.5V18.5C22 17.6716 22.6716 17 23.5 17H26V10.4268L22.8291 8.8418C22.3209 8.58771 22 8.06816 22 7.5V3H3V8Z" fill="currentColor" />

</g>
</svg>
