<svg viewBox="0 0 32 32" fill="none" xmlns="http://www.w3.org/2000/svg">
<g transform="translate(0.5000,3.0000)">
<path d="M22.5 0C27.1944 1.28855e-06 31 3.80558 31 8.5V20.5C31 23.5376 28.5376 26 25.5 26H5.5C2.46243 26 1.61064e-08 23.5376 0 20.5V9.5C0 6.46243 2.46243 4 5.5 4H10.5V7H5.5C4.11929 7 3 8.11929 3 9.5V20.5C3 21.8807 4.11929 23 5.5 23H25.5C26.8807 23 28 21.8807 28 20.5V8.5C28 5.46244 25.5376 3 22.5 3C19.4624 3 17 5.46243 17 8.5V14.8789L20.4395 11.4395L22.5605 13.5605L16.5605 19.5605C16.2792 19.8419 15.8978 20 15.5 20C15.1022 20 14.7208 19.8418 14.4395 19.5605L8.43945 13.5605L10.5605 11.4395L14 14.8789V8.5C14 3.80558 17.8056 0 22.5 0Z" fill="currentColor" />

</g>
</svg>
