<svg viewBox="0 0 32 32" fill="none" xmlns="http://www.w3.org/2000/svg">
<g transform="translate(1.0005, 3.5004)">
<path d="M3 22H8.5V25H1.5C0.671573 25 2.57702e-07 24.3284 0 23.5V16.5H3V22ZM30 23.5C30 24.3284 29.3284 25 28.5 25H21.5V22H27V16.5H30V23.5ZM14.6133 7.05078C17.0953 6.3889 20.0769 5.55992 23.6094 7.12988C24.1508 7.37068 24.4999 7.90745 24.5 8.5V16.5C24.4999 17.0076 24.243 17.4812 23.8174 17.7578C23.3917 18.0344 22.8546 18.0773 22.3906 17.8711C19.9232 16.7745 17.9045 17.2778 15.3867 17.9492C12.9047 18.6111 9.92303 19.441 6.39062 17.8711C5.84906 17.6304 5.50009 17.0927 5.5 16.5V8.5C5.50009 7.99238 5.757 7.51884 6.18262 7.24219C6.60835 6.96558 7.14543 6.92368 7.60938 7.12988C10.0767 8.22633 12.0956 7.72217 14.6133 7.05078ZM21.5 9.53711C19.4198 8.90108 17.5953 9.36028 15.3867 9.94922C13.4149 10.475 11.128 11.1054 8.5 10.5557V15.4629C10.5803 16.099 12.4047 15.6397 14.6133 15.0508C16.5851 14.525 18.872 13.8946 21.5 14.4443V9.53711ZM8.5 3H3V8.5H0V1.5C2.56927e-07 0.671573 0.671573 9.31153e-08 1.5 0H8.5V3ZM28.5 0C29.3284 0 30 0.671573 30 1.5V8.5H27V3H21.5V0H28.5Z" fill="currentColor" />

</g>
</svg>
