<svg viewBox="0 0 32 32" fill="none" xmlns="http://www.w3.org/2000/svg">
<g transform="translate(1.4994, 5.0009)">
<path d="M14.1963 1.30521C18.4298 0.251224 23.2955 -1.03872 28.1641 1.36576C28.6757 1.61846 28.9998 2.13987 29 2.71049V19.2203C28.9999 19.7385 28.732 20.22 28.292 20.4937C27.8516 20.7674 27.3008 20.7945 26.8359 20.565C23.1073 18.7235 19.3492 19.6226 14.9209 20.7251C10.6676 21.7841 5.77238 23.0341 0.829102 20.5611C0.321298 20.3069 0.000116224 19.7881 0 19.2203V2.71049C0.000165897 2.19074 0.269742 1.70733 0.711914 1.43412C1.15398 1.16125 1.70621 1.13641 2.1709 1.36869C5.98213 3.2754 9.78786 2.40276 14.1963 1.30521ZM26 3.689C22.5423 2.35033 19.0188 3.19611 14.9209 4.21635C11.2916 5.11993 7.19525 6.15985 3 4.90971V18.2476C6.53752 19.6553 10.107 18.8321 14.1963 17.814C17.8019 16.9163 21.866 15.8494 26 17.0376V3.689ZM14.5 6.99857C16.3749 6.99857 16.9999 8.78964 17 10.9986C17 13.2077 16.375 14.9986 14.5 14.9986C12.625 14.9986 12 13.2077 12 10.9986C12.0001 8.78964 12.6251 6.99857 14.5 6.99857Z" fill="currentColor" />

</g>
</svg>
