<svg viewBox="0 0 32 32" fill="none" xmlns="http://www.w3.org/2000/svg">
<g transform="translate(1.0005, 3.5004)">
<path d="M3 22H8.5V25H1.5C0.671573 25 2.57702e-07 24.3284 0 23.5V16.5H3V22ZM30 23.5C30 24.3284 29.3284 25 28.5 25H21.5V22H27V16.5H30V23.5ZM9.5 17.5H6.5V7.5H9.5V17.5ZM13.5 17.5H12.5V7.5H13.5V17.5ZM19 17.5H17V7.5H19V17.5ZM23.5 17.5H22.5V7.5H23.5V17.5ZM8.5 3H3V8.5H0V1.5C2.56927e-07 0.671573 0.671573 3.62117e-08 1.5 0H8.5V3ZM28.5 0C29.3284 0 30 0.671573 30 1.5V8.5H27V3H21.5V0H28.5Z" fill="currentColor" />

</g>
</svg>
