<svg viewBox="0 0 32 32" fill="none" xmlns="http://www.w3.org/2000/svg">
<g transform="translate(4.0004, 1.0005)">
<path d="M9.5 6H3.5C3.22395 6.00001 3.00013 6.22398 3 6.5V26.5C3.00001 26.7761 3.22386 27 3.5 27H17.5C17.7761 27 17.9999 26.7761 18 26.5V14.5H21V26.5C20.9999 28.4329 19.4329 30 17.5 30H3.5C1.56701 30 1.02758e-05 28.433 0 26.5V6.5C0.000131943 4.56716 1.56713 3.00006 3.5 3H9.5V6ZM13.5 5C16.5375 5.00008 19 7.46248 19 10.5V11.5H16V10.5C16 9.11934 14.8806 8.00008 13.5 8H12.5V5H13.5ZM14.5 0C19.7466 8.24637e-05 24 4.25335 24 9.5V11.5H21V9.5C21 5.9102 18.0898 3.00008 14.5 3H12.5V0H14.5Z" fill="currentColor" />

</g>
</svg>
