<svg viewBox="0 0 32 32" fill="none" xmlns="http://www.w3.org/2000/svg">
<g transform="translate(0.5000,1.7637)">
<path d="M19.5 28.4727H11.5V25.4727H19.5V28.4727ZM23.6426 1.94531L17.7461 8.87305H18.1201L27.7871 3.65234L29.2129 6.29297L24.4346 8.87305H29.5C30.3284 8.87305 31 9.54462 31 10.373C30.9996 17.6818 23.7305 23.0723 15.5 23.0723C7.26947 23.0723 0.000421116 17.6818 0 10.373C0 9.54462 0.671573 8.87305 1.5 8.87305H13.8066L21.3574 0L23.6426 1.94531ZM3.15625 11.873C4.07419 16.315 8.98977 20.0723 15.5 20.0723C22.0102 20.0723 26.9258 16.315 27.8438 11.873H3.15625Z" fill="currentColor" />

</g>
</svg>
