<svg viewBox="0 0 32 32" fill="none" xmlns="http://www.w3.org/2000/svg">
<g transform="translate(3.9391, 3.9391)">
<path d="M24.1211 2.12109L2.12109 24.1211L0 22L22 0L24.1211 2.12109ZM20.2666 16.0654C22.3117 16.1692 23.9518 17.8094 24.0557 19.8545L24.0605 20.0605C24.0605 22.2697 22.2697 24.0605 20.0605 24.0605C17.8515 24.0605 16.0605 22.2696 16.0605 20.0605L16.0654 19.8545C16.1727 17.7412 17.9206 16.0606 20.0605 16.0605L20.2666 16.0654ZM20.0605 19.0605C19.5083 19.0606 19.0606 19.5084 19.0605 20.0605C19.0605 20.6128 19.5083 21.0605 20.0605 21.0605C20.6128 21.0605 21.0605 20.6128 21.0605 20.0605C21.0605 19.5083 20.6128 19.0605 20.0605 19.0605ZM4.2666 0.0654297C6.31171 0.169197 7.95184 1.8094 8.05566 3.85449L8.06055 4.06055C8.06055 6.26969 6.26969 8.06055 4.06055 8.06055C1.85146 8.06049 0.0605467 6.26965 0.0605469 4.06055L0.0654297 3.85449C0.172714 1.74119 1.9206 0.060606 4.06055 0.0605469L4.2666 0.0654297ZM4.06055 3.06055C3.50835 3.06061 3.06061 3.50835 3.06055 4.06055C3.06055 4.61279 3.50831 5.06049 4.06055 5.06055C4.61283 5.06055 5.06055 4.61283 5.06055 4.06055C5.06049 3.50832 4.6128 3.06055 4.06055 3.06055Z" fill="currentColor" />

</g>
</svg>
