<svg viewBox="0 0 32 32" fill="none" xmlns="http://www.w3.org/2000/svg">
<g transform="translate(2.2967, 2.2969)">
<path d="M14.1479 0.00438907L25.6011 0.885248C26.0928 0.92307 26.4841 1.31345 26.522 1.80517L27.4028 13.2583C27.4366 13.6974 27.2753 14.129 26.9624 14.439L14.1626 27.1177C13.7715 27.5045 13.1415 27.5028 12.7524 27.1138L0.292469 14.6548C-0.0964619 14.2656 -0.0975359 13.6347 0.28954 13.2436L12.9673 0.443842C13.277 0.131115 13.7091 -0.0291903 14.1479 0.00438907ZM21.7241 5.6831C20.7478 4.707 19.1642 4.70686 18.188 5.6831C17.2122 6.65931 17.2122 8.24205 18.188 9.21826C19.1642 10.1945 20.7478 10.1944 21.7241 9.21826C22.7 8.24202 22.7 6.65934 21.7241 5.6831Z" fill="currentColor" />

</g>
</svg>
