<svg viewBox="0 0 32 32" fill="none" xmlns="http://www.w3.org/2000/svg">
<g transform="translate(1.2494, 1.2495)">
<path d="M15.1943 0.0125926L26.6943 1.51259L26.8184 1.53408C27.4328 1.66723 27.9046 2.17329 27.9873 2.80556L29.4873 14.3056C29.5475 14.7673 29.3898 15.2311 29.0605 15.5604L15.5605 29.0604C14.9748 29.6461 14.0252 29.6461 13.4395 29.0604L0.439453 16.0604C0.158197 15.7792 5.4035e-05 15.3976 0 14.9999C4.49983e-06 14.6021 0.158236 14.2206 0.439453 13.9394L13.9395 0.43935L14.0693 0.324116C14.385 0.0742744 14.7904 -0.0401043 15.1943 0.0125926ZM3.62109 14.9999L14.5 25.8788L26.417 13.9608L25.1611 4.33779L15.5381 3.08193L3.62109 14.9999ZM18.2314 7.73232C19.2078 6.75601 20.7913 6.75601 21.7676 7.73232C22.7437 8.70859 22.7437 10.2912 21.7676 11.2675C20.7913 12.2438 19.2078 12.2438 18.2314 11.2675C17.2556 10.2912 17.2556 8.70854 18.2314 7.73232Z" fill="currentColor" />

</g>
</svg>
