<svg viewBox="0 0 32 32" fill="none" xmlns="http://www.w3.org/2000/svg">
<g transform="translate(5.0001, 3.5000)">
<path d="M19.3113 0C20.0456 1.28986e-09 20.4129 -6.58284e-05 20.6463 0.135742C20.8638 0.262484 21.0018 0.429637 21.0857 0.666992C21.1756 0.921636 21.101 1.31361 20.9519 2.09766C19.5153 9.65637 23 15.463 21.7059 23.7217C21.6384 24.1521 21.6043 24.3676 21.4861 24.5479C21.386 24.7006 21.2287 24.8358 21.0623 24.9111C20.8659 24.9999 20.6348 25 20.1736 25H2.84648C2.16868 25 1.82965 24.9998 1.60234 24.873C1.39306 24.7561 1.25132 24.5954 1.16191 24.373C1.06482 24.1314 1.11079 23.7711 1.20292 23.0518C2.25867 14.8075 -1.32947 8.96819 0.559367 1.14648C0.65242 0.761153 0.698629 0.56823 0.819133 0.405273C0.92085 0.267828 1.07669 0.145712 1.23417 0.0791016C1.42083 0.000267476 1.63306 1.02363e-09 2.05741 0H19.3113ZM5.9998 15.875H10.9998V13.125H5.9998V15.875ZM4.9998 8.875H15.4998V6.125H4.9998V8.875Z" fill="currentColor" />

</g>
</svg>
