<svg viewBox="0 0 32 32" fill="none" xmlns="http://www.w3.org/2000/svg">
<g transform="translate(2.0773, 2.5005)">
<path d="M22.3467 0C22.8086 3.33582e-05 23.2451 0.213103 23.5293 0.577148C23.8134 0.941176 23.9138 1.41628 23.8018 1.86426C23.3351 3.73094 22.9473 5.21429 22.9473 6.5H19.9473C19.9473 5.36971 20.1645 4.17043 20.4336 3H3.4893C2.6371 6.52547 3.04991 9.61738 3.57914 13.0195C4.08597 16.2777 4.70277 19.8261 4.13188 24H11.3467V27H2.34672C1.89397 27 1.46546 26.7953 1.1807 26.4434C0.895921 26.0911 0.785014 25.6285 0.879924 25.1855C1.81353 20.8284 1.20227 17.2602 0.614299 13.4805C0.029173 9.71897 -0.53012 5.74902 0.913127 1.05859L0.954142 0.943359C1.18 0.37762 1.72942 4.34147e-05 2.34672 0H22.3467ZM25.628 8.18359C26.1287 7.91025 26.741 7.94484 27.208 8.27246C27.675 8.60007 27.9157 9.16376 27.8291 9.72754C27.3847 12.6219 26.6424 16.143 25.0762 19.002C23.6481 21.6089 21.4507 23.7903 18.1338 24.3311C18.1176 24.4309 18.0986 24.5351 18.0821 24.6426C17.9569 25.4592 17.8467 26.3731 17.8467 27H14.8467C14.8467 26.1269 14.9889 25.0183 15.1163 24.1875C15.1819 23.7595 15.2478 23.3811 15.2969 23.1094C15.3215 22.9733 15.3419 22.8628 15.3565 22.7861C15.3638 22.748 15.37 22.7181 15.3741 22.6973C15.3761 22.6868 15.3778 22.6786 15.3789 22.6729C15.3795 22.67 15.3796 22.6677 15.3799 22.666V22.6641L15.3809 22.6631L15.3819 22.6553C16.5988 16.6789 20.3611 11.0588 25.628 8.18359ZM24.1582 12.8896C21.8005 15.01 19.9659 17.8754 18.9219 21.0127C20.4247 20.3998 21.5529 19.1878 22.4444 17.5605C23.2006 16.1801 23.7468 14.5601 24.1582 12.8896Z" fill="currentColor" />

</g>
</svg>
