<svg viewBox="0 0 32 32" fill="none" xmlns="http://www.w3.org/2000/svg">
<g transform="translate(2.5763, 2.3002)">
<path d="M21.3467 12C24.3843 12 26.8467 14.4624 26.8467 17.5C26.8467 18.9609 26.2759 20.2876 25.3467 21.2725V26.8984C25.3465 27.3278 24.8408 27.5571 24.5176 27.2744L21.5118 24.6436C21.4175 24.5611 21.2759 24.5611 21.1817 24.6436L18.1758 27.2744C17.8526 27.5571 17.347 27.3278 17.3467 26.8984V21.2725C16.4175 20.2876 15.8467 18.9609 15.8467 17.5C15.8467 14.4624 18.3092 12 21.3467 12ZM22.3467 0C22.8086 3.32483e-05 23.2451 0.213102 23.5293 0.577148C23.8134 0.941176 23.9138 1.41628 23.8018 1.86426C22.7524 6.06196 22.8467 7.57147 22.8467 9H19.8467C19.8467 7.66526 19.7872 6.18462 20.461 3H3.4893C2.6371 6.52547 3.04991 9.61738 3.57914 13.0195C4.08597 16.2777 4.70277 19.8261 4.13188 24H14.3467V27H2.34672C1.89397 27 1.46546 26.7953 1.1807 26.4434C0.895921 26.0911 0.785014 25.6285 0.879924 25.1855C1.81353 20.8284 1.20227 17.2602 0.614299 13.4805C0.029173 9.71897 -0.53012 5.74902 0.913127 1.05859L0.954142 0.943359C1.18 0.37762 1.72942 4.34147e-05 2.34672 0H22.3467ZM21.3467 15C19.966 15 18.8467 16.1193 18.8467 17.5C18.8467 18.8807 19.966 20 21.3467 20C22.7274 20 23.8467 18.8807 23.8467 17.5C23.8467 16.1193 22.7274 15 21.3467 15Z" fill="currentColor" />

</g>
</svg>
