<svg viewBox="0 0 32 32" fill="none" xmlns="http://www.w3.org/2000/svg">
<g transform="translate(0.5000,4.5010)">
<path d="M15.1973 1.40887C19.7176 0.263982 24.8377 -1.10883 30.1523 1.45867C30.6704 1.709 30.9999 2.23388 31 2.80926V20.1159C31 20.6321 30.7341 21.113 30.2969 21.3874C29.8598 21.6614 29.3123 21.6918 28.8477 21.4675C24.6601 19.4445 20.6184 20.4382 15.9336 21.6247C11.3933 22.7746 6.23833 24.1048 0.84082 21.4636C0.326404 21.2118 4.92646e-08 20.6886 0 20.1159V2.80926C9.92878e-05 2.29179 0.26702 1.80976 0.706055 1.53582C1.14505 1.2621 1.69445 1.23427 2.15918 1.4616C6.43795 3.55545 10.5323 2.59039 15.1973 1.40887ZM28 3.79071C24.1105 2.27257 20.3018 3.21072 15.9336 4.31707C12.0024 5.31274 7.61118 6.44125 3 5.01239V19.1413C6.97835 20.7341 10.8384 19.8205 15.1973 18.7165C19.1041 17.727 23.4587 16.5684 28 17.9294V3.79071ZM23 14.4987H20V6.49871H23V14.4987Z" fill="currentColor" />

</g>
</svg>
