<svg viewBox="0 0 32 32" fill="none" xmlns="http://www.w3.org/2000/svg">
<g transform="translate(3.8199, 2.5002)">
<path d="M22.3467 0C22.8226 3.42724e-05 23.271 0.225605 23.5538 0.608398C23.8365 0.99129 23.9203 1.48647 23.7803 1.94141C22.557 5.91747 22.9976 9.28116 23.5791 13.0195C24.1578 16.7397 24.8798 20.8384 23.8135 25.8145C23.6653 26.5059 23.0539 26.9999 22.3467 27H2.34672C1.89397 27 1.46546 26.7953 1.1807 26.4434C0.895921 26.0911 0.785014 25.6285 0.879924 25.1855C1.81353 20.8284 1.20227 17.2602 0.614299 13.4805C0.029173 9.71897 -0.53012 5.74902 0.913127 1.05859L0.954142 0.943359C1.18 0.37762 1.72942 4.34147e-05 2.34672 0H22.3467ZM3.4893 3C2.6371 6.52547 3.04991 9.61738 3.57914 13.0195C4.08597 16.2777 4.70277 19.8261 4.13188 24H21.0967C21.6979 20.1686 21.1481 16.912 20.6143 13.4805C20.1116 10.2489 19.6292 6.86388 20.418 3H3.4893ZM16.3467 11H6.84672V8H16.3467V11Z" fill="currentColor" />

</g>
</svg>
