<svg viewBox="0 0 32 32" fill="none" xmlns="http://www.w3.org/2000/svg">
<g transform="translate(1.3721, 6.1445)">
<path d="M29.2568 1.1543C27.9412 4.31168 26.3552 6.23128 24.4238 7.08008C22.472 7.9377 20.5504 7.53207 19.001 6.95898C18.2222 6.6709 17.4685 6.31406 16.8057 6C16.1161 5.67328 15.5366 5.39927 15.0039 5.20703C13.9053 4.81064 13.6018 4.96857 13.3896 5.18066C13.214 5.35636 13.1691 5.49672 13.1602 5.64844C13.1485 5.84772 13.1999 6.16296 13.4043 6.62988C13.8283 7.59816 14.6732 8.718 15.6885 10.0244C16.631 11.2372 17.7468 12.6423 18.3789 13.9639C18.7015 14.6383 18.9642 15.4196 18.9531 16.2422C18.9412 17.1237 18.6146 17.9557 17.9326 18.6377C17.2856 19.2847 16.5123 19.6348 15.6689 19.7002C14.876 19.7616 14.1195 19.564 13.4639 19.3096C12.2312 18.8311 10.7736 17.8876 9.56445 17.2109C8.2372 16.4682 6.96384 15.8826 5.68359 15.7178C4.47169 15.5619 3.17843 15.7734 1.74414 16.7979L0 14.3564C2.06545 12.8811 4.12221 12.4921 6.06641 12.7422C7.94203 12.9836 9.63181 13.8108 11.0293 14.5928C12.545 15.441 13.5765 16.1349 14.5498 16.5127C14.9969 16.6861 15.2736 16.7217 15.4375 16.709C15.5509 16.7001 15.6589 16.6692 15.8115 16.5166C15.9292 16.3989 15.9525 16.3181 15.9541 16.2021C15.9565 16.0271 15.8961 15.7246 15.6729 15.2578C15.213 14.2965 14.3445 13.1844 13.3193 11.8652C12.3671 10.6399 11.2599 9.21167 10.6562 7.83301C10.3471 7.12686 10.1152 6.31833 10.165 5.47168C10.2178 4.57734 10.58 3.74808 11.2686 3.05957C12.7846 1.54366 14.6633 1.89478 16.0215 2.38477C16.7172 2.6358 17.4359 2.97925 18.0898 3.28906C18.7703 3.61144 19.407 3.91061 20.042 4.14551C21.3211 4.61861 22.3258 4.72548 23.2168 4.33398C24.1282 3.93349 25.3031 2.84207 26.4873 0L29.2568 1.1543Z" fill="currentColor" />

</g>
</svg>
