<svg viewBox="0 0 32 32" fill="none" xmlns="http://www.w3.org/2000/svg">
<g transform="translate(3.5001, 3.5000)">
<path d="M17.9998 0C18.3976 8.90322e-07 18.779 0.158152 19.0603 0.439453L24.5603 5.93945C25.1461 6.52524 25.1461 7.47478 24.5603 8.06055L10.8103 21.8105C10.6458 21.975 10.4451 22.0992 10.2244 22.1729L1.9744 24.9229C1.43549 25.1024 0.84092 24.9622 0.439241 24.5605C0.0375782 24.1589 -0.102557 23.5643 0.0769368 23.0254L2.82694 14.7754L2.89139 14.6143C2.96502 14.4569 3.06583 14.3129 3.18924 14.1895L16.9392 0.439453L17.0496 0.339844C17.3164 0.121285 17.6519 4.99962e-05 17.9998 0ZM5.56034 16.0596L3.87088 21.1279L8.93924 19.4385L21.3787 7L17.9998 3.62109L5.56034 16.0596Z" fill="currentColor" />

</g>
</svg>
