<svg viewBox="0 0 32 32" fill="none" xmlns="http://www.w3.org/2000/svg">
<g transform="translate(1.5007, 1.5007)">
<path d="M4.24695 4.24695C9.90955 -1.41565 19.0902 -1.41565 24.7528 4.24695C30.4154 9.90955 30.4154 19.0902 24.7528 24.7528C19.0902 30.4154 9.90955 30.4154 4.24695 24.7528C-1.41565 19.0902 -1.41565 9.90955 4.24695 4.24695ZM22.6317 6.36805C18.1407 1.87702 10.8591 1.87702 6.36805 6.36805C1.87702 10.8591 1.87702 18.1407 6.36805 22.6317C10.8591 27.1227 18.1407 27.1227 22.6317 22.6317C27.1227 18.1407 27.1227 10.8591 22.6317 6.36805ZM14.5009 12.3788L18.7733 8.10633L20.8944 10.2274L16.622 14.4999L20.8944 18.7723L18.7733 20.8934L14.5009 16.621L10.2274 20.8944L8.10633 18.7733L12.3798 14.4999L8.10633 10.2264L10.2274 8.10535L14.5009 12.3788Z" fill="currentColor" />

</g>
</svg>
