<svg viewBox="0 0 32 32" fill="none" xmlns="http://www.w3.org/2000/svg">
<g transform="translate(0.5000,3.2500)">
<path d="M15.5 15.5C13.006 15.5 9.77151 16.2133 7.20801 17.6992C5.14707 18.8938 3.6673 20.4855 3.17676 22.5H12.2295C12.6447 21.1211 13.5919 19.8341 14.7969 18.8418C16.4721 17.4624 18.8063 16.5 21.5 16.5C24.1937 16.5 26.5279 17.4624 28.2031 18.8418C29.8375 20.1878 31 22.0752 31 24C31 24.8284 30.3284 25.5 29.5 25.5H1.5C0.671573 25.5 0 24.8284 0 24C0 19.8097 2.61433 16.894 5.70312 15.1035C8.77676 13.3219 12.5425 12.5 15.5 12.5V15.5ZM21.5 19.5C19.5273 19.5 17.8612 20.2045 16.7031 21.1582C16.1727 21.5951 15.7789 22.057 15.5039 22.5H27.4961C27.2211 22.057 26.8273 21.5951 26.2969 21.1582C25.1388 20.2045 23.4727 19.5 21.5 19.5ZM21.5 6C23.9853 6 26 8.01472 26 10.5C26 12.9853 23.9853 15 21.5 15C19.0147 15 17 12.9853 17 10.5C17 8.01472 19.0147 6 21.5 6ZM21.5 9C20.6716 9 20 9.67157 20 10.5C20 11.3284 20.6716 12 21.5 12C22.3284 12 23 11.3284 23 10.5C23 9.67157 22.3284 9 21.5 9ZM11.5 0C14.5376 0 17 2.46243 17 5.5C17 8.53757 14.5376 11 11.5 11C8.46243 11 6 8.53757 6 5.5C6 2.46243 8.46243 0 11.5 0ZM11.5 3C10.1193 3 9 4.11929 9 5.5C9 6.88071 10.1193 8 11.5 8C12.8807 8 14 6.88071 14 5.5C14 4.11929 12.8807 3 11.5 3Z" fill="currentColor" />

</g>
</svg>
