<svg viewBox="0 0 32 32" fill="none" xmlns="http://www.w3.org/2000/svg">
<g transform="translate(0.2500,3.0835)">
<path d="M8.66699 21.833C9.77131 21.8332 10.6668 22.7287 10.667 23.833C10.667 24.9375 9.77142 25.8328 8.66699 25.833C7.56242 25.833 6.66699 24.9376 6.66699 23.833C6.66717 22.7286 7.56253 21.833 8.66699 21.833ZM26 21.833C27.1045 21.833 27.9998 22.7286 28 23.833C28 24.9376 27.1046 25.833 26 25.833C24.8954 25.833 24 24.9376 24 23.833C24.0002 22.7286 24.8955 21.833 26 21.833ZM19 0C22.2097 1.51941e-05 25.2975 0.902462 27.6201 2.67871C29.9757 4.48019 31.5 7.15711 31.5 10.5L31.4951 10.7861C31.3914 13.7395 29.6911 16.5188 27.1904 18.5322C24.589 20.6267 21.0068 22 17 22C12.9932 22 9.41102 20.6267 6.80957 18.5322C4.22825 16.4539 2.5 13.5595 2.5 10.5V7H0V4H3C4.38067 4.00004 5.5 5.11932 5.5 6.5V9H17.5V1.5C17.5 0.671573 18.1716 0 19 0ZM5.71777 12C6.13355 13.4639 7.14082 14.9476 8.69043 16.1953C10.7556 17.8581 13.6736 19 17 19C20.3264 19 23.2444 17.8581 25.3096 16.1953C26.8592 14.9476 27.8665 13.4639 28.2822 12H5.71777ZM20.5 9H28.3447C28.0004 7.36966 27.0929 6.05199 25.7979 5.06152C24.418 4.00629 22.5746 3.30853 20.5 3.08105V9Z" fill="currentColor" />

</g>
</svg>
