<svg viewBox="0 0 32 32" fill="none" xmlns="http://www.w3.org/2000/svg">
<g transform="translate(1.2504, 1.2494)">
<path d="M13.8905 0.525174C14.2403 -0.175095 15.2575 -0.175021 15.6073 0.525174L15.6718 0.68533L18.7128 10.5203H28.5312C29.0214 10.5203 29.3476 10.8625 29.454 11.2058C29.5596 11.5473 29.4854 11.9957 29.1142 12.2791L21.1395 18.365L24.1903 28.2283C24.3226 28.6561 24.1508 29.0716 23.8495 29.3015C23.5427 29.5355 23.069 29.5949 22.6845 29.3015L14.7489 23.2429L6.81338 29.3015C6.42881 29.5948 5.95509 29.5356 5.64834 29.3015C5.34718 29.0716 5.17529 28.656 5.30752 28.2283L8.35732 18.365L0.38369 12.2791C0.0126677 11.9958 -0.0616971 11.5472 0.0438463 11.2058C0.150217 10.8625 0.476561 10.5204 0.966698 10.5203H10.7851L13.8261 0.68533L13.8905 0.525174Z" fill="currentColor" />

</g>
</svg>
