<svg viewBox="0 0 32 32" fill="none" xmlns="http://www.w3.org/2000/svg">
<g transform="translate(1.3988, 2.4701)">
<path d="M13.0838 1.08903C13.5579 -0.317158 15.5001 -0.361704 16.0663 0.956217L16.117 1.08903L18.8211 9.11442H27.5985C29.1622 9.11465 29.7968 11.1271 28.5165 12.0246L21.4657 16.964L24.1541 24.9406C24.6472 26.4044 22.9847 27.648 21.7196 26.7619L14.6004 21.7736L7.4813 26.7619C6.21618 27.648 4.55371 26.4043 5.04673 24.9406L7.73423 16.964L0.684423 12.0246C-0.595573 11.127 0.0389681 9.11482 1.60239 9.11442H10.3797L13.0838 1.08903ZM12.9012 11.0256C12.6819 11.6762 12.0722 12.1143 11.3856 12.1144H6.04087L10.3143 15.1086C10.8953 15.5158 11.1384 16.2575 10.912 16.9299L9.25083 21.8586L13.6825 18.7541L13.7879 18.6867C14.3245 18.3701 15.0018 18.3925 15.5184 18.7541L19.9491 21.8586L18.2889 16.9299C18.0626 16.2575 18.3056 15.5158 18.8866 15.1086L23.16 12.1144H17.8153C17.1287 12.1143 16.519 11.6761 16.2997 11.0256L14.6004 5.98356L12.9012 11.0256Z" fill="currentColor" />

</g>
</svg>
