<svg viewBox="0 0 32 32" fill="none" xmlns="http://www.w3.org/2000/svg">
<g transform="translate(1.5001,0.5003)">
<path d="M14.0506 0.0688591C14.3919 -0.0383115 14.762 -0.0203659 15.0936 0.12257L28.0819 5.72218L28.1786 5.76808C28.6539 6.01452 28.9652 6.49816 28.9872 7.03859L27.4881 7.09913C28.9188 7.04095 28.9842 7.03929 28.9872 7.03956V7.04933C28.9874 7.05516 28.9878 7.0637 28.9881 7.07374C28.9888 7.09385 28.9901 7.12242 28.9911 7.1587C28.9931 7.23161 28.9951 7.33666 28.9969 7.47023C29.0007 7.73746 29.0018 8.12046 28.993 8.59425C28.9755 9.54074 28.9177 10.8579 28.7538 12.3433C28.4316 15.2615 27.6813 19.0436 25.869 21.9028C24.1886 24.554 21.4669 26.7902 19.2733 28.3247C17.0507 29.8795 15.218 30.8168 15.1815 30.8355C14.7533 31.0539 14.2464 31.0539 13.8182 30.8355L14.4999 29.4995L13.8172 30.8355L13.8163 30.8345L13.8085 30.8306C13.8038 30.8282 13.7976 30.8248 13.7899 30.8208C13.7738 30.8125 13.7505 30.8009 13.7215 30.7857C13.6636 30.7552 13.5807 30.7109 13.4755 30.6538C13.2645 30.5394 12.9636 30.3724 12.5946 30.1577C11.8576 29.7289 10.8434 29.1059 9.72936 28.3267C7.53526 26.7921 4.81181 24.555 3.13072 21.9028C1.31844 19.0436 0.568111 15.2615 0.245958 12.3433C0.0819922 10.8579 0.0242349 9.54074 0.00670012 8.59425C-0.00207527 8.12046 -0.000933146 7.73746 0.00279387 7.47023C0.00465799 7.33666 0.00661818 7.23161 0.00865325 7.1587C0.0096667 7.12242 0.0108904 7.09385 0.0115829 7.07374C0.0119284 7.06371 0.0123396 7.05516 0.0125595 7.04933V7.03956C0.0125737 7.03921 0.0132074 7.03821 1.51158 7.09913L0.0125595 7.03859C0.0359883 6.46237 0.388324 5.95059 0.917833 5.72218L13.9061 0.12257L14.0506 0.0688591ZM3.00084 8.09034C3.00162 8.22695 3.00273 8.37681 3.00572 8.53859C3.02199 9.41662 3.07668 10.64 3.22838 12.0142C3.53759 14.815 4.23019 18.0328 5.6649 20.2964C7.02304 22.4391 9.35119 24.402 11.4481 25.8687C12.4794 26.59 13.4212 27.168 14.1034 27.565C14.2469 27.6484 14.3804 27.7208 14.4989 27.7876C15.178 27.4046 16.2992 26.7442 17.5536 25.8667C19.65 24.4002 21.9772 22.4382 23.3348 20.2964C24.7696 18.0328 25.4621 14.815 25.7713 12.0142C25.923 10.64 25.9777 9.41662 25.994 8.53859C25.997 8.37681 25.9971 8.22695 25.9979 8.09034L14.4999 3.13234L3.00084 8.09034ZM14.4999 7.98683C14.4999 7.63626 14.8705 7.40082 15.202 7.54054L22.204 10.4927C22.4005 10.5756 22.5207 10.7685 22.4969 10.9751C22.3702 12.0784 21.8624 16.0965 20.3417 18.5767C19.0846 20.6267 16.5116 22.2289 15.2421 22.9312C14.9112 23.1142 14.4999 22.8689 14.4999 22.4995V7.98683Z" fill="currentColor" />

</g>
</svg>
