<svg viewBox="0 0 32 32" fill="none" xmlns="http://www.w3.org/2000/svg">
<g transform="translate(4.9399, 3.2895)">
<path d="M12.3809 1.42188L8.70996 8.23926L11.5898 11.1191L17.8486 10.2256C18.4089 10.1456 18.9671 10.3884 19.291 10.8525C19.6148 11.3167 19.6492 11.9236 19.3809 12.4219L17.1094 16.6387L22.1211 21.6504L20 23.7715L15.625 19.3965L12.3809 25.4219L9.74023 24L13.4111 17.1826L10.5303 14.3018L4.27246 15.1963C3.71215 15.2762 3.15403 15.0335 2.83008 14.5693C2.50627 14.1052 2.47191 13.4983 2.74023 13L5.01074 8.78223L0 3.77148L2.12109 1.65039L6.49512 6.02441L9.74023 0L12.3809 1.42188ZM14.2432 13.7725L14.8965 14.4258L15.332 13.6172L14.2432 13.7725ZM6.79004 11.8057L7.87793 11.6494L7.22461 10.9961L6.79004 11.8057Z" fill="currentColor" />

</g>
</svg>
