<svg viewBox="0 0 32 32" fill="none" xmlns="http://www.w3.org/2000/svg">
<g transform="translate(2.5002, 3.5002)">
<path d="M20.5 0C20.9844 0 21.4391 0.233791 21.7207 0.62793L26.7207 7.62793C27.0932 8.14948 27.0932 8.85052 26.7207 9.37207L24.8018 12.0576C25.6799 12.2687 26.333 13.057 26.333 14V23C26.333 24.1046 25.4376 25 24.333 25H13.333C12.2284 25 11.333 24.1046 11.333 23V14C11.333 12.8954 12.2284 12 13.333 12H14.667V11.5C14.667 8.46243 17.1294 6 20.167 6V9C18.7863 9 17.667 10.1193 17.667 11.5V12H21.1562L23.6562 8.5L19.7275 3H3V14H7.5V17H1.5C0.671573 17 0 16.3284 0 15.5V1.5C0 0.671573 0.671573 0 1.5 0H20.5ZM14.333 22H23.333V15H14.333V22Z" fill="currentColor" />

</g>
</svg>
