<svg viewBox="0 0 32 32" fill="none" xmlns="http://www.w3.org/2000/svg">
<g transform="translate(2.0005, 2.0005)">
<path d="M15.5 28H12.5V19.5996H15.5V28ZM11.1006 19.0205L5.16113 24.96L3.04004 22.8389L8.97949 16.8994L11.1006 19.0205ZM24.96 22.8389L22.8389 24.96L16.8994 19.0205L19.0205 16.8994L24.96 22.8389ZM8.40039 15.5H0V12.5H8.40039V15.5ZM28 15.5H19.5996V12.5H28V15.5ZM11.1006 8.97949L8.97949 11.1006L3.04004 5.16113L5.16113 3.04004L11.1006 8.97949ZM24.96 5.16113L19.0205 11.1006L16.8994 8.97949L22.8389 3.04004L24.96 5.16113ZM15.5 8.40039H12.5V0H15.5V8.40039Z" fill="currentColor" />

</g>
</svg>
