<svg viewBox="0 0 32 32" fill="none" xmlns="http://www.w3.org/2000/svg">
<g transform="translate(0.5000,3.5000)">
<path d="M23.4307 0.0136719C26.3556 0.152313 28.382 1.32509 29.584 3.36328C30.7634 5.36347 31 7.97401 31 10.5H28C28 8.02612 27.737 6.13649 27 4.88672C26.5147 4.06379 25.7484 3.39752 24.333 3.12891V6.12402C24.333 9.95197 21.6413 13.7543 17.5049 13.9883L17.0996 14C15.1325 14.0001 14.2378 14.5872 13.8281 15.126C13.3919 15.6999 13.2243 16.586 13.4502 17.7021C13.6741 18.8079 14.2534 19.9427 15.0039 20.7812C15.7769 21.6449 16.5437 21.9998 17.0996 22C17.4839 22 17.916 21.8346 18.4102 21.417C18.9091 20.9954 19.3803 20.39 19.7979 19.7129C20.2096 19.0451 20.5331 18.366 20.7549 17.8477C20.8649 17.5906 20.9476 17.3778 21.002 17.2324C21.029 17.1601 21.049 17.1049 21.0615 17.0693C21.0678 17.0516 21.0727 17.0386 21.0752 17.0312L21.0771 17.0244L23.9229 17.9756L23.9199 17.9844C23.9183 17.9892 23.9157 17.9953 23.9131 18.0029C23.9078 18.0182 23.9008 18.0394 23.8916 18.0654C23.8732 18.1178 23.8467 18.1917 23.8125 18.2832C23.7442 18.466 23.6443 18.7221 23.5137 19.0273C23.2542 19.634 22.8647 20.455 22.3516 21.2871C22.2073 21.521 22.0499 21.7605 21.8799 22H25.5V25H12.5C5.59644 25 0 19.4036 0 12.5C0 5.59644 5.59644 0 12.5 0H22.833L23.4307 0.0136719ZM3.17969 10.6572C3.06248 11.2534 3 11.8694 3 12.5C3 17.6247 7.05789 21.7987 12.1357 21.9902C11.3563 20.9001 10.7751 19.6081 10.5098 18.2979C10.3015 17.2691 10.2755 16.149 10.5674 15.0889L3.17969 10.6572ZM12.5 3C8.96424 3 5.8809 4.93233 4.24512 7.79785L12.1572 12.5449C13.3332 11.5242 15.0117 11.0001 17.0996 11C19.4093 11 21.333 8.84708 21.333 6.12402V3H12.5ZM16 5C17.1045 5 17.9999 5.89554 18 7C18 8.10457 17.1046 9 16 9C14.8954 9 14 8.10457 14 7C14.0001 5.89554 14.8955 5 16 5Z" fill="currentColor" />

</g>
</svg>
