<svg viewBox="0 0 32 32" fill="none" xmlns="http://www.w3.org/2000/svg">
<g transform="translate(1.4995, 1.4994)">
<path d="M7.66699 1.16713C9.22331 -0.389042 11.7474 -0.389042 13.3037 1.16713C13.8412 1.70463 14.2074 2.41496 14.4629 3.04213C14.5478 3.25065 14.6234 3.465 14.6953 3.67885C14.9382 3.15244 15.2606 2.60282 15.6963 2.16713C17.2526 0.610941 19.7767 0.610941 21.333 2.16713C22.6432 3.47728 22.8498 5.47303 21.9541 7.00013H27.5C28.3284 7.00013 28.9999 7.67181 29 8.50013V14.5001C29 15.3286 28.3284 16.0001 27.5 16.0001V26.5001C27.5 27.8808 26.3807 29.0001 25 29.0001H4C2.61929 29.0001 1.5 27.8808 1.5 26.5001V16.0001C0.671573 16.0001 0 15.3286 0 14.5001V8.50013C0.000115439 7.67181 0.671644 7.00013 1.5 7.00013H7.87891C7.80585 6.93746 7.73504 6.87189 7.66699 6.80385C6.11078 5.24749 6.11069 2.72343 7.66699 1.16713ZM4.5 26.0001H13.0166V16.0001H4.5V26.0001ZM16.0166 26.0001H24.5V16.0001H16.0166V26.0001ZM3 13.0001H13.0166V10.0001H3V13.0001ZM16.0166 13.0001H26V10.0001H16.0166V13.0001ZM19.2109 4.2892C18.8262 3.90458 18.2031 3.90458 17.8184 4.2892C17.6969 4.41065 17.5129 4.68936 17.3154 5.17396C17.1359 5.61464 16.9855 6.12732 16.8613 6.63881C17.3729 6.5146 17.8854 6.36424 18.3262 6.18471C18.8109 5.98723 19.0895 5.8032 19.2109 5.68178C19.5956 5.29699 19.5957 4.67393 19.2109 4.2892ZM11.1816 3.2892C10.7969 2.9046 10.1738 2.9046 9.78906 3.2892C9.40433 3.67393 9.40442 4.29699 9.78906 4.68178C9.91052 4.8032 10.1891 4.98723 10.6738 5.18471C11.1146 5.36424 11.6271 5.5146 12.1387 5.63881C12.0145 5.12733 11.8641 4.61464 11.6846 4.17396C11.4871 3.68937 11.3031 3.41064 11.1816 3.2892Z" fill="currentColor" />

</g>
</svg>
