<svg viewBox="0 0 32 32" fill="none" xmlns="http://www.w3.org/2000/svg">
<g transform="translate(1.4994, 2.6576)">
<path d="M20.4209 2.36719L18.7285 3.68359H24.5C26.9852 3.68359 28.9998 5.69848 29 8.18359V22.1836C29 24.6689 26.9853 26.6836 24.5 26.6836H4.5C2.01472 26.6836 6.44256e-08 24.6689 0 22.1836V8.18359C0.000195069 5.69848 2.01484 3.68359 4.5 3.68359H10.2715L8.5791 2.36719L10.4209 0L14.5 3.17188L18.5791 0L20.4209 2.36719ZM3 15.916V22.1836C3 23.012 3.67157 23.6836 4.5 23.6836H24.5C25.3284 23.6836 26 23.012 26 22.1836V15.916L14.5 6.97168L3 15.916ZM26 12.1162V8.18359C25.9998 7.35533 25.3283 6.68359 24.5 6.68359H19.0146L26 12.1162ZM4.5 6.68359C3.67169 6.68359 3.0002 7.35533 3 8.18359V12.1152L9.98535 6.68359H4.5Z" fill="currentColor" />

</g>
</svg>
