<svg viewBox="0 0 32 32" fill="none" xmlns="http://www.w3.org/2000/svg">
<g transform="translate(1.5020, 3.4974)">
<path d="M7.15129 3.40023L8.47942 4.0975L3.57707 13.4266C2.36597 15.7319 3.13277 18.6216 5.10344 19.8719L7.52922 21.41C9.40576 22.6004 11.8769 21.9616 13.0517 19.7264L17.9531 10.3973L19.2812 11.0946L20.6093 11.7928L15.707 21.1219C13.7874 24.7743 9.40512 26.1523 5.92278 23.9432L3.497 22.4051C0.10907 20.2558 -0.960342 15.6148 0.9218 12.0321L5.82414 2.70199L7.15129 3.40023ZM13.289 3.88363C15.2084 0.230999 19.5907 -1.14665 23.0732 1.06234L25.4989 2.60043C28.8871 4.74977 29.9566 9.39059 28.0741 12.9735L23.1718 22.3036L21.8447 21.6053L20.5165 20.908L25.4189 11.5789C26.6303 9.27345 25.8634 6.3839 23.8925 5.13363L21.4667 3.59554C19.5901 2.40521 17.1189 3.04365 15.9443 5.27914L11.0429 14.6082L9.71477 13.911L8.38664 13.2127L13.289 3.88363Z" fill="currentColor" />

</g>
</svg>
