<svg viewBox="0 0 32 32" fill="none" xmlns="http://www.w3.org/2000/svg">
<g transform="translate(4.4997, 3.9997)">
<path d="M3 0.999023L3.86133 0.816406C6.58949 0.236591 9.438 0.457251 12.0361 1.45117C14.0914 2.23735 16.3503 2.4131 18.5146 1.95312L21.1885 1.38477C21.6311 1.29079 22.0927 1.40178 22.4443 1.68652C22.7957 1.97127 22.9999 2.39929 23 2.85156V15.1484C22.9999 15.8566 22.5042 16.468 21.8115 16.6152L19.1387 17.1836C16.4105 17.7634 13.562 17.5427 10.9639 16.5488C8.90863 15.7627 6.64965 15.5869 4.48535 16.0469L3 16.3623V24H0V0H3V0.999023ZM19.1387 4.8877C17.108 5.31927 15.0111 5.3055 13 4.86133V8C13 8.48217 12.7681 8.93487 12.377 9.2168C11.9858 9.4987 11.4828 9.57532 11.0254 9.42285C8.66186 8.63509 5.54691 8.53923 3 9.13477V13.2949L3.86133 13.1123C6.58949 12.5325 9.438 12.7531 12.0361 13.7471C14.0914 14.5333 16.3503 14.709 18.5146 14.249L20 13.9326V4.7041L19.1387 4.8877ZM10 3.93359C8.21439 3.42823 6.31613 3.36188 4.48535 3.75098L3 4.06641V6.06934C5.25131 5.64345 7.74869 5.64345 10 6.06934V3.93359Z" fill="currentColor" />

</g>
</svg>
