<svg viewBox="0 0 32 32" fill="none" xmlns="http://www.w3.org/2000/svg">
<g transform="translate(3.5000, 3.5000)">
<path d="M9.5 14C10.3282 14.0002 11 14.6717 11 15.5V23.5C11 24.3283 10.3282 24.9998 9.5 25H1.5C0.671573 25 0 24.3284 0 23.5V15.5C0 14.6716 0.671573 14 1.5 14H9.5ZM23.5 14C24.3282 14.0002 25 14.6717 25 15.5V23.5C25 24.3283 24.3282 24.9998 23.5 25H15.5C14.6716 25 14 24.3284 14 23.5V15.5C14 14.6716 14.6716 14 15.5 14H23.5ZM3 22H8V17H3V22ZM17 22H22V17H17V22ZM9.5 0C10.3282 0.000239354 11 0.671721 11 1.5V9.5C11 10.3283 10.3282 10.9998 9.5 11H1.5C0.671573 11 0 10.3284 0 9.5V1.5C0 0.671573 0.671573 0 1.5 0H9.5ZM23.5 0C24.3282 0.000239354 25 0.671721 25 1.5V9.5C25 10.3283 24.3282 10.9998 23.5 11H15.5C14.6716 11 14 10.3284 14 9.5V1.5C14 0.671573 14.6716 0 15.5 0H23.5ZM3 8H8V3H3V8ZM17 8H22V3H17V8Z" fill="currentColor" />

</g>
</svg>
