<svg viewBox="0 0 32 32" fill="none" xmlns="http://www.w3.org/2000/svg">
<g transform="translate(1.1632, 5.1674)">
<path d="M16.6581 6.68359L16.6591 6.68164L23.5019 7.16016C24.6286 7.23916 25.6759 7.77271 26.4023 8.6377L29.6747 12.5352L28.5263 13.499L27.3769 14.4639L24.1044 10.5664C23.9011 10.3245 23.6081 10.1755 23.2929 10.1533L16.4501 9.67383C16.4276 9.67225 16.4042 9.67056 16.3818 9.66797C16.3544 9.66482 16.3407 9.66706 16.3368 9.66797C16.3333 9.66889 16.3273 9.67128 16.3193 9.67676C16.3103 9.68299 16.2972 9.69451 16.2841 9.71191C16.2739 9.72556 16.2661 9.74111 16.2597 9.75586C16.2626 9.75738 16.2652 9.76016 16.2685 9.76172L20.9941 12.0264C21.641 12.3366 21.9773 13.0624 21.7968 13.7568C21.6162 14.4513 20.9691 14.9211 20.2529 14.877L3.8007 13.8584C3.56189 13.8437 3.40756 13.9153 3.29387 14.0137C3.16228 14.1277 3.05639 14.3081 3.01652 14.5127C2.97699 14.7162 3.01501 14.8705 3.06828 14.9609C3.10169 15.0176 3.18239 15.125 3.42082 15.2021L3.53313 15.2334L3.55363 15.2383L16.6054 18.4746C17.1171 18.6015 17.6426 18.666 18.1698 18.666H28.6249V21.666H18.1698C17.3991 21.666 16.6308 21.5722 15.8827 21.3867L2.83195 18.1494V18.1484C1.78835 17.8998 0.971159 17.3121 0.48332 16.4844C0.00755145 15.6771 -0.0880722 14.7584 0.0712111 13.9395C0.384849 12.328 1.80581 10.7284 3.98625 10.8633L13.7743 11.4688C13.6316 11.2668 13.5134 11.0485 13.4267 10.8145C13.1699 10.1209 13.2064 9.39958 13.4208 8.7832C13.8368 7.58821 15.0427 6.5297 16.6581 6.68359ZM7.59855 0C10.2678 0 12.4324 2.16378 12.4325 4.83301C12.4324 7.50227 10.2678 9.66699 7.59855 9.66699C4.92943 9.66679 2.76568 7.50215 2.76555 4.83301C2.76572 2.16391 4.92946 0.000201128 7.59855 0ZM7.59855 3C6.58631 3.0002 5.76572 3.82076 5.76555 4.83301C5.76568 5.84529 6.58629 6.66679 7.59855 6.66699C8.611 6.66699 9.43241 5.84542 9.43254 4.83301C9.43236 3.82064 8.61097 3 7.59855 3Z" fill="currentColor" />

</g>
</svg>
