<svg viewBox="0 0 32 32" fill="none" xmlns="http://www.w3.org/2000/svg">
<g transform="translate(1.0005, 3.0002)">
<path d="M15.975 2.51264C19.1827 -0.837685 24.4117 -0.83741 27.6195 2.51264C30.7922 5.82637 30.7922 11.1735 27.6195 14.4873C27.6047 14.5027 27.5891 14.5183 27.5736 14.5331L16.0365 25.583C15.4564 26.1383 14.5424 26.1384 13.9623 25.583L2.42521 14.5331C2.40973 14.5183 2.39413 14.5027 2.37931 14.4873C-0.793105 11.1736 -0.793102 5.82634 2.37931 2.51264C5.58713 -0.837511 10.8161 -0.837583 14.0238 2.51264L14.9994 3.53217L15.975 2.51264ZM11.1703 13.4374C10.8857 13.793 10.4549 13.9999 9.99943 13.9999H6.20548L14.9994 22.4228L23.7924 13.9999H19.6205L17.06 16.5605C16.7498 16.8707 16.3196 17.0294 15.8822 16.9951C15.4449 16.9607 15.0445 16.7366 14.7865 16.3818L11.9428 12.4716L11.1703 13.4374ZM25.4526 4.58784C23.4259 2.47127 20.1686 2.47112 18.142 4.58784L16.0824 6.73823C15.7995 7.03354 15.4084 7.20112 14.9994 7.20112C14.5905 7.20103 14.1993 7.03356 13.9164 6.73823L11.8568 4.58784C9.83022 2.47123 6.5729 2.47117 4.5463 4.58784C2.89094 6.31697 2.56588 8.92446 3.56876 10.9999H9.27872L10.8285 9.06245L10.9447 8.93354C11.2322 8.64911 11.6254 8.49055 12.0346 8.49995C12.502 8.51083 12.9373 8.73999 13.2123 9.11811L16.1791 13.1982L17.9389 11.4394L18.0492 11.3398C18.3161 11.1212 18.6515 11 18.9994 10.9999H26.4301C27.4334 8.92445 27.1082 6.31708 25.4526 4.58784Z" fill="currentColor" />

</g>
</svg>
