<svg viewBox="0 0 32 32" fill="none" xmlns="http://www.w3.org/2000/svg">
<g transform="translate(2.0005, 2.0005)">
<path d="M14 0C21.732 0 28 6.26801 28 14C28 21.732 21.732 28 14 28C6.26801 28 0 21.732 0 14C0 6.26801 6.26801 0 14 0ZM14 18.666C12.8958 18.6661 12.0005 19.5619 12 20.666C12 21.7705 12.8955 22.6659 14 22.666C15.1046 22.666 16 21.7706 16 20.666C15.9995 19.5618 15.1043 18.666 14 18.666ZM14 6.16602C11.1083 6.16632 9.30235 8.35936 8.86133 10.6641L10.334 10.9473L11.8066 11.2285C12.0497 9.95795 12.9023 9.16631 14 9.16602C15.1064 9.16624 15.8336 9.94315 15.834 10.9473C15.8338 11.4242 15.6583 11.7455 15.3848 11.9824C15.0823 12.244 14.5832 12.4596 13.9082 12.502L12.5 12.5898V16.666H15.5V15.2441C16.1757 15.0402 16.811 14.716 17.3477 14.252C18.2734 13.4509 18.8337 12.3042 18.834 10.9473C18.8336 8.28072 16.7577 6.16627 14 6.16602Z" fill="currentColor" />

</g>
</svg>
