<svg viewBox="0 0 32 32" fill="none" xmlns="http://www.w3.org/2000/svg">
<g transform="translate(7.5129, 2.7495)">
<path d="M8.80664 22.5C9.91117 22.5 10.8066 23.3955 10.8066 24.5C10.8066 25.6045 9.91115 26.5 8.80664 26.5C7.70209 26.5 6.80666 25.6045 6.80664 24.5C6.80664 23.3954 7.70207 22.5 8.80664 22.5ZM8.80664 0C13.4973 0.00014255 16.9736 3.55783 16.9736 8.06055C16.9736 10.3363 16.0456 12.2175 14.5186 13.5381C13.3568 14.5426 11.8927 15.1855 10.3066 15.4863V19.5H7.30664V12.7568L8.71387 12.6699C10.3208 12.5696 11.6536 12.0494 12.5566 11.2686C13.4311 10.5121 13.9736 9.45613 13.9736 8.06055C13.9736 5.22025 11.846 3.00014 8.80664 3C5.71312 3.0001 3.53195 5.28245 2.94727 8.3418L0 7.7793C0.782164 3.68548 3.91846 0.000102333 8.80664 0Z" fill="currentColor" />

</g>
</svg>
