<svg viewBox="0 0 32 32" fill="none" xmlns="http://www.w3.org/2000/svg">
<g transform="translate(1.5007, 1.5007)">
<path d="M4.2469 4.2469C9.90947 -1.41567 19.0902 -1.4156 24.7528 4.2469C30.4154 9.90951 30.4154 19.0902 24.7528 24.7528C19.0902 30.4154 9.90951 30.4154 4.2469 24.7528C-1.4156 19.0902 -1.41567 9.90947 4.2469 4.2469ZM22.6317 6.368C18.1406 1.87706 10.859 1.877 6.368 6.368C1.877 10.859 1.87706 18.1406 6.368 22.6317C10.859 27.1227 18.1406 27.1227 22.6317 22.6317C27.1227 18.1406 27.1227 10.859 22.6317 6.368ZM14.4998 19.1668C15.6044 19.1668 16.4998 20.0623 16.4998 21.1668C16.4998 22.2714 15.6044 23.1668 14.4998 23.1668C13.3954 23.1667 12.4998 22.2713 12.4998 21.1668C12.4998 20.0623 13.3954 19.1669 14.4998 19.1668ZM14.5008 6.66683C17.2586 6.66721 19.3338 8.78035 19.3338 11.4471C19.3338 12.8049 18.7731 13.9515 17.8465 14.7528C17.3098 15.2169 16.6766 15.5439 16.0008 15.7479V17.1668H13.0008V13.0907L14.4071 13.0028C15.0825 12.9606 15.582 12.7458 15.8846 12.4842C16.1588 12.2471 16.3338 11.9249 16.3338 11.4471C16.3338 10.4428 15.6073 9.66718 14.5008 9.66683C13.4027 9.66683 12.5504 10.4573 12.3075 11.7283L9.36019 11.1658C9.80066 8.86035 11.608 6.66683 14.5008 6.66683Z" fill="currentColor" />

</g>
</svg>
