<svg viewBox="0 0 32 32" fill="none" xmlns="http://www.w3.org/2000/svg">
<g transform="translate(1.4174, 4.2504)">
<path d="M15 3.49996H4.5C3.67157 3.49996 3 4.17153 3 4.99996V19C3.00016 19.8282 3.67167 20.5 4.5 20.5H24.5C25.3283 20.4999 25.9998 19.8282 26 19V12H29V19C28.9998 21.4851 26.9851 23.4999 24.5 23.5H4.5C2.01482 23.5 0.000156036 21.4851 0 19V4.99996C0 2.51467 2.01472 0.499956 4.5 0.499956H15V3.49996ZM24.6465 0.831987C25.6804 -0.277306 27.3566 -0.277259 28.3906 0.831987C29.4246 1.9413 29.4246 3.73927 28.3906 4.84859L24.0088 9.16011C23.9115 9.25583 23.7555 9.25583 23.6582 9.16011L19.2754 4.84859C18.2416 3.73931 18.2416 1.94127 19.2754 0.831987C20.3094 -0.277329 21.9856 -0.277329 23.0195 0.831987L23.833 1.70406L24.6465 0.831987Z" fill="currentColor" />

</g>
</svg>
