<svg viewBox="0 0 32 32" fill="none" xmlns="http://www.w3.org/2000/svg">
<g transform="translate(2.5002, 2.5002)">
<path d="M24.6514 13.3106C27.783 16.4423 27.7831 21.5198 24.6514 24.6514C21.5198 27.7831 16.4423 27.783 13.3106 24.6514L10.545 21.8858L11.6055 20.8253L12.6661 19.7637L15.4317 22.5303C17.3918 24.4903 20.5703 24.4904 22.5303 22.5303C24.4904 20.5703 24.4903 17.3918 22.5303 15.4317L19.7637 12.6661L20.8253 11.6055L21.8858 10.545L24.6514 13.3106ZM20.2452 18.1241L18.1241 20.2452L6.75495 8.87604L8.87604 6.75495L20.2452 18.1241ZM2.3487 2.3487C5.48034 -0.782939 10.5578 -0.78286 13.6895 2.3487C13.7025 2.36169 13.7151 2.37528 13.7276 2.38874L16.5987 5.47956L14.4014 7.52057L11.5528 4.45514C9.59149 2.51028 6.42481 2.51478 4.46979 4.46979C2.50973 6.42986 2.5098 9.60831 4.46979 11.5684L7.23639 14.3341L6.17487 15.3946L5.11432 16.4551L2.3487 13.6895C-0.782863 10.5578 -0.782936 5.48034 2.3487 2.3487Z" fill="currentColor" />

</g>
</svg>
