<svg viewBox="0 0 32 32" fill="none" xmlns="http://www.w3.org/2000/svg">
<g transform="translate(4.5002, 2.5002)">
<path d="M21.5 0C22.3284 0 23 0.671573 23 1.5V25.5C23 26.3284 22.3284 27 21.5 27H1.5C0.671573 27 0 26.3284 0 25.5V1.5C0 0.671573 0.671573 0 1.5 0H21.5ZM3 24H20V3H3V24ZM16.5 21H6.5V18H16.5V21ZM6.60938 6.31445C7.6909 5.51704 8.76739 5.23795 9.83203 5.36035C10.7898 5.4705 11.623 5.90651 12.1719 6.18164C12.8135 6.50329 13.171 6.66404 13.5107 6.70312C13.7437 6.72991 14.0722 6.7105 14.6094 6.31445C15.0648 5.97878 15.6708 5.92869 16.1758 6.18359C16.6808 6.4387 16.9999 6.95664 17 7.52246V12.1436C17 12.6199 16.7739 13.0688 16.3906 13.3516C15.309 14.1491 14.2327 14.4281 13.168 14.3057C12.2102 14.1955 11.377 13.7595 10.8281 13.4844C10.1865 13.1628 9.82895 13.002 9.48926 12.9629C9.25636 12.9361 8.92763 12.9557 8.39062 13.3516C7.93511 13.6874 7.32842 13.7376 6.82324 13.4824C6.31846 13.2271 6 12.7093 6 12.1436V7.52246L6.01074 7.34473C6.05947 6.93624 6.27409 6.56171 6.60938 6.31445ZM9.48926 8.34082C9.36128 8.32611 9.20454 8.32659 9 8.39453V9.9707C9.27798 9.94625 9.55545 9.95062 9.83203 9.98242C10.7896 10.0926 11.623 10.5276 12.1719 10.8027C12.8136 11.1244 13.171 11.2861 13.5107 11.3252C13.6389 11.3399 13.7951 11.3377 14 11.2695V9.69434C13.722 9.7188 13.4446 9.7154 13.168 9.68359C12.2103 9.57344 11.377 9.13841 10.8281 8.86328C10.1865 8.54166 9.82897 8.37988 9.48926 8.34082Z" fill="currentColor" />

</g>
</svg>
