<svg viewBox="0 0 32 32" fill="none" xmlns="http://www.w3.org/2000/svg">
<g transform="translate(4.4998, 0.8327)">
<path d="M15.5 30.334H7.5V27.334H15.5V30.334ZM11.5 0C17.8547 2.23184e-05 23 5.18787 23 11.5C23 15.783 20.4003 19.4515 17 21.4053V24C17 24.8284 16.3284 25.4999 15.5 25.5H7.5C6.67157 25.5 6 24.8284 6 24V21.4053C2.59953 19.4515 0 15.783 0 11.5C2.4876e-05 5.18786 5.14527 0 11.5 0ZM11.5 3C6.80907 3 3.00002 6.83775 3 11.5C3 14.7888 5.19551 17.7538 8.13965 19.1436C8.66452 19.3913 8.99998 19.9196 9 20.5V22.5H14V20.5C14 19.9197 14.3346 19.3913 14.8594 19.1436C17.8037 17.7538 20 14.7889 20 11.5C20 6.83777 16.1909 3.00002 11.5 3Z" fill="currentColor" />

</g>
</svg>
