<svg viewBox="0 0 32 32" fill="none" xmlns="http://www.w3.org/2000/svg">
<g transform="translate(1.5008, 4.4992)">
<path d="M27.5 0C28.3284 3.86556e-07 29 0.671573 29 1.5V21.5C29 22.3284 28.3284 23 27.5 23H1.5C0.671573 23 0 22.3284 0 21.5V1.5C0 0.671573 0.671573 0 1.5 0H27.5ZM3 20H26V3H3V20ZM13.7021 8.22949C14.2241 7.90138 14.9004 7.92481 15.4004 8.2998L23.4004 14.2998C23.9168 14.6872 24.127 15.3622 23.9229 15.9746C23.7186 16.587 23.1455 17 22.5 17H6.5C5.85446 17 5.2814 16.587 5.07715 15.9746C4.873 15.3622 5.08321 14.6872 5.59961 14.2998L13.5996 8.2998L13.7021 8.22949ZM11.001 14H17.999L14.5 11.375L11.001 14ZM7.83301 5.5C8.93758 5.5 9.83301 6.39543 9.83301 7.5C9.83301 8.60457 8.93758 9.5 7.83301 9.5C6.72859 9.49982 5.83301 8.60446 5.83301 7.5C5.83301 6.39554 6.72859 5.50018 7.83301 5.5Z" fill="currentColor"/>
</g>
</svg>