<svg viewBox="0 0 32 32" fill="none" xmlns="http://www.w3.org/2000/svg">
<g transform="translate(1.5007, 1.5007)">
<path d="M4.24695 4.24695C9.90955 -1.41565 19.0902 -1.41565 24.7528 4.24695C30.4154 9.90955 30.4154 19.0902 24.7528 24.7528C19.0902 30.4154 9.90955 30.4154 4.24695 24.7528C-1.41565 19.0902 -1.41565 9.90955 4.24695 4.24695ZM22.6317 6.36804C18.1407 1.87702 10.8591 1.87702 6.36804 6.36804C1.87702 10.8591 1.87702 18.1407 6.36804 22.6317C10.8591 27.1227 18.1407 27.1227 22.6317 22.6317C27.1227 18.1407 27.1227 10.8591 22.6317 6.36804ZM15.9999 22.4999H12.9999V13.4999H15.9999V22.4999ZM14.4999 6.49988C15.6039 6.49988 16.4999 7.39588 16.4999 8.49988C16.4999 9.60388 15.6039 10.4999 14.4999 10.4999C13.3959 10.4999 12.4999 9.60388 12.4999 8.49988C12.4999 7.39588 13.3959 6.49988 14.4999 6.49988Z" fill="currentColor" />

</g>
</svg>
