<svg viewBox="0 0 32 32" fill="none" xmlns="http://www.w3.org/2000/svg">
<g transform="translate(4.4992, 1.5008)">
<path d="M14.2198 0.409718C14.7817 -0.121308 15.6553 -0.138067 16.2374 0.370656C16.8191 0.879524 16.9188 1.74688 16.4679 2.37456L11.8194 8.84038L22.0773 13.1148C22.546 13.3102 22.8841 13.7296 22.9757 14.2291C23.0671 14.7285 22.8993 15.2406 22.5304 15.5894L8.78038 28.5894C8.21852 29.1201 7.3448 29.1371 6.76281 28.6285C6.18117 28.1197 6.08176 27.2523 6.53234 26.6246L11.1798 20.1578L0.922962 15.8843C0.454507 15.689 0.116197 15.2693 0.0245244 14.7701C-0.0669987 14.2708 0.101186 13.7586 0.469837 13.4097L14.2198 0.409718Z" fill="currentColor"/>
</g>
</svg>