<svg viewBox="0 0 32 32" fill="none" xmlns="http://www.w3.org/2000/svg">
<g transform="translate(4.4992, 1.5008)">
<path d="M14.2199 0.409767C14.7817 -0.121292 15.6553 -0.138115 16.2374 0.370705C16.8191 0.879573 16.9188 1.74693 16.4679 2.37461L11.8195 8.84043L22.0773 13.1148C22.546 13.3102 22.8842 13.7296 22.9757 14.2291C23.0671 14.7285 22.8994 15.2406 22.5304 15.5895L8.78041 28.5895C8.21855 29.1204 7.34491 29.1372 6.76283 28.6285C6.18101 28.1197 6.08153 27.2524 6.53236 26.6246L11.1798 20.1578L0.922984 15.8844C0.454379 15.6891 0.116206 15.2694 0.0245469 14.7701C-0.066998 14.2707 0.101025 13.7587 0.469859 13.4098L14.2199 0.409767ZM4.20814 14.0025L14.0773 18.1148L15.0597 18.524L18.7911 14.9957L8.92298 10.8844L7.93959 10.4742L4.20814 14.0025Z" fill="currentColor"/>
</g>
</svg>