<svg viewBox="0 0 32 32" fill="none" xmlns="http://www.w3.org/2000/svg">
<g transform="translate(1.5008, 1.5008)">
<path d="M14.5 0C22.5081 0 29 6.49187 29 14.5C29 22.5081 22.5081 29 14.5 29C6.49187 29 1.2886e-06 22.5081 0 14.5C8.37589e-07 6.49187 6.49187 1.54631e-06 14.5 0ZM10.0439 16C10.1926 18.6384 10.7306 21.1381 11.6191 23.0635C12.7137 25.4351 13.8657 26 14.5 26C15.1343 26 16.2863 25.4351 17.3809 23.0635C18.2694 21.1381 18.8074 18.6384 18.9561 16H10.0439ZM3.10059 16C3.58712 19.7338 5.86377 22.9039 9.04102 24.6221C8.99222 24.5226 8.94242 24.4229 8.89551 24.3213C7.79303 21.9326 7.18991 18.9813 7.03906 16H3.10059ZM21.9609 16C21.8101 18.9813 21.207 21.9326 20.1045 24.3213C20.0575 24.4231 20.0069 24.5224 19.958 24.6221C23.1356 22.904 25.4128 19.7341 25.8994 16H21.9609ZM20.1045 4.67871C21.207 7.06742 21.8101 10.0187 21.9609 13H25.8994C25.4128 9.2657 23.1359 6.09495 19.958 4.37695C20.007 4.47684 20.0574 4.57668 20.1045 4.67871ZM14.5 3C13.8657 3 12.7137 3.56491 11.6191 5.93652C10.7306 7.86194 10.1926 10.3616 10.0439 13H18.9561C18.8074 10.3616 18.2694 7.86194 17.3809 5.93652C16.2863 3.56491 15.1343 3 14.5 3ZM9.04102 4.37695C5.86356 6.09504 3.58714 9.266 3.10059 13H7.03906C7.18991 10.0187 7.79303 7.06742 8.89551 4.67871C8.94254 4.57681 8.99209 4.47671 9.04102 4.37695Z" fill="currentColor"/>
</g>
</svg>