<svg viewBox="0 0 32 32" fill="none" xmlns="http://www.w3.org/2000/svg">
<g transform="translate(0.4992, 2.6208)">
<path d="M24.748 0.190455C25.0493 0.022455 25.4007 -0.0379727 25.7432 0.0234631C26.1347 0.0937141 26.4818 0.317119 26.709 0.64358L31.3564 7.32327L28.8945 9.03616L26.4062 5.45999C26.1439 6.97068 25.7892 8.78163 25.3301 10.6182C24.7576 12.9081 24.0076 15.3119 23.0449 17.2373C22.5635 18.2001 22.0006 19.1015 21.3359 19.8174C20.6726 20.5318 19.8305 21.1423 18.7939 21.3496C16.9814 21.7121 15.5434 21.0811 14.4473 20.0801C13.4324 19.1531 12.655 17.8605 12.0127 16.7608C11.3182 15.5716 10.7606 14.5715 10.1182 13.8291C9.50653 13.1224 9.01106 12.8789 8.5 12.8789C7.98047 12.8789 7.35779 13.1627 6.63867 13.9795C5.92454 14.7907 5.2656 15.9672 4.70312 17.3272C3.5685 20.0706 3 23.1236 3 24.3789H0C2.21836e-06 22.6343 0.687275 19.1872 1.93066 16.1807C2.55716 14.6659 3.36775 13.1546 4.38672 11.9971C5.40081 10.8452 6.77567 9.87895 8.5 9.87893C10.2328 9.87893 11.484 10.8231 12.3867 11.8662C13.2587 12.8738 13.984 14.1864 14.6035 15.2471C15.2752 16.3971 15.8434 17.2924 16.4707 17.8653C17.017 18.3641 17.5187 18.5457 18.2061 18.4082C18.4195 18.3655 18.7339 18.2101 19.1367 17.7764C19.5383 17.3439 19.9522 16.7138 20.3613 15.8955C21.1798 14.2586 21.8674 12.0996 22.4199 9.88967C22.881 8.04523 23.2326 6.21496 23.4893 4.70999L19.6553 7.37893L17.9424 4.91604L24.6221 0.26858L24.748 0.190455Z" fill="currentColor"/>
</g>
</svg>