<svg viewBox="0 0 32 32" fill="none" xmlns="http://www.w3.org/2000/svg">
<g transform="translate(2.4992, 5.168)">
<path d="M6.83398 18.5V21.5H0.166992V18.5H6.83398ZM16.167 18.5V21.5H9.5V18.5H16.167ZM3 0C3 1.80687 3.46296 4.42134 4.44434 6.53516C5.45922 8.72096 6.7456 9.83301 8.16699 9.83301C8.63996 9.83293 9.15367 9.66935 9.77832 9.30664C10.4189 8.9346 11.058 8.42679 11.8184 7.82422C13.1927 6.73507 15.1081 5.16712 17.5 5.16699C19.5054 5.16713 21.0579 6.42004 22.1719 7.8125C23.3054 9.22942 24.2031 11.0526 24.8926 12.7764C25.5888 14.517 26.1065 16.2453 26.4492 17.5303C26.6211 18.1749 26.7512 18.7133 26.8379 19.0928C26.8812 19.2824 26.9143 19.4328 26.9365 19.5371C26.9476 19.589 26.9561 19.6299 26.9619 19.6582C26.9648 19.6721 26.9671 19.6835 26.9688 19.6914C26.9695 19.6952 26.9702 19.6988 26.9707 19.7012V19.7051L26.9717 19.7061C27.0597 20.1465 26.9448 20.6038 26.6602 20.9512C26.3753 21.2985 25.9492 21.4999 25.5 21.5H18.834V18.5H23.6016C23.5848 18.4359 23.5686 18.3694 23.5508 18.3027C23.2268 17.0879 22.7443 15.4829 22.1074 13.8906C21.4636 12.2812 20.6955 10.7695 19.8291 9.68652C18.9434 8.57953 18.1609 8.16713 17.5 8.16699C16.3369 8.16712 15.2513 8.93191 13.6816 10.1758C12.9703 10.7395 12.1509 11.3986 11.2852 11.9014C10.4031 12.4135 9.36046 12.8329 8.16699 12.833C4.9218 12.833 2.87541 10.2786 1.72363 7.79785C0.538519 5.24512 0 2.19297 0 0H3Z" fill="currentColor"/>
</g>
</svg>