<svg viewBox="0 0 32 32" fill="none" xmlns="http://www.w3.org/2000/svg">
<g transform="translate(1.0016, 3.5008)">
<path d="M15.975 2.51271C19.1828 -0.837663 24.4117 -0.837475 27.6196 2.51271C30.7922 5.82644 30.7922 11.1736 27.6196 14.4873C27.6048 14.5028 27.5891 14.5184 27.5737 14.5332L16.0366 25.583C15.4565 26.1383 14.5424 26.1385 13.9623 25.583L2.42523 14.5332C2.40972 14.5184 2.3942 14.5028 2.37934 14.4873C-0.793178 11.1737 -0.793045 5.82645 2.37934 2.51271C5.5872 -0.837489 10.8161 -0.837648 14.0239 2.51271L14.9995 3.53224L15.975 2.51271ZM25.4526 4.5879C23.4259 2.47121 20.1686 2.47115 18.142 4.5879L16.0825 6.73829C15.7995 7.03356 15.4084 7.20118 14.9995 7.20118C14.5905 7.20111 14.1993 7.03364 13.9164 6.73829L11.8569 4.5879C9.83026 2.47116 6.57296 2.47119 4.54633 4.5879C2.48958 6.73639 2.48461 10.2416 4.53168 12.3965L14.9995 22.4229L25.4662 12.3965C27.5139 10.2416 27.5097 6.73654 25.4526 4.5879Z" fill="currentColor"/>
</g>
</svg>