<svg viewBox="0 0 32 32" fill="none" xmlns="http://www.w3.org/2000/svg">
<g transform="translate(4.0, 4.4992)">
<path d="M12.0002 6C12.4721 6.00011 12.9172 6.22209 13.2004 6.59961L23.7004 20.5996C24.0411 21.0541 24.096 21.6628 23.842 22.1709C23.5879 22.679 23.0682 22.9999 22.5002 23H1.50018C0.932075 23 0.412497 22.679 0.158383 22.1709C-0.0957053 21.6627 -0.0409106 21.0541 0.299984 20.5996L10.8 6.59961L10.9133 6.46582C11.1946 6.1702 11.587 6 12.0002 6ZM4.50116 20H19.4992L12.0002 10L4.50116 20ZM24.0002 3H0.000179547V0H24.0002V3Z" fill="currentColor"/>
</g>
</svg>