<svg viewBox="0 0 32 32" fill="none" xmlns="http://www.w3.org/2000/svg">
<g transform="translate(1.5008, 1.5008)">
<path d="M20.5 9C22.7566 9 24.9192 9.90083 26.5127 11.502C28.1059 13.103 28.9999 15.2732 29 17.5342C29 20.8392 26.9312 23.9382 25.1426 26.041C24.2169 27.1293 23.2952 28.0318 22.6064 28.6621C22.261 28.9782 21.9712 29.2286 21.7656 29.4014C21.663 29.4876 21.5811 29.5548 21.5234 29.6016C21.4945 29.625 21.4714 29.6442 21.4551 29.6572C21.4471 29.6636 21.4404 29.669 21.4355 29.6729C21.4334 29.6746 21.4312 29.6756 21.4297 29.6768C21.4289 29.6774 21.4273 29.6792 21.4268 29.6797C21.4262 29.6797 21.4126 29.6627 20.5 28.5L21.4258 29.6797C20.8821 30.1063 20.1179 30.1063 19.5742 29.6797L20.5 28.5C19.5874 29.6627 19.5738 29.6797 19.5732 29.6797C19.5727 29.6792 19.5711 29.6774 19.5703 29.6768C19.5688 29.6756 19.5666 29.6746 19.5645 29.6729C19.5596 29.669 19.5529 29.6636 19.5449 29.6572C19.5286 29.6442 19.5055 29.625 19.4766 29.6016C19.4189 29.5548 19.337 29.4876 19.2344 29.4014C19.0288 29.2286 18.739 28.9782 18.3936 28.6621C17.7048 28.0318 16.7831 27.1293 15.8574 26.041C14.1247 24.0039 12.1289 21.0323 12.0059 17.8438L12 17.5342C12.0001 15.2732 12.8941 13.103 14.4873 11.502C16.0808 9.90083 18.2434 9 20.5 9ZM20.5 12C19.0437 12 17.6453 12.5811 16.6133 13.6182C15.5811 14.6554 15.0001 16.0641 15 17.5342L15.0039 17.7383C15.0895 19.8493 16.4848 22.1475 18.1426 24.0967C18.9667 25.0656 19.7953 25.8784 20.4189 26.4492C20.4461 26.474 20.4737 26.4976 20.5 26.5215C20.5263 26.4976 20.5539 26.474 20.5811 26.4492C21.2047 25.8784 22.0333 25.0656 22.8574 24.0967C24.5687 22.0846 26 19.7003 26 17.5342C25.9999 16.0641 25.4189 14.6554 24.3867 13.6182C23.3547 12.5811 21.9563 12 20.5 12ZM25.5 0C26.8807 0 28 1.11929 28 2.5V6.5H25V3H3V17.5H8.5V20.5H2.5C1.11929 20.5 0 19.3807 0 18V2.5C3.02e-09 1.11929 1.11929 2.89915e-07 2.5 0H25.5ZM20.5 15.5C21.6046 15.5 22.5 16.3954 22.5 17.5C22.5 18.6046 21.6046 19.5 20.5 19.5C19.3954 19.5 18.5 18.6046 18.5 17.5C18.5 16.3954 19.3954 15.5 20.5 15.5Z" fill="currentColor"/>
</g>
</svg>