<svg viewBox="0 0 32 32" fill="none" xmlns="http://www.w3.org/2000/svg">
<g transform="translate(1.5008, 3.5008)">
<path d="M5.00009 22H24.0001V14.5H27.0001V23.5C27.0001 24.3283 26.3284 24.9999 25.5001 25H3.50009C2.67166 25 2.00009 24.3284 2.00009 23.5V14.5H5.00009V22ZM22.2999 0C22.7591 0 23.1894 0.210186 23.4718 0.563477L23.5831 0.723633L28.7833 9.31543C29.0185 9.70424 29.0649 10.1785 28.9093 10.6055C28.7534 11.0325 28.4121 11.3668 27.9815 11.5127C21.7976 13.6085 17.9381 13.0785 14.2276 12.3926C10.6625 11.7335 7.35509 10.9678 1.83114 12.2158C1.25309 12.3463 0.651142 12.1245 0.296963 11.6494C-0.0571396 11.1742 -0.0978354 10.5342 0.192471 10.0176L5.39267 0.764648C5.65828 0.292397 6.15845 0.000103544 6.70028 0H22.2999ZM7.57821 3L4.35458 8.73535C8.75041 8.21266 11.8477 8.90166 14.7725 9.44238C17.8209 10.0059 20.7525 10.4314 25.2198 9.21973L21.4542 3H7.57821Z" fill="currentColor"/>
</g>
</svg>