<svg viewBox="0 0 32 32" fill="none" xmlns="http://www.w3.org/2000/svg">
<g transform="translate(3.5008, 1.5008)">
<path d="M12.5 0C15.7978 0 18.9713 1.26212 21.3193 3.52539C23.6692 5.79043 25 8.87461 25 12.1025C25 16.8474 21.8765 21.0683 19.0732 23.9414C17.6374 25.413 16.2072 26.6106 15.1377 27.4395C14.6018 27.8548 14.1533 28.18 13.8359 28.4033C13.6772 28.515 13.551 28.6016 13.4629 28.6611C13.4188 28.6909 13.3838 28.7133 13.3594 28.7295C13.3473 28.7375 13.3381 28.7444 13.3311 28.749L13.3193 28.7568H13.3184L12.5 27.5L13.3174 28.7578C12.8204 29.0808 12.1796 29.0808 11.6826 28.7578L12.5 27.5L11.6816 28.7568H11.6807L11.6689 28.749C11.6619 28.7444 11.6527 28.7375 11.6406 28.7295C11.6162 28.7133 11.5812 28.6909 11.5371 28.6611C11.449 28.6016 11.3228 28.515 11.1641 28.4033C10.8467 28.18 10.3982 27.8548 9.8623 27.4395C8.79284 26.6106 7.36262 25.413 5.92676 23.9414C3.21105 21.158 0.194592 17.11 0.00878906 12.5459L0 12.1025C4.33167e-05 8.87461 1.33078 5.79043 3.68066 3.52539C6.02875 1.26212 9.20223 2.69414e-07 12.5 0ZM12.5 3C9.963 3 7.54041 3.97204 5.7627 5.68555C3.98696 7.3972 3.00004 9.70664 3 12.1025L3.00684 12.4307C3.14871 15.8209 5.46075 19.1691 8.07324 21.8467C9.38728 23.1934 10.7072 24.2988 11.7002 25.0684C12.0007 25.3012 12.2711 25.5011 12.5 25.668C12.7289 25.5011 12.9993 25.3012 13.2998 25.0684C14.2928 24.2988 15.6127 23.1934 16.9268 21.8467C19.6235 19.0828 22 15.6042 22 12.1025C22 9.70664 21.013 7.3972 19.2373 5.68555C17.4596 3.97204 15.037 3 12.5 3ZM12.5 9.5C14.1569 9.5 15.5 10.8431 15.5 12.5C15.5 14.1569 14.1569 15.5 12.5 15.5C10.8431 15.5 9.5 14.1569 9.5 12.5C9.5 10.8431 10.8431 9.5 12.5 9.5Z" fill="currentColor"/>
</g>
</svg>