<svg viewBox="0 0 32 32" fill="none" xmlns="http://www.w3.org/2000/svg">
<g transform="translate(4.0, 2.0)">
<path d="M12 0C15.1826 0 18.2349 1.24479 20.4854 3.45996C22.7356 5.67501 23.9999 8.67904 24 11.8115C24 18.7527 15.7258 26.1759 12.2939 28.7793C12.1192 28.9119 11.8808 28.9119 11.7061 28.7793C8.27425 26.1759 0 18.7527 0 11.8115C0.00011956 8.67904 1.26444 5.67501 3.51465 3.45996C5.76509 1.24479 8.8174 0 12 0ZM12 8C9.79086 8 8 9.79086 8 12C8 14.2091 9.79086 16 12 16C14.2091 16 16 14.2091 16 12C16 9.79086 14.2091 8 12 8Z" fill="currentColor"/>
</g>
</svg>