<svg viewBox="0 0 32 32" fill="none" xmlns="http://www.w3.org/2000/svg">
<g transform="translate(3.0003, 3.5003)">
<path d="M8.5 3H3V22H8.5V25H1.5C1.10228 25 0.720736 24.8417 0.439453 24.5605C0.158255 24.2793 0.000117797 23.8977 0 23.5V1.5C2.62535e-06 0.671576 0.671575 5.75068e-07 1.5 0H8.5V3ZM25.5605 11.4395C25.8417 11.7207 26 12.1023 26 12.5C25.9999 12.8977 25.8417 13.2793 25.5605 13.5605L19.5605 19.5605L17.4395 17.4395L20.8789 14H7.5V11H20.8789L17.4395 7.56055L19.5605 5.43945L25.5605 11.4395Z" fill="currentColor" />

</g>
</svg>
