<svg viewBox="0 0 32 32" fill="none" xmlns="http://www.w3.org/2000/svg">
<g transform="translate(5.9998, 1.3332)">
<path d="M15.3841 0C15.6901 0 15.9177 0.301264 15.8528 0.620117L15.264 3.51074C17.273 4.16879 18.9062 5.34808 19.9144 6.80371C20.0589 7.01239 20.0146 7.30234 19.8265 7.4668L17.3489 9.62891C17.131 9.8189 16.8083 9.76767 16.6302 9.53516C15.3782 7.89895 13.4142 6.97461 11.2874 6.97461C8.97374 6.97461 7.43122 8.06819 7.43096 9.64062C7.43096 10.9397 8.58792 11.6239 12.1224 12.4443H12.1253C16.6239 13.47 18.681 15.4535 18.681 18.8037C18.6808 23.0036 15.4647 26.1044 10.4466 26.4326L9.95537 28.9268C9.90868 29.1636 9.71255 29.333 9.48565 29.333H5.59795C5.28823 29.3329 5.0595 29.0245 5.13115 28.7031L5.7542 25.9102C3.2513 25.1521 1.24037 23.6747 0.0764671 21.8525C-0.0599717 21.6389 -0.00757305 21.3519 0.183889 21.1934L2.90069 18.9443C3.12461 18.7592 3.44861 18.8214 3.61455 19.0664C5.04473 21.1775 7.23579 22.4277 9.87432 22.4277C12.2523 22.4277 14.052 21.1966 14.0521 19.4189C14.0521 18.0514 13.152 17.4357 10.1312 16.752C4.92531 15.5896 2.86864 13.5386 2.86846 10.1885C2.86846 6.3013 5.93903 3.36362 10.5716 2.98242L11.0794 0.40625C11.1261 0.169473 11.3222 0 11.5491 0H15.3841Z" fill="currentColor" />

</g>
</svg>
