<svg viewBox="0 0 32 32" fill="none" xmlns="http://www.w3.org/2000/svg">
<g transform="translate(4.7177, 2.6667)">
<path d="M14.7314 5.19411C16.3913 5.19411 17.5694 6.10442 18.4261 7.44311C18.6939 7.81794 19.2829 7.92503 19.6577 7.5502L22.3351 4.97992C22.6028 4.71218 22.6564 4.2838 22.3887 3.96252C20.6216 1.60643 18.212 0 14.5707 0C9.43016 0 4.98572 3.2664 4.98572 8.72825C4.98572 9.47791 5.03926 10.2276 5.19991 10.9772H3.75412C3.37929 10.9772 3.05801 11.1914 2.95091 11.5663L2.41544 14.4578C2.30834 14.9398 2.68317 15.4217 3.1651 15.4217H6.21731L6.3244 15.9036C6.37795 16.1714 6.4315 16.6533 6.4315 16.921C6.4315 19.17 4.07541 21.3655 1.18384 22.2758C0.916104 22.3293 0.701914 22.5971 0.648367 22.8648L0.00579716 25.7028C-0.0477503 26.1847 0.273535 26.6667 0.80901 26.6667H19.1223C19.4971 26.6667 19.7648 26.3989 19.8719 26.0241L20.6751 22.4364C20.7822 21.9545 20.4074 21.4726 19.9255 21.4726H10.1798C11.3579 20.4016 12.0004 17.51 11.7863 15.3681H16.6055C16.9804 15.3681 17.3016 15.1539 17.4087 14.7256L18.0513 11.8875C18.1049 11.4056 17.7836 10.9237 17.2481 10.9237H10.983C10.9295 10.4418 10.9295 9.90629 10.9295 9.47791C10.8759 6.5328 12.6966 5.19411 14.7314 5.19411Z" fill="currentColor" />

</g>
</svg>
