<svg viewBox="0 0 32 32" fill="none" xmlns="http://www.w3.org/2000/svg">
<g transform="translate(5.4197, 1.3332)">
<path d="M15.4494 0C16.0141 0 16.4356 0.518971 16.3205 1.07227L15.7785 3.65039C18.8942 4.20896 21.1603 6.14239 21.1603 9.12109C21.1602 11.8453 19.2501 13.6944 16.9318 14.3516C18.7798 15.26 19.9698 17.0456 19.9699 19.2383C19.9699 22.9655 16.6185 25.8477 11.3556 25.8477H10.8439L10.2609 28.625C10.1737 29.0403 9.80659 29.3361 9.38299 29.333L6.0949 29.3086C5.53218 29.3044 5.11436 28.7837 5.23064 28.2324L5.73846 25.8477H0.667168C0.240474 25.8477 -0.0755181 25.4534 0.015801 25.0371L4.66229 4.00488C4.72974 3.69978 5.00034 3.48261 5.31268 3.48242H10.7043L11.2961 0.704102C11.3833 0.293057 11.7458 0.000138838 12.1662 0H15.4494ZM7.04803 16.2627L5.86443 21.6191H11.2306C13.5488 21.6191 14.8954 20.4597 14.8957 18.7998C14.8957 17.1709 13.5806 16.2627 11.4191 16.2627H7.04803ZM8.92986 7.74219L7.9201 12.3154H13.0793C14.865 12.3154 16.1174 11.5001 16.1174 9.90332C16.1171 8.55594 15.0836 7.74219 13.298 7.74219H8.92986Z" fill="currentColor" />

</g>
</svg>
