<svg viewBox="0 0 32 32" fill="none" xmlns="http://www.w3.org/2000/svg">
<g transform="translate(3.0003, 3.0003)">
<path d="M21.6543 1.35332e-07C22.2248 -0.000142133 22.7903 0.111887 23.3174 0.330078C23.8446 0.548329 24.324 0.869054 24.7275 1.27246C25.1309 1.67579 25.4506 2.15468 25.6689 2.68164C25.8873 3.20863 25.9999 3.77333 26 4.34375V21.6533C26 22.8058 25.5423 23.9115 24.7275 24.7266C23.9127 25.5416 22.8068 25.9997 21.6543 26H4.3457C3.19317 25.9997 2.08732 25.5416 1.27246 24.7266C0.457666 23.9115 -3.57999e-08 22.8058 0 21.6533V4.34375C5.5233e-05 3.77333 0.112737 3.20863 0.331055 2.68164C0.549368 2.15468 0.869133 1.67579 1.27246 1.27246C1.67597 0.869054 2.15543 0.548329 2.68262 0.330078C3.20974 0.111888 3.77521 -0.000142133 4.3457 1.35332e-07H21.6543ZM6.10059 4.72754C5.92053 4.72754 5.74153 4.76309 5.5752 4.83203C5.40897 4.90097 5.25805 5.00259 5.13086 5.12988C5.00374 5.25716 4.90275 5.408 4.83398 5.57422C4.76518 5.74061 4.72935 5.91955 4.72949 6.09961V19.9023C4.72941 20.0823 4.76523 20.2605 4.83398 20.4268C4.90279 20.5931 5.00362 20.7447 5.13086 20.8721C5.258 20.9993 5.40909 21.1001 5.5752 21.1689C5.74153 21.2379 5.92053 21.2734 6.10059 21.2734H19.9023C20.2657 21.273 20.6142 21.1282 20.8711 20.8711C21.1279 20.614 21.2723 20.2657 21.2725 19.9023V6.09961C21.2725 5.7361 21.128 5.38705 20.8711 5.12988C20.6142 4.87281 20.2657 4.72794 19.9023 4.72754H6.10059ZM15.7627 9.43652C15.8662 9.43669 15.9689 9.45726 16.0645 9.49707C16.1601 9.53692 16.2473 9.59548 16.3203 9.66895C16.3933 9.74238 16.4509 9.82998 16.4902 9.92578C16.5295 10.0215 16.5492 10.1241 16.5488 10.2275V15.7373C16.5491 15.8407 16.5295 15.9435 16.4902 16.0391C16.4508 16.1348 16.3924 16.2225 16.3193 16.2959C16.2464 16.369 16.1598 16.4271 16.0645 16.4668C15.9689 16.5066 15.8661 16.5272 15.7627 16.5273H10.2373C10.1338 16.5273 10.0311 16.5065 9.93555 16.4668C9.84015 16.4271 9.75361 16.3691 9.68066 16.2959C9.60768 16.2226 9.5491 16.1357 9.50977 16.04C9.47043 15.9442 9.45074 15.8409 9.45117 15.7373V10.2275C9.45063 10.124 9.47059 10.0216 9.50977 9.92578C9.54901 9.82992 9.60666 9.74241 9.67969 9.66895C9.75278 9.59545 9.83984 9.53687 9.93555 9.49707C10.0312 9.45732 10.1337 9.43655 10.2373 9.43652H15.7627Z" fill="currentColor" />

</g>
</svg>
