<svg viewBox="0 0 32 32" fill="none" xmlns="http://www.w3.org/2000/svg">
<g transform="translate(4.5662, 2.6667)">
<path d="M22.5174 1.88448C20.8505 0.719981 18.7269 0 16.1224 0C13.7808 0 5.69138 0.735782 3.74053 10.855H1.41574C1.01493 10.855 0.670477 11.1384 0.59358 11.5318L0.0110656 14.5018C-0.0595104 14.862 0.216472 15.1975 0.583573 15.1975H3.32182C3.25756 25.1956 10.0839 26.6667 13.4205 26.6667C16.1946 26.6667 18.2249 25.8113 19.8477 24.4635C20.2237 24.1507 20.2411 23.5771 19.8951 23.2316L17.704 21.0406C17.4202 20.7567 16.9772 20.7204 16.6438 20.9432C15.7716 21.5252 14.8099 21.8022 13.7444 21.8022C12.6131 21.8022 9.03005 21.1307 9.08745 15.1975H14.0157C14.4165 15.1975 14.7604 14.9142 14.8378 14.5207L15.4198 11.5508C15.4909 11.1905 15.2149 10.855 14.8473 10.855H9.66207C11.16 5.04566 14.8852 4.90134 16.1224 4.90134C17.3712 4.90134 18.3134 5.2084 19.0887 5.71876C19.4258 5.9405 19.8671 5.91416 20.1521 5.62923L22.6196 3.16065C22.9862 2.79513 22.9419 2.18101 22.5174 1.88448Z" fill="currentColor" />

</g>
</svg>
