<svg viewBox="0 0 32 32" fill="none" xmlns="http://www.w3.org/2000/svg">
<g transform="translate(2.5002, 4.5003)">
<path d="M11.8709 3.62947C11.8709 0.839513 15.0189 -0.898654 17.5369 0.485918L21.3465 2.57772L25.1024 4.63924C27.6309 6.03428 27.6308 9.54239 25.1131 10.9478L21.3573 13.0094L17.5477 15.1021C15.0297 16.4969 11.8817 14.7475 11.8817 11.9576V11.4058C11.8816 11.2804 11.8473 11.1572 11.7821 11.0484C11.7169 10.9397 11.6235 10.8489 11.5106 10.7857C11.3975 10.7225 11.2684 10.6888 11.1375 10.6881C11.0067 10.6873 10.8783 10.72 10.7645 10.7818L7.29085 12.6969L3.82893 14.6021C3.71528 14.6647 3.62019 14.7551 3.55452 14.8638C3.48904 14.9725 3.45493 15.0958 3.45491 15.2213C3.45491 15.3469 3.48885 15.4709 3.55452 15.5797C3.62018 15.6884 3.71532 15.7779 3.82893 15.8404L7.29085 17.7457L10.7645 19.6617C10.8782 19.7234 11.0069 19.7552 11.1375 19.7545C11.2684 19.7537 11.3975 19.72 11.5106 19.6568C11.6235 19.5936 11.7169 19.5028 11.7821 19.3941C11.8473 19.2853 11.8816 19.1622 11.8817 19.0367V17.9224C11.881 17.7992 11.9147 17.678 11.9783 17.5709C12.042 17.4637 12.1339 17.3744 12.245 17.3121C12.356 17.2498 12.4825 17.217 12.6112 17.2164C12.7398 17.2158 12.8667 17.247 12.9783 17.3082L14.7479 18.2769C14.8639 18.3384 14.9604 18.4289 15.0272 18.5387C15.0941 18.6486 15.1292 18.7746 15.1278 18.9019V19.3697C15.1278 22.1596 11.9798 23.8986 9.46175 22.5142L5.65218 20.4215L1.89632 18.3599C-0.632115 16.9649 -0.632097 13.4572 1.89632 12.0621L5.65218 10.0006L9.45101 7.89803C11.9691 6.50305 15.116 8.25165 15.116 11.0416V11.5933C15.1161 11.7189 15.1514 11.842 15.2166 11.9508C15.2818 12.0595 15.3752 12.1503 15.4881 12.2135C15.6012 12.2767 15.7303 12.3103 15.8612 12.3111C15.9918 12.3118 16.1205 12.28 16.2342 12.2183L19.7078 10.3023L23.1698 8.39705C23.2834 8.33452 23.3785 8.24502 23.4442 8.13631C23.5098 8.02755 23.5438 7.90359 23.5438 7.77791C23.5438 7.65244 23.5096 7.52911 23.4442 7.42049C23.3785 7.31173 23.2834 7.22132 23.1698 7.15877L19.7078 5.2535L16.2342 3.33846C16.1204 3.27664 15.9919 3.24399 15.8612 3.24471C15.7303 3.24547 15.6012 3.27917 15.4881 3.34236C15.3752 3.40554 15.2818 3.49634 15.2166 3.60506C15.1514 3.71385 15.1161 3.83698 15.116 3.96248V5.07674C15.1168 5.20002 15.0839 5.32118 15.0203 5.4283C14.9567 5.53543 14.8647 5.62483 14.7537 5.68709C14.6427 5.74933 14.5162 5.78316 14.3875 5.78377C14.2589 5.78435 14.132 5.75222 14.0203 5.691L12.2508 4.72225C12.1348 4.66077 12.0383 4.57035 11.9715 4.46053C11.9047 4.35063 11.8696 4.22545 11.8709 4.09822V3.62947Z" fill="currentColor" />

</g>
</svg>
