<svg viewBox="0 0 32 32" fill="none" xmlns="http://www.w3.org/2000/svg">
<g transform="translate(1.1356, 2.1356)">
<path d="M29.7275 25.6064L27.6064 27.7275L14.6064 14.7275L16.7275 12.6064L29.7275 25.6064ZM9.73437 19.1846C9.82575 18.9382 10.1742 18.9383 10.2656 19.1846L11.1797 21.6533C11.2084 21.7308 11.2692 21.7916 11.3467 21.8203L13.8154 22.7344C14.0616 22.8258 14.0617 23.1742 13.8154 23.2656L11.3467 24.1787C11.2691 24.2074 11.2084 24.2691 11.1797 24.3467L10.2656 26.8144C10.1744 27.0611 9.82565 27.0611 9.73437 26.8144L8.82129 24.3467C8.79259 24.2691 8.73087 24.2074 8.65332 24.1787L6.18555 23.2656C5.93889 23.1743 5.93889 22.8256 6.18555 22.7344L8.65332 21.8203C8.73087 21.7916 8.79259 21.7309 8.82129 21.6533L9.73437 19.1846ZM2.65332 8.24121C2.77237 7.91949 3.22763 7.91949 3.34668 8.24121L3.93945 9.84277C3.97691 9.94363 4.05635 10.0231 4.15723 10.0605L5.75879 10.6533C6.08047 10.7724 6.0805 11.2276 5.75879 11.3467L4.15723 11.9385C4.05615 11.9759 3.97689 12.0562 3.93945 12.1572L3.34668 13.7588C3.22755 14.0803 2.77243 14.0803 2.65332 13.7588L2.06055 12.1572C2.02309 12.0562 1.94386 11.9759 1.84277 11.9385L0.241211 11.3467C-0.0804366 11.2276 -0.0803707 10.7724 0.241211 10.6533L1.84277 10.0605C1.94369 10.0231 2.02307 9.94365 2.06055 9.84277L2.65332 8.24121ZM14.7275 10.6064L12.6064 12.7275L8.60645 8.72754L10.7275 6.60644L14.7275 10.6064ZM15.8428 0.225583C15.9544 -0.0751342 16.3797 -0.0752542 16.4912 0.225583L17.2324 2.22949C17.2674 2.32398 17.3421 2.39847 17.4365 2.43359L19.4404 3.17578C19.7416 3.28721 19.7416 3.71278 19.4404 3.82422L17.4365 4.56543C17.342 4.6005 17.2674 4.67591 17.2324 4.7705L16.4912 6.77441C16.3797 7.07518 15.9544 7.07506 15.8428 6.77441L15.1006 4.7705C15.0656 4.67582 14.9912 4.60046 14.8965 4.56543L12.8926 3.82422C12.5915 3.71276 12.5915 3.28725 12.8926 3.17578L14.8965 2.43359C14.9911 2.39853 15.0656 2.32411 15.1006 2.22949L15.8428 0.225583Z" fill="currentColor" />

</g>
</svg>
