<svg viewBox="0 0 32 32" fill="none" xmlns="http://www.w3.org/2000/svg">
<g transform="translate(2.5002, 3.5003)">
<path d="M24.9736 0.0956409C25.4342 -0.0769747 25.9502 -0.0135373 26.3545 0.266539C26.7588 0.546749 27 1.00799 27 1.49994V20.4999C27 21.1252 26.6118 21.6847 26.0264 21.9042L18.0264 24.9042C17.6869 25.0315 17.3131 25.0315 16.9736 24.9042L9.5 22.1015L2.02637 24.9042C1.56578 25.0769 1.04981 25.0125 0.645508 24.7324C0.241337 24.4521 0 23.9918 0 23.4999V5.49994C2.83683e-05 4.8747 0.388199 4.31518 0.973633 4.09564L8.97363 1.09564C9.25838 0.988917 9.56924 0.971109 9.86426 1.04486L17.4111 2.93158L24.9736 0.0956409ZM3 6.539V21.3349L8 19.4599V4.664L3 6.539ZM11 19.4599L16 21.3349V5.67084L11 4.42084V19.4599ZM19 5.539V21.3349L24 19.4599V3.664L19 5.539Z" fill="currentColor" />

</g>
</svg>
