<svg viewBox="0 0 32 32" fill="none" xmlns="http://www.w3.org/2000/svg">
<g transform="translate(0.5790,4.5000)">
<path d="M29.3418 0C29.8616 3.73145e-05 30.3449 0.26884 30.6182 0.710938C30.8914 1.15314 30.9161 1.70594 30.6836 2.1709L28.1748 7.1875V21.5C28.1748 22.3284 27.5032 22.9999 26.6748 23H4.00879C3.18036 23 2.50879 22.3284 2.50879 21.5V7.1875L0 2.1709L2.68359 0.829102L4.93555 5.33301H11.0811L13.333 0.829102L13.4404 0.647461C13.7178 0.245675 14.1778 0.000107388 14.6748 0H29.3418ZM5.50879 20H10.5088V8.33301H5.50879V20ZM13.5088 20H25.1748V8.33301H13.5088V20ZM14.4355 5.33301H25.748L26.9141 3H15.6025L14.4355 5.33301Z" fill="currentColor" />

</g>
</svg>
