<svg viewBox="0 0 32 32" fill="none" xmlns="http://www.w3.org/2000/svg">
<g transform="translate(2.5002, 3.0003)">
<path d="M23.7734 0.0115858C24.17 -0.0379823 24.5702 0.0727874 24.8848 0.319203C25.1993 0.56562 25.4024 0.927282 25.4492 1.32409L25.4502 1.32506V1.32702C25.4504 1.32862 25.4508 1.33101 25.4512 1.33385C25.4519 1.34022 25.4527 1.34991 25.4541 1.36217C25.457 1.38728 25.4611 1.42501 25.4668 1.4735C25.4781 1.57067 25.4955 1.71348 25.5166 1.89635C25.5589 2.26243 25.619 2.78975 25.6914 3.43444C25.8361 4.72377 26.0295 6.48571 26.2227 8.37291C26.605 12.1088 26.9999 16.4543 27 18.5419C26.9999 21.6201 24.4336 24.0311 21.375 24.0311C18.3166 24.0309 15.7511 21.62 15.751 18.5419C15.7512 15.4639 18.3167 13.0538 21.375 13.0536C22.2177 13.0536 23.0017 13.2474 23.7012 13.5809C23.5679 12.017 23.4045 10.3109 23.2373 8.6776C23.0455 6.80324 22.854 5.05213 22.71 3.7694C22.6863 3.55833 22.6625 3.35975 22.6416 3.17565L9.86816 4.77233C9.89025 4.967 9.91514 5.17794 9.94043 5.40319C10.0852 6.69252 10.2785 8.45446 10.4717 10.3417C10.854 14.0779 11.249 18.4241 11.249 20.5116L11.2422 20.7977C11.0888 23.7376 8.58787 25.9997 5.625 25.9999C2.56655 25.9999 0.000283304 23.5897 0 20.5116C0 17.4333 2.56639 15.0223 5.625 15.0223C6.44839 15.0224 7.23574 15.1981 7.94727 15.5135C7.81452 13.9596 7.65315 12.2678 7.4873 10.6473C7.29545 8.77268 7.103 7.02101 6.95898 5.73815C6.88702 5.09711 6.82711 4.57318 6.78516 4.20983C6.76419 4.02826 6.74754 3.88587 6.73633 3.78991C6.73078 3.74242 6.7265 3.70595 6.72363 3.68151C6.72221 3.66936 6.72142 3.65935 6.7207 3.65319C6.72038 3.65043 6.71991 3.64782 6.71973 3.64635V3.6444C6.62322 2.82577 7.20549 2.0826 8.02344 1.98034L23.7734 0.0115858ZM5.625 18.0223C4.12763 18.0223 3 19.1841 3 20.5116C3.00029 21.8388 4.12783 22.9999 5.625 22.9999C7.12201 22.9997 8.24873 21.8387 8.24902 20.5116C8.24902 19.1842 7.1222 18.0225 5.625 18.0223ZM21.375 16.0536C19.878 16.0537 18.7512 17.2147 18.751 18.5419C18.7511 19.8691 19.8779 21.0309 21.375 21.0311C22.8589 21.0311 23.978 19.8904 23.998 18.578C23.925 17.3108 22.7567 16.0536 21.375 16.0536Z" fill="currentColor" />

</g>
</svg>
