<svg viewBox="0 0 32 32" fill="none" xmlns="http://www.w3.org/2000/svg">
<g transform="translate(1.4994, 1.4994)">
<path d="M10.5 0C15.5247 3.84409e-06 19.7218 3.53015 20.7539 8.24512C25.4694 9.2768 29 13.4749 29 18.5C29 24.299 24.299 29 18.5 29C13.4749 29 9.2768 25.4694 8.24512 20.7539C3.53015 19.7218 3.90463e-07 15.5247 0 10.5C2.56639e-07 4.70101 4.70102 9.51871e-08 10.5 0ZM20.957 11.4131C20.5201 16.4834 16.4833 20.5201 11.4131 20.957C12.4306 23.8922 15.2186 26 18.5 26C22.6421 26 26 22.6421 26 18.5C26 15.2186 23.8922 12.4306 20.957 11.4131ZM17.9795 11.0195C14.2523 11.2751 11.2751 14.2522 11.0195 17.9795C14.7475 17.7243 17.7243 14.7475 17.9795 11.0195ZM10.5 3C6.35787 3 3 6.35787 3 10.5C3 13.781 5.10742 16.5681 8.04199 17.5859C8.47928 12.5164 12.5164 8.47928 17.5859 8.04199C16.5681 5.10742 13.781 3 10.5 3Z" fill="currentColor" />

</g>
</svg>
