<svg viewBox="0 0 32 32" fill="none" xmlns="http://www.w3.org/2000/svg">
<g transform="translate(2.3330, 2.4994)">
<path d="M13 5.00023H3.5C3.22397 5.00023 3.00019 5.22425 3 5.50023V23.5002C3 23.7764 3.22386 24.0002 3.5 24.0002H21.5C21.7761 24.0002 22 23.7764 22 23.5002V14.5012H25V23.5002C25 25.4332 23.433 27.0002 21.5 27.0002H3.5C1.567 27.0002 3.22128e-08 25.4332 0 23.5002V5.50023C0.000190686 3.5674 1.56712 2.00023 3.5 2.00023H13V5.00023ZM21.3984 0.334215C21.9866 -0.143363 22.8528 -0.109052 23.4014 0.436754L26.8916 3.91039C27.1736 4.19109 27.3321 4.57302 27.333 4.97093C27.3337 5.36879 27.1763 5.75063 26.8955 6.03246L19.0166 13.9387C18.6173 14.3393 18.1265 14.6372 17.5869 14.8069L12.9502 16.2649C12.4184 16.4321 11.8376 16.2899 11.4424 15.8967C11.0473 15.5035 10.9019 14.9234 11.0664 14.3909L12.498 9.75902C12.667 9.21244 12.9676 8.71535 13.373 8.31175L21.2852 0.436754L21.3984 0.334215ZM15.4893 10.4377C15.4314 10.4953 15.3884 10.5667 15.3643 10.6448L14.7764 12.5442L16.6875 11.9446C16.7644 11.9203 16.8347 11.8776 16.8916 11.8205L23.7109 4.97777L22.3428 3.61644L15.4893 10.4377Z" fill="currentColor" />

</g>
</svg>
