<svg viewBox="0 0 32 32" fill="none" xmlns="http://www.w3.org/2000/svg">
<g transform="translate(0.5000,4.7193)">
<path d="M21.8945 11.8945L17.6211 16.1669L21.8945 20.4404L19.7734 22.5615L15.5 18.288L11.2275 22.5615L9.10645 20.4404L13.3789 16.1669L9.10645 11.8945L11.2275 9.77339L15.5 14.0459L19.7734 9.77339L21.8945 11.8945ZM5.60059 5.39546L6.63574 6.48043C4.37863 8.63234 3.00016 11.5853 3 14.833H0C0.000161545 10.7094 1.7558 6.9882 4.56543 4.30953L5.60059 5.39546ZM26.4346 4.30953C29.2442 6.9882 30.9998 10.7094 31 14.833H28C27.9998 11.5853 26.6214 8.63234 24.3643 6.48043L25.3994 5.39546L26.4346 4.30953ZM7.77539 1.95796C12.5091 -0.652655 18.4909 -0.652655 23.2246 1.95796L21.7754 4.58492C17.9436 2.4718 13.0564 2.4718 9.22461 4.58492L7.77539 1.95796Z" fill="currentColor" />

</g>
</svg>
