<svg viewBox="0 0 32 32" fill="none" xmlns="http://www.w3.org/2000/svg">
<g transform="translate(3.7498, 3.9996)">
<path d="M17.5457 0.334088C18.1337 -0.14343 18.999 -0.108882 19.5476 0.436627L23.5574 4.42393C23.8397 4.70469 23.9989 5.08632 23.9998 5.48448C24.0006 5.88256 23.8434 6.26507 23.5623 6.54698L9.6658 20.4845C9.53184 20.6188 9.37311 20.7265 9.199 20.8019L8.74099 21.0001H24.4998V24.0001H1.49978C0.996232 24.0001 0.526526 23.7473 0.248804 23.3273C-0.0289006 22.9071 -0.0774625 22.3756 0.119898 21.9122L3.1492 14.8009L3.2117 14.671C3.28088 14.544 3.36857 14.4277 3.47146 14.3253L17.4324 0.436627L17.5457 0.334088ZM5.79373 16.2452L4.35232 19.63L7.74295 18.1632L20.3767 5.49131L18.49 3.61534L5.79373 16.2452Z" fill="currentColor" />

</g>
</svg>
