<svg viewBox="0 0 32 32" fill="none" xmlns="http://www.w3.org/2000/svg">
<g transform="translate(4.4996, 1.4994)">
<path d="M16.5604 27.0605C15.2154 28.4054 13.2975 29 11.4999 29C9.70215 29 7.78427 28.4054 6.4393 27.0605L8.5604 24.9395C9.21544 25.5944 10.2976 26 11.4999 26C12.7021 26 13.7843 25.5944 14.4393 24.9395L16.5604 27.0605ZM11.4999 0C15.7035 0 19.3227 2.96697 20.1473 7.08887L22.9706 21.2061C23.0586 21.6467 22.9449 22.1037 22.66 22.4512C22.3751 22.7987 21.9492 23 21.4999 23H1.49985C1.05048 23 0.624599 22.7987 0.339694 22.4512C0.0548307 22.1037 -0.0589141 21.6467 0.0291471 21.2061L2.85239 7.08887C3.67699 2.96697 7.29624 6.11429e-06 11.4999 0ZM11.4999 3C8.72613 3.00001 6.33777 4.95788 5.7938 7.67773L3.32895 20H19.6707L17.2059 7.67773C16.6619 4.95788 14.2736 3 11.4999 3Z" fill="currentColor" />

</g>
</svg>
