<svg viewBox="0 0 32 32" fill="none" xmlns="http://www.w3.org/2000/svg">
<g transform="translate(5.2308, 2.0005)">
<path d="M15.8302 26.0605C14.4853 27.4055 12.5673 27.9999 10.7696 28C8.97195 28 7.05403 27.4054 5.70907 26.0605L7.83017 23.9395C8.48522 24.5944 9.56742 25 10.7696 25C11.9718 24.9999 13.0541 24.5945 13.7091 23.9395L15.8302 26.0605ZM10.7696 0C14.5568 5.93474e-05 17.8248 2.65543 18.6007 6.3623L21.5177 20.2949C21.6477 20.9162 21.1729 21.5 20.5382 21.5H1.00009C0.36558 21.4998 -0.108427 20.916 0.0215734 20.2949L2.93759 6.3623C3.71346 2.65539 6.98238 0 10.7696 0Z" fill="currentColor" />

</g>
</svg>
