<svg viewBox="0 0 32 32" fill="none" xmlns="http://www.w3.org/2000/svg">
<g transform="translate(5.4999, 5.4999)">
<path d="M2.5 16C3.88071 16 5 17.1193 5 18.5C5 19.8807 3.88071 21 2.5 21C1.11929 21 3.22133e-08 19.8807 0 18.5C0 17.1193 1.11929 16 2.5 16ZM10.5 16C11.8807 16 13 17.1193 13 18.5C13 19.8807 11.8807 21 10.5 21C9.11929 21 8 19.8807 8 18.5C8 17.1193 9.11929 16 10.5 16ZM18.5 16C19.8807 16 21 17.1193 21 18.5C21 19.8807 19.8807 21 18.5 21C17.1193 21 16 19.8807 16 18.5C16 17.1193 17.1193 16 18.5 16ZM2.5 8C3.88071 8 5 9.11929 5 10.5C5 11.8807 3.88071 13 2.5 13C1.11929 13 3.22133e-08 11.8807 0 10.5C0 9.11929 1.11929 8 2.5 8ZM10.5 8C11.8807 8 13 9.11929 13 10.5C13 11.8807 11.8807 13 10.5 13C9.11929 13 8 11.8807 8 10.5C8 9.11929 9.11929 8 10.5 8ZM18.5 8C19.8807 8 21 9.11929 21 10.5C21 11.8807 19.8807 13 18.5 13C17.1193 13 16 11.8807 16 10.5C16 9.11929 17.1193 8 18.5 8ZM2.5 0C3.88071 3.22128e-08 5 1.11929 5 2.5C5 3.88071 3.88071 5 2.5 5C1.11929 5 3.22133e-08 3.88071 0 2.5C0 1.11929 1.11929 0 2.5 0ZM10.5 0C11.8807 3.22128e-08 13 1.11929 13 2.5C13 3.88071 11.8807 5 10.5 5C9.11929 5 8 3.88071 8 2.5C8 1.11929 9.11929 0 10.5 0ZM18.5 0C19.8807 3.22128e-08 21 1.11929 21 2.5C21 3.88071 19.8807 5 18.5 5C17.1193 5 16 3.88071 16 2.5C16 1.11929 17.1193 0 18.5 0Z" fill="currentColor" />

</g>
</svg>
