<svg viewBox="0 0 32 32" fill="none" xmlns="http://www.w3.org/2000/svg">
<g transform="translate(2.4999, 1.7499)">
<path d="M3 17.5C3.00006 18.3284 3.67163 19 4.5 19H22.5C23.3284 19 23.9999 18.3284 24 17.5V14.5H27V17.5C26.9999 19.9852 24.9852 22 22.5 22H15V24H16.5C18.433 24 20 25.567 20 27.5V28.5H17V27.5C17 27.2239 16.7761 27 16.5 27H10.5C10.2239 27 10 27.2239 10 27.5V28.5H7V27.5C7 25.567 8.56702 24 10.5 24H12V22H4.5C2.01477 22 5.61778e-05 19.9852 0 17.5V14.5H3V17.5ZM16.7178 0C18.4954 0.00013672 19.9905 1.33275 20.1943 3.09863L21.4902 14.3281C21.5392 14.753 21.4046 15.1788 21.1201 15.498C20.8355 15.8173 20.4277 16 20 16H7L6.84082 15.9912C6.47239 15.9519 6.12892 15.7775 5.87988 15.498C5.5954 15.1788 5.4608 14.7529 5.50977 14.3281L6.80566 3.09863C7.00951 1.33277 8.50465 0.000157126 10.2822 0H16.7178ZM10.2822 3C10.0285 3.00016 9.81538 3.19036 9.78613 3.44238L8.68262 13H18.3164L17.2139 3.44238C17.1846 3.19035 16.9715 3.00014 16.7178 3H10.2822Z" fill="currentColor" />

</g>
</svg>
