<svg viewBox="0 0 32 32" fill="none" xmlns="http://www.w3.org/2000/svg">
<g transform="translate(1.4994, 1.4994)">
<path d="M3 14.5C3 20.8513 8.14873 26 14.5 26V29C6.49187 29 0 22.5081 0 14.5H3ZM27.0566 17.8643L28.5059 18.2529C27.1428 23.3398 23.2371 27.0646 18.5293 28.4307L17.6934 25.5498C21.435 24.4641 24.5282 21.508 25.6084 17.4766L27.0566 17.8643ZM20.5 9.5L21.6211 10.4971L13.6211 19.4961C13.3274 19.8265 12.9028 20.0105 12.4609 19.999C12.0193 19.9875 11.6052 19.7824 11.3291 19.4375L7.3291 14.4375L9.6709 12.5625L12.5605 16.1738L19.3789 8.50391L20.5 9.5ZM14.5 0C22.5081 0 29 6.49187 29 14.5H26C26 8.14872 20.8513 3 14.5 3V0ZM11.3066 3.4502C7.56501 4.53587 4.47184 7.49204 3.3916 11.5234L1.94336 11.1357L0.494141 10.7471C1.8572 5.66015 5.76294 1.93535 10.4707 0.569336L11.3066 3.4502Z" fill="currentColor" />

</g>
</svg>
