<svg viewBox="0 0 32 32" fill="none" xmlns="http://www.w3.org/2000/svg">
<g transform="translate(0.5790,2.2501)">
<path d="M23.8418 13.5C25.3003 13.5 26.6991 14.0898 27.7305 15.1396C28.7619 16.1897 29.3418 17.7152 29.3418 19.2002C29.3414 21.9933 25.6043 25.99 24.291 27.3086C24.0372 27.5633 23.6453 27.5634 23.3916 27.3086C22.0781 25.9898 18.3422 21.9931 18.3418 19.2002C18.3418 17.7152 18.9207 16.1897 19.9521 15.1396C20.9836 14.0896 22.3831 13.5 23.8418 13.5ZM29.3418 0C29.8615 5.26002e-05 30.3449 0.268852 30.6182 0.710938C30.8914 1.15313 30.916 1.70595 30.6836 2.1709L27.8418 7.85449V10.5H24.8418V9H12.8418V20H15.3418V23H4.3418C3.51337 23 2.8418 22.3284 2.8418 21.5V7.85449L0 2.1709L2.68359 0.829102L5.26953 6H10.4141L13 0.829102L13.1074 0.647461C13.3848 0.24569 13.8447 0 14.3418 0H29.3418ZM23.8418 17C22.7028 17 21.7795 17.94 21.7793 19.0996C21.7793 20.2594 22.7027 21.2002 23.8418 21.2002C24.9808 21.2001 25.9043 20.2594 25.9043 19.0996C25.9041 17.94 24.9807 17.0001 23.8418 17ZM5.8418 20H9.8418V9H5.8418V20ZM13.7695 6H25.4141L26.9141 3H15.2695L13.7695 6Z" fill="currentColor" />

</g>
</svg>
