<svg viewBox="0 0 32 32" fill="none" xmlns="http://www.w3.org/2000/svg">
<g transform="translate(0.5790,1.4697)">
<path d="M24.8418 11.5C28.1554 11.5001 30.8418 14.1863 30.8418 17.5C30.8417 20.8136 28.1554 23.4999 24.8418 23.5H16.9629L20.4023 26.9395L18.2812 29.0605L12.2812 23.0605C12 22.7793 11.8418 22.3978 11.8418 22C11.8418 21.6022 11.9999 21.2208 12.2812 20.9395L18.2812 14.9395L20.4023 17.0605L16.9629 20.5H24.8418C26.4986 20.4999 27.8417 19.1568 27.8418 17.5C27.8418 15.8432 26.4986 14.5001 24.8418 14.5H22.3418V11.5H24.8418ZM29.3418 0C29.8616 4.2081e-05 30.3449 0.268844 30.6182 0.710938C30.8914 1.15314 30.916 1.70595 30.6836 2.1709L27.6836 8.1709C27.4295 8.67904 26.9099 8.99995 26.3418 9H12.8418V15.5H9.8418V9H5.8418V20H9.3418V23H4.3418C3.51337 23 2.8418 22.3284 2.8418 21.5V7.85449L0 2.1709L2.68359 0.829102L5.26953 6H10.4141L13 0.829102L13.1074 0.647461C13.3848 0.245681 13.8447 0 14.3418 0H29.3418ZM13.7695 6H25.4141L26.9141 3H15.2695L13.7695 6Z" fill="currentColor" />

</g>
</svg>
