<svg viewBox="0 0 32 32" fill="none" xmlns="http://www.w3.org/2000/svg">
<g transform="translate(0.3115,5.0000)">
<path d="M31.377 22H28.377V0H31.377V22ZM7.87695 8.91016L11.2637 6.95508L12.0137 8.25391L12.7637 9.55371L9.38184 11.5049L12.7588 13.4551L12.0088 14.7539L11.2588 16.0537L7.87695 14.1006V18H4.87695V14.1064L1.50488 16.0537L0.754883 14.7539L0.00488281 13.4551L3.38086 11.5049L0 9.55371L0.75 8.25391L1.5 6.95508L4.87695 8.9043V5H7.87695V8.91016ZM21.877 8.91016L25.2637 6.95508L26.0137 8.25391L26.7637 9.55371L23.3818 11.5049L26.7588 13.4551L26.0088 14.7539L25.2588 16.0537L21.877 14.1006V18H18.877V14.1064L15.5049 16.0537L14.7549 14.7539L14.0049 13.4551L17.3809 11.5049L14 9.55371L14.75 8.25391L15.5 6.95508L18.877 8.9043V5H21.877V8.91016Z" fill="currentColor" />

</g>
</svg>
