<svg viewBox="0 0 32 32" fill="none" xmlns="http://www.w3.org/2000/svg">
<g transform="translate(2.7198, 2.7199)">
<path d="M13.7578 2.19643C16.6868 -0.731993 21.4355 -0.732295 24.3643 2.19643C27.2931 5.12535 27.2931 9.87494 24.3643 12.8039C21.7985 15.3695 17.8359 15.6873 14.9238 13.758L11.1816 17.5001L14.7881 21.1066L12.667 23.2277L9.06055 19.6212L7.18164 21.5001L9.45508 23.7726L8.39355 24.8332L7.33301 25.8937L5.06055 23.6212L2.12109 26.5607L0 24.4396L12.8018 11.6369C10.8727 8.72484 11.1922 4.76202 13.7578 2.19643ZM22.2422 4.3185C20.4848 2.5612 17.6363 2.5612 15.8789 4.3185C14.1216 6.07585 14.1216 8.92443 15.8789 10.6818C17.6363 12.4391 20.4848 12.4391 22.2422 10.6818C23.9995 8.92445 23.9995 6.07585 22.2422 4.3185Z" fill="currentColor" />

</g>
</svg>
