<svg viewBox="0 0 32 32" fill="none" xmlns="http://www.w3.org/2000/svg">
<g transform="translate(3.9997, 3.9997)">
<path d="M5 14C7.76142 14 10 16.2386 10 19C10 21.7614 7.76142 24 5 24C2.23858 24 0 21.7614 0 19C0 16.2386 2.23858 14 5 14ZM19 14C21.7614 14 24 16.2386 24 19C24 21.7614 21.7614 24 19 24C16.2386 24 14 21.7614 14 19C14 16.2386 16.2386 14 19 14ZM5 17C3.89543 17 3 17.8954 3 19C3 20.1046 3.89543 21 5 21C6.10457 21 7 20.1046 7 19C7 17.8954 6.10457 17 5 17ZM19 17C17.8954 17 17 17.8954 17 19C17 20.1046 17.8954 21 19 21C20.1046 21 21 20.1046 21 19C21 17.8954 20.1046 17 19 17ZM5 0C7.76142 0 10 2.23858 10 5C10 7.76142 7.76142 10 5 10C2.23858 10 0 7.76142 0 5C0 2.23858 2.23858 0 5 0ZM19 0C21.7614 0 24 2.23858 24 5C24 7.76142 21.7614 10 19 10C16.2386 10 14 7.76142 14 5C14 2.23858 16.2386 0 19 0ZM19 3C17.8954 3 17 3.89543 17 5C17 6.10457 17.8954 7 19 7C20.1046 7 21 6.10457 21 5C21 3.89543 20.1046 3 19 3Z" fill="currentColor" />

</g>
</svg>
