<svg viewBox="0 0 32 32" fill="none" xmlns="http://www.w3.org/2000/svg">
<g transform="translate(0.5000,3.1115)">
<path d="M23.375 1.92188C25.4213 1.75141 28.1722 1.78837 30.2715 3.04785C30.7232 3.31896 31 3.80717 31 4.33398V23.001C30.9997 23.5191 30.732 24.0008 30.292 24.2744C29.8517 24.548 29.3008 24.5751 28.8359 24.3457C25.0979 22.5006 20.8494 23.4074 15.8857 24.5146C11.1694 25.5667 5.76433 26.8093 0.829102 24.3418C0.321165 24.0877 0.000179739 23.5679 0 23V4C8.81223e-05 3.48051 0.269203 2.99795 0.710938 2.72461C1.15313 2.45132 1.70594 2.42577 2.1709 2.6582C3.37344 3.25942 5.19711 3.73123 7.05566 4.04883C8.89404 4.36296 10.6052 4.5 11.5 4.5V7.5C10.3949 7.5 8.51007 7.34064 6.55078 7.00586C5.39435 6.80825 4.15391 6.53808 3 6.18359V22.0264C6.60989 23.4402 10.6415 22.611 15.2324 21.5869C19.2429 20.6923 23.7451 19.6297 28 20.8291V5.2793C26.8039 4.84347 25.2274 4.77866 23.625 4.91211C22.6905 4.98996 21.8241 5.1266 21.1357 5.24805C20.737 5.31841 20.55 5.35533 20.2471 5.40918C20.0687 5.44088 19.7473 5.5 19.5 5.5V2.5C19.4194 2.5 19.4316 2.50762 19.7217 2.45605C19.8873 2.42661 20.3049 2.34854 20.6143 2.29395C21.3424 2.16547 22.3097 2.01064 23.375 1.92188ZM17 0V13.3789L20.4395 9.93945L22.5605 12.0605L16.5605 18.0605C16.0115 18.6096 15.1429 18.6442 14.5537 18.1641L14.4395 18.0605L8.43945 12.0605L10.5605 9.93945L14 13.3789V0H17Z" fill="currentColor" />

</g>
</svg>
