<svg viewBox="0 0 32 32" fill="none" xmlns="http://www.w3.org/2000/svg">
<g transform="translate(2.0005, 2.0005)">
<path d="M14 0C21.7319 4.94783e-05 28 6.26807 28 14C28 21.732 21.7319 28 14 28C6.26801 28 0 21.732 0 14C3.2986e-05 6.26804 6.26803 0 14 0ZM7 12C5.89547 12 5 12.8955 5 14C5.00003 15.1045 5.89549 16 7 16C8.10455 16 8.99997 15.1045 9 14C9 12.8954 8.10457 12 7 12ZM14 12C12.8954 12 12 12.8954 12 14C12.0001 15.1045 12.8955 16 14 16C15.1045 16 15.9999 15.1045 16 14C16 12.8954 15.1046 12 14 12ZM21 12C19.8955 12 19 12.8955 19 14C19 15.1045 19.8955 16 21 16C22.1045 16 23 15.1045 23 14C23 12.8954 22.1046 12 21 12Z" fill="currentColor" />

</g>
</svg>
