<svg viewBox="0 0 32 32" fill="none" xmlns="http://www.w3.org/2000/svg">
<g transform="translate(3.3334, 1.3332)">
<path d="M17.5123 15.0059C17.6796 14.5536 18.3196 14.5536 18.4869 15.0059L20.1617 19.5313C20.2143 19.6734 20.3262 19.7853 20.4683 19.8379L24.9937 21.5127C25.4459 21.68 25.4459 22.32 24.9937 22.4873L20.4683 24.1621C20.3262 24.2147 20.2143 24.3266 20.1617 24.4688L18.4869 28.9941C18.3196 29.4464 17.6796 29.4464 17.5123 28.9941L15.8375 24.4688C15.7849 24.3266 15.673 24.2147 15.5308 24.1621L11.0055 22.4873C10.5532 22.32 10.5532 21.68 11.0055 21.5127L15.5308 19.8379C15.673 19.7853 15.7849 19.6734 15.8375 19.5313L17.5123 15.0059ZM4.97811 6.24707C5.0998 5.91819 5.56539 5.91819 5.68709 6.24707L6.90486 9.53809C6.94313 9.64146 7.02512 9.72249 7.1285 9.76074L10.4195 10.9795C10.7483 11.1013 10.7483 11.5658 10.4195 11.6875L7.1285 12.9053C7.0251 12.9435 6.94313 13.0255 6.90486 13.1289L5.68709 16.4199C5.56539 16.7488 5.0998 16.7488 4.97811 16.4199L3.76033 13.1289C3.72208 13.0255 3.64104 12.9435 3.53768 12.9053L0.246661 11.6875C-0.0822203 11.5658 -0.0822203 11.1012 0.246661 10.9795L3.53768 9.76074C3.64087 9.72246 3.72207 9.64128 3.76033 9.53809L4.97811 6.24707ZM18.2955 0.257813C18.423 -0.0859588 18.9092 -0.0859163 19.0367 0.257813L19.8844 2.54785C19.9244 2.65605 20.0096 2.74218 20.1178 2.78223L22.4078 3.62891C22.752 3.75626 22.752 4.24374 22.4078 4.37109L20.1178 5.21777C20.0096 5.25782 19.9244 5.34395 19.8844 5.45215L19.0367 7.74219C18.9092 8.08589 18.423 8.08594 18.2955 7.74219L17.4478 5.45215C17.4078 5.34394 17.3226 5.25781 17.2144 5.21777L14.9244 4.37109C14.5802 4.24374 14.5802 3.75626 14.9244 3.62891L17.2144 2.78223C17.3226 2.74219 17.4078 2.65606 17.4478 2.54785L18.2955 0.257813Z" fill="currentColor" />

</g>
</svg>
