<svg viewBox="0 0 32 32" fill="none" xmlns="http://www.w3.org/2000/svg">
<g transform="translate(1.4994, 2.9995)">
<path d="M24.5 6C26.9853 6 29 8.01472 29 10.5V21.5C29 23.9853 26.9853 26 24.5 26H4.5C2.01472 26 0 23.9853 0 21.5V10.5C0 8.01472 2.01472 6 4.5 6H24.5ZM4.5 9C3.67157 9 3 9.67157 3 10.5V21.5C3 22.3284 3.67157 23 4.5 23H24.5C25.3284 23 26 22.3284 26 21.5V10.5C26 9.67157 25.3284 9 24.5 9H4.5ZM14.5 11.5C16.9853 11.5 19 13.5147 19 16C19 18.4853 16.9853 20.5 14.5 20.5C12.0147 20.5 10 18.4853 10 16C10 13.5147 12.0147 11.5 14.5 11.5ZM14.5 14.5C13.6716 14.5 13 15.1716 13 16C13 16.8284 13.6716 17.5 14.5 17.5C15.3284 17.5 16 16.8284 16 16C16 15.1716 15.3284 14.5 14.5 14.5ZM14.5 0C16.1267 0 17.3777 0.459959 18.2354 0.942383C18.6614 1.18202 18.9889 1.426 19.2178 1.61914C19.3323 1.71579 19.4232 1.80026 19.4902 1.86621C19.5238 1.89921 19.5514 1.92813 19.5732 1.95117C19.5841 1.96261 19.5936 1.97274 19.6016 1.98145C19.6055 1.98571 19.6091 1.98959 19.6123 1.99316C19.614 1.99499 19.6157 1.99738 19.6172 1.99902L19.6201 2.00195L17.3799 3.99805L17.3857 4.00391L17.3955 4.01562C17.3948 4.01486 17.3911 4.01116 17.3848 4.00488C17.3685 3.98883 17.3342 3.95595 17.2822 3.91211C17.1778 3.82402 17.005 3.69284 16.7646 3.55762C16.289 3.29007 15.5398 3 14.5 3C13.4602 3 12.711 3.29007 12.2354 3.55762C11.995 3.69284 11.8222 3.82402 11.7178 3.91211C11.6658 3.95595 11.6315 3.98883 11.6152 4.00488C11.6089 4.01116 11.6052 4.01486 11.6045 4.01562L11.6143 4.00391L11.6201 3.99805L9.37988 2.00195L9.38281 1.99902C9.38428 1.99738 9.38605 1.99499 9.3877 1.99316C9.39092 1.98959 9.39453 1.98571 9.39844 1.98145C9.40642 1.97274 9.41591 1.96261 9.42676 1.95117C9.44861 1.92813 9.47624 1.89921 9.50977 1.86621C9.57676 1.80026 9.66769 1.71579 9.78223 1.61914C10.0111 1.426 10.3386 1.18202 10.7646 0.942383C11.6223 0.459959 12.8733 2.24794e-08 14.5 0Z" fill="currentColor" />

</g>
</svg>
