<svg viewBox="0 0 32 32" fill="none" xmlns="http://www.w3.org/2000/svg">
<g transform="translate(0.9398, 3.5003)">
<path d="M21.0605 0C21.5988 0 22.0962 0.288605 22.3633 0.755859L25.3887 6.0498L28 3.43945L30.1211 5.56055L26.4414 9.23926L23.5312 23.7939C23.391 24.495 22.7755 25 22.0605 25H8.06055C7.34571 24.9998 6.73004 24.4949 6.58984 23.7939L3.67871 9.23926L0 5.56055L2.12109 3.43945L4.73145 6.0498L7.75781 0.755859C8.02481 0.288621 8.52243 0.000152612 9.06055 0H21.0605ZM9.29004 22H20.8311L23.2314 10H6.88965L9.29004 22ZM7.64551 7H22.4756L20.1895 3H9.93164L7.64551 7Z" fill="currentColor" />

</g>
</svg>
