<svg viewBox="0 0 32 32" fill="none" xmlns="http://www.w3.org/2000/svg">
<g transform="translate(0.3428,3.2853)">
<path d="M21.9111 0.929688L23.0879 1.85938C20.3959 5.26656 17.0862 6.72448 13.1289 6.72461C11.2326 6.72461 9.73371 7.44186 8.69727 8.58496C7.64869 9.74154 7 11.4185 7 13.4297C7.00004 15.7739 7.56209 17.4088 8.48438 18.7627C8.97608 19.4844 9.58682 20.15 10.3164 20.8125C10.368 20.0309 11.0168 19.4131 11.8115 19.4131H21.5967C22.4226 19.4131 23.0917 20.0803 23.0957 20.9053C24.8889 19.4374 26.1566 17.9831 26.8389 15.6621L26.8779 15.5449C27.0994 14.9708 27.6536 14.586 28.2773 14.5859H28.3145V12.7588H28.2773C27.6121 12.7587 27.0267 12.3198 26.8389 11.6816C26.5769 10.7905 25.9545 9.71853 25.0547 8.88379C24.1664 8.05985 23.0929 7.54115 21.9111 7.54102V4.54102C24.0223 4.54115 25.7928 5.47692 27.0947 6.68457C28.0628 7.58259 28.8191 8.67235 29.3125 9.75879H29.8145C30.6428 9.75884 31.3145 10.4304 31.3145 11.2588V16.0859C31.3141 16.914 30.6426 17.5859 29.8145 17.5859H29.3477C27.9261 21.2151 25.2184 23.133 22.4844 25.1387C22.0286 25.473 21.4232 25.523 20.9189 25.2676C20.4149 25.0121 20.0968 24.4948 20.0967 23.9297V22.4131H13.3115V23.9297C13.3114 24.4948 12.9933 25.0121 12.4893 25.2676C11.9851 25.523 11.3796 25.4729 10.9238 25.1387C9.02167 23.7432 7.26502 22.3018 6.00488 20.4521C4.92167 18.8621 4.24813 17.0341 4.05762 14.7832C3.28201 14.6216 2.51514 14.3165 1.84961 13.8174C0.709538 12.9623 6.76782e-05 11.6358 0 9.92969H3C3.00006 10.7233 3.29064 11.1472 3.65039 11.417C3.78673 11.5192 3.9486 11.6078 4.13086 11.6826C4.42639 9.72 5.22331 7.9506 6.47461 6.57031C8.10045 4.77716 10.4174 3.72461 13.1289 3.72461C16.1967 3.72449 18.6278 2.66482 20.7334 0L21.9111 0.929688ZM19.5 11.7627H12.833V8.7627H19.5V11.7627Z" fill="currentColor" />

</g>
</svg>
