<svg viewBox="0 0 32 32" fill="none" xmlns="http://www.w3.org/2000/svg">
<g transform="translate(2.7296, 2.1003)">
<path d="M19.3242 22.2663L20.8124 22.4499C20.5352 24.7057 19.0245 26.735 16.7226 27.4978C14.4281 28.2578 12.0192 27.5366 10.4609 25.8952L11.5488 24.862L12.6367 23.8298C13.446 24.6822 14.6573 25.0217 15.7792 24.6501C16.9073 24.2763 17.6895 23.2674 17.8349 22.0837L19.3242 22.2663ZM2.01557 15.9206L3.35053 16.6032C2.81987 17.6411 2.87867 18.9589 3.61518 19.9851C4.64031 21.4127 6.54576 21.6966 7.87299 20.7058C9.01033 19.8564 9.41735 18.304 8.87983 16.9616L11.665 15.8464C12.6798 18.3807 11.9535 21.4023 9.66792 23.1091C6.95235 25.1368 3.1503 24.4826 1.17768 21.7351C-0.232316 19.7709 -0.348053 17.2481 0.679636 15.238L2.01557 15.9206ZM20.413 7.94992C23.7974 7.9501 26.5418 10.6935 26.5419 14.0779C26.5418 17.4622 23.7973 20.2066 20.413 20.2068C17.0287 20.2066 14.2853 17.4622 14.2851 14.0779C14.2853 10.6935 17.0287 7.95004 20.413 7.94992ZM20.413 10.9499C18.6855 10.95 17.2853 12.3503 17.2851 14.0779C17.2853 15.8054 18.6855 17.2066 20.413 17.2068C22.1405 17.2066 23.5418 15.8053 23.5419 14.0779C23.5418 12.3504 22.1405 10.9501 20.413 10.9499ZM1.57221 4.95578C2.96372 2.97188 5.31183 2.09275 7.53706 2.50071L7.26655 3.97629L6.99604 5.4509C5.8903 5.24824 4.72704 5.68218 4.02827 6.67844C3.03898 8.0891 3.36173 10.0922 4.76264 11.1306C5.93036 11.9957 7.46052 11.9032 8.48628 11.0222L9.46382 12.1599L10.4414 13.2986C8.36332 15.0834 5.28054 15.2488 2.97651 13.5417C0.277348 11.5415 -0.357157 7.70687 1.57221 4.95578ZM9.75776 4.27317C10.7551 1.03705 14.1635 -0.763048 17.3798 0.311253C19.6684 1.07605 21.2034 3.0806 21.5302 5.31809L18.5615 5.75168C18.388 4.56427 17.5779 3.54001 16.4287 3.15598C14.8436 2.62678 13.1367 3.49638 12.6249 5.15696C12.1875 6.5769 12.7792 8.09194 13.957 8.84836L12.3359 11.3718C10.0428 9.89889 8.91788 6.99937 9.75776 4.27317Z" fill="currentColor" />

</g>
</svg>
