<svg viewBox="0 0 32 32" fill="none" xmlns="http://www.w3.org/2000/svg">
<g transform="translate(2.5002, 4.0002)">
<path d="M22.5 0C24.9853 0 27 2.01472 27 4.5V14.5C27 16.9853 24.9853 19 22.5 19H22V22.5C22 23.3284 21.3284 24 20.5 24H6.5C5.67157 24 5 23.3284 5 22.5V19H4.5C2.01472 19 0 16.9853 0 14.5V4.5C0 2.01472 2.01472 0 4.5 0H22.5ZM8 14V21H19V14H8ZM4.5 3C3.67157 3 3 3.67157 3 4.5V14.5C3 15.3284 3.67157 16 4.5 16H5V12.5C5 11.6716 5.67157 11 6.5 11H20.5C21.3284 11 22 11.6716 22 12.5V16H22.5C23.3284 16 24 15.3284 24 14.5V4.5C24 3.67157 23.3284 3 22.5 3H4.5ZM10.5 9H5.5V6H10.5V9Z" fill="currentColor" />

</g>
</svg>
