<svg viewBox="0 0 32 32" fill="none" xmlns="http://www.w3.org/2000/svg">
<g transform="translate(2.5002, 2.5002)">
<path d="M13.5 12C13.8978 12 14.2792 12.1582 14.5605 12.4395C14.8418 12.7207 15 13.1022 15 13.5V25.5C15 25.8978 14.8418 26.2792 14.5605 26.5605C14.2792 26.8419 13.8978 27 13.5 27H1.5C0.671583 27 1.30148e-05 26.3284 0 25.5V13.5C1.58546e-05 13.1022 0.158163 12.7207 0.439453 12.4395C0.720754 12.1582 1.10219 12 1.5 12H13.5ZM27 25.5C27 26.3284 26.3284 27 25.5 27H18.5V24H24V18.5H27V25.5ZM3 24H12V15H3V24ZM19.5 13.5C20.6045 13.5 21.5 14.3955 21.5 15.5C21.5 16.6046 20.6046 17.5 19.5 17.5C18.3954 17.5 17.5 16.6046 17.5 15.5C17.5 14.3955 18.3955 13.5 19.5 13.5ZM25.5 0C25.8978 -3.16256e-09 26.2792 0.158169 26.5605 0.439453C26.8418 0.720743 27 1.1022 27 1.5V9.5C27 9.89781 26.8418 10.2792 26.5605 10.5605C26.2792 10.8419 25.8978 11 25.5 11H17.5C16.6716 11 16 10.3284 16 9.5V1.5C16 1.1022 16.1582 0.720743 16.4395 0.439453C16.7208 0.158168 17.1022 9.30772e-07 17.5 0H25.5ZM11.5 5.5C12.6045 5.5 13.5 6.39546 13.5 7.5C13.5 8.60457 12.6046 9.5 11.5 9.5C10.3954 9.5 9.5 8.60457 9.5 7.5C9.50003 6.39546 10.3955 5.5 11.5 5.5ZM8.5 3H3V8.5H0V1.5C5.89298e-07 0.671573 0.671573 1.86231e-07 1.5 0H8.5V3ZM19 8H24V3H19V8Z" fill="currentColor" />

</g>
</svg>
