<svg viewBox="0 0 32 32" fill="none" xmlns="http://www.w3.org/2000/svg">
<g transform="translate(4.5000, 4.5002)">
<path d="M11.5 0C12.0682 3.88292e-07 12.5878 0.320933 12.8418 0.829102L22.8418 20.8291C23.1362 21.4177 23.0119 22.1292 22.5362 22.584C22.0605 23.0387 21.3443 23.1301 20.7696 22.8096L11.5 17.6406L2.23051 22.8096C1.65576 23.1301 0.939634 23.0387 0.463913 22.584C-0.0117982 22.1292 -0.136058 21.4177 0.158249 20.8291L10.1582 0.829102L10.2657 0.647461C10.5431 0.245656 11.003 9.59443e-06 11.5 0ZM5.01567 17.8213L10.7696 14.6133L10.9444 14.5303C11.3606 14.3642 11.8332 14.3917 12.2305 14.6133L17.9834 17.8213L11.5 4.85449L5.01567 17.8213Z" fill="currentColor" />

</g>
</svg>
