<svg viewBox="0 0 32 32" fill="none" xmlns="http://www.w3.org/2000/svg">
<g transform="translate(1.5003, 0.9398)">
<path d="M29 13.0605V15.0605C29 20.3072 24.7467 24.5605 19.5 24.5605H9.12109L12.5605 28L10.4395 30.1211L4.43945 24.1211C4.15818 23.8398 4 23.4583 4 23.0605C4.00002 22.6628 4.15817 22.2813 4.43945 22L10.4395 16L12.5605 18.1211L9.12109 21.5605H19.5C23.0898 21.5605 26 18.6504 26 15.0605V13.0605H29ZM24.5605 6C24.8418 6.28127 25 6.66277 25 7.06055C25 7.45834 24.8418 7.8398 24.5605 8.12109L18.5605 14.1211L16.4395 12L19.8789 8.56055H9.5C5.91019 8.56055 3.00007 11.4708 3 15.0605V17.0605H0V15.0605C6.78541e-05 9.8139 4.25334 5.56055 9.5 5.56055H19.8789L16.4395 2.12109L18.5605 0L24.5605 6Z" fill="currentColor" />

</g>
</svg>
