<svg viewBox="0 0 32 32" fill="none" xmlns="http://www.w3.org/2000/svg">
<g transform="translate(3.4996, 1.7194)">
<path d="M20.5605 5C21.1463 5.58577 21.1463 6.5353 20.5605 7.12109L15.5605 12.1211L13.4395 10L15.8789 7.56055H12C7.0295 7.56055 3.0001 11.5901 3 16.5605C3 21.5311 7.02944 25.5605 12 25.5605H12.5C17.7466 25.5604 22 21.3072 22 16.0605V15.0605H25V16.0605C25 22.964 19.4035 28.5604 12.5 28.5605H12C5.37258 28.5605 0 23.188 0 16.5605C9.81849e-05 9.93321 5.37264 4.56055 12 4.56055H15.8789L13.4395 2.12109L15.5605 0L20.5605 5Z" fill="currentColor" />

</g>
</svg>
