<svg viewBox="0 0 32 32" fill="none" xmlns="http://www.w3.org/2000/svg">
<g transform="translate(1.4994, 1.4994)">
<path d="M14.5 0C22.5081 0 29 6.49187 29 14.5C29 22.5081 22.5081 29 14.5 29C6.49187 29 2.57703e-07 22.5081 0 14.5C0 6.49187 6.49187 4.38095e-07 14.5 0ZM17.4941 20.0547C15.5154 19.9821 13.4836 19.9821 11.5049 20.0547C11.7235 21.1856 12.0105 22.2344 12.3643 23.1543C12.8102 24.3137 13.2859 25.0716 13.707 25.5156C14.1225 25.9537 14.394 26 14.5 26C14.606 26 14.8775 25.9537 15.293 25.5156C15.7141 25.0716 16.1898 24.3137 16.6357 23.1543C16.9895 22.2345 17.2755 21.1855 17.4941 20.0547ZM8.48438 20.2256C7.18492 20.3269 5.93621 20.4623 4.77246 20.6318C5.99725 22.5708 7.78444 24.1172 9.90625 25.043C9.78788 24.782 9.67256 24.5116 9.56445 24.2305C9.09839 23.0186 8.73977 21.6601 8.48438 20.2256ZM20.5146 20.2256C20.2593 21.6601 19.9016 23.0187 19.4355 24.2305C19.3274 24.5117 19.2112 24.7819 19.0928 25.043C21.2148 24.1173 23.0016 22.5708 24.2266 20.6318C23.0628 20.4623 21.8141 20.3269 20.5146 20.2256ZM3.48145 11.2021C3.16919 12.2469 3 13.3537 3 14.5C3 15.646 3.16936 16.7524 3.48145 17.7969C4.90922 17.5611 6.47147 17.3782 8.1084 17.2471C8.03642 16.3365 8 15.4157 8 14.5C8 13.584 8.03637 12.6628 8.1084 11.752C6.47144 11.6208 4.90924 11.4379 3.48145 11.2021ZM25.5176 11.2021C24.0898 11.4379 22.5276 11.6208 20.8906 11.752C20.9627 12.6628 21 13.584 21 14.5C21 15.4157 20.9626 16.3365 20.8906 17.2471C22.5275 17.3782 24.0898 17.5611 25.5176 17.7969C25.8297 16.7523 26 15.6461 26 14.5C26 13.3536 25.8299 12.247 25.5176 11.2021ZM17.8955 11.9316C15.6541 12.022 13.3449 12.0221 11.1035 11.9316C11.0355 12.7726 11 13.6336 11 14.5C11 15.3661 11.0355 16.2267 11.1035 17.0674C13.3449 16.977 15.6541 16.977 17.8955 17.0674C17.9635 16.2267 18 15.3661 18 14.5C18 13.6335 17.9636 12.7726 17.8955 11.9316ZM14.5 3C14.394 3 14.1225 3.0463 13.707 3.48438C13.2859 3.92844 12.8102 4.68628 12.3643 5.8457C12.0105 6.76534 11.7235 7.81381 11.5049 8.94434C13.4837 9.01691 15.5153 9.01689 17.4941 8.94434C17.2755 7.81388 16.9894 6.76529 16.6357 5.8457C16.1898 4.68628 15.7141 3.92844 15.293 3.48438C14.8775 3.0463 14.606 3 14.5 3ZM9.90625 3.95605C7.78454 4.88173 5.9973 6.42848 4.77246 8.36719C5.93622 8.53676 7.18489 8.67208 8.48438 8.77344C8.73975 7.33924 9.09849 5.98111 9.56445 4.76953C9.67268 4.48815 9.78775 4.21728 9.90625 3.95605ZM19.0928 3.95605C19.2113 4.21739 19.3273 4.48802 19.4355 4.76953C19.9015 5.98106 20.2593 7.3393 20.5146 8.77344C21.8141 8.6721 23.0628 8.53674 24.2266 8.36719C23.0016 6.42844 21.2147 4.88162 19.0928 3.95605Z" fill="currentColor" />

</g>
</svg>
