<svg viewBox="0 0 32 32" fill="none" xmlns="http://www.w3.org/2000/svg">
<g transform="translate(2.0005, 2.0005)">
<path d="M15.5 3.76758C20.011 4.42309 23.5769 7.98899 24.2324 12.5H28V15.5H24.2324C23.5769 20.011 20.0109 23.5759 15.5 24.2314V28H12.5V24.2314C7.98906 23.5759 4.42309 20.011 3.76758 15.5H0V12.5H3.76758C4.42309 7.98899 7.98899 4.42309 12.5 3.76758V0H15.5V3.76758ZM14 6.6582C9.94507 6.6582 6.6582 9.94507 6.6582 14C6.6582 18.0549 9.94507 21.3418 14 21.3418C18.0549 21.3418 21.3418 18.0549 21.3418 14C21.3418 9.94507 18.0549 6.6582 14 6.6582ZM14 11C15.6569 11 17 12.3431 17 14C17 15.6569 15.6569 17 14 17C12.3431 17 11 15.6569 11 14C11 12.3431 12.3431 11 14 11Z" fill="currentColor" />

</g>
</svg>
