<svg viewBox="0 0 32 32" fill="none" xmlns="http://www.w3.org/2000/svg">
<g transform="translate(2.4992, 1.9993)">
<path d="M9.25219 0.020671C9.69581 -0.0537783 10.1499 0.0751084 10.4885 0.371257L26.4885 14.3713C26.9587 14.7827 27.1242 15.4426 26.9045 16.0275C26.6847 16.6125 26.1251 17.0001 25.5002 17.0002H11.9993V19.0002H25.5012C26.0207 19.0003 26.5033 19.2693 26.7766 19.7111C27.0499 20.1533 27.0745 20.7061 26.842 21.1711L24.9475 24.9601C24.0158 26.8232 22.1116 28.0002 20.0286 28.0002H6.97289C4.88973 28.0001 2.98465 26.8233 2.05297 24.9601L0.158436 21.1711C-0.0740114 20.7061 -0.0494185 20.1533 0.223866 19.7111C0.497182 19.269 0.98046 19.0002 1.50023 19.0002H8.99926V17.0011H1.50023C0.965636 17.001 0.470718 16.7155 0.202382 16.2531C-0.0655654 15.7908 -0.0676175 15.22 0.197499 14.756L8.19848 0.756023L8.2893 0.615398C8.51893 0.301011 8.86395 0.0859503 9.25219 0.020671ZM4.73656 23.6183C5.16006 24.4652 6.02604 25.0001 6.97289 25.0002H20.0286C20.9755 25.0002 21.8414 24.4653 22.2649 23.6183L23.0735 22.0002H10.5188C10.5124 22.0002 10.5057 22.0011 10.4993 22.0011C10.4927 22.0011 10.4862 22.0002 10.4797 22.0002H3.92797L4.73656 23.6183ZM4.08519 14.0011H10.4983L21.508 14.0002L9.89281 3.8361L4.08519 14.0011Z" fill="currentColor" />

</g>
</svg>
