<svg viewBox="0 0 32 32" fill="none" xmlns="http://www.w3.org/2000/svg">
<g transform="translate(1.2194, 3.4997)">
<path d="M21.5537 0.33591C22.1429 -0.144218 23.0115 -0.109591 23.5605 0.439425L29.5605 6.43943L27.4395 8.56052L24 5.12107V13C24 13.4498 24.0004 13.7181 23.9912 13.9511C23.7556 19.9479 18.9479 24.7556 12.9512 24.9912C12.7182 25.0003 12.4498 25 12 25H11.5C5.14873 25 0 19.8512 0 13.5C0 7.1487 5.14873 1.99997 11.5 1.99997H12.5V4.99997H11.5C6.80558 4.99997 3 8.80555 3 13.5C3 18.1944 6.80558 22 11.5 22H12C12.4785 22 12.6746 21.9994 12.834 21.9931C17.2661 21.8189 20.8189 18.2661 20.9932 13.834C20.9994 13.6746 21 13.4785 21 13V5.12107L17.5605 8.56052L15.4395 6.43943L21.4395 0.439425L21.5537 0.33591Z" fill="currentColor" />

</g>
</svg>
