<svg viewBox="0 0 32 32" fill="none" xmlns="http://www.w3.org/2000/svg">
<g transform="translate(0.5005,2.7209)">
<path d="M4.53755 4.55921C10.5911 -1.51974 20.4078 -1.51974 26.4614 4.55921C32.5115 10.6348 32.5115 20.4826 26.4614 26.5582L24.3364 24.441C29.2207 19.536 29.2208 11.5804 24.3364 6.67542C19.4553 1.77391 11.5436 1.77391 6.66255 6.67542C1.77826 11.5804 1.77831 19.536 6.66255 24.441L4.53755 26.5582C-1.51257 20.4827 -1.51246 10.6348 4.53755 4.55921ZM17.1176 8.11976C19.2865 8.57165 20.8609 9.97368 21.6499 11.5397L20.31 12.2145L18.9711 12.8893C18.6411 12.2341 18.0176 11.5899 17.1176 11.2389V15.0075C17.9354 15.2072 18.8041 15.4785 19.5424 15.9108C20.13 16.2548 20.6922 16.7293 21.101 17.3981C21.5141 18.0741 21.7143 18.8576 21.7143 19.7242C21.7142 21.2208 21.065 22.5572 19.9291 23.4909C19.1556 24.1266 18.1943 24.5466 17.1176 24.7457V26.403H14.1176V24.7643C11.5582 24.3579 9.81664 22.9065 8.83442 21.0114L11.4985 19.6305C11.987 20.573 12.788 21.3683 14.1176 21.7057V17.4215C13.3254 17.2338 12.4866 16.9861 11.7749 16.5983C11.1929 16.2811 10.6208 15.8355 10.1997 15.1901C9.77102 14.5332 9.56295 13.7668 9.56294 12.9186C9.56301 11.5051 10.1655 10.2108 11.2924 9.3014C12.0611 8.68125 13.0235 8.27827 14.1176 8.09046V6.40296H17.1176V8.11976ZM17.1176 21.6549C17.495 21.5283 17.7964 21.3603 18.0239 21.1735C18.479 20.7993 18.7142 20.3071 18.7143 19.7242C18.7143 19.3321 18.6288 19.1055 18.5415 18.9625C18.4498 18.8127 18.2968 18.6578 18.0268 18.4996C17.7735 18.3514 17.471 18.2297 17.1176 18.1188V21.6549ZM14.1176 11.1647C13.7075 11.2883 13.3988 11.4577 13.1772 11.6364C12.7638 11.9699 12.563 12.4018 12.5629 12.9186C12.5629 13.2597 12.6406 13.4404 12.7124 13.5504C12.7917 13.672 12.9344 13.8131 13.2104 13.9635C13.4654 14.1025 13.7666 14.2159 14.1176 14.32V11.1647Z" fill="currentColor" />

</g>
</svg>
