<svg viewBox="0 0 32 32" fill="none" xmlns="http://www.w3.org/2000/svg">
<g transform="translate(1.7194, 1.7194)">
<path d="M11.2763 1.74707C12.9129 1.47376 14.5334 1.50755 16.0761 1.80762L15.79 3.2793L15.5039 4.75195C14.3077 4.51928 13.0481 4.49268 11.7705 4.70605C6.05198 5.66133 2.19045 11.0714 3.14548 16.79C4.10063 22.5086 9.51086 26.37 15.2295 25.415C20.9481 24.4599 24.8095 19.0497 23.8545 13.3311L26.8135 12.8369C28.0414 20.1898 23.0765 27.1459 15.7236 28.374C8.37077 29.6019 1.41456 24.637 0.1865 17.2842C-1.04146 9.93136 3.9236 2.97526 11.2763 1.74707ZM28.5605 2.12109L26.0986 4.58203C26.9618 4.7897 27.8028 5.24235 28.5605 6L26.4394 8.12109C25.9503 7.63206 25.4842 7.47366 25.0527 7.44824C24.58 7.42049 24.0486 7.54967 23.4961 7.80078C22.9495 8.04926 22.4569 8.3828 22.0927 8.66602C21.9138 8.80521 21.7726 8.92729 21.6797 9.01074C21.6336 9.05211 21.5994 9.08417 21.5791 9.10352C21.5695 9.11263 21.5628 9.11888 21.5595 9.12207C21.5583 9.12334 21.5577 9.12492 21.5576 9.125L21.5586 9.12305L14.5605 16.1211L12.4394 14L19.4433 6.99609C19.4449 6.99458 19.4462 6.99223 19.4482 6.99023L19.4638 6.97559L26.4394 0L28.5605 2.12109Z" fill="currentColor" />

</g>
</svg>
