<svg viewBox="0 0 32 32" fill="none" xmlns="http://www.w3.org/2000/svg">
<g transform="translate(3.9998, 2.6288)">
<path d="M19.6357 0.0448335C20.0837 -0.0671601 20.5588 0.0332265 20.9229 0.317294C21.2869 0.601552 21.5 1.03801 21.5 1.49991C21.5 6.82002 17.4467 10.1709 13.5 10.8632V19.163C15.9452 15.9695 19.6261 13.9999 24 13.9999V16.9999C18.6283 16.9999 14.4445 20.8374 13.4805 26.7411L10.5195 26.7421C9.55551 20.8381 5.37188 16.9999 0 16.9999V13.9999C4.37428 13.9999 8.05485 15.9701 10.5 19.164V10.8632C6.55332 10.1709 2.5 6.82003 2.5 1.49991C2.5 1.03801 2.71308 0.601552 3.07715 0.317294C3.44118 0.0332265 3.91628 -0.0671601 4.36426 0.0448335C9.45842 1.3183 14.5416 1.3183 19.6357 0.0448335ZM18.2129 3.42276C14.0721 4.19131 9.92696 4.19143 5.78613 3.42276C6.67642 6.30086 9.49593 7.99991 12 7.99991C14.504 7.9999 17.3225 6.30067 18.2129 3.42276Z" fill="currentColor" />

</g>
</svg>
