<svg viewBox="0 0 32 32" fill="none" xmlns="http://www.w3.org/2000/svg">
<g transform="translate(3.5008, 3.5008)">
<path d="M2.92873 2.9288C6.83388 -0.976355 13.166 -0.976177 17.0713 2.9288C20.6161 6.47355 20.9421 12.0169 18.0518 15.9308L25.5606 23.4395L23.4395 25.5606L15.9307 18.0518C12.0169 20.942 6.47342 20.6161 2.92873 17.0714C-0.9762 13.1662 -0.976287 6.83396 2.92873 2.9288ZM14.9502 5.04989C12.2165 2.31649 7.7834 2.31631 5.04982 5.04989C2.31638 7.78348 2.31647 12.2166 5.04982 14.9503C7.78345 17.6839 12.2165 17.6838 14.9502 14.9503C17.6839 12.2166 17.6839 7.78356 14.9502 5.04989Z" fill="currentColor"/>
</g>
</svg>