<svg viewBox="0 0 32 32" fill="none" xmlns="http://www.w3.org/2000/svg">
<g transform="translate(3.0016, 1.5936)">
<path d="M12.5925 0.086871C12.8519 -0.0289818 13.1484 -0.0289323 13.4079 0.086871L25.4216 5.45113C25.7687 5.60621 25.9972 5.94494 25.9997 6.32515C26.0133 8.47655 25.8432 15.7263 23.1022 20.205C20.5306 24.4069 15.0786 27.7262 13.4616 28.6484C13.1743 28.8122 12.827 28.8121 12.5397 28.6484C10.923 27.7264 5.46987 24.4072 2.89812 20.205C0.157162 15.7263 -0.0129049 8.47656 0.000661143 6.32515C0.00316199 5.94491 0.232554 5.6062 0.579763 5.45113L12.5925 0.086871ZM11.5602 16.0791L8.67156 12.4677L7.50066 13.4052L6.32976 14.3418L10.3298 19.3418C10.6059 19.6866 11.02 19.8927 11.4616 19.9043C11.9033 19.9156 12.3281 19.7316 12.6218 19.4013L20.6218 10.4013L18.3796 8.40914L11.5602 16.0791Z" fill="currentColor"/>
</g>
</svg>