<svg viewBox="0 0 32 32" fill="none" xmlns="http://www.w3.org/2000/svg">
<g transform="translate(2.9984, 1.5936)">
<path d="M12.5925 0.086871C12.8519 -0.0289818 13.1484 -0.0289323 13.4079 0.086871L25.4216 5.45113C25.7687 5.60621 25.9972 5.94494 25.9997 6.32515C26.0133 8.47655 25.8432 15.7263 23.1022 20.205C20.5306 24.4069 15.0786 27.7262 13.4616 28.6484C13.1743 28.8122 12.827 28.8121 12.5397 28.6484C10.923 27.7264 5.46987 24.4072 2.89812 20.205C0.157162 15.7263 -0.0129049 8.47656 0.000661143 6.32515C0.00316199 5.94491 0.232554 5.6062 0.579763 5.45113L12.5925 0.086871ZM13.0007 9.40425C11.344 9.40425 10.0009 10.7476 10.0007 12.4043C10.0007 13.5141 10.6047 14.4811 11.5007 15V18.4043H14.5007V15C15.3964 14.481 16.0006 13.5139 16.0007 12.4043C16.0004 10.7477 14.6572 9.40442 13.0007 9.40425Z" fill="currentColor"/>
</g>
</svg>