<svg viewBox="0 0 32 32" fill="none" xmlns="http://www.w3.org/2000/svg">
<g transform="translate(3.0016, 1.5968)">
<path d="M12.5925 0.086871C12.8519 -0.0289818 13.1484 -0.0289323 13.4079 0.086871L25.4216 5.45113C25.7687 5.60621 25.9972 5.94494 25.9997 6.32515C26.0133 8.47655 25.8432 15.7263 23.1022 20.205C20.5306 24.4069 15.0786 27.7262 13.4616 28.6484C13.1743 28.8122 12.827 28.8121 12.5397 28.6484C10.923 27.7264 5.46987 24.4072 2.89812 20.205C0.157162 15.7263 -0.0129049 8.47656 0.000661143 6.32515C0.00316199 5.94491 0.232554 5.6062 0.579763 5.45113L12.5925 0.086871ZM13.0007 18.4043C11.8968 18.4043 11.0009 19.3004 11.0007 20.4043C11.0007 21.5082 11.8967 22.4043 13.0007 22.4043C14.1045 22.4041 15.0006 21.5081 15.0007 20.4043C15.0004 19.3005 14.1044 18.4044 13.0007 18.4043ZM11.5007 15.4043H14.5007V6.40425H11.5007V15.4043Z" fill="currentColor"/>
</g>
</svg>