<svg viewBox="0 0 32 32" fill="none" xmlns="http://www.w3.org/2000/svg">
<g transform="translate(1.5008, 2.4992)">
<path d="M14.5002 0C15.0851 0.000111443 15.6173 0.340081 15.8625 0.871094L21.1027 12.2256L26.6281 8.2793C27.132 7.91946 27.8058 7.90633 28.3234 8.24609C28.8409 8.58594 29.0967 9.20908 28.967 9.81445L25.967 23.8145C25.8187 24.5059 25.2073 24.9999 24.5002 25H4.50017C3.79295 25 3.18167 24.5059 3.03337 23.8145L0.0333695 9.81445C-0.0963724 9.20899 0.159308 8.58591 0.676924 8.24609C1.19461 7.9064 1.86837 7.9194 2.37224 8.2793L7.89665 12.2256L13.1388 0.871094L13.1877 0.774414C13.4502 0.299256 13.9517 8.86679e-05 14.5002 0ZM9.86247 15.1289C9.67522 15.5345 9.31578 15.8357 8.88396 15.9502C8.45222 16.0645 7.99156 15.9802 7.6281 15.7207L3.77751 12.9697L5.71306 22H23.2873L25.2218 12.9697L21.3722 15.7207C21.0087 15.9804 20.5473 16.0646 20.1154 15.9502C19.6837 15.8357 19.3251 15.5344 19.1379 15.1289L14.5002 5.0791L9.86247 15.1289Z" fill="currentColor"/>
</g>
</svg>