<svg viewBox="0 0 32 32" fill="none" xmlns="http://www.w3.org/2000/svg">
<g transform="translate(1.5008, 1.5008)">
<path d="M27.0584 0.066288C27.5893 -0.0969651 28.1675 0.0465303 28.5603 0.439335C28.953 0.832198 29.0967 1.41035 28.9334 1.94129L20.9334 27.9413C20.7537 28.5249 20.2379 28.941 19.6296 28.994C19.0211 29.0467 18.4403 28.7256 18.1628 28.1815L12.3074 16.6913L0.819096 10.8368C0.274784 10.5594 -0.0471036 9.97865 0.00561942 9.37C0.0585264 8.76164 0.474719 8.24598 1.05835 8.06629L27.0584 0.066288ZM5.47828 9.84461L13.1326 13.745L15.5925 11.285L16.6541 12.3456L17.7146 13.4071L15.2537 15.8661L19.1541 23.5194L25.2322 3.76648L5.47828 9.84461Z" fill="currentColor"/>
</g>
</svg>