<svg viewBox="0 0 32 32" fill="none" xmlns="http://www.w3.org/2000/svg">
<g transform="translate(1.6024, 6.4999)">
<path d="M14.3974 0C18.2425 0 21.5096 1.79932 23.8739 3.66309C26.2495 5.53574 27.8558 7.58399 28.412 8.33984C28.9223 9.03334 28.9224 9.96666 28.412 10.6602C27.8558 11.416 26.2495 13.4643 23.8739 15.3369C21.5096 17.2007 18.2424 19 14.3974 19C10.5524 19 7.28518 17.2007 4.92082 15.3369C2.54528 13.4643 0.938951 11.416 0.382736 10.6602C-0.127583 9.96667 -0.127574 9.03335 0.382736 8.33984C0.938956 7.58399 2.54528 5.53574 4.92082 3.66309C7.28517 1.79932 10.5523 1.30163e-06 14.3974 0ZM14.3974 3C11.4957 3 8.87342 4.36699 6.77824 6.01855C5.17798 7.28001 3.96782 8.64457 3.27824 9.5C3.96785 10.3554 5.17796 11.72 6.77824 12.9814C8.87347 14.633 11.4958 16 14.3974 16C17.2989 16 19.9213 14.633 22.0165 12.9814C23.6165 11.7202 24.8259 10.3555 25.5155 9.5C24.8259 8.64454 23.6165 7.27978 22.0165 6.01855C19.9213 4.36699 17.299 3 14.3974 3ZM14.3974 6.5C16.0542 6.5 17.3974 7.84315 17.3974 9.5C17.3974 11.1568 16.0542 12.5 14.3974 12.5C12.7406 12.5 11.3974 11.1568 11.3974 9.5C11.3974 7.84316 12.7405 6.50002 14.3974 6.5Z" fill="currentColor" />

</g>
</svg>
