<svg viewBox="0 0 32 32" fill="none" xmlns="http://www.w3.org/2000/svg">
<g transform="translate(1.6024, 2.9393)">
<path d="M27.4579 2.12109L23.0038 6.57422C23.3056 6.78835 23.5965 7.00492 23.8739 7.22363C26.2495 9.09628 27.8558 11.1445 28.412 11.9004C28.9223 12.5939 28.9223 13.5272 28.412 14.2207C27.8558 14.9765 26.2495 17.0248 23.8739 18.8975C21.5096 20.7612 18.2423 22.5605 14.3974 22.5605C12.2072 22.5605 10.2053 21.9749 8.45012 21.1279L3.45793 26.1211L1.33684 24L5.78996 19.5459C5.48854 19.332 5.19796 19.1159 4.92082 18.8975C2.54532 17.0248 0.938977 14.9766 0.382737 14.2207C-0.127584 13.5272 -0.127574 12.5939 0.382737 11.9004C0.938982 11.1445 2.54532 9.09626 4.92082 7.22363C7.28517 5.35988 10.5523 3.56055 14.3974 3.56055C16.5871 3.56056 18.5888 4.14548 20.3437 4.99219L25.3368 0L27.4579 2.12109ZM10.7284 18.8496C11.8824 19.2918 13.1124 19.5605 14.3974 19.5605C17.2989 19.5605 19.9213 18.1936 22.0165 16.542C23.6165 15.2808 24.8259 13.916 25.5155 13.0605C24.8259 12.2051 23.6165 10.8403 22.0165 9.5791C21.6433 9.28492 21.2528 9.00048 20.8476 8.73047L10.7284 18.8496ZM14.3974 6.56055C11.4958 6.56055 8.87342 7.92755 6.77824 9.5791C5.178 10.8405 3.96782 12.2051 3.27824 13.0605C3.96785 13.916 5.17798 15.2806 6.77824 16.542C7.15112 16.8359 7.54134 17.1199 7.94621 17.3896L18.0654 7.27051C16.9118 6.82858 15.682 6.56056 14.3974 6.56055Z" fill="currentColor" />

</g>
</svg>
