<svg viewBox="0 0 32 32" fill="none" xmlns="http://www.w3.org/2000/svg">
<g transform="translate(2.0, 2.0)">
<path d="M17.6036 0C18.4318 0.000308964 19.1036 0.671763 19.1036 1.5V3.76465L20.2218 4.41797L22.1408 3.29785L22.2726 3.22852C22.5885 3.08394 22.9467 3.05285 23.2853 3.14355C23.6721 3.24723 24.0019 3.50182 24.2003 3.84961L27.8029 10.1641C28.2103 10.8783 27.9668 11.7872 27.257 12.2021L25.3253 13.3301V14.6689L27.257 15.7979C27.9668 16.2128 28.2103 17.1217 27.8029 17.8359L24.2003 24.1504C24.0019 24.4982 23.6721 24.7528 23.2853 24.8564C22.8985 24.9601 22.4865 24.9041 22.1408 24.7021L20.2218 23.5811L19.1036 24.2344V26.5C19.1036 27.3282 18.4318 27.9997 17.6036 28H10.3966C9.56838 27.9998 8.89662 27.3283 8.89662 26.5V24.2344L7.77748 23.5811L5.85951 24.7021C5.51378 24.9041 5.10173 24.96 4.71498 24.8564C4.32817 24.7528 3.99841 24.4982 3.79994 24.1504L0.197397 17.8359C-0.210136 17.1217 0.0333986 16.2128 0.743296 15.7979L2.67494 14.6689V13.3301L0.743296 12.2021C0.0333979 11.7872 -0.210136 10.8783 0.197397 10.1641L3.79994 3.84961L3.88099 3.72363C4.08227 3.44054 4.37648 3.23425 4.71498 3.14355C5.10173 3.03997 5.51378 3.09591 5.85951 3.29785L7.77748 4.41797L8.89662 3.76465V1.5C8.89662 0.67171 9.56838 0.00022158 10.3966 0H17.6036ZM11.8966 4.625C11.8966 5.15811 11.6137 5.65097 11.1535 5.91992L8.53431 7.4502C8.06699 7.72316 7.48899 7.72305 7.02162 7.4502L5.65443 6.65137L3.53822 10.3604L4.93177 11.1748C5.39182 11.4438 5.67488 11.9368 5.67494 12.4697V15.5303C5.67488 16.0632 5.39182 16.5562 4.93177 16.8252L3.53822 17.6387L5.65443 21.3477L7.02162 20.5498L7.2013 20.46C7.63148 20.2809 8.12536 20.3109 8.53431 20.5498L11.1535 22.0801C11.6137 22.349 11.8966 22.8419 11.8966 23.375V25H16.1036V23.375C16.1036 22.8418 16.3865 22.349 16.8468 22.0801L19.466 20.5498L19.6456 20.46C20.0758 20.2808 20.5697 20.311 20.9786 20.5498L22.3449 21.3477L24.4611 17.6387L23.0685 16.8252C22.6084 16.5562 22.3254 16.0632 22.3253 15.5303V12.4697C22.3254 11.9368 22.6084 11.4438 23.0685 11.1748L24.4611 10.3604L22.3449 6.65137L20.9786 7.4502C20.5113 7.72309 19.9333 7.72311 19.466 7.4502L16.8468 5.91992C16.3865 5.65098 16.1036 5.15816 16.1036 4.625V3H11.8966V4.625ZM14.0031 8.5C17.0404 8.50021 19.5031 10.9626 19.5031 14C19.5031 17.0374 17.0404 19.4998 14.0031 19.5C10.9655 19.5 8.50306 17.0376 8.50306 14C8.50306 10.9624 10.9655 8.5 14.0031 8.5ZM14.0031 11.5C12.6223 11.5 11.5031 12.6193 11.5031 14C11.5031 15.3807 12.6223 16.5 14.0031 16.5C15.3836 16.4998 16.5031 15.3806 16.5031 14C16.5031 12.6194 15.3836 11.5002 14.0031 11.5Z" fill="currentColor"/>
</g>
</svg>