<svg viewBox="0 0 32 32" fill="none" xmlns="http://www.w3.org/2000/svg">
<g transform="translate(3.1662, 1.8332)">
<path d="M21.5 0C23.8011 7.09385e-07 25.6668 1.86596 25.667 4.16699C25.6668 6.46803 23.8011 8.33301 21.5 8.33301C20.4636 8.33293 19.518 7.95266 18.79 7.32812L8.29883 12.9785C8.32017 13.1493 8.33299 13.3234 8.33301 13.5C8.33301 13.7585 8.30707 14.0117 8.26172 14.2578L18.9756 20.8516C19.6753 20.318 20.5505 20.0001 21.5 20C23.8011 20 25.6668 21.866 25.667 24.167C25.6668 26.468 23.8011 28.333 21.5 28.333C19.1991 28.3328 17.3332 26.4679 17.333 24.167C17.333 23.908 17.3588 23.6538 17.4043 23.4072L6.69043 16.8135C5.99063 17.3472 5.11665 17.6669 4.16699 17.667C1.86596 17.6668 0 15.8011 0 13.5C0.000176203 11.1991 1.86606 9.33318 4.16699 9.33301C5.20174 9.33309 6.14745 9.71246 6.87598 10.3369L17.3652 4.68848C17.3438 4.51757 17.333 4.34321 17.333 4.16699C17.3332 1.86606 19.1991 0.000175909 21.5 0ZM21.5 23C21.0818 23.0001 20.7127 23.2198 20.5049 23.5566C20.3962 23.733 20.3331 23.9407 20.333 24.167C20.3332 24.8111 20.8559 25.3328 21.5 25.333C22.1442 25.333 22.6668 24.8112 22.667 24.167C22.6668 23.5228 22.1442 23 21.5 23ZM4.16699 12.333C3.52292 12.3332 3.00018 12.8559 3 13.5C3 14.1442 3.52281 14.6668 4.16699 14.667C4.58522 14.6669 4.95335 14.4473 5.16113 14.1104C5.26998 13.9338 5.33301 13.7266 5.33301 13.5C5.33283 12.8559 4.81107 12.3332 4.16699 12.333ZM21.5 3C20.8559 3.00018 20.3332 3.52292 20.333 4.16699C20.3331 4.36946 20.384 4.55609 20.4717 4.71875C20.6708 5.08775 21.058 5.33289 21.5 5.33301C22.1442 5.33301 22.6668 4.81117 22.667 4.16699C22.6668 3.52281 22.1442 3 21.5 3Z" fill="currentColor" />

</g>
</svg>
