<svg viewBox="0 0 32 32" fill="none" xmlns="http://www.w3.org/2000/svg">
<g transform="translate(2.5002, 2.5002)">
<path d="M13.5 0C20.9558 0 27 6.04416 27 13.5C27 20.9558 20.9558 27 13.5 27C6.04416 27 8.3756e-07 20.9558 0 13.5C1.93283e-07 6.04416 6.04416 8.80485e-07 13.5 0ZM13.5 3C7.70101 3 3 7.70101 3 13.5C3 19.299 7.70101 24 13.5 24C19.299 24 24 19.299 24 13.5C24 7.70101 19.299 3 13.5 3ZM13.3965 6.10156C13.429 5.99651 13.571 5.99651 13.6035 6.10156L15.1816 11.2041C15.1963 11.2507 15.2374 11.2821 15.2842 11.2822H20.3916C20.4965 11.2825 20.54 11.4244 20.4551 11.4893L16.3232 14.6426C16.2855 14.6716 16.2699 14.7228 16.2842 14.7695L17.8623 19.8721C17.8948 19.9771 17.7804 20.0649 17.6953 20L13.5635 16.8467C13.5255 16.8177 13.4745 16.8177 13.4365 16.8467L9.30469 20C9.21963 20.0649 9.10521 19.9771 9.1377 19.8721L10.7158 14.7695C10.7301 14.7228 10.7145 14.6716 10.6768 14.6426L6.54492 11.4893C6.45995 11.4244 6.5035 11.2825 6.6084 11.2822H11.7158C11.7626 11.2821 11.8037 11.2507 11.8184 11.2041L13.3965 6.10156Z" fill="currentColor" />

</g>
</svg>
