<svg viewBox="0 0 32 32" fill="none" xmlns="http://www.w3.org/2000/svg">
<g transform="translate(1.5033, 1.5033)">
<path d="M14.0381 0.00118855C14.7403 -0.0207812 15.3901 0.26335 15.8535 0.726774L28.2676 13.1408C28.731 13.6043 29.0151 14.254 28.9932 14.9563C28.7487 22.751 22.3535 28.9944 14.5 28.9944C6.49187 28.9944 3.50046e-07 22.5025 0 14.4944C1.58652e-05 6.64086 6.24332 0.245678 14.0381 0.00118855ZM13.8975 3.01388C7.82684 3.32693 3.00002 8.34526 3 14.4944C3 20.8456 8.14873 25.9944 14.5 25.9944C20.6491 25.9944 25.6674 21.1675 25.9805 15.0969L13.8975 3.01388ZM19.8408 18.4992C18.8366 20.504 16.8777 21.9944 14.5 21.9944C12.1223 21.9944 10.1634 20.504 9.15918 18.4992L11.8408 17.1555C12.4335 18.3388 13.4593 18.9944 14.5 18.9944C15.5407 18.9944 16.5665 18.3388 17.1592 17.1555L19.8408 18.4992Z" fill="currentColor" />

</g>
</svg>
