<svg viewBox="0 0 32 32" fill="none" xmlns="http://www.w3.org/2000/svg">
<g transform="translate(-0.0001,4.2500)">
<path d="M15.2735 0.187512C15.7575 -0.0804307 16.3546 -0.0612129 16.8224 0.245129L31.3224 9.74513C31.7508 10.0258 32.0062 10.5065 32.0001 11.0186C31.9938 11.5307 31.7263 12.0043 31.2911 12.2744L16.7911 21.2744C16.3067 21.5751 15.6936 21.5751 15.2091 21.2744L9.50011 17.7305V23.5H6.50011V15.8682L0.709092 12.2744C0.274027 12.0042 0.00640057 11.5307 0.000107482 11.0186C-0.00601115 10.5065 0.249454 10.0258 0.677842 9.74513L15.1778 0.245129L15.2735 0.187512ZM4.28917 10.9658L7.95519 13.2412L15.6857 8.24025L17.3146 10.7598L10.7735 14.9902L16.0001 18.2344L27.7101 10.9658L16.0001 3.29298L4.28917 10.9658Z" fill="currentColor" />

</g>
</svg>
