<svg viewBox="0 0 32 32" fill="none" xmlns="http://www.w3.org/2000/svg">
<g transform="translate(1.5007, 1.5007)">
<path d="M4.2469 4.2469C9.90947 -1.41567 19.0902 -1.4156 24.7528 4.2469C30.4154 9.9095 30.4154 19.0902 24.7528 24.7528C19.0902 30.4154 9.9095 30.4154 4.2469 24.7528C-1.4156 19.0902 -1.41567 9.90947 4.2469 4.2469ZM22.6317 6.368C18.1406 1.87706 10.859 1.877 6.368 6.368C1.877 10.859 1.87706 18.1406 6.368 22.6317C10.859 27.1227 18.1406 27.1227 22.6317 22.6317C27.1227 18.1406 27.1227 10.859 22.6317 6.368ZM21.4998 15.9998H7.49983V12.9998H21.4998V15.9998Z" fill="currentColor" />

</g>
</svg>
