<svg viewBox="0 0 32 32" fill="none" xmlns="http://www.w3.org/2000/svg">
<g transform="translate(7.0179, 2.0005)">
<path d="M9.29785 23C10.6785 23.0001 11.7978 24.1193 11.7979 25.5C11.7979 26.8807 10.6785 27.9999 9.29785 28C7.91714 28 6.79785 26.8807 6.79785 25.5C6.79786 24.1193 7.91715 23 9.29785 23ZM9.29785 0C14.2637 0.000190762 17.9648 3.78079 17.9648 8.56055C17.9648 10.9828 16.9725 13.0015 15.3369 14.416C14.2004 15.3988 12.8026 16.0487 11.2979 16.3926V20H7.29785V12.7871L9.17383 12.6709C10.6955 12.5759 11.9169 12.0857 12.7207 11.3906C13.4866 10.7282 13.9648 9.80954 13.9648 8.56055C13.9648 5.99735 12.0619 4.00018 9.29785 4C6.50345 4.0001 4.48147 6.04865 3.92969 8.93555L0 8.18555C0.815102 3.91937 4.11059 0.00010255 9.29785 0Z" fill="currentColor" />

</g>
</svg>
