<svg viewBox="0 0 32 32" fill="none" xmlns="http://www.w3.org/2000/svg">
<g transform="translate(2.2496, 2.2496)">
<path fill-rule="evenodd" clip-rule="evenodd" d="M6 3C7.65685 3 9 4.34315 9 6C9 7.65685 7.65685 9 6 9C4.34315 9 3 7.65685 3 6C3 4.34315 4.34315 3 6 3ZM6 12C9.31371 12 12 9.31371 12 6C12 2.68629 9.31371 0 6 0C2.68629 0 0 2.68629 0 6C0 9.31371 2.68629 12 6 12ZM19.5 27.5C23.9183 27.5 27.5 23.9183 27.5 19.5C27.5 15.0817 23.9183 11.5 19.5 11.5C15.0817 11.5 11.5 15.0817 11.5 19.5C11.5 23.9183 15.0817 27.5 19.5 27.5Z" fill="currentColor" />

</g>
</svg>
