<svg viewBox="0 0 32 32" fill="none" xmlns="http://www.w3.org/2000/svg">
<g transform="translate(1.9390, 4.4996)">
<path d="M22.5605 7.5V17.8789L26 14.4395L28.1211 16.5605L22.1211 22.5605C21.8398 22.8418 21.4583 23 21.0605 23C20.7126 23 20.3772 22.8788 20.1104 22.6602L20 22.5605L14 16.5605L16.1211 14.4395L19.5605 17.8789V7.5H22.5605ZM7.06055 0C7.45835 1.59652e-06 7.8398 0.15818 8.12109 0.439453L14.1211 6.43945L12 8.56055L8.56055 5.12109V15.5H5.56055V5.12109L2.12109 8.56055L0 6.43945L6 0.439453L6.11035 0.339844C6.37722 0.121247 6.71256 2.23375e-05 7.06055 0Z" fill="currentColor" />

</g>
</svg>
