<svg viewBox="0 0 32 32" fill="none" xmlns="http://www.w3.org/2000/svg">
<g transform="translate(6.3261, 1.0271)">
<path d="M13.1455 0C21.4145 8.26898 21.4148 21.6765 13.1455 29.9453L12.1729 28.9727L11.2012 28C18.3961 20.8052 18.3959 9.14028 11.2012 1.94531L12.1729 0.972656L13.1455 0ZM9.41211 3.7334C15.6192 9.94052 15.6194 20.0049 9.41211 26.2119L8.43945 25.2393L7.46777 24.2666C12.6006 19.1337 12.6004 10.8118 7.46777 5.67871L8.43945 4.70605L9.41211 3.7334ZM5.67871 7.4668C9.82376 11.612 9.824 18.3334 5.67871 22.4785L4.70605 21.5059L3.73438 20.5332C6.80507 17.4622 6.80483 12.4833 3.73438 9.41211L4.70605 8.43945L5.67871 7.4668ZM1.94531 11.2002C4.02823 13.2836 4.02847 16.6619 1.94531 18.7451L0.972656 17.7725L0 16.8008C1.0093 15.7915 1.00907 14.154 0 13.1445L0.972656 12.1729L1.94531 11.2002Z" fill="currentColor" />

</g>
</svg>
