<svg viewBox="0 0 32 32" fill="none" xmlns="http://www.w3.org/2000/svg">
<g transform="translate(1.0005, 2.2504)">
<path d="M15 5.5C19.563 5.5 22.6931 7.8003 24.6289 10.0127C25.5943 11.116 26.2805 12.2134 26.7256 13.0352C26.8154 13.2009 26.8936 13.3574 26.9648 13.5H30V16.5H27.5V24.5H30V27.5H0V24.5H2.5V16.5H0V13.5H3.03516C3.10642 13.3574 3.18463 13.2009 3.27441 13.0352C3.71952 12.2134 4.40574 11.116 5.37109 10.0127C7.30695 7.8003 10.437 5.5 15 5.5ZM5.5 24.5H9.5V16.5H5.5V24.5ZM12.5 24.5H17.5V16.5H12.5V24.5ZM20.5 24.5H24.5V16.5H20.5V24.5ZM15 8.5C11.5632 8.5 9.19306 10.1998 7.62891 11.9873C7.17679 12.504 6.7986 13.0236 6.48828 13.5H23.5117C23.2014 13.0236 22.8232 12.504 22.3711 11.9873C20.8069 10.1998 18.4368 8.5 15 8.5ZM18 3H14V0H19L18 3Z" fill="currentColor" />

</g>
</svg>
