<svg viewBox="0 0 32 32" fill="none" xmlns="http://www.w3.org/2000/svg">
<g transform="translate(1.4994, 4.7495)">
<path d="M9.2998 0C10.8892 0 12.544 0.299823 13.8408 1.21387C14.0789 1.38173 14.2987 1.56723 14.5 1.76758C14.7013 1.56723 14.9211 1.38173 15.1592 1.21387C16.456 0.299823 18.1108 0 19.7002 0H27.5C28.3284 5.15408e-07 29 0.671573 29 1.5V18.4277C28.9998 19.2559 28.3283 19.9277 27.5 19.9277H19.7002C18.3889 19.9277 17.4406 20.1598 16.8594 20.5498C16.3822 20.8701 16 21.3917 16 22.5H13C13 21.3917 12.6178 20.8701 12.1406 20.5498C11.5594 20.1598 10.6111 19.9277 9.2998 19.9277H1.5C0.671726 19.9277 0.000248938 19.2559 0 18.4277V1.5C0 0.671573 0.671573 0 1.5 0H9.2998ZM3 16.9277H9.2998C10.5506 16.9277 11.8597 17.094 13 17.6094V5.7002C13 4.58616 12.6115 4.01796 12.1123 3.66602C11.5272 3.25364 10.5819 3 9.2998 3H3V16.9277ZM19.7002 3C18.4181 3 17.4728 3.25364 16.8877 3.66602C16.4197 3.99592 16.0494 4.51571 16.0049 5.49707L16 5.7002V17.6094C17.1403 17.094 18.4494 16.9277 19.7002 16.9277H26V3H19.7002Z" fill="currentColor" />

</g>
</svg>
