<svg viewBox="0 0 32 32" fill="none" xmlns="http://www.w3.org/2000/svg">
<g transform="translate(2.5002, 2.5002)">
<path d="M13.5 0C20.9558 0 27 6.04416 27 13.5C27 13.5498 26.9971 13.5998 26.9922 13.6494C26.7988 15.5833 26.127 17.0182 24.9434 17.9307C23.8097 18.8045 22.4548 18.9987 21.3467 19.0361C20.7805 19.0553 20.2157 19.0343 19.7168 19.0137C19.1971 18.9922 18.7604 18.9724 18.3594 18.9795C17.4672 18.9953 17.2959 19.1539 17.2842 19.167C17.0545 19.4236 16.9154 19.7974 16.8838 20.4238C16.8494 21.1054 16.9429 21.7587 17.0059 22.6484C17.0568 23.3682 17.1149 24.48 16.6172 25.4082C15.9936 26.571 14.8131 27 13.5 27C6.04416 27 0 20.9558 0 13.5C1.93283e-07 6.04416 6.04416 1.93277e-07 13.5 0ZM13.5 3C7.70101 3 3 7.70101 3 13.5C3 19.299 7.70101 24 13.5 24C13.7722 24 13.9169 23.9699 13.9873 23.9463C13.9889 23.9406 13.9924 23.9347 13.9941 23.9277C14.0065 23.8787 14.0189 23.8062 14.0273 23.7041C14.0449 23.4912 14.0382 23.2195 14.0127 22.8594C13.9676 22.2226 13.8411 21.1958 13.8877 20.2725C13.9371 19.2938 14.1799 18.1369 15.0488 17.166C15.9872 16.1177 17.375 15.996 18.3066 15.9795C18.8174 15.9704 19.3588 15.9967 19.8408 16.0166C20.3438 16.0374 20.8051 16.0529 21.2451 16.0381C22.1494 16.0076 22.7304 15.8491 23.1123 15.5547C23.4377 15.3036 23.8504 14.77 23.998 13.4297C23.9602 7.66306 19.2755 3 13.5 3ZM8.16699 14.5C9.27139 14.5002 10.167 15.3956 10.167 16.5C10.167 17.6044 9.27139 18.4998 8.16699 18.5C7.06242 18.5 6.16699 17.6046 6.16699 16.5C6.16699 15.3954 7.06242 14.5 8.16699 14.5ZM8.16699 8.5C9.27139 8.5002 10.167 9.39555 10.167 10.5C10.167 11.6044 9.27139 12.4998 8.16699 12.5C7.06242 12.5 6.16699 11.6046 6.16699 10.5C6.16699 9.39543 7.06242 8.5 8.16699 8.5ZM18.5 7.16699C19.6046 7.16699 20.5 8.06242 20.5 9.16699C20.4998 10.2714 19.6045 11.167 18.5 11.167C17.3955 11.167 16.5002 10.2714 16.5 9.16699C16.5 8.06242 17.3954 7.16699 18.5 7.16699ZM12.833 5.5C13.9376 5.5 14.833 6.39543 14.833 7.5C14.833 8.60457 13.9376 9.5 12.833 9.5C11.7286 9.4998 10.833 8.60445 10.833 7.5C10.833 6.39555 11.7286 5.5002 12.833 5.5Z" fill="currentColor" />

</g>
</svg>
