<svg viewBox="0 0 32 32" fill="none" xmlns="http://www.w3.org/2000/svg">
<g transform="translate(3.8674, 2.9345)">
<path d="M14.6729 0C16.7346 0 18.2889 1.873 17.9092 3.89941L16.6406 10.667H19.7598C23.1823 10.6672 25.3515 14.336 23.7021 17.335C23.691 17.3552 23.68 17.3759 23.668 17.3955L20.0303 23.3418L20.0293 23.3408C18.9731 25.206 16.9293 26.2907 14.7891 26.1123L1.375 24.9951C0.597792 24.9301 0 24.28 0 23.5V13.5L0.00585938 13.3721C0.0597661 12.7386 0.510008 12.2016 1.13574 12.0449C4.58827 11.1818 6.6889 9.76601 8.16895 8.09961C9.68929 6.38781 10.6324 4.33327 11.6562 1.97754C12.1783 0.776601 13.3631 4.61795e-05 14.6729 0ZM14.6729 3C14.5578 3.00005 14.4542 3.06806 14.4082 3.17383C13.3982 5.49761 12.2913 7.97599 10.4121 10.0918C8.68154 12.0403 6.35725 13.6165 3 14.6377V22.1191L15.0381 23.123C16.0213 23.205 16.961 22.7004 17.4365 21.8359L17.4707 21.7764L21.0811 15.874C21.6154 14.8772 20.8948 13.6672 19.7598 13.667H14.833C14.3869 13.6669 13.9636 13.4682 13.6787 13.125C13.3938 12.7817 13.2773 12.3291 13.3594 11.8906L14.9609 3.34668C14.9945 3.16648 14.8562 3 14.6729 3Z" fill="currentColor" />

</g>
</svg>
