<svg viewBox="0 0 32 32" fill="none" xmlns="http://www.w3.org/2000/svg">
<g transform="translate(3.8668, 2.9334)">
<path d="M14.7891 0.0190586C16.9292 -0.159285 18.974 0.925526 20.0303 2.79054L23.668 8.73683L23.7021 8.7964C25.3516 11.7954 23.1823 15.4652 19.7598 15.4653H16.6406L17.9092 22.2319C18.2892 24.2585 16.7347 26.1323 14.6729 26.1323C13.3631 26.1322 12.1782 25.3548 11.6562 24.1538C10.6325 21.7984 9.68909 19.7443 8.16895 18.0327C6.68891 16.3664 4.58816 14.9505 1.13574 14.0874C0.468411 13.9203 9.38623e-05 13.3203 0 12.6323V2.63234C6.95288e-05 1.85248 0.597916 1.20231 1.375 1.13722L14.7891 0.0190586ZM15.0381 3.00929L3 4.01125V11.4937C6.35728 12.5148 8.68151 14.0921 10.4121 16.0405C12.2912 18.1563 13.3982 20.6348 14.4082 22.9585C14.4542 23.0641 14.5579 23.1322 14.6729 23.1323C14.8563 23.1323 14.9947 22.965 14.9609 22.7847L13.3594 14.2417C13.2773 13.8033 13.3939 13.3506 13.6787 13.0073C13.9636 12.6641 14.387 12.4655 14.833 12.4653H19.7598C20.8951 12.4652 21.6161 11.2543 21.0811 10.2573L17.4707 4.355C17.4588 4.33557 17.4475 4.31537 17.4365 4.29543C16.961 3.43113 16.0212 2.92737 15.0381 3.00929Z" fill="currentColor" />

</g>
</svg>
