<svg viewBox="0 0 32 32" fill="none" xmlns="http://www.w3.org/2000/svg">
<g transform="translate(5.2638, 2.5002)">
<path d="M19.8694 0.00585938C20.5289 0.0640968 21.079 0.551841 21.2082 1.21191C21.5442 2.93054 21.5648 4.4316 21.2424 5.77734C20.9161 7.13908 20.2614 8.24695 19.3948 9.2041C18.5465 10.1409 17.4944 10.9335 16.3723 11.6836C15.5167 12.2555 14.5227 12.868 13.5139 13.5C14.5227 14.132 15.5167 14.7445 16.3723 15.3164C17.4944 16.0664 18.5465 16.8591 19.3948 17.7959C20.2614 18.753 20.9161 19.8609 21.2424 21.2227C21.5648 22.5684 21.5442 24.0695 21.2082 25.7881C21.079 26.4481 20.5289 26.9359 19.8694 26.9941L19.7366 27H1.73656C1.06386 27 0.479889 26.5531 0.296133 25.917L0.263906 25.7881C-0.0720923 24.0695 -0.0916978 22.5684 0.230703 21.2227C0.557009 19.861 1.21176 18.753 2.07836 17.7959C2.92658 16.8591 3.97875 16.0664 5.10082 15.3164C5.9562 14.7447 6.94971 14.1319 7.95824 13.5C6.94969 12.8681 5.95623 12.2554 5.10082 11.6836C3.97873 10.9336 2.92659 10.1409 2.07836 9.2041C1.21174 8.24696 0.557012 7.13906 0.230703 5.77734C-0.091713 4.4316 -0.0720979 2.93053 0.263906 1.21191L0.296133 1.08301C0.479874 0.446838 1.06383 1.31969e-06 1.73656 0H19.7366L19.8694 0.00585938ZM11.0452 15.4922C10.8576 15.3724 10.6145 15.3723 10.427 15.4922C9.01323 16.3961 7.84853 17.0882 6.76781 17.8105C5.71314 18.5155 4.90237 19.1465 4.30199 19.8096C3.72006 20.4523 3.33958 21.121 3.1477 21.9219C3.01216 22.4876 2.96329 23.1642 3.03637 24H18.4368C18.5098 23.1642 18.46 22.4876 18.3245 21.9219C18.1326 21.1211 17.753 20.4523 17.1711 19.8096C16.5708 19.1465 15.76 18.5155 14.7053 17.8105C13.6245 17.0881 12.4591 16.3962 11.0452 15.4922ZM3.03637 3C2.96328 3.83582 3.01214 4.51234 3.1477 5.07812C3.33958 5.87903 3.72003 6.54767 4.30199 7.19043C4.90238 7.85352 5.7131 8.48446 6.76781 9.18945C7.84853 9.91184 9.01322 10.6039 10.427 11.5078C10.6145 11.6277 10.8576 11.6276 11.0452 11.5078C12.4591 10.6038 13.6245 9.91188 14.7053 9.18945C15.76 8.48447 16.5708 7.85351 17.1711 7.19043C17.753 6.54774 18.1326 5.87894 18.3245 5.07812C18.46 4.51234 18.5098 3.83583 18.4368 3H3.03637Z" fill="currentColor" />

</g>
</svg>
