<svg viewBox="0 0 32 32" fill="none" xmlns="http://www.w3.org/2000/svg">
<g transform="translate(3.4995, 1.4994)">
<path d="M12.5 4C15.6115 4 18.4587 5.13849 20.6455 7.01855L22.5078 5.37598L23.5 6.5L24.4922 7.625L22.6689 9.2334C24.1344 11.2811 25 13.7902 25 16.5C25 23.4036 19.4036 29 12.5 29C5.59644 29 1.03084e-06 23.4036 0 16.5C5.15422e-07 9.59644 5.59644 4 12.5 4ZM12.5 7C7.2533 7 3 11.2533 3 16.5C3 21.7467 7.2533 26 12.5 26C17.7467 26 22 21.7467 22 16.5C22 14.021 21.0524 11.7668 19.4971 10.0742C17.7587 8.1826 15.2684 7 12.5 7ZM14 15H17.5V18H12.5C11.6716 18 11 17.3284 11 16.5V11.5H14V15ZM16.5 3H8.5V0H16.5V3Z" fill="currentColor" />

</g>
</svg>
