<svg viewBox="0 0 32 32" fill="none" xmlns="http://www.w3.org/2000/svg">
<g transform="translate(1.9390, 3.4996)">
<path d="M23.7559 0.0126953C25.0164 0.140824 26 1.20566 26 2.5V10.5H23V3H3V22H12V25H2.5C1.11929 25 1.61064e-08 23.8807 0 22.5V2.5C1.9328e-07 1.11929 1.11929 1.00665e-08 2.5 0H23.5L23.7559 0.0126953ZM28.1211 15.4961L20.1211 24.4961C19.8274 24.8265 19.4028 25.0105 18.9609 24.999C18.5191 24.9875 18.1052 24.7816 17.8291 24.4365L13.8291 19.4365L15 18.5L16.1709 17.5625L19.0596 21.1738L25.8789 13.5039L28.1211 15.4961Z" fill="currentColor" />

</g>
</svg>
