<svg viewBox="0 0 32 32" fill="none" xmlns="http://www.w3.org/2000/svg">
<g transform="translate(2.5002, 2.5002)">
<path d="M19.5 0C23.7136 0 26.9998 3.57248 27 7.81543C27 11.5229 24.6967 14.9391 20.8994 15.7998C18.123 16.4289 15.3698 15.601 13.084 14.9414C10.6361 14.2351 8.65471 13.6975 6.76367 14.126C4.51484 14.6357 3 16.6831 3 19.1846C3.00018 21.9175 5.0864 24 7.5 24C9.9136 24 11.9998 21.9175 12 19.1846V17.9209H15V19.1846C14.9998 23.4275 11.7136 27 7.5 27C3.28641 27 0.000186126 23.4275 0 19.1846C0 15.4771 2.30325 12.0609 6.10059 11.2002C8.87704 10.5711 11.6302 11.399 13.916 12.0586C16.3639 12.7649 18.3453 13.3025 20.2363 12.874C22.4852 12.3643 24 10.3169 24 7.81543C23.9998 5.08249 21.9136 3 19.5 3C17.0864 3 15.0002 5.08249 15 7.81543V9.0791H12V7.81543C12.0002 3.57248 15.2864 0 19.5 0Z" fill="currentColor" />

</g>
</svg>
