<svg viewBox="0 0 32 32" fill="none" xmlns="http://www.w3.org/2000/svg">
<g transform="translate(1.5007, 1.5007)">
<path d="M4.24695 4.24695C9.90955 -1.41565 19.0902 -1.41565 24.7528 4.24695C30.4154 9.90955 30.4154 19.0902 24.7528 24.7528C19.0902 30.4154 9.90955 30.4154 4.24695 24.7528C-1.41565 19.0902 -1.41565 9.90955 4.24695 4.24695ZM22.6317 6.36804C18.1407 1.87702 10.8591 1.87702 6.36804 6.36804C1.87702 10.8591 1.87702 18.1407 6.36804 22.6317C10.8591 27.1227 18.1407 27.1227 22.6317 22.6317C27.1227 18.1407 27.1227 10.8591 22.6317 6.36804ZM15.9999 13.9999H19.4999V16.9999H14.4999C13.6715 16.9999 12.9999 16.3283 12.9999 15.4999V8.49988H15.9999V13.9999Z" fill="currentColor" />

</g>
</svg>
