<svg viewBox="0 0 32 32" fill="none" xmlns="http://www.w3.org/2000/svg">
<g transform="translate(2.5002, 3.7199)">
<path d="M12.1826 0C14.8431 0.000236752 16.9998 2.15692 17 4.81738C17 7.08917 15.4128 9.05232 13.1914 9.52832L4.87402 11.3115C3.78108 11.5458 3.00014 12.5112 3 13.6289C3 14.9383 4.06174 16 5.37109 16H21.8789L18.4395 12.5605L20.5605 10.4395L26.5605 16.4395C26.8418 16.7208 27 17.1022 27 17.5C27 17.848 26.8788 18.1833 26.6602 18.4502L26.5605 18.5605L20.5605 24.5605L18.4395 22.4395L21.8789 19H5.37109C2.40489 19 0 16.5951 0 13.6289C0.000140792 11.0966 1.7691 8.90869 4.24512 8.37793L12.5635 6.5957C13.4015 6.41598 14 5.67445 14 4.81738C13.9998 3.81378 13.1862 3.00024 12.1826 3H6.5V0H12.1826Z" fill="currentColor" />

</g>
</svg>
