<svg viewBox="0 0 32 32" fill="none" xmlns="http://www.w3.org/2000/svg">
<g transform="translate(2.9396, 2.5002)">
<path d="M13.0605 0C16.1627 0 18.9176 1.4871 20.6514 3.78711L24 0.439453L26.1211 2.56055L22.1016 6.5791C22.3987 7.49948 22.5605 8.48074 22.5605 9.5V17.5C22.5605 22.7467 18.3073 27 13.0605 27C9.9578 26.9999 7.20341 25.5117 5.46973 23.2109L2.12109 26.5605L0 24.4395L4.01953 20.4189C3.72279 19.4991 3.56055 18.5186 3.56055 17.5V9.5C3.56055 4.25336 7.81394 0.000110813 13.0605 0ZM7.62207 21.0586C8.78319 22.8296 10.7847 23.9999 13.0605 24C16.6504 24 19.5605 21.0899 19.5605 17.5V9.5C19.5605 9.3761 19.5566 9.25305 19.5498 9.13086L7.62207 21.0586ZM13.0605 3C9.47079 3.00011 6.56055 5.91022 6.56055 9.5V17.5C6.56055 17.6232 6.56452 17.7456 6.57129 17.8672L18.498 5.94043C17.3368 4.17016 15.3359 3 13.0605 3Z" fill="currentColor" />

</g>
</svg>
