<svg viewBox="0 0 16 16" fill="none" xmlns="http://www.w3.org/2000/svg">
<g transform="translate(1.2501, 1.7498)">
<path d="M6.23218 0.206995C6.52187 -0.0689983 6.97766 -0.0689984 7.26734 0.206995V0.207972H7.26832L7.27515 0.214808C7.27939 0.218906 7.28573 0.224533 7.29273 0.231409C7.30672 0.245151 7.32621 0.264527 7.35035 0.289026C7.39873 0.338143 7.46615 0.408939 7.54859 0.498987C7.71342 0.679023 7.93864 0.939053 8.18629 1.26559C8.53366 1.72365 8.9327 2.32436 9.2732 3.02828C9.86174 2.6339 10.4321 2.34159 10.8992 2.13473C11.2401 1.98378 11.5307 1.87632 11.738 1.80563C11.8418 1.77026 11.925 1.74338 11.9841 1.72555C12.0137 1.71663 12.0374 1.70988 12.0545 1.70504L12.0818 1.69723H12.0837L12.0847 1.69625H12.0857C12.4473 1.59967 12.8249 1.78503 12.9705 2.12985L12.9714 2.13082L12.9744 2.13961C12.9764 2.14456 12.979 2.15131 12.9822 2.15914C12.9885 2.17493 12.9973 2.19658 13.0076 2.2236C13.0282 2.27796 13.0566 2.35482 13.0886 2.45114C13.1525 2.64347 13.2332 2.91666 13.3064 3.24996C13.452 3.91282 13.5709 4.8364 13.449 5.8525C13.3355 6.79747 12.9777 7.58757 12.5017 8.40328C11.662 9.84203 10.2491 10.8542 9.11402 11.4931C8.53741 11.8177 8.0102 12.0582 7.62672 12.2177C7.43477 12.2976 7.27758 12.3577 7.16676 12.3984C7.1113 12.4188 7.06691 12.4336 7.0359 12.4443C7.02062 12.4496 7.00859 12.454 6.99976 12.457C6.99542 12.4585 6.99172 12.46 6.98902 12.4609C6.98766 12.4614 6.98603 12.4616 6.98511 12.4619L6.98414 12.4629L6.74976 11.75L6.98316 12.4629C6.83155 12.5125 6.66798 12.5125 6.51636 12.4629L6.74976 11.75L6.51539 12.4629L6.51441 12.4619C6.51349 12.4616 6.51186 12.4614 6.51051 12.4609C6.50781 12.46 6.50411 12.4585 6.49976 12.457C6.49094 12.454 6.47891 12.4496 6.46363 12.4443C6.43262 12.4336 6.38822 12.4188 6.33277 12.3984C6.22195 12.3577 6.06476 12.2976 5.87281 12.2177C5.48932 12.0582 4.96212 11.8177 4.38551 11.4931C3.25046 10.8542 1.83749 9.84203 0.99781 8.40328C0.521818 7.58757 0.163982 6.79747 0.0505441 5.8525C-0.0714193 4.8364 0.0475738 3.91282 0.193122 3.24996C0.266321 2.91666 0.347005 2.64347 0.410896 2.45114C0.44289 2.35482 0.471321 2.27796 0.49195 2.2236C0.502207 2.19658 0.511008 2.17493 0.517341 2.15914C0.520488 2.1513 0.523117 2.14456 0.525153 2.13961L0.528083 2.13082L0.52906 2.12985L0.594489 2.00778C0.769192 1.74285 1.09752 1.61176 1.41383 1.69625H1.4148L1.41578 1.69723H1.41773L1.44508 1.70504C1.46212 1.70988 1.4858 1.71663 1.51539 1.72555C1.57456 1.74338 1.65776 1.77027 1.76148 1.80563C1.96882 1.87632 2.25945 1.98378 2.60035 2.13473C3.06728 2.34151 3.63705 2.63413 4.22535 3.02828C4.56589 2.32419 4.9658 1.72374 5.31324 1.26559C5.56088 0.939053 5.78611 0.679023 5.95093 0.498987C6.03338 0.408939 6.10079 0.338143 6.14918 0.289026C6.17331 0.264526 6.19281 0.245151 6.20679 0.231409C6.21379 0.224533 6.22013 0.218906 6.22437 0.214808L6.23121 0.207972H6.23218V0.206995ZM6.50855 2.17184C6.07442 2.74428 5.57178 3.53706 5.2566 4.44821C5.06636 4.99821 4.94803 5.58188 4.94801 6.18063C4.94801 7.4782 5.50514 8.72821 6.10914 9.69137C6.3331 10.0485 6.55749 10.3567 6.74976 10.6015C6.94203 10.3567 7.16643 10.0485 7.39039 9.69137C7.99439 8.72821 8.55152 7.4782 8.55152 6.18063C8.55149 5.58188 8.43317 4.99821 8.24293 4.44821C7.92774 3.53706 7.42511 2.74428 6.99097 2.17184C6.90714 2.0613 6.82519 1.96079 6.74976 1.8691C6.67433 1.96079 6.59238 2.0613 6.50855 2.17184ZM1.65797 3.57125C1.53634 4.12508 1.44365 4.87274 1.5398 5.67379C1.6183 6.32763 1.86488 6.91153 2.29371 7.64645C2.79287 8.50187 3.59456 9.2056 4.41871 9.75387C3.89896 8.764 3.44801 7.52509 3.44801 6.18063C3.44803 5.58253 3.53628 5.0104 3.67945 4.47653C3.08335 4.03907 2.48023 3.72162 1.99293 3.50582C1.89089 3.46064 1.79346 3.42185 1.70386 3.38571C1.68921 3.44461 1.67226 3.50616 1.65797 3.57125ZM11.5066 3.50582C11.0191 3.7217 10.4154 4.03883 9.8191 4.47653C9.96231 5.01047 10.0515 5.58244 10.0515 6.18063C10.0515 7.52527 9.59968 8.76394 9.07984 9.75387C9.90422 9.20553 10.7065 8.5021 11.2058 7.64645C11.6346 6.91153 11.8812 6.32763 11.9597 5.67379C12.0559 4.87274 11.9632 4.12508 11.8416 3.57125C11.8272 3.50608 11.8094 3.44468 11.7947 3.38571C11.7053 3.42177 11.6083 3.46078 11.5066 3.50582Z" fill="currentColor" />

</g>
</svg>
