<svg viewBox="0 0 24 24" fill="none" xmlns="http://www.w3.org/2000/svg">
<g transform="translate(2.2502, 2.5002)">
<path d="M9.75 10C12.2676 10 14.6599 10.8362 16.4443 12.1924C18.2203 13.5422 19.5 15.5015 19.5 17.75C19.5 18.4404 18.9404 19 18.25 19H1.25C0.559644 19 0 18.4404 0 17.75C0 15.5015 1.27974 13.5422 3.05566 12.1924C4.8401 10.8362 7.23244 10 9.75 10ZM9.75 12.5C7.76773 12.5 5.90987 13.1639 4.56934 14.1826C3.66914 14.8668 3.05023 15.6699 2.7373 16.5H16.7627C16.4498 15.6699 15.8309 14.8668 14.9307 14.1826C13.5901 13.1639 11.7323 12.5 9.75 12.5ZM9.75 0C12.0972 0 14 1.90279 14 4.25C14 6.59721 12.0972 8.5 9.75 8.5C7.40279 8.5 5.5 6.59721 5.5 4.25C5.5 1.90279 7.40279 0 9.75 0ZM9.75 2.5C8.7835 2.5 8 3.2835 8 4.25C8 5.2165 8.7835 6 9.75 6C10.7165 6 11.5 5.2165 11.5 4.25C11.5 3.2835 10.7165 2.5 9.75 2.5Z" fill="currentColor" />

</g>
</svg>
