<svg viewBox="0 0 24 24" fill="none" xmlns="http://www.w3.org/2000/svg">
<g transform="translate(0.4999, 0.4999)">
<path d="M3.36827 3.36827C7.8593 -1.12276 15.1409 -1.12276 19.6319 3.36827C24.123 7.8593 24.123 15.1409 19.6319 19.6319C15.1409 24.123 7.8593 24.123 3.36827 19.6319C-1.12276 15.1409 -1.12276 7.8593 3.36827 3.36827ZM17.5109 5.48937C14.1914 2.16991 8.80882 2.16991 5.48937 5.48937C2.16991 8.80882 2.16991 14.1914 5.48937 17.5109C8.80882 20.8303 14.1914 20.8303 17.5109 17.5109C20.8303 14.1914 20.8303 8.80882 17.5109 5.48937ZM12.2501 6.50011C12.3882 6.50011 12.5001 6.61204 12.5001 6.75011V10.7501C12.5001 10.8882 12.612 11.0001 12.7501 11.0001H16.2501C16.3882 11.0001 16.5001 11.112 16.5001 11.2501V13.7501C16.5001 13.8882 16.3882 14.0001 16.2501 14.0001H11.0001C10.1717 14.0001 9.50011 13.3285 9.50011 12.5001V6.75011C9.50011 6.61204 9.61204 6.50011 9.75011 6.50011H12.2501Z" fill="currentColor" />

</g>
</svg>
