<svg viewBox="0 0 24 24" fill="none" xmlns="http://www.w3.org/2000/svg">
<g transform="translate(2.7503, 2.6037)">
<path d="M8.82315 0.0731737C8.92078 -0.0243597 9.07907 -0.0244227 9.17666 0.0731737L10.5907 1.48919C10.6882 1.5868 10.6882 1.7451 10.5907 1.8427L4.26748 8.17278H18.2499C18.3878 8.17283 18.4997 8.28495 18.4999 8.42278V10.4257C18.4999 10.5638 18.3879 10.6757 18.2499 10.6757H4.26748L10.5897 16.9501C10.6877 17.0476 10.6875 17.2068 10.5897 17.3046L9.17569 18.7197C9.07833 18.817 8.92086 18.8176 8.82315 18.7206L0.366116 10.3095C-0.122039 9.8208 -0.122039 9.02867 0.366116 8.53997L8.82315 0.0731737Z" fill="currentColor" />

</g>
</svg>
