<svg viewBox="0 0 24 24" fill="none" xmlns="http://www.w3.org/2000/svg">
<g transform="translate(4.0648, 0.9999)">
<path d="M11.5871 0C12.0107 0 12.3268 0.389652 12.2404 0.804688L11.8341 2.73828C14.1709 3.15725 15.8703 4.60684 15.8703 6.84082C15.8702 8.88392 14.438 10.2707 12.6994 10.7637C14.0853 11.445 14.9776 12.7843 14.9777 14.4287C14.9777 17.2242 12.4639 19.3857 8.51674 19.3857H8.13295L7.69643 21.4688C7.63102 21.7802 7.35495 22.0023 7.03725 22L4.57143 21.9814C4.14949 21.9783 3.836 21.5882 3.92299 21.1748L4.30385 19.3857H0.500142C0.180232 19.3856 -0.0566453 19.0895 0.0118605 18.7773L3.49721 3.00293C3.54798 2.77441 3.7505 2.61154 3.98452 2.61133H8.02846L8.4728 0.52832C8.53821 0.219964 8.80978 0 9.12514 0H11.5871ZM5.28627 12.1973L4.39858 16.2148H8.42299C10.1617 16.2148 11.172 15.3447 11.172 14.0996C11.172 12.8779 10.1857 12.1973 8.56459 12.1973H5.28627ZM6.69741 5.80664L5.94057 9.23633H9.80971C11.1489 9.23626 12.088 8.62527 12.088 7.42773C12.088 6.41705 11.3131 5.80664 9.97377 5.80664H6.69741Z" fill="currentColor" />

</g>
</svg>
