<svg viewBox="0 0 24 24" fill="none" xmlns="http://www.w3.org/2000/svg">
<g transform="translate(0.5000, 2.5000)">
<path d="M19.5 0C21.433 0 23 1.567 23 3.5V15.5C23 17.433 21.433 19 19.5 19H3.5C1.567 19 0 17.433 0 15.5V3.5C0 1.567 1.567 0 3.5 0H19.5ZM3.5 3C3.22386 3 3 3.22386 3 3.5V15.5C3 15.7761 3.22386 16 3.5 16H19.5C19.7761 16 20 15.7761 20 15.5V3.5C20 3.22386 19.7761 3 19.5 3H3.5ZM10.25 6C10.3881 6 10.5 6.11193 10.5 6.25V8.75C10.5 8.88807 10.3881 9 10.25 9H6.75C6.61193 9 6.5 8.88807 6.5 8.75V6.25C6.5 6.11193 6.61193 6 6.75 6H10.25Z" fill="currentColor" />

</g>
</svg>
