<svg viewBox="0 0 24 24" fill="none" xmlns="http://www.w3.org/2000/svg">
<g transform="translate(3.2197, 3.2197)">
<path d="M15.7197 0.0732048C15.8173 -0.0243889 15.9756 -0.0244138 16.0732 0.0732048L17.4873 1.48727C17.5848 1.58489 17.5849 1.74317 17.4873 1.84078L10.5478 8.78024L17.4873 15.7197C17.5848 15.8173 17.5849 15.9756 17.4873 16.0732L16.0732 17.4873C15.9756 17.5849 15.8173 17.5848 15.7197 17.4873L8.78025 10.5478L1.8408 17.4873C1.74319 17.5849 1.58492 17.5848 1.48729 17.4873L0.073223 16.0732C-0.0244079 15.9756 -0.0244075 15.8173 0.073223 15.7197L7.01268 8.78024L0.073223 1.84078C-0.0244078 1.74315 -0.0244073 1.5849 0.073223 1.48727L1.48729 0.0732048C1.58492 -0.0243893 1.74318 -0.0244139 1.8408 0.0732048L8.78025 7.01266L15.7197 0.0732048Z" fill="currentColor" />

</g>
</svg>
