<svg viewBox="0 0 24 24" fill="none" xmlns="http://www.w3.org/2000/svg">
<g transform="translate(3.5003, 2.5003)">
<path d="M15.5 5C16.3284 5 17 5.67157 17 6.5V17.5L16.9922 17.6533C16.9154 18.4097 16.2767 19 15.5 19H6.5L6.34668 18.9922C5.64069 18.9205 5.07949 18.3593 5.00781 17.6533L5 17.5V6.5C5 5.72334 5.59028 5.08461 6.34668 5.00781L6.5 5H15.5ZM7.5 16.5H14.5V7.5H7.5V16.5ZM12 2.5H2.5V15H0V1.5C2.23479e-06 0.723338 0.590278 0.0846092 1.34668 0.0078125L1.5 0H12V2.5Z" fill="currentColor" />

</g>
</svg>
