<svg viewBox="0 0 24 24" fill="none" xmlns="http://www.w3.org/2000/svg">
<g transform="translate(2.5003, 2.5003)">
<path d="M2.18503 2.18503C5.09843 -0.72838 9.82235 -0.728304 12.7358 2.18503C15.3483 4.79756 15.6163 8.8646 13.5434 11.7778L18.8208 17.0561C18.9194 17.1548 18.9691 17.2044 18.9878 17.2612C19.004 17.3112 19.004 17.3654 18.9878 17.4155C18.9692 17.4725 18.9196 17.5227 18.8208 17.6215L17.6215 18.8208C17.5227 18.9196 17.4725 18.9692 17.4155 18.9878C17.3654 19.004 17.3112 19.004 17.2612 18.9878C17.2044 18.9691 17.1548 18.9194 17.0561 18.8208L11.7778 13.5434C8.8646 15.6163 4.79756 15.3483 2.18503 12.7358C-0.728304 9.82235 -0.72838 5.09843 2.18503 2.18503ZM10.9712 3.94967C9.03246 2.0111 5.88832 2.01103 3.94967 3.94967C2.01103 5.88832 2.0111 9.03246 3.94967 10.9712C5.88836 12.9098 9.03248 12.9098 10.9712 10.9712C12.9098 9.03248 12.9098 5.88836 10.9712 3.94967Z" fill="currentColor" />

</g>
</svg>
