<svg viewBox="0 0 24 24" fill="none" xmlns="http://www.w3.org/2000/svg">
<g transform="translate(2.0000, 2.5000)">
<path d="M15.75 11C15.8881 11 16 11.1119 16 11.25V13.75H19.75C19.8881 13.75 20 13.8619 20 14V16C20 16.1381 19.8881 16.25 19.75 16.25H16V18.75C16 18.8881 15.8881 19 15.75 19H13.75C13.6119 19 13.5 18.8881 13.5 18.75V11.25C13.5 11.1119 13.6119 11 13.75 11H15.75ZM11.5 16.25H0.25C0.111929 16.25 0 16.1381 0 16V14C0 13.8619 0.111929 13.75 0.25 13.75H11.5V16.25ZM9.25 0C9.38807 0 9.5 0.111929 9.5 0.25V2.75H19.75C19.8881 2.75 20 2.86193 20 3V5C20 5.13807 19.8881 5.25 19.75 5.25H9.5V7.75C9.5 7.88807 9.38807 8 9.25 8H7.25C7.11193 8 7 7.88807 7 7.75V0.25C7 0.111929 7.11193 0 7.25 0H9.25ZM5 5.25H0.25C0.111929 5.25 0 5.13807 0 5V3C0 2.86193 0.111929 2.75 0.25 2.75H5V5.25Z" fill="currentColor" />

</g>
</svg>
