<svg viewBox="0 0 24 24" fill="none" xmlns="http://www.w3.org/2000/svg">
<g transform="translate(5.7502, 1.5270)">
<path d="M5.01942 0.138619C5.08115 0.0151554 5.23187 -0.0353741 5.35536 0.0263148L7.14442 0.919869C7.26785 0.981638 7.31749 1.13233 7.25575 1.25581L3.27235 9.22358H11.2499C11.6829 9.22366 12.0856 9.44809 12.3134 9.81635C12.5408 10.1846 12.5613 10.645 12.3681 11.0322L7.47938 20.8085C7.41757 20.9318 7.26782 20.9815 7.14442 20.9199L5.35536 20.0263C5.23195 19.9647 5.18161 19.8148 5.24305 19.6914L9.22743 11.7236H1.24989C0.8168 11.7236 0.414206 11.4991 0.186413 11.1308C-0.0410251 10.7625 -0.0616529 10.3022 0.131726 9.91499L5.01942 0.138619Z" fill="currentColor" />

</g>
</svg>
