<svg viewBox="0 0 24 24" fill="none" xmlns="http://www.w3.org/2000/svg">
<g transform="translate(2.2728, 1.5261)">
<path d="M8.49672 0.138651C8.55847 0.0151559 8.70916 -0.0354014 8.83266 0.0263459L10.6217 0.920877C10.7452 0.982645 10.7948 1.13333 10.733 1.25681L7.81117 7.09959L10.2018 9.22459H14.7272C15.1601 9.22477 15.563 9.44919 15.7907 9.81736C16.0177 10.1855 16.0385 10.6462 15.8454 11.0332L14.734 13.2539L19.3698 17.374C19.4726 17.4656 19.4825 17.6234 19.3913 17.7265L18.0631 19.2226C17.9714 19.3255 17.8127 19.3346 17.7096 19.2431L13.5768 15.5693L10.9567 20.8095C10.8948 20.9327 10.7451 20.9825 10.6217 20.9209L8.83266 20.0273C8.7093 19.9657 8.65902 19.8158 8.72035 19.6924L11.6413 13.8496L9.2516 11.7246H4.72719C4.29432 11.7246 3.89157 11.4998 3.66371 11.1318C3.43634 10.7636 3.41584 10.3032 3.60902 9.91599L4.7184 7.69529L0.0836332 3.57517C-0.0194658 3.48353 -0.028345 3.32584 0.0631254 3.22263L1.39125 1.72654C1.48301 1.62376 1.64073 1.6145 1.74379 1.70603L5.8766 5.37986L8.49672 0.138651Z" fill="currentColor" />

</g>
</svg>
