<svg viewBox="0 0 24 24" fill="none" xmlns="http://www.w3.org/2000/svg">
<g transform="translate(5.3184, 1.7496)">
<path d="M6.68255 16.25C7.51082 16.2502 8.18252 16.9217 8.18255 17.75C8.18255 18.5783 7.51084 19.2498 6.68255 19.25C5.8542 19.2499 5.18255 18.5784 5.18255 17.75C5.18258 16.9217 5.85422 16.2501 6.68255 16.25ZM6.68255 0C10.2693 0.000141514 12.9325 2.72456 12.9325 6.1709C12.9324 7.91421 12.2202 9.35921 11.0478 10.373C10.1825 11.1212 9.10129 11.6057 7.93255 11.8428V14C7.93255 14.1381 7.82062 14.25 7.68255 14.25H5.68255C5.54455 14.2499 5.43255 14.138 5.43255 14V9.81055C5.43255 9.6786 5.53526 9.56888 5.66692 9.56055L6.60442 9.50195C7.78834 9.42811 8.76048 9.04662 9.41302 8.48242C10.0418 7.93867 10.4325 7.18088 10.4325 6.1709C10.4325 4.10991 8.89327 2.50014 6.68255 2.5C4.51935 2.50008 2.95795 4.03466 2.46184 6.16016C2.43049 6.29453 2.30049 6.38414 2.16497 6.3584L0.201102 5.98242C0.0655107 5.95648 -0.0242011 5.82518 0.00578982 5.69043C0.676886 2.67569 3.04025 8.33991e-05 6.68255 0Z" fill="currentColor"/>
</g>
</svg>