<svg viewBox="0 0 24 24" fill="none" xmlns="http://www.w3.org/2000/svg">
<g transform="translate(1.7497, 1.7497)">
<path d="M10.25 0C15.9109 0 20.5 4.58908 20.5 10.25C20.5 15.9109 15.9109 20.5 10.25 20.5C4.58908 20.5 1.28852e-07 15.9109 0 10.25C0 4.58908 4.58908 4.7675e-07 10.25 0ZM10.25 14.5C9.64692 14.5 9.04619 14.5152 8.4541 14.5449C8.58825 15.1285 8.75037 15.6724 8.94043 16.1611C9.24613 16.9471 9.56551 17.4445 9.83496 17.7256C10.0993 18.0012 10.2418 18 10.25 18C10.2582 18 10.4007 18.0012 10.665 17.7256C10.9345 17.4445 11.2539 16.9471 11.5596 16.1611C11.7496 15.6725 11.9108 15.1284 12.0449 14.5449C11.4532 14.5152 10.8528 14.5 10.25 14.5ZM5.94336 14.7676C5.32903 14.8474 4.73658 14.9441 4.1748 15.0586C4.8389 15.8965 5.6716 16.5937 6.62305 17.0986C6.61895 17.0882 6.61443 17.0779 6.61035 17.0674C6.33551 16.3607 6.1143 15.5846 5.94336 14.7676ZM14.5557 14.7676C14.3847 15.5845 14.1645 16.3607 13.8896 17.0674C13.8855 17.078 13.8801 17.0881 13.876 17.0986C14.8276 16.5938 15.66 15.8965 16.3242 15.0586C15.7624 14.9441 15.17 14.8473 14.5557 14.7676ZM2.92285 7.72363C2.64982 8.51565 2.5 9.36524 2.5 10.25C2.5 11.1344 2.65001 11.9836 2.92285 12.7754C3.75978 12.5748 4.65617 12.4149 5.58691 12.293C5.52913 11.6158 5.5 10.9304 5.5 10.25C5.5 9.56926 5.52908 8.88355 5.58691 8.20605C4.65613 8.0841 3.75981 7.92421 2.92285 7.72363ZM17.5762 7.72363C16.7392 7.92417 15.8429 8.08413 14.9121 8.20605C14.97 8.88358 15 9.56923 15 10.25C15 10.9304 14.9699 11.6158 14.9121 12.293C15.8429 12.4149 16.7392 12.5749 17.5762 12.7754C17.8491 11.9835 18 11.1345 18 10.25C18 9.36513 17.8493 8.51573 17.5762 7.72363ZM12.4229 8.4375C11.7022 8.47857 10.9746 8.5 10.25 8.5C9.52504 8.5 8.79709 8.47861 8.07617 8.4375C8.02615 9.02959 8 9.63736 8 10.25C8 10.8623 8.02621 11.4697 8.07617 12.0615C8.79708 12.0204 9.52506 12 10.25 12C10.9746 12 11.7023 12.0205 12.4229 12.0615C12.4728 11.4697 12.5 10.8623 12.5 10.25C12.5 9.63733 12.4729 9.02962 12.4229 8.4375ZM10.25 2.5C10.2418 2.5 10.0993 2.49879 9.83496 2.77441C9.56551 3.05546 9.24613 3.55285 8.94043 4.33887C8.75048 4.82732 8.58821 5.37089 8.4541 5.9541C9.0462 5.98383 9.6469 6 10.25 6C10.8528 6 11.4531 5.9838 12.0449 5.9541C11.9108 5.37097 11.7495 4.82726 11.5596 4.33887C11.2539 3.55285 10.9345 3.05546 10.665 2.77441C10.4007 2.49879 10.2582 2.5 10.25 2.5ZM6.62305 3.40039C5.67166 3.90521 4.83892 4.60269 4.1748 5.44043C4.7366 5.55492 5.329 5.65166 5.94336 5.73145C6.11427 4.91478 6.33562 4.13908 6.61035 3.43262C6.61454 3.42184 6.61883 3.41113 6.62305 3.40039ZM13.8896 3.43262C14.1644 4.13902 14.3848 4.91486 14.5557 5.73145C15.17 5.65168 15.7624 5.5549 16.3242 5.44043C15.66 4.60268 14.8275 3.90515 13.876 3.40039C13.8802 3.41124 13.8854 3.42173 13.8896 3.43262Z" fill="currentColor" />

</g>
</svg>
