<svg viewBox="0 0 24 24" fill="none" xmlns="http://www.w3.org/2000/svg">
<g transform="translate(0.4992, 1.9992)">
<path d="M4.74978 12.5C4.88765 12.5002 4.99978 12.6121 4.99978 12.75V17H17.9998V12.75C17.9998 12.6119 18.1117 12.5 18.2498 12.5H20.7498C20.8877 12.5002 20.9998 12.6121 20.9998 12.75V18.5C20.9998 19.3282 20.3279 19.9996 19.4998 20H3.49978C2.67135 20 1.99978 19.3284 1.99978 18.5V12.75C1.99978 12.6119 2.11171 12.5 2.24978 12.5H4.74978ZM17.4998 0C18.0378 0.000248397 18.5356 0.288698 18.8025 0.755859L22.8025 7.75586C23.0251 8.1458 23.0613 8.61566 22.9011 9.03516C22.7409 9.45465 22.4003 9.78058 21.9744 9.92285C17.1451 11.5326 14.1144 11.1248 11.2312 10.6006C8.49107 10.1024 6.00387 9.53534 1.82498 10.4639C1.2533 10.5909 0.659854 10.3734 0.305445 9.90723C-0.048846 9.44081 -0.0990977 8.81076 0.176539 8.29395L4.17654 0.793945C4.40474 0.366488 4.82274 0.078714 5.2947 0.0136719L5.49978 0H17.4998ZM4.23806 7.05371C7.37013 6.77249 9.64476 7.26331 11.7683 7.64941C13.991 8.05352 16.1082 8.35774 19.2517 7.58887L16.6287 3H6.3992L4.23806 7.05371Z" fill="currentColor"/>
</g>
</svg>