<svg viewBox="0 0 24 24" fill="none" xmlns="http://www.w3.org/2000/svg">
<g transform="translate(3.0, 1.9992)">
<path d="M10.9281 0C13.659 1.74279e-08 15.4661 1.20473 16.7914 2.97168C16.9922 3.21264 16.9522 3.53455 16.7514 3.73535L14.7436 5.66309C14.4624 5.94405 14.0205 5.86311 13.8197 5.58203C13.1772 4.57812 12.2932 3.89551 11.0483 3.89551C9.52231 3.89567 8.15753 4.89976 8.19768 7.1084C8.19768 7.42958 8.1976 7.83103 8.23772 8.19238H12.936C13.3376 8.19238 13.5787 8.55457 13.5385 8.91602L13.0571 11.0439C12.9768 11.3651 12.7355 11.5263 12.4545 11.5264H8.84026C9.0008 13.1327 8.51861 15.3013 7.63518 16.1045H14.9438C15.3052 16.1045 15.5865 16.4657 15.5063 16.8271L14.9037 19.5186C14.8233 19.7993 14.6229 19.9998 14.3422 20H0.606858C0.205346 20 -0.0357038 19.6387 0.00431872 19.2773L0.486741 17.1484C0.526974 16.9477 0.687378 16.7472 0.888108 16.707C3.05676 16.0243 4.82365 14.3772 4.82365 12.6904C4.82361 12.4896 4.78371 12.1284 4.74358 11.9277L4.6635 11.5664H2.37346C2.01234 11.5661 1.73188 11.2049 1.81194 10.8438L2.2133 8.6748C2.29362 8.39368 2.53472 8.2334 2.81584 8.2334H3.89983C3.77934 7.67115 3.73967 7.10815 3.73967 6.5459C3.73983 2.44968 7.07282 0 10.9281 0Z" fill="currentColor"/>
</g>
</svg>