<svg viewBox="0 0 24 24" fill="none" xmlns="http://www.w3.org/2000/svg">
<g transform="translate(3.0, 1.9992)">
<path d="M12.0923 0C14.0454 8.57777e-06 15.638 0.539859 16.8882 1.41309C17.2064 1.6354 17.2399 2.09594 16.9653 2.37012L15.1147 4.22168C14.901 4.43538 14.5697 4.45536 14.3169 4.28906C13.7354 3.90632 13.0288 3.67579 12.0923 3.67578C11.1644 3.67578 8.36999 3.78459 7.24657 8.1416H11.1362C11.4118 8.1418 11.6182 8.393 11.5649 8.66309L11.1284 10.8906C11.0703 11.1856 10.8127 11.3984 10.5122 11.3984H6.8159C6.77296 15.848 9.46059 16.3516 10.3091 16.3516C11.108 16.3515 11.8289 16.1434 12.4829 15.707C12.7329 15.5399 13.0659 15.5674 13.2788 15.7803L14.9214 17.4238C15.1809 17.6829 15.1682 18.113 14.8862 18.3477C13.6692 19.3585 12.1464 20 10.0659 20C7.56351 20 2.44362 18.8968 2.49168 11.3984H0.437973C0.16271 11.3984 -0.0446383 11.1461 0.00828571 10.876L0.445786 8.64844C0.503611 8.35366 0.761634 8.14171 1.062 8.1416H2.80614C4.26927 0.552181 10.336 0 12.0923 0Z" fill="currentColor"/>
</g>
</svg>