<svg viewBox="0 0 24 24" fill="none" xmlns="http://www.w3.org/2000/svg">
<g transform="translate(2.5003, 3.7502)">
<path d="M18.75 14C18.8881 14 19 14.1119 19 14.25V16.25C19 16.3881 18.8881 16.5 18.75 16.5H0.25C0.111929 16.5 0 16.3881 0 16.25V14.25C0 14.1119 0.111929 14 0.25 14H18.75ZM18.75 7C18.8881 7 19 7.11193 19 7.25V9.25C19 9.38807 18.8881 9.5 18.75 9.5H0.25C0.111929 9.5 0 9.38807 0 9.25V7.25C0 7.11193 0.111929 7 0.25 7H18.75ZM18.75 0C18.8881 0 19 0.111929 19 0.25V2.25C19 2.38807 18.8881 2.5 18.75 2.5H0.25C0.111929 2.5 0 2.38807 0 2.25V0.25C3.22128e-08 0.111929 0.111929 0 0.25 0H18.75Z" fill="currentColor" />

</g>
</svg>
