<svg viewBox="0 0 24 24" fill="none" xmlns="http://www.w3.org/2000/svg">
<g transform="translate(2.9998, 5.8636)">
<path d="M16.3449 8.2168C16.4343 8.1587 16.5546 8.17537 16.6232 8.25586L17.9523 9.81934C18.0259 9.90596 18.0132 10.0351 17.9201 10.1016C17.2633 10.5632 16.5176 10.9045 15.7687 11.1846C14.2782 11.742 12.0533 12.2724 9.00018 12.2725C5.94703 12.2724 3.72213 11.742 2.23163 11.1846C1.48276 10.9044 0.736764 10.563 0.0802628 10.1016C-0.0128096 10.0352 -0.0263563 9.90596 0.0470597 9.81934L1.37616 8.25586C1.44471 8.17519 1.56601 8.15868 1.65546 8.2168C2.11095 8.51387 2.61629 8.73576 3.12421 8.92578C4.32829 9.3761 6.25057 9.85344 9.00018 9.85352C11.7499 9.85346 13.672 9.37611 14.8762 8.92578C15.3841 8.73577 15.8894 8.51384 16.3449 8.2168ZM5.4289 0C5.59444 7.19512e-05 5.72857 0.134272 5.7287 0.299805V3.79102C5.72869 3.95665 5.59452 4.09075 5.4289 4.09082H3.5744C3.40892 4.09059 3.27461 3.95655 3.2746 3.79102V0.299805C3.27473 0.134373 3.409 0.000234742 3.5744 0H5.4289ZM17.7004 0C17.8658 0.000178178 18 0.134374 18.0002 0.299805V3.79102C18.0002 3.9566 17.8659 4.09064 17.7004 4.09082H15.8459C15.6804 4.09059 15.5451 3.95656 15.5451 3.79102V0.299805C15.5453 0.134409 15.6805 0.000234841 15.8459 0H17.7004Z" fill="currentColor" />

</g>
</svg>
