<svg viewBox="0 0 24 24" fill="none" xmlns="http://www.w3.org/2000/svg">
<path d="M12 0C18.6274 0 24 5.37258 24 12C24 18.6274 18.6274 24 12 24C5.37258 24 0 18.6274 0 12C0 5.37258 5.37258 0 12 0ZM5.53906 13.2266C5.42939 13.1491 5.27594 13.1584 5.18457 13.2568C4.88908 13.575 4.25457 14.2577 3.80957 14.7344C3.71755 14.8329 3.71944 14.9878 3.82129 15.0762C4.35276 15.5373 5.04534 15.8707 5.66992 16.1445C6.96521 16.7123 8.88591 17.25 11.5 17.25C14.1141 17.25 16.0348 16.7123 17.3301 16.1445C17.9547 15.8707 18.6472 15.5373 19.1787 15.0762C19.2806 14.9878 19.2825 14.8329 19.1904 14.7344C18.7454 14.2577 18.1109 13.575 17.8154 13.2568C17.7241 13.1584 17.5706 13.1491 17.4609 13.2266C17.2499 13.3756 16.8671 13.6183 16.3262 13.8555C15.3402 14.2876 13.7608 14.75 11.5 14.75C9.23924 14.75 7.6598 14.2876 6.67383 13.8555C6.13287 13.6183 5.75006 13.3756 5.53906 13.2266ZM4.25 7C4.11193 7 4 7.11193 4 7.25V9.75C4 9.88807 4.11193 10 4.25 10H6.25C6.38807 10 6.5 9.88807 6.5 9.75V7.25C6.5 7.11193 6.38807 7 6.25 7H4.25ZM13.25 7C13.1119 7 13 7.11193 13 7.25V9.75C13 9.88807 13.1119 10 13.25 10H15.25C15.3881 10 15.5 9.88807 15.5 9.75V7.25C15.5 7.11193 15.3881 7 15.25 7H13.25Z" fill="currentColor" />

</svg>
