<svg viewBox="0 0 24 24" fill="none" xmlns="http://www.w3.org/2000/svg">
<g transform="translate(0.0521, 2.0000)">
<path d="M6.54798 9.00014C6.68788 9.00014 6.75819 9.00025 6.81165 9.02748C6.85859 9.05146 6.89709 9.08989 6.92102 9.13686C6.94818 9.19031 6.94739 9.26068 6.94739 9.40053V19.5997C6.94739 19.7395 6.9481 19.81 6.92102 19.8634C6.8971 19.9104 6.85855 19.9488 6.81165 19.9728C6.75819 20 6.68788 20.0001 6.54798 20.0001H4.34778C4.20779 20.0001 4.13758 20 4.08411 19.9728C4.03716 19.9488 3.99867 19.9104 3.97473 19.8634C3.94763 19.81 3.94739 19.7395 3.94739 19.5997V9.40053C3.94739 9.26063 3.94755 9.19032 3.97473 9.13686C3.99868 9.08986 4.03712 9.05146 4.08411 9.02748C4.13758 9.00024 4.20779 9.00014 4.34778 9.00014H6.54798ZM13.048 9.00014C13.1879 9.00014 13.2582 9.00025 13.3116 9.02748C13.3586 9.05146 13.3971 9.08989 13.421 9.13686C13.4482 9.19031 13.4474 9.26068 13.4474 9.40053V19.5997C13.4474 19.7395 13.4481 19.81 13.421 19.8634C13.3971 19.9104 13.3586 19.9488 13.3116 19.9728C13.2582 20 13.1879 20.0001 13.048 20.0001H10.8478C10.7078 20.0001 10.6376 20 10.5841 19.9728C10.5372 19.9488 10.4987 19.9104 10.4747 19.8634C10.4476 19.81 10.4474 19.7395 10.4474 19.5997V9.40053C10.4474 9.26063 10.4476 9.19032 10.4747 9.13686C10.4987 9.08986 10.5371 9.05146 10.5841 9.02748C10.6376 9.00024 10.7078 9.00014 10.8478 9.00014H13.048ZM19.548 9.00014C19.6879 9.00014 19.7582 9.00025 19.8116 9.02748C19.8586 9.05146 19.8971 9.08989 19.921 9.13686C19.9482 9.19031 19.9474 9.26067 19.9474 9.40053V19.5997C19.9474 19.7395 19.9481 19.81 19.921 19.8634C19.8971 19.9104 19.8586 19.9488 19.8116 19.9728C19.7582 20 19.6879 20.0001 19.548 20.0001H17.3478C17.2078 20.0001 17.1376 20 17.0841 19.9728C17.0372 19.9488 16.9987 19.9104 16.9747 19.8634C16.9476 19.81 16.9474 19.7395 16.9474 19.5997V9.40053C16.9474 9.26063 16.9475 9.19032 16.9747 9.13686C16.9987 9.08986 17.0371 9.05146 17.0841 9.02748C17.1376 9.00024 17.2078 9.00014 17.3478 9.00014H19.548ZM11.2247 0.185686C11.6749 -0.0618955 12.2209 -0.0618955 12.671 0.185686L23.6349 6.21596C23.7574 6.28336 23.819 6.31771 23.8527 6.36733C23.8821 6.41091 23.8973 6.46316 23.8956 6.51576C23.8936 6.57559 23.8593 6.63671 23.7921 6.75893L22.7316 8.68666C22.6642 8.80918 22.6307 8.87068 22.5812 8.90444C22.5375 8.9341 22.4855 8.94907 22.4327 8.94741C22.3728 8.9455 22.3113 8.91234 22.1886 8.84487L12.1407 3.3185C12.0706 3.2799 12.0353 3.25973 11.9982 3.25209C11.9652 3.24537 11.9305 3.24537 11.8976 3.25209C11.8604 3.25971 11.8253 3.27985 11.755 3.3185L1.70716 8.84487C1.58459 8.91228 1.52295 8.94545 1.46301 8.94741C1.41025 8.94907 1.35825 8.9341 1.31458 8.90444C1.26498 8.8707 1.23064 8.80926 1.16321 8.68666L0.10364 6.75893C0.0363925 6.63666 0.00215054 6.57559 0.000124151 6.51576C-0.00154061 6.46313 0.0135764 6.41093 0.0430929 6.36733C0.0768112 6.31769 0.138242 6.28341 0.260866 6.21596L11.2247 0.185686Z" fill="currentColor" />

</g>
</svg>
