<svg viewBox="0 0 24 24" fill="none" xmlns="http://www.w3.org/2000/svg">
<g transform="translate(1.9992, 3.0)">
<path d="M8.75 0C8.88807 0 9 0.111929 9 0.25V2.25C9 2.38807 8.88807 2.5 8.75 2.5H5C3.61934 2.50007 2.5 3.61933 2.5 5V15.5H15C16.3807 15.4999 17.5 14.3807 17.5 13V11.25C17.5 11.1119 17.6119 11 17.75 11H19.75C19.8881 11 20 11.1119 20 11.25V13C20 15.7614 17.7614 17.9999 15 18H1.5L1.34668 17.9922C0.640751 17.9205 0.0794924 17.3593 0.0078125 16.6533L0 16.5V5C0 2.32476 2.10116 0.140589 4.74316 0.00683594L5 0H8.75ZM16.7451 3.25488H20V5.75488H16.7451V9H14.2451V5.75488H11V3.25488H14.2451V0H16.7451V3.25488Z" fill="currentColor"/>
</g>
</svg>