<svg viewBox="0 0 24 24" fill="none" xmlns="http://www.w3.org/2000/svg">
<g transform="translate(3.7872, 2.0016)">
<path d="M12.0965 18.3838C11.0591 19.4208 9.58549 19.8749 8.21272 19.875C6.83991 19.8749 5.36626 19.4209 4.32893 18.3838L6.09651 16.6162C6.559 17.0785 7.33624 17.3749 8.21272 17.375C9.08915 17.3749 9.86637 17.0784 10.3289 16.6162L12.0965 18.3838ZM8.21272 0C11.141 0 13.683 2.01747 14.3485 4.86914L16.3963 13.6455C16.5472 14.2942 16.0955 14.9169 15.453 14.9922L15.3221 15H1.10334C0.393187 14.9996 -0.131596 14.3372 0.0291233 13.6455L2.07697 4.86914C2.7424 2.01763 5.28462 0.000221286 8.21272 0ZM8.21272 2.5C6.44643 2.50022 4.91291 3.71738 4.51155 5.4375L2.86408 12.5H13.5613L11.9139 5.4375C11.5125 3.71722 9.97921 2.5 8.21272 2.5Z" fill="currentColor"/>
</g>
</svg>