<svg viewBox="0 0 24 24" fill="none" xmlns="http://www.w3.org/2000/svg">
<g transform="translate(0.7493, 0.7495)">
<path d="M11.166 0.00916441L20.166 1.00916C20.8631 1.08679 21.4137 1.63721 21.4912 2.33436L22.4912 11.3344C22.5415 11.7872 22.3828 12.2387 22.0605 12.5609L12.5605 22.0609C11.9748 22.6465 11.0252 22.6465 10.4395 22.0609L0.439453 12.0609C0.15823 11.7797 9.18413e-05 11.3981 0 11.0004C0 10.6026 0.158257 10.2211 0.439453 9.93983L9.93945 0.439828C10.2617 0.117616 10.7131 -0.0411582 11.166 0.00916441ZM3.62109 11.0004L11.5 18.8783L19.4297 10.9496L18.6416 3.85877L11.5508 3.07069L3.62109 11.0004ZM14.75 6.00038C15.716 6.00038 16.5 6.78438 16.5 7.75038C16.4998 8.71617 15.7159 9.50038 14.75 9.50038C13.7841 9.50038 13.0002 8.71617 13 7.75038C13 6.78438 13.784 6.00038 14.75 6.00038Z" fill="currentColor" />

</g>
</svg>
