<svg viewBox="0 0 24 24" fill="none" xmlns="http://www.w3.org/2000/svg">
<g transform="translate(2.7504, 0.2208)">
<path d="M10.957 0.0732051C11.0547 -0.0244138 11.2129 -0.0243896 11.3105 0.0732051L15.1338 3.89645C15.3682 4.13085 15.5 4.44876 15.5 4.78024C15.5 5.11169 15.3681 5.42963 15.1338 5.66403L11.3105 9.48727C11.2129 9.58477 11.0546 9.58486 10.957 9.48727L9.54297 8.07321C9.44542 7.97561 9.44547 7.81732 9.54297 7.71969L11.2324 6.03024H8.75C5.29831 6.0303 2.50005 8.82853 2.5 12.2802C2.50005 15.7319 5.29833 18.5302 8.75 18.5302C12.1179 18.5302 14.8637 15.866 14.9951 12.5302C15.0006 12.3924 15.112 12.2803 15.25 12.2802H17.25C17.3881 12.2802 17.501 12.3932 17.4971 12.5312C17.3642 17.2476 13.4985 21.0302 8.75 21.0302C3.91761 21.0302 4.73479e-05 17.1126 0 12.2802C4.74169e-05 7.44783 3.91759 3.5303 8.75 3.53024H11.2324L9.54297 1.84078C9.44542 1.74319 9.44547 1.5849 9.54297 1.48727L10.957 0.0732051Z" fill="currentColor"/>
</g>
</svg>