<svg viewBox="0 0 24 24" fill="none" xmlns="http://www.w3.org/2000/svg">
<g transform="translate(2.0000, 2.5000)">
<path d="M7.5 10C8.32842 10 8.99999 10.6716 9 11.5V17.5L8.99219 17.6533C8.91539 18.4097 8.27666 19 7.5 19H1.5C0.671574 19 0 18.3284 0 17.5V11.5C1.59559e-06 10.6716 0.671575 10 1.5 10H7.5ZM19.75 12C19.8881 12 20 12.1119 20 12.25V17.5L19.9922 17.6533C19.9205 18.3593 19.3593 18.9205 18.6533 18.9922L18.5 19H13.25C13.1119 19 13 18.8881 13 18.75V16.75C13 16.6119 13.1119 16.5 13.25 16.5H17.5V12.25C17.5 12.1119 17.6119 12 17.75 12H19.75ZM2.5 16.5H6.5V12.5H2.5V16.5ZM13.5 10C14.3284 10 15 10.6716 15 11.5C15 12.3284 14.3284 13 13.5 13C12.6716 13 12 12.3284 12 11.5C12 10.6716 12.6716 10 13.5 10ZM8.5 5C9.32843 5 10 5.67157 10 6.5C10 7.32843 9.32843 8 8.5 8C7.67157 8 7 7.32843 7 6.5C7 5.67157 7.67157 5 8.5 5ZM6.75 0C6.88807 4.027e-09 7 0.111929 7 0.25V2.25C7 2.38807 6.88807 2.5 6.75 2.5H2.5V6.75C2.5 6.88807 2.38807 7 2.25 7H0.25C0.111929 7 4.83192e-08 6.88807 0 6.75V1.5L0.0078125 1.34668C0.0794912 0.64069 0.64069 0.0794911 1.34668 0.0078125L1.5 0H6.75ZM18.5 0C19.3284 1.67153e-06 20 0.671579 20 1.5V5.5L19.9922 5.65332C19.9154 6.40972 19.2767 7 18.5 7H14.5C13.6716 7 13 6.32843 13 5.5V1.5C13 0.671575 13.6716 -5.78404e-07 14.5 0H18.5ZM15.5 4.5H17.5V2.5H15.5V4.5Z" fill="currentColor" />

</g>
</svg>
