<svg viewBox="0 0 24 24" fill="none" xmlns="http://www.w3.org/2000/svg">
<g transform="translate(0.7512, 2.7504)">
<path d="M18.8909 0.052732C19.3313 -0.0794034 19.8089 0.0410555 20.134 0.366209C20.4591 0.691367 20.5796 1.16895 20.4475 1.60937L15.0471 19.6094C14.8943 20.1182 14.4363 20.4754 13.9055 20.499C13.3748 20.5225 12.8871 20.2071 12.6897 19.7139L9.28833 11.2109L0.786377 7.81054C0.293074 7.61322 -0.0221923 7.12548 0.00122062 6.59472C0.024882 6.06389 0.381989 5.60595 0.890869 5.45312L18.8909 0.052732ZM5.03735 6.81836L9.94849 8.7832L11.6897 7.04297C11.7873 6.94538 11.9456 6.94535 12.0432 7.04297L13.4573 8.45703C13.5548 8.55469 13.5549 8.71297 13.4573 8.81054L11.7161 10.5508L13.6809 15.4619L17.385 3.11426L5.03735 6.81836Z" fill="currentColor"/>
</g>
</svg>