<svg viewBox="0 0 24 24" fill="none" xmlns="http://www.w3.org/2000/svg">
<g transform="translate(2.0000, 2.2500)">
<path d="M2.25 12.5C2.38807 12.5 2.5 12.6119 2.5 12.75V17H17.5V12.75C17.5 12.6119 17.6119 12.5 17.75 12.5H19.75C19.8881 12.5 20 12.6119 20 12.75V18L19.9922 18.1533C19.9205 18.8593 19.3593 19.4205 18.6533 19.4922L18.5 19.5H1.5L1.34668 19.4922C0.64069 19.4205 0.0794912 18.8593 0.0078125 18.1533L0 18V12.75C4.83192e-08 12.6119 0.111929 12.5 0.25 12.5H2.25ZM10 0C10.3313 9.11693e-05 10.6495 0.131955 10.8838 0.366211L15.707 5.18945C15.8047 5.28708 15.8047 5.44534 15.707 5.54297L14.293 6.95703C14.1953 7.05451 14.037 7.05461 13.9395 6.95703L11.25 4.26758V13.25C11.25 13.3881 11.1381 13.5 11 13.5H9C8.86205 13.4999 8.75 13.388 8.75 13.25V4.26758L6.06055 6.95703C5.9629 7.05451 5.80461 7.05461 5.70703 6.95703L4.29297 5.54297C4.19554 5.44538 4.19554 5.28705 4.29297 5.18945L9.11621 0.366211L9.20801 0.283203C9.43033 0.101147 9.71013 6.20709e-05 10 0Z" fill="currentColor" />

</g>
</svg>
