<svg viewBox="0 0 24 24" fill="none" xmlns="http://www.w3.org/2000/svg">
<g transform="translate(1.9992, 1.2504)">
<path d="M16.25 0C18.0449 7.84587e-08 19.5 1.45507 19.5 3.25C19.5 5.04493 18.0449 6.5 16.25 6.5C15.473 6.5 14.7603 6.2264 14.2012 5.77148L6.4834 9.92578C6.49396 10.0324 6.5 10.1406 6.5 10.25C6.5 10.4228 6.48593 10.5923 6.45996 10.7578L14.3525 15.6143C14.8867 15.229 15.5411 15 16.25 15C18.0449 15 19.5 16.4551 19.5 18.25C19.5 20.0449 18.0449 21.5 16.25 21.5C14.4551 21.5 13 20.0449 13 18.25C13 18.0769 13.013 17.907 13.0391 17.7412L5.14648 12.8848C4.61234 13.2699 3.95882 13.5 3.25 13.5C1.45507 13.5 0 12.0449 0 10.25C0 8.45507 1.45507 7 3.25 7C4.02605 7 4.73802 7.27269 5.29688 7.72656L13.0156 3.57129C13.0053 3.4656 13 3.35842 13 3.25C13 1.45507 14.4551 -4.89294e-08 16.25 0ZM16.25 17.5C15.8358 17.5 15.5 17.8358 15.5 18.25C15.5 18.6642 15.8358 19 16.25 19C16.6642 19 17 18.6642 17 18.25C17 17.8358 16.6642 17.5 16.25 17.5ZM3.25 9.5C2.83579 9.5 2.5 9.83579 2.5 10.25C2.5 10.6642 2.83579 11 3.25 11C3.66421 11 4 10.6642 4 10.25C4 9.83579 3.66421 9.5 3.25 9.5ZM16.25 2.5C15.8358 2.5 15.5 2.83579 15.5 3.25C15.5 3.66421 15.8358 4 16.25 4C16.6642 4 17 3.66421 17 3.25C17 2.83579 16.6642 2.5 16.25 2.5Z" fill="currentColor"/>
</g>
</svg>