<svg viewBox="0 0 24 24" fill="none" xmlns="http://www.w3.org/2000/svg">
<g transform="translate(0.0129, 1.5000)">
<path d="M14.4867 0C15.8674 0 16.9867 1.11929 16.9867 2.5V5H19.9867C20.6851 5 21.2915 5.48249 21.4486 6.16309L23.8831 16.7129C24.3893 18.906 22.7238 21 20.473 21H3.50131C1.25051 21 -0.414961 18.906 0.0911523 16.7129L2.52572 6.16309C2.68276 5.48261 3.28833 5.00017 3.98666 5H6.98666V2.5C6.98666 1.11941 8.10612 0.000199702 9.48666 0H14.4867ZM3.014 17.3877C2.94178 17.701 3.1798 18 3.50131 18H20.473C20.7944 18 21.0325 17.7009 20.9603 17.3877L18.7933 8H5.18002L3.014 17.3877ZM9.98666 5H13.9867V3H9.98666V5Z" fill="currentColor" />

</g>
</svg>
