<svg viewBox="0 0 24 24" fill="none" xmlns="http://www.w3.org/2000/svg">
<g transform="translate(1.2502, 1.7199)">
<path d="M19.1895 0.0732232C19.2871 -0.0244077 19.4453 -0.0244078 19.543 0.0732232L20.957 1.48729C21.0546 1.58492 21.0546 1.74318 20.957 1.8408L19.3818 3.41502C22.5236 7.96545 22.1703 14.3264 18.3203 18.4687C18.2263 18.5699 18.0669 18.5726 17.9678 18.4765L16.5322 17.084C16.4331 16.9878 16.431 16.8292 16.5244 16.7275C19.4257 13.5691 19.7752 8.77561 17.5752 5.22166L15.7637 7.03318C16.9917 9.54964 16.6813 12.8177 14.8281 14.9512C14.7377 15.0552 14.5791 15.06 14.4785 14.9658L13.0215 13.5947C12.9214 13.5001 12.9174 13.3427 13.0049 13.2363C13.9419 12.0983 14.216 10.4219 13.8291 8.96775L10.5 12.2978V17.1631C10.5 17.7461 9.86391 18.1064 9.36328 17.8076C8.44748 17.261 7.52601 16.7219 6.59473 16.2021L2.31055 20.4873C2.21293 20.5849 2.05465 20.5849 1.95703 20.4873L0.542969 19.0732C0.44535 18.9756 0.445375 18.8173 0.542969 18.7197L4.28418 14.9775C3.05854 14.3689 1.80628 13.8164 0.511719 13.3574C0.207276 13.2495 0 12.9636 0 12.6406V7.9199C0 7.59689 0.20724 7.31093 0.511719 7.20311C3.65931 6.08847 6.50897 4.45787 9.36328 2.75291C9.86381 2.45393 10.5 2.81442 10.5 3.39744V8.76268L19.1895 0.0732232ZM8 6.43846C6.21583 7.43266 4.4011 8.39716 2.5 9.1494V11.4101C3.74761 11.9038 4.95824 12.4892 6.14746 13.1142L8 11.2627V6.43846Z" fill="currentColor" />

</g>
</svg>
