<svg viewBox="0 0 24 24" fill="none" xmlns="http://www.w3.org/2000/svg">
<g transform="translate(1.2502, 3.7339)">
<path d="M17.9678 0.0701049C18.0669 -0.0259933 18.2263 -0.0232051 18.3203 0.0779174C22.5601 4.63979 22.5602 11.8931 18.3203 16.4549C18.2263 16.5559 18.0669 16.5587 17.9678 16.4627L16.5322 15.0701C16.4331 14.974 16.431 14.8154 16.5244 14.7137C19.8248 11.121 19.8248 5.41081 16.5244 1.81815C16.4313 1.7165 16.4333 1.55874 16.5322 1.46268L17.9678 0.0701049ZM9.36328 0.73905C9.86369 0.440142 10.4997 0.799826 10.5 1.3826V15.1492C10.5 15.7322 9.86391 16.0916 9.36328 15.7928C6.52182 14.0968 3.63787 12.4519 0.511719 11.3435C0.207336 11.2356 8.13171e-05 10.9497 0 10.6267V5.90604C0 5.58306 0.207275 5.29709 0.511719 5.18925C3.65928 4.07463 6.509 2.44399 9.36328 0.73905ZM14.4785 3.58085C14.5791 3.48651 14.7377 3.49137 14.8281 3.5955C17.0571 6.16182 17.0573 10.3711 14.8281 12.9373C14.7376 13.0415 14.5791 13.0455 14.4785 12.951L13.0215 11.5808C12.9214 11.4863 12.9175 11.3289 13.0049 11.2224C14.3313 9.61151 14.3313 6.92128 13.0049 5.31034C12.9172 5.20377 12.9211 5.0456 13.0215 4.95096L14.4785 3.58085ZM8 4.4246C6.21586 5.41878 4.40107 6.38331 2.5 7.13553V9.39628C4.40079 10.1484 6.21604 11.1131 8 12.1072V4.4246Z" fill="currentColor" />

</g>
</svg>
