<svg viewBox="0 0 16 16" fill="none" xmlns="http://www.w3.org/2000/svg">
<g transform="translate(3.9166, 0.6666)">
<path d="M4.47754 1.59766C5.41515 1.65942 6.24219 1.91658 6.84766 2.44922C7.49067 3.01519 7.78613 3.80421 7.78613 4.7002C7.78601 5.73989 7.31262 6.54413 6.5791 7.08105C6.76479 7.18646 6.93544 7.3045 7.08984 7.43359C7.88676 8.10027 8.16694 8.98702 8.16699 9.80176C8.16691 10.7756 7.80628 11.6296 7.0957 12.2266C6.4234 12.7911 5.51082 13.0619 4.47754 13.0791V14.667H2.97754V13.083H0V1.58301H0.75C1.35265 1.58301 1.95564 1.58496 2.55664 1.58691C2.69686 1.58737 2.83746 1.58648 2.97754 1.58691V0H4.47754V1.59766ZM1.5 11.583H4.37305C5.21143 11.5829 5.78293 11.3703 6.13086 11.0781C6.46271 10.7994 6.66692 10.3869 6.66699 9.80176C6.66694 9.33519 6.51654 8.90924 6.12793 8.58398C5.7195 8.24252 4.94541 7.92682 3.52832 7.92676H1.5V11.583ZM1.5 6.42676H3.52832L3.84863 6.41797C4.57865 6.37861 5.18248 6.20433 5.59863 5.93652C6.04096 5.6517 6.28601 5.25953 6.28613 4.7002C6.28613 4.1469 6.1157 3.8027 5.85742 3.5752C5.5794 3.33058 5.09948 3.13291 4.32812 3.08984C3.73555 3.08978 3.14275 3.08884 2.55176 3.08691C2.20096 3.08577 1.85008 3.08474 1.5 3.08398V6.42676Z" fill="currentColor" />

</g>
</svg>
