<svg viewBox="0 0 24 24" fill="none" xmlns="http://www.w3.org/2000/svg">
<g transform="translate(1.0000, 0.9999)">
<path d="M9.89644 0.506757C10.4807 -0.168919 11.5183 -0.168919 12.1025 0.506757L13.5361 2.16398C13.8677 2.54719 14.3703 2.73156 14.8671 2.65226L16.9843 2.31437C17.8653 2.17378 18.6658 2.85601 18.6796 3.75969L18.7129 5.94426C18.7208 6.45638 18.9882 6.92849 19.4209 7.19328L21.291 8.33683C22.0529 8.80294 22.2329 9.84392 21.6728 10.5448L20.3203 12.2372C20.002 12.6354 19.9087 13.1716 20.0732 13.6562L20.7763 15.7284C21.0659 16.5809 20.5465 17.4965 19.6738 17.6708L17.5361 18.0966C17.0409 18.1954 16.6298 18.5457 16.4492 19.0234L15.6845 21.0448C15.3649 21.8895 14.3813 22.2517 13.6015 21.8114L11.7138 20.745C11.2699 20.4942 10.73 20.4943 10.2861 20.745L8.3984 21.8114C7.61856 22.2519 6.63398 21.8897 6.31441 21.0448L5.54976 19.0234C5.36911 18.5457 4.95904 18.1954 4.46383 18.0966L2.32613 17.6708C1.45327 17.4967 0.933155 16.5809 1.22262 15.7284L1.92672 13.6562C2.09116 13.1717 1.99783 12.6354 1.67965 12.2372L0.327109 10.5448C-0.233104 9.84392 -0.0530474 8.80296 0.708944 8.33683L2.57809 7.19328C3.01089 6.92852 3.27908 6.45651 3.28707 5.94426L3.32027 3.75969C3.3341 2.85607 4.13375 2.1739 5.01461 2.31437L7.13277 2.65226C7.62969 2.73157 8.1322 2.54729 8.46383 2.16398L9.89644 0.506757ZM9.99996 12.7753L7.75875 10.1611L6.24117 11.4618L9.24117 14.9618C9.43114 15.1833 9.70819 15.3114 9.99996 15.3114C10.2917 15.3114 10.5688 15.1833 10.7587 14.9618L16.7587 7.96183L15.2412 6.66105L9.99996 12.7753Z" fill="currentColor" />

</g>
</svg>
