<svg viewBox="0 0 24 24" fill="none" xmlns="http://www.w3.org/2000/svg">
<g transform="translate(1.5004, 3.0003)">
<path d="M17.4834 0.0078125C17.7656 0.0425668 18.0223 0.196076 18.1855 0.433594L20.8242 4.27344C20.9387 4.44006 21 4.63767 21 4.83984C21 6.17513 20.1476 7.2389 19 7.71973V17C19 17.5523 18.5523 18 18 18H3C2.44772 18 2 17.5523 2 17V7.71973C0.852406 7.2389 0 6.17513 0 4.83984C3.15561e-05 4.63767 0.0612763 4.44006 0.175781 4.27344L2.81445 0.433594L2.89062 0.336914C3.07904 0.124257 3.35069 6.23086e-05 3.63867 0H17.3613L17.4834 0.0078125ZM15.25 7.08496C14.6257 7.65886 13.7725 8 12.875 8C11.9775 8 11.1243 7.65886 10.5 7.08496C9.87565 7.65886 9.02249 8 8.125 8C7.22751 8 6.37435 7.65886 5.75 7.08496C5.27291 7.52351 4.662 7.825 4 7.94336V16H17V7.94336C16.338 7.825 15.7271 7.52351 15.25 7.08496ZM2.03711 5.09473C2.1689 5.56433 2.65418 6 3.375 6C4.2258 6 4.75 5.39331 4.75 4.83984C4.75008 4.28763 5.19777 3.83984 5.75 3.83984C6.30223 3.83984 6.74992 4.28763 6.75 4.83984C6.75 5.39331 7.2742 6 8.125 6C8.9758 6 9.5 5.39331 9.5 4.83984C9.50008 4.28763 9.94777 3.83984 10.5 3.83984C11.0522 3.83984 11.4999 4.28763 11.5 4.83984C11.5 5.39331 12.0242 6 12.875 6C13.7258 6 14.25 5.39331 14.25 4.83984C14.2501 4.28763 14.6978 3.83984 15.25 3.83984C15.8022 3.83984 16.2499 4.28763 16.25 4.83984C16.25 5.39331 16.7742 6 17.625 6C18.3457 6 18.83 5.56423 18.9619 5.09473L16.835 2H4.16504L2.03711 5.09473Z" fill="currentColor" />

</g>
</svg>
