<svg viewBox="0 0 24 24" fill="none" xmlns="http://www.w3.org/2000/svg">
<g transform="translate(3.0003, 2.5003)">
<path d="M8.40039 0.200166C8.71146 -0.0330417 9.12438 -0.0626494 9.46094 0.112275L9.59961 0.200166L17.5996 6.20017C17.8514 6.38902 18 6.68521 18 6.99997V18C18 18.5523 17.5523 19 17 19H11C10.4477 19 10 18.5523 10 18V14H8V18C8 18.5523 7.55228 19 7 19H1C0.447715 19 0 18.5523 0 18V6.99997C0 6.68521 0.148585 6.38902 0.400391 6.20017L8.40039 0.200166ZM2 7.49899V17H6V13C6 12.4477 6.44772 12 7 12H11C11.5523 12 12 12.4477 12 13V17H16V7.49899L9 2.24899L2 7.49899Z" fill="currentColor" />

</g>
</svg>
