<svg viewBox="0 0 24 24" fill="none" xmlns="http://www.w3.org/2000/svg">
<g transform="translate(0.6202, 2.9996)">
<path d="M0.223731 5.46988C5.29783 -0.777597 13.1977 -1.70691 19.1104 2.85464L18.5001 3.64566L17.8897 4.43765C13.0888 0.733741 6.75459 1.23094 2.33897 6.07925L11.0001 15.5207L12.5567 13.8244L12.8438 13.5119L13.5802 14.1877L14.3175 14.8634L14.0304 15.1759L11.7374 17.6759C11.548 17.8823 11.2802 18.0002 11.0001 18.0002C10.72 18.0001 10.4522 17.8823 10.2628 17.6759L0.262793 6.77652C-0.0723642 6.41117 -0.088629 5.85485 0.223731 5.46988ZM22.7589 5.65054L16.7589 12.6505C16.5689 12.8721 16.2919 13.0002 16.0001 13.0002C15.7083 13.0001 15.4313 12.8721 15.2413 12.6505L12.2413 9.15054L13.7589 7.84976L16.0001 10.464L21.2413 4.34976L22.7589 5.65054Z" fill="currentColor" />

</g>
</svg>
