<svg viewBox="0 0 24 24" fill="none" xmlns="http://www.w3.org/2000/svg">
<g transform="translate(2.0000, 2.0000)">
<path fill-rule="evenodd" clip-rule="evenodd" d="M2.92893 2.92893C6.83417 -0.976311 13.1663 -0.976311 17.0715 2.92893C20.9768 6.83418 20.9768 13.1663 17.0715 17.0715C13.1663 20.9768 6.83417 20.9768 2.92893 17.0715C-0.976311 13.1663 -0.97631 6.83417 2.92893 2.92893ZM15.6574 4.34299C12.5333 1.2188 7.46719 1.2188 4.34299 4.34299C1.2188 7.46719 1.2188 12.5333 4.34299 15.6574C7.46719 18.7816 12.5333 18.7816 15.6574 15.6574C18.7816 12.5333 18.7816 7.46719 15.6574 4.34299ZM11.0002 5.00022V10.5002H9.00022V5.00022H11.0002ZM10.0002 15.5002C10.8286 15.5002 11.5002 14.8286 11.5002 14.0002C11.5002 13.1718 10.8286 12.5002 10.0002 12.5002C9.17179 12.5002 8.50022 13.1718 8.50022 14.0002C8.50022 14.8286 9.17179 15.5002 10.0002 15.5002Z" fill="currentColor" />

</g>
</svg>
