<svg viewBox="0 0 24 24" fill="none" xmlns="http://www.w3.org/2000/svg">
<g transform="translate(0.2999, 2.2568)">
<path d="M0.223753 5.73045C6.70455 -1.9102 16.6951 -1.9101 23.1759 5.73045C23.4869 6.09708 23.4702 6.63625 23.1525 6.99705L12.4503 19.1474C12.0522 19.5995 11.3475 19.5995 10.9493 19.1474L0.248167 6.99705C-0.0695432 6.63632 -0.0870642 6.0971 0.223753 5.73045ZM11.7003 11.5C10.8719 11.5 10.2003 12.1716 10.2003 13C10.2003 13.8284 10.8719 14.5 11.7003 14.5C12.5287 14.4999 13.2003 13.8284 13.2003 13C13.2003 12.1716 12.5287 11.5001 11.7003 11.5ZM10.7003 3.99998V9.49998H12.7003V3.99998H10.7003Z" fill="currentColor" />

</g>
</svg>
