<svg viewBox="0 0 24 24" fill="none" xmlns="http://www.w3.org/2000/svg">
<g transform="translate(2.5001, 1.2502)">
<path d="M9.5 0C9.79645 0 10.0776 0.131812 10.2676 0.359375L10.2705 0.362305C10.2718 0.363907 10.2732 0.366486 10.2754 0.369141C10.2799 0.374621 10.2869 0.381818 10.2949 0.391602C10.3112 0.411428 10.3341 0.440487 10.3633 0.476562C10.4216 0.548696 10.5043 0.651598 10.6025 0.77832C10.7986 1.03114 11.0619 1.38343 11.3271 1.77441C11.5901 2.1619 11.8681 2.60743 12.084 3.04492C12.2827 3.44761 12.5 3.97985 12.5 4.5C12.5 5.80574 11.6645 6.913 10.5 7.3252V9.5H16C17.6569 9.5 19 10.8431 19 12.5V20.5C19 21.0523 18.5523 21.5 18 21.5H1C0.447715 21.5 0 21.0523 0 20.5V12.5C0 10.8431 1.34315 9.5 3 9.5H8.5V7.3252C7.33548 6.913 6.5 5.80574 6.5 4.5C6.5 3.97985 6.71729 3.44761 6.91602 3.04492C7.13194 2.60743 7.40995 2.1619 7.67285 1.77441C7.93814 1.38343 8.20144 1.03114 8.39746 0.77832C8.49572 0.651598 8.57841 0.548696 8.63672 0.476562C8.66588 0.440487 8.68878 0.411428 8.70508 0.391602C8.71312 0.381818 8.72007 0.374621 8.72461 0.369141C8.72681 0.366486 8.72816 0.363907 8.72949 0.362305L8.73242 0.359375L8.80762 0.27832C8.99278 0.100655 9.24057 0 9.5 0ZM3 11.5C2.44772 11.5 2 11.9477 2 12.5V19.5H17V12.5C17 11.9477 16.5523 11.5 16 11.5H3ZM9.32715 2.89746C9.09013 3.24681 8.86801 3.60747 8.70898 3.92969C8.62975 4.09023 8.57319 4.227 8.53809 4.33691C8.50114 4.45266 8.5 4.50236 8.5 4.5C8.5 5.05228 8.94772 5.5 9.5 5.5C10.0523 5.5 10.5 5.05228 10.5 4.5C10.5 4.50236 10.4989 4.45266 10.4619 4.33691C10.4268 4.227 10.3702 4.09023 10.291 3.92969C10.132 3.60747 9.90987 3.24681 9.67285 2.89746C9.6158 2.81337 9.55643 2.73213 9.5 2.65234C9.44357 2.73213 9.3842 2.81337 9.32715 2.89746Z" fill="currentColor" />

</g>
</svg>
