<svg viewBox="0 0 24 24" fill="none" xmlns="http://www.w3.org/2000/svg">
<g transform="translate(3.0002, 1.2502)">
<path fill-rule="evenodd" clip-rule="evenodd" d="M10.0088 4.12598C10.2057 4.51043 10.2498 4.72067 10.25 4.77734C10.25 5.4407 9.70208 6 9 6C8.29792 6 7.75 5.4407 7.75 4.77734C7.75021 4.72067 7.79427 4.51043 7.99121 4.12598C8.17141 3.77428 8.42323 3.38357 8.69043 3.00781C8.79422 2.86186 8.89962 2.72201 9 2.58984C9.10038 2.72201 9.20578 2.86186 9.30957 3.00781C9.57677 3.38357 9.82859 3.77428 10.0088 4.12598ZM10 7.84277C11.3 7.42572 12.25 6.2186 12.25 4.77734C12.2499 4.21992 12.0123 3.65156 11.7881 3.21387C11.5464 2.74218 11.2357 2.2639 10.9404 1.84863C10.6426 1.42977 10.3462 1.05478 10.126 0.785156C10.0155 0.649843 9.92294 0.539711 9.85742 0.462891C9.8247 0.424525 9.79854 0.394091 9.78027 0.373047L9.75879 0.348633L9.75293 0.341797L9.75 0.338867C9.56017 0.123689 9.28695 0 9 0C8.71305 0 8.43983 0.123689 8.25 0.338867L8.24707 0.341797L8.24121 0.348633L8.21973 0.373047C8.20146 0.394091 8.1753 0.424525 8.14258 0.462891C8.07706 0.539711 7.98453 0.649843 7.87402 0.785156C7.65383 1.05478 7.35743 1.42977 7.05957 1.84863C6.76427 2.2639 6.45359 2.74218 6.21191 3.21387C5.98765 3.65156 5.75011 4.21992 5.75 4.77734C5.75 6.2186 6.70003 7.42572 8 7.84277V11.5H3C1.34315 11.5 0 12.8431 0 14.5V21C0 21.2761 0.223858 21.5 0.5 21.5H17.5C17.7761 21.5 18 21.2761 18 21V14.5C18 12.8431 16.6569 11.5 15 11.5H10V7.84277Z" fill="currentColor" />

</g>
</svg>
