<svg viewBox="0 0 24 24" fill="none" xmlns="http://www.w3.org/2000/svg">
<g transform="translate(3.4998, 2.0000)">
<path d="M5.8957 1.9491C8.43576 -0.649773 12.5645 -0.649627 15.1047 1.9491C17.6322 4.53527 17.6323 8.71942 15.1047 11.3055L7.9748 18.6005C6.1506 20.4666 3.18269 20.4668 1.35859 18.6005C-0.452841 16.7469 -0.452884 13.7499 1.35859 11.8964L8.48847 4.60144C9.5966 3.46767 11.4036 3.46788 12.5119 4.60144C13.6076 5.7225 13.6075 7.5311 12.5119 8.65222L5.38202 15.9471L4.66718 15.2479L3.95136 14.5497L11.0812 7.25476C11.4174 6.91083 11.4174 6.34381 11.0812 5.99988C10.7576 5.66899 10.2427 5.66882 9.91913 5.99988L2.78925 13.2948C1.73747 14.3712 1.7375 16.1256 2.78925 17.202C3.82879 18.2656 5.50452 18.2655 6.54413 17.202L13.674 9.90711C15.4421 8.09813 15.4421 5.15554 13.674 3.34656C11.9185 1.55096 9.08175 1.55074 7.32636 3.34656L6.3537 4.34168L5.63886 3.64246L4.92402 2.94422L5.8957 1.9491Z" fill="currentColor" />

</g>
</svg>
