<svg viewBox="0 0 24 24" fill="none" xmlns="http://www.w3.org/2000/svg">
<g transform="translate(2.0000, 2.7500)">
<path d="M10 9.5C15.2744 9.5 20 12.8624 20 17.5C20 18.0523 19.5523 18.5 19 18.5H1C0.447715 18.5 0 18.0523 0 17.5C0 12.8624 4.72559 9.5 10 9.5ZM10 11.5C5.84138 11.5 2.74385 13.8079 2.11816 16.5H17.8818C17.2561 13.8079 14.1586 11.5 10 11.5ZM10 0C12.2091 0 14 1.79086 14 4C14 6.20914 12.2091 8 10 8C7.79086 8 6 6.20914 6 4C6 1.79086 7.79086 0 10 0ZM10 2C8.89543 2 8 2.89543 8 4C8 5.10457 8.89543 6 10 6C11.1046 6 12 5.10457 12 4C12 2.89543 11.1046 2 10 2Z" fill="currentColor" />

</g>
</svg>
