<svg viewBox="0 0 24 24" fill="none" xmlns="http://www.w3.org/2000/svg">
<g transform="translate(2.0000, 2.0000)">
<path d="M10 0C15.5228 0 20 4.47715 20 10C20 15.5228 15.5228 20 10 20C4.47715 20 0 15.5228 0 10C0 4.47715 4.47715 5.15406e-07 10 0ZM10 2C5.58172 2 2 5.58172 2 10C2 14.4183 5.58172 18 10 18C14.4183 18 18 14.4183 18 10C18 5.58172 14.4183 2 10 2ZM8.98926 4.05078C9.12723 4.05084 9.23918 4.16281 9.23926 4.30078V5.625C9.23926 5.76307 9.35119 5.875 9.48926 5.875H10.9629C12.741 5.87515 13.9785 6.86551 13.9785 8.61621C13.9784 9.16063 13.7407 9.70489 13.4004 10.1104C13.2939 10.2374 13.3113 10.4368 13.4395 10.542C14.0287 11.0259 14.4004 11.759 14.4004 12.5762C14.4003 14.006 13.2634 15.1698 11.8428 15.2158H7.68066C7.51576 15.1974 7.41504 15.1055 7.41504 14.9131V8.29297C7.41504 8.20625 7.46927 8.12822 7.55078 8.09863C7.76747 8.01983 7.71112 7.69922 7.48047 7.69922H5.84082C5.70275 7.69922 5.59082 7.58729 5.59082 7.44922V6.11621C5.59082 5.97814 5.70275 5.86621 5.84082 5.86621H7.17383C7.3118 5.86621 7.42366 5.75414 7.42383 5.61621V4.05078H8.98926ZM9.2207 7.64453C9.22572 7.64453 9.2304 7.64832 9.23047 7.65332V13.043C9.23964 13.2355 9.34927 13.3369 9.52344 13.3369H11.833C12.3555 13.2911 12.7685 12.851 12.7686 12.3193C12.7686 11.751 12.3095 11.293 11.7412 11.293H10.8887C10.7149 11.2928 10.5962 11.1917 10.5869 11.0088V9.85352C10.5869 9.68852 10.6878 9.56934 10.8711 9.56934L11.21 9.55078C11.7325 9.55078 12.1543 9.11978 12.1543 8.60645C12.1541 8.09323 11.7324 7.64453 11.21 7.64453H9.2207ZM7.42383 4.04785V4.05078H7.42188C7.41948 4.05078 7.41823 4.04759 7.41992 4.0459C7.42152 4.04482 7.42353 4.04593 7.42383 4.04785Z" fill="currentColor" />

</g>
</svg>
