<svg viewBox="0 0 24 24" fill="none" xmlns="http://www.w3.org/2000/svg">
<g transform="translate(0.0906, 2.5000)">
<path d="M19.7564 0.0118509C20.2035 -0.057682 20.6474 0.183683 20.8286 0.606577L23.6988 7.30287C23.9257 7.83321 23.8481 8.5366 23.3169 8.98841C22.3691 9.79438 21.1108 10.1612 19.9097 10.1613C18.7086 10.1613 17.4504 9.7943 16.5025 8.98841C15.9709 8.53638 15.8933 7.83238 16.1206 7.30189L18.1968 2.45814L12.9097 3.77943V17.0001H15.9097V19.0001H7.9097V17.0001H10.9097V4.27943L5.26712 5.69056L7.69681 11.3009C7.92572 11.83 7.8493 12.5248 7.3345 12.9786C5.46226 14.6284 2.35731 14.6282 0.484891 12.9786C-0.0301411 12.5247 -0.106515 11.8301 0.122587 11.3009L2.92434 4.82728C2.99069 4.45028 3.27217 4.12924 3.66751 4.03041L19.6675 0.0304056L19.7564 0.0118509ZM2.12259 11.713C3.15545 12.3803 4.66286 12.3802 5.69583 11.713L3.9097 7.58802L2.12259 11.713ZM18.1275 7.69642C18.6172 7.99141 19.2443 8.16127 19.9097 8.16126C20.5748 8.16118 21.2014 7.99123 21.6909 7.69642L19.9097 3.53822L18.1275 7.69642Z" fill="currentColor" />

</g>
</svg>
