<svg viewBox="0 0 24 24" fill="none" xmlns="http://www.w3.org/2000/svg">
<g transform="translate(0.5000, 3.5000)">
<path d="M11.75 0C14.8438 5.51365e-07 17.3652 2.4435 17.4932 5.50586C20.556 5.6333 23 8.15585 23 11.25C23 14.4256 20.4256 17 17.25 17H11.25C8.15584 17 5.6333 14.556 5.50586 11.4932C2.4435 11.3652 -8.47794e-08 8.84382 0 5.75C3.90808e-07 2.57436 2.57436 1.28927e-06 5.75 0H11.75ZM17.2275 7.5C16.487 9.81972 14.3153 11.5 11.75 11.5H7.50879C7.63745 13.4545 9.26296 15 11.25 15H17.25C19.3211 15 21 13.3211 21 11.25C21 9.17894 19.3211 7.5 17.25 7.5H17.2275ZM11.25 7.5C9.81116 7.5 8.56242 8.3108 7.93359 9.5H11.75C13.1888 9.5 14.4376 8.68921 15.0664 7.5H11.25ZM5.75 2C3.67893 2 2 3.67893 2 5.75C2 7.82107 3.67893 9.5 5.75 9.5H5.77246C6.51296 7.18029 8.68471 5.5 11.25 5.5H15.4912C15.3625 3.54551 13.737 2 11.75 2H5.75Z" fill="currentColor" />

</g>
</svg>
