<svg viewBox="0 0 24 24" fill="none" xmlns="http://www.w3.org/2000/svg">
<g transform="translate(1.4995, 2.8412)">
<path d="M10.7249 0.0125702L10.9476 0.0506561L11.0843 0.0887421C11.3987 0.190007 11.6729 0.375082 11.889 0.511594L20.5345 5.97155C20.9109 6.20931 21.085 6.6679 20.9613 7.09558C20.8374 7.52312 20.4455 7.81726 20.0003 7.81726H18.5003V16.3173H20.5003V18.3173H0.500324V16.3173H2.50032V7.81726H1.00032C0.555343 7.81708 0.163182 7.523 0.0393866 7.09558C-0.0842291 6.66805 0.0899567 6.20932 0.466144 5.97155L9.11165 0.511594C9.35853 0.35567 9.68099 0.136144 10.0531 0.0506561C10.2735 0.00012173 10.5013 -0.012662 10.7249 0.0125702ZM4.50032 7.81726V16.3173H9.50032V7.81726H4.50032ZM11.5003 7.81726V16.3173H16.5003V7.81726H11.5003ZM10.4945 2.00964C10.4305 2.04465 10.3447 2.098 10.18 2.20202L4.45638 5.81726H16.5443L10.8206 2.20202C10.6559 2.09799 10.5702 2.04462 10.5062 2.00964C10.5042 2.00851 10.5021 2.00669 10.5003 2.00573C10.4985 2.00676 10.4964 2.00857 10.4945 2.00964Z" fill="currentColor" />

</g>
</svg>
