<svg viewBox="0 0 24 24" fill="none" xmlns="http://www.w3.org/2000/svg">
<g transform="translate(2.3036, 2.2502)">
<path d="M19.3932 12.1504L13.3932 19.1504C13.2033 19.372 12.9263 19.5 12.6344 19.5C12.3425 19.5 12.0656 19.372 11.8756 19.1504L8.87565 15.6504L10.3932 14.3496L12.6344 16.9639L17.8756 10.8496L19.3932 12.1504ZM15.6344 0C15.9422 0.000125596 16.2331 0.142206 16.4225 0.384766C16.6118 0.627323 16.6796 0.943672 16.6051 1.24219C15.6449 5.08295 16.1344 7.83586 16.1344 9.5H14.1344C14.1344 8.30025 13.7267 5.55925 14.3962 2H2.39518C1.72022 4.67352 2.03441 6.80838 2.43326 9.14453C2.82083 11.4145 3.28637 13.8777 2.82877 17H7.63444V19H1.63444C1.33271 18.9999 1.04688 18.8635 0.857092 18.6289C0.667237 18.3941 0.593624 18.0853 0.656897 17.79C1.36179 14.4999 0.900275 12.0499 0.461585 9.48047C0.0199135 6.89351 -0.394005 4.19441 0.679358 0.706055C0.808469 0.286634 1.19561 0.000142175 1.63444 0H15.6344Z" fill="currentColor" />

</g>
</svg>
