<svg viewBox="0 0 24 24" fill="none" xmlns="http://www.w3.org/2000/svg">
<g transform="translate(2.9998, 2.9998)">
<path d="M2 16H6V18H1C0.447715 18 2.57702e-07 17.5523 0 17V12H2V16ZM18 17C18 17.2652 17.8946 17.5195 17.707 17.707C17.5195 17.8946 17.2652 18 17 18H12V16H16V12H18V17ZM12.8945 11.4482C12.1585 12.9176 10.7276 14 9 14C7.27243 14 5.84149 12.9176 5.10547 11.4482L6.89453 10.5518C7.35618 11.4735 8.16379 12 9 12C9.83621 12 10.6438 11.4735 11.1055 10.5518L12.8945 11.4482ZM6 2H2V6H0V1C0 0.447715 0.447715 0 1 0H6V2ZM17 0C17.5523 0 18 0.447715 18 1V6H16V2H12V0H17Z" fill="currentColor" />

</g>
</svg>
