<svg viewBox="0 0 24 24" fill="none" xmlns="http://www.w3.org/2000/svg">
<g transform="translate(2.5357, 2.3900)">
<path d="M14.9131 9.75037C14.6783 11.0681 14.0747 12.8915 13.3262 14.6234C12.5812 16.347 11.6428 18.0968 10.6924 19.2201L9.16504 17.9291C9.92517 17.0307 10.7711 15.4934 11.4902 13.8295C12.2058 12.1737 12.7469 10.5072 12.9443 9.3988L14.9131 9.75037ZM7.81836 0.0804433C12.7215 -0.464237 15.8752 1.86476 17.2822 3.8197C18.6625 5.73772 19.2079 8.11689 18.793 10.432V10.433C18.4622 12.2726 17.5498 14.8188 16.8486 16.4662L15.0088 15.683C15.6887 14.0856 16.5328 11.6996 16.8242 10.0785C17.1427 8.30094 16.7258 6.46985 15.6592 4.98767C14.6188 3.54214 12.1356 1.61363 8.03906 2.06872L7.81836 0.0804433ZM8.8584 4.07751C11.3324 3.54216 13.6409 4.76262 14.8232 7.12732L13.0342 8.02185C12.2166 6.38671 10.7701 5.7104 9.28125 6.03259C8.67088 6.16476 8.14304 6.53295 7.64746 7.14685C7.14254 7.77246 6.71242 8.60308 6.30176 9.56189C5.87488 10.5586 5.54839 11.4912 5.12988 12.5189C4.74074 13.4745 4.29545 14.4455 3.71875 15.1879L2.13867 13.9613C2.53322 13.4535 2.89366 12.7062 3.27734 11.764C3.63168 10.8939 4.04601 9.74816 4.46289 8.77478C4.89598 7.7636 5.41262 6.73137 6.0918 5.89001C6.78043 5.03703 7.67479 4.33371 8.8584 4.07751ZM8.94434 8.89978C9.04085 8.35619 9.55983 7.99391 10.1035 8.09021C10.6469 8.18686 11.0094 8.70581 10.9131 9.24939C10.7706 10.053 10.2854 11.1859 9.8125 12.1761C9.32142 13.2044 8.77757 14.2129 8.4375 14.8177L7.56543 14.3275L6.69434 13.8373C7.02031 13.2575 7.54163 12.29 8.00781 11.3138C8.49207 10.2999 8.85598 9.39837 8.94434 8.89978ZM6.37598 2.96912C5.15877 3.57772 4.28344 4.72645 3.57324 6.14685C2.84474 7.60388 2.40228 9.08348 1.85742 10.4457L0 9.70349C0.45506 8.56584 1.0128 6.79511 1.78418 5.25232C2.57398 3.67272 3.69867 2.07145 5.48145 1.18005L6.37598 2.96912Z" fill="currentColor" />

</g>
</svg>
