<svg viewBox="0 0 24 24" fill="none" xmlns="http://www.w3.org/2000/svg">
<g transform="translate(2.0000, 2.0000)">
<path d="M2.92893 2.92893C6.83417 -0.976311 13.1663 -0.976311 17.0715 2.92893C20.9768 6.83418 20.9768 13.1663 17.0715 17.0715C13.1663 20.9768 6.83418 20.9768 2.92893 17.0715C-0.976311 13.1663 -0.97631 6.83417 2.92893 2.92893ZM5.09592 16.3176C8.23437 18.7604 12.7726 18.5423 15.6574 15.6574C18.5423 12.7726 18.7604 8.23437 16.3176 5.09592L5.09592 16.3176ZM14.9035 3.68186C11.7651 1.24 7.22748 1.45851 4.34299 4.34299C1.45851 7.22748 1.24 11.7651 3.68186 14.9035L14.9035 3.68186Z" fill="currentColor" />

</g>
</svg>
