<svg viewBox="0 0 24 24" fill="none" xmlns="http://www.w3.org/2000/svg">
<g transform="translate(1.9999, 1.8964)">
<path d="M18.207 4.5C18.3945 4.68752 18.5 4.94184 18.5 5.20703C18.5 5.4391 18.4193 5.66287 18.2734 5.84082L18.207 5.91406L13.707 10.4141L12.293 9L15.0859 6.20703H7.40039C6.26398 6.20704 5.47129 6.20744 4.85449 6.25781C4.24933 6.30726 3.90105 6.39999 3.6377 6.53418C3.07349 6.82174 2.61473 7.28053 2.32715 7.84473C2.19297 8.10808 2.10022 8.45638 2.05078 9.06152C2.0004 9.67833 2 10.471 2 11.6074V12.8076C2 13.9437 2.00042 14.7358 2.05078 15.3525C2.10023 15.9577 2.19297 16.306 2.32715 16.5693C2.61471 17.1336 3.07347 17.5923 3.6377 17.8799C3.90105 18.0141 4.24934 18.1068 4.85449 18.1562C5.4713 18.2066 6.26395 18.207 7.40039 18.207H12.5996C13.736 18.207 14.5287 18.2066 15.1455 18.1562C15.7507 18.1068 16.099 18.0141 16.3623 17.8799C16.9265 17.5923 17.3853 17.1336 17.6729 16.5693C17.807 16.306 17.8998 15.9577 17.9492 15.3525C17.9996 14.7358 18 13.9437 18 12.8076V11.707H20V12.8076C20 13.9109 20.001 14.7986 19.9424 15.5156C19.8828 16.2445 19.7569 16.8853 19.4551 17.4775C18.9757 18.4182 18.2102 19.1828 17.2695 19.6621C16.6773 19.9638 16.0373 20.0899 15.3086 20.1494C14.5914 20.208 13.7032 20.207 12.5996 20.207H7.40039C6.29681 20.207 5.40858 20.208 4.69141 20.1494C3.96269 20.0899 3.32267 19.9638 2.73047 19.6621C1.78978 19.1828 1.0243 18.4182 0.544923 17.4775C0.24314 16.8853 0.117169 16.2445 0.0576182 15.5156C-0.000954828 14.7986 1.10638e-06 13.9109 1.03921e-06 12.8076V11.6074C7.38503e-07 10.5038 -0.000974111 9.6156 0.0576182 8.89844C0.117159 8.16973 0.243252 7.52969 0.544923 6.9375C1.02428 5.9967 1.78967 5.23132 2.73047 4.75195C3.32264 4.45032 3.96273 4.32419 4.69141 4.26465C5.40856 4.20606 6.29684 4.20704 7.40039 4.20703H15.0859L12.293 1.41406L13.707 0L18.207 4.5Z" fill="currentColor" />

</g>
</svg>
