<svg viewBox="0 0 24 24" fill="none" xmlns="http://www.w3.org/2000/svg">
<g transform="translate(3.5000, 0.9999)">
<path d="M2 10C2.00014 13.5896 4.91045 16.4997 8.5 16.5C12.0898 16.5 14.9999 13.5898 15 10V9.25H17V10C16.9999 14.3559 13.723 17.9444 9.5 18.4395V22H7.5V18.4395C3.27727 17.9442 0.000130554 14.3557 0 10V9.25H2V10ZM8.5 0C10.709 3.40692e-05 12.4999 1.79098 12.5 4V10C12.5 12.2091 10.7091 14 8.5 14C6.29114 13.9997 4.50005 12.2089 4.5 10V4C4.50011 1.79111 6.29115 0.000258081 8.5 0ZM8.5 2C7.39572 2.00026 6.50011 2.89568 6.5 4V10C6.50005 11.1044 7.3957 11.9997 8.5 12C9.60453 12 10.5 11.1045 10.5 10V4C10.4999 2.89554 9.60449 2.00002 8.5 2Z" fill="currentColor" />

</g>
</svg>
