<svg viewBox="0 0 24 24" fill="none" xmlns="http://www.w3.org/2000/svg">
<g transform="translate(2.7415, 3.2812)">
<path fill-rule="evenodd" clip-rule="evenodd" d="M10.092 10.4382L13.7253 6.07813C14.0343 5.70729 14.0343 5.16861 13.7253 4.79777L10.027 0.359815C9.62722 -0.119939 8.89036 -0.119938 8.49057 0.359816L4.79228 4.79777C4.48324 5.16861 4.48324 5.70729 4.79228 6.07814L8.42563 10.4382L1.00151 10.4382C0.229359 10.4382 -0.251465 11.2761 0.138136 11.9427L3.06022 16.9427C3.23953 17.2495 3.56821 17.4382 3.92359 17.4382L14.5941 17.4382C14.9495 17.4382 15.2781 17.2495 15.4574 16.9427L18.3795 11.9427C18.7691 11.2761 18.2883 10.4382 17.5162 10.4382L10.092 10.4382Z" fill="currentColor" />

</g>
</svg>
