<svg viewBox="0 0 24 24" fill="none" xmlns="http://www.w3.org/2000/svg">
<g transform="translate(1.5004, 3.0003)">
<path d="M13 0C14.1046 0 15 0.895431 15 2V4H19C20.1046 4 21 4.89543 21 6V16C21 17.1046 20.1046 18 19 18H2C0.89543 18 1.61064e-08 17.1046 0 16V6C0 4.89543 0.895431 4 2 4H6V2C6 0.89543 6.89543 2.41596e-08 8 0H13ZM2 16H19V6H2V16ZM15.9678 8.15332L17.0322 9.84668L17.0264 9.84961C17.0237 9.85127 17.0204 9.85411 17.0166 9.85645C17.0089 9.86117 16.9985 9.86672 16.9863 9.87402C16.9615 9.88889 16.9277 9.90918 16.8848 9.93359C16.7987 9.98252 16.6764 10.0495 16.5205 10.1279C16.2089 10.2846 15.7607 10.4887 15.1943 10.6914C14.0626 11.0965 12.4476 11.5 10.5 11.5C8.55237 11.5 6.93741 11.0965 5.80566 10.6914C5.23929 10.4887 4.79113 10.2846 4.47949 10.1279C4.32356 10.0495 4.2013 9.98252 4.11523 9.93359C4.07229 9.90918 4.03845 9.88889 4.01367 9.87402C4.0015 9.86672 3.99108 9.86117 3.9834 9.85645C3.97961 9.85411 3.9763 9.85127 3.97363 9.84961L3.96777 9.84668L5.03223 8.15332L5.03125 8.15234C5.03285 8.15333 5.03634 8.15579 5.04199 8.15918C5.05382 8.16628 5.0744 8.17876 5.10352 8.19531C5.16177 8.22842 5.25422 8.27862 5.37793 8.34082C5.62569 8.46537 5.99862 8.63644 6.47949 8.80859C7.44281 9.15345 8.82795 9.5 10.5 9.5C12.172 9.5 13.5572 9.15345 14.5205 8.80859C15.0014 8.63644 15.3743 8.46537 15.6221 8.34082C15.7458 8.27862 15.8382 8.22842 15.8965 8.19531C15.9256 8.17876 15.9462 8.16628 15.958 8.15918L15.9688 8.15234L15.9678 8.15332ZM8 4H13V2H8V4Z" fill="currentColor" />

</g>
</svg>
