<svg viewBox="0 0 24 24" fill="none" xmlns="http://www.w3.org/2000/svg">
<g transform="translate(2.5003, 4.0002)">
<path d="M12 0C13.1046 0 14 0.895431 14 2V4H17C18.1046 4 19 4.89543 19 6V14C19 15.1046 18.1046 16 17 16H2C0.895431 16 3.22133e-08 15.1046 0 14V6C1.28853e-07 4.89543 0.895431 4 2 4H5V2C5 0.89543 5.89543 2.41596e-08 7 0H12ZM14.958 7.15918C14.9462 7.16628 14.9256 7.17876 14.8965 7.19531C14.8382 7.22842 14.7458 7.27862 14.6221 7.34082C14.3743 7.46537 14.0014 7.63644 13.5205 7.80859C12.5572 8.15345 11.172 8.5 9.5 8.5C7.82795 8.5 6.44281 8.15345 5.47949 7.80859C4.99862 7.63644 4.62569 7.46537 4.37793 7.34082C4.25422 7.27862 4.16177 7.22842 4.10352 7.19531C4.0744 7.17876 4.05382 7.16628 4.04199 7.15918C4.03634 7.15579 4.03125 7.15234 4.03125 7.15234L4.03223 7.15332L2.96777 8.84668L2.97363 8.84961C2.9763 8.85127 2.97961 8.85411 2.9834 8.85645C2.99108 8.86117 3.0015 8.86672 3.01367 8.87402C3.03845 8.88889 3.07229 8.90918 3.11523 8.93359C3.2013 8.98252 3.32356 9.04953 3.47949 9.12793C3.79113 9.2846 4.23929 9.48865 4.80566 9.69141C5.93741 10.0965 7.55237 10.5 9.5 10.5C11.4476 10.5 13.0626 10.0965 14.1943 9.69141C14.7607 9.48865 15.2089 9.2846 15.5205 9.12793C15.6764 9.04953 15.7987 8.98252 15.8848 8.93359C15.9277 8.90918 15.9615 8.88889 15.9863 8.87402C15.9985 8.86672 16.0089 8.86117 16.0166 8.85645C16.0204 8.85411 16.0237 8.85127 16.0264 8.84961L16.0322 8.84668L14.9678 7.15332L14.9688 7.15234L14.958 7.15918ZM7 4H12V2H7V4Z" fill="currentColor" />

</g>
</svg>
