<svg viewBox="0 0 24 24" fill="none" xmlns="http://www.w3.org/2000/svg">
<g transform="translate(2.0000, 3.5000)">
<path d="M17 4C18.6569 4 20 5.34315 20 7V14C20 15.6569 18.6569 17 17 17H3C1.34315 17 0 15.6569 0 14V7C0 5.34315 1.34315 4 3 4H17ZM10 6.5C7.79086 6.5 6 8.29086 6 10.5C6 12.7091 7.79086 14.5 10 14.5C12.2091 14.5 14 12.7091 14 10.5C14 8.29086 12.2091 6.5 10 6.5ZM10 8C11.3807 8 12.5 9.11929 12.5 10.5C12.5 11.8807 11.3807 13 10 13C8.61929 13 7.5 11.8807 7.5 10.5C7.5 9.11929 8.61929 8 10 8ZM10 0C11.1728 0 12.075 0.294325 12.6973 0.605469C13.0067 0.760174 13.2447 0.918368 13.4121 1.04395C13.4957 1.10665 13.5624 1.16129 13.6113 1.2041C13.6356 1.22536 13.656 1.24395 13.6719 1.25879C13.6798 1.26622 13.6866 1.27368 13.6924 1.2793C13.6953 1.28211 13.6988 1.28477 13.7012 1.28711C13.7022 1.28812 13.7032 1.28912 13.7041 1.29004L13.7061 1.29102V1.29199L12.2939 2.70801L12.3047 2.71875C12.3047 2.71875 12.3012 2.71544 12.2949 2.70996C12.2814 2.69814 12.254 2.6744 12.2129 2.64355C12.1304 2.58165 11.9932 2.48978 11.8027 2.39453C11.425 2.20567 10.8272 2 10 2C9.17276 2 8.57498 2.20567 8.19727 2.39453C8.00677 2.48978 7.86965 2.58165 7.78711 2.64355C7.746 2.6744 7.71859 2.69814 7.70508 2.70996C7.69882 2.71544 7.69531 2.71875 7.69531 2.71875L7.70605 2.70801L6.29395 1.29199V1.29102L6.2959 1.29004C6.29682 1.28912 6.2978 1.28812 6.29883 1.28711C6.3012 1.28477 6.30471 1.28211 6.30762 1.2793C6.31342 1.27368 6.3202 1.26622 6.32812 1.25879C6.34396 1.24395 6.36438 1.22536 6.38867 1.2041C6.43761 1.16129 6.50429 1.10665 6.58789 1.04395C6.75534 0.918368 6.99332 0.760174 7.30273 0.605469C7.92502 0.294325 8.82724 0 10 0Z" fill="currentColor" />

</g>
</svg>
