<svg viewBox="0 0 24 24" fill="none" xmlns="http://www.w3.org/2000/svg">
<g transform="translate(0.9999, 4.4999)">
<path d="M17.6426 0C18.5253 7.02553e-05 18.9748 1.06064 18.3613 1.69531L6.08984 14.3896C5.71301 14.7795 5.19356 15 4.65137 15H2C0.895431 15 0 14.1046 0 13V2C0 0.895431 0.895431 0 2 0H17.6426ZM11.4326 11.3652C12.1464 10.592 13.3167 10.5789 14.0469 11.3359C14.7772 12.0933 14.791 13.3348 14.0771 14.1084C13.1502 15.1129 10.7303 15.2895 10 14.5322C11.1031 13.9317 10.7188 12.1388 11.4326 11.3652ZM21.0664 3.15039C21.2843 2.94521 21.6214 2.95102 21.833 3.16309C22.0442 3.37524 22.0567 3.71967 21.8613 3.94727L16.083 10.6729C15.8036 10.9979 15.3151 11.0165 15.0127 10.7139L14.6143 10.3145C14.312 10.0114 14.3196 9.51021 14.6309 9.2168L21.0664 3.15039ZM4.25 3.75C4.11193 3.75 4 3.86193 4 4V6.5C4 6.63807 4.11193 6.75 4.25 6.75H7.5C7.63807 6.75 7.75 6.63807 7.75 6.5V4C7.75 3.86193 7.63807 3.75 7.5 3.75H4.25Z" fill="currentColor" />

</g>
</svg>
