<svg viewBox="0 0 24 24" fill="none" xmlns="http://www.w3.org/2000/svg">
<g transform="translate(1.0879, 3.3381)">
<path d="M11.5 3.32323H3C2.44772 3.32323 2 3.77095 2 4.32323V14.3232C2.00005 14.8755 2.44774 15.3232 3 15.3232H18C18.5523 15.3232 19 14.8755 19 14.3232V10.3232H21V14.3232C21 15.98 19.6568 17.3232 18 17.3232H3C1.34318 17.3232 4.75937e-05 15.98 0 14.3232V4.32323C0 2.66638 1.34315 1.32323 3 1.32323H11.5V3.32323ZM17.4014 0.323231C17.5175 -0.107763 18.1289 -0.107724 18.2451 0.323231L18.8701 2.64452C18.9106 2.7949 19.0283 2.91262 19.1787 2.95311L21.5 3.57811C21.9311 3.69422 21.9311 4.30576 21.5 4.42186L19.1787 5.04686C19.0283 5.08735 18.9106 5.20507 18.8701 5.35546L18.2451 7.67675C18.1289 8.1077 17.5175 8.10774 17.4014 7.67675L16.7764 5.35546C16.7359 5.20507 16.6182 5.08735 16.4678 5.04686L14.1465 4.42186C13.7157 4.30563 13.7157 3.69435 14.1465 3.57811L16.4678 2.95311C16.6182 2.91262 16.7359 2.7949 16.7764 2.64452L17.4014 0.323231Z" fill="currentColor" />

</g>
</svg>
