<svg viewBox="0 0 24 24" fill="none" xmlns="http://www.w3.org/2000/svg">
<g transform="translate(1.2502, 3.0002)">
<path d="M9.5 3.99994H3C2.44772 3.99994 2 4.44766 2 4.99994V14.9999C2 15.5522 2.44772 15.9999 3 15.9999H18C18.5523 15.9999 19 15.5522 19 14.9999V9.49994H21V14.9999C21 16.6568 19.6569 17.9999 18 17.9999H3C1.34315 17.9999 4.83192e-08 16.6568 0 14.9999V4.99994C0 3.34309 1.34315 1.99994 3 1.99994H9.5V3.99994ZM13.6553 2.0517C13.6553 0.47493 15.2872 -0.507772 16.5928 0.274359L18.5684 1.45698L20.5156 2.62201C21.8269 3.41048 21.8271 5.39407 20.5215 6.18842L18.5742 7.35346L16.5986 8.53608C15.293 9.32426 13.6611 8.33557 13.6611 6.75873V6.44721C13.6611 6.37632 13.6431 6.30653 13.6094 6.24506C13.5755 6.18355 13.5264 6.13234 13.4678 6.09662C13.4093 6.06104 13.3431 6.04144 13.2754 6.04096C13.2075 6.04053 13.1401 6.05873 13.0811 6.09369L11.2803 7.1767L9.48535 8.25385C9.42651 8.28918 9.37778 8.33993 9.34375 8.40131C9.30971 8.46277 9.29102 8.53244 9.29102 8.60346C9.29102 8.6745 9.3097 8.74414 9.34375 8.80561C9.3778 8.86706 9.42644 8.9187 9.48535 8.95405L11.2803 10.0302L13.0811 11.1132C13.1401 11.1482 13.2075 11.1664 13.2754 11.166C13.3431 11.1655 13.4092 11.1459 13.4678 11.1103C13.5264 11.0746 13.5755 11.0234 13.6094 10.9619C13.6431 10.9004 13.6611 10.8306 13.6611 10.7597V10.1308C13.6607 10.0611 13.6779 9.99217 13.7109 9.93159C13.744 9.87097 13.792 9.8203 13.8496 9.7851C13.9071 9.75001 13.9724 9.73174 14.0391 9.73139C14.1058 9.73106 14.1716 9.74854 14.2295 9.78315L15.1465 10.33C15.2067 10.3648 15.2573 10.4163 15.292 10.4785C15.3267 10.5406 15.3445 10.6116 15.3438 10.6835V10.9482C15.3438 12.525 13.7119 13.5079 12.4062 12.7255L10.4307 11.5429L8.4834 10.3779C7.17211 9.5894 7.17211 7.6058 8.4834 6.81733L10.4307 5.65229L12.4004 4.46381C13.706 3.6754 15.3379 4.66424 15.3379 6.24116V6.55268C15.3379 6.62352 15.3559 6.69339 15.3896 6.75483C15.4235 6.81634 15.4726 6.86755 15.5312 6.90326C15.5899 6.93897 15.6568 6.9585 15.7246 6.95893C15.7923 6.95928 15.8591 6.94107 15.918 6.90619L17.7188 5.82319L19.5137 4.74604C19.5726 4.71068 19.6222 4.66005 19.6562 4.59858C19.6902 4.53716 19.708 4.46738 19.708 4.39643C19.708 4.32549 19.6902 4.25569 19.6562 4.19428C19.6222 4.13281 19.5726 4.0812 19.5137 4.04584L17.7188 2.96967L15.918 1.88666C15.859 1.85178 15.7923 1.83358 15.7246 1.83393C15.6567 1.83436 15.5899 1.85388 15.5312 1.88959C15.4726 1.92531 15.4235 1.97652 15.3896 2.03803C15.3559 2.09945 15.3379 2.16937 15.3379 2.24018V2.86909C15.3383 2.93885 15.3211 3.00769 15.2881 3.0683C15.2551 3.12881 15.2079 3.1796 15.1504 3.21479C15.0928 3.24998 15.0267 3.26817 14.96 3.2685C14.8933 3.2688 14.8274 3.25135 14.7695 3.21674L13.8525 2.66987C13.7923 2.63511 13.7417 2.58359 13.707 2.52143C13.6724 2.45928 13.6545 2.3883 13.6553 2.31635V2.0517Z" fill="currentColor" />

</g>
</svg>
