<svg viewBox="0 0 24 24" fill="none" xmlns="http://www.w3.org/2000/svg">
<g transform="translate(1.5004, 4.0003)">
<path d="M18 0C19.6569 1.61066e-07 21 1.34315 21 3V13C21 14.6569 19.6569 16 18 16H3C1.34315 16 4.83192e-08 14.6569 0 13V3C0 1.34315 1.34315 8.05319e-09 3 0H18ZM3 2C2.44772 2 2 2.44772 2 3V13C2 13.5523 2.44772 14 3 14H18C18.5523 14 19 13.5523 19 13V3C19 2.44772 18.5523 2 18 2H3ZM8.75 5C8.88807 5 9 5.11193 9 5.25V7.25C9 7.38807 8.88807 7.5 8.75 7.5H5.75C5.61193 7.5 5.5 7.38807 5.5 7.25V5.25C5.5 5.11193 5.61193 5 5.75 5H8.75Z" fill="currentColor" />

</g>
</svg>
