<svg viewBox="0 0 24 24" fill="none" xmlns="http://www.w3.org/2000/svg">
<g transform="translate(0.8216, 3.4383)">
<path d="M12.5 3.12305H3C2.44772 3.12305 2 3.57077 2 4.12305V14.1231C2.00012 14.6752 2.44779 15.1231 3 15.1231H18C18.5522 15.1231 18.9999 14.6752 19 14.1231V10.6231H21V14.1231C20.9999 15.7798 19.6568 17.1231 18 17.1231H3C1.34322 17.1231 0.000124512 15.7798 0 14.1231V4.12305C0 2.4662 1.34315 1.12305 3 1.12305H12.5V3.12305ZM18.0908 0.222664C18.4829 -0.0954974 19.0601 -0.0726842 19.4258 0.291024L22.0615 2.91407C22.2495 3.10117 22.3558 3.35591 22.3564 3.6211C22.3569 3.8862 22.2515 4.14128 22.0645 4.32911L16.1992 10.2129C15.8571 10.5562 15.4369 10.8116 14.9746 10.957L11.5879 12.0215C11.2333 12.133 10.8465 12.0386 10.583 11.7764C10.3196 11.5142 10.2233 11.1276 10.333 10.7725L11.3779 7.39161C11.5227 6.92339 11.7796 6.49716 12.127 6.15138L18.0146 0.291024L18.0908 0.222664ZM13.5381 7.56837C13.4223 7.68362 13.3364 7.82636 13.2881 7.98243L12.8057 9.54298L14.375 9.04981C14.5289 9.00133 14.6693 8.91605 14.7832 8.80177L19.9404 3.62598L18.7197 2.41114L13.5381 7.56837Z" fill="currentColor" />

</g>
</svg>
