<svg viewBox="0 0 24 24" fill="none" xmlns="http://www.w3.org/2000/svg">
<g transform="translate(1.1206, 3.5000)">
<path d="M21.7588 9.65039L15.7588 16.6504C15.5688 16.872 15.2919 17 15 17C14.7081 17 14.4312 16.872 14.2412 16.6504L11.2412 13.1504L12.7588 11.8496L15 14.4639L20.2412 8.34961L21.7588 9.65039ZM18 0C19.6569 1.61066e-07 21 1.34315 21 3V5.5H19V3C19 2.44772 18.5523 2 18 2H3C2.44772 2 2 2.44772 2 3V13C2 13.5523 2.44772 14 3 14H9.5V16H3C1.34315 16 4.83192e-08 14.6569 0 13V3C0 1.34315 1.34315 8.05319e-09 3 0H18Z" fill="currentColor" />

</g>
</svg>
