<svg viewBox="0 0 24 24" fill="none" xmlns="http://www.w3.org/2000/svg">
<g transform="translate(1.3124, 3.3124)">
<path d="M17.1191 7.61914L16.1133 8.625H17C19.4162 8.625 21.375 10.5838 21.375 13C21.375 15.4162 19.4162 17.375 17 17.375C14.5838 17.375 12.625 15.4162 12.625 13H14.375C14.375 14.4497 15.5503 15.625 17 15.625C18.4497 15.625 19.625 14.4497 19.625 13C19.625 11.5503 18.4497 10.375 17 10.375H16.1133L17.1191 11.3809L15.8809 12.6191L13.3809 10.1191C13.0392 9.77743 13.0392 9.22257 13.3809 8.88086L15.8809 6.38086L17.1191 7.61914ZM18 0C19.6569 1.61066e-07 21 1.34315 21 3V7H19V3C19 2.44772 18.5523 2 18 2H3C2.44772 2 2 2.44772 2 3V13C2 13.5523 2.44772 14 3 14H10.5V16H3C1.34315 16 4.83192e-08 14.6569 0 13V3C0 1.34315 1.34315 8.05319e-09 3 0H18Z" fill="currentColor" />

</g>
</svg>
