<svg viewBox="0 0 24 24" fill="none" xmlns="http://www.w3.org/2000/svg">
<g transform="translate(0.8961, 3.1462)">
<path d="M22.207 9.70703L18.9141 13L22.207 16.293L20.793 17.707L17.5 14.4141L14.207 17.707L12.793 16.293L16.0859 13L12.793 9.70703L14.207 8.29297L17.5 11.5859L20.793 8.29297L22.207 9.70703ZM18 0C19.6569 1.61066e-07 21 1.34315 21 3V6H19V3C19 2.44772 18.5523 2 18 2H3C2.44772 2 2 2.44772 2 3V13C2 13.5523 2.44772 14 3 14H10.5V16H3C1.34315 16 4.83192e-08 14.6569 0 13V3C0 1.34315 1.34315 8.05319e-09 3 0H18Z" fill="currentColor" />

</g>
</svg>
