<svg viewBox="0 0 24 24" fill="none" xmlns="http://www.w3.org/2000/svg">
<g transform="translate(1.2502, 3.0002)">
<path d="M18 15.5C18.69 15.5 19.25 16.06 19.25 16.75C19.25 17.44 18.69 18 18 18C17.31 18 16.75 17.44 16.75 16.75C16.75 16.06 17.31 15.5 18 15.5ZM18 0C19.6569 1.61066e-07 21 1.34315 21 3V5H19V3C19 2.44772 18.5523 2 18 2H3C2.44772 2 2 2.44772 2 3V13C2 13.5523 2.44772 14 3 14H14.5V16H3C1.34315 16 4.83191e-08 14.6569 0 13V3C0 1.34315 1.34315 8.05319e-09 3 0H18ZM18 6.5C19.9997 6.50003 21.4998 8.02911 21.5 9.95996C21.5 10.9417 21.0956 11.7682 20.4277 12.3457C20.0167 12.701 19.5255 12.9457 19 13.0918V14H17V11.3105L17.9375 11.252C18.4656 11.219 18.8683 11.0498 19.1201 10.832C19.3528 10.6307 19.5 10.3549 19.5 9.95996C19.4999 9.13739 18.8989 8.50003 18 8.5C17.1017 8.50002 16.4229 9.15121 16.2324 10.1475L14.2676 9.77246C14.5897 8.08648 15.9053 6.50002 18 6.5Z" fill="currentColor" />

</g>
</svg>
