<svg viewBox="0 0 24 24" fill="none" xmlns="http://www.w3.org/2000/svg">
<g transform="translate(2.0000, 2.0000)">
<path d="M13.0156 0C15.0329 0 16.0247 -8.36966e-05 17.1143 0.342773C18.2971 0.771356 19.2296 1.70391 19.6582 2.8877C20.0001 3.96766 20 4.97001 20 6.97852V13.0215C20 15.0271 20.0001 16.0295 19.6582 17.1123C19.2296 18.2961 18.2981 19.2286 17.1143 19.6572C16.0342 20.0001 15.0331 20 13.0254 20H6.96582C4.96111 20 3.95887 20.0001 2.87695 19.6572C1.69416 19.2286 0.761568 18.296 0.333008 17.1123C-0.00028993 16.0324 8.7452e-10 15.0385 8.7452e-10 13.0215V6.96973C8.7452e-10 4.96401 -0.000124142 3.96176 0.341797 2.87891C0.770403 1.69514 1.70286 0.762546 2.88574 0.333984C3.95718 0.000663502 4.96111 4.87466e-10 6.96582 0H13.0156ZM10.7813 3.39453C10.5918 3.39463 10.4267 3.52627 10.3857 3.71191L10.1777 4.73145C8.19764 4.82859 6.51855 5.80984 6.51855 7.82031C6.51872 9.55723 7.9064 10.3043 9.37305 10.8271C10.7606 11.3433 11.496 11.5352 11.4961 12.2617C11.4961 12.9883 10.7625 13.4462 9.68262 13.4463C8.63495 13.4625 7.62141 13.0666 6.86328 12.3428C6.70622 12.1886 6.45505 12.1887 6.29883 12.3428L5.4707 13.1523C5.31175 13.3056 5.30693 13.5587 5.45996 13.7178C5.46375 13.7216 5.46692 13.7257 5.4707 13.7285C6.14502 14.3599 6.96898 14.8115 7.86426 15.04L7.63281 16.0967C7.5871 16.3195 7.73026 16.5383 7.95313 16.584C7.97682 16.5887 8.00174 16.5928 8.02637 16.5928H9.51758C9.709 16.5937 9.876 16.4601 9.91602 16.2734L10.1309 15.2715C12.5032 15.1258 13.9539 13.8488 13.9541 11.9795C13.9541 10.2586 12.5082 9.53182 10.7529 8.93945C9.81165 8.58582 8.99037 8.34562 8.8916 7.70313L8.88184 7.57129C8.88194 6.82663 9.69146 6.55762 10.501 6.55762C11.4837 6.55963 12.4342 6.90881 13.1836 7.54395C13.3445 7.68952 13.5909 7.6845 13.7451 7.53223L14.5176 6.75684C14.6728 6.60255 14.6738 6.3525 14.5195 6.19727C14.5119 6.19061 14.5047 6.18243 14.4971 6.17578C13.8904 5.65963 13.1888 5.26714 12.4316 5.01953L12.6631 3.87793C12.7078 3.66005 12.5683 3.44832 12.3506 3.40332C12.324 3.39763 12.2961 3.39456 12.2686 3.39453H10.7813Z" fill="currentColor" />

</g>
</svg>
