<svg viewBox="0 0 24 24" fill="none" xmlns="http://www.w3.org/2000/svg">
<g transform="translate(2.9998, 2.9998)">
<path d="M2 16H6V18H1C0.447715 18 2.87871e-07 17.5523 0 17V12H2V16ZM18 17C18 17.2652 17.8946 17.5195 17.707 17.707C17.5195 17.8946 17.2652 18 17 18H12V16H16V12H18V17ZM10.9697 3C11.1906 3 11.3555 3.21239 11.3105 3.43848L11.1025 4.47656C11.8387 4.72897 12.4372 5.12357 12.8828 5.52441C13.0339 5.66042 13.0385 5.90406 12.8984 6.05273L12.2344 6.75781C12.1019 6.89796 11.8911 6.89847 11.75 6.76758C11.1919 6.24924 10.3374 5.87122 9.44629 5.87109C8.74882 5.87109 8.05001 6.13266 8.0498 6.79297C8.0498 7.47085 8.79812 7.69668 9.66211 8.02734C11.1741 8.56634 12.4199 9.22737 12.4199 10.792C12.4199 12.4925 11.1696 13.6542 9.12695 13.7861L8.94141 14.7109C8.90764 14.8804 8.76396 15.0013 8.59863 15L7.31348 14.9902C7.09295 14.9884 6.9299 14.7752 6.97559 14.5498L7.1709 13.5889C6.36696 13.3597 5.66284 12.9499 5.10645 12.3848C4.96583 12.2422 4.96396 12.0053 5.10352 11.8613L5.81738 11.125C5.95266 10.9853 6.16941 10.9863 6.30469 11.126C6.99435 11.8375 7.88303 12.1309 8.73145 12.1309C9.66198 12.1309 10.2929 11.7308 10.293 11.0527C10.293 10.3923 9.66199 10.2182 8.46582 9.74902C7.20315 9.27974 6.00684 8.60082 6.00684 7.01855C6.00705 5.19111 7.45328 4.30014 9.15918 4.21094L9.34668 3.28809C9.38095 3.12018 9.52246 3 9.68652 3H10.9697ZM6 2H2V6H0V1C0 0.734784 0.105432 0.480505 0.292969 0.292969C0.480505 0.105433 0.734784 1.14831e-08 1 0H6V2ZM17 0C17.5523 0 18 0.447715 18 1V6H16V2H12V0H17Z" fill="currentColor" />

</g>
</svg>
