<svg viewBox="0 0 24 24" fill="none" xmlns="http://www.w3.org/2000/svg">
<g transform="translate(0.2500, 0.0000)">
<path d="M7.04189 0.110573C7.42832 -0.088197 7.89958 -0.0140244 8.20693 0.29319L16.914 9.00022H20.4999C22.1566 9.00025 23.4997 10.3435 23.4999 12.0002C23.4999 13.6571 22.1567 15.0002 20.4999 15.0002H16.914L8.20693 23.7073C7.88568 24.0285 7.38839 24.0925 6.99599 23.8635C6.60382 23.6345 6.41455 23.1702 6.53603 22.7326L8.68447 15.0002H3.9999C3.68514 15.0002 3.38895 14.8516 3.20009 14.5998L0.200091 10.5998C-0.0269331 10.2969 -0.0639609 9.89161 0.105365 9.55296C0.274811 9.21434 0.621235 9.00022 0.999896 9.00022H14.0858L8.9872 3.90061C8.98739 3.90177 8.98711 3.90335 8.9872 3.90452C9.11237 4.68681 9.23831 5.48866 9.3329 6.12717C9.3801 6.44574 9.4206 6.72849 9.44911 6.94944C9.47348 7.13828 9.49985 7.35918 9.4999 7.50022H7.4999C7.49989 7.51616 7.49502 7.43995 7.46474 7.2053C7.43857 7.00255 7.40088 6.73398 7.35439 6.42014C7.26151 5.79322 7.13736 5.00075 7.01259 4.22092C6.88791 3.44168 6.76342 2.67704 6.66982 2.10764C6.62305 1.82312 6.58381 1.58671 6.55654 1.4221C6.54294 1.34007 6.53159 1.27546 6.52431 1.23167C6.52072 1.21007 6.51837 1.19308 6.5165 1.18186C6.51563 1.17659 6.51501 1.17195 6.51454 1.16917L6.51357 1.16526C6.44227 0.736625 6.65554 0.30947 7.04189 0.110573ZM4.4999 13.0002H9.9999C10.3122 13.0002 10.6067 13.1463 10.7958 13.3948C10.9848 13.6434 11.0472 13.9668 10.9638 14.2678L9.48134 19.6047L15.7929 13.2932C15.9804 13.1058 16.2348 13.0002 16.4999 13.0002H20.4999C21.0522 13.0002 21.4999 12.5525 21.4999 12.0002C21.4997 11.4481 21.052 11.0002 20.4999 11.0002H2.9999L4.4999 13.0002Z" fill="currentColor" />

</g>
</svg>
