<svg viewBox="0 0 24 24" fill="none" xmlns="http://www.w3.org/2000/svg">
<g transform="translate(3.9997, 1.7497)">
<path d="M12 0C12.3214 1.17082e-08 12.6236 0.154298 12.8115 0.415039C12.9759 0.6431 13.0351 0.928283 12.9795 1.2002L12.9482 1.31641V1.31836C12.9478 1.31953 12.9469 1.32153 12.9463 1.32324C12.9451 1.32666 12.9433 1.33141 12.9414 1.33691C12.9376 1.34801 12.9325 1.36377 12.9258 1.38281C12.9123 1.42126 12.8923 1.47551 12.8672 1.54297C12.8167 1.67823 12.743 1.86818 12.6465 2.09473C12.4545 2.54547 12.1678 3.15493 11.791 3.77148C11.5359 4.18899 11.2262 4.62764 10.8643 5.0293C13.8676 6.18148 16 9.0912 16 12.5C16 16.9183 12.4183 20.5 8 20.5C3.58172 20.5 0 16.9183 0 12.5C4.97027e-08 9.09152 2.13191 6.1817 5.13477 5.0293C4.77302 4.62777 4.464 4.18882 4.20898 3.77148C3.83224 3.15493 3.54545 2.54547 3.35352 2.09473C3.25705 1.86818 3.18326 1.67823 3.13281 1.54297C3.10766 1.47551 3.08774 1.42126 3.07422 1.38281C3.06752 1.36377 3.06239 1.34801 3.05859 1.33691C3.05671 1.33141 3.05487 1.32666 3.05371 1.32324C3.05313 1.32153 3.05215 1.31953 3.05176 1.31836V1.31641C2.95015 1.01147 3.00053 0.675778 3.18848 0.415039C3.37643 0.154298 3.67858 0 4 0H12ZM8 6.5C4.68629 6.5 2 9.18629 2 12.5C2 15.8137 4.68629 18.5 8 18.5C11.3137 18.5 14 15.8137 14 12.5C14 9.18629 11.3137 6.5 8 6.5ZM5.51367 2C5.63164 2.2346 5.76577 2.48263 5.91602 2.72852C6.23062 3.24336 6.58827 3.71031 6.9707 4.03809C7.35076 4.36379 7.69114 4.5 8 4.5C8.30886 4.5 8.64924 4.36379 9.0293 4.03809C9.41173 3.71031 9.76938 3.24336 10.084 2.72852C10.2342 2.48263 10.3684 2.2346 10.4863 2H5.51367Z" fill="currentColor" />

</g>
</svg>
