<svg viewBox="0 0 24 24" fill="none" xmlns="http://www.w3.org/2000/svg">
<g transform="translate(0.9999, 2.9999)">
<path d="M6.5 0C6.5 1.16721 6.93178 2.58524 7.74414 3.69434C8.54513 4.78781 9.64733 5.5 11 5.5C12.3527 5.5 13.4549 4.78781 14.2559 3.69434C15.0682 2.58524 15.5 1.16721 15.5 0H17.5C17.5 1.22539 17.8377 2.64168 18.5752 3.7207C19.2854 4.75954 20.3667 5.5 22 5.5V7.5C20.0285 7.5 18.5428 6.71496 17.5 5.57422V12H22V14H17.5V18H15.5V14H6.5V18H4.5V14H0V12H4.5V5.57422C3.45722 6.71496 1.97148 7.5 0 7.5V5.5C1.63326 5.5 2.71456 4.75954 3.4248 3.7207C4.16235 2.64168 4.5 1.22539 4.5 0H6.5ZM15.5 5.33789C14.4322 6.57758 12.9156 7.5 11 7.5C9.08439 7.5 7.56783 6.57758 6.5 5.33789V12H15.5V5.33789Z" fill="currentColor" />

</g>
</svg>
