<svg viewBox="0 0 24 24" fill="none" xmlns="http://www.w3.org/2000/svg">
<g transform="translate(0.9999, 1.0000)">
<path d="M11.3691 0.224375C11.7618 -0.0959754 12.3408 -0.0733815 12.707 0.292734L15.707 3.29273C16.0975 3.68326 16.0975 4.31627 15.707 4.7068L15.621 4.79273C15.2307 5.18322 15.2307 5.81631 15.621 6.2068L15.7929 6.37867C16.1834 6.76899 16.8165 6.76899 17.207 6.37867L17.2929 6.29273L17.3691 6.22437C17.7618 5.90402 18.3408 5.92662 18.707 6.29273L21.707 9.29273C22.0975 9.68326 22.0975 10.3163 21.707 10.7068L10.707 21.7068C10.3164 22.0973 9.68342 22.0973 9.29289 21.7068L6.29289 18.7068C5.90237 18.3163 5.90237 17.6833 6.29289 17.2927L6.37883 17.2068C6.76915 16.8163 6.76915 16.1832 6.37883 15.7927L6.20696 15.6209C5.81647 15.2305 5.18338 15.2305 4.79289 15.6209L4.70696 15.7068C4.31643 16.0973 3.68342 16.0973 3.29289 15.7068L0.292893 12.7068C-0.097631 12.3163 -0.0976311 11.6833 0.292893 11.2927L11.2929 0.292734L11.3691 0.224375ZM2.41399 11.9998L4.0927 13.6785C5.22666 13.0757 6.66565 13.2516 7.62102 14.2068L7.79289 14.3787C8.74803 15.3339 8.92274 16.7721 8.32024 17.906L9.99992 19.5857L19.5859 9.99977L17.9062 8.32008C16.7723 8.92258 15.3341 8.74787 14.3788 7.79273L14.207 7.62086C13.2517 6.66549 13.0759 5.2265 13.6786 4.09254L11.9999 2.41383L2.41399 11.9998Z" fill="currentColor" />

</g>
</svg>
