<svg viewBox="0 0 24 24" fill="none" xmlns="http://www.w3.org/2000/svg">
<g transform="translate(2.0000, 3.2501)">
<path d="M18.0001 0C18.5274 0 18.9642 0.409382 18.9982 0.935547L19.9982 16.4355C20.016 16.7113 19.9185 16.982 19.7296 17.1836C19.5406 17.3852 19.2765 17.5 19.0001 17.5H1.00012C0.723721 17.5 0.459672 17.3852 0.270626 17.1836C0.0816949 16.982 -0.0157183 16.7113 0.00207133 16.4355L1.00207 0.935547L1.01281 0.838867C1.09048 0.360056 1.50561 0 2.00012 0H18.0001ZM2.06652 15.5H17.9337L17.0626 2H2.93762L2.06652 15.5ZM7.00012 4V6C7.00012 6.55228 7.44783 7 8.00012 7H12.0001C12.5524 7 13.0001 6.55228 13.0001 6V4H15.0001V6C15.0001 7.65685 13.657 9 12.0001 9H8.00012C6.34326 9 5.00012 7.65685 5.00012 6V4H7.00012Z" fill="currentColor" />

</g>
</svg>
