<svg viewBox="0 0 24 24" fill="none" xmlns="http://www.w3.org/2000/svg">
<g transform="translate(2.9998, 2.9998)">
<path d="M14.5 0C14.9 0 15.2614 0.238764 15.4189 0.606445L16.6592 3.5H18V5.5H16.8525L14.9873 17.1582C14.9096 17.6432 14.4912 18 14 18H4C3.50879 18 3.09041 17.6432 3.0127 17.1582L1.14746 5.5H0V3.5H1.34082L2.58105 0.606445L2.64941 0.474609C2.82965 0.182665 3.14998 4.31319e-06 3.5 0H14.5ZM4.85254 16H13.1475L14.8271 5.5H3.17285L4.85254 16ZM3.5166 3.5H14.4834L13.8408 2H4.15918L3.5166 3.5Z" fill="currentColor" />

</g>
</svg>
