<svg viewBox="0 0 24 24" fill="none" xmlns="http://www.w3.org/2000/svg">
<g transform="translate(0.4482, 4.5927)">
<path d="M6.18262 4.73047C8.26789 4.67527 10.5806 5.3971 13.0977 7.18457C13.9771 7.80911 15.7686 9.20088 17.3184 10.4189C18.098 11.0317 18.8245 11.607 19.3555 12.0283C19.4624 12.1132 19.5614 12.1922 19.6514 12.2637C20.4242 12.0027 21.2367 11.6364 22.0957 11.1357L23.1035 12.8643C20.5422 14.357 18.2516 14.8505 16.1357 14.8125C14.0497 14.7749 12.1786 14.218 10.5049 13.7061C8.78688 13.1806 7.31588 12.7187 5.82129 12.6875C4.38736 12.6576 2.89561 13.0287 1.19922 14.2998L0 12.7002C2.0476 11.1658 3.97466 10.648 5.86328 10.6875C6.52405 10.7013 7.17542 10.7844 7.81543 10.9082L10.8848 8.12891C9.0896 7.06375 7.54318 6.69483 6.23535 6.72949C4.67805 6.77079 3.34403 7.38492 2.22461 8.28027L1.59961 7.5L0.974609 6.71875C2.35505 5.61449 4.09747 4.78576 6.18262 4.73047ZM10.1357 11.5039C10.4577 11.6004 10.7759 11.6979 11.0898 11.7939C12.7764 12.3098 14.3997 12.7805 16.1709 12.8125C16.4714 12.8179 16.7774 12.8096 17.0898 12.7871C16.7735 12.5373 16.434 12.2681 16.083 11.9922C14.853 11.0254 13.5065 9.979 12.584 9.28906L10.1357 11.5039ZM18.5996 0C20.8087 0 22.5996 1.79086 22.5996 4C22.5996 6.20914 20.8087 8 18.5996 8C16.3905 7.99994 14.5996 6.2091 14.5996 4C14.5996 1.7909 16.3905 6.49399e-05 18.5996 0ZM18.5996 2C17.4951 2.00006 16.5996 2.89547 16.5996 4C16.5996 5.10453 17.4951 5.99994 18.5996 6C19.7042 6 20.5996 5.10457 20.5996 4C20.5996 2.89543 19.7042 2 18.5996 2Z" fill="currentColor" />

</g>
</svg>
