<svg viewBox="0 0 24 24" fill="none" xmlns="http://www.w3.org/2000/svg">
<g transform="translate(3.0005, 3.0004)">
<path d="M11.5112 0.600987C13.6694 -0.229095 15.7445 -0.28637 17.0151 0.9838C18.2856 2.25429 18.2279 4.3294 17.3979 6.48771C17.0921 7.28262 16.6105 8.14774 16.0629 8.99942C16.6106 9.85115 17.092 10.7162 17.3979 11.5111C18.228 13.6695 18.2855 15.7445 17.0151 17.015C15.7445 18.2856 13.6696 18.228 11.5112 17.3979C10.6758 17.0765 9.83034 16.6438 8.99749 16.1264C8.16972 16.6404 7.32609 17.0754 6.48772 17.3979C4.32932 18.228 2.25436 18.2856 0.983815 17.015C-0.286345 15.7445 -0.229077 13.6694 0.601003 11.5111C0.92203 10.6766 1.3538 9.8315 1.87053 8.99942C1.35392 8.16746 0.921955 7.32214 0.601003 6.48771C-0.228974 4.32947 -0.286627 2.25426 0.983815 0.9838C2.2543 -0.286571 4.32949 -0.229012 6.48772 0.600987C7.32595 0.923399 8.16986 1.35854 8.99749 1.87247C9.83031 1.35512 10.6758 0.922288 11.5112 0.600987ZM3.13616 10.8002C2.87294 11.2832 2.64817 11.762 2.46819 12.2299C1.71312 14.1933 2.00606 15.2087 2.39788 15.601C2.78988 15.993 3.805 16.286 5.76897 15.5307C6.23482 15.3515 6.71303 15.1267 7.19768 14.8627C6.44817 14.2763 5.72333 13.6335 5.04436 12.9545C4.3651 12.2752 3.72278 11.5501 3.13616 10.8002ZM15.601 2.39786C15.2087 2.00604 14.1933 1.71309 12.2299 2.46817C10.3356 3.19679 8.26168 4.65517 6.45842 6.45841C5.65228 7.26455 4.91555 8.12537 4.28167 8.99942C4.91556 9.87356 5.65224 10.7342 6.45842 11.5404C8.26161 13.3436 10.3356 14.802 12.2299 15.5307C14.1939 16.286 15.209 15.993 15.601 15.601C15.993 15.2089 16.2859 14.1937 15.5307 12.2299C15.3604 11.7872 15.1127 11.297 14.8139 10.7836C14.767 10.8458 14.7219 10.9089 14.6752 10.9701C13.6051 12.3725 12.5079 13.599 11.9115 14.1674L11.2221 13.4438L10.5317 12.7201C11.0286 12.2465 12.0561 11.1062 13.0854 9.75724C13.2756 9.50799 13.4615 9.25368 13.644 8.99942C13.4616 8.74532 13.2754 8.49071 13.0854 8.24161C12.0561 6.89275 11.0285 5.75222 10.5317 5.27872L11.2221 4.55509L11.9115 3.83146C12.5078 4.39973 13.6052 5.62641 14.6752 7.02872C14.7217 7.08961 14.7673 7.15239 14.8139 7.21427C15.1125 6.70118 15.3605 6.21133 15.5307 5.76896C16.2858 3.80514 15.993 2.78985 15.601 2.39786ZM5.76897 2.46817C3.80539 1.71312 2.78994 2.00593 2.39788 2.39786C2.00591 2.78985 1.71312 3.80528 2.46819 5.76896C2.6481 6.23673 2.87305 6.71577 3.13616 7.19864C3.72276 6.44884 4.36514 5.72357 5.04436 5.04435C5.72344 4.36527 6.44805 3.72264 7.19768 3.13614C6.71317 2.87229 6.2347 2.6473 5.76897 2.46817Z" fill="currentColor" />

</g>
</svg>
