<svg viewBox="0 0 24 24" fill="none" xmlns="http://www.w3.org/2000/svg">
<g transform="translate(3.5001, 1.2502)">
<path d="M2 11.5C1.99998 14.2614 4.23859 16.5 7 16.5H10C12.7614 16.5 15 14.2614 15 11.5H17C17 15.366 13.866 18.5 10 18.5H9.5V19.5H11.9707V21.5H5.0293V19.5H7.5V18.5H7C3.13401 18.5 -2.96001e-05 15.366 2.09674e-10 11.5H2ZM9.5 0C11.7091 0 13.5 1.79086 13.5 4V11C13.5 13.2091 11.7091 15 9.5 15H7.5C5.29086 15 3.5 13.2091 3.5 11V4C3.5 1.79086 5.29086 2.57706e-07 7.5 0H9.5ZM7.5 2C6.39543 2 5.5 2.89543 5.5 4V11C5.5 12.1046 6.39543 13 7.5 13H9.5C10.6046 13 11.5 12.1046 11.5 11V4C11.5 2.89543 10.6046 2 9.5 2H7.5Z" fill="currentColor" />

</g>
</svg>
