<svg viewBox="0 0 24 24" fill="none" xmlns="http://www.w3.org/2000/svg">
<g transform="translate(1.0009, 3.0004)">
<path d="M8.49955 2H7.1226C5.74616 2.00017 4.54629 2.93708 4.21244 4.27246L3.07377 8.8252C3.83573 8.30472 4.75717 8.00007 5.74955 8C8.11765 8 10.0803 9.73309 10.44 12H11.5591C11.9187 9.73317 13.8816 8.00016 16.2496 8C17.2417 8 18.1625 8.30503 18.9244 8.8252L17.7867 4.27246C17.4528 2.93703 16.2531 2.00004 14.8765 2H13.4996V0H14.8765C17.1707 3.50476e-05 19.1705 1.56145 19.7271 3.78711L21.9693 12.7578C22.0439 13.0565 21.9771 13.3726 21.7876 13.6152C21.5981 13.8579 21.3074 14 20.9996 14H20.94C20.5803 16.2669 18.6176 18 16.2496 18C13.8816 17.9998 11.9187 16.2668 11.5591 14H10.44C10.0803 16.2669 8.11765 18 5.74955 18C3.38158 17.9998 1.41874 16.2668 1.05912 14H0.999554C0.691742 13.9999 0.400904 13.8579 0.211468 13.6152C0.0221492 13.3726 -0.0447144 13.0564 0.0298278 12.7578L2.27202 3.78711C2.82852 1.56151 4.8285 0.000171308 7.1226 0H8.49955V2ZM5.74955 10C4.23092 10.0002 2.99955 11.2313 2.99955 12.75V13.25C2.99955 14.7687 4.23092 15.9998 5.74955 16C7.26833 16 8.49955 14.7688 8.49955 13.25V12.75C8.49955 11.2312 7.26833 10 5.74955 10ZM16.2496 10C14.7309 10.0002 13.4996 11.2313 13.4996 12.75V13.25C13.4996 14.7687 14.7309 15.9998 16.2496 16C17.7683 16 18.9996 14.7688 18.9996 13.25V12.75C18.9996 11.2312 17.7683 10 16.2496 10Z" fill="currentColor" />

</g>
</svg>
