<svg viewBox="0 0 24 24" fill="none" xmlns="http://www.w3.org/2000/svg">
<g transform="translate(2.0000, 2.0000)">
<path d="M10.5183 1.62665C12.6872 -0.542178 16.2039 -0.542252 18.3728 1.62665C20.5415 3.79556 20.5415 7.31227 18.3728 9.48114L13.9265 13.9264L9.48119 18.3727C7.31234 20.5416 3.79565 20.5414 1.6267 18.3727C-0.542233 16.2038 -0.542233 12.6872 1.6267 10.5182L6.07299 6.07293L10.5183 1.62665ZM3.04076 11.9333C1.65307 13.3212 1.65294 15.5709 3.04076 16.9587C4.4286 18.3463 6.67833 18.3463 8.06615 16.9587L11.8054 13.2194L6.78002 8.19403L3.04076 11.9333ZM16.9587 3.04071C15.5709 1.65292 13.3212 1.65312 11.9333 3.04071L8.19408 6.77997L13.2195 11.8054L16.9587 8.0661C18.3462 6.67827 18.3463 4.42851 16.9587 3.04071Z" fill="currentColor" />

</g>
</svg>
