<svg viewBox="0 0 24 24" fill="none" xmlns="http://www.w3.org/2000/svg">
<g transform="translate(3.9996, 1.7497)">
<path d="M2.36723 9.35352C5.49176 6.21585 10.5591 6.21585 13.6836 9.35352C16.8157 12.4988 16.746 17.0808 13.6338 20.2061C13.4462 20.3945 13.1908 20.5 12.9248 20.5H3.02543C2.75953 20.5 2.50409 20.3945 2.31645 20.2061C-0.815679 17.0607 -0.744956 12.4788 2.36723 9.35352ZM12.2666 10.7646C9.92383 8.412 6.12703 8.41199 3.78422 10.7646C1.52571 13.0327 1.4065 16.1776 3.46 18.5H12.4922C14.5694 16.1598 14.5065 13.014 12.2666 10.7646ZM10.0254 0C10.5777 4.0457e-05 11.0254 0.44774 11.0254 1V4.32617C11.6759 4.52214 12.3253 4.78179 12.9727 5.10547L12.0782 6.89453C9.35972 5.5353 6.69115 5.53532 3.9727 6.89453L3.07817 5.10547C3.72555 4.78178 4.37493 4.52214 5.02543 4.32617V1C5.02543 0.447715 5.47315 0 6.02543 0H10.0254ZM7.02543 2.13477C7.32407 2.30774 7.52543 2.63006 7.52543 3C7.52543 3.36977 7.32383 3.69122 7.02543 3.86426V3.9248C7.69196 3.8581 8.35891 3.85809 9.02543 3.9248V2H7.02543V2.13477Z" fill="currentColor" />

</g>
</svg>
