<svg viewBox="0 0 24 24" fill="none" xmlns="http://www.w3.org/2000/svg">
<g transform="translate(1.5004, 2.7504)">
<path d="M2 13.5H19V6H21V14.5C21 15.0523 20.5523 15.5 20 15.5H18.5V18.5H16.5V15.5H4.5V18.5H2.5V15.5H1C0.447715 15.5 0 15.0523 0 14.5V6H2V13.5ZM13.5 0C15.7091 0 17.5 1.79086 17.5 4V11C17.5 11.5523 17.0523 12 16.5 12H4.5C3.94772 12 3.5 11.5523 3.5 11V4C3.5 1.79086 5.29086 0 7.5 0H13.5ZM7.5 2C6.39543 2 5.5 2.89543 5.5 4V10H15.5V4C15.5 2.89543 14.6046 2 13.5 2H7.5Z" fill="currentColor" />

</g>
</svg>
