<svg viewBox="0 0 24 24" fill="none" xmlns="http://www.w3.org/2000/svg">
<g transform="translate(0.5000, 2.7500)">
<path d="M11.5 0C13.433 0 15 1.567 15 3.5V3.55371C15 4.80209 14.3449 5.95928 13.2744 6.60156L12.5 7.06543V7.94238L21.7656 13.6787C22.5329 14.1537 23 14.9922 23 15.8945C22.9999 17.3335 21.8335 18.4999 20.3945 18.5H2.60547C1.16654 18.4999 6.73284e-05 17.3335 0 15.8945C0 14.9922 0.467127 14.1537 1.23438 13.6787L10.5 7.94238V6.5C10.5 6.14879 10.6842 5.82332 10.9854 5.64258L12.2451 4.88672C12.7132 4.60588 13 4.09956 13 3.55371V3.5C13 2.67157 12.3284 2 11.5 2C10.6716 2 10 2.67157 10 3.5V4H8V3.5C8 1.567 9.567 0 11.5 0ZM2.28711 15.3799C2.10879 15.4903 2 15.6848 2 15.8945C2.00007 16.2289 2.27111 16.4999 2.60547 16.5H20.3945C20.7289 16.4999 20.9999 16.2289 21 15.8945C21 15.6848 20.8912 15.4903 20.7129 15.3799L11.5 9.67578L2.28711 15.3799Z" fill="currentColor" />

</g>
</svg>
