<svg viewBox="0 0 24 24" fill="none" xmlns="http://www.w3.org/2000/svg">
<g transform="translate(2.0000, 2.2500)">
<path d="M8.75 13C10.5449 13 12 14.4551 12 16.25V16.5C12 18.1569 10.6569 19.5 9 19.5C7.34315 19.5 6 18.1569 6 16.5H8C8 17.0523 8.44772 17.5 9 17.5C9.55228 17.5 10 17.0523 10 16.5V16.25C9.99999 15.5597 9.44035 15 8.75 15H0V13H8.75ZM16.75 9C18.5449 9 20 10.4551 20 12.25V12.5C20 14.1569 18.6569 15.5 17 15.5C15.3431 15.5 14 14.1569 14 12.5H16C16 13.0523 16.4477 13.5 17 13.5C17.5523 13.5 18 13.0523 18 12.5V12.25C18 11.5597 17.4403 11 16.75 11H0V9H16.75ZM10 0C14.2681 3.59037e-07 18 2.99494 18 7H16C16 4.37764 13.4639 2 10 2C6.53612 2 4 4.37764 4 7H2C2 2.99494 5.7319 0 10 0Z" fill="currentColor" />

</g>
</svg>
