<svg viewBox="0 0 24 24" fill="none" xmlns="http://www.w3.org/2000/svg">
<g transform="translate(2.0000, 2.0000)">
<path d="M14 2H10V4H15C15.5523 4 16 4.44772 16 5V8.5H17C18.6569 8.5 20 9.84315 20 11.5V13.5C20 15.1569 18.6569 16.5 17 16.5H16V19C16 19.5523 15.5523 20 15 20H3.00002C2.44774 20 2.00002 19.5523 2.00002 19V8.30273L0.167991 5.55469C-0.0365363 5.2479 -0.0557143 4.85344 0.118186 4.52832C0.292205 4.20316 0.631227 4 1.00002 4H8.00002V2H4.00002V0H14V2ZM3.83205 7.44531C3.94156 7.60958 4.00002 7.80258 4.00002 8V18H14V6H10V14.5H12V16.5H6.00002V14.5H8.00002V6H2.86819L3.83205 7.44531ZM16 14.5H17C17.5523 14.5 18 14.0523 18 13.5V11.5C18 10.9477 17.5523 10.5 17 10.5H16V14.5Z" fill="currentColor" />

</g>
</svg>
