<svg viewBox="0 0 24 24" fill="none" xmlns="http://www.w3.org/2000/svg">
<g transform="translate(0.0000, 3.0000)">
<path d="M5 8C7.76142 8 10 10.2386 10 13C10 15.7614 7.76142 18 5 18C2.23858 18 0 15.7614 0 13C0 10.2386 2.23858 8 5 8ZM11 2H6.34668L6.09375 3.51465L15.4209 9.50977C16.329 8.5787 17.5967 8 19 8C21.7614 8 24 10.2386 24 13C24 15.7614 21.7614 18 19 18C16.2386 18 14 15.7614 14 13C14 12.3621 14.1201 11.7524 14.3379 11.1914L4.45898 4.84082C4.1232 4.62477 3.94815 4.22982 4.01367 3.83594L4.51367 0.835938C4.59404 0.35375 5.01116 0 5.5 0H11V2ZM5 10C3.34315 10 2 11.3431 2 13C2 14.6569 3.34315 16 5 16C6.65685 16 8 14.6569 8 13C8 11.3431 6.65685 10 5 10ZM19 10C18.3073 10 17.6709 10.2366 17.1631 10.6309L19.541 12.1592L18.459 13.8408L16.0811 12.3125C16.0292 12.5334 16 12.7633 16 13C16 14.6569 17.3431 16 19 16C20.6569 16 22 14.6569 22 13C22 11.3431 20.6569 10 19 10ZM20 6H14V4H20V6Z" fill="currentColor" />

</g>
</svg>
