<svg viewBox="0 0 24 24" fill="none" xmlns="http://www.w3.org/2000/svg">
<g transform="translate(0.6942, 1.7499)">
<path d="M16.3789 4.5C17.3255 4.5002 18.1908 5.03519 18.6143 5.88184L20.8633 10.3789C21.2532 10.2754 21.6329 10.1656 22 10.0479L22.6113 11.9521C22.1899 12.0874 21.7537 12.2126 21.3057 12.3301V19.5C21.3057 20.0522 20.8578 20.4999 20.3057 20.5H16.3057C15.7534 20.5 15.3057 20.0523 15.3057 19.5V17.5H7.30566V19.5C7.30566 20.0522 6.85785 20.4999 6.30566 20.5H2.30566C1.75338 20.5 1.30566 20.0523 1.30566 19.5V12.3301C0.857549 12.2126 0.421494 12.0874 0 11.9521L0.611328 10.0479C0.978199 10.1656 1.35738 10.2755 1.74707 10.3789L3.99707 5.88184C4.42058 5.03518 5.28575 4.50011 6.23242 4.5H16.3789ZM19.3057 12.7812C14.3211 13.7379 8.29026 13.7379 3.30566 12.7812V18.5H5.30566V16.5C5.30567 15.9477 5.75339 15.5 6.30566 15.5H16.3057C16.8578 15.5001 17.3057 15.9478 17.3057 16.5V18.5H19.3057V12.7812ZM6.23242 6.5C6.04319 6.50011 5.86983 6.60712 5.78516 6.77637L3.75684 10.832C8.4482 11.7213 14.1621 11.7212 18.8535 10.832L16.8262 6.77637C16.7416 6.60713 16.5681 6.5002 16.3789 6.5H6.23242ZM11.3057 0C12.6291 2.60028e-05 14.0328 0.438028 15.0127 1.41797L13.5986 2.83203C13.0786 2.31203 12.2321 2.00003 11.3057 2C10.3792 2 9.53273 2.31204 9.0127 2.83203L7.59863 1.41797C8.5786 0.438036 9.98222 2.62945e-06 11.3057 0Z" fill="currentColor" />

</g>
</svg>
