<svg viewBox="0 0 24 24" fill="none" xmlns="http://www.w3.org/2000/svg">
<g transform="translate(3.0001, 1.5050)">
<path d="M14.1494 1.97852L11.3633 2.39844L11.0879 4.49023H18V6.49023H16.8711L14.9902 20.127C14.9217 20.6215 14.4993 20.9902 14 20.9902H4C3.5007 20.9902 3.07825 20.6215 3.00977 20.127L1.12891 6.49023H0V4.49023H9.07129L9.47949 1.39258L9.51367 1.23145C9.62441 0.86772 9.9359 0.592429 10.3213 0.53418L13.8506 0L14.1494 1.97852ZM4.87109 18.9902H13.1289L14.8525 6.49023H10.8242L9.49121 16.6211L7.50879 16.3594L8.80859 6.49023H3.14746L4.87109 18.9902Z" fill="currentColor" />

</g>
</svg>
