<svg viewBox="0 0 24 24" fill="none" xmlns="http://www.w3.org/2000/svg">
<g transform="translate(0.7704, 2.6708)">
<path d="M13.2295 18.6582H9.22949V16.6582H13.2295V18.6582ZM18.9824 1.31641L12.5576 8.65723L18.6719 15.6445C18.8653 15.6365 19.1142 15.6251 19.4014 15.6025C20.1215 15.546 21.067 15.4334 22 15.2139L22.459 17.1611C21.3926 17.4121 20.3373 17.5355 19.5576 17.5967C19.1659 17.6274 18.8377 17.6426 18.6064 17.6504C18.4912 17.6543 18.399 17.6562 18.335 17.6572C18.3032 17.6577 18.2775 17.6581 18.2598 17.6582H18.2295C17.9412 17.6582 17.6664 17.5334 17.4766 17.3164L11.2295 10.1768L4.98242 17.3164C4.79263 17.5333 4.51769 17.6581 4.22949 17.6582H4.19922C4.18157 17.6581 4.15587 17.6577 4.12402 17.6572C4.06003 17.6562 3.96789 17.6543 3.85254 17.6504C3.62135 17.6426 3.29315 17.6274 2.90137 17.5967C2.1217 17.5355 1.0665 17.412 0 17.1611L0.458984 15.2139C1.3921 15.4334 2.33757 15.5461 3.05762 15.6025C3.34488 15.6251 3.59372 15.6365 3.78711 15.6445L9.90039 8.65723L3.47656 1.31641L4.98242 0L11.2295 7.13867L17.4766 0L18.9824 1.31641Z" fill="currentColor" />

</g>
</svg>
