<svg viewBox="0 0 24 24" fill="none" xmlns="http://www.w3.org/2000/svg">
<g transform="translate(1.7933, 1.7934)">
<path d="M4.11883 0.224197C4.51146 -0.0960383 5.09059 -0.0731801 5.45672 0.292556L12.2067 7.04256C12.5972 7.43308 12.5972 8.06609 12.2067 8.45662L11.0388 9.62459L16.7497 15.3355L17.4997 14.5855L20.4138 17.4996L17.4997 20.4136L14.5856 17.4996L15.3356 16.7496L9.62469 11.0386L8.45672 12.2066C8.06619 12.5971 7.43316 12.5971 7.04266 12.2066L0.292661 5.45662C-0.0974444 5.06609 -0.0976628 4.43295 0.292661 4.04256L4.04266 0.292556L4.11883 0.224197ZM2.41375 4.74959L7.74969 10.0855L10.0856 7.74959L4.74969 2.41365L2.41375 4.74959Z" fill="currentColor" />

</g>
</svg>
