<svg viewBox="0 0 24 24" fill="none" xmlns="http://www.w3.org/2000/svg">
<g transform="translate(0.9999, 0.9999)">
<path d="M11 0C11.4277 0 11.808 0.272019 11.9463 0.676758L14.333 7.66602L21.3232 10.0537C21.728 10.192 22 10.5723 22 11C22 11.4277 21.728 11.808 21.3232 11.9463L14.333 14.333L11.9463 21.3232C11.808 21.728 11.4277 22 11 22C10.5723 22 10.192 21.728 10.0537 21.3232L7.66602 14.333L0.676758 11.9463C0.272019 11.808 0 11.4277 0 11C0 10.5723 0.272019 10.192 0.676758 10.0537L7.66602 7.66602L10.0537 0.676758L10.1162 0.53125C10.2875 0.20807 10.6258 0 11 0ZM9.40039 8.77734C9.30034 9.07034 9.07034 9.30034 8.77734 9.40039L4.09375 11L8.77734 12.5996L8.88477 12.6426C9.12634 12.7577 9.31287 12.9664 9.40039 13.2227L11 17.9053L12.5996 13.2227L12.6426 13.1152C12.7577 12.8737 12.9664 12.6871 13.2227 12.5996L17.9053 11L13.2227 9.40039C12.9297 9.30034 12.6997 9.07034 12.5996 8.77734L11 4.09375L9.40039 8.77734Z" fill="currentColor" />

</g>
</svg>
