<svg viewBox="0 0 24 24" fill="none" xmlns="http://www.w3.org/2000/svg">
<g transform="translate(2.0000, 2.2502)">
<path d="M13.0002 0C14.1048 0 15.0002 0.895431 15.0002 2V4H19.0002C19.2847 4 19.5557 4.12109 19.7454 4.33301C19.935 4.54493 20.0258 4.82768 19.9944 5.11035L18.4944 18.6104C18.4381 19.1168 18.0098 19.5 17.5002 19.5H2.50024C1.99069 19.5 1.56237 19.1168 1.5061 18.6104L0.00609718 5.11035C-0.0252793 4.82769 0.0654448 4.54493 0.255121 4.33301C0.444819 4.12109 0.715816 4 1.00024 4H5.00024V2C5.00024 0.895432 5.89567 2.57706e-06 7.00024 0H13.0002ZM3.39575 17.5H16.6047L17.8831 6H2.11743L3.39575 17.5ZM7.00024 4H13.0002V2H7.00024V4Z" fill="currentColor" />

</g>
</svg>
