<svg viewBox="0 0 24 24" fill="none" xmlns="http://www.w3.org/2000/svg">
<g transform="translate(2.0000, 2.0000)">
<path d="M10 0C15.5228 0 20 4.47715 20 10V17C20 18.6569 18.6569 20 17 20H14C13.4477 20 13 19.5523 13 19V11C13 10.4477 13.4477 10 14 10H17C17.351 10 17.6869 10.0631 18 10.1738V10C18 5.58172 14.4183 2 10 2C5.58172 2 2 5.58172 2 10V10.1738C2.31306 10.0631 2.649 10 3 10H6L6.10254 10.0049C6.60667 10.0562 7 10.4823 7 11V19C7 19.5523 6.55228 20 6 20H3C1.34315 20 0 18.6569 0 17V10C0 4.47715 4.47715 0 10 0ZM3 12C2.44772 12 2 12.4477 2 13V17C2 17.5523 2.44772 18 3 18H5V12H3ZM15 18H17C17.5523 18 18 17.5523 18 17V13C18 12.4477 17.5523 12 17 12H15V18Z" fill="currentColor" />

</g>
</svg>
