<svg viewBox="0 0 24 24" fill="none" xmlns="http://www.w3.org/2000/svg">
<g transform="translate(2.5003, 3.0003)">
<path d="M10 0C11.1046 1.28853e-07 12 0.89543 12 2V7.5H14.5C15.0523 7.5 15.5 7.94772 15.5 8.5V11.75C15.5 12.1642 15.8358 12.5 16.25 12.5C16.6642 12.5 17 12.1642 17 11.75V4.61816L15.5527 3.89453L16.4473 2.10547L18.4473 3.10547C18.786 3.27486 19 3.62123 19 4V11.75C19 13.2688 17.7688 14.5 16.25 14.5C14.7312 14.5 13.5 13.2688 13.5 11.75V9.5H12V16H19V18H1C0.447715 18 0 17.5523 0 17V2C0 0.895431 0.895431 8.05319e-09 2 0H10ZM2 16H10V2H2V16Z" fill="currentColor" />

</g>
</svg>
