<svg viewBox="0 0 24 24" fill="none" xmlns="http://www.w3.org/2000/svg">
<g transform="translate(2.5003, 2.2502)">
<path d="M17.9999 0C18.3711 0 18.7117 0.205704 18.8846 0.53418C19.0575 0.862782 19.0344 1.26041 18.8241 1.56641L14.1122 8.41992C15.279 9.59489 15.9999 11.2133 15.9999 13C15.9999 16.5899 13.0897 19.5 9.49988 19.5C5.91003 19.5 2.99988 16.5898 2.99988 13C2.99988 11.2133 3.72076 9.59489 4.88757 8.41992L0.17566 1.56641C-0.0346196 1.26041 -0.0577409 0.862781 0.115113 0.53418C0.288051 0.205704 0.62864 7.04573e-07 0.999879 0H17.9999ZM9.49988 8.5C7.0146 8.5 4.99988 10.5147 4.99988 13C4.99988 15.4853 7.0146 17.5 9.49988 17.5C11.9852 17.5 13.9999 15.4853 13.9999 13C13.9999 10.5147 11.9852 8.5 9.49988 8.5ZM2.90125 2L6.4989 7.2334C6.86432 7.04284 7.25017 6.88659 7.65222 6.76758L10.6805 2H2.90125ZM13.0487 2L10.1698 6.5332C11.0034 6.61854 11.7898 6.86324 12.4999 7.2334L16.0985 2H13.0487Z" fill="currentColor" />

</g>
</svg>
