<svg viewBox="0 0 24 24" fill="none" xmlns="http://www.w3.org/2000/svg">
<g transform="translate(1.5004, 3.0003)">
<path d="M14.3604 0.00878906C18.0589 0.196329 21 3.25486 21 7V14.25C21 16.3211 19.3211 18 17.25 18C15.1789 18 13.5 16.3211 13.5 14.25V14H7.5V14.25C7.5 16.3211 5.82107 18 3.75 18C1.67893 18 0 16.3211 0 14.25V7C0 3.13401 3.13401 0 7 0H14L14.3604 0.00878906ZM7 2C4.23858 2 2 4.23858 2 7V14.25C2 15.2165 2.7835 16 3.75 16C4.7165 16 5.5 15.2165 5.5 14.25V13C5.5 12.4477 5.94772 12 6.5 12H14.5C15.0523 12 15.5 12.4477 15.5 13V14.25C15.5 15.2165 16.2835 16 17.25 16C18.2165 16 19 15.2165 19 14.25V7C19 4.32472 16.8989 2.14053 14.2568 2.00684L14 2H7ZM8 6H10V8H8V10H6V8H4V6H6V4H8V6Z" fill="currentColor" />

</g>
</svg>
