<svg viewBox="0 0 24 24" fill="none" xmlns="http://www.w3.org/2000/svg">
<g transform="translate(0.9999, 0.9999)">
<path d="M12.2869 1.11897C13.7789 -0.372991 16.1983 -0.372991 17.6903 1.11897C18.2871 1.71595 18.6432 2.46197 18.7625 3.23616C19.5371 3.35529 20.2834 3.71225 20.8807 4.3094C22.3727 5.80136 22.3727 8.22076 20.8807 9.71272C19.6334 10.9599 17.7389 11.1633 16.2791 10.325L10.325 16.2791C11.1633 17.7389 10.9599 19.6334 9.71272 20.8807C8.22076 22.3727 5.80137 22.3727 4.3094 20.8807C3.71225 20.2834 3.35529 19.5371 3.23616 18.7625C2.46197 18.6432 1.71595 18.2871 1.11897 17.6903C-0.372991 16.1983 -0.372991 13.7789 1.11897 12.2869C2.36598 11.0401 4.25997 10.8362 5.71956 11.6737L11.6737 5.71956C10.8362 4.25996 11.0401 2.36598 12.2869 1.11897ZM16.2762 2.53303C15.5653 1.82212 14.4119 1.82212 13.701 2.53303C12.9903 3.24388 12.9904 4.39637 13.701 5.10725C13.8885 5.29472 13.9939 5.54917 13.994 5.81428C13.994 6.07948 13.8885 6.33378 13.701 6.52132L6.52132 13.701C6.13079 14.0915 5.49777 14.0915 5.10725 13.701C4.39637 12.9904 3.24389 12.9903 2.53304 13.701C1.82212 14.4119 1.82212 15.5653 2.53304 16.2762C2.95354 16.6965 3.52796 16.8688 4.07796 16.7908C4.38929 16.7466 4.70326 16.8517 4.92561 17.074C5.14797 17.2964 5.25303 17.6104 5.20882 17.9217C5.13084 18.4717 5.30313 19.0461 5.72347 19.4666C6.43438 20.1775 7.58775 20.1775 8.29866 19.4666C9.00935 18.7558 9.0093 17.6033 8.29866 16.8924C8.11119 16.7049 8.00577 16.4505 8.00569 16.1854C8.00569 15.9202 8.11115 15.6659 8.29866 15.4783L15.4783 8.29866L15.5535 8.22932C15.9463 7.90895 16.5263 7.93254 16.8924 8.29866C17.6033 9.00929 18.7558 9.00935 19.4666 8.29866C20.1775 7.58775 20.1775 6.43438 19.4666 5.72346C19.0461 5.30312 18.4717 5.13084 17.9217 5.20882C17.6104 5.25302 17.2964 5.14797 17.0741 4.92561C16.8517 4.70326 16.7466 4.38929 16.7908 4.07796C16.8688 3.52796 16.6965 2.95353 16.2762 2.53303Z" fill="currentColor" />

</g>
</svg>
