<svg viewBox="0 0 24 24" fill="none" xmlns="http://www.w3.org/2000/svg">
<g transform="translate(3.5003, 2.5003)">
<path d="M2 7.3946C2.00001 7.49857 2.01607 7.57534 2.03418 7.62506C2.05091 7.67088 2.06636 7.68724 2.07227 7.69245C2.42306 8.00162 3.18138 8.50006 4.5 8.50006C5.81863 8.50006 6.57695 8.00162 6.92773 7.69245C6.93364 7.68724 6.95007 7.67088 6.9668 7.62506C6.98485 7.57533 6.99999 7.49836 7 7.3946V2.00006H9V7.3946C8.99999 7.95926 8.8369 8.67578 8.25098 9.19245C7.72174 9.65905 6.82401 10.2278 5.5 10.4268V19.0001H3.5V10.4268C2.176 10.2278 1.27826 9.65904 0.749023 9.19245C0.163103 8.67579 1.63942e-05 7.95927 0 7.3946V2.00006H2V7.3946ZM15.5107 0.127994C15.8204 -0.0455228 16.1996 -0.0426398 16.5059 0.136783C16.8121 0.316242 17 0.645099 17 1.00006V19.0001H15V15.0001H12.0029C11.4573 14.9998 11.013 14.5622 11.0039 14.0167V14.0157C11.0039 14.0151 11.0029 14.0138 11.0029 14.0128V13.9669C11.0025 13.9354 11.0014 13.8891 11.001 13.8301C11 13.7122 10.9995 13.5418 11 13.3301C11.001 12.9067 11.0076 12.3152 11.0283 11.6456C11.0694 10.3213 11.1682 8.63242 11.4121 7.31745C11.9052 4.65904 12.874 2.88491 13.7588 1.75788C14.1993 1.19682 14.6151 0.801929 14.9316 0.54108C15.0897 0.410858 15.2227 0.313583 15.3223 0.246158C15.3721 0.212453 15.4135 0.185652 15.4453 0.16608C15.4612 0.15632 15.4754 0.149078 15.4863 0.142643C15.4918 0.139458 15.4968 0.136249 15.501 0.133854C15.5029 0.132762 15.5042 0.130893 15.5059 0.129947L15.5088 0.128971L15.5098 0.127994C15.5103 0.127678 15.5112 0.127727 16 1.00006L15.5107 0.127994ZM15 3.45514C14.3952 4.35608 13.7444 5.71218 13.3789 7.68268C13.1644 8.83938 13.0679 10.4005 13.0273 11.7081C13.0123 12.1935 13.0059 12.6363 13.0029 13.0001H15V3.45514ZM5.5 7.00006H3.5V2.00006H5.5V7.00006Z" fill="currentColor" />

</g>
</svg>
