<svg viewBox="0 0 24 24" fill="none" xmlns="http://www.w3.org/2000/svg">
<g transform="translate(0.9999, 3.2500)">
<path d="M11.0001 0C13.1756 4.78831e-07 14.7214 0.546201 15.7462 1.13184C16.2553 1.42272 16.6287 1.71932 16.882 1.95312C17.0083 2.0698 17.1051 2.17089 17.1739 2.24805C17.2084 2.28659 17.236 2.3191 17.257 2.34473C17.2674 2.3575 17.2761 2.36875 17.2833 2.37793C17.2869 2.38253 17.2903 2.38697 17.2931 2.39062C17.2944 2.3924 17.2958 2.39397 17.297 2.39551L17.2989 2.39746V2.39941C17.2942 2.40371 17.2334 2.45005 16.5001 3L17.2999 2.40039C17.5779 2.77118 17.5654 3.2846 17.2687 3.64062L15.6476 5.58496C16.1002 5.78516 16.6368 6.04101 17.2003 6.34766C18.6678 7.14623 20.5412 8.40927 21.3878 10.1094C21.7828 10.9027 21.918 11.8671 21.9689 12.5527C21.9954 12.9104 22.0012 13.2253 22.0001 13.4512C21.9996 13.5645 21.9974 13.6573 21.9952 13.7227C21.9942 13.7552 21.9932 13.7811 21.9923 13.7998V17.5H19.9923V14.7773H16.9962V17.5H14.9962V14.7773H12.0001V17.5H10.0001V14.7773H7.00403V17.5H5.00403V14.7773H2.00793V17.5H0.00793346V13.7998C0.00708617 13.7811 0.00608057 13.7552 0.00500378 13.7227C0.00284108 13.6573 0.000665279 13.5645 0.000120964 13.4512C-0.00095681 13.2253 0.00482468 12.9104 0.031371 12.5527C0.0822769 11.8671 0.217471 10.9027 0.612426 10.1094C1.459 8.40927 3.33247 7.14623 4.79993 6.34766C5.36311 6.04119 5.89925 5.78511 6.35168 5.58496L4.73157 3.64062C4.43488 3.2846 4.42234 2.77118 4.70032 2.40039L5.50012 3C4.76685 2.45005 4.70604 2.40371 4.70129 2.39941V2.39746L4.70325 2.39551C4.70441 2.39397 4.7058 2.3924 4.70715 2.39062C4.70995 2.38697 4.71332 2.38253 4.71692 2.37793C4.7241 2.36875 4.73286 2.3575 4.74329 2.34473C4.76421 2.3191 4.79188 2.28659 4.82629 2.24805C4.89519 2.17089 4.99192 2.0698 5.11829 1.95312C5.37158 1.71932 5.74498 1.42272 6.25403 1.13184C7.27889 0.5462 8.82468 1.99542e-08 11.0001 0ZM11.0001 2C9.17557 2 7.97135 2.4538 7.24621 2.86816C7.10979 2.94612 6.99043 3.02513 6.88489 3.09863L8.76868 5.35938C8.9792 5.61201 9.05153 5.95281 8.96301 6.26953C8.8855 6.54643 8.69363 6.77511 8.4386 6.89941L8.32532 6.94531L8.32434 6.94629C8.32287 6.9468 8.3201 6.94699 8.31653 6.94824C8.30896 6.9509 8.29698 6.95597 8.28039 6.96191C8.24715 6.97384 8.19613 6.99177 8.13 7.0166C7.99767 7.06631 7.80415 7.1413 7.56653 7.24023C7.08975 7.43874 6.44203 7.73117 5.75598 8.10449C4.32633 8.88249 2.95291 9.89753 2.40344 11.001C2.1864 11.4369 2.07138 12.0831 2.02551 12.7012C2.02361 12.7268 2.02325 12.7523 2.02161 12.7773H19.9786C19.977 12.7523 19.9766 12.7268 19.9747 12.7012C19.9289 12.0831 19.8138 11.4369 19.5968 11.001C19.0473 9.89753 17.6739 8.88249 16.2443 8.10449C15.5582 7.73118 14.9105 7.43873 14.4337 7.24023C14.1961 7.14131 14.0026 7.06631 13.8702 7.0166C13.8041 6.99177 13.7531 6.97384 13.7198 6.96191C13.7033 6.95597 13.6913 6.9509 13.6837 6.94824C13.6801 6.94699 13.6774 6.9468 13.6759 6.94629C13.365 6.83945 13.1258 6.58606 13.0372 6.26953C12.9487 5.95281 13.021 5.61201 13.2316 5.35938L15.1144 3.09863C15.009 3.02527 14.8902 2.94596 14.754 2.86816C14.0289 2.4538 12.8247 2 11.0001 2Z" fill="currentColor" />

</g>
</svg>
