<svg viewBox="0 0 24 24" fill="none" xmlns="http://www.w3.org/2000/svg">
<g transform="translate(0.9999, 3.9999)">
<path d="M0.5839 0.228445C0.814529 0.0385885 1.11787 -0.0387745 1.41105 0.0184838H1.41203C1.41283 0.0186737 1.41427 0.0191396 1.41593 0.0194604C1.41986 0.0202315 1.42625 0.0217979 1.43449 0.0233666C1.4514 0.0265795 1.47791 0.0308011 1.51163 0.0370385C1.57931 0.0495541 1.6793 0.0679861 1.80558 0.0897729C2.0595 0.133575 2.41956 0.192355 2.83878 0.250906C3.68615 0.369237 4.74485 0.482351 5.66398 0.482351C6.57749 0.482323 7.50692 0.36979 8.21867 0.253835C8.57184 0.196289 8.86642 0.139303 9.07023 0.0966088C9.1718 0.0753274 9.25119 0.0577891 9.30363 0.0458275C9.32941 0.0399445 9.34885 0.0350864 9.36124 0.0321557C9.36737 0.0307138 9.37235 0.0298429 9.37492 0.029226H9.37687C9.79044 -0.0717644 10.2228 0.0995003 10.454 0.45696L10.455 0.457937C10.4554 0.458545 10.4563 0.45979 10.4569 0.460867C10.4585 0.463229 10.4609 0.467127 10.4638 0.471609C10.4699 0.481094 10.4792 0.495242 10.4911 0.513601C10.5154 0.550954 10.5516 0.606088 10.5976 0.676687C10.6897 0.818188 10.823 1.02237 10.9862 1.27044C11.3131 1.76698 11.7598 2.4407 12.2411 3.14837C13.2333 4.60704 14.2868 6.08398 14.7704 6.57317C15.36 7.16931 16.2738 7.78056 17.286 8.34173C18.2841 8.89498 19.3161 9.36667 20.0956 9.69817C21.2164 10.175 21.9999 11.2734 21.9999 12.5361V12.9999C21.9999 14.6567 20.6566 15.9998 18.9999 15.9999H12.5771C10.6568 15.9998 9.41516 14.8775 8.52042 13.9404C8.03468 13.4316 7.70334 13.0379 7.31535 12.6796C7.3084 12.6732 7.30075 12.6673 7.29386 12.6611L6.63273 15.248C6.51947 15.6903 6.12061 15.9998 5.66398 15.9999H2.20695C1.73132 15.9999 1.32198 15.6643 1.22745 15.1982L0.239174 10.3251C0.237299 10.3159 0.2359 10.3061 0.234291 10.2968C-0.0313841 8.76303 -0.0272136 7.11853 0.035072 5.54094C0.099105 3.91915 0.219636 2.42573 0.219642 0.999929C0.219643 0.701148 0.353286 0.418402 0.5839 0.228445ZM3.02531 13.9999H4.88761L5.41788 11.9247L2.49308 11.3798L3.02531 13.9999ZM8.54093 2.22844C7.77142 2.35382 6.72541 2.48232 5.66398 2.48235C4.60797 2.48235 3.4434 2.3544 2.56242 2.23137C2.43473 2.21354 2.3123 2.19415 2.1962 2.17669C2.1572 3.31624 2.07708 4.50662 2.03312 5.62005C1.98233 6.90668 1.97893 8.13907 2.10929 9.27434L6.83488 10.1552L6.88859 10.1669C7.62377 10.3467 8.20667 10.7796 8.67277 11.2099C9.11792 11.6209 9.58949 12.1634 9.96769 12.5595C10.801 13.4323 11.535 13.9998 12.5771 13.9999H18.9999C19.5521 13.9998 19.9999 13.5521 19.9999 12.9999V12.5361C19.9999 12.1196 19.7367 11.7186 19.3124 11.538C18.4963 11.1909 17.3962 10.6894 16.3163 10.0907C15.2504 9.49982 14.1386 8.77844 13.3476 7.97844C12.7046 7.32794 11.5359 5.66722 10.5878 4.27337C10.099 3.55479 9.64579 2.87211 9.31535 2.37005C9.2564 2.28048 9.20103 2.19645 9.15031 2.11907C8.97338 2.15303 8.76817 2.19142 8.54093 2.22844Z" fill="currentColor" />

</g>
</svg>
