<svg viewBox="0 0 24 24" fill="none" xmlns="http://www.w3.org/2000/svg">
<g transform="translate(0.5000, 2.2500)">
<path d="M11.5 0C12.9749 4.91409e-05 14.1231 0.445938 14.9794 1.17773C15.8185 1.8949 16.3054 2.82459 16.5898 3.68652C16.8744 4.5494 16.9731 5.39528 17.0039 6.0127C17.0099 6.13408 17.0119 6.24786 17.0136 6.35254C18.6429 6.16227 20.2387 5.88787 21.7705 5.52637C22.1122 5.44583 22.4718 5.55025 22.7168 5.80176C22.9618 6.05329 23.0563 6.41536 22.9668 6.75488L20.1933 17.2656C19.8458 18.5824 18.6548 19.4998 17.2929 19.5H5.70699C4.34513 19.4999 3.15416 18.5824 2.8066 17.2656L0.0331588 6.75488C-0.0563564 6.41534 0.0381355 6.0533 0.283159 5.80176C0.528169 5.55025 0.887705 5.44582 1.22945 5.52637C2.77131 5.89026 4.37805 6.16606 6.01851 6.35645C6.01956 6.25228 6.02106 6.13916 6.02632 6.01855C6.05326 5.40131 6.14641 4.55552 6.42574 3.69238C6.70494 2.82982 7.1869 1.89744 8.02339 1.17871C8.87719 0.445186 10.025 3.42483e-05 11.5 0ZM20.6171 7.81738C14.7684 8.95342 8.23041 8.95353 2.38179 7.81738L4.74019 16.7549C4.85601 17.1938 5.25311 17.4999 5.70699 17.5H17.2929C17.7468 17.4998 18.1439 17.1938 18.2597 16.7549L20.6171 7.81738ZM11.5 2C10.4543 2.00003 9.78271 2.30486 9.3271 2.69629C8.85445 3.10246 8.53534 3.67047 8.32906 4.30762C8.12304 4.9441 8.0465 5.59886 8.02437 6.10645C8.01706 6.27417 8.01692 6.42262 8.01851 6.54492C10.3369 6.71277 12.6967 6.71145 15.0146 6.54199C15.0152 6.42143 15.0149 6.27612 15.0068 6.1123C14.9815 5.60476 14.9005 4.9505 14.6904 4.31348C14.48 3.67559 14.1567 3.10498 13.6796 2.69727C13.2197 2.30442 12.5451 2.00005 11.5 2Z" fill="currentColor" />

</g>
</svg>
