<svg viewBox="0 0 24 24" fill="none" xmlns="http://www.w3.org/2000/svg">
<g transform="translate(0.6942, 3.2499)">
<path d="M16.3789 0C17.3255 0.000193038 18.1908 0.535187 18.6143 1.38184L20.8633 5.87891C21.2532 5.77544 21.6329 5.66565 22 5.54785L22.6113 7.45215C22.1899 7.58738 21.7537 7.71257 21.3057 7.83008V16.5C21.3057 17.0522 20.8578 17.4999 20.3057 17.5H16.3057C15.7534 17.5 15.3057 17.0523 15.3057 16.5V14.5H7.30566V16.5C7.30566 17.0522 6.85785 17.4999 6.30566 17.5H2.30566C1.75338 17.5 1.30566 17.0523 1.30566 16.5V7.83008C0.857549 7.71256 0.421494 7.58739 0 7.45215L0.611328 5.54785C0.978199 5.66557 1.35738 5.7755 1.74707 5.87891L3.99707 1.38184C4.42057 0.535172 5.28574 0.000110406 6.23242 0H16.3789ZM19.3057 8.28125C14.3211 9.23792 8.29025 9.23789 3.30566 8.28125V15.5H5.30566V13.5C5.30566 12.9477 5.75338 12.5 6.30566 12.5H16.3057C16.8578 12.5001 17.3057 12.9478 17.3057 13.5V15.5H19.3057V8.28125ZM6.23242 2C6.04318 2.00011 5.86982 2.10711 5.78516 2.27637L3.75684 6.33203C8.4482 7.2213 14.1621 7.22121 18.8535 6.33203L16.8262 2.27637C16.7416 2.10713 16.5681 2.00019 16.3789 2H6.23242Z" fill="currentColor" />

</g>
</svg>
