<svg viewBox="0 0 24 24" fill="none" xmlns="http://www.w3.org/2000/svg">
<g transform="translate(3.5004, 1.2502)">
<path d="M8.49982 0C13.343 0 16.3252 4.03247 15.7664 8H15.9998C16.3667 8 16.7039 8.20094 16.8787 8.52344C17.0535 8.846 17.038 9.23856 16.8377 9.5459L9.33771 21.0459C9.15311 21.329 8.83775 21.5 8.49982 21.5C8.16188 21.5 7.84653 21.329 7.66193 21.0459L0.161927 9.5459C-0.0383318 9.23856 -0.0538198 8.846 0.120911 8.52344C0.295755 8.20094 0.632951 8 0.999817 8H1.23322C0.674433 4.03247 3.65659 5.95543e-07 8.49982 0ZM14.1688 9.97656C11.9727 9.80468 10.2393 10.3468 8.32111 10.7305C6.68592 11.0575 4.99364 11.229 3.1424 10.4551L8.49982 18.6689L14.1688 9.97656ZM8.49982 2C4.65539 2 2.52023 5.35246 3.33868 8.33301C4.89042 9.1913 6.26201 9.10282 7.92853 8.76953C9.50378 8.45448 11.4359 7.87987 13.7479 7.95117C14.2934 5.07342 12.1809 2 8.49982 2Z" fill="currentColor" />

</g>
</svg>
