<svg viewBox="0 0 24 24" fill="none" xmlns="http://www.w3.org/2000/svg">
<g transform="translate(0.4725, 3.7493)">
<path d="M9.85645 0.0139605C10.2901 -0.0593955 10.7262 0.161125 10.9219 0.562789L10.9229 0.564742C10.9236 0.566236 10.9253 0.568571 10.9268 0.571578C10.93 0.578155 10.9349 0.588624 10.9414 0.601851C10.9547 0.628826 10.9742 0.670108 11 0.721968C11.0517 0.82592 11.1275 0.976864 11.2217 1.16142C11.4105 1.53141 11.6736 2.03626 11.9707 2.57548C12.5903 3.70006 13.2804 4.82705 13.7422 5.30498C14.3049 5.88715 15.4215 6.52364 16.7871 7.12334C18.115 7.70641 19.5473 8.2005 20.625 8.54228C22.0346 8.98932 22.9767 10.3903 22.7617 11.8977L22.6445 12.7181C23.0458 13.2494 23.1895 13.9709 22.9102 14.6692L22.6797 15.2435C22.376 16.0026 21.6409 16.5012 20.8232 16.5013H3C1.34336 16.5013 0.000343847 15.1578 0 13.5013V11.3587C6.3275e-06 10.865 0.18468 10.3962 0.5 10.0394V4.50029C0.500108 4.18911 0.64547 3.89549 0.892578 3.70634C1.13933 3.51764 1.45983 3.45382 1.75977 3.53447L1.76074 3.53544H1.7627C1.76461 3.53596 1.76809 3.53721 1.77246 3.53837C1.78145 3.54076 1.79581 3.54426 1.81445 3.54912C1.85203 3.55891 1.90884 3.57298 1.98145 3.59111C2.1269 3.62742 2.33692 3.67824 2.59082 3.73466C3.10141 3.84813 3.77802 3.98302 4.46094 4.07158C5.1587 4.16205 5.79915 4.19534 6.26172 4.13994C6.43167 4.11956 6.54179 4.08661 6.6084 4.06279C6.70555 3.74467 6.77647 3.47854 6.88867 3.1038C7.00186 2.72583 7.14191 2.30979 7.34961 1.9124C7.79802 1.05472 8.52466 0.358554 9.76953 0.0325152L9.85645 0.0139605ZM10.3643 12.1556C7.33312 11.5394 4.72754 11.1082 2 11.3811V13.5013C2.00034 14.0533 2.44793 14.5013 3 14.5013H20.8232L21.0527 13.9261C21.0522 13.9248 21.0511 13.9232 21.0498 13.9212C21.0462 13.9156 21.0418 13.9108 21.0381 13.9085C21.0365 13.9075 21.0348 13.9071 21.0332 13.9065C21.0317 13.906 21.0284 13.905 21.0234 13.9046C16.8209 13.5661 13.3912 12.7709 10.3643 12.1556ZM9.55859 2.29814C9.36195 2.44993 9.23025 2.63136 9.12207 2.83818C9.0033 3.06539 8.9066 3.33766 8.80469 3.67802C8.71708 3.97065 8.5929 4.43423 8.47559 4.80302C8.31424 5.31012 7.94844 5.63124 7.58789 5.81865C7.24174 5.99848 6.85336 6.08382 6.49902 6.12627C5.78772 6.21143 4.95219 6.15099 4.2041 6.054C3.59124 5.97453 2.99344 5.86316 2.5 5.76005V9.33623C5.2957 9.16317 7.95374 9.62456 10.7627 10.1956C13.7311 10.7991 16.8922 11.5279 20.7451 11.8724L20.7822 11.6155C20.853 11.1189 20.5405 10.6134 20.0205 10.4485C18.9096 10.0962 17.402 9.57778 15.9824 8.95439C14.6005 8.34753 13.1614 7.58292 12.3037 6.6956C11.6248 5.99309 10.8138 4.62036 10.2188 3.54033C9.96653 3.08253 9.73994 2.64952 9.55859 2.29814Z" fill="currentColor" />

</g>
</svg>
