<svg viewBox="0 0 24 24" fill="none" xmlns="http://www.w3.org/2000/svg">
<g transform="translate(2.0000, 2.5000)">
<path d="M2.5 16L2.50488 16.1025C2.55621 16.6067 2.98232 17 3.5 17H16.5C17.0523 17 17.5 16.5523 17.5 16V14.5H19.5V16C19.5 17.6569 18.1569 19 16.5 19H3.5C1.89489 19 0.584214 17.7394 0.503906 16.1543L0.5 16V14.5H2.5V16ZM20 12C19.3097 12 18.7039 12.1935 17.9834 12.4443C17.3061 12.6801 16.4515 13 15.5 13C14.5402 13 13.7263 12.6734 13.0801 12.4404C12.4068 12.1978 11.7933 12 11 12C10.3995 12 10.022 12.2737 9.26367 12.8145C8.52596 13.3405 7.54645 14 6 14C4.59385 14 3.53068 13.3424 2.69336 12.8721C1.82253 12.383 1.06544 12 0 12V10C1.61749 10 2.76319 10.617 3.67285 11.1279C4.61593 11.6576 5.21115 12 6 12C6.89258 12 7.43781 11.6595 8.10254 11.1855C8.74664 10.7263 9.64946 10 11 10C12.1577 10 13.044 10.3023 13.7578 10.5596C14.4988 10.8266 14.9598 11 15.5 11C16.0484 11 16.5664 10.8198 17.3252 10.5557C18.0409 10.3065 18.9355 10 20 10V12ZM10 0C12.3856 0 14.7274 0.548885 16.5039 1.76855C18.3194 3.01505 19.5 4.93955 19.5 7.5C19.5 8.05228 19.0523 8.5 18.5 8.5H1.5C0.947718 8.5 0.5 8.05228 0.5 7.5C0.5 4.93955 1.68059 3.01505 3.49609 1.76855C5.27264 0.548884 7.61437 9.50828e-07 10 0ZM10 2C7.88565 2 5.97734 2.49225 4.62891 3.41797C3.56778 4.14648 2.82806 5.15488 2.58594 6.5H17.4141C17.1719 5.15488 16.4322 4.14648 15.3711 3.41797C14.0227 2.49226 12.1143 2 10 2Z" fill="currentColor" />

</g>
</svg>
