<svg viewBox="0 0 24 24" fill="none" xmlns="http://www.w3.org/2000/svg">
<g transform="translate(0.9999, 2.1876)">
<path d="M14.7072 18.207C13.7272 19.187 12.3236 19.625 11.0001 19.625C9.67665 19.625 8.27307 19.187 7.2931 18.207L8.70716 16.793C9.22719 17.313 10.0736 17.625 11.0001 17.625C11.9267 17.625 12.7731 17.313 13.2931 16.793L14.7072 18.207ZM12.0001 4H16.0001C16.5524 4 17.0001 4.44772 17.0001 5C17.0001 6.3772 16.3186 7.65258 15.1984 8.57129C17.6995 9.26861 20.3055 10.7175 21.8722 13.5107C22.0459 13.8204 22.0428 14.1995 21.8634 14.5059C21.684 14.8121 21.3551 15 21.0001 15H1.00013C0.645162 15 0.316307 14.8121 0.136851 14.5059C-0.042579 14.1995 -0.0456263 13.8204 0.128062 13.5107C1.69461 10.7179 4.30005 9.26871 6.80091 8.57129C5.68109 7.65261 5.00013 6.37695 5.00013 5C5.00013 4.73478 5.10557 4.48051 5.2931 4.29297C5.48064 4.10543 5.73492 4 6.00013 4H10.0001V0H12.0001V4ZM11.0001 10C8.55165 10 5.16096 10.6819 2.96888 13H19.0314C16.8393 10.6819 13.4486 10 11.0001 10ZM7.25111 6C7.7395 6.99257 8.9343 7.92003 10.7599 7.99512L11.0001 8L11.2404 7.99512C13.066 7.92003 14.2608 6.99257 14.7492 6H7.25111Z" fill="currentColor" />

</g>
</svg>
