<svg viewBox="0 0 24 24" fill="none" xmlns="http://www.w3.org/2000/svg">
<g transform="translate(0.9999, 2.0004)">
<path d="M2.74862 0.449661C3.14766 0.0284499 3.71731 -0.0850898 4.20565 0.0600121C4.63996 0.189174 5.00462 0.519218 5.17342 0.970168C8.6171 6.42022 13.9478 8.76959 19.8238 7.92134C20.6176 7.80682 21.3766 8.15383 21.7603 8.79829C22.1745 9.49403 22.0532 10.3803 21.3834 10.979C19.9124 12.2932 17.7434 13.5308 15.3053 14.0336C16.0451 14.2472 16.8386 14.4315 17.692 14.5844L18.4517 14.7114L18.5064 14.7211C19.6144 14.9542 20.1952 16.4353 19.1754 17.2944C14.7429 21.0253 7.65253 20.996 3.31991 16.5834C-1.00935 12.1741 -0.975913 5.03234 2.67147 0.537551L2.74862 0.449661ZM3.53768 2.76607C1.19885 6.52671 1.47298 11.8477 4.74667 15.1821C8.0115 18.5072 13.24 18.8222 16.9195 16.4721C13.1412 15.7386 10.2421 14.3974 8.05331 12.142C5.8539 9.87566 4.47033 6.78727 3.53768 2.76607ZM6.48007 5.70845C7.2598 7.81786 8.24135 9.46292 9.48885 10.7485C9.92911 11.2021 10.4103 11.6142 10.9332 11.9917C14.0356 12.8343 17.2971 11.621 19.442 9.98384C14.558 10.5119 10.016 9.04712 6.48007 5.70845Z" fill="currentColor" />

</g>
</svg>
