<svg viewBox="0 0 24 24" fill="none" xmlns="http://www.w3.org/2000/svg">
<g transform="translate(0.9999, 3.9999)">
<path d="M21 0C21.5523 0 22 0.447715 22 1V4.4707C21.9999 7.00526 20.6313 9.37881 18.3418 10.5518C17.253 11.1096 16.0663 11.6876 15.3291 11.9443C14.4985 12.2336 13.5544 12.7027 12.7969 13.1152C12.4231 13.3188 12.1039 13.5035 11.8789 13.6367C11.7666 13.7032 11.6779 13.7575 11.6182 13.7939C11.5885 13.8121 11.5655 13.8258 11.5508 13.835C11.5438 13.8393 11.5386 13.8426 11.5352 13.8447C11.5334 13.8458 11.5319 13.8472 11.5312 13.8477C11.2068 14.0508 10.7943 14.0507 10.4697 13.8477H10.4688C10.4681 13.8472 10.4666 13.8458 10.4648 13.8447C10.4614 13.8426 10.4562 13.8393 10.4492 13.835C10.4345 13.8258 10.4115 13.8121 10.3818 13.7939C10.3221 13.7575 10.2334 13.7032 10.1211 13.6367C9.89611 13.5035 9.57688 13.3188 9.20312 13.1152C8.44565 12.7027 7.50153 12.2336 6.6709 11.9443C5.93372 11.6876 4.74703 11.1096 3.6582 10.5518C3.03357 10.2317 2.47845 9.82138 2 9.34375V16H0V1C0 0.447724 0.447728 1.48176e-05 1 0H21ZM2 4.4707C2.0001 6.29289 2.98141 7.95776 4.56934 8.77148C5.67885 9.33991 6.74441 9.85204 7.3291 10.0557C8.31453 10.3989 9.37074 10.93 10.1592 11.3594C10.4863 11.5375 10.7741 11.7018 11 11.834C11.2259 11.7018 11.5137 11.5375 11.8408 11.3594C12.6293 10.93 13.6855 10.3989 14.6709 10.0557C15.2556 9.85204 16.3211 9.33991 17.4307 8.77148C19.0186 7.95777 19.9999 6.2929 20 4.4707V2H2V4.4707Z" fill="currentColor" />

</g>
</svg>
