<svg viewBox="0 0 24 24" fill="none" xmlns="http://www.w3.org/2000/svg">
<g transform="translate(2.5003, 2.7503)">
<path d="M2 4C2 5.933 3.567 7.5 5.5 7.5C7.433 7.5 9 5.933 9 4V0H11V4C11 6.69594 9.05993 8.93682 6.5 9.40723V12.5C6.50001 14.7091 8.29087 16.5 10.5 16.5C12.4254 16.4999 14.032 15.1392 14.4131 13.3271C13.0123 12.8699 12 11.5535 12 10C12 8.067 13.567 6.5 15.5 6.5C17.4329 6.50006 19 8.06704 19 10C19 11.6088 17.9141 12.9627 16.4355 13.3721C16.0131 16.2723 13.5174 18.4999 10.5 18.5C7.1863 18.5 4.50001 15.8137 4.5 12.5V9.40723C1.94007 8.93682 0 6.69594 0 4V0H2V4ZM15.5 8.5C14.6716 8.5 14 9.17157 14 10C14 10.8284 14.6716 11.5 15.5 11.5C16.3284 11.4999 17 10.8284 17 10C17 9.17161 16.3284 8.50006 15.5 8.5Z" fill="currentColor" />

</g>
</svg>
