<svg viewBox="0 0 24 24" fill="none" xmlns="http://www.w3.org/2000/svg">
<g transform="translate(1.1018, 2.4724)">
<path d="M2.83105 1.75H7.99316L8.15039 1.7627C8.50989 1.81987 8.8152 2.07019 8.9375 2.42188L9.88086 5.13672C10.1787 5.99373 10.848 6.67046 11.7021 6.97656L14.5986 8.01367L17.1807 8.76074C19.3839 9.39763 20.9447 11.3246 21.1396 13.5771C21.5415 13.943 21.7959 14.4684 21.7959 15.0547V17.0547C21.7959 18.1591 20.9003 19.0545 19.7959 19.0547H2.7959C1.69135 19.0547 0.795941 18.1592 0.795898 17.0547V15.0547C0.795898 14.5478 0.985116 14.0859 1.2959 13.7334V3.05371L0 1.10938L1.66406 0L2.83105 1.75ZM2.7959 17.0547H19.7959V15.0547H2.7959V17.0547ZM3.2959 13.0547H12.9639C12.879 12.6668 12.8076 12.2223 12.8076 11.7939C12.8076 11.1833 12.9503 10.3861 13.0723 9.80371C13.0863 9.73656 13.1023 9.67087 13.1162 9.60742L11.0273 8.85938C9.60371 8.34915 8.48752 7.22151 7.99121 5.79297L7.28223 3.75H3.2959V13.0547ZM15.0283 10.2207C14.9071 10.8007 14.8076 11.4131 14.8076 11.7939C14.8077 12.1544 14.9011 12.6162 15.0156 13.0303C15.0179 13.0385 15.0212 13.0465 15.0234 13.0547H19.0127C18.6783 11.9306 17.7957 11.0209 16.626 10.6826L15.0283 10.2207Z" fill="currentColor" />

</g>
</svg>
