<svg viewBox="0 0 24 24" fill="none" xmlns="http://www.w3.org/2000/svg">
<g transform="translate(1.1127, 2.4996)">
<path d="M8.81955 0C12.0726 0.000451258 14.7278 2.61289 14.7278 5.85742C14.7277 6.94572 14.4947 8.04764 13.9836 9H19.4553C19.8148 9.00014 20.1478 9.19325 20.3254 9.50586C20.8664 10.4577 21.7736 11.6511 21.7737 13.9521C21.7737 16.8368 19.2088 18.9998 16.2737 19H6.77365C3.83838 19 1.27365 16.8369 1.27365 13.9521C1.27375 11.9472 2.56746 10.3567 4.28244 9.54785C4.00894 9.21595 3.76744 8.85319 3.56565 8.4668C3.34244 8.43951 3.04257 8.38983 2.70139 8.29199C1.99157 8.08835 1.06392 7.67396 0.270725 6.8291C-0.00197354 6.53845 -0.0760174 6.11287 0.0822485 5.74707C0.240587 5.38125 0.601615 5.14465 1.00022 5.14453C1.25623 5.14453 1.80207 5.11523 2.31076 5.0293C2.56601 4.98616 2.77757 4.93452 2.926 4.87988C2.95752 4.86827 2.98105 4.85556 2.99924 4.84668C3.48308 2.08695 5.91198 0 8.81955 0ZM8.81955 2C6.65057 2 4.91037 3.73718 4.91037 5.85742C4.91048 7.18193 5.70224 8.44918 6.81174 9.15723C7.16709 9.38428 7.34254 9.8104 7.24924 10.2217C7.1558 10.6329 6.81331 10.9408 6.39475 10.9922C4.55337 11.2174 3.2738 12.5445 3.27365 13.9521C3.27365 15.5383 4.73837 17 6.77365 17H16.2737C18.3087 16.9998 19.7737 15.5382 19.7737 13.9521C19.7736 12.5547 19.3699 11.8265 18.8821 11H11.7737C11.332 11 10.9425 10.7102 10.8156 10.2871C10.689 9.86401 10.855 9.40791 11.2239 9.16504C12.1822 8.5344 12.7277 7.32327 12.7278 5.85742C12.7278 3.73746 10.9881 2.00045 8.81955 2Z" fill="currentColor" />

</g>
</svg>
