<svg viewBox="0 0 24 24" fill="none" xmlns="http://www.w3.org/2000/svg">
<g transform="translate(1.4422, 3.0002)">
<path d="M9.97646 0.186475C10.3483 -0.0797809 10.8597 -0.0609167 11.2118 0.243115L11.2138 0.245069C11.2144 0.245653 11.2158 0.246269 11.2167 0.247022C11.2187 0.248787 11.2214 0.25116 11.2245 0.253858C11.2309 0.259465 11.2392 0.267755 11.2499 0.277295C11.2715 0.29653 11.302 0.323641 11.3397 0.35835C11.4153 0.42786 11.5218 0.527946 11.6513 0.656201C11.9102 0.912699 12.2648 1.28421 12.6552 1.75093C13.2328 2.44163 13.9041 3.36146 14.4608 4.44429C15.404 3.81067 16.2974 3.31269 17.0116 2.95015C17.4964 2.70406 17.9024 2.51852 18.1894 2.39351C18.3327 2.33105 18.4475 2.28337 18.5272 2.25093C18.5667 2.23488 18.598 2.2225 18.62 2.21382C18.6308 2.20955 18.64 2.20651 18.6464 2.20405C18.6495 2.20286 18.6522 2.20097 18.6542 2.20015L18.6571 2.19917H18.6581C19.1267 2.02035 19.6556 2.21624 19.8944 2.65718C21.8512 6.27605 21.2939 10.1366 19.3788 13.0546C17.4767 15.9528 14.1869 17.9998 10.5585 18C6.92995 17.9998 3.63934 15.9529 1.7372 13.0546C-0.177781 10.1366 -0.735135 6.27596 1.22158 2.65718L1.26943 2.57808C1.52581 2.19346 2.01843 2.03157 2.45791 2.19917H2.45888L2.46181 2.20015C2.46378 2.2009 2.46653 2.20281 2.46963 2.20405C2.47598 2.20652 2.48512 2.20955 2.49599 2.21382C2.51799 2.22248 2.54929 2.23487 2.58877 2.25093C2.66847 2.28335 2.78326 2.33104 2.92666 2.39351C3.21359 2.5185 3.61954 2.70405 4.10439 2.95015C4.81846 3.31259 5.71129 3.81089 6.6542 4.44429C7.21091 3.36131 7.88316 2.44172 8.46084 1.75093C8.85114 1.28423 9.20578 0.912719 9.46474 0.656201C9.59421 0.527963 9.70074 0.42788 9.77627 0.35835C9.81395 0.323655 9.8445 0.296547 9.86611 0.277295C9.8768 0.267772 9.8851 0.259488 9.8915 0.253858C9.89457 0.251168 9.89728 0.248795 9.89931 0.247022C9.9002 0.246252 9.90151 0.245627 9.90224 0.245069L9.9042 0.243115L9.97646 0.186475ZM2.58877 4.4355C1.51021 7.07259 1.99033 9.79497 3.40908 11.957C4.5177 13.6462 6.1757 14.9542 8.05752 15.5849C7.94106 15.4236 7.82198 15.255 7.704 15.0791C6.64955 13.5069 5.51162 11.2584 5.51162 8.80952C5.51165 7.94201 5.65345 7.1132 5.88271 6.34175C4.89917 5.65134 3.94698 5.11394 3.19912 4.73433C2.97486 4.6205 2.76969 4.52028 2.58877 4.4355ZM17.9169 4.73433C17.1689 5.11404 16.2161 5.65113 15.2323 6.34175C15.4616 7.11329 15.6044 7.94188 15.6044 8.80952C15.6044 11.2585 14.4665 13.5069 13.412 15.0791C13.2939 15.2551 13.1741 15.4235 13.0575 15.5849C14.9397 14.9543 16.5981 13.6465 17.7069 11.957C19.1258 9.79483 19.6051 7.07278 18.5263 4.4355C18.3455 4.5202 18.1408 4.62067 17.9169 4.73433ZM10.5575 2.4023C10.3894 2.58085 10.1974 2.79218 9.99502 3.03413C9.30153 3.86341 8.50174 5.00905 8.00088 6.32222C7.69876 7.11437 7.51166 7.95201 7.51162 8.80952C7.51162 10.6736 8.39627 12.5212 9.36513 13.9658C9.78975 14.5988 10.2167 15.1312 10.5575 15.5273C10.8983 15.1312 11.3261 14.5991 11.7509 13.9658C12.7198 12.5212 13.6044 10.6737 13.6044 8.80952C13.6044 7.95198 13.4173 7.11439 13.1151 6.32222C12.6142 5.00901 11.8145 3.8634 11.121 3.03413C10.9185 2.79196 10.7258 2.58094 10.5575 2.4023Z" fill="currentColor" />

</g>
</svg>
