<svg viewBox="0 0 24 24" fill="none" xmlns="http://www.w3.org/2000/svg">
<g transform="translate(1.5004, 3.0004)">
<path d="M0.389648 0.207775C0.63523 0.0185181 0.95504 -0.0459355 1.25488 0.0329699L20.2549 5.03297C20.694 5.14872 21 5.54565 21 5.99977V17.9998H19V6.77027L2 2.29664V17.9998H0V0.999767C2.76874e-06 0.689667 0.144052 0.397102 0.389648 0.207775ZM13.3408 8.99977C14.1406 8.99977 14.8634 9.47664 15.1787 10.2117L16.0781 12.3093C16.4372 12.1966 16.7886 12.0743 17.1289 11.9382L17.5 12.867L17.8711 13.7947C17.4277 13.972 16.9694 14.1304 16.5 14.2722V17.9998H14.5V14.7576C11.9024 15.2445 9.09756 15.2445 6.5 14.7576V17.9998H4.5V14.2722C4.03055 14.1304 3.57231 13.972 3.12891 13.7947L3.5 12.867L3.87109 11.9382C4.21145 12.0744 4.5627 12.1976 4.92188 12.3103L5.82129 10.2117C6.13649 9.47655 6.85932 8.99985 7.65918 8.99977H13.3408ZM6.88867 12.7957C9.22912 13.2316 11.7698 13.2315 14.1104 12.7957L13.3408 10.9998H7.65918L6.88867 12.7957Z" fill="currentColor" />

</g>
</svg>
