<svg viewBox="0 0 24 24" fill="none" xmlns="http://www.w3.org/2000/svg">
<g transform="translate(1.7225, 3.4999)">
<path d="M3.5 0C5.433 0 7 1.567 7 3.5C7 3.85735 6.9457 4.20273 6.8457 4.52832L11 7.29785L19.4453 1.66797L20.5547 3.33203L12.8027 8.5L20.5547 13.668L19.4453 15.332L11 9.70117L6.8457 12.4707C6.94588 12.7966 7 13.1423 7 13.5C7 15.433 5.433 17 3.5 17C1.567 17 0 15.433 0 13.5C0 11.567 1.567 10 3.5 10C4.35025 10 5.12864 10.3045 5.73438 10.8076L9.19727 8.5L5.73438 6.19141C5.12857 6.69476 4.35048 7 3.5 7C1.567 7 0 5.433 0 3.5C0 1.567 1.567 0 3.5 0ZM3.5 12C2.67157 12 2 12.6716 2 13.5C2 14.3284 2.67157 15 3.5 15C4.32843 15 5 14.3284 5 13.5C5 13.1909 4.90756 12.9064 4.74902 12.6689C4.47836 12.2638 4.01963 12 3.5 12ZM3.5 2C2.67157 2 2 2.67157 2 3.5C2 4.32843 2.67157 5 3.5 5C4.01963 5 4.47836 4.73624 4.74902 4.33105C4.90756 4.09358 5 3.80911 5 3.5C5 2.67157 4.32843 2 3.5 2Z" fill="currentColor" />

</g>
</svg>
