<svg viewBox="0 0 24 24" fill="none" xmlns="http://www.w3.org/2000/svg">
<g transform="translate(2.0000, 4.0000)">
<path d="M20 3.5H15.0127L6.31152 15.584C6.1236 15.845 5.82162 16 5.5 16H0V14H2.06445L2.3252 10.0928C2.45997 8.07121 4.13898 6.5 6.16504 6.5C7.41933 6.50006 8.55428 7.10553 9.26172 8.06348L13.3896 2.33105C13.7655 1.80932 14.3696 1.5 15.0127 1.5H20V3.5ZM6.16504 8.5C5.19191 8.5 4.38504 9.25461 4.32031 10.2256L4.06934 14H4.98828L7.95215 9.88281C7.7415 9.07332 7.01033 8.50008 6.16504 8.5ZM6 0C7.51878 0 8.75 1.23122 8.75 2.75C8.75 4.26878 7.51878 5.5 6 5.5C4.48122 5.5 3.25 4.26878 3.25 2.75C3.25 1.23122 4.48122 0 6 0ZM6 2C5.58579 2 5.25 2.33579 5.25 2.75C5.25 3.16421 5.58579 3.5 6 3.5C6.41421 3.5 6.75 3.16421 6.75 2.75C6.75 2.33579 6.41421 2 6 2Z" fill="currentColor" />

</g>
</svg>
