<svg viewBox="0 0 24 24" fill="none" xmlns="http://www.w3.org/2000/svg">
<g transform="translate(0.5000, 3.0005)">
<path d="M14.0186 0.123614C14.3283 -0.046626 14.7045 -0.0406587 15.0088 0.139239C15.313 0.319218 15.5 0.646124 15.5 0.99959V16.9996C15.4999 17.353 15.313 17.6801 15.0088 17.8599C14.7046 18.0397 14.3282 18.0457 14.0186 17.8756L4.01855 12.3756C3.69913 12.1999 3.50015 11.8641 3.5 11.4996V6.49959C3.5 6.13497 3.69911 5.79939 4.01855 5.62361L14.0186 0.123614ZM21.6406 14.231L20.3594 15.7681L17.3594 13.2681L18.6406 11.731L21.6406 14.231ZM5.5 7.08943V10.9088L13.5 15.3082V2.69002L5.5 7.08943ZM2 11.9996H0V5.99959H2V11.9996ZM23 9.99959H19V7.99959H23V9.99959ZM21.6406 3.76815L18.6406 6.26815L17.3594 4.73104L20.3594 2.23104L21.6406 3.76815Z" fill="currentColor" />

</g>
</svg>
