<svg viewBox="0 0 24 24" fill="none" xmlns="http://www.w3.org/2000/svg">
<g transform="translate(0.9999, 2.5000)">
<path d="M13.1982 0.591802C13.4192 0.0975068 13.9942 -0.131245 14.4951 0.077154L21.3838 2.94239C21.7567 3.09753 22 3.46231 22 3.86622V9.38282C21.9998 9.72356 21.826 10.0409 21.5391 10.2246C21.252 10.4084 20.8906 10.4337 20.5811 10.291L19 9.56153V18C19 18.5523 18.5523 19 18 19H4C3.44772 19 3 18.5523 3 18V9.56153L1.41895 10.291C1.10937 10.4337 0.748021 10.4084 0.460938 10.2246C0.173959 10.0409 0.000156041 9.72356 0 9.38282V3.86622C9.57369e-08 3.46231 0.243284 3.09753 0.616211 2.94239L7.50488 0.077154L7.59961 0.0429744C8.07637 -0.10173 8.59465 0.128412 8.80176 0.591802C8.80063 0.58928 8.79972 0.586896 8.79883 0.584967L8.8457 0.656256C8.89884 0.731175 8.99465 0.846786 9.14648 0.967779C9.43605 1.19847 9.99268 1.50001 11 1.50001C12.0073 1.50001 12.564 1.19847 12.8535 0.967779C13.0053 0.846787 13.1012 0.731175 13.1543 0.656256C13.1807 0.619072 13.1968 0.592428 13.2031 0.58106L13.2012 0.584967C13.2003 0.586895 13.1994 0.58928 13.1982 0.591802ZM14.4414 2.21973C14.3422 2.3213 14.2308 2.42848 14.1006 2.53223C13.4489 3.05152 12.45 3.50001 11 3.50001C9.54998 3.50001 8.55107 3.05152 7.89941 2.53223C7.76901 2.42831 7.65695 2.32146 7.55762 2.21973L2 4.53223V7.82032L3.58105 7.0918C3.89068 6.94913 4.25196 6.97438 4.53906 7.15821C4.82613 7.34204 5 7.65912 5 8.00001V17H17V8.00001C17 7.65912 17.1739 7.34204 17.4609 7.15821C17.748 6.97438 18.1093 6.94913 18.4189 7.0918L20 7.82032V4.53223L14.4414 2.21973Z" fill="currentColor" />

</g>
</svg>
