<svg viewBox="0 0 24 24" fill="none" xmlns="http://www.w3.org/2000/svg">
<g transform="translate(0.0000, 3.8728)">
<path d="M13.5116 0C14.8364 0 16.0049 0.868825 16.3856 2.1377L17.3905 5.49023L23.7323 12.3193C24.0675 12.6803 24.0907 13.2322 23.786 13.6191C23.4814 14.006 22.94 14.113 22.5106 13.8721C18.5463 11.6461 15.3447 13.139 11.8075 14.668C10.0939 15.4087 8.24137 16.1786 6.31532 16.249C4.30898 16.3223 2.31805 15.6409 0.309456 13.7236C-0.0631359 13.368 -0.10448 12.7869 0.213753 12.3818L5.59559 5.53125L6.61414 2.1377C6.99488 0.868825 8.16339 1.04242e-07 9.48817 0H13.5116ZM2.37196 12.8711C3.75866 13.9719 5.02398 14.2954 6.24207 14.251C7.73709 14.1964 9.25702 13.5913 11.0136 12.832C13.4842 11.7641 16.339 10.415 19.6083 10.8164L16.0643 7H6.98621L2.37196 12.8711ZM9.48817 2C9.04656 2 8.65705 2.28991 8.53016 2.71289L7.84364 5H15.1561L14.4696 2.71289C14.3427 2.28991 13.9532 2 13.5116 2H9.48817Z" fill="currentColor" />

</g>
</svg>
