<svg viewBox="0 0 24 24" fill="none" xmlns="http://www.w3.org/2000/svg">
<g transform="translate(2.0382, 2.0382)">
<path d="M6.41406 1.41406L4.62109 3.20703L9.70703 8.29297L12.5 5.5L12.5732 5.43359C12.7512 5.28778 12.975 5.20705 13.207 5.20703C13.4722 5.20703 13.7265 5.31252 13.9141 5.5L18.459 10.0439C19.6008 11.1857 20.1209 12.8096 19.8555 14.4023L19.1934 18.3711C19.1231 18.7926 18.7926 19.1231 18.3711 19.1934L14.4023 19.8555C12.8096 20.1209 11.1857 19.6008 10.0439 18.459L5.5 13.9141C5.10957 13.5235 5.10951 12.8905 5.5 12.5L8.29297 9.70703L3.20703 4.62109L1.41406 6.41406L0 5L5 0L6.41406 1.41406ZM7.62109 13.2061L11.459 17.0439C12.1441 17.729 13.1176 18.0411 14.0732 17.8818L17.3379 17.3379L17.8818 14.0732C18.0411 13.1176 17.729 12.1441 17.0439 11.459L13.2061 7.62109L7.62109 13.2061Z" fill="currentColor" />

</g>
</svg>
