<svg viewBox="0 0 24 24" fill="none" xmlns="http://www.w3.org/2000/svg">
<g transform="translate(3.4998, 1.1872)">
<path d="M14.1543 4.12891C15.7394 4.20921 17 5.5199 17 7.125V18.625C17 20.2819 15.6569 21.625 14 21.625H3C1.34315 21.625 0 20.2819 0 18.625V7.125C8.35918e-06 5.46815 1.34315 4.125 3 4.125H14L14.1543 4.12891ZM2 18.625C2 19.1773 2.44772 19.625 3 19.625H14C14.5523 19.625 15 19.1773 15 18.625V17.625H2V18.625ZM3 6.125C2.44772 6.125 2.00001 6.57272 2 7.125V15.625H15V7.125C15 6.60733 14.6067 6.18121 14.1025 6.12988L14 6.125H3ZM8.5 0C9.82348 1.3787e-07 11.2271 0.437999 12.207 1.41797L10.793 2.83203C10.2729 2.31201 9.42652 2 8.5 2C7.57349 2 6.72706 2.312 6.20703 2.83203L4.79297 1.41797C5.77294 0.437995 7.17653 2.61197e-06 8.5 0Z" fill="currentColor" />

</g>
</svg>
