<svg viewBox="0 0 24 24" fill="none" xmlns="http://www.w3.org/2000/svg">
<g transform="translate(2.6520, 2.9645)">
<path d="M9.60156 1.34374C10.5691 0.383264 11.9737 -0.250517 13.5068 0.0956939C14.8976 0.409879 15.7566 1.21742 16.4443 1.81933C17.1388 2.42705 17.7208 2.89571 18.6963 3.09081L18.3037 5.05175C16.7795 4.74686 15.8607 3.96631 15.127 3.32421C14.3865 2.67616 13.8888 2.23266 13.0664 2.04687C12.3665 1.88876 11.6282 2.15059 11.0107 2.76366C10.3873 3.38281 10 4.26035 10 5.07128V6.07128C10.8357 5.44354 11.8743 5.07128 13 5.07128C15.7614 5.07128 17.9999 7.30992 18 10.0713H16C15.9999 8.41449 14.6568 7.07128 13 7.07128C11.3949 7.07128 10.0843 8.3319 10.0039 9.91698L10 10.0713V16.0713H16V18.0713H2V16.0713H8V10.0713L7.99609 9.91698C7.91583 8.33177 6.60512 7.07128 5 7.07128C3.34318 7.07128 2.00005 8.41447 2 10.0713H0C5.36027e-05 7.3099 2.23861 5.07128 5 5.07128C6.12566 5.07128 7.16432 5.44353 8 6.07128V5.07128C7.99992 3.47857 6.59439 2.07128 4.71289 2.07128C3.46469 2.0714 2.40435 2.70378 1.84961 3.59862L1 3.07128L0.150391 2.54491C1.07793 1.04873 2.788 0.0714032 4.71289 0.0712798C6.42929 0.0712809 7.99356 0.858584 8.96777 2.10058C9.15737 1.8279 9.37033 1.57336 9.60156 1.34374Z" fill="currentColor" />

</g>
</svg>
