<svg viewBox="0 0 24 24" fill="none" xmlns="http://www.w3.org/2000/svg">
<g transform="translate(0.9999, 3.4998)">
<path d="M6.39746 0.20146C6.64783 0.0126864 6.97289 -0.0476177 7.27441 0.0383744L21.2744 4.03837C21.7036 4.161 21.9999 4.55393 22 5.00029V16.0003C22 16.5526 21.5523 17.0003 21 17.0003H1C0.447715 17.0003 0 16.5526 0 16.0003V10.0003C9.95889e-05 9.66605 0.167197 9.35367 0.445312 9.16826L6 5.46513V1.00029C6.00009 0.686609 6.14703 0.390364 6.39746 0.20146ZM8 15.0003H20V5.75419L8 2.32548V15.0003ZM2 10.5354V15.0003H6V7.86845L2 10.5354Z" fill="currentColor" />

</g>
</svg>
