<svg viewBox="0 0 24 24" fill="none" xmlns="http://www.w3.org/2000/svg">
<g transform="translate(2.0000, 2.5564)">
<path d="M6.33008 0.141143C6.89877 -0.156001 7.55827 0.0419883 7.91406 0.492705L7.98535 0.592314L8.11914 0.787627C8.47303 1.26717 9.11388 1.88724 10 1.88724C11.0122 1.88724 11.7044 1.07799 12.0146 0.593291L12.0859 0.492705C12.468 0.0095064 13.1997 -0.182747 13.793 0.215361L16.5381 2.05716L16.5771 2.0845C18.8635 3.78291 20 6.30588 20 8.88724V18.8872H18V8.88724C18 6.90838 17.139 4.99826 15.3926 3.69681L13.2588 2.26419C12.661 2.96925 11.5837 3.88724 10 3.88724C8.41485 3.88724 7.33578 2.9686 6.73828 2.26321L4.58203 3.70071C2.85852 5.00213 2 6.91098 2 8.88724V18.8872H0V8.88724C0 6.30678 1.13609 3.78573 3.40039 2.08743L3.44531 2.05521L6.20996 0.212432L6.33008 0.141143ZM6 16.8872H14V10.8872H16V17.8872C15.9998 18.4394 15.5522 18.8872 15 18.8872H5C4.44782 18.8872 4.00017 18.4394 4 17.8872V10.8872H6V16.8872ZM14 8.38724H10V6.38724H14V8.38724Z" fill="currentColor" />

</g>
</svg>
