<svg viewBox="0 0 24 24" fill="none" xmlns="http://www.w3.org/2000/svg">
<g transform="translate(0.9827, 4.1913)">
<path d="M9.6748 4.63053C10.8223 4.51955 11.6802 5.26996 11.9766 6.12174C12.1291 6.56017 12.155 7.07149 11.9736 7.5612C11.8804 7.81289 11.7376 8.04066 11.5537 8.23795L19.1777 7.76627C20.7387 7.66963 21.7588 8.81267 21.9844 9.97233C22.0987 10.5607 22.0285 11.2173 21.6895 11.7926C21.3401 12.3853 20.7527 12.8106 19.9932 12.988L19.9922 12.987L10.2178 15.4118C9.66666 15.5485 9.10101 15.6178 8.5332 15.6178H0.691406V13.6178H8.5332C8.93875 13.6178 9.3427 13.568 9.73633 13.4704L19.5254 11.0426L19.5381 11.0397C19.8135 10.9754 19.9193 10.8576 19.9668 10.777C20.0242 10.6794 20.055 10.5321 20.0205 10.3542C19.9477 9.97992 19.6694 9.73961 19.3018 9.76237L6.96289 10.526C6.48552 10.5556 6.05424 10.2427 5.93359 9.77995C5.81316 9.31689 6.03732 8.83252 6.46875 8.62565L10.0127 6.92741C10.0629 6.90334 10.0842 6.88268 10.0908 6.87565C10.0963 6.86975 10.0975 6.86649 10.0977 6.86588C10.0989 6.86194 10.1065 6.8325 10.0879 6.77897C10.0682 6.72235 10.0309 6.675 9.99219 6.64811C9.96256 6.62762 9.9248 6.61222 9.85938 6.61979C9.84446 6.62152 9.82944 6.62264 9.81445 6.6237L4.68164 6.98307C4.41148 7.00209 4.16058 7.13024 3.98633 7.33756L1.53125 10.2604L0 8.97526L2.4541 6.05143C2.97706 5.42868 3.73079 5.04484 4.54199 4.98795L9.6748 4.62858V4.63053ZM16.3086 0.534828C16.9871 -0.177981 18.0871 -0.177923 18.7656 0.534828C19.4442 1.24796 19.4442 2.4047 18.7656 3.11784L15.9482 5.83366C15.8515 5.92664 15.6983 5.92652 15.6016 5.83366L12.7832 3.11784C12.1048 2.40469 12.1047 1.24791 12.7832 0.534828C13.4617 -0.17829 14.5627 -0.178262 15.2412 0.534828L15.7744 1.09635L16.3086 0.534828Z" fill="currentColor" />

</g>
</svg>
