<svg viewBox="0 0 24 24" fill="none" xmlns="http://www.w3.org/2000/svg">
<g transform="translate(1.5004, 1.6523)">
<path d="M10.5 3.94916H5C3.34329 3.94916 2.00023 5.2925 2 6.94916V11.9492C2 13.606 3.34315 14.9492 5 14.9492H8.12012C8.60955 14.9492 9.0823 15.1291 9.44824 15.454L13.6641 19.2011L13 19.9492L12.3359 20.6962L8.12012 16.9492H5C2.23858 16.9492 0 14.7106 0 11.9492V6.94916C0.000227666 4.18793 2.23872 1.94916 5 1.94916H10.5V3.94916ZM21 11.9492C21 14.7106 18.7614 16.9492 16 16.9492H13.5V14.9492H16C17.6569 14.9492 19 13.606 19 11.9492V9.44916H21V11.9492ZM12.2627 6.17182C12.3382 5.94291 12.6618 5.94291 12.7373 6.17182L13.2031 7.58783C13.228 7.66308 13.287 7.72224 13.3623 7.74701L14.7783 8.21283C15.0069 8.28848 15.007 8.6119 14.7783 8.68744L13.3623 9.15326C13.287 9.1781 13.2279 9.23708 13.2031 9.31244L12.7373 10.7275C12.6619 10.9567 12.3381 10.9567 12.2627 10.7275L11.7969 9.31244C11.7721 9.23708 11.713 9.1781 11.6377 9.15326L10.2217 8.68744C9.99302 8.6119 9.99312 8.28848 10.2217 8.21283L11.6377 7.74701C11.713 7.72224 11.772 7.66308 11.7969 7.58783L12.2627 6.17182ZM16.7627 0.171818C16.8381 -0.0572727 17.1619 -0.0572725 17.2373 0.171818L18.0742 2.71576C18.099 2.79116 18.158 2.8511 18.2334 2.87592L20.7783 3.71186C21.0071 3.78736 21.0071 4.1119 20.7783 4.18744L18.2334 5.02436C18.1581 5.04922 18.099 5.10822 18.0742 5.18354L17.2373 7.72748C17.1619 7.95668 16.8381 7.95668 16.7627 7.72748L15.9258 5.18354C15.901 5.10822 15.8419 5.04922 15.7666 5.02436L13.2217 4.18744C12.9929 4.1119 12.9929 3.78736 13.2217 3.71186L15.7666 2.87592C15.842 2.8511 15.901 2.79116 15.9258 2.71576L16.7627 0.171818Z" fill="currentColor" />

</g>
</svg>
