<svg viewBox="0 0 24 24" fill="none" xmlns="http://www.w3.org/2000/svg">
<g transform="translate(0.9999, 1.3964)">
<path d="M13 0C15.2091 5.35698e-08 17 1.79086 17 4V5.5H18C20.2091 5.5 22 7.29086 22 9.5V14C22 16.2091 20.2091 18 18 18H16V16H18C19.1046 16 20 15.1046 20 14V9.5C20 8.39543 19.1046 7.5 18 7.5H17V8.5C17 10.7091 15.2091 12.5 13 12.5H7V14C7 15.1046 7.89544 16 9 16H11.5859C12.1163 16 12.625 16.2109 13 16.5859L16.207 19.793L14.793 21.207L11.5859 18H9C6.79087 18 5 16.2091 5 14V12.5H4C1.79086 12.5 7.52408e-07 10.7091 0 8.5V4C8.08771e-07 1.79086 1.79086 2.80906e-07 4 0H13ZM4 2C2.89543 2 2 2.89543 2 4V8.5C2 9.60457 2.89543 10.5 4 10.5H5V9.5C5 7.29086 6.79086 5.5 9 5.5H15V4C15 2.89543 14.1046 2 13 2H4ZM9 7.5C7.89543 7.5 7 8.39543 7 9.5V10.5H13C14.1046 10.5 15 9.60457 15 8.5V7.5H9Z" fill="currentColor" />

</g>
</svg>
