<svg viewBox="0 0 24 24" fill="none" xmlns="http://www.w3.org/2000/svg">
<g transform="translate(2.0000, 2.0000)">
<path d="M2.92885 2.92881C6.83405 -0.976296 13.1662 -0.976245 17.0714 2.92881C20.9766 6.83403 20.9766 13.1661 17.0714 17.0714C13.1662 20.9766 6.8341 20.9766 2.92885 17.0714C-0.976232 13.1661 -0.976337 6.834 2.92885 2.92881ZM15.6574 4.34287C12.5332 1.21887 7.46706 1.21882 4.34291 4.34287C1.21877 7.46702 1.21888 12.5331 4.34291 15.6573C7.46711 18.7815 12.5332 18.7815 15.6574 15.6573C18.7815 12.5331 18.7815 7.46704 15.6574 4.34287ZM15.2589 7.15049L9.25893 14.1505C9.06895 14.3721 8.79207 14.5001 8.50014 14.5001C8.20826 14.5001 7.93131 14.3721 7.74135 14.1505L4.74135 10.6505L6.25893 9.34971L8.50014 11.964L13.7414 5.84971L15.2589 7.15049Z" fill="currentColor" />

</g>
</svg>
