<svg viewBox="0 0 24 24" fill="none" xmlns="http://www.w3.org/2000/svg">
<g transform="translate(3.0003, 2.5003)">
<path d="M18 6H16.4258L15.4971 18.0771C15.4568 18.5979 15.0224 19 14.5 19H3.5C2.97761 19 2.54322 18.5979 2.50293 18.0771L1.57422 6H0V4H18V6ZM4.42578 17H13.5742L14.4199 6H3.58008L4.42578 17ZM9 0C10.1728 0 11.075 0.294325 11.6973 0.605469C12.0067 0.760174 12.2447 0.918368 12.4121 1.04395C12.4957 1.10665 12.5624 1.16129 12.6113 1.2041C12.6356 1.22536 12.656 1.24395 12.6719 1.25879C12.6798 1.26622 12.6866 1.27368 12.6924 1.2793C12.6953 1.28211 12.6988 1.28477 12.7012 1.28711C12.7022 1.28812 12.7032 1.28912 12.7041 1.29004L12.7061 1.29102V1.29199L11.2939 2.70801L11.3047 2.71875C11.3047 2.71875 11.3012 2.71544 11.2949 2.70996C11.2814 2.69814 11.254 2.6744 11.2129 2.64355C11.1304 2.58165 10.9932 2.48978 10.8027 2.39453C10.425 2.20567 9.82724 2 9 2C8.17276 2 7.57498 2.20567 7.19727 2.39453C7.00677 2.48978 6.86965 2.58165 6.78711 2.64355C6.746 2.6744 6.71859 2.69814 6.70508 2.70996C6.69882 2.71544 6.69531 2.71875 6.69531 2.71875L6.70605 2.70801L5.29395 1.29199V1.29102L5.2959 1.29004C5.29682 1.28912 5.2978 1.28812 5.29883 1.28711C5.3012 1.28477 5.30471 1.28211 5.30762 1.2793C5.31342 1.27368 5.3202 1.26622 5.32812 1.25879C5.34396 1.24395 5.36438 1.22536 5.38867 1.2041C5.43761 1.16129 5.50429 1.10665 5.58789 1.04395C5.75534 0.918368 5.99332 0.760174 6.30273 0.605469C6.92502 0.294325 7.82724 0 9 0Z" fill="currentColor" />

</g>
</svg>
