<svg viewBox="0 0 24 24" fill="none" xmlns="http://www.w3.org/2000/svg">
<g transform="translate(2.0000, 2.6171)">
<path d="M9.41406 0.189578C9.76372 -0.0631928 10.2363 -0.0631928 10.5859 0.189578L19.5859 6.70423C19.8458 6.89229 20 7.19404 20 7.51477V17.7658C20 18.318 19.5523 18.7658 19 18.7658H1C0.447745 18.7658 4.74142e-05 18.318 0 17.7658V7.51477C0 7.19404 0.154244 6.89229 0.414062 6.70423L9.41406 0.189578ZM2.65137 7.76575C2.15672 7.76577 1.96254 8.40732 2.37402 8.68177L9.72266 13.5812C9.89056 13.6931 10.1094 13.6931 10.2773 13.5812L17.626 8.68177C18.0375 8.40733 17.8433 7.76578 17.3486 7.76575H2.65137Z" fill="currentColor" />

</g>
</svg>
