<svg viewBox="0 0 24 24" fill="none" xmlns="http://www.w3.org/2000/svg">
<g transform="translate(1.5004, 2.6268)">
<path d="M16 0C18.7614 0 21 2.23858 21 5V10C21 12.7614 18.7614 15 16 15H13.5V13H16C17.6569 13 19 11.6569 19 10V5C19 3.34315 17.6569 2 16 2H5C3.34315 2 2 3.34315 2 5V10C2 11.6569 3.34315 13 5 13H8.12012C8.60964 13.0001 9.08227 13.1798 9.44824 13.5049L13.6641 17.252L13 18L12.3359 18.7471L8.12012 15H5C2.23858 15 0 12.7614 0 10V5C0 2.23858 2.23858 1.61064e-08 5 0H16ZM6 6.25C6.82841 6.25 7.49997 6.9216 7.5 7.75C7.5 8.57843 6.82843 9.25 6 9.25C5.17157 9.25 4.5 8.57843 4.5 7.75C4.50003 6.9216 5.17159 6.25 6 6.25ZM10.5 6.25C11.3284 6.25 12 6.9216 12 7.75C12 8.57843 11.3284 9.25 10.5 9.25C9.67157 9.25 9 8.57843 9 7.75C9.00003 6.9216 9.67159 6.25 10.5 6.25ZM15 6.25C15.8284 6.25 16.5 6.9216 16.5 7.75C16.5 8.57843 15.8284 9.25 15 9.25C14.1716 9.25 13.5 8.57843 13.5 7.75C13.5 6.9216 14.1716 6.25 15 6.25Z" fill="currentColor" />

</g>
</svg>
