<svg viewBox="0 0 24 24" fill="none" xmlns="http://www.w3.org/2000/svg">
<g transform="translate(1.5004, 2.6268)">
<path d="M16 0C18.7614 0 21 2.23858 21 5V10C21 12.7614 18.7614 15 16 15H13.5V13H16C17.6569 13 19 11.6569 19 10V5C19 3.34315 17.6569 2 16 2H5C3.34315 2 2 3.34315 2 5V10C2 11.6569 3.34315 13 5 13H8.12012C8.60964 13.0001 9.08227 13.1798 9.44824 13.5049L13.6641 17.252L13 18L12.3359 18.7471L8.12012 15H5C2.23858 15 0 12.7614 0 10V5C0 2.23858 2.23858 1.61064e-08 5 0H16Z" fill="currentColor" />

</g>
</svg>
