<svg viewBox="0 0 24 24" fill="none" xmlns="http://www.w3.org/2000/svg">
<g transform="translate(2.0005, 2.0000)">
<path d="M5.36817 0.00859021C5.80147 -0.0484269 6.22222 0.182509 6.40626 0.578903L8.94922 6.05742C9.08479 6.34975 9.07086 6.68667 8.917 6.96367L8.84278 7.07793L6.86719 9.71367C6.90212 9.77502 6.94012 9.84211 6.9834 9.91289C7.25654 10.3594 7.69813 10.9801 8.3584 11.6404C9.01872 12.3007 9.63942 12.7423 10.0859 13.0154C10.1572 13.059 10.2244 13.0975 10.2861 13.1326L12.9209 11.1561C13.2155 10.9352 13.6075 10.8947 13.9414 11.0496L19.4199 13.5926C19.8813 13.8068 20.1081 14.3337 19.9473 14.8162C19.6515 15.7038 19.1629 17.626 17.5996 18.7996C16.2098 19.8429 14.5741 19.9998 13.5205 19.9998L13.1611 19.9959C5.63022 19.8154 0.000281938 13.9742 5.98811e-06 6.40019C-0.00111855 5.65867 0.156211 4.77322 0.416022 3.95683C0.672608 3.15073 1.06361 2.30018 1.59669 1.69121C2.6679 0.46759 4.12181 0.172621 5.36817 0.00859021ZM4.91212 2.10918C4.10834 2.26942 3.53286 2.51596 3.10157 3.00859C2.8241 3.32559 2.53852 3.8848 2.32227 4.56425C2.10951 5.23291 1.99815 5.90945 1.99903 6.39824V6.40019C1.9993 12.7998 6.62785 17.6861 12.9082 17.9852L13.5205 17.9998C14.4234 17.9998 15.5277 17.8535 16.3984 17.2C17.1121 16.6643 17.476 15.8654 17.7686 15.0311L13.6436 13.116L10.9902 15.1043C10.7126 15.3124 10.3463 15.3613 10.0234 15.2342H10.0225L10.0215 15.2332C10.0207 15.2329 10.0195 15.2326 10.0186 15.2322C10.0166 15.2314 10.0143 15.2303 10.0117 15.2293C10.0064 15.2271 9.99904 15.2247 9.99122 15.2215C9.97557 15.215 9.95466 15.2061 9.92969 15.1951C9.87949 15.1731 9.811 15.1417 9.72657 15.1004C9.5571 15.0175 9.32265 14.8931 9.042 14.7215C8.48097 14.3783 7.73172 13.8418 6.94434 13.0545C6.15699 12.2671 5.62053 11.5179 5.27735 10.9568C5.10572 10.6762 4.98138 10.4417 4.89844 10.2723C4.85715 10.1879 4.82576 10.1193 4.80372 10.0691C4.79278 10.0442 4.78386 10.0233 4.77735 10.0076C4.77412 9.99984 4.7717 9.99247 4.76954 9.98711C4.76852 9.98458 4.7674 9.98223 4.76661 9.98027C4.76623 9.97933 4.76594 9.97816 4.76563 9.97734L4.76465 9.97636V9.97539L4.72462 9.85234C4.65166 9.56222 4.71241 9.25158 4.89454 9.00859L6.8838 6.35625L4.91212 2.10918Z" fill="currentColor" />

</g>
</svg>
