<svg viewBox="0 0 24 24" fill="none" xmlns="http://www.w3.org/2000/svg">
<g transform="translate(0.0000, 4.0000)">
<path fill-rule="evenodd" clip-rule="evenodd" d="M8 2C8.55229 2 9 2.44772 9 3C9 3.55228 8.55229 4 8 4C7.44772 4 7 3.55228 7 3C7 2.44772 7.44772 2 8 2ZM8 6C9.65685 6 11 4.65685 11 3C11 1.34315 9.65685 0 8 0C6.34315 0 5 1.34315 5 3C5 4.65685 6.34315 6 8 6ZM8 8C9.43227 8 10.8042 8.33726 11.9949 8.93679C13.1781 8.33818 14.5479 8 16 8C20.2681 8 24 10.9949 24 15C24 15.5523 23.5523 16 23 16H15H9H1C0.447715 16 0 15.5523 0 15C0 10.9949 3.7319 8 8 8ZM8 10C11.016 10 13.3274 11.8029 13.875 14H9H2.125C2.67262 11.8029 4.98399 10 8 10ZM19 3C19 4.65685 17.6569 6 16 6C14.3431 6 13 4.65685 13 3C13 1.34315 14.3431 0 16 0C17.6569 0 19 1.34315 19 3Z" fill="currentColor" />

</g>
</svg>
