<svg viewBox="0 0 24 24" fill="none" xmlns="http://www.w3.org/2000/svg">
<g transform="translate(1.3965, 2.6465)">
<path d="M21.207 10.707L17.9141 14L21.207 17.293L19.793 18.707L16.5 15.4141L13.207 18.707L11.793 17.293L15.0859 14L11.793 10.707L13.207 9.29297L16.5 12.5859L19.793 9.29297L21.207 10.707ZM10 11.5C5.84138 11.5 2.74385 13.8079 2.11816 16.5H10V18.5H1C0.447715 18.5 0 18.0523 0 17.5C0 12.8624 4.72559 9.5 10 9.5V11.5ZM10 0C12.2091 0 14 1.79086 14 4C14 6.20914 12.2091 8 10 8C7.79086 8 6 6.20914 6 4C6 1.79086 7.79086 0 10 0ZM10 2C8.89543 2 8 2.89543 8 4C8 5.10457 8.89543 6 10 6C11.1046 6 12 5.10457 12 4C12 2.89543 11.1046 2 10 2Z" fill="currentColor" />

</g>
</svg>
