<svg viewBox="0 0 24 24" fill="none" xmlns="http://www.w3.org/2000/svg">
<g transform="translate(1.1206, 2.2500)">
<path d="M21.7588 12.1504L15.7588 19.1504C15.5688 19.372 15.2919 19.5 15 19.5C14.7081 19.5 14.4312 19.372 14.2412 19.1504L11.2412 15.6504L12.7588 14.3496L15 16.9639L20.2412 10.8496L21.7588 12.1504ZM10 9.5C12.6539 9.5 15.0945 10.325 16.9053 11.7051L15.6924 13.2949C14.2566 12.2008 12.2504 11.5 10 11.5C5.84138 11.5 2.74385 13.8079 2.11816 16.5H10V18.5H1C0.447715 18.5 0 18.0523 0 17.5C0 12.8624 4.72559 9.5 10 9.5ZM10 0C12.2091 0 14 1.79086 14 4C14 6.20914 12.2091 8 10 8C7.79086 8 6 6.20914 6 4C6 1.79086 7.79086 0 10 0ZM10 2C8.89543 2 8 2.89543 8 4C8 5.10457 8.89543 6 10 6C11.1046 6 12 5.10457 12 4C12 2.89543 11.1046 2 10 2Z" fill="currentColor" />

</g>
</svg>
