<svg viewBox="0 0 24 24" fill="none" xmlns="http://www.w3.org/2000/svg">
<g transform="translate(5.4041, 1.5004)">
<path d="M8.01953 1.76172C10.5312 2.08884 12.3298 3.62577 13.1924 5.33789L12.2998 5.78809L11.4062 6.23828C10.8514 5.13676 9.69771 4.09183 8.01953 3.78809V9.47656C9.06722 9.70864 10.1821 10.0088 11.0879 10.5391C11.6763 10.8836 12.2153 11.3447 12.6025 11.9785C12.9926 12.6169 13.1914 13.37 13.1914 14.2363C13.1913 15.7108 12.5557 17.0202 11.4336 17.9424C10.5383 18.6781 9.36823 19.1421 8.01953 19.2939V21H6.01953V19.3018C3.0316 19.0157 1.07543 17.4431 0 15.3682L1.77539 14.4482C2.51775 15.8804 3.82606 17.0259 6.01953 17.291V11.0957C4.99582 10.8737 3.90874 10.5969 3.02637 10.1162C2.44181 9.79764 1.89643 9.36574 1.50098 8.75977C1.1005 8.14606 0.895522 7.41816 0.895508 6.58008C0.895508 5.19518 1.48242 3.93711 2.58691 3.0459C3.46978 2.33358 4.6378 1.88849 6.01953 1.74609V0H8.01953V1.76172ZM8.01953 17.2773C8.93826 17.14 9.6554 16.8155 10.1641 16.3975C10.8323 15.8483 11.1913 15.1016 11.1914 14.2363C11.1914 13.6862 11.0685 13.3046 10.8955 13.0215C10.7197 12.7338 10.4548 12.4852 10.0781 12.2646C9.53035 11.944 8.83253 11.7259 8.01953 11.5303V17.2773ZM6.01953 3.76074C5.04912 3.89054 4.33217 4.20767 3.84277 4.60254C3.21411 5.10982 2.89551 5.79303 2.89551 6.58008C2.89552 7.0801 3.01326 7.41793 3.17578 7.66699C3.34336 7.92372 3.60286 8.15198 3.9834 8.35938C4.52882 8.65656 5.2171 8.85842 6.01953 9.04492V3.76074Z" fill="currentColor" />

</g>
</svg>
