<svg viewBox="0 0 24 24" fill="none" xmlns="http://www.w3.org/2000/svg">
<g transform="translate(5.9999, 0.9999)">
<path d="M6.46582 2.51367L6.7334 2.53125C8.06069 2.63975 9.21576 3.02096 10.0645 3.76758C10.9972 4.58829 11.4286 5.73425 11.4287 7.0498C11.4287 8.6421 10.6703 9.85233 9.50586 10.6348C9.8483 10.8132 10.1564 11.0176 10.4297 11.2461C11.5916 12.2178 12 13.5097 12 14.7031C12 16.1319 11.4722 17.3752 10.4375 18.2441C9.43058 19.0896 8.0476 19.4938 6.46582 19.499V22H4.46582V19.5H0V2.5H1C1.90372 2.5 2.80746 2.50292 3.70898 2.50586C3.96116 2.50668 4.2139 2.50608 4.46582 2.50684V0H6.46582V2.51367ZM2 17.5H6.43457C7.71209 17.5 8.60045 17.1754 9.15137 16.7129C9.6809 16.2682 9.99996 15.6135 10 14.7031C10 13.9738 9.76419 13.2968 9.14648 12.7803C8.50294 12.2423 7.30985 11.7647 5.16797 11.7646H2V17.5ZM2 9.76465H5.16797L5.6543 9.75195C6.76433 9.69223 7.69217 9.42731 8.33984 9.01074C9.03618 8.56262 9.42871 7.93595 9.42871 7.0498C9.42864 6.19106 9.16294 5.63894 8.74316 5.26953C8.29692 4.877 7.54538 4.57558 6.36914 4.51074C5.47977 4.51065 4.59038 4.50875 3.70312 4.50586C3.13499 4.50401 2.56704 4.50307 2 4.50195V9.76465Z" fill="currentColor" />

</g>
</svg>
