<svg viewBox="0 0 24 24" fill="none" xmlns="http://www.w3.org/2000/svg">
<g transform="translate(4.5108, 2.6081)">
<path d="M8.49711 0C10.1669 9.21075e-06 11.5965 0.580286 12.6045 1.65234C13.6056 2.71696 14.1094 4.17858 14.1094 5.80078H12.1094C12.1094 4.58824 11.7371 3.6495 11.1475 3.02246C10.5648 2.40278 9.68831 2.00001 8.49711 2C7.29156 2 6.37592 2.39418 5.76664 2.98828C5.15808 3.58182 4.78526 4.44247 4.7852 5.51074C4.7852 6.62829 5.18359 7.55892 5.71488 8.60645H10.7149V10.6064H6.69047C7.00438 11.3753 7.24216 12.2294 7.24223 13.1846C7.24223 13.6111 7.19228 14.1199 7.085 14.6543C7.18591 14.7404 7.28645 14.8234 7.38285 14.9053C8.52026 15.8707 9.48923 16.583 10.7911 16.583C11.5397 16.583 12.0212 16.3226 12.3477 15.9043C12.7035 15.4483 12.9624 14.6887 12.9795 13.5605L13.9795 13.5762L14.9786 13.5908C14.9577 14.9703 14.643 16.2143 13.9248 17.1348C13.177 18.093 12.0834 18.583 10.7911 18.583C8.85599 18.583 7.45487 17.5682 6.37211 16.667C5.7703 17.7573 4.7202 18.7841 3.07914 18.7842C2.26751 18.7842 1.48891 18.5208 0.905314 17.9756C0.313649 17.4226 -0.00413572 16.6469 4.06438e-05 15.7764C0.00432652 14.8949 0.345486 14.1115 0.966838 13.5576C1.57779 13.0132 2.38837 12.752 3.2432 12.752C4.00027 12.752 4.66003 12.9808 5.23832 13.2949C5.2393 13.2574 5.24223 13.2204 5.24223 13.1846C5.24213 12.2876 4.93395 11.5072 4.48832 10.6064H1.51567V8.60645H3.50004C3.10788 7.71297 2.7852 6.69465 2.7852 5.51074C2.78526 3.95823 3.33808 2.56324 4.37016 1.55664C5.40163 0.55071 6.84189 0 8.49711 0ZM3.2432 14.752C2.78704 14.752 2.47919 14.8892 2.29789 15.0508C2.12716 15.2029 2.00175 15.4337 2.00004 15.7861C1.99834 16.1491 2.1218 16.3748 2.27153 16.5146C2.42971 16.6623 2.69399 16.7842 3.07914 16.7842C3.75478 16.7842 4.26773 16.3885 4.66508 15.624C4.7081 15.5412 4.74638 15.455 4.78422 15.3682C4.69897 15.3075 4.61396 15.2496 4.52836 15.1953C4.05709 14.8962 3.6529 14.752 3.2432 14.752Z" fill="currentColor" />

</g>
</svg>
