<svg viewBox="0 0 24 24" fill="none" xmlns="http://www.w3.org/2000/svg">
<g transform="translate(4.8752, 2.6955)">
<path d="M8.54297 0C9.98079 0 11.2164 0.416217 12.2041 1.24707C13.1777 2.06616 13.8332 3.22278 14.249 4.57422L12.3369 5.16211C11.9968 4.05686 11.5119 3.27898 10.917 2.77832C10.336 2.28954 9.57404 2 8.54297 2C7.39124 2.00002 6.26758 2.46337 5.40918 3.54688C4.89757 4.19279 4.46072 5.08884 4.18457 6.28711H9.77832V8.28711H3.90332C3.88334 8.61069 3.87305 8.94939 3.87305 9.30371C3.87305 9.60749 3.88241 9.89962 3.89648 10.1807H8.95898V12.1807H4.14062C4.40454 13.4557 4.84278 14.3975 5.36523 15.0674C6.20101 16.1389 7.31724 16.6084 8.54297 16.6084C9.57462 16.6084 10.3362 16.3188 10.917 15.8301C11.5118 15.3295 11.9967 14.5517 12.3369 13.4463L14.249 14.0342C13.8333 15.3853 13.1784 16.5412 12.2051 17.3604C11.2174 18.1914 9.98132 18.6084 8.54297 18.6084C6.75187 18.6084 5.03301 17.8938 3.78809 16.2979C2.97768 15.2588 2.40273 13.8886 2.10547 12.1807H0V10.1807H1.89453C1.88178 9.89557 1.87305 9.60332 1.87305 9.30371C1.87305 8.95488 1.88434 8.6161 1.90234 8.28711H0V6.28711H2.14062C2.45673 4.63862 3.04213 3.3141 3.8418 2.30469C5.09686 0.720499 6.80876 2.36877e-05 8.54297 0Z" fill="currentColor" />

</g>
</svg>
