<svg viewBox="0 0 24 24" fill="none" xmlns="http://www.w3.org/2000/svg">
<g transform="translate(3.0011, 3.4977)">
<path d="M2.16309 11.841C3.22869 10.7539 4.95686 10.7539 6.02246 11.841C7.08798 12.9281 7.08799 14.6905 6.02246 15.7775C4.63876 17.1891 1.06566 17.4017 0 16.3146C1.63705 15.4796 1.09784 12.9283 2.16309 11.841ZM16.7383 0.12617C16.9351 -0.0485173 17.2344 -0.0410181 17.4219 0.143748L17.8486 0.564646C18.04 0.753265 18.0473 1.05957 17.8662 1.25801L8.61914 11.3889C8.42792 11.5983 8.10046 11.6075 7.89844 11.4084L6.44434 9.97383C6.23843 9.77074 6.24754 9.4363 6.46387 9.24433L16.7383 0.12617Z" fill="currentColor" />

</g>
</svg>
