<svg viewBox="0 0 24 24" fill="none" xmlns="http://www.w3.org/2000/svg">
<g transform="translate(2.2502, 2.2502)">
<path d="M8.49609 3.51562C5.11355 3.50267 2.00017 6.73788 2 10.5C2.00017 14.3658 5.13416 17.5 9 17.5C12.7621 17.5 15.9972 14.3864 15.9844 11.0039L17.9844 10.9961C18.0019 15.6132 13.7383 19.5 9 19.5C4.0296 19.5 0.00016622 15.4704 0 10.5C0.000167395 5.7617 3.88676 1.49789 8.50391 1.51562L8.49609 3.51562ZM11.5 0C15.9183 0 19.5 3.58172 19.5 8C19.5 8.55228 19.0523 9 18.5 9H11.5C10.9477 8.99999 10.5 8.55228 10.5 8V1C10.5 0.447719 10.9477 6.18482e-06 11.5 0ZM12.5 7H17.415C16.9934 4.48771 15.0123 2.50554 12.5 2.08398V7Z" fill="currentColor" />

</g>
</svg>
