<svg viewBox="0 0 24 24" fill="none" xmlns="http://www.w3.org/2000/svg">
<g transform="translate(0.9999, 3.5000)">
<path d="M17 0C17.5523 0 18 0.447715 18 1V5.30664L21.3516 6.56348C21.7417 6.7099 22 7.08324 22 7.5V13.5C22 14.0523 21.5523 14.5 21 14.5H18.958C18.7199 15.9188 17.4865 17 16 17C14.5135 17 13.2801 15.9188 13.042 14.5H5.95801C5.71993 15.9188 4.48647 17 3 17C1.34315 17 0 15.6569 0 14V1C0 0.447715 0.447715 0 1 0H17ZM2 7H11.5V9H2V14C2 14.5523 2.44772 15 3 15C3.55228 15 4 14.5523 4 14V13.5C4 12.9477 4.44772 12.5 5 12.5H14C14.5523 12.5 15 12.9477 15 13.5V14C15 14.5523 15.4477 15 16 15C16.5523 15 17 14.5523 17 14V13.5C17 12.9477 17.4477 12.5 18 12.5H20V8.19238L16.6484 6.93652C16.2583 6.79008 16 6.41673 16 6V2H2V7Z" fill="currentColor" />

</g>
</svg>
