<svg viewBox="0 0 24 24" fill="none" xmlns="http://www.w3.org/2000/svg">
<g transform="translate(1.5004, 3.0003)">
<path d="M2 16H6V18H1L0.897461 17.9951C0.393334 17.9438 2.69808e-07 17.5177 0 17V12H2V16ZM21 17C21 17.5523 20.5523 18 20 18H15V16H19V12H21V17ZM10.2422 5.03418C12.1052 4.53738 14.3013 3.92822 16.9062 5.08594C17.2673 5.24643 17.4999 5.60491 17.5 6V12C17.4999 12.3384 17.3287 12.6545 17.0449 12.8389C16.7611 13.0232 16.403 13.0515 16.0938 12.9141C14.1988 12.0719 12.6447 12.4636 10.7578 12.9668C8.8948 13.4636 6.69867 14.0718 4.09375 12.9141C3.73273 12.7536 3.50009 12.3951 3.5 12V6L3.50781 5.875C3.54434 5.58524 3.70676 5.32361 3.95508 5.16211C4.23889 4.97767 4.59693 4.94849 4.90625 5.08594C6.80115 5.92809 8.35537 5.53733 10.2422 5.03418ZM15.5 6.6875C13.8643 6.15778 12.4442 6.51708 10.7578 6.9668C9.2399 7.37157 7.50103 7.84936 5.5 7.38672V11.3115C7.13578 11.8414 8.55573 11.4839 10.2422 11.0342C11.7601 10.6294 13.499 10.1507 15.5 10.6133V6.6875ZM6 2H2V6H0V1C3.94073e-08 0.734785 0.105434 0.480505 0.292969 0.292969C0.480504 0.105435 0.734786 1.25632e-06 1 0H6V2ZM20 0C20.5523 0 21 0.447715 21 1V6H19V2H15V0H20Z" fill="currentColor" />

</g>
</svg>
