<svg viewBox="0 0 24 24" fill="none" xmlns="http://www.w3.org/2000/svg">
<g transform="translate(1.5004, 3.0003)">
<path d="M2 16H6V18H1L0.897461 17.9951C0.393336 17.9438 2.69806e-07 17.5177 0 17V12H2V16ZM21 17C21 17.5523 20.5523 18 20 18H15V16H19V12H21V17ZM6 12.5H4V5.5H6V12.5ZM9.5 12.5H8.5V5.5H9.5V12.5ZM13.5 12.5H11.5V5.5H13.5V12.5ZM17 12.5H16V5.5H17V12.5ZM6 2H2V6H0V1C3.94073e-08 0.734785 0.105434 0.480505 0.292969 0.292969C0.480504 0.105435 0.734786 1.25632e-06 1 0H6V2ZM20 0C20.5523 0 21 0.447715 21 1V6H19V2H15V0H20Z" fill="currentColor" />

</g>
</svg>
