<svg viewBox="0 0 24 24" fill="none" xmlns="http://www.w3.org/2000/svg">
<g transform="translate(0.9999, 1.1844)">
<path d="M14.5 21.6309H8V19.6309H14.5V21.6309ZM17.2764 1.26172L12.1016 7.63086H12.7139L20.4697 2.7832L21.5303 4.47852L16.4863 7.63086H21C21.5523 7.63086 22 8.07857 22 8.63086C21.9998 14.2501 16.9733 18.6309 11 18.6309C5.02667 18.6309 0.000159242 14.2501 0 8.63086C0 8.07857 0.447715 7.63086 1 7.63086H9.52344L15.7236 0L17.2764 1.26172ZM2.07324 9.63086C2.62381 13.5048 6.32437 16.6309 11 16.6309C15.6756 16.6309 19.3762 13.5048 19.9268 9.63086H2.07324Z" fill="currentColor" />

</g>
</svg>
