<svg viewBox="0 0 24 24" fill="none" xmlns="http://www.w3.org/2000/svg">
<g transform="translate(2.0000, 2.0000)">
<path d="M9.18242 0.912036C9.91838 0.176074 10.9743 -0.143646 11.9949 0.0604733L17.5975 1.18059C18.2136 1.30382 18.6959 1.78613 18.8191 2.40227L19.9393 8.00481C20.1434 9.0254 19.8237 10.0813 19.0877 10.8173L10.3611 19.5439C9.75331 20.1517 8.76779 20.1517 8.15996 19.5439L0.455854 11.8398C-0.151939 11.2319 -0.151964 10.2464 0.455854 9.6386L9.18242 0.912036ZM15.4139 4.58586C14.6328 3.80482 13.3668 3.80482 12.5857 4.58586C11.8047 5.36691 11.8047 6.63294 12.5857 7.41399C13.3668 8.19504 14.6328 8.19504 15.4139 7.41399C16.1949 6.63294 16.1949 5.36691 15.4139 4.58586Z" fill="currentColor" />

</g>
</svg>
