<svg viewBox="0 0 24 24" fill="none" xmlns="http://www.w3.org/2000/svg">
<g transform="translate(1.7497, 1.7498)">
<path d="M10.6318 0.00871794L18.6318 1.07122L18.7958 1.10735C19.1658 1.22174 19.4424 1.54414 19.4921 1.93841L20.4921 9.87493C20.5313 10.1857 20.4224 10.497 20.1982 10.7157L10.4628 20.2157C10.071 20.598 9.44465 20.5941 9.05755 20.207L0.292905 11.4423C-0.0941854 11.0552 -0.0981023 10.4289 0.284116 10.037L9.78412 0.301687C10.0045 0.0758016 10.3189 -0.0328554 10.6318 0.00871794ZM2.40521 10.7265L9.7724 18.0937L18.4452 9.63079L17.6035 2.95208L10.8652 2.05657L2.40521 10.7265ZM12.4999 5.87884C13.0857 5.29305 14.0352 5.29305 14.621 5.87884C15.2068 6.46462 15.2068 7.41414 14.621 7.99993C14.0352 8.58562 13.0857 8.58568 12.4999 7.99993C11.9142 7.41417 11.9142 6.46463 12.4999 5.87884Z" fill="currentColor" />

</g>
</svg>
