<svg viewBox="0 0 24 24" fill="none" xmlns="http://www.w3.org/2000/svg">
<g transform="translate(2.1824, 2.4997)">
<path d="M15.6344 0C15.9623 0.000144114 16.27 0.161142 16.4567 0.430664C16.6433 0.700221 16.6861 1.0446 16.571 1.35156C15.8568 3.25439 15.6219 4.75537 15.6344 5.99023L13.6344 6.00977C13.6225 4.82997 13.7974 3.51278 14.2448 2H2.39517C1.72023 4.67352 2.0344 6.80838 2.43326 9.14453C2.82082 11.4145 3.28639 13.8777 2.82876 17H8.63443V19H1.63443C1.3327 18.9999 1.04688 18.8635 0.857084 18.6289C0.667228 18.3941 0.593612 18.0853 0.656889 17.79C1.36181 14.4999 0.900267 12.0499 0.461576 9.48047C0.0199035 6.89351 -0.393991 4.19442 0.67935 0.706055C0.808464 0.286626 1.19559 0.000129147 1.63443 0H15.6344ZM18.1735 6.1123C18.5088 5.93826 18.9141 5.96821 19.2204 6.18945C19.5265 6.41084 19.6819 6.78614 19.6217 7.15918C19.3103 9.0908 18.7894 11.4429 17.6911 13.3525C16.6795 15.1112 15.1344 16.5541 12.821 16.8965C12.8137 16.9391 12.8058 16.9835 12.7985 17.0293C12.7156 17.5476 12.6344 18.25 12.6344 19H10.6344C10.6344 18.1139 10.73 17.3014 10.8239 16.7139C10.8711 16.4187 10.9186 16.1763 10.9547 16.0059C10.9728 15.9206 10.9885 15.8523 10.9997 15.8047C11.0051 15.7813 11.0091 15.7625 11.0124 15.749C11.014 15.7423 11.0152 15.7365 11.0163 15.7324C11.0168 15.7305 11.0179 15.7289 11.0182 15.7275V15.7246C11.8815 11.7388 14.5159 8.01394 18.1735 6.1123ZM17.1715 9.17188C15.4544 10.6018 14.1262 12.5606 13.3805 14.7012C14.4975 14.2968 15.319 13.464 15.9567 12.3555C16.4969 11.4164 16.882 10.3102 17.1715 9.17188Z" fill="currentColor" />

</g>
</svg>
