<svg viewBox="0 0 24 24" fill="none" xmlns="http://www.w3.org/2000/svg">
<g transform="translate(4.4998, 2.9998)">
<path d="M10.3369 1.15202e-08C10.621 1.15202e-08 10.7635 -0.000156837 10.8945 0.0361328C11.0105 0.0682641 11.1196 0.121446 11.2168 0.192383C11.3266 0.272544 11.4154 0.38378 11.5918 0.606445L14.6543 4.47266C14.7824 4.63439 14.846 4.71575 14.8916 4.80566C14.932 4.88541 14.9616 4.97003 14.9795 5.05762C14.9996 5.15638 15 5.25951 15 5.46582V16.4004C15 16.9602 14.9996 17.2402 14.8906 17.4541C14.7948 17.6421 14.6421 17.7948 14.4541 17.8906C14.2402 17.9996 13.9602 18 13.4004 18H1.59961C1.03982 18 0.75976 17.9996 0.545898 17.8906C0.357928 17.7948 0.205215 17.6421 0.109375 17.4541C0.000406861 17.2402 5.8926e-09 16.9602 0 16.4004V1.59961C5.88855e-09 1.03982 0.000406853 0.75976 0.109375 0.545898C0.205215 0.357928 0.357928 0.205215 0.545898 0.109375C0.75976 0.000406871 1.03982 1.74119e-08 1.59961 1.15202e-08H10.3369ZM3.5 12H11.5V10H3.5V12ZM3.5 7H9.5V5H3.5V7Z" fill="currentColor" />

</g>
</svg>
