<svg viewBox="0 0 24 24" fill="none" xmlns="http://www.w3.org/2000/svg">
<g transform="translate(2.2724, 1.3965)">
<path d="M9 19.207H10.5V21.207H0V19.207H1.5V17.707H9V19.207ZM18.0264 6.89453L17.3193 7.60156L16.6113 8.30859L15.7275 7.4248L13.4131 9.73828L19.4551 15.748L18.0449 17.166L11.998 11.1533L9.71777 13.4346L10.6016 14.3184L9.89453 15.0264L9.1875 15.7334L2.29297 8.83887L3.70703 7.4248L4.59082 8.30859L10.6016 2.29785L9.71777 1.41406L11.1318 0L18.0264 6.89453ZM6.00488 9.72168L8.30273 12.0195L11.29 9.03418L14.3125 6.00977L12.0146 3.71191L6.00488 9.72168Z" fill="currentColor" />

</g>
</svg>
