<svg viewBox="0 0 24 24" fill="none" xmlns="http://www.w3.org/2000/svg">
<g transform="translate(2.6829, 2.3459)">
<path d="M14.6344 8.5C16.8435 8.50008 18.6344 10.2909 18.6344 12.5C18.6344 13.7628 18.0484 14.888 17.1344 15.6211V19.0586C17.1343 19.2528 16.9221 19.3724 16.7555 19.2725L14.7633 18.0771C14.6842 18.0296 14.5847 18.0296 14.5055 18.0771L12.5133 19.2725C12.3467 19.3724 12.1345 19.2528 12.1344 19.0586V15.6211C11.2204 14.888 10.6344 13.7629 10.6344 12.5C10.6344 10.2909 12.4253 8.5 14.6344 8.5ZM15.5143 0.0078125C15.8104 0.0463817 16.0767 0.216774 16.236 0.474609C16.4179 0.769304 16.4347 1.13748 16.2799 1.44727C15.9904 2.0258 15.8121 2.90438 15.7194 3.88965C15.6289 4.85083 15.6275 5.80852 15.6344 6.49023L13.6344 6.50977C13.6274 5.81491 13.6275 4.77164 13.7282 3.70215C13.7798 3.15335 13.862 2.56692 13.9938 2H2.39517C1.72023 4.67352 2.0344 6.80838 2.43325 9.14453C2.82082 11.4145 3.28639 13.8777 2.82876 17H10.1344V19H1.63443C1.3327 18.9999 1.04688 18.8635 0.857083 18.6289C0.667227 18.3941 0.593612 18.0853 0.656888 17.79C1.36181 14.4999 0.900265 12.0499 0.461575 9.48047C0.0199034 6.89351 -0.393991 4.19442 0.679349 0.706055C0.808463 0.286626 1.19559 0.000128707 1.63443 0H15.3854L15.5143 0.0078125ZM14.6344 10.5C13.5299 10.5 12.6344 11.3954 12.6344 12.5C12.6344 13.6046 13.5299 14.5 14.6344 14.5C15.7389 14.4999 16.6344 13.6045 16.6344 12.5C16.6344 11.3955 15.7389 10.5001 14.6344 10.5Z" fill="currentColor" />

</g>
</svg>
