<svg viewBox="0 0 24 24" fill="none" xmlns="http://www.w3.org/2000/svg">
<g transform="translate(3.4901, 2.5003)">
<path d="M15.6344 0C15.9517 0 16.2506 0.151074 16.4391 0.40625C16.6275 0.661448 16.6837 0.990769 16.5905 1.29395C15.6639 4.30537 16 6.60664 16.4333 9.14453C16.8695 11.6998 17.4078 14.5005 16.6129 18.21C16.514 18.6708 16.1058 19 15.6344 19H1.63443C1.33275 18.9998 1.0468 18.8635 0.857086 18.6289C0.667343 18.3941 0.593659 18.0852 0.656891 17.79C1.3618 14.4999 0.900281 12.05 0.461578 9.48047C0.0199095 6.89355 -0.393998 4.19434 0.679352 0.706055C0.808394 0.286693 1.19572 0.000301923 1.63443 0H15.6344ZM2.39517 2C1.72022 4.67346 2.03441 6.80843 2.43326 9.14453C2.82083 11.4146 3.28637 13.8776 2.82877 17H14.8053C15.285 14.0987 14.8645 11.8401 14.4616 9.48047C14.0761 7.2225 13.7122 4.87911 14.3395 2H2.39517ZM11.6354 7.5H4.63541V5.5H11.6354V7.5Z" fill="currentColor" />

</g>
</svg>
