<svg viewBox="0 0 24 24" fill="none" xmlns="http://www.w3.org/2000/svg">
<g transform="translate(1.5004, 4.0675)">
<path d="M10.2939 0.97688C13.3611 0.183144 16.8366 -0.768751 20.4424 1.01106C20.7835 1.17954 20.9999 1.52705 21 1.90754V13.9075C20.9998 14.253 20.8217 14.5747 20.5283 14.7572C20.2349 14.9395 19.8674 14.9568 19.5576 14.804C16.7155 13.4011 13.9741 14.0907 10.7949 14.9134C7.71415 15.7107 4.21466 16.6329 0.552734 14.8021C0.214091 14.6328 0.000177486 14.2861 0 13.9075V1.90754C5.02458e-05 1.5611 0.179947 1.23916 0.474609 1.05696C0.76936 0.874927 1.13739 0.858099 1.44727 1.01301C4.3512 2.4649 7.12844 1.79606 10.2939 0.97688ZM19 2.555C16.3543 1.49229 13.7658 2.14459 10.7949 2.9134C8.1224 3.60501 5.13532 4.38905 2 3.38997V13.264C4.70614 14.3785 7.32968 13.744 10.2939 12.9769C12.9501 12.2895 15.912 11.4847 19 12.4368V2.555ZM16.5 9.99934H14.5V3.99934H16.5V9.99934Z" fill="currentColor" />

</g>
</svg>
