<svg viewBox="0 0 24 24" fill="none" xmlns="http://www.w3.org/2000/svg">
<g transform="translate(1.2492, 4.8072)">
<path d="M21.502 0.771484C20.5316 3.08915 19.3712 4.47497 17.9785 5.08398C16.5734 5.69843 15.1853 5.41091 14.0479 4.99219C13.4764 4.78178 12.9224 4.51993 12.4307 4.28809C11.9213 4.04793 11.4866 3.8431 11.0859 3.69922C10.2628 3.40376 9.97727 3.50157 9.77148 3.70605C9.62295 3.85387 9.57848 3.98167 9.57031 4.11816C9.56035 4.28674 9.60475 4.53618 9.75977 4.88867C10.08 5.61659 10.7151 6.45299 11.4648 7.41309C12.1658 8.31068 12.984 9.33628 13.4463 10.2979C13.6818 10.7878 13.8691 11.348 13.8613 11.9326C13.8529 12.5569 13.6214 13.1445 13.1367 13.627C12.6755 14.086 12.1275 14.3318 11.5312 14.3779C10.9684 14.4213 10.426 14.2822 9.94824 14.0977C9.04496 13.7487 7.98133 13.0618 7.07422 12.5566C6.08861 12.0078 5.12938 11.5668 4.1582 11.4424C3.23204 11.3238 2.24412 11.4869 1.1582 12.2588L0.579102 11.4434L0 10.6289C1.50637 9.5581 3.00051 9.27828 4.41211 9.45898C5.7785 9.63399 7.01423 10.2345 8.04688 10.8096C9.15797 11.4284 9.9382 11.9491 10.6689 12.2314C11.0079 12.3623 11.2312 12.395 11.377 12.3838C11.4894 12.3751 11.5944 12.3395 11.7256 12.209C11.8331 12.1019 11.8608 12.0164 11.8623 11.9053C11.8642 11.7544 11.8122 11.515 11.6436 11.1641C11.2968 10.443 10.645 9.61305 9.88867 8.64453C9.18116 7.73849 8.3696 6.69638 7.92871 5.69434C7.70344 5.18215 7.53859 4.60221 7.57422 4C7.6119 3.36568 7.869 2.77807 8.36035 2.28906C9.43453 1.22011 10.7661 1.45996 11.7617 1.81738C12.2708 2.00018 12.7985 2.25048 13.2842 2.47949C13.7874 2.71678 14.2635 2.94007 14.7393 3.11523C15.697 3.46777 16.4761 3.55728 17.1768 3.25098C17.8899 2.93911 18.7748 2.10508 19.6562 0L21.502 0.771484Z" fill="currentColor" />

</g>
</svg>
