<svg viewBox="0 0 24 24" fill="none" xmlns="http://www.w3.org/2000/svg">
<g transform="translate(3.0000, 2.9998)">
<path d="M13.4386 0C13.7042 9.35371e-05 13.9591 0.105842 14.1466 0.293945L17.7081 3.86914C18.097 4.25938 18.097 4.89005 17.7081 5.28027L7.37904 15.6465C7.27539 15.7505 7.14987 15.8307 7.01186 15.8809L1.34194 17.9404C0.97554 18.0734 0.564672 17.9809 0.290177 17.7041C0.0158695 17.4274 -0.0731269 17.0165 0.0626383 16.6514L2.15541 11.0342L2.1974 10.9355C2.24508 10.8402 2.30837 10.7526 2.38393 10.6768L12.7296 0.293945L12.8029 0.227539C12.981 0.0810084 13.2059 4.02439e-05 13.4386 0ZM3.95326 11.9346L2.69252 15.3203L6.11928 14.0762L15.588 4.57422L13.4376 2.41602L3.95326 11.9346Z" fill="currentColor" />

</g>
</svg>
