<svg viewBox="0 0 24 24" fill="none" xmlns="http://www.w3.org/2000/svg">
<g transform="translate(2.0000, 2.0000)">
<path d="M2.92893 2.92893C6.83417 -0.976311 13.1663 -0.976311 17.0715 2.92893C20.9768 6.83418 20.9768 13.1663 17.0715 17.0715C13.1663 20.9768 6.83418 20.9768 2.92893 17.0715C-0.976311 13.1663 -0.97631 6.83417 2.92893 2.92893ZM15.6574 4.34299C12.5333 1.2188 7.46719 1.2188 4.34299 4.34299C1.2188 7.46719 1.2188 12.5333 4.34299 15.6574C7.46719 18.7816 12.5333 18.7816 15.6574 15.6574C18.7816 12.5333 18.7816 7.46719 15.6574 4.34299ZM14.7073 6.70725L11.4143 10.0002L14.7073 13.2932L13.2932 14.7073L10.0002 11.4143L6.70725 14.7073L5.29319 13.2932L8.58616 10.0002L5.29319 6.70725L6.70725 5.29319L10.0002 8.58616L13.2932 5.29319L14.7073 6.70725Z" fill="currentColor" />

</g>
</svg>
