<svg viewBox="0 0 24 24" fill="none" xmlns="http://www.w3.org/2000/svg">
<g transform="translate(0.9999, 2.5000)">
<path d="M5.5 16C6.32843 16 7 16.6716 7 17.5C7 18.3284 6.32843 19 5.5 19C4.67158 19 4 18.3284 4 17.5C4 16.6716 4.67158 16 5.5 16ZM18.5 16C19.3284 16 20 16.6716 20 17.5C20 18.3284 19.3284 19 18.5 19C17.6716 19 17 18.3284 17 17.5C17 16.6716 17.6716 16 18.5 16ZM13 0C15.3953 0 17.6343 0.699334 19.2939 2.07227C20.9728 3.46124 22 5.49485 22 8L21.9873 8.42773C21.7383 12.8129 17.6634 16 12 16C6.15406 16 2 12.6041 2 8V6C2 5.44776 1.55223 5.00007 1 5H0V3H1C2.6568 3.00007 4 4.34319 4 6V7H12V1C12 0.447729 12.4477 2.16463e-05 13 0ZM4.10059 9C4.64299 11.7139 7.40224 14 12 14C16.5977 14 19.356 11.7139 19.8984 9H4.10059ZM14 7H19.9248C19.7058 5.56835 19.0146 4.43656 18.0195 3.61328C16.9923 2.76348 15.6018 2.21284 14 2.05078V7Z" fill="currentColor" />

</g>
</svg>
