<svg viewBox="0 0 24 24" fill="none" xmlns="http://www.w3.org/2000/svg">
<g transform="translate(0.0000, 2.7500)">
<path d="M11.5 10.5C9.56021 10.5 7.12502 11.1763 5.19531 12.4375C3.58705 13.4887 2.44075 14.8669 2.10449 16.5H6.5V18.5H1C0.447715 18.5 0 18.0523 0 17.5C4.59061e-05 14.5085 1.84657 12.2365 4.10156 10.7627C6.35397 9.29068 9.16868 8.5 11.5 8.5V10.5ZM16 12C19.6792 12 23.364 13.6017 23.9863 17.3359C24.0346 17.6258 23.9527 17.9222 23.7627 18.1465C23.5727 18.3707 23.2939 18.5 23 18.5H9C8.70611 18.5 8.42731 18.3707 8.2373 18.1465C8.04734 17.9222 7.96542 17.6258 8.01367 17.3359C8.63602 13.6017 12.3208 12 16 12ZM16 14C13.2934 14 11.2556 14.9295 10.3896 16.5H21.6104C20.7444 14.9295 18.7066 14 16 14ZM16 4.5C17.6569 4.5 19 5.84315 19 7.5C19 9.15685 17.6569 10.5 16 10.5C14.3431 10.5 13 9.15685 13 7.5C13 5.84315 14.3431 4.5 16 4.5ZM16 6.5C15.4477 6.5 15 6.94772 15 7.5C15 8.05228 15.4477 8.5 16 8.5C16.5523 8.5 17 8.05228 17 7.5C17 6.94772 16.5523 6.5 16 6.5ZM9.5 0C11.433 0 13 1.567 13 3.5C13 5.433 11.433 7 9.5 7C7.567 7 6 5.433 6 3.5C6 1.567 7.567 0 9.5 0ZM9.5 2C8.67157 2 8 2.67157 8 3.5C8 4.32843 8.67157 5 9.5 5C10.3284 5 11 4.32843 11 3.5C11 2.67157 10.3284 2 9.5 2Z" fill="currentColor" />

</g>
</svg>
