<svg viewBox="0 0 24 24" fill="none" xmlns="http://www.w3.org/2000/svg">
<g transform="translate(0.7440, 1.2407)">
<path d="M10.2442 0.667858C10.6157 -0.222625 11.8962 -0.222613 12.2677 0.667858L12.3019 0.759655L14.4522 7.37684H21.4103C22.4755 7.37722 22.9184 8.74076 22.0567 9.36708L16.4269 13.4559L18.5772 20.0741C18.9062 21.0874 17.7468 21.9298 16.8849 21.3036L11.256 17.2138L5.62705 21.3036C4.76512 21.9295 3.60591 21.0872 3.93467 20.0741L6.08408 13.4559L0.455178 9.36708C-0.406368 8.74077 0.0366675 7.37741 1.10166 7.37684H8.05967L10.2101 0.759655L10.2442 0.667858ZM9.75987 8.61708C9.61256 9.07006 9.1903 9.37671 8.71397 9.37684H3.87217L7.78916 12.2225C8.1747 12.5027 8.33584 12.9998 8.18858 13.453L6.69151 18.0575L10.6095 15.2118L10.7599 15.12C11.0714 14.9624 11.4405 14.9624 11.7521 15.12L11.9024 15.2118L15.8194 18.0575L14.3233 13.453C14.1761 12.9999 14.3374 12.5027 14.7228 12.2225L18.6397 9.37684H13.798C13.3217 9.37661 12.8993 9.07006 12.7521 8.61708L11.256 4.01063L9.75987 8.61708Z" fill="currentColor" />

</g>
</svg>
