<svg viewBox="0 0 24 24" fill="none" xmlns="http://www.w3.org/2000/svg">
<g transform="translate(2.5004, 2.0000)">
<path d="M9.21166 0.0422635C9.43077 -0.0236242 9.66721 -0.0124124 9.88061 0.0754666L18.3738 3.57547L18.5037 3.6409C18.792 3.81227 18.9785 4.11961 18.9919 4.46121V4.46804C18.9921 4.47179 18.9927 4.47728 18.9929 4.48367C18.9933 4.49689 18.9933 4.51637 18.9939 4.54031C18.9952 4.58815 18.9967 4.65687 18.9978 4.74441C19 4.91997 19.001 5.17197 18.9949 5.48367C18.9827 6.10658 18.9438 6.97473 18.8357 7.95633C18.623 9.88742 18.1305 12.3917 16.9529 14.3216C15.8425 16.1409 14.042 17.5395 12.5945 18.4622C11.1545 19.38 9.86667 19.9381 9.9685 19.8841C9.73618 20.0073 9.46591 20.0329 9.21654 19.9593L9.11107 19.9212H9.1101L9.10912 19.9202C9.10803 19.9197 9.10589 19.9199 9.10424 19.9192C9.101 19.9178 9.09684 19.9156 9.09154 19.9134C9.08054 19.9086 9.06509 19.9014 9.04564 19.8928C9.00683 19.8758 8.95142 19.8516 8.88158 19.8196C8.74157 19.7555 8.54224 19.661 8.29857 19.5384C7.81194 19.2935 7.14218 18.9327 6.40697 18.4641C4.95898 17.5413 3.15751 16.1418 2.04662 14.3216C0.868952 12.3917 0.376473 9.88743 0.163808 7.95633C0.055717 6.97472 0.0168442 6.10658 0.00462863 5.48367C-0.00147781 5.17197 -0.000512036 4.91997 0.00169894 4.74441C0.00280313 4.65687 0.00433954 4.58815 0.00560519 4.54031C0.00623848 4.51637 0.00614592 4.49689 0.00658176 4.48367C0.00679431 4.47729 0.00742319 4.47179 0.00755832 4.46804V4.46121L0.0241599 4.31668C0.0856981 3.98698 0.309651 3.70574 0.625722 3.57547L9.11889 0.0754666L9.21166 0.0422635ZM2.00268 5.17117C2.00334 5.25517 2.00271 5.34655 2.00463 5.44461C2.01596 6.02225 2.05201 6.82875 2.15209 7.73758C2.35581 9.58727 2.81004 11.7333 3.75365 13.2796C4.62831 14.7128 6.12692 15.9129 7.48217 16.7766C8.1485 17.2013 8.75652 17.5305 9.19701 17.7522C9.30873 17.8084 9.41106 17.8547 9.49877 17.8968C9.94258 17.6852 10.6642 17.3207 11.5193 16.7757C12.8741 15.9121 14.3716 14.7122 15.2458 13.2796C16.1894 11.7333 16.6437 9.58725 16.8474 7.73758C16.9475 6.82875 16.9835 6.02225 16.9949 5.44461C16.9968 5.34655 16.9952 5.25516 16.9958 5.17117L9.49975 2.08133L2.00268 5.17117ZM9.49975 4.38113C9.50007 4.20135 9.68439 4.08089 9.84936 4.15262L15.0906 6.43094C15.1861 6.47269 15.2462 6.57095 15.24 6.67508C14.981 10.9405 13.9989 13.3915 9.86986 15.7903C9.70507 15.8859 9.49977 15.766 9.49975 15.5755V4.38113Z" fill="currentColor" />

</g>
</svg>
