<svg viewBox="0 0 24 24" fill="none" xmlns="http://www.w3.org/2000/svg">
<g transform="translate(4.2931, 2.5266)">
<path d="M8.58789 0.947266L5.79004 6.14258L8.06055 8.41309L12.8154 7.7334C13.1889 7.68005 13.5613 7.84213 13.7773 8.15137C13.993 8.46054 14.0163 8.86522 13.8379 9.19727L12.0898 12.4424L15.4141 15.7666L14 17.1807L11.0996 14.2803L8.58789 18.9473L6.82617 18L9.62402 12.8047L7.35352 10.5342L2.59863 11.2139C2.22504 11.2672 1.85272 11.1054 1.63672 10.7959C1.42119 10.4867 1.39766 10.082 1.57617 9.75L3.32324 6.50391L0 3.18066L1.41406 1.7666L4.31348 4.66602L6.82617 0L8.58789 0.947266ZM9.82812 10.1807L10.6133 10.9658L11.1377 9.99414L9.82812 10.1807ZM4.27734 8.9541L5.58594 8.7666L4.80078 7.98145L4.27734 8.9541Z" fill="currentColor" />

</g>
</svg>
