<svg viewBox="0 0 24 24" fill="none" xmlns="http://www.w3.org/2000/svg">
<g transform="translate(2.1631, 2.4996)">
<path d="M15.124 0.0078125C15.4099 0.0435177 15.6687 0.201506 15.8311 0.444336L19.5049 5.94141C19.7376 6.28966 19.7277 6.74616 19.4814 7.08496L18.0352 9.07422C18.8796 9.30838 19.5 10.081 19.5 11V17C19.5 18.1046 18.6046 19 17.5 19H10C8.89543 19 8 18.1046 8 17V11C8 9.89543 8.89543 9 10 9H11V8C11 6.34315 12.3431 5 14 5H15V7H14C13.4477 7 13 7.44772 13 8V9H15.6182L17.4541 6.47266L14.4658 2H2V11H6V13H1C0.447715 13 0 12.5523 0 12V1C0 0.447715 0.447715 0 1 0H15L15.124 0.0078125ZM10 17H17.5V11H10V17Z" fill="currentColor" />

</g>
</svg>
