<svg viewBox="0 0 24 24" fill="none" xmlns="http://www.w3.org/2000/svg">
<g transform="translate(1.7497, 3.7498)">
<path d="M15.5 0C17.6386 0 19.1223 0.540791 19.8828 1.9668C20.2241 2.60683 20.3661 3.33857 20.4336 4.07227C20.5012 4.80704 20.5 5.63854 20.5 6.5H18.5C18.5 5.61155 18.4988 4.88041 18.4414 4.25586C18.3839 3.63029 18.2758 3.20559 18.1172 2.9082C17.9259 2.54957 17.5579 2.18511 16.4688 2.05273C16.3928 3.44547 16.1465 5.01531 15.5 6.35449C15.0852 7.21378 14.4911 8.01045 13.6465 8.59082C12.7942 9.17639 11.7467 9.5 10.5 9.5C9.56095 9.5 9.1693 9.82317 8.98633 10.1191C8.76776 10.4729 8.6867 11.0492 8.85742 11.7686C9.02493 12.474 9.40819 13.1865 9.91602 13.709C10.4238 14.2314 10.9872 14.4999 11.5283 14.5C12.103 14.5 12.5011 14.3591 12.7891 14.1709C13.0832 13.9786 13.3186 13.7 13.5039 13.3477C13.8881 12.6168 14 11.6786 14 11H16C16 11.8213 15.8757 13.1333 15.2744 14.2773C15.2352 14.3519 15.1932 14.4263 15.1494 14.5H18V16.5H8.5C4.03551 16.5 0 13.1439 0 8.5C0 6.40384 0.835666 4.43825 2.18066 2.92578C2.20461 2.89169 2.23102 2.85877 2.25977 2.82715C2.29026 2.7936 2.32269 2.76281 2.35645 2.73438C3.92619 1.06861 6.12954 0 8.5 0H15.5ZM3.12207 4.96289C2.41915 5.99677 2 7.22054 2 8.5C2 11.6898 4.65795 14.2223 7.9541 14.4766C7.45941 13.8005 7.09798 13.0182 6.91113 12.2314C6.66648 11.2011 6.69212 10.0269 7.28418 9.06836C7.32666 8.99959 7.371 8.93265 7.41797 8.86816L3.12207 4.96289ZM8.5 2C7.01204 2 5.59977 2.56728 4.47363 3.48828L9.10449 7.69727C9.52441 7.56775 9.99151 7.5 10.5 7.5C11.3855 7.5 12.0287 7.27558 12.5137 6.94238C13.0062 6.60395 13.3962 6.1109 13.6982 5.48535C14.1824 4.48233 14.3983 3.22516 14.4697 2H8.5ZM11.5 3.5C12.0523 3.5 12.5 3.94772 12.5 4.5C12.5 5.05228 12.0523 5.5 11.5 5.5C10.9477 5.5 10.5 5.05228 10.5 4.5C10.5 3.94772 10.9477 3.5 11.5 3.5Z" fill="currentColor" />

</g>
</svg>
