<svg viewBox="0 0 24 24" fill="none" xmlns="http://www.w3.org/2000/svg">
<g transform="translate(1.5004, 1.5004)">
<path d="M11.5 21H9.5V14.7002H11.5V21ZM8.2373 14.1768L3.78223 18.6318L2.36816 17.2178L6.82324 12.7627L8.2373 14.1768ZM18.6318 17.2178L17.2178 18.6318L12.7627 14.1768L14.1768 12.7627L18.6318 17.2178ZM6.2998 11.5H0V9.5H6.2998V11.5ZM21 11.5H14.7002V9.5H21V11.5ZM8.2373 6.82324L6.82324 8.2373L2.36816 3.78223L3.78223 2.36816L8.2373 6.82324ZM18.6318 3.78223L14.1768 8.2373L12.7627 6.82324L17.2178 2.36816L18.6318 3.78223ZM11.5 6.2998H9.5V0H11.5V6.2998Z" fill="currentColor" />

</g>
</svg>
