<svg viewBox="0 0 24 24" fill="none" xmlns="http://www.w3.org/2000/svg">
<g transform="translate(1.5004, 2.0008)">
<path d="M12.3613 0.105663C13.2733 -0.151066 14.1903 0.0665302 14.8115 0.687694C15.4327 1.3089 15.6502 2.22587 15.3936 3.13789C15.3069 3.44563 15.1693 3.73589 14.9922 3.99922H18C19.6568 3.99922 20.9998 5.3425 21 6.99922V16.9992C21 18.6561 19.6569 19.9992 18 19.9992H3C1.34315 19.9992 0 18.6561 0 16.9992V6.99922C0.000165111 5.3425 1.34325 3.99922 3 3.99922H6.00781C5.83075 3.73589 5.6931 3.44564 5.60645 3.13789C5.34975 2.22587 5.56727 1.3089 6.18848 0.687694C6.8097 0.0665299 7.72666 -0.151066 8.63867 0.105663C9.43025 0.328568 10.1072 0.884656 10.5 1.60078C10.8928 0.884656 11.5697 0.328568 12.3613 0.105663ZM2.16406 13.7463C2.11244 13.7922 2.05752 13.8321 2 13.8654V16.9992C2 17.5515 2.44772 17.9992 3 17.9992H10.1201L18.8359 10.2521C18.8875 10.2064 18.9426 10.1672 19 10.134V6.99922C18.9998 6.44707 18.5522 5.99922 18 5.99922H10.8799L2.16406 13.7463ZM13.1299 17.9992H18C18.5523 17.9992 19 17.5515 19 16.9992V12.7805L13.1299 17.9992ZM3 5.99922C2.44782 5.99922 2.00017 6.44707 2 6.99922V11.217L7.87012 5.99922H3ZM8.09668 2.03047C7.81754 1.95194 7.66699 2.03737 7.60254 2.10176C7.53815 2.16615 7.45274 2.31671 7.53125 2.5959C7.62669 2.93482 7.92769 3.23579 8.2666 3.33125L9.05469 3.55293L8.83203 2.76582C8.73654 2.42695 8.43556 2.12589 8.09668 2.03047ZM13.3975 2.10176C13.333 2.03737 13.1825 1.95194 12.9033 2.03047C12.5644 2.12589 12.2635 2.42695 12.168 2.76582L11.9453 3.55293L12.7334 3.33125C13.0723 3.23579 13.3733 2.93482 13.4688 2.5959C13.5473 2.31671 13.4619 2.16615 13.3975 2.10176Z" fill="currentColor" />

</g>
</svg>
