<svg viewBox="0 0 24 24" fill="none" xmlns="http://www.w3.org/2000/svg">
<g transform="translate(2.0000, 1.8365)">
<path d="M5.35352 0.680525C5.96825 0.0657984 6.87561 -0.149295 7.77637 0.104353C8.77249 0.385008 9.58655 1.19904 9.86719 2.19517L9.98145 2.6024C10.3572 1.83829 11.0561 1.23992 11.8809 1.00767C12.7813 0.75415 13.688 0.969549 14.3027 1.58385C14.9174 2.19854 15.1334 3.106 14.8799 4.0067C14.7388 4.50765 14.463 4.96291 14.0967 5.32701H19C19.5523 5.32701 20 5.77472 20 6.32701V10.327C20 10.8793 19.5523 11.327 19 11.327V18.327C19 19.4316 18.1046 20.327 17 20.327H3C1.89543 20.327 1 19.4316 1 18.327V11.327C0.447715 11.327 0 10.8793 0 10.327V6.32701C2.57702e-07 5.77472 0.447715 5.32701 1 5.32701H7.33984L6.86816 5.1942C5.87202 4.91356 5.058 4.09952 4.77734 3.10338C4.52369 2.20262 4.73878 1.29526 5.35352 0.680525ZM3 11.327V18.327H9.06055V11.327H3ZM11.0605 11.327V18.327H17V11.327H11.0605ZM11.0605 9.32701H18V7.32701H11.0605V9.32701ZM2 9.32701H9.06055V7.32701H2V9.32701ZM12.8887 2.99791C12.8305 2.94007 12.6901 2.85821 12.4229 2.93345C12.0971 3.02528 11.8068 3.31473 11.7148 3.64049L11.5059 4.38072L12.2461 4.17271C12.572 4.08093 12.8622 3.79063 12.9541 3.4647C13.0295 3.1968 12.9465 3.05576 12.8887 2.99791ZM7.2334 2.02916C6.96571 1.95393 6.82542 2.03676 6.76758 2.09459C6.70971 2.15245 6.62669 2.29338 6.70215 2.56138C6.79406 2.88713 7.0844 3.17652 7.41016 3.26842L8.14941 3.47642L7.94141 2.73717C7.84947 2.41127 7.55932 2.12094 7.2334 2.02916Z" fill="currentColor" />

</g>
</svg>
