<svg viewBox="0 0 24 24" fill="none" xmlns="http://www.w3.org/2000/svg">
<g transform="translate(2.0000, 3.9992)">
<path d="M4.91381 2.20773L5.78197 2.7048L2.38841 8.64133C1.58758 10.0423 2.06624 11.8297 3.4431 12.6325L5.12279 13.6111C6.49369 14.4103 8.25184 13.9407 9.04955 12.5456L12.4431 6.60812L13.3113 7.10422L14.1794 7.60129L10.7859 13.5378C9.44153 15.8894 6.45502 16.703 4.11595 15.3396L2.43627 14.3601C0.102994 12.9995 -0.689042 9.99429 0.652087 7.64816L4.04564 1.71164L4.91381 2.20773ZM9.21361 2.46359C10.5581 0.111737 13.5453 -0.702148 15.8845 0.661835L17.5632 1.64133C19.8964 3.0019 20.6886 6.00714 19.3474 8.35324L15.9538 14.2898L15.0857 13.7937L14.2175 13.2966L17.6111 7.36008C18.4119 5.95909 17.9332 4.17178 16.5564 3.36887L14.8767 2.39035C13.5057 1.5909 11.7476 2.06144 10.9499 3.45676L7.55638 9.39328L6.68822 8.89719L5.82006 8.40012L9.21361 2.46359Z" fill="currentColor" />

</g>
</svg>
