<svg viewBox="0 0 24 24" fill="none" xmlns="http://www.w3.org/2000/svg">
<g transform="translate(3.9998, 2.9998)">
<path d="M2 0.75293L2.6543 0.608398C2.77349 0.58191 2.89291 0.557086 3.0127 0.535156C3.49225 0.447386 3.97605 0.395883 4.45996 0.380859C5.79085 0.339272 7.12286 0.57205 8.37109 1.07129C9.81285 1.64799 11.3953 1.77624 12.9111 1.43945L14.7832 1.02344C15.0792 0.957718 15.3894 1.02998 15.626 1.21973C15.8626 1.40952 16 1.6967 16 2V11C16 11.4687 15.6743 11.8749 15.2168 11.9766L13.3457 12.3916C11.437 12.8158 9.44436 12.6548 7.62891 11.9287C6.18715 11.352 4.60472 11.2238 3.08887 11.5605L2 11.8018V18H0V0H2V0.75293ZM13.3457 3.3916C11.9075 3.71121 10.4218 3.6976 9 3.36133V6C8.99986 6.33162 8.83513 6.64217 8.56055 6.82812C8.2859 7.01397 7.93684 7.05176 7.62891 6.92871C6.18718 6.35202 4.60469 6.22378 3.08887 6.56055L2 6.80176V9.75293L2.6543 9.6084C4.56301 9.18424 6.55564 9.34519 8.37109 10.0713C9.81285 10.648 11.3953 10.7762 12.9111 10.4395L14 10.1973V3.24609L13.3457 3.3916ZM4.80957 2.37695C4.23392 2.37347 3.65672 2.43438 3.08887 2.56055L2 2.80176V4.75293L2.6543 4.6084C4.0925 4.2888 5.57831 4.30226 7 4.63867V2.70898C6.99418 2.70722 6.98825 2.70585 6.98242 2.7041C6.77918 2.64304 6.57405 2.5899 6.36719 2.5459C6.33464 2.53898 6.30215 2.53188 6.26953 2.52539C6.13018 2.49762 5.99011 2.47412 5.84961 2.4541C5.63216 2.42318 5.41355 2.40192 5.19434 2.38965C5.06622 2.38244 4.93796 2.37777 4.80957 2.37695Z" fill="currentColor" />

</g>
</svg>
