<svg viewBox="0 0 24 24" fill="none" xmlns="http://www.w3.org/2000/svg">
<g transform="translate(2.9998, 2.9998)">
<path d="M7 10C7.55228 10 8 10.4477 8 11V17C8 17.5523 7.55228 18 7 18H1C0.447715 18 0 17.5523 0 17V11C0 10.4477 0.447715 10 1 10H7ZM17 10C17.5523 10 18 10.4477 18 11V17C18 17.5523 17.5523 18 17 18H11C10.4477 18 10 17.5523 10 17V11C10 10.4477 10.4477 10 11 10H17ZM2 16H6V12H2V16ZM12 16H16V12H12V16ZM7 0C7.55228 0 8 0.447715 8 1V7C8 7.55228 7.55228 8 7 8H1C0.447715 8 0 7.55228 0 7V1C0 0.447715 0.447715 0 1 0H7ZM17 0C17.5523 0 18 0.447715 18 1V7C18 7.55228 17.5523 8 17 8H11C10.4477 8 10 7.55228 10 7V1C10 0.447715 10.4477 0 11 0H17ZM2 6H6V2H2V6ZM12 6H16V2H12V6Z" fill="currentColor" />

</g>
</svg>
