<svg viewBox="0 0 24 24" fill="none" xmlns="http://www.w3.org/2000/svg">
<g transform="translate(0.9827, 4.0003)">
<path d="M12.3604 5.0127L12.3614 5.01074L17.4932 5.37012C18.3044 5.427 19.0582 5.8109 19.5811 6.43359L22.0352 9.35742L21.2696 10L20.504 10.6436L18.0489 7.71973C17.8746 7.51246 17.6237 7.38424 17.3536 7.36523L12.2208 7.00586C12.2059 7.00481 12.1907 7.00367 12.1759 7.00195C12.1106 6.99442 12.0726 7.00982 12.043 7.03027C12.0044 7.05716 11.967 7.10453 11.9473 7.16113C11.9288 7.21438 11.9363 7.2438 11.9376 7.24805C11.9377 7.24848 11.9387 7.2517 11.9444 7.25781C11.951 7.26477 11.9722 7.28544 12.0225 7.30957L15.5665 9.00879C15.9978 9.21569 16.2221 9.6991 16.1016 10.1621C15.981 10.6249 15.5497 10.9377 15.0723 10.9082L2.73347 10.1445C2.36586 10.1218 2.08751 10.3621 2.01472 10.7363C1.98019 10.9143 2.01105 11.0615 2.06844 11.1592C2.11002 11.2297 2.19606 11.3288 2.40144 11.3955L2.49715 11.4219L2.50984 11.4248V11.4258L12.2989 13.8525C12.6925 13.9501 13.0965 14 13.502 14H21.3438V16H13.502C12.9343 16 12.3685 15.9306 11.8175 15.7939L2.04207 13.3691C1.28262 13.1918 0.695084 12.7674 0.345779 12.1748C0.00671754 11.5994 -0.0634764 10.9429 0.050857 10.3545C0.276415 9.19484 1.29652 8.0518 2.8575 8.14844L10.4805 8.62012C10.2969 8.42301 10.1557 8.19474 10.0626 7.94336C9.88119 7.45361 9.90613 6.94236 10.0587 6.50391C10.3551 5.65217 11.213 4.90179 12.3604 5.0127ZM5.57429 0C7.50729 0 9.07429 1.567 9.07429 3.5C9.07429 5.433 7.50729 7 5.57429 7C3.6414 6.99988 2.07429 5.43293 2.07429 3.5C2.07429 1.56707 3.6414 0.000115446 5.57429 0ZM5.57429 2C4.74597 2.00012 4.07429 2.67164 4.07429 3.5C4.07429 4.32836 4.74597 4.99988 5.57429 5C6.40272 5 7.07429 4.32843 7.07429 3.5C7.07429 2.67157 6.40272 2 5.57429 2Z" fill="currentColor" />

</g>
</svg>
