<svg viewBox="0 0 24 24" fill="none" xmlns="http://www.w3.org/2000/svg">
<g transform="translate(0.9999, 2.5000)">
<path d="M11.8036 1.82306C14.1359 -0.607687 17.9352 -0.607687 20.2675 1.82306C22.5772 4.23045 22.5772 8.1168 20.2675 10.5242C20.2575 10.5346 20.2476 10.5455 20.2372 10.5555L11.6913 18.7225C11.3048 19.0919 10.695 19.0919 10.3085 18.7225L1.76258 10.5555C1.75217 10.5455 1.74228 10.5346 1.73231 10.5242C-0.577408 8.1168 -0.577464 4.23045 1.73231 1.82306C4.06461 -0.607687 7.86388 -0.607687 10.1962 1.82306L10.9999 2.65997L11.8036 1.82306ZM7.78114 10.1248C7.59136 10.362 7.30367 10.4998 6.99989 10.4998H4.5995L10.9999 16.616L17.3993 10.4998H14.4813L12.7811 12.6248C12.5766 12.8805 12.2592 13.0198 11.9325 12.9979C11.606 12.9758 11.3109 12.7951 11.1425 12.5145L8.88172 8.74787L7.78114 10.1248ZM18.8241 3.20783C17.279 1.5975 14.7921 1.5975 13.247 3.20783L11.7216 4.79767C11.533 4.99411 11.2722 5.10529 10.9999 5.10529C10.7276 5.10529 10.4668 4.99411 10.2782 4.79767L8.75282 3.20783C7.20771 1.5975 4.72078 1.5975 3.17567 3.20783C1.79919 4.64245 1.63258 6.87149 2.67371 8.49982H6.51844L8.21864 6.37482L8.30067 6.28497C8.5028 6.08722 8.78135 5.98254 9.06727 6.00177C9.3938 6.02382 9.68888 6.20456 9.85731 6.48517L12.1171 10.2508L13.2186 8.87482C13.4084 8.6376 13.6961 8.49982 13.9999 8.49982H19.3251C20.3667 6.87154 20.2007 4.64261 18.8241 3.20783Z" fill="currentColor" />

</g>
</svg>
