<svg viewBox="0 0 24 24" fill="none" xmlns="http://www.w3.org/2000/svg">
<g transform="translate(2.0000, 2.0000)">
<path d="M2.92893 2.92893C6.83417 -0.976311 13.1663 -0.976311 17.0715 2.92893C20.9768 6.83418 20.9768 13.1663 17.0715 17.0715C13.1663 20.9768 6.83418 20.9768 2.92893 17.0715C-0.976311 13.1663 -0.97631 6.83417 2.92893 2.92893ZM15.6574 4.34299C12.5333 1.2188 7.46719 1.2188 4.34299 4.34299C1.2188 7.46719 1.2188 12.5333 4.34299 15.6574C7.46719 18.7816 12.5333 18.7816 15.6574 15.6574C18.7816 12.5333 18.7816 7.46719 15.6574 4.34299ZM10.0002 13.0002C10.8282 13.0002 11.5002 13.6722 11.5002 14.5002C11.5002 15.3282 10.8282 16.0002 10.0002 16.0002C9.17222 16.0002 8.50022 15.3282 8.50022 14.5002C8.50022 13.6722 9.17222 13.0002 10.0002 13.0002ZM10.0002 3.75022C12 3.75025 13.5001 5.27933 13.5002 7.21018C13.5002 8.19194 13.0958 9.01845 12.428 9.59592C12.0169 9.95123 11.5257 10.196 11.0002 10.342V11.2502H9.00022V8.56077L9.93772 8.50217C10.4658 8.46925 10.8685 8.30001 11.1203 8.08225C11.3531 7.88088 11.5002 7.6051 11.5002 7.21018C11.5001 6.38761 10.8991 5.75025 10.0002 5.75022C9.10193 5.75025 8.42316 6.40143 8.23264 7.39768L6.2678 7.02268C6.58996 5.3367 7.90548 3.75025 10.0002 3.75022Z" fill="currentColor" />

</g>
</svg>
