<svg viewBox="0 0 24 24" fill="none" xmlns="http://www.w3.org/2000/svg">
<g transform="translate(5.7590, 2.5003)">
<path d="M6.48242 16C7.3107 16.0002 7.98239 16.6717 7.98242 17.5C7.98242 18.3283 7.31072 18.9998 6.48242 19C5.654 19 4.98242 18.3284 4.98242 17.5C4.98245 16.6716 5.65402 16 6.48242 16ZM6.48242 0C9.93161 0.000141138 12.4824 2.6131 12.4824 5.9209C12.4823 7.5907 11.8024 8.96678 10.6846 9.93359C9.8079 10.6917 8.6929 11.1722 7.48242 11.3857V14H5.48242V9.56055L6.41992 9.50195C7.64654 9.42545 8.67381 9.02807 9.37598 8.4209C10.0591 7.83014 10.4823 7.0042 10.4824 5.9209C10.4824 3.72138 8.83075 2.00014 6.48242 2C4.08732 2 2.41151 3.77058 1.96484 6.1084L0.982422 5.9209L0 5.73242C0.578522 2.70527 2.89112 0 6.48242 0Z" fill="currentColor" />

</g>
</svg>
