<svg viewBox="0 0 24 24" fill="none" xmlns="http://www.w3.org/2000/svg">
<g transform="translate(2.0000, 2.0000)">
<path d="M10 0C15.5228 0 20 4.47715 20 10C20 15.5228 15.5228 20 10 20C4.47715 20 0 15.5228 0 10C1.61064e-07 4.47715 4.47715 1.61069e-07 10 0ZM10 13.5C9.172 13.5 8.5 14.172 8.5 15C8.5 15.828 9.172 16.5 10 16.5C10.828 16.5 11.5 15.828 11.5 15C11.5 14.172 10.828 13.5 10 13.5ZM10 4C7.90525 4.00002 6.58973 5.58648 6.26758 7.27246L8.23242 7.64746C8.42294 6.6512 9.1017 6.00002 10 6C10.8989 6.00002 11.4999 6.63739 11.5 7.45996C11.5 7.85488 11.3528 8.13066 11.1201 8.33203C10.8683 8.54978 10.4656 8.71903 9.9375 8.75195L9 8.81055V11.5H11V10.5918C11.5256 10.4457 12.0166 10.2002 12.4277 9.84473C13.0955 9.26726 13.5 8.44167 13.5 7.45996C13.4998 5.5291 11.9998 4.00002 10 4Z" fill="currentColor" />

</g>
</svg>
