<svg viewBox="0 0 24 24" fill="none" xmlns="http://www.w3.org/2000/svg">
<g transform="translate(1.2502, 3.5000)">
<path d="M11 2.99989H3C2.44772 2.99989 2 3.4476 2 3.99989V13.9999C2.00013 14.5521 2.4478 14.9999 3 14.9999H18C18.5522 14.9999 18.9999 14.5521 19 13.9999V7.99989H21V13.9999C20.9999 15.6566 19.6568 16.9999 18 16.9999H3C1.34323 16.9999 0.000130954 15.6566 0 13.9999V3.99989C0 2.34303 1.34315 0.999887 3 0.999887H11V2.99989ZM18.1104 0.623911C18.8858 -0.208002 20.1425 -0.207939 20.918 0.623911C21.6935 1.4559 21.6935 2.80462 20.918 3.63661L17.6758 6.82704C17.5785 6.92275 17.4215 6.92275 17.3242 6.82704L14.082 3.63661C13.3066 2.80462 13.3066 1.4559 14.082 0.623911C14.8575 -0.207938 16.1142 -0.208002 16.8896 0.623911L17.5 1.27821L18.1104 0.623911Z" fill="currentColor" />

</g>
</svg>
