<svg viewBox="0 0 24 24" fill="none" xmlns="http://www.w3.org/2000/svg">
<g transform="translate(2.0000, 2.0000)">
<path d="M18.2755 9.94639C20.5752 12.2463 20.5754 15.9756 18.2755 18.2755C15.9756 20.5754 12.2464 20.5752 9.9464 18.2755L7.87218 16.2003L9.28624 14.7862L11.3605 16.8605C12.8794 18.3793 15.3416 18.3793 16.8605 16.8605C18.3793 15.3416 18.3793 12.8793 16.8605 11.3605L14.7862 9.28623L16.2003 7.87217L18.2755 9.94639ZM14.9708 13.5558L14.2628 14.2628L13.5558 14.9708L5.02941 6.44444L5.73742 5.73741L6.44445 5.0294L14.9708 13.5558ZM1.72472 1.72471C4.02451 -0.575055 7.75385 -0.574752 10.0538 1.72471L12.128 3.79991L10.714 5.21397L8.63976 3.13975C7.12085 1.62113 4.65857 1.62096 3.13976 3.13975C1.62096 4.65855 1.62113 7.12084 3.13976 8.63975L5.21398 10.714L3.79992 12.128L1.72472 10.0538C-0.574751 7.75383 -0.575062 4.02449 1.72472 1.72471Z" fill="currentColor" />

</g>
</svg>
