<svg viewBox="0 0 24 24" fill="none" xmlns="http://www.w3.org/2000/svg">
<g transform="translate(3.5000, 2.0000)">
<path d="M16 0C16.5523 0 17 0.447715 17 1V19C17 19.5523 16.5523 20 16 20H1C0.447715 20 0 19.5523 0 19V1C0 0.447715 0.447715 0 1 0H16ZM2 18H15V2H2V18ZM12.5 15.5H4.5V13.5H12.5V15.5ZM7.23633 4.02051C7.93197 4.10186 8.53937 4.4233 8.9541 4.63477C9.43231 4.87859 9.71857 5.01247 9.99609 5.04492C10.2 5.0687 10.475 5.04462 10.9004 4.72559C11.2033 4.49856 11.6086 4.4616 11.9473 4.63086C12.286 4.8002 12.4999 5.14675 12.5 5.52539V9.05176C12.4999 9.3664 12.3513 9.66277 12.0996 9.85156C11.3114 10.4427 10.5328 10.6465 9.76367 10.5566C9.06802 10.4753 8.46064 10.1538 8.0459 9.94238C7.56769 9.69856 7.28143 9.56468 7.00391 9.53223C6.8 9.50845 6.52499 9.53252 6.09961 9.85156C5.79666 10.0786 5.39138 10.1156 5.05273 9.94629C4.71404 9.77694 4.50012 9.43041 4.5 9.05176V5.52539L4.50684 5.40918C4.53854 5.13883 4.67994 4.89093 4.90039 4.72559C5.68865 4.13449 6.46722 3.93062 7.23633 4.02051ZM7.00391 6.00684C6.87242 5.9915 6.71176 5.99629 6.5 6.08691V7.55566C6.74656 7.52179 6.99171 7.51731 7.23633 7.5459C7.9319 7.62725 8.53937 7.94869 8.9541 8.16016C9.43231 8.40398 9.71857 8.53786 9.99609 8.57031C10.1277 8.58566 10.2881 8.58003 10.5 8.48926V7.02051C10.2534 7.0544 10.0083 7.05984 9.76367 7.03125C9.0681 6.9499 8.46063 6.62846 8.0459 6.41699C7.56769 6.17317 7.28143 6.03929 7.00391 6.00684Z" fill="currentColor" />

</g>
</svg>
