<svg viewBox="0 0 24 24" fill="none" xmlns="http://www.w3.org/2000/svg">
<g transform="translate(4.0003, 1.5004)">
<path d="M11 21H5V19H11V21ZM8 0C12.4183 0 16 3.58172 16 8C16 10.9622 14.3892 13.5454 12 14.9277V16.5C12 17.0523 11.5523 17.5 11 17.5H5C4.44772 17.5 4 17.0523 4 16.5V14.9277C1.61081 13.5454 0 10.9622 0 8C0 3.58172 3.58172 0 8 0ZM8 2C4.68629 2 2 4.68629 2 8C2 10.3918 3.39951 12.4587 5.42871 13.4229C5.77735 13.5885 5.99992 13.9402 6 14.3262V15.5H10V14.3262C10.0001 13.9402 10.2226 13.5885 10.5713 13.4229C12.6005 12.4587 14 10.3918 14 8C14 4.68629 11.3137 2 8 2Z" fill="currentColor" />

</g>
</svg>
