<svg viewBox="0 0 24 24" fill="none" xmlns="http://www.w3.org/2000/svg">
<g transform="translate(1.5004, 3.5003)">
<path d="M20 0C20.5523 0 21 0.447715 21 1V16C21 16.5523 20.5523 17 20 17H1C0.447715 17 0 16.5523 0 16V1C0 0.447715 0.447715 0 1 0H20ZM2 15H19V2H2V15ZM9.93164 6.17773C10.2977 5.92433 10.793 5.94176 11.1406 6.23145L17.1406 11.2314C17.464 11.501 17.5837 11.945 17.4404 12.3408C17.297 12.7365 16.9209 13 16.5 13H4.5C4.07909 13 3.70298 12.7365 3.55957 12.3408C3.41626 11.945 3.53601 11.501 3.85938 11.2314L9.85938 6.23145L9.93164 6.17773ZM7.2627 11H13.7373L10.5 8.30176L7.2627 11ZM5.5 4C6.32843 4 7 4.67157 7 5.5C7 6.32843 6.32843 7 5.5 7C4.67157 7 4 6.32843 4 5.5C4 4.67157 4.67157 4 5.5 4Z" fill="currentColor" />

</g>
</svg>
