<svg viewBox="0 0 24 24" fill="none" xmlns="http://www.w3.org/2000/svg">
<g transform="translate(2.0000, 2.0000)">
<path d="M2.92893 2.92893C6.83417 -0.976311 13.1663 -0.976311 17.0715 2.92893C20.9768 6.83418 20.9768 13.1663 17.0715 17.0715C13.1663 20.9768 6.83418 20.9768 2.92893 17.0715C-0.976311 13.1663 -0.97631 6.83417 2.92893 2.92893ZM15.6574 4.34299C12.5333 1.2188 7.46719 1.2188 4.34299 4.34299C1.2188 7.46719 1.2188 12.5333 4.34299 15.6574C7.46719 18.7816 12.5333 18.7816 15.6574 15.6574C18.7816 12.5333 18.7816 7.46719 15.6574 4.34299ZM11.0002 15.0002H9.00022V9.50022H11.0002V15.0002ZM10.0002 4.50022C10.8286 4.50022 11.5002 5.17179 11.5002 6.00022C11.5002 6.82865 10.8286 7.50022 10.0002 7.50022C9.17179 7.50022 8.50022 6.82865 8.50022 6.00022C8.50022 5.17179 9.17179 4.50022 10.0002 4.50022Z" fill="currentColor" />

</g>
</svg>
