<svg viewBox="0 0 24 24" fill="none" xmlns="http://www.w3.org/2000/svg">
<g transform="translate(3.9996, 0.9999)">
<path d="M9.90452 0.3065C10.2598 -0.0626229 10.8367 -0.103433 11.2405 0.211773C11.6442 0.527339 11.7442 1.09704 11.4719 1.53111L7.76488 7.43541L15.3274 10.0545C15.6497 10.1662 15.8933 10.4348 15.9729 10.7665C16.0525 11.0981 15.9574 11.4475 15.7209 11.6932L12.2209 15.3299L6.09593 21.6932C5.7405 22.0623 5.16277 22.1035 4.75902 21.7879C4.35549 21.4724 4.25635 20.9026 4.52855 20.4686L8.2346 14.5633L0.673079 11.9452C0.350861 11.8335 0.107167 11.5649 0.0275712 11.2333C-0.0519818 10.9017 0.0432219 10.5522 0.279524 10.3065L3.77952 6.66978L9.90452 0.3065Z" fill="currentColor" />

</g>
</svg>
