<svg viewBox="0 0 24 24" fill="none" xmlns="http://www.w3.org/2000/svg">
<g transform="translate(2.0000, 2.0000)">
<path d="M10 0C15.5228 0 20 4.47715 20 10C20 15.5228 15.5228 20 10 20L9.48535 19.9873C4.20167 19.7195 5.92935e-07 15.3502 0 10C0 4.47715 4.47715 5.15406e-07 10 0ZM7.02637 11C7.12244 12.8497 7.48406 14.606 8.08496 15.958C8.82376 17.6203 9.59752 18 10 18C10.4025 18 11.1762 17.6203 11.915 15.958C12.5159 14.606 12.8776 12.8497 12.9736 11H7.02637ZM2.06445 11C2.40259 13.7107 4.09595 16 6.44531 17.168C6.38047 17.0382 6.31789 16.9057 6.25781 16.7705C5.52261 15.1163 5.12178 13.0684 5.02441 11H2.06445ZM14.9756 11C14.8782 13.0684 14.4774 15.1163 13.7422 16.7705C13.6821 16.9058 13.6186 17.0381 13.5537 17.168C15.9035 16.0001 17.5974 13.711 17.9355 11H14.9756ZM13.5537 2.83105C13.6188 2.96117 13.6819 3.09393 13.7422 3.22949C14.4774 4.8837 14.8782 6.93158 14.9756 9H17.9355C17.5974 6.28881 15.9037 3.99884 13.5537 2.83105ZM10 2C9.59752 2 8.82376 2.3797 8.08496 4.04199C7.48406 5.39403 7.12244 7.15027 7.02637 9H12.9736C12.8776 7.15027 12.5159 5.39403 11.915 4.04199C11.1762 2.3797 10.4025 2 10 2ZM6.44531 2.83105C4.09575 3.99896 2.40261 6.28911 2.06445 9H5.02441C5.12178 6.93158 5.52261 4.8837 6.25781 3.22949C6.31801 3.09407 6.38033 2.96105 6.44531 2.83105Z" fill="currentColor" />

</g>
</svg>
