<svg viewBox="0 0 24 24" fill="none" xmlns="http://www.w3.org/2000/svg">
<g transform="translate(2.0000, 3.9999)">
<path d="M5 16H0V14H5V16ZM12 16H7V14H12V16ZM2 0C2 1.37127 2.35017 3.35043 3.09473 4.9541C3.86159 6.60567 4.858 7.5 6 7.5C6.38482 7.5 6.79217 7.36621 7.27148 7.08789C7.76136 6.80339 8.24811 6.41617 8.81641 5.96582C9.85537 5.14247 11.2571 4 13 4C14.4482 4.00001 15.5802 4.90494 16.4062 5.9375C17.2453 6.98631 17.9135 8.34081 18.4287 9.62891C18.9483 10.928 19.3346 12.2189 19.5908 13.1797C19.7193 13.6616 19.8161 14.0643 19.8809 14.3477C19.9132 14.4891 19.9375 14.6011 19.9541 14.6787C19.9624 14.7175 19.9693 14.7485 19.9736 14.7695C19.9758 14.7798 19.9773 14.7882 19.9785 14.7939C19.9791 14.7967 19.9792 14.7991 19.9795 14.8008L19.9805 14.8027V14.8037L19.9961 14.9141C20.0184 15.1724 19.9396 15.431 19.7734 15.6338C19.5835 15.8655 19.2996 16 19 16H14V14H17.7373C17.7124 13.903 17.6874 13.801 17.6592 13.6953C17.4154 12.7812 17.0515 11.5717 16.5713 10.3711C16.0866 9.15934 15.5046 8.0136 14.8438 7.1875C14.1698 6.34509 13.5518 6.00001 13 6C12.0763 6 11.2279 6.60753 10.0586 7.53418C9.52292 7.95869 8.91551 8.44667 8.27539 8.81836C7.62458 9.19621 6.86503 9.5 6 9.5C3.64209 9.5 2.1384 7.64417 1.28027 5.7959C0.399928 3.89963 0 1.62864 0 0H2Z" fill="currentColor" />

</g>
</svg>
