<svg viewBox="0 0 24 24" fill="none" xmlns="http://www.w3.org/2000/svg">
<g transform="translate(0.6899, 3.5001)">
<path d="M18.0518 0.105264C18.2644 -0.00127626 18.5093 -0.0280906 18.7422 0.0300684C19.0082 0.0965199 19.2351 0.268976 19.3701 0.507607L22.6201 6.25761L20.8799 7.24198L18.8926 3.72636C18.6083 4.84636 18.2271 6.22976 17.7607 7.6287C17.2213 9.24695 16.5554 10.9322 15.7773 12.2625C15.3884 12.9274 14.9498 13.5403 14.457 14.0164C13.9677 14.4891 13.3622 14.887 12.6416 14.99C11.4002 15.1674 10.4241 14.6988 9.6748 14.0096C8.96773 13.3591 8.41628 12.4706 7.95508 11.7019C7.46053 10.8777 7.06242 10.1812 6.6123 9.66386C6.17914 9.16614 5.83707 8.99979 5.5 8.99979C5.14645 8.99979 4.74277 9.18456 4.28711 9.70976C3.83007 10.2366 3.41143 11.0096 3.05762 11.9236C2.34824 13.7563 2.00002 15.884 2 16.9998H0C1.76573e-05 15.6157 0.401834 13.2432 1.19238 11.201C1.58852 10.1777 2.1076 9.16912 2.77539 8.39921C3.44464 7.6277 4.35362 6.99979 5.5 6.99979C6.66276 6.99979 7.50754 7.64627 8.12109 8.35136C8.71781 9.03714 9.22699 9.93442 9.66992 10.6726C10.1461 11.4662 10.5637 12.1093 11.0283 12.5369C11.4508 12.9256 11.8501 13.0821 12.3584 13.0096C12.5127 12.9875 12.7511 12.8854 13.0684 12.5789C13.3822 12.2757 13.7132 11.8299 14.0508 11.2527C14.7258 10.0987 15.3412 8.56503 15.8643 6.99589C16.3218 5.62327 16.6947 4.2571 16.9727 3.15604L13.5371 5.34354L12.4629 3.65604L17.9629 0.156045L18.0518 0.105264Z" fill="currentColor" />

</g>
</svg>
