<svg viewBox="0 0 24 24" fill="none" xmlns="http://www.w3.org/2000/svg">
<g transform="translate(2.0000, 3.5002)">
<path d="M10.6583 1.63765C12.7954 -0.545869 16.2694 -0.545897 18.4064 1.63765C20.5315 3.8092 20.5316 7.32162 18.4064 9.49312C18.3963 9.5034 18.3856 9.51356 18.3751 9.52339L10.6837 16.7294C10.2991 17.0898 9.70115 17.0898 9.31655 16.7294L1.62514 9.52339C1.61465 9.51356 1.60395 9.50339 1.59389 9.49312C-0.531332 7.32162 -0.531261 3.8092 1.59389 1.63765C3.7309 -0.545897 7.20491 -0.545869 9.34194 1.63765L10.0001 2.30952L10.6583 1.63765ZM16.9767 3.03609C15.6242 1.65443 13.4406 1.65453 12.088 3.03609L10.715 4.43941C10.5269 4.6316 10.2691 4.74019 10.0001 4.74019C9.7312 4.74019 9.47341 4.6316 9.2853 4.43941L7.91225 3.03609C6.55967 1.65453 4.3761 1.65443 3.02358 3.03609C1.66191 4.42741 1.65956 6.6901 3.01576 8.08492L10.0001 14.6298L16.9835 8.08492C18.3402 6.69014 18.3385 4.42757 16.9767 3.03609Z" fill="currentColor" />

</g>
</svg>
