<svg viewBox="0 0 24 24" fill="none" xmlns="http://www.w3.org/2000/svg">
<g transform="translate(2.9998, 3.5000)">
<path d="M9.00021 4C9.32014 4 9.62063 4.15337 9.8088 4.41211L17.8088 15.4121C18.03 15.7163 18.0625 16.119 17.8918 16.4541C17.7211 16.7892 17.3763 17 17.0002 17H1.00021C0.624111 17 0.279294 16.7892 0.108608 16.4541C-0.0620444 16.119 -0.0295301 15.7163 0.191616 15.4121L8.19162 4.41211L8.26681 4.32031C8.45481 4.11742 8.72008 4 9.00021 4ZM2.96408 15H15.0363L9.00021 6.69922L2.96408 15ZM18.0002 2H0.000209456V0H18.0002V2Z" fill="currentColor" />

</g>
</svg>
