<svg viewBox="0 0 24 24" fill="none" xmlns="http://www.w3.org/2000/svg">
<g transform="translate(4.0001, 2.5003)">
<path d="M8 0C10.1217 0 12.1569 0.844503 13.6572 2.34766C15.1574 3.85079 16 5.88994 16 8.01562C15.9998 12.8661 11.1564 17.0424 9.00684 18.6572C8.3991 19.1138 7.6009 19.1138 6.99316 18.6572C4.84361 17.0424 0.00024186 12.8661 0 8.01562C0 5.88994 0.842611 3.85079 2.34277 2.34766C3.84306 0.844503 5.87827 0 8 0ZM8 5.5C6.61934 5.50003 5.50003 6.61934 5.5 8C5.5 9.38069 6.61932 10.5 8 10.5C9.38071 10.5 10.5 9.38071 10.5 8C10.5 6.61932 9.38069 5.5 8 5.5Z" fill="currentColor" />

</g>
</svg>
