<svg viewBox="0 0 24 24" fill="none" xmlns="http://www.w3.org/2000/svg">
<g transform="translate(0.9999, 3.0000)">
<path d="M3.99992 16H17.9999V10.5H19.9999V17C19.9999 17.5522 19.5521 17.9998 18.9999 18H2.99992C2.73477 18 2.48041 17.8945 2.29289 17.707C2.10535 17.5195 1.99992 17.2652 1.99992 17V10.5H3.99992V16ZM16.9999 0C17.2925 7.62803e-05 17.5682 0.128255 17.7568 0.34668L17.832 0.445312L21.832 6.44531C22.0047 6.70447 22.0471 7.0296 21.9462 7.32422C21.8451 7.61884 21.6118 7.84958 21.3163 7.94824C16.5968 9.52143 13.66 9.12453 10.8212 8.6084C8.07766 8.10957 5.50285 7.52413 1.21672 8.47656C0.824673 8.5636 0.418494 8.40715 0.185466 8.08008C-0.0475817 7.75287 -0.0621856 7.31771 0.148356 6.97559L4.14836 0.475586C4.30759 0.217067 4.5744 0.0473503 4.87101 0.00878906L4.99992 0H16.9999ZM5.55851 2L3.01457 6.13477C6.47478 5.6975 8.88522 6.22462 11.1786 6.6416C13.5671 7.07587 15.8765 7.40059 19.4198 6.43164L16.4648 2H5.55851Z" fill="currentColor" />

</g>
</svg>
