<svg viewBox="0 0 24 24" fill="none" xmlns="http://www.w3.org/2000/svg">
<g transform="translate(1.7679, 1.5004)">
<path d="M14.4648 6C16.061 6.00011 17.5891 6.64441 18.7129 7.78613C19.8361 8.92751 20.4647 10.4728 20.4648 12.0801C20.4648 14.4314 19.0068 16.6487 17.7305 18.166C17.072 18.9488 16.4152 19.598 15.9248 20.0518C15.6791 20.2791 15.4733 20.4598 15.3271 20.584C15.2544 20.6458 15.1961 20.694 15.1553 20.7275C15.1349 20.7442 15.118 20.7573 15.1064 20.7666C15.1009 20.7711 15.0961 20.7756 15.0928 20.7783C15.0914 20.7794 15.0899 20.7805 15.0889 20.7812L15.0869 20.7832C14.7685 21.0359 14.3338 21.0673 13.9863 20.8779L13.8428 20.7832L13.8408 20.7812C13.8399 20.7805 13.8383 20.7794 13.8369 20.7783C13.8336 20.7756 13.8288 20.7711 13.8232 20.7666C13.8118 20.7573 13.7948 20.7442 13.7744 20.7275C13.7336 20.6941 13.6753 20.6458 13.6025 20.584C13.4565 20.4598 13.2506 20.2791 13.0049 20.0518C12.5145 19.598 11.8578 18.9489 11.1992 18.166C9.92281 16.6487 8.46484 14.4315 8.46484 12.0801C8.46494 10.4727 9.09347 8.92753 10.2168 7.78613C11.3407 6.64444 12.8686 6 14.4648 6ZM14.4648 8C13.4093 8 12.393 8.42606 11.6416 9.18945C10.8899 9.9534 10.4649 10.993 10.4648 12.0801C10.4648 13.6801 11.5069 15.4234 12.7305 16.8779C13.3216 17.5807 13.9153 18.1703 14.3623 18.584C14.3967 18.6158 14.4324 18.6452 14.4648 18.6748C14.4973 18.6452 14.533 18.6158 14.5674 18.584C15.0144 18.1703 15.6081 17.5806 16.1992 16.8779C17.4227 15.4234 18.4648 13.68 18.4648 12.0801C18.4647 10.9931 18.0397 9.95338 17.2881 9.18945C16.5368 8.42604 15.5204 8.00011 14.4648 8ZM16 0C17.1046 0 18 0.895431 18 2V4.5H16V2H2V11H6.5V13H2C0.895431 13 1.61064e-08 12.1046 0 11V2C0 0.89543 0.895431 0 2 0H16Z" fill="currentColor" />

</g>
</svg>
