<svg viewBox="0 0 24 24" fill="none" xmlns="http://www.w3.org/2000/svg">
<g transform="translate(3.5382, 2.0000)">
<path d="M11.0485 3.89558C12.2935 3.89558 13.177 4.57831 13.8196 5.58233C14.0204 5.86345 14.4622 5.94377 14.7433 5.66265L16.7513 3.73494C16.9521 3.53414 16.9923 3.21285 16.7915 2.97189C15.4662 1.20482 13.659 0 10.928 0C7.07262 0 3.73929 2.4498 3.73929 6.54618C3.73929 7.10843 3.77945 7.67068 3.89993 8.23293H2.81559C2.53447 8.23293 2.2935 8.39357 2.21318 8.6747L1.81158 10.8434C1.73126 11.2048 2.01238 11.5663 2.37383 11.5663H4.66298L4.7433 11.9277C4.78346 12.1285 4.82362 12.49 4.82362 12.6908C4.82362 14.3775 3.05656 16.0241 0.887881 16.7068C0.687078 16.747 0.526436 16.9478 0.486275 17.1486L0.00434787 19.2771C-0.0358128 19.6386 0.205151 20 0.606757 20H14.3417C14.6228 20 14.8236 19.7992 14.9039 19.5181L15.5064 16.8273C15.5867 16.4659 15.3056 16.1044 14.9441 16.1044H7.63487C8.5184 15.3012 9.00033 13.1325 8.83969 11.5261H12.4541C12.7353 11.5261 12.9762 11.3655 13.0566 11.0442L13.5385 8.91566C13.5786 8.55422 13.3377 8.19277 12.9361 8.19277H8.23728C8.19712 7.83133 8.19712 7.42972 8.19712 7.10843C8.15696 4.8996 9.52242 3.89558 11.0485 3.89558Z" fill="currentColor" />

</g>
</svg>
