<svg viewBox="0 0 24 24" fill="none" xmlns="http://www.w3.org/2000/svg">
<g transform="translate(4.5001, 0.9999)">
<path d="M11.538 0C11.7674 0 11.9381 0.225794 11.8895 0.464844L11.4481 2.63281C12.9548 3.12631 14.1793 4.01094 14.9354 5.10254C15.0439 5.25914 15.0103 5.47728 14.869 5.60059L13.0116 7.22168C12.8482 7.3642 12.6061 7.32574 12.4726 7.15137C11.5336 5.92429 10.0607 5.23055 8.46572 5.23047C6.73047 5.23047 5.57334 6.05114 5.57314 7.23047C5.57314 8.20475 6.44087 8.71769 9.0917 9.33301H9.09365C12.4676 10.1023 14.0106 11.5899 14.0106 14.1025C14.0106 17.2525 11.5985 19.5781 7.83486 19.8242L7.4667 21.6953C7.43168 21.8729 7.28432 22 7.11416 22H4.19814C3.96595 21.9998 3.7948 21.7683 3.84853 21.5273L4.31533 19.4326C2.43837 18.8641 0.930446 17.7561 0.0575179 16.3896C-0.0448281 16.2294 -0.00600681 16.0134 0.137596 15.8945L2.17471 14.208C2.34266 14.069 2.58633 14.116 2.71084 14.2998C3.78341 15.883 5.42644 16.8202 7.40517 16.8203C9.18862 16.8203 10.5387 15.8976 10.539 14.5645C10.539 13.5389 9.86399 13.0772 7.59853 12.5645C3.69388 11.6927 2.15127 10.1534 2.15127 7.64062C2.15148 4.72544 4.45435 2.52319 7.92861 2.2373L8.30947 0.304688C8.34451 0.12711 8.49184 0 8.66201 0H11.538Z" fill="currentColor" />

</g>
</svg>
