<svg viewBox="0 0 24 24" fill="none" xmlns="http://www.w3.org/2000/svg">
<g transform="translate(3.4246, 2.0000)">
<path d="M16.8881 1.41336C15.6379 0.539985 14.0452 0 12.0918 0C10.3356 0 4.26853 0.551836 2.8054 8.14126H1.0618C0.761198 8.14126 0.502857 8.35377 0.445185 8.64885L0.0082992 10.8763C-0.0446328 11.1465 0.162354 11.3982 0.43768 11.3982H2.49136C2.44317 18.8967 7.56296 20 10.0654 20C12.1459 20 13.6687 19.3585 14.8857 18.3477C15.1678 18.113 15.1808 17.6828 14.9213 17.4237L13.278 15.7804C13.0651 15.5675 12.7329 15.5403 12.4829 15.7074C11.8287 16.1439 11.1074 16.3516 10.3083 16.3516C9.45982 16.3516 6.77253 15.848 6.81559 11.3982H10.5117C10.8124 11.3982 11.0703 11.1856 11.1284 10.8906L11.5649 8.66307C11.6182 8.39288 11.4112 8.14126 11.1355 8.14126H7.24655C8.36997 3.78424 11.1639 3.67601 12.0918 3.67601C13.0284 3.67601 13.7351 3.9063 14.3165 4.28907C14.5693 4.45537 14.9004 4.43562 15.1141 4.22192L16.9647 2.37048C17.2396 2.09634 17.2065 1.63576 16.8881 1.41336Z" fill="currentColor" />

</g>
</svg>
