<svg viewBox="0 0 24 24" fill="none" xmlns="http://www.w3.org/2000/svg">
<g transform="translate(2.0000, 2.0000)">
<path d="M16.6572 1.04133e-07C17.0961 -0.000109339 17.531 0.0860495 17.9365 0.253906C18.342 0.421756 18.7102 0.668295 19.0205 0.978516C19.3308 1.28875 19.5771 1.65714 19.7451 2.0625C19.9131 2.46798 20 2.90289 20 3.3418V16.6563C20 17.5427 19.6482 18.3936 19.0215 19.0205C18.3947 19.6475 17.5438 19.9998 16.6572 20H3.34277C2.45621 19.9998 1.60533 19.6475 0.978516 19.0205C0.351821 18.3936 -2.75368e-08 17.5427 0 16.6563V3.3418C-1.36474e-08 2.90289 0.0868962 2.46798 0.254883 2.0625C0.422866 1.65714 0.66918 1.28875 0.979492 0.978516C1.28984 0.668294 1.65804 0.421757 2.06348 0.253906C2.46897 0.0860501 2.90391 -0.000109339 3.34277 1.04133e-07H16.6572ZM4.69238 3.63672C4.55399 3.63673 4.41692 3.66384 4.28906 3.7168C4.1613 3.76975 4.04507 3.84754 3.94727 3.94531C3.84938 4.04327 3.77168 4.16012 3.71875 4.28809C3.66586 4.416 3.6386 4.55299 3.63867 4.69141V15.3096C3.63862 15.4479 3.66587 15.585 3.71875 15.7129C3.77168 15.8408 3.84942 15.9568 3.94727 16.0547C4.04516 16.1527 4.16112 16.2312 4.28906 16.2842C4.4169 16.3371 4.55401 16.3642 4.69238 16.3643H15.3096C15.5891 16.3639 15.8571 16.2524 16.0547 16.0547C16.2522 15.857 16.3632 15.589 16.3633 15.3096V4.69141C16.3632 4.41193 16.2522 4.14404 16.0547 3.94629C15.8571 3.74856 15.5891 3.63705 15.3096 3.63672H4.69238ZM12.125 7.25879C12.2047 7.2589 12.2839 7.27501 12.3574 7.30566C12.4309 7.33628 12.4976 7.38111 12.5537 7.4375C12.6098 7.49393 12.6543 7.56115 12.6846 7.63477C12.7148 7.70841 12.7308 7.7876 12.7305 7.86719V12.1055C12.7307 12.185 12.7148 12.2643 12.6846 12.3379C12.6543 12.4115 12.6099 12.4787 12.5537 12.5352C12.4976 12.5915 12.4308 12.6364 12.3574 12.667C12.2839 12.6976 12.2046 12.7128 12.125 12.7129H7.875C7.79534 12.7129 7.71614 12.6976 7.64258 12.667C7.56913 12.6364 7.50243 12.5915 7.44629 12.5352C7.39011 12.4787 7.34568 12.4116 7.31543 12.3379C7.28522 12.2642 7.2692 12.1851 7.26953 12.1055V7.86719C7.26913 7.78757 7.28526 7.70845 7.31543 7.63477C7.34563 7.56109 7.39014 7.49396 7.44629 7.4375C7.50244 7.38108 7.56909 7.33625 7.64258 7.30566C7.7162 7.27505 7.79527 7.25879 7.875 7.25879H12.125Z" fill="currentColor" />

</g>
</svg>
