<svg viewBox="0 0 24 24" fill="none" xmlns="http://www.w3.org/2000/svg">
<g transform="translate(3.0004, 4.0002)">
<path d="M7.91387 2.52543C7.91387 0.584584 10.0125 -0.62525 11.6912 0.337932L14.2313 1.79399L16.7342 3.22758C18.4201 4.19796 18.4205 6.6385 16.742 7.61625L14.2381 9.04985L11.6981 10.5059C10.0194 11.4761 7.92169 10.2591 7.92169 8.3184V7.93461C7.92159 7.84736 7.89777 7.76122 7.8543 7.68559C7.81083 7.61015 7.74882 7.54683 7.67364 7.50297C7.59824 7.45901 7.51188 7.43612 7.42462 7.43559C7.33749 7.43512 7.25141 7.45707 7.17559 7.50004L4.86016 8.83305L2.55254 10.1582C2.47685 10.2017 2.4137 10.2643 2.36993 10.3399C2.32617 10.4155 2.30257 10.5015 2.30254 10.5889C2.30254 10.6763 2.32615 10.7623 2.36993 10.8379C2.41371 10.9136 2.47678 10.9761 2.55254 11.0196L4.86016 12.3448L7.17559 13.6778C7.25141 13.7207 7.33749 13.7427 7.42462 13.7422C7.51188 13.7417 7.59824 13.7188 7.67364 13.6748C7.74884 13.631 7.81085 13.5677 7.8543 13.4922C7.89781 13.4165 7.92163 13.3305 7.92169 13.2432V12.4688C7.92118 12.383 7.94278 12.2982 7.98516 12.2237C8.02763 12.1491 8.08887 12.0863 8.1629 12.043C8.2369 11.9997 8.32134 11.9771 8.40704 11.9766C8.49284 11.9762 8.57766 11.9984 8.65215 12.0411L9.83184 12.7149C9.90912 12.7576 9.97386 12.8202 10.0184 12.8965C10.063 12.973 10.0857 13.0609 10.0848 13.1495V13.4747C10.0848 15.4155 7.98614 16.6253 6.30743 15.6622L3.76739 14.2061L1.26446 12.7725C-0.421486 11.8021 -0.421486 9.36109 1.26446 8.39067L3.76739 6.95707L6.30059 5.49418C7.97927 4.52397 10.0779 5.74091 10.0779 7.68168V8.06547C10.078 8.15272 10.1009 8.23886 10.1443 8.31449C10.1878 8.38993 10.2498 8.45325 10.325 8.49711C10.4004 8.54107 10.4868 8.56396 10.574 8.56449C10.6612 8.56497 10.7472 8.54303 10.8231 8.50004L13.1385 7.16703L15.4461 5.84184C15.5218 5.79837 15.5849 5.73574 15.6287 5.6602C15.6725 5.58458 15.6961 5.49856 15.6961 5.41117C15.6961 5.32374 15.6725 5.23781 15.6287 5.16215C15.5849 5.08651 15.5219 5.02402 15.4461 4.98051L13.1385 3.65532L10.8231 2.32231C10.7472 2.27932 10.6612 2.25738 10.574 2.25785C10.4868 2.25839 10.4004 2.28128 10.325 2.32524C10.2498 2.36914 10.1878 2.43236 10.1443 2.50785C10.1008 2.58356 10.078 2.66954 10.0779 2.75688V3.53129C10.0784 3.61706 10.0559 3.70187 10.0135 3.77641C9.97101 3.85099 9.9098 3.91376 9.83575 3.95707C9.76173 4.00035 9.67733 4.02304 9.59161 4.02348C9.5058 4.02388 9.42098 4.00165 9.34649 3.95903L8.1668 3.2852C8.08954 3.24244 8.02478 3.17989 7.98028 3.10356C7.93569 3.02705 7.91293 2.9392 7.91387 2.85063V2.52543Z" fill="currentColor" />

</g>
</svg>
