<svg viewBox="0 0 24 24" fill="none" xmlns="http://www.w3.org/2000/svg">
<g transform="translate(4.0647, 0.9999)">
<path d="M9.80919 9.23668H5.93994L6.6976 5.8066H9.97349C11.3128 5.8066 12.0876 6.41709 12.0876 7.42781C12.0876 8.62542 11.1485 9.23668 9.80919 9.23668ZM8.42315 16.2144H4.39816L5.28586 12.1972H8.56409C10.1853 12.1972 11.1719 12.8778 11.1719 14.0995C11.1719 15.3446 10.1619 16.2144 8.42315 16.2144V16.2144ZM15.8704 6.84069C15.8704 4.60666 14.1706 3.15676 11.8338 2.73783L12.2402 0.804375C12.3267 0.38934 12.0105 0 11.5869 0H9.12474C8.80937 0 8.53761 0.219588 8.4722 0.527945L8.02836 2.61169H3.98468C3.7503 2.61169 3.54707 2.77443 3.49645 3.00336L0.0118719 18.7778C-0.0566517 19.0901 0.180066 19.386 0.500103 19.386H4.30394L3.92317 21.1746C3.83596 21.5881 4.14899 21.9782 4.57103 21.9813L7.0371 22C7.3548 22.0023 7.63045 21.7804 7.69586 21.4689L8.1327 19.386H8.51659C12.4637 19.386 14.9773 17.2244 14.9773 14.4289C14.9773 12.7843 14.0849 11.445 12.6989 10.7637C14.4377 10.2708 15.8704 8.88394 15.8704 6.84069" fill="currentColor" />

</g>
</svg>
