<svg viewBox="0 0 24 24" fill="none" xmlns="http://www.w3.org/2000/svg">
<g transform="translate(1.1462, 1.6463)">
<path d="M21.7076 19.2931L20.2935 20.7072L10.2935 10.7072L11.7076 9.29313L21.7076 19.2931ZM5.80132 14.1388C5.86985 13.954 6.13132 13.9539 6.19976 14.1388L6.88433 15.9904C6.90586 16.0485 6.95218 16.0939 7.0103 16.1154L8.86186 16.8009C9.0463 16.8696 9.04633 17.1308 8.86186 17.1994L7.0103 17.8839C6.95214 17.9055 6.90585 17.9518 6.88433 18.0099L6.19976 19.8615C6.13132 20.0464 5.86992 20.0462 5.80132 19.8615L5.11577 18.0099C5.09427 17.9519 5.04878 17.9055 4.99077 17.8839L3.13921 17.1994C2.95421 17.1309 2.95421 16.8694 3.13921 16.8009L4.99077 16.1154C5.04861 16.0938 5.09429 16.0483 5.11577 15.9904L5.80132 14.1388ZM10.2076 7.79313L8.79351 9.20719L6.29351 6.70719L7.70757 5.29313L10.2076 7.79313ZM1.76909 5.16129C1.84846 4.94681 2.15164 4.94681 2.23101 5.16129L2.62651 6.22867C2.65151 6.29598 2.70468 6.34926 2.77202 6.37418L3.8394 6.76871C4.05388 6.84808 4.05388 7.15224 3.8394 7.2316L2.77202 7.62613C2.70464 7.65107 2.65149 7.70428 2.62651 7.77164L2.23101 8.83902C2.15164 9.0535 1.84846 9.0535 1.76909 8.83902L1.37456 7.77164C1.34961 7.70421 1.29551 7.65109 1.22808 7.62613L0.160693 7.2316C-0.0535797 7.15218 -0.0535487 6.84817 0.160693 6.76871L1.22808 6.37418C1.2955 6.34923 1.3496 6.29609 1.37456 6.22867L1.76909 5.16129ZM11.2681 0.16129C11.3477 -0.05379 11.6523 -0.0537366 11.732 0.16129L12.2613 1.59293C12.2863 1.66052 12.3402 1.71342 12.4078 1.73844L13.8384 2.26871C14.0535 2.34831 14.0535 2.65201 13.8384 2.7316L12.4078 3.26188C12.3401 3.2869 12.2863 3.33975 12.2613 3.40738L11.732 4.83902C11.6523 5.05388 11.3478 5.05394 11.2681 4.83902L10.7388 3.40738C10.7139 3.33995 10.6607 3.28698 10.5933 3.26188L9.16167 2.7316C8.94656 2.65201 8.94656 2.34831 9.16167 2.26871L10.5933 1.73844C10.6606 1.71335 10.7138 1.66032 10.7388 1.59293L11.2681 0.16129Z" fill="currentColor" />

</g>
</svg>
