<svg viewBox="0 0 24 24" fill="none" xmlns="http://www.w3.org/2000/svg">
<g transform="translate(0.5527, 3.5000)">
<path d="M21.8945 0C22.2411 3.59879e-05 22.5629 0.179822 22.7451 0.474609C22.9272 0.769368 22.944 1.13738 22.7891 1.44727L20.8945 5.23633V16C20.8945 16.5523 20.4468 16.9999 19.8945 17H2.89453C2.34225 17 1.89453 16.5523 1.89453 16V5.23633L0 1.44727L1.78906 0.552734L3.5127 4H8.27637L10 0.552734L10.0713 0.431641C10.2562 0.163704 10.5631 0 10.8945 0H21.8945ZM3.89453 15H7.89453V6H3.89453V15ZM9.89453 15H18.8945V6H9.89453V15ZM10.5127 4H19.2764L20.2764 2H11.5127L10.5127 4Z" fill="currentColor" />

</g>
</svg>
