<svg viewBox="0 0 24 24" fill="none" xmlns="http://www.w3.org/2000/svg">
<g transform="translate(1.8572, 2.2385)">
<path d="M17.9873 0.00772473C18.2517 -0.025321 18.5188 0.0485131 18.7285 0.212803C18.938 0.377075 19.0733 0.618343 19.1045 0.882725V0.884678C19.1047 0.885964 19.1052 0.888379 19.1055 0.890537C19.1061 0.895408 19.1073 0.902945 19.1084 0.912022C19.1106 0.931061 19.1139 0.959544 19.1182 0.996006C19.1268 1.06995 19.1392 1.17928 19.1553 1.31827C19.1875 1.59703 19.234 1.99934 19.2891 2.49015C19.3993 3.47205 19.5463 4.81409 19.6934 6.25089C19.9849 9.09938 20.2851 12.4018 20.2852 13.9833C20.2849 16.245 18.3983 18.0223 16.1426 18.0224C13.8868 18.0224 12.0003 16.245 12 13.9833C12.0002 11.7216 13.8868 9.94522 16.1426 9.94522C16.8533 9.94524 17.5078 10.1321 18.0771 10.4482C17.9719 9.1859 17.8395 7.78689 17.7031 6.45401C17.5569 5.02542 17.4105 3.6904 17.3008 2.7128C17.2764 2.4958 17.2537 2.29596 17.2334 2.1171L7.21777 3.36905C7.23889 3.5545 7.26358 3.76311 7.28906 3.99015C7.39929 4.97206 7.54631 6.31407 7.69336 7.75089C7.9849 10.5997 8.28516 13.9029 8.28516 15.4843L8.2793 15.6942C8.16633 17.8547 6.32785 19.5223 4.14258 19.5224C1.88697 19.5224 0.000540834 17.7457 0 15.4843C0 13.2224 1.88665 11.4452 4.14258 11.4452C4.83602 11.4452 5.49465 11.6128 6.07422 11.911C5.96943 10.6585 5.8382 9.27384 5.70312 7.95401C5.55692 6.52544 5.41053 5.1904 5.30078 4.2128C5.24595 3.72441 5.20092 3.32468 5.16895 3.04776C5.153 2.90969 5.14038 2.80157 5.13184 2.72843C5.12762 2.69233 5.12427 2.66413 5.12207 2.64542C5.12101 2.63637 5.11972 2.62865 5.11914 2.62394C5.11893 2.62213 5.11915 2.62015 5.11914 2.61905L5.11816 2.6171C5.05382 2.07144 5.44217 1.57606 5.9873 1.50772L17.9873 0.00772473ZM4.14258 13.4452C2.92743 13.4452 2 14.3897 2 15.4843C2.00055 16.5785 2.92779 17.5224 4.14258 17.5224C5.35731 17.5223 6.28461 16.5785 6.28516 15.4843C6.28516 14.3897 5.35767 13.4453 4.14258 13.4452ZM16.1426 11.9452C14.9276 11.9452 14.0003 12.8889 14 13.9833C14.0003 15.0777 14.9276 16.0224 16.1426 16.0224C17.3493 16.0223 18.2706 15.0908 18.2832 14.0058C18.2252 12.9718 17.2798 11.9453 16.1426 11.9452Z" fill="currentColor" />

</g>
</svg>
