<svg viewBox="0 0 24 24" fill="none" xmlns="http://www.w3.org/2000/svg">
<g transform="translate(2.0000, 2.0000)">
<path d="M7 0C10.5483 2.99312e-06 13.4777 2.64044 13.9355 6.06348C17.3591 6.52083 20 9.4513 20 13C20 16.866 16.866 20 13 20C9.4513 20 6.52083 17.3591 6.06348 13.9355C2.64044 13.4777 2.75737e-07 10.5483 0 7C-1.38357e-07 3.13401 3.13401 3.76648e-07 7 0ZM13.915 8.08496C13.4486 11.082 11.082 13.4486 8.08496 13.915C8.51495 16.2393 10.5512 18 13 18C15.7614 18 18 15.7614 18 13C18 10.5512 16.2393 8.51495 13.915 8.08496ZM7 2C4.23858 2 2 4.23858 2 7C2 9.4484 3.76023 11.4836 6.08398 11.9141C6.55068 8.9177 8.9177 6.55068 11.9141 6.08398C11.4836 3.76023 9.4484 2 7 2ZM11.8701 8.12891C10.0161 8.55723 8.55723 10.0161 8.12891 11.8701C9.98349 11.4419 11.4419 9.98349 11.8701 8.12891Z" fill="currentColor" />

</g>
</svg>
