<svg viewBox="0 0 24 24" fill="none" xmlns="http://www.w3.org/2000/svg">
<g transform="translate(2.5004, 2.5003)">
<path d="M9 3.00007H2V17.0001H16V10.0001H18V17.0001C18 18.1046 17.1046 19.0001 16 19.0001H2C0.895431 19.0001 0 18.1046 0 17.0001V3.00007C6.82879e-05 1.89556 0.895473 1.00007 2 1.00007H9V3.00007ZM14.7529 0.222727C15.1451 -0.095481 15.7222 -0.0727484 16.0879 0.291086L18.7051 2.89655C18.8931 3.0837 18.9994 3.33829 19 3.60359C19.0004 3.86869 18.8951 4.1228 18.708 4.31062L12.8857 10.1534C12.5435 10.4968 12.1227 10.7521 11.6602 10.8975L8.2998 11.9542C7.94533 12.0656 7.55837 11.9711 7.29492 11.7091C7.03154 11.4469 6.93528 11.0602 7.04492 10.7051L8.08105 7.34968C8.22587 6.88126 8.48356 6.45534 8.83105 6.10945L14.6768 0.291086L14.7529 0.222727ZM10.2422 7.52741C10.1264 7.64268 10.0404 7.78444 9.99219 7.9405L9.51758 9.4737L11.0605 8.98933C11.2146 8.94085 11.3547 8.85569 11.4688 8.74128L16.585 3.60749L15.3818 2.41023L10.2422 7.52741Z" fill="currentColor" />

</g>
</svg>
