<svg viewBox="0 0 24 24" fill="none" xmlns="http://www.w3.org/2000/svg">
<g transform="translate(0.5000, 3.6465)">
<path d="M16.207 8.70688L12.9141 11.9998L16.207 15.2928L14.793 16.7069L11.5 13.4139L8.20703 16.7069L6.79297 15.2928L10.0859 11.9998L6.79297 8.70688L8.20703 7.29282L11.5 10.5858L14.793 7.29282L16.207 8.70688ZM4.0752 3.92172L4.76562 4.64536C3.0497 6.28133 2 8.52748 2 10.9998H0C5.67073e-08 7.94354 1.30144 5.18427 3.38574 3.19711L4.0752 3.92172ZM19.6143 3.19711C21.6986 5.18427 23 7.94354 23 10.9998H21C21 8.52748 19.9503 6.28133 18.2344 4.64536L18.9248 3.92172L19.6143 3.19711ZM5.7666 1.45297C9.27934 -0.484325 13.7207 -0.484325 17.2334 1.45297L16.75 2.32895L16.2666 3.20395C13.3553 1.59855 9.6447 1.59855 6.7334 3.20395L6.25 2.32895L5.7666 1.45297Z" fill="currentColor" />

</g>
</svg>
