<svg viewBox="0 0 24 24" fill="none" xmlns="http://www.w3.org/2000/svg">
<g transform="translate(2.9998, 3.4997)">
<path d="M12.3992 0.209822C12.7876 -0.0923124 13.3468 -0.0678084 13.7078 0.281111L17.2693 3.72349C17.4653 3.91301 17.5752 4.17446 17.574 4.44713C17.5727 4.7198 17.4602 4.98013 17.2625 5.16783L7.18823 14.7254C7.08874 14.8198 6.97043 14.8924 6.84155 14.9393L6.67554 14.9999H17.9998V16.9999H0.999758C0.673573 16.9999 0.367573 16.8403 0.180422 16.5731C-0.0064716 16.306 -0.0511169 15.9645 0.0603049 15.6581L2.0603 10.1581L2.1062 10.0516C2.15801 9.94835 2.22705 9.8542 2.31128 9.77427L12.324 0.274275L12.3992 0.209822ZM3.85816 11.0633L2.67066 14.328L5.9607 13.1317L15.1277 4.43541L13.0056 2.38365L3.85816 11.0633Z" fill="currentColor" />

</g>
</svg>
