<svg viewBox="0 0 24 24" fill="none" xmlns="http://www.w3.org/2000/svg">
<g transform="translate(3.4997, 1.6872)">
<path d="M12.207 19.207C11.2271 20.187 9.82347 20.625 8.49999 20.625C7.17652 20.625 5.77294 20.187 4.79296 19.207L6.20703 17.793C6.72705 18.313 7.57348 18.625 8.49999 18.625C9.42651 18.625 10.2729 18.313 10.793 17.793L12.207 19.207ZM8.49999 0C11.5235 0.000119916 14.1373 2.11077 14.7744 5.06641L16.9775 15.2891C17.0412 15.5844 16.968 15.8928 16.7783 16.1279C16.5885 16.3631 16.3022 16.5 16 16.5H0.999994C0.697803 16.5 0.411519 16.363 0.221674 16.1279C0.0320238 15.8929 -0.0411737 15.5843 0.0224552 15.2891L2.22558 5.06641C2.86254 2.11055 5.47628 4.16048e-06 8.49999 0ZM8.49999 2C6.41859 2 4.61925 3.45267 4.18066 5.4873L2.23828 14.5H14.7617L12.8193 5.4873C12.3808 3.45269 10.5813 2.00012 8.49999 2Z" fill="currentColor" />

</g>
</svg>
