<svg viewBox="0 0 24 24" fill="none" xmlns="http://www.w3.org/2000/svg">
<g transform="translate(4.5870, 2.1873)">
<path d="M11.1204 18.207C10.1405 19.1869 8.73676 19.625 7.41334 19.625C6.08991 19.625 4.68628 19.1869 3.70631 18.207L5.12037 16.793C5.64041 17.3129 6.48689 17.625 7.41334 17.625C8.33977 17.625 9.18633 17.313 9.70631 16.793L11.1204 18.207ZM7.41334 0C9.96165 0.000223867 12.1601 1.78842 12.6799 4.2832L14.8176 14.542C14.8667 14.7783 14.6859 15 14.4446 15H0.381115C0.139812 15 -0.0409761 14.7782 0.00806802 14.542L2.14576 4.2832C2.66551 1.78816 4.86473 0 7.41334 0Z" fill="currentColor" />

</g>
</svg>
