<svg viewBox="0 0 24 24" fill="none" xmlns="http://www.w3.org/2000/svg">
<g transform="translate(4.0000, 4.0000)">
<path d="M1.77734 12.4443C2.75918 12.4443 3.55566 13.2408 3.55566 14.2227C3.55543 15.2043 2.75904 16 1.77734 16C0.795848 15.9998 0.000234369 15.2042 0 14.2227C0 13.241 0.795704 12.4446 1.77734 12.4443ZM8 12.4443C8.98184 12.4443 9.77734 13.2408 9.77734 14.2227C9.77711 15.2043 8.98169 16 8 16C7.01831 16 6.22289 15.2043 6.22266 14.2227C6.22266 13.2408 7.01816 12.4443 8 12.4443ZM14.2227 12.4443C15.2043 12.4446 16 13.241 16 14.2227C15.9998 15.2042 15.2042 15.9998 14.2227 16C13.241 16 12.4446 15.2043 12.4443 14.2227C12.4443 13.2408 13.2408 12.4443 14.2227 12.4443ZM1.77734 6.22266C2.75918 6.22266 3.55566 7.01816 3.55566 8C3.55566 8.98184 2.75918 9.77734 1.77734 9.77734C0.795704 9.77711 0 8.98169 0 8C6.4416e-08 7.01831 0.795704 6.22289 1.77734 6.22266ZM8 6.22266C8.98184 6.22266 9.77734 7.01816 9.77734 8C9.77734 8.98184 8.98184 9.77734 8 9.77734C7.01816 9.77734 6.22266 8.98184 6.22266 8C6.22266 7.01816 7.01816 6.22266 8 6.22266ZM14.2227 6.22266C15.2043 6.22289 16 7.01831 16 8C16 8.98169 15.2043 9.77711 14.2227 9.77734C13.2408 9.77734 12.4443 8.98184 12.4443 8C12.4443 7.01816 13.2408 6.22266 14.2227 6.22266ZM1.77734 0C2.75904 0 3.55543 0.795704 3.55566 1.77734C3.55566 2.75918 2.75918 3.55566 1.77734 3.55566C0.795704 3.55543 0 2.75904 0 1.77734C0.000234497 0.795848 0.795848 0.000234497 1.77734 0ZM8 0C8.98169 0 9.77711 0.795704 9.77734 1.77734C9.77734 2.75918 8.98184 3.55566 8 3.55566C7.01816 3.55566 6.22266 2.75918 6.22266 1.77734C6.22289 0.795704 7.01831 6.44171e-08 8 0ZM14.2227 0C15.2042 0.000234369 15.9998 0.795848 16 1.77734C16 2.75904 15.2043 3.55543 14.2227 3.55566C13.2408 3.55566 12.4443 2.75918 12.4443 1.77734C12.4446 0.795704 13.241 0 14.2227 0Z" fill="currentColor" />

</g>
</svg>
