<svg viewBox="0 0 24 24" fill="none" xmlns="http://www.w3.org/2000/svg">
<g transform="translate(2.4997, 1.7497)">
<path d="M2 11.5C2.00001 12.6046 2.89544 13.5 4 13.5H15C16.1046 13.5 17 12.6046 17 11.5V10.5H19V11.5C19 13.7091 17.2091 15.5 15 15.5H10.5V17.5H11.5C13.1568 17.5 14.5 18.8432 14.5 20.5H12.5C12.5 19.9477 12.0523 19.5 11.5 19.5H7.5C6.94772 19.5 6.5 19.9477 6.5 20.5H4.5C4.5 18.8431 5.84315 17.5 7.5 17.5H8.5V15.5H4C1.79086 15.5 7.21563e-06 13.7091 0 11.5V10.5H2V11.5ZM11.6992 0C13.2343 0 14.5217 1.15892 14.6826 2.68555L15.4941 10.3955C15.5238 10.6773 15.4327 10.9583 15.2432 11.1689C15.0535 11.3796 14.7834 11.5 14.5 11.5H4.5C4.21659 11.5 3.94646 11.3796 3.75684 11.1689C3.56728 10.9583 3.47624 10.6773 3.50586 10.3955L4.31738 2.68555C4.4783 1.15894 5.76568 3.07182e-05 7.30078 0H11.6992ZM7.30078 2C6.78905 2.00003 6.35923 2.38658 6.30566 2.89551L5.61035 9.5H13.3887L12.6943 2.89551C12.6408 2.38657 12.211 2 11.6992 2H7.30078Z" fill="currentColor" />

</g>
</svg>
