<svg viewBox="0 0 24 24" fill="none" xmlns="http://www.w3.org/2000/svg">
<g transform="translate(2.0000, 2.0000)">
<path d="M2 10C2 14.4183 5.58172 18 10 18V20C4.47715 20 0 15.5228 0 10H2ZM19.6592 12.5879C18.7191 16.0962 16.0253 18.6654 12.7783 19.6074L12.5 18.6475L12.2217 17.6865C14.8243 16.9312 16.9761 14.8747 17.7275 12.0703L19.6592 12.5879ZM15.2617 7.14746L9.7373 13.6475C9.5473 13.871 9.26798 14 8.97461 14C8.68138 13.9999 8.40281 13.8709 8.21289 13.6475L5.23828 10.1475L6.76172 8.85254L8.97461 11.4551L13.7383 5.85254L15.2617 7.14746ZM10 0C15.5228 0 20 4.47716 20 10H18C18 5.58173 14.4183 2 10 2V0ZM7.5 1.35254L7.77832 2.31348C5.17567 3.06875 3.02391 5.12525 2.27246 7.92969L0.34082 7.41211C1.28086 3.90384 3.97475 1.33465 7.22168 0.392578L7.5 1.35254Z" fill="currentColor" />

</g>
</svg>
