<svg viewBox="0 0 24 24" fill="none" xmlns="http://www.w3.org/2000/svg">
<g transform="translate(0.5527, 2.1465)">
<path d="M18.3633 8.00586C20.6088 8.11977 22.3945 9.9762 22.3945 12.25C22.3945 14.5972 20.4917 16.4999 18.1445 16.5H11.8086L13.6016 18.293L12.1875 19.707L8.6875 16.207C8.49997 16.0195 8.39453 15.7652 8.39453 15.5C8.39453 15.2348 8.49996 14.9805 8.6875 14.793L12.1875 11.293L13.6016 12.707L11.8086 14.5H18.1445C19.3871 14.4999 20.3945 13.4926 20.3945 12.25C20.3945 11.0852 19.5093 10.1272 18.375 10.0117L18.1445 10H16.8945V8H18.1445L18.3633 8.00586ZM21.8945 0C22.2411 3.59879e-05 22.5629 0.179822 22.7451 0.474609C22.9272 0.769368 22.944 1.13738 22.7891 1.44727L20.7891 5.44727C20.6197 5.78602 20.2733 5.99996 19.8945 6H9.89453V11H7.89453V6H3.89453V15H6.39453V17H2.89453C2.34225 17 1.89453 16.5523 1.89453 16V5.23633L0 1.44727L1.78906 0.552734L3.5127 4H8.27637L10 0.552734L10.0713 0.431641C10.2562 0.163704 10.5631 0 10.8945 0H21.8945ZM10.5127 4H19.2764L20.2764 2H11.5127L10.5127 4Z" fill="currentColor" />

</g>
</svg>
