<svg viewBox="0 0 24 24" fill="none" xmlns="http://www.w3.org/2000/svg">
<g transform="translate(0.5527, 2.7501)">
<path d="M17.8945 8.5C18.9554 8.50003 19.9725 8.92186 20.7227 9.67188C21.4727 10.4219 21.8945 11.5106 21.8945 12.5713C21.8945 14.5663 19.177 17.4212 18.2217 18.3633C18.0371 18.5453 17.7519 18.5453 17.5674 18.3633C16.6122 17.4213 13.8946 14.5663 13.8945 12.5713C13.8945 11.5106 14.3163 10.4219 15.0664 9.67188C15.8166 8.92183 16.8337 8.5 17.8945 8.5ZM21.8945 0C22.2411 3.59879e-05 22.5629 0.179822 22.7451 0.474609C22.9272 0.769368 22.944 1.13738 22.7891 1.44727L20.8945 5.23633V7H18.8945V6H9.89453V15H12.3945V17H2.89453C2.34225 17 1.89453 16.5523 1.89453 16V5.23633L0 1.44727L1.78906 0.552734L3.5127 4H8.27637L10 0.552734L10.0713 0.431641C10.2562 0.163704 10.5631 0 10.8945 0H21.8945ZM3.89453 15H7.89453V6H3.89453V15ZM17.8945 11C17.0661 11 16.3945 11.6716 16.3945 12.5C16.3945 13.3284 17.0661 14 17.8945 14C18.7229 14 19.3945 13.3284 19.3945 12.5C19.3945 11.6716 18.7229 11 17.8945 11ZM10.5127 4H19.2764L20.2764 2H11.5127L10.5127 4Z" fill="currentColor" />

</g>
</svg>
