<svg viewBox="0 0 24 24" fill="none" xmlns="http://www.w3.org/2000/svg">
<g transform="translate(2.3969, 2.3970)">
<path d="M9.81836 1.61081C11.9662 -0.536961 15.4478 -0.536911 17.5957 1.61081C19.7436 3.75867 19.7435 7.24026 17.5957 9.38815C15.6892 11.2947 12.7327 11.5078 10.5898 10.0298L7.62012 12.9985L10.4141 15.7924L9 17.2065L6.20605 14.4126L4.62012 15.9985L6.41406 17.7924L5 19.2065L3.20605 17.4126L1.41406 19.2065L0 17.7924L9.17578 8.61569C7.69871 6.47297 7.91222 3.51695 9.81836 1.61081ZM16.1816 3.02487C14.8148 1.6582 12.5992 1.65815 11.2324 3.02487C9.86563 4.39166 9.86573 6.60724 11.2324 7.97409C12.5993 9.34092 14.8148 9.34092 16.1816 7.97409C17.5484 6.60725 17.5485 4.39168 16.1816 3.02487Z" fill="currentColor" />

</g>
</svg>
