<svg viewBox="0 0 24 24" fill="none" xmlns="http://www.w3.org/2000/svg">
<g transform="translate(1.4598, 4.5002)">
<path d="M21.0811 15H19.0811V0H21.0811V15ZM5.08105 5.55664L7 4.18652L8.16211 5.81348L5.7998 7.49902L8.16211 9.18652L7 10.8135L5.08105 9.44238V11.5H3.08105V9.44238L1.16211 10.8135L0 9.18652L2.36035 7.49902L0 5.81348L1.16211 4.18652L3.08105 5.55664V3.5H5.08105V5.55664ZM14.0811 5.55664L16 4.18652L17.1621 5.81348L14.7998 7.49902L17.1621 9.18652L16 10.8135L14.0811 9.44238V11.5H12.0811V9.44238L10.1621 10.8135L9 9.18652L11.3604 7.49902L9 5.81348L10.1621 4.18652L12.0811 5.55664V3.5H14.0811V5.55664Z" fill="currentColor" />

</g>
</svg>
