<svg viewBox="0 0 24 24" fill="none" xmlns="http://www.w3.org/2000/svg">
<g transform="translate(2.9998, 2.9998)">
<path d="M3.5 11C5.433 11 7 12.567 7 14.5C7 16.433 5.433 18 3.5 18C1.567 18 0 16.433 0 14.5C0 12.567 1.567 11 3.5 11ZM14.5 11C16.433 11 18 12.567 18 14.5C18 16.433 16.433 18 14.5 18C12.567 18 11 16.433 11 14.5C11 12.567 12.567 11 14.5 11ZM3.5 13C2.67157 13 2 13.6716 2 14.5C2 15.3284 2.67157 16 3.5 16C4.32843 16 5 15.3284 5 14.5C5 13.6716 4.32843 13 3.5 13ZM14.5 13C13.6716 13 13 13.6716 13 14.5C13 15.3284 13.6716 16 14.5 16C15.3284 16 16 15.3284 16 14.5C16 13.6716 15.3284 13 14.5 13ZM3.5 0C5.433 0 7 1.567 7 3.5C7 5.433 5.433 7 3.5 7C1.567 7 0 5.433 0 3.5C0 1.567 1.567 0 3.5 0ZM14.5 0C16.433 0 18 1.567 18 3.5C18 5.433 16.433 7 14.5 7C12.567 7 11 5.433 11 3.5C11 1.567 12.567 0 14.5 0ZM14.5 2C13.6716 2 13 2.67157 13 3.5C13 4.32843 13.6716 5 14.5 5C15.3284 5 16 4.32843 16 3.5C16 2.67157 15.3284 2 14.5 2Z" fill="currentColor" />

</g>
</svg>
