<svg viewBox="0 0 24 24" fill="none" xmlns="http://www.w3.org/2000/svg">
<g transform="translate(1.5004, 2.7718)">
<path d="M15.9502 1.68848C17.2785 1.62198 19.015 1.74283 20.5146 2.64258C20.8156 2.82329 20.9999 3.14892 21 3.5V16.5C20.9999 16.8453 20.8215 17.1662 20.5283 17.3486C20.2348 17.5311 19.8675 17.5493 19.5576 17.3965C16.7156 15.9937 13.974 16.6822 10.7949 17.5049C7.71407 18.3022 4.21477 19.2246 0.552734 17.3936C0.21426 17.2242 0.00016418 16.8785 0 16.5V3.5C8.04505e-05 3.15351 0.179859 2.83158 0.474609 2.64941C0.769361 2.46735 1.13737 2.45056 1.44727 2.60547C2.32272 3.04316 3.66273 3.28267 4.94336 3.39941C6.19089 3.51313 7.24599 3.5 7.5 3.5V5.5C7.25401 5.5 6.11247 5.51376 4.76172 5.39062C3.91433 5.31338 2.92547 5.17736 2 4.92676V15.8564C4.70617 16.971 7.32964 16.3365 10.2939 15.5693C12.9501 14.882 15.912 14.0772 19 15.0293V4.11133C18.0935 3.72258 17.039 3.63699 16.0498 3.68652C15.4765 3.71525 14.9542 3.78697 14.5342 3.85449C14.3084 3.8908 14.1562 3.91867 13.9824 3.94727C13.8608 3.96727 13.6617 4 13.5 4V2C13.4631 2 13.4829 2.00248 13.6582 1.97363C13.7812 1.95338 14.0044 1.91388 14.2158 1.87988C14.6707 1.80674 15.2738 1.72234 15.9502 1.68848ZM11.5 0V10.0859L14.293 7.29297L15.707 8.70703L11.207 13.207C11.0195 13.3946 10.7652 13.5 10.5 13.5C10.2679 13.5 10.0442 13.4193 9.86621 13.2734L9.79297 13.207L5.29297 8.70703L6.70703 7.29297L9.5 10.0859V0H11.5Z" fill="currentColor" />

</g>
</svg>
