<svg viewBox="0 0 24 24" fill="none" xmlns="http://www.w3.org/2000/svg">
<g transform="translate(2.0000, 2.0000)">
<path d="M10 0C15.5228 0 20 4.47715 20 10C20 15.5228 15.5228 20 10 20C4.47723 19.9999 3.29861e-05 15.5228 0 10C0 4.47719 4.47721 6.59735e-05 10 0ZM4.75 8.5C3.92161 8.50005 3.25 9.1716 3.25 10C3.25003 10.8284 3.92164 11.5 4.75 11.5C5.57841 11.5 6.24997 10.8284 6.25 10C6.25 9.17157 5.57843 8.5 4.75 8.5ZM10 8.5C9.17159 8.50002 8.5 9.17159 8.5 10C8.50008 10.8283 9.17164 11.5 10 11.5C10.8284 11.5 11.4999 10.8284 11.5 10C11.5 9.17157 10.8284 8.5 10 8.5ZM15.25 8.5C14.4216 8.50005 13.75 9.1716 13.75 10C13.75 10.8284 14.4216 11.5 15.25 11.5C16.0784 11.5 16.75 10.8284 16.75 10C16.75 9.17157 16.0784 8.5 15.25 8.5Z" fill="currentColor" />

</g>
</svg>
