<svg viewBox="0 0 24 24" fill="none" xmlns="http://www.w3.org/2000/svg">
<g transform="translate(2.5000, 0.9999)">
<path d="M13.1348 11.254C13.2605 10.9155 13.7396 10.9155 13.8653 11.254L15.1211 14.6486C15.1606 14.7552 15.245 14.8396 15.3516 14.879L18.7461 16.1349C19.0847 16.2606 19.0847 16.7396 18.7461 16.8653L15.3516 18.1212C15.245 18.1607 15.1606 18.245 15.1211 18.3517L13.8653 21.7462C13.7396 22.0848 13.2605 22.0848 13.1348 21.7462L11.8789 18.3517C11.8395 18.245 11.7551 18.1607 11.6485 18.1212L8.25393 16.8653C7.91536 16.7396 7.91536 16.2606 8.25393 16.1349L11.6485 14.879C11.7551 14.8396 11.8395 14.7552 11.8789 14.6486L13.1348 11.254ZM3.7344 4.68468C3.82585 4.43856 4.1742 4.43856 4.26565 4.68468L5.17873 7.15343C5.20743 7.23098 5.26915 7.29271 5.3467 7.3214L7.81545 8.23449C8.06158 8.32594 8.06158 8.67428 7.81545 8.76574L5.3467 9.67882C5.26915 9.70752 5.20743 9.76924 5.17873 9.84679L4.26565 12.3155C4.1742 12.5617 3.82585 12.5617 3.7344 12.3155L2.82131 9.84679C2.79262 9.76924 2.73089 9.70752 2.65334 9.67882L0.184594 8.76574C-0.0615316 8.67429 -0.0615313 8.32594 0.184594 8.23449L2.65334 7.3214C2.73089 7.29271 2.79262 7.23098 2.82131 7.15343L3.7344 4.68468ZM13.7217 0.193472C13.8173 -0.0644906 14.1828 -0.0644908 14.2783 0.193472L14.9141 1.91125C14.9441 1.99233 15.0078 2.05602 15.0889 2.08605L16.8067 2.72179C17.0646 2.81736 17.0646 3.18286 16.8067 3.27843L15.0889 3.91418C15.0078 3.94421 14.9441 4.00789 14.9141 4.08898L14.2783 5.80675C14.1828 6.06472 13.8173 6.06472 13.7217 5.80675L13.086 4.08898C13.0559 4.00789 12.9922 3.94421 12.9112 3.91418L11.1934 3.27843C10.9354 3.18286 10.9354 2.81736 11.1934 2.72179L12.9112 2.08605C12.9922 2.05602 13.0559 1.99233 13.086 1.91125L13.7217 0.193472Z" fill="currentColor" />

</g>
</svg>
