<svg viewBox="0 0 24 24" fill="none" xmlns="http://www.w3.org/2000/svg">
<g transform="translate(0.9999, 2.5000)">
<path d="M19 4.5C20.6569 4.5 22 5.84315 22 7.5V16C22 17.6569 20.6569 19 19 19H3C1.34315 19 0 17.6569 0 16V7.5C1.77173e-07 5.84315 1.34315 4.5 3 4.5H19ZM3 6.5C2.44772 6.5 2 6.94772 2 7.5V16C2 16.5523 2.44772 17 3 17H19C19.5523 17 20 16.5523 20 16V7.5C20 6.94772 19.5523 6.5 19 6.5H3ZM11 8.25C12.933 8.25 14.5 9.817 14.5 11.75C14.5 13.683 12.933 15.25 11 15.25C9.067 15.25 7.5 13.683 7.5 11.75C7.5 9.817 9.067 8.25 11 8.25ZM11 10.25C10.1716 10.25 9.5 10.9216 9.5 11.75C9.5 12.5784 10.1716 13.25 11 13.25C11.8284 13.25 12.5 12.5784 12.5 11.75C12.5 10.9216 11.8284 10.25 11 10.25ZM11 0C12.1728 0 13.075 0.294325 13.6973 0.605469C14.0067 0.760174 14.2447 0.918368 14.4121 1.04395C14.4957 1.10665 14.5624 1.16129 14.6113 1.2041C14.6356 1.22536 14.656 1.24395 14.6719 1.25879C14.6798 1.26622 14.6866 1.27368 14.6924 1.2793C14.6953 1.28211 14.6988 1.28477 14.7012 1.28711C14.7022 1.28812 14.7032 1.28912 14.7041 1.29004L14.7061 1.29102V1.29199L13.2939 2.70801L13.3047 2.71875C13.3047 2.71875 13.3012 2.71544 13.2949 2.70996C13.2814 2.69814 13.254 2.6744 13.2129 2.64355C13.1304 2.58165 12.9932 2.48978 12.8027 2.39453C12.425 2.20567 11.8272 2 11 2C10.1728 2 9.57498 2.20567 9.19727 2.39453C9.00677 2.48978 8.86965 2.58165 8.78711 2.64355C8.746 2.6744 8.71859 2.69814 8.70508 2.70996C8.69882 2.71544 8.69531 2.71875 8.69531 2.71875L8.70605 2.70801L7.29395 1.29199V1.29102L7.2959 1.29004C7.29682 1.28912 7.2978 1.28812 7.29883 1.28711C7.3012 1.28477 7.30471 1.28211 7.30762 1.2793C7.31342 1.27368 7.3202 1.26622 7.32812 1.25879C7.34396 1.24395 7.36438 1.22536 7.38867 1.2041C7.43761 1.16129 7.50429 1.10665 7.58789 1.04395C7.75534 0.918368 7.99332 0.760174 8.30273 0.605469C8.92502 0.294325 9.82724 0 11 0Z" fill="currentColor" />

</g>
</svg>
