<svg viewBox="0 0 24 24" fill="none" xmlns="http://www.w3.org/2000/svg">
<g transform="translate(0.8590, 2.9996)">
<path d="M15.1406 0C15.4668 0.000143441 15.7729 0.159551 15.96 0.426758L18.835 4.53418L21 2.73145L22.2812 4.26855L19.5586 6.53711L17.624 17.1787C17.5376 17.6541 17.1237 17.9998 16.6406 18H5.64062C5.15737 18 4.74371 17.6542 4.65723 17.1787L2.72168 6.53711L0 4.26855L1.28125 2.73145L3.44531 4.53418L6.32129 0.426758C6.50843 0.159556 6.8144 0 7.14062 0H15.1406ZM6.47461 16H15.8066L17.4434 7H4.83789L6.47461 16ZM5.56152 5H16.7197L14.6201 2H7.66113L5.56152 5Z" fill="currentColor" />

</g>
</svg>
