<svg viewBox="0 0 24 24" fill="none" xmlns="http://www.w3.org/2000/svg">
<g transform="translate(0.5000, 2.6938)">
<path d="M17.0673 1.22461C15.1378 3.71726 12.765 4.78703 9.91692 4.78711C7.16335 4.78711 4.87505 7.10302 4.87493 10.0303C4.87497 11.7266 5.38207 12.8929 6.17668 13.8799C6.66712 14.489 7.26827 15.032 7.96282 15.5889V15.3828C7.96282 14.8305 8.41053 14.3828 8.96282 14.3828H16.0488C16.601 14.3829 17.0488 14.8306 17.0488 15.3828V15.5781C18.4241 14.4499 19.406 13.3425 19.9257 11.5381L19.9843 11.3838C20.148 11.0404 20.4967 10.8145 20.8866 10.8145H20.9999V9.24609H20.8866C20.4411 9.24605 20.0491 8.95152 19.9257 8.52344C19.7297 7.84279 19.2683 7.03295 18.6044 6.4043C17.9475 5.7824 17.1519 5.38969 16.2763 5.38965V3.38965C17.7854 3.38969 19.0502 4.07238 19.9794 4.95215C20.6875 5.62262 21.2339 6.43941 21.5839 7.24609H21.9999C22.552 7.24617 22.9997 7.69407 22.9999 8.24609V11.8145C22.9998 12.3666 22.5521 12.8144 21.9999 12.8145H21.6073C20.5984 15.5018 18.6489 16.9151 16.6484 18.4131C16.3454 18.6398 15.9399 18.6761 15.6015 18.5068C15.263 18.3374 15.0488 17.9908 15.0488 17.6123V16.3828H9.96282V17.6123C9.96274 17.9908 9.7486 18.3374 9.41008 18.5068C9.07163 18.6761 8.66617 18.6398 8.36321 18.4131C7.0353 17.4188 5.64541 16.4107 4.61809 15.1348C3.72915 14.0306 3.11352 12.7333 2.93157 11.0771C2.13615 11.0287 1.42402 10.7586 0.882739 10.1914C0.132732 9.40519 -0.0610766 8.28086 0.0155514 7.15527L1.0136 7.22363L2.01067 7.29102C1.95102 8.16734 2.1399 8.61227 2.33 8.81152C2.42938 8.91545 2.60784 9.03188 2.9384 9.07227C3.39299 5.54772 6.31772 2.78711 9.91692 2.78711C12.1561 2.78704 13.9406 1.99556 15.4853 0L17.0673 1.22461ZM15.0136 8.6123H10.0136V6.6123H15.0136V8.6123Z" fill="currentColor" />

</g>
</svg>
