<svg viewBox="0 0 24 24" fill="none" xmlns="http://www.w3.org/2000/svg">
<g transform="translate(2.7348, 2.2928)">
<path d="M13.5153 15.5829L14.5085 15.705C14.3161 17.2699 13.2681 18.6763 11.6725 19.205C10.082 19.7319 8.41169 19.2324 7.33072 18.0937L8.0563 17.4052L8.78091 16.7167C9.36258 17.3294 10.2349 17.5744 11.0436 17.3065C11.8565 17.0371 12.4186 16.311 12.5231 15.4608L13.5153 15.5829ZM1.36099 11.1269L2.25162 11.5819C1.8703 12.328 1.91289 13.2745 2.44205 14.0116C3.17865 15.0376 4.54983 15.2432 5.5065 14.5292C6.32558 13.9176 6.61707 12.8016 6.23111 11.8378L7.15982 11.4657L8.08755 11.0937C8.79182 12.8521 8.28834 14.9484 6.70377 16.1317C4.82164 17.5371 2.18541 17.0843 0.817046 15.1786C-0.161104 13.816 -0.241452 12.065 0.471343 10.6708L1.36099 11.1269ZM14.2809 5.58291C16.628 5.5831 18.5309 7.48582 18.5309 9.83291C18.5307 12.1798 16.6278 14.0827 14.2809 14.0829C11.9339 14.0829 10.0312 12.1799 10.0309 9.83291C10.0309 7.48572 11.9337 5.58295 14.2809 5.58291ZM14.2809 7.58291C13.0383 7.58295 12.0309 8.59029 12.0309 9.83291C12.0312 11.0753 13.0385 12.0829 14.2809 12.0829C15.5232 12.0827 16.5307 11.0752 16.5309 9.83291C16.5309 8.59039 15.5234 7.5831 14.2809 7.58291ZM1.09439 3.45791C2.05917 2.08238 3.68652 1.47299 5.22916 1.75576L5.04947 2.73916L4.8688 3.72256C4.0724 3.57656 3.23411 3.88914 2.73111 4.60635C2.02006 5.62076 2.25264 7.05944 3.25943 7.80557C4.09952 8.42805 5.20106 8.362 5.94009 7.72744L7.24283 9.24502C5.80227 10.4818 3.66552 10.5967 2.06802 9.41299C0.195963 8.02553 -0.243502 5.36583 1.09439 3.45791ZM6.84927 2.96377C7.54087 0.719179 9.90381 -0.529001 12.1335 0.215725C13.7206 0.745891 14.7857 2.13658 15.0124 3.68936L14.0231 3.83389L13.0329 3.97842C12.9084 3.12584 12.327 2.38958 11.4997 2.11319C10.3576 1.73171 9.12835 2.35846 8.76041 3.55264C8.44622 4.57289 8.87156 5.66114 9.71841 6.20498L9.17837 7.04678L8.63736 7.8876C7.04701 6.86608 6.26677 4.85484 6.84927 2.96377Z" fill="currentColor" />

</g>
</svg>
