<svg viewBox="0 0 24 24" fill="none" xmlns="http://www.w3.org/2000/svg">
<g transform="translate(2.0000, 3.2500)">
<path d="M17 0C18.6569 0 20 1.34315 20 3V10.5C20 12.1569 18.6569 13.5 17 13.5H16.5V16.5C16.5 17.0523 16.0523 17.5 15.5 17.5H4.5C3.94772 17.5 3.5 17.0523 3.5 16.5V13.5H3C1.39489 13.5 0.0842144 12.2394 0.00390625 10.6543L0 10.5V3C1.12747e-07 1.34315 1.34315 8.0532e-09 3 0H17ZM5.5 10V15.5H14.5V10H5.5ZM3 2C2.44772 2 2 2.44772 2 3V10.5L2.00488 10.6025C2.05621 11.1067 2.48232 11.5 3 11.5H3.5V9C3.5 8.44772 3.94772 8 4.5 8H15.5C16.0523 8 16.5 8.44772 16.5 9V11.5H17C17.5523 11.5 18 11.0523 18 10.5V3C18 2.44772 17.5523 2 17 2H3ZM8 6H4V4H8V6Z" fill="currentColor" />

</g>
</svg>
