<svg viewBox="0 0 24 24" fill="none" xmlns="http://www.w3.org/2000/svg">
<g transform="translate(2.9998, 2.9998)">
<path d="M8 9C8.55228 9 8.99999 9.44773 9 10V17C9 17.2652 8.89457 17.5195 8.70703 17.707C8.5195 17.8946 8.26522 18 8 18H1C0.734784 18 0.480505 17.8946 0.292969 17.707C0.105435 17.5195 -1.58052e-08 17.2652 0 17V10C1.53227e-06 9.73479 0.105434 9.4805 0.292969 9.29297C0.480504 9.10544 0.734786 9 1 9H8ZM18 17C18 17.5523 17.5523 18 17 18H12V16H16V12H18V17ZM2 16H7V11H2V16ZM12.5 9C13.3284 9 14 9.67158 14 10.5C14 11.3284 13.3284 12 12.5 12C11.6716 12 11 11.3284 11 10.5C11 9.67157 11.6716 9 12.5 9ZM7.5 4C8.32843 4 9 4.67157 9 5.5C9 6.32843 8.32843 7 7.5 7C6.67157 7 6 6.32843 6 5.5C6 4.67157 6.67157 4 7.5 4ZM17 0C17.5523 9.20257e-07 18 0.447719 18 1V6C18 6.55228 17.5523 7 17 7H12C11.7348 7 11.4805 6.89457 11.293 6.70703C11.1054 6.5195 11 6.26522 11 6V1C11 0.734788 11.1054 0.480503 11.293 0.292969C11.4805 0.105435 11.7348 1.92297e-07 12 0H17ZM6 2H2V6H0V1C2.35201e-07 0.447715 0.447715 4.82823e-08 1 0H6V2ZM13 5H16V2H13V5Z" fill="currentColor" />

</g>
</svg>
