<svg viewBox="0 0 24 24" fill="none" xmlns="http://www.w3.org/2000/svg">
<g transform="translate(2.9998, 3.0001)">
<path d="M9.00013 0C9.3789 1.68403e-07 9.72526 0.213956 9.89466 0.552734L17.8947 16.5527C18.0908 16.945 18.0084 17.4195 17.6915 17.7227C17.3744 18.0258 16.896 18.0867 16.5128 17.873L9.00013 13.6836L1.48743 17.873C1.10425 18.0867 0.625867 18.0258 0.308721 17.7227C-0.00815063 17.4195 -0.09054 16.945 0.105596 16.5527L8.1056 0.552734L8.17688 0.431641C8.36181 0.163682 8.66868 8.249e-06 9.00013 0ZM3.34388 14.5469L8.51282 11.665C8.81558 11.4962 9.18467 11.4962 9.48743 11.665L14.6554 14.5469L9.00013 3.23633L3.34388 14.5469Z" fill="currentColor" />

</g>
</svg>
