<svg viewBox="0 0 24 24" fill="none" xmlns="http://www.w3.org/2000/svg">
<g transform="translate(3.5000, 1.8964)">
<path d="M14.707 3.5C14.8945 3.68752 15 3.94185 15 4.20703C15 4.4722 14.8945 4.72654 14.707 4.91406L11.207 8.41406L9.79297 7L11.5859 5.20703H8.5C4.91019 5.20703 2.00006 8.11723 2 11.707C2 15.2969 4.91017 18.207 8.5 18.207C12.0898 18.207 15 15.2969 15 11.707H17C17 16.4014 13.1944 20.207 8.5 20.207C3.80559 20.207 0 16.4014 0 11.707C5.99799e-05 7.01266 3.80561 3.20703 8.5 3.20703H11.5859L9.79297 1.41406L11.207 0L14.707 3.5Z" fill="currentColor" />

</g>
</svg>
