<svg viewBox="0 0 24 24" fill="none" xmlns="http://www.w3.org/2000/svg">
<g transform="translate(2.0000, 2.0000)">
<path d="M10 0C15.5228 0 20 4.47715 20 10C20 15.5228 15.5228 20 10 20C4.47715 20 1.28852e-07 15.5228 0 10C0 4.47715 4.47715 4.7675e-07 10 0ZM10 14C9.14495 14 8.29365 14.0305 7.46387 14.0898C7.62897 14.7672 7.83584 15.3975 8.08496 15.958C8.82376 17.6203 9.59752 18 10 18C10.4025 18 11.1762 17.6203 11.915 15.958C12.1641 15.3975 12.3701 14.7671 12.5352 14.0898C11.7057 14.0306 10.8547 14 10 14ZM5.45801 14.2969C4.76953 14.3914 4.10922 14.5079 3.48926 14.6465C4.25003 15.7106 5.26471 16.5793 6.44531 17.166C6.38075 17.0368 6.31764 16.9051 6.25781 16.7705C5.92252 16.0161 5.65736 15.1796 5.45801 14.2969ZM14.541 14.2969C14.3417 15.1796 14.0775 16.0162 13.7422 16.7705C13.6823 16.9053 13.6183 17.0366 13.5537 17.166C14.7345 16.5793 15.7489 15.7106 16.5098 14.6465C15.8898 14.508 15.2295 14.3913 14.541 14.2969ZM2.51367 7.17676C2.18238 8.0548 2 9.00602 2 10C2 10.9937 2.18258 11.9445 2.51367 12.8223C3.33144 12.6168 4.21135 12.45 5.12891 12.3223C5.04294 11.5557 5 10.7751 5 10C5 9.22456 5.04287 8.44361 5.12891 7.67676C4.21131 7.54903 3.33146 7.38225 2.51367 7.17676ZM17.4854 7.17676C16.6675 7.38221 15.7877 7.54906 14.8701 7.67676C14.9562 8.44364 15 9.22452 15 10C15 10.7752 14.9561 11.5557 14.8701 12.3223C15.7877 12.45 16.6676 12.6168 17.4854 12.8223C17.8165 11.9444 18 10.9938 18 10C18 9.0059 17.8167 8.05489 17.4854 7.17676ZM12.8818 7.88965C11.9329 7.96289 10.9643 8 10 8C9.03538 8 8.06646 7.96294 7.11719 7.88965C7.03982 8.57609 7 9.28526 7 10C7 10.7144 7.03989 11.4232 7.11719 12.1094C8.06644 12.0361 9.0354 12 10 12C10.9643 12 11.9329 12.0361 12.8818 12.1094C12.9591 11.4232 13 10.7144 13 10C13 9.28522 12.9592 8.57612 12.8818 7.88965ZM10 2C9.59752 2 8.82376 2.3797 8.08496 4.04199C7.83595 4.60227 7.62893 5.23219 7.46387 5.90918C8.29367 5.96848 9.14493 6 10 6C10.8547 6 11.7057 5.96844 12.5352 5.90918C12.3701 5.23228 12.164 4.60221 11.915 4.04199C11.1762 2.3797 10.4025 2 10 2ZM6.44531 2.83301C5.26478 3.41965 4.25006 4.28861 3.48926 5.35254C4.10924 5.4911 4.7695 5.60765 5.45801 5.70215C5.65733 4.81973 5.92264 3.98364 6.25781 3.22949C6.31777 3.09461 6.38061 2.9625 6.44531 2.83301ZM13.5537 2.83301C13.6185 2.96263 13.6822 3.09448 13.7422 3.22949C14.0773 3.98358 14.3417 4.8198 14.541 5.70215C15.2295 5.60767 15.8898 5.49107 16.5098 5.35254C15.7488 4.28859 14.7344 3.41957 13.5537 2.83301Z" fill="currentColor" />

</g>
</svg>
