<svg viewBox="0 0 24 24" fill="none" xmlns="http://www.w3.org/2000/svg">
<g transform="translate(2.0000, 2.0000)">
<path d="M11 2.75391C14.2401 3.19691 16.8031 5.75986 17.2461 9H20V11H17.2461C16.8031 14.2401 14.2401 16.8021 11 17.2451V20H9V17.2451C5.75992 16.8021 3.1969 14.2401 2.75391 11H0V9H2.75391C3.19691 5.75986 5.75986 3.19691 9 2.75391V0H11V2.75391ZM10 4.68457C7.06417 4.68457 4.68457 7.06417 4.68457 10C4.68457 12.9358 7.06417 15.3154 10 15.3154C12.9358 15.3154 15.3154 12.9358 15.3154 10C15.3154 7.06417 12.9358 4.68457 10 4.68457ZM10 8C11.1046 8 12 8.89543 12 10C12 11.1046 11.1046 12 10 12C8.89543 12 8 11.1046 8 10C8 8.89543 8.89543 8 10 8Z" fill="currentColor" />

</g>
</svg>
