<svg viewBox="0 0 24 24" fill="none" xmlns="http://www.w3.org/2000/svg">
<g transform="translate(1.9994, 1.7497)">
<path d="M7.87815 0.00749169C8.18372 -0.030071 8.48955 0.0749465 8.70725 0.292648L18.7073 10.2926C18.9931 10.5786 19.0788 11.0089 18.924 11.3825C18.7692 11.7559 18.4045 11.9996 18.0002 11.9997H9.00022V13.9997H19.0002C19.3387 13.9997 19.6547 14.171 19.8391 14.4548C20.0233 14.7385 20.0517 15.0968 19.9143 15.4059L18.9699 17.53C18.1674 19.3354 16.3764 20.4996 14.4006 20.4997H5.59983C3.624 20.4997 1.83307 19.3354 1.03049 17.53L0.0861572 15.4059C-0.0512701 15.0967 -0.0229136 14.7385 0.161353 14.4548C0.34581 14.1709 0.661712 13.9997 1.00022 13.9997H7.00022V11.9997H2.00022C1.64021 11.9997 1.30771 11.8059 1.1301 11.4928C0.952629 11.1794 0.95754 10.7939 1.1428 10.485L7.1428 0.485031L7.20725 0.390304C7.36948 0.179163 7.61074 0.0404114 7.87815 0.00749169ZM2.85862 16.7184C3.34028 17.8014 4.41453 18.4997 5.59983 18.4997H14.4006C15.5859 18.4996 16.6602 17.8014 17.1418 16.7184L17.4612 15.9997H2.53928L2.85862 16.7184ZM3.76682 9.99968H15.5862L8.19846 2.61198L3.76682 9.99968Z" fill="currentColor" />

</g>
</svg>
