<svg viewBox="0 0 24 24" fill="none" xmlns="http://www.w3.org/2000/svg">
<g transform="translate(1.1462, 2.9997)">
<path d="M9.5 2H9C5.13402 2.00001 2.00001 5.13402 2 9V9.25C2 12.9779 5.02208 16 8.75 16C12.4779 16 15.5 12.9779 15.5 9.25V3.91406L12.707 6.70703L11.293 5.29297L15.793 0.792969L15.8662 0.726562C16.0442 0.580727 16.2679 0.500005 16.5 0.5C16.7652 0.5 17.0195 0.605443 17.207 0.792969L21.707 5.29297L20.293 6.70703L17.5 3.91406V9.25C17.5 14.0825 13.5825 18 8.75 18C3.91751 18 0 14.0825 0 9.25V9C1.152e-05 4.1847 3.78168 0.252647 8.53711 0.0117188L9 0H9.5V2Z" fill="currentColor" />

</g>
</svg>
