<svg viewBox="0 0 24 24" fill="none" xmlns="http://www.w3.org/2000/svg">
<g transform="translate(3.0002, 2.4199)">
<path d="M14.7578 0.02983C15.0564 -0.044715 15.3726 0.022145 15.6152 0.211471C15.8579 0.400916 15.9999 0.691732 16 0.999557C16 4.96441 12.9421 7.449 10 7.91753V13.9478C11.8151 11.4672 14.6436 9.99956 18 9.99956V11.9996C13.864 11.9996 10.7122 14.7211 9.9873 19.1607H8.0127C7.28764 14.7211 4.136 11.9996 0 11.9996V9.99956C3.3565 9.99956 6.18492 11.4672 8 13.9478V7.91753C5.05788 7.44902 2 4.96442 2 0.999557C2.00009 0.691732 2.14213 0.400916 2.38477 0.211471C2.62737 0.022145 2.94362 -0.044715 3.24219 0.02983C7.08295 0.99002 10.9171 0.99002 14.7578 0.02983ZM13.8359 2.27983C10.6126 2.90384 7.38645 2.90397 4.16309 2.27983C4.77615 4.61695 7.01885 5.99956 9 5.99956C10.9811 5.99955 13.2228 4.61679 13.8359 2.27983Z" fill="currentColor" />

</g>
</svg>
