<svg viewBox="0 0 24 24" fill="none" xmlns="http://www.w3.org/2000/svg">
<g transform="translate(0.9999, 2.0836)">
<path d="M2.05163 4.53672C5.58359 -0.332523 12.4457 -1.45511 17.3837 2.01328C22.3309 5.48831 23.4868 12.2642 19.9481 17.1432C19.1613 18.2278 18.2068 19.1283 17.1454 19.8326L16.0399 18.1666C16.9064 17.5916 17.6853 16.8566 18.329 15.9693C21.2065 12.0023 20.2762 6.48923 16.2342 3.65C12.1826 0.804146 6.55551 1.73369 3.67077 5.71055C0.793503 9.67766 1.72347 15.1918 5.76549 18.0309L5.1903 18.8482L4.61608 19.6666C-0.331157 16.1917 -1.4868 9.41569 2.05163 4.53672ZM12.0878 4.89219C13.7271 5.20018 14.9134 6.2426 15.5008 7.40879L14.6083 7.85801L13.7147 8.3082C13.4333 7.74943 12.8844 7.20551 12.0878 6.9498V10.0514C12.7232 10.202 13.4 10.405 13.9686 10.7379C14.3961 10.9882 14.8012 11.331 15.0946 11.8111C15.3907 12.2958 15.5359 12.8598 15.536 13.4898C15.5359 14.5742 15.0656 15.5415 14.2421 16.2184C13.6563 16.6997 12.9191 17.0133 12.0878 17.151V18.4996H10.0878V17.1617C8.14995 16.8866 6.84381 15.8095 6.11217 14.398L7.88756 13.4781C8.28923 14.2529 8.96345 14.8953 10.0878 15.1324V11.6637C9.47075 11.5215 8.81509 11.3352 8.26549 11.0357C7.84215 10.805 7.43123 10.4838 7.12975 10.0221C6.82317 9.55228 6.67183 9.00121 6.67174 8.38633C6.67174 7.36374 7.10758 6.42919 7.92272 5.77109C8.50368 5.30234 9.24146 5.00141 10.0878 4.87168V3.49961H12.0878V4.89219ZM12.0878 15.1061C12.4615 15.0046 12.7561 14.8512 12.9725 14.6734C13.3422 14.3695 13.5359 13.965 13.536 13.4898C13.5359 13.1763 13.4666 12.9835 13.3876 12.8541C13.3056 12.7201 13.1737 12.5908 12.9579 12.4645C12.7202 12.3253 12.4304 12.2158 12.0878 12.1178V15.1061ZM10.0878 6.90879C9.68666 7.00655 9.38768 7.15804 9.17858 7.32676C8.83902 7.60092 8.67174 7.96143 8.67174 8.38633C8.67183 8.66292 8.73594 8.82311 8.80456 8.92832C8.87828 9.04118 9.00312 9.16027 9.22252 9.27988C9.46066 9.40964 9.749 9.50999 10.0878 9.60215V6.90879Z" fill="currentColor" />

</g>
</svg>
