<svg viewBox="0 0 24 24" fill="none" xmlns="http://www.w3.org/2000/svg">
<g transform="translate(1.9371, 2.0426)">
<path d="M7.93584 1.04492C9.08743 0.85263 10.2283 0.876781 11.3138 1.08789L10.931 3.05078C10.0766 2.8847 9.17713 2.86523 8.26494 3.01758C4.18041 3.69998 1.42172 7.56479 2.10381 11.6494C2.78601 15.7341 6.65098 18.4925 10.7356 17.8105C14.8204 17.1283 17.579 13.2635 16.8968 9.17871L17.8831 9.01367L18.8694 8.84961C19.7334 14.0238 16.239 18.9191 11.0647 19.7832C5.89068 20.647 0.995268 17.1526 0.131152 11.9785C-0.732717 6.80449 2.76188 1.90923 7.93584 1.04492ZM19.9144 1.41406L19.2073 2.12109L18.0706 3.25684C18.7472 3.33605 19.4495 3.59227 20.1253 4.13281L18.8753 5.69531C18.0534 5.03807 17.1381 5.14604 16.2386 5.56934C15.795 5.77812 15.4055 6.04443 15.1233 6.26465C14.984 6.37339 14.8742 6.46835 14.8021 6.5332C14.7664 6.56524 14.74 6.59014 14.7239 6.60547C14.7159 6.61306 14.7101 6.6184 14.7073 6.62109L9.50029 11.8281L8.08623 10.4141L13.2933 5.20703V5.20605H13.2942L13.2962 5.2041C13.2971 5.20317 13.298 5.20144 13.2991 5.2002C13.302 5.1974 13.3056 5.19361 13.3099 5.18945C13.3147 5.18475 13.3208 5.1792 13.3274 5.17285L18.5003 0L19.9144 1.41406Z" fill="currentColor" />

</g>
</svg>
