<svg viewBox="0 0 24 24" fill="none" xmlns="http://www.w3.org/2000/svg">
<g transform="translate(2.4824, 1.8236)">
<path d="M9.12933 0.0783668C9.37748 -0.0261219 9.65753 -0.0261226 9.90569 0.0783668L18.4311 3.66821C18.7888 3.81883 19.0293 4.16291 19.0336 4.55102C19.1057 11.0369 16.3923 17.7647 9.85393 20.2903C9.63851 20.3735 9.39651 20.3735 9.18108 20.2903C2.64278 17.7647 -0.0706525 11.0366 0.00139543 4.55102C0.00571328 4.16291 0.246219 3.81883 0.603934 3.66821L9.12933 0.0783668ZM8.49261 10.8704L6.27972 8.26782L4.75628 9.56274L7.73089 13.0627C7.9208 13.2859 8.19954 13.4152 8.49261 13.4153C8.7858 13.4151 9.0654 13.2861 9.2553 13.0627L14.7797 6.56274L13.2563 5.26782L8.49261 10.8704Z" fill="currentColor" />

</g>
</svg>
