<svg viewBox="0 0 24 24" fill="none" xmlns="http://www.w3.org/2000/svg">
<g transform="translate(2.5004, 2.0000)">
<path fill-rule="evenodd" clip-rule="evenodd" d="M9.21166 0.0422732C9.43078 -0.0236322 9.66719 -0.0124098 9.88061 0.0754763L18.3738 3.57548L18.5037 3.64091C18.792 3.81228 18.9786 4.1196 18.9919 4.46122V4.46805L18.9923 4.47371C18.9925 4.47663 18.9928 4.48 18.9929 4.48368L18.9933 4.50633V4.50638C18.9934 4.51627 18.9936 4.52767 18.9939 4.54032C18.9952 4.58816 18.9967 4.65686 18.9978 4.74442C19 4.91999 19.001 5.17196 18.9949 5.48368C18.9827 6.1066 18.9438 6.97472 18.8357 7.95634C18.623 9.88744 18.1305 12.3917 16.9529 14.3216C15.8425 16.141 14.042 17.5395 12.5945 18.4622C11.1545 19.38 9.86667 19.9381 9.9685 19.8841C9.73617 20.0073 9.46592 20.0329 9.21654 19.9593L9.11107 19.9212H9.1101L9.10912 19.9202C9.10863 19.92 9.10793 19.9199 9.10716 19.9198C9.10621 19.9197 9.10515 19.9196 9.10424 19.9192C9.10278 19.9186 9.10114 19.9178 9.0993 19.9169C9.09704 19.9159 9.09447 19.9146 9.09154 19.9134L9.07205 19.9047L9.04564 19.8929L9.03692 19.889L9.03665 19.8889C8.99845 19.8721 8.9462 19.8492 8.88158 19.8196C8.74157 19.7555 8.54226 19.661 8.29857 19.5384C7.81193 19.2935 7.14219 18.9327 6.40697 18.4641C4.95898 17.5413 3.15751 16.1418 2.04662 14.3216C0.868949 12.3917 0.376474 9.88744 0.163809 7.95634C0.0557147 6.97472 0.0168447 6.1066 0.00462892 5.48368C-0.00147831 5.17197 -0.00051183 4.91999 0.00169923 4.74442C0.00280345 4.65686 0.00433965 4.58816 0.00560548 4.54032C0.00594117 4.52764 0.00607294 4.51623 0.00618721 4.50633L0.00658204 4.48368C0.00670357 4.48 0.00696354 4.47663 0.00718826 4.47371L0.0075586 4.46805V4.46122L0.0241602 4.31669C0.0856867 3.98697 0.309637 3.70575 0.625723 3.57548L9.11889 0.0754763L9.21166 0.0422732ZM2.00306 5.25975V5.25976C2.00321 5.31834 2.00336 5.38002 2.00463 5.44462C2.01596 6.02227 2.05201 6.82874 2.15209 7.73759C2.35581 9.58728 2.81004 11.7333 3.75365 13.2796C4.62831 14.7129 6.12692 15.9129 7.48217 16.7766C8.14851 17.2013 8.75652 17.5305 9.19701 17.7522C9.2731 17.7905 9.34482 17.8242 9.41054 17.8551C9.44132 17.8695 9.47079 17.8834 9.49877 17.8968C9.94258 17.6852 10.6641 17.3207 11.5193 16.7757C12.8741 15.9121 14.3716 14.7122 15.2458 13.2796C16.1895 11.7333 16.6437 9.58728 16.8474 7.73759C16.9475 6.82874 16.9835 6.02227 16.9949 5.44462C16.996 5.3847 16.9959 5.32728 16.9958 5.27252V5.2724V5.27215C16.9957 5.23742 16.9956 5.20374 16.9958 5.17118L9.49975 2.08134L2.00268 5.17118C2.0029 5.19985 2.00298 5.22939 2.00306 5.25975ZM10.4997 4.50028V10.0003H8.49975V4.50028H10.4997ZM9.49975 15.0003C10.3282 15.0003 10.9997 14.3287 10.9997 13.5003C10.9997 12.6719 10.3282 12.0003 9.49975 12.0003C8.67132 12.0003 7.99975 12.6719 7.99975 13.5003C7.99975 14.3287 8.67132 15.0003 9.49975 15.0003Z" fill="currentColor" />

</g>
</svg>
