<svg viewBox="0 0 24 24" fill="none" xmlns="http://www.w3.org/2000/svg">
<g transform="translate(2.4824, 1.8236)">
<path d="M9.12933 0.0783668C9.37748 -0.0261219 9.65753 -0.0261226 9.90569 0.0783668L18.4311 3.66821C18.7888 3.81883 19.0293 4.16291 19.0336 4.55102C19.1057 11.0369 16.3923 17.7647 9.85393 20.2903C9.63851 20.3735 9.39651 20.3735 9.18108 20.2903C2.64278 17.7647 -0.0706525 11.0366 0.00139543 4.55102C0.00571328 4.16291 0.246219 3.81883 0.603934 3.66821L9.12933 0.0783668ZM9.518 6.91528C8.41343 6.91528 7.518 7.81071 7.518 8.91528C7.51809 9.65529 7.92049 10.2999 8.518 10.6457V12.9153H10.518V10.6448C11.1149 10.2988 11.5179 9.65483 11.518 8.91528C11.518 7.81087 10.6224 6.91553 9.518 6.91528Z" fill="currentColor" />

</g>
</svg>
