<svg viewBox="0 0 24 24" fill="none" xmlns="http://www.w3.org/2000/svg">
<g transform="translate(2.4824, 1.8236)">
<path d="M9.12933 0.0783668C9.37748 -0.0261219 9.65754 -0.0261226 9.90569 0.0783668L18.4311 3.66821C18.7888 3.81883 19.0293 4.16291 19.0336 4.55102C19.1057 11.0369 16.3923 17.7647 9.85393 20.2903C9.6385 20.3735 9.39651 20.3735 9.18108 20.2903C2.64277 17.7647 -0.0706593 11.0366 0.0013957 4.55102C0.00571367 4.16291 0.246214 3.81883 0.603935 3.66821L9.12933 0.0783668ZM9.518 12.4153C8.68957 12.4153 8.018 13.0869 8.018 13.9153C8.01811 14.7436 8.68964 15.4153 9.518 15.4153C10.3461 15.415 11.0179 14.7435 11.018 13.9153C11.018 13.087 10.3462 12.4155 9.518 12.4153ZM8.518 4.91528V10.4153H10.518V4.91528H8.518Z" fill="currentColor" />

</g>
</svg>
