<svg viewBox="0 0 24 24" fill="none" xmlns="http://www.w3.org/2000/svg">
<g transform="translate(0.9999, 3.2502)">
<path d="M11.0003 0C11.379 0 11.7254 0.214062 11.8948 0.552734L15.8988 8.56055L20.4632 5.65625C20.8043 5.43919 21.2434 5.44877 21.5745 5.68066C21.9057 5.91278 22.0645 6.32203 21.9769 6.7168L19.7542 16.7168C19.6525 17.1743 19.2463 17.5 18.7777 17.5H3.22297C2.75448 17.4998 2.34805 17.1742 2.24641 16.7168L0.0237562 6.7168C-0.0638042 6.32219 0.0952066 5.9128 0.4261 5.68066C0.75718 5.44863 1.19627 5.43934 1.53743 5.65625L6.1009 8.56055L10.1058 0.552734L10.1771 0.431641C10.3619 0.163805 10.669 0.000158578 11.0003 0ZM7.39485 10.4473C7.26821 10.7004 7.0397 10.8883 6.76692 10.9639C6.4943 11.0391 6.20184 10.9956 5.96321 10.8438L2.50032 8.63965L4.02473 15.5H17.9759L19.4993 8.63965L16.0374 10.8438C15.7987 10.9955 15.5063 11.0393 15.2337 10.9639C14.9611 10.8882 14.7323 10.7004 14.6058 10.4473L11.0003 3.23633L7.39485 10.4473Z" fill="currentColor" />

</g>
</svg>
