<svg viewBox="0 0 24 24" fill="none" xmlns="http://www.w3.org/2000/svg">
<g transform="translate(2.0000, 2.0000)">
<path d="M18.7129 0.0420841C19.0652 -0.0634942 19.447 0.0330068 19.7071 0.293061C19.9671 0.553121 20.0636 0.934914 19.958 1.2872L14.5576 19.2872C14.4355 19.6945 14.0693 19.9802 13.6446 19.9991C13.2198 20.018 12.8298 19.766 12.6719 19.3712L9.23049 10.7686L0.628926 7.32822C0.234148 7.1703 -0.0179286 6.78033 0.00099677 6.35556C0.0199405 5.9308 0.305659 5.56465 0.712911 5.44247L18.7129 0.0420841ZM4.02932 6.53427L9.75881 8.82626L11.793 6.79306L13.2071 8.20712L11.1729 10.2403L13.4649 15.9698L17.5078 2.4913L4.02932 6.53427Z" fill="currentColor" />

</g>
</svg>
