<svg viewBox="0 0 24 24" fill="none" xmlns="http://www.w3.org/2000/svg">
<g transform="translate(2.1437, 5.9999)">
<path d="M9.856 0C12.2478 6.76448e-08 14.3877 1.0177 16.0074 2.11328C17.6358 3.21487 18.8259 4.45451 19.3404 5.03027C19.8361 5.58512 19.8361 6.41488 19.3404 6.96973C18.8259 7.54549 17.6358 8.78513 16.0074 9.88672C14.3877 10.9823 12.2478 12 9.856 12C7.46419 11.9999 5.32423 10.9823 3.70463 9.88672C2.07613 8.78506 0.88601 7.54538 0.371625 6.96973C-0.123875 6.41494 -0.123875 5.58506 0.371625 5.03027L0.596234 4.78516C1.19089 4.14729 2.27971 3.07722 3.70463 2.11328C5.32423 1.01769 7.46419 0.000103438 9.856 0ZM9.856 2C8.0228 2.0001 6.27692 2.78884 4.82573 3.77051C3.66773 4.55388 2.75347 5.42494 2.20268 6C2.75347 6.57506 3.66773 7.44612 4.82573 8.22949C6.27692 9.21116 8.0228 9.9999 9.856 10C11.6892 10 13.435 9.21115 14.8863 8.22949C16.0439 7.44638 16.9574 6.5751 17.5083 6C16.9574 5.4249 16.0439 4.55362 14.8863 3.77051C13.435 2.78885 11.6892 2 9.856 2ZM9.856 4C10.9606 4 11.856 4.89543 11.856 6C11.856 7.10457 10.9606 8 9.856 8C8.75161 7.99979 7.856 7.10444 7.856 6C7.856 4.89556 8.75161 4.00021 9.856 4Z" fill="currentColor" />

</g>
</svg>
