<svg viewBox="0 0 24 24" fill="none" xmlns="http://www.w3.org/2000/svg">
<g transform="translate(2.1437, 2.3358)">
<path d="M18.6031 1.32812L15.1353 5.22852C15.4403 5.40607 15.7314 5.59061 16.0074 5.77734C17.636 6.87905 18.826 8.11865 19.3404 8.69434C19.8361 9.24918 19.8361 10.079 19.3404 10.6338C18.8259 11.2096 17.6358 12.4493 16.0074 13.5508C14.3878 14.6463 12.2478 15.6641 9.85604 15.6641C8.64377 15.664 7.49663 15.4015 6.44881 15.001L2.60311 19.3281L1.10896 18L4.57674 14.0977C4.27213 13.9203 3.98044 13.7373 3.70467 13.5508C2.0761 12.4491 0.886095 11.2095 0.37166 10.6338C-0.123971 10.079 -0.123802 9.24918 0.37166 8.69434L0.596269 8.44922C1.19092 7.81136 2.27977 6.74128 3.70467 5.77734C5.3243 4.68174 7.46417 3.66413 9.85604 3.66406C11.0682 3.66406 12.2155 3.92579 13.2633 4.32617L17.109 0L18.6031 1.32812ZM7.89314 13.376C8.52915 13.5573 9.18658 13.664 9.85604 13.6641C11.6892 13.6641 13.4351 12.8752 14.8863 11.8936C16.0439 11.1105 16.9575 10.2392 17.5084 9.66406C16.9575 9.08896 16.0441 8.21776 14.8863 7.43457C14.5323 7.19509 14.161 6.96666 13.775 6.75879L7.89314 13.376ZM9.85604 5.66406C8.02279 5.66413 6.27699 6.45288 4.82576 7.43457C3.66779 8.21793 2.7535 9.08902 2.20271 9.66406C2.75355 10.2392 3.66769 11.1102 4.82576 11.8936C5.17951 12.1328 5.55136 12.3596 5.93709 12.5674L11.8189 5.9502C11.1831 5.76895 10.5253 5.66406 9.85604 5.66406Z" fill="currentColor" />

</g>
</svg>
