<svg viewBox="0 0 24 24" fill="none" xmlns="http://www.w3.org/2000/svg">
<g transform="translate(2.0004, 1.5004)">
<path d="M11.3672 0C12.7302 1.62288e-05 13.8134 1.11563 13.8135 2.46484C13.8135 2.6385 13.926 2.86312 14.1885 3.01367C14.2342 3.03992 14.2799 3.06668 14.3252 3.09375C14.5853 3.24942 14.8227 3.23046 14.958 3.15137C16.1357 2.46269 17.6354 2.8767 18.3076 4.05566L19.6748 6.45312C20.3429 7.62532 19.9507 9.12996 18.7803 9.81445C18.6413 9.89586 18.5001 10.1039 18.5029 10.4199C18.5031 10.4466 18.5039 10.4733 18.5039 10.5C18.5039 10.5114 18.5029 10.523 18.5029 10.5342C18.5028 10.5495 18.503 10.5648 18.5029 10.5801C18.5 10.8961 18.6413 11.1041 18.7803 11.1855C19.9507 11.87 20.3429 13.3747 19.6748 14.5469L18.3076 16.9443C17.6354 18.1233 16.1357 18.5373 14.958 17.8486C14.8227 17.7695 14.5853 17.7506 14.3252 17.9062L14.1885 17.9863C13.926 18.1369 13.8135 18.3615 13.8135 18.5352C13.8134 19.8844 12.7302 21 11.3672 21H8.63279C7.26973 21 6.18658 19.8844 6.1865 18.5352C6.1865 18.3833 6.10041 18.1921 5.9033 18.0459L5.8115 17.9863C5.76575 17.9601 5.72004 17.9333 5.67478 17.9062C5.41466 17.7506 5.17726 17.7696 5.04197 17.8486C3.86426 18.5373 2.36458 18.1233 1.69236 16.9443L0.325173 14.5469C-0.342918 13.3747 0.0491965 11.87 1.2197 11.1855C1.35861 11.1041 1.49991 10.8961 1.49705 10.5801C1.49681 10.5534 1.49607 10.5267 1.49607 10.5C1.49607 10.4733 1.49681 10.4466 1.49705 10.4199C1.49991 10.1039 1.35861 9.89586 1.2197 9.81445C0.0491939 9.12996 -0.342926 7.62533 0.325173 6.45312L1.69236 4.05566C2.36458 2.87671 3.86427 2.46267 5.04197 3.15137C5.17726 3.23045 5.41466 3.24942 5.67478 3.09375C5.72001 3.06668 5.76572 3.03992 5.8115 3.01367C6.07394 2.86312 6.1865 2.63849 6.1865 2.46484C6.18658 1.11562 7.26973 0 8.63279 0H11.3672ZM8.63279 2C8.39832 2 8.18658 2.19602 8.1865 2.46484C8.1865 3.48471 7.56951 4.31149 6.80662 4.74902C6.77165 4.76907 6.7367 4.78986 6.70213 4.81055C5.94647 5.26277 4.91873 5.39634 4.0322 4.87793C3.82605 4.75741 3.55666 4.82348 3.42967 5.0459L2.06248 7.44336C1.93126 7.67364 2.0145 7.96248 2.22849 8.08789C3.10996 8.60337 3.50483 9.56021 3.49705 10.4375C3.49686 10.4581 3.49607 10.4793 3.49607 10.5C3.49607 10.5207 3.49686 10.5418 3.49705 10.5625C3.50484 11.4398 3.10997 12.3966 2.22849 12.9121C2.0145 13.0375 1.93127 13.3264 2.06248 13.5566L3.42967 15.9541C3.55667 16.1765 3.82605 16.2426 4.0322 16.1221C4.91872 15.6037 5.94647 15.7372 6.70213 16.1895C6.73667 16.2101 6.77163 16.2309 6.80662 16.251C7.56951 16.6885 8.1865 17.5153 8.1865 18.5352C8.18658 18.804 8.39832 19 8.63279 19H11.3672C11.6016 19 11.8134 18.804 11.8135 18.5352C11.8135 17.5153 12.4304 16.6885 13.1933 16.251C13.2283 16.2309 13.2633 16.2101 13.2978 16.1895C14.0535 15.7372 15.0812 15.6037 15.9678 16.1221C16.1739 16.2426 16.4433 16.1765 16.5703 15.9541L17.9375 13.5566C18.0687 13.3264 17.9854 13.0375 17.7715 12.9121C16.89 12.3966 16.4951 11.4398 16.5029 10.5625V10.5615C16.503 10.5498 16.5038 10.538 16.5039 10.5264C16.5039 10.5175 16.5039 10.5087 16.5039 10.5C16.5039 10.4794 16.5031 10.4589 16.5029 10.4385V10.4375C16.4951 9.5602 16.89 8.60336 17.7715 8.08789C17.9854 7.96248 18.0687 7.67363 17.9375 7.44336L16.5703 5.0459C16.4433 4.82348 16.1739 4.75743 15.9678 4.87793C15.0812 5.39634 14.0535 5.26276 13.2978 4.81055C13.2633 4.78986 13.2283 4.76908 13.1933 4.74902C12.4304 4.31149 11.8135 3.48472 11.8135 2.46484C11.8134 2.19603 11.6016 2.00002 11.3672 2H8.63279ZM9.99998 5.7002C12.6363 5.70021 14.7519 7.86113 14.7519 10.5C14.7519 13.1389 12.6363 15.2998 9.99998 15.2998C7.36365 15.2998 5.24803 13.1389 5.24803 10.5C5.24803 7.86112 7.36365 5.7002 9.99998 5.7002ZM9.99998 7.7002C8.49225 7.7002 7.24803 8.94151 7.24803 10.5C7.24803 12.0585 8.49225 13.2998 9.99998 13.2998C11.5077 13.2998 12.7519 12.0585 12.7519 10.5C12.7519 8.94152 11.5077 7.70021 9.99998 7.7002Z" fill="currentColor" />

</g>
</svg>
