<svg viewBox="0 0 24 24" fill="none" xmlns="http://www.w3.org/2000/svg">
<g transform="translate(2.5004, 1.5004)">
<path d="M16 0C17.6569 7.24234e-08 19 1.34315 19 3C19 4.65685 17.6569 6 16 6C15.2231 6 14.5165 5.70392 13.9844 5.2207L5.96484 9.53906C5.98801 9.68932 6 9.84326 6 10C6 10.2158 5.97618 10.4264 5.93262 10.6299L14.1162 15.666C14.6307 15.2503 15.2858 15 16 15C17.6569 15 19 16.3431 19 18C19 19.6569 17.6569 21 16 21C14.3431 21 13 19.6569 13 18C13 17.784 13.0227 17.5728 13.0664 17.3691L4.88281 12.333C4.36833 12.7487 3.71414 13 3 13C1.34315 13 0 11.6569 0 10C0 8.34315 1.34315 7 3 7C3.77546 7 4.48022 7.2964 5.0127 7.7793L13.0361 3.45996C13.0129 3.30976 13 3.15622 13 3C13 1.34315 14.3431 -4.88e-08 16 0ZM16 17C15.6411 17 15.3251 17.1884 15.1475 17.4766C15.054 17.6281 15 17.8062 15 18C15 18.5523 15.4477 19 16 19C16.5523 19 17 18.5523 17 18C17 17.4823 16.6067 17.0562 16.1025 17.0049L16 17ZM3 9C2.44772 9 2 9.44772 2 10C2 10.5523 2.44772 11 3 11C3.35894 11 3.67485 10.8116 3.85254 10.5234C3.94599 10.3719 4 10.1938 4 10C4 9.44772 3.55228 9 3 9ZM16 2C15.4477 2 15 2.44772 15 3C15 3.17333 15.0436 3.3337 15.1191 3.47363C15.2895 3.78913 15.6208 4 16 4C16.5523 4 17 3.55228 17 3C17 2.44772 16.5523 2 16 2Z" fill="currentColor" />

</g>
</svg>
