<svg viewBox="0 0 24 24" fill="none" xmlns="http://www.w3.org/2000/svg">
<g transform="translate(0.9999, 2.5001)">
<path d="M12.6545 0.00390625C14.2397 0.0842143 15.5002 1.39489 15.5002 3V4H21.0002C21.2984 4 21.5808 4.13347 21.7707 4.36328C21.9606 4.59315 22.0388 4.89568 21.9826 5.18848L19.6379 17.3779C19.4567 18.3194 18.6329 19 17.6741 19H4.3264C3.36767 18.9999 2.54372 18.3194 2.36253 17.3779L0.0178034 5.18848C-0.0383417 4.89575 0.0399261 4.59312 0.229717 4.36328C0.419632 4.13346 0.702091 4.00008 1.00023 4H6.50023V3C6.50023 1.34323 7.84349 0.000136751 9.50023 0H12.5002L12.6545 0.00390625ZM4.3264 17H17.6741L19.7893 6H2.21116L4.3264 17ZM9.50023 2C8.94806 2.00014 8.50023 2.4478 8.50023 3V4H13.5002V3C13.5002 2.48232 13.1069 2.05621 12.6028 2.00488L12.5002 2H9.50023Z" fill="currentColor" />

</g>
</svg>
