<svg viewBox="0 0 24 24" fill="none" xmlns="http://www.w3.org/2000/svg">
<g transform="translate(0.7504, 2.5003)">
<path d="M7 16C7.82843 16 8.5 16.6716 8.5 17.5C8.5 18.3284 7.82843 19 7 19C6.17157 19 5.5 18.3284 5.5 17.5C5.5 16.6716 6.17157 16 7 16ZM18 16C18.8284 16 19.5 16.6716 19.5 17.5C19.5 18.3284 18.8284 19 18 19C17.1716 19 16.5 18.3284 16.5 17.5C16.5 16.6716 17.1716 16 18 16ZM2.5 0C2.93033 0 3.31204 0.275413 3.44824 0.683594L4.2207 3H21.5C21.8161 3 22.114 3.14971 22.3027 3.40332C22.4912 3.6568 22.5487 3.98456 22.458 4.28711L19.458 14.2871C19.3311 14.7101 18.9416 15 18.5 15H6.5C6.05839 15 5.66889 14.7101 5.54199 14.2871L2.54199 4.28711L1.7793 2H0V0H2.5ZM7.24414 13H17.7559L20.1562 5H4.84375L7.24414 13Z" fill="currentColor" />

</g>
</svg>
