<svg viewBox="0 0 24 24" fill="none" xmlns="http://www.w3.org/2000/svg">
<g transform="translate(0.9999, 1.5000)">
<path d="M15.5002 8C16.9445 8 18.3387 8.54787 19.3733 9.53613C20.4093 10.5259 21.0002 11.8785 21.0002 13.2988C21.0002 15.3685 19.6423 17.2885 18.4953 18.5703C17.8979 19.238 17.3034 19.7917 16.8596 20.1777C16.6371 20.3713 16.4501 20.524 16.3176 20.6299C16.2513 20.6828 16.1987 20.7252 16.1614 20.7539C16.1429 20.7681 16.1279 20.7791 16.1174 20.7871C16.1122 20.791 16.1079 20.7945 16.1047 20.7969C16.1033 20.798 16.1018 20.7991 16.1008 20.7998L16.0989 20.8008L15.5002 20L16.0979 20.8018C15.7433 21.066 15.2571 21.066 14.9026 20.8018L15.5002 20L14.9016 20.8008L14.8996 20.7998C14.8986 20.7991 14.8972 20.798 14.8957 20.7969C14.8926 20.7945 14.8882 20.791 14.883 20.7871C14.8725 20.7791 14.8575 20.7681 14.8391 20.7539C14.8018 20.7251 14.7491 20.6828 14.6828 20.6299C14.5503 20.524 14.3633 20.3713 14.1409 20.1777C13.6971 19.7916 13.1025 19.238 12.5051 18.5703C11.3582 17.2885 10.0002 15.3684 10.0002 13.2988C10.0002 11.8785 10.5912 10.5259 11.6272 9.53613C12.6617 8.54784 14.056 8.00006 15.5002 8ZM12.6545 0.00390625C14.2397 0.0842143 15.5002 1.39489 15.5002 3V4H21.0002C21.294 4 21.5729 4.12944 21.7629 4.35352C21.9529 4.57773 22.0348 4.87421 21.9866 5.16406L21.4866 8.16406L19.5139 7.83594L19.8196 6H2.21116L4.3264 17H9.00023V19H4.3264C3.36767 18.9999 2.54372 18.3194 2.36253 17.3779L0.0178034 5.18848C-0.0383417 4.89575 0.0399261 4.59312 0.229717 4.36328C0.419632 4.13346 0.702091 4.00008 1.00023 4H6.50023V3C6.50023 1.34323 7.84349 0.000136751 9.50023 0H12.5002L12.6545 0.00390625ZM15.5002 10C14.5577 10.0001 13.6622 10.3584 13.009 10.9824C12.3575 11.6049 12.0002 12.4392 12.0002 13.2988C12.0002 14.5727 12.8924 16.0036 13.9953 17.2363C14.5228 17.8258 15.0535 18.3211 15.4534 18.6689C15.4689 18.6825 15.4851 18.695 15.5002 18.708C15.5153 18.695 15.5316 18.6825 15.5471 18.6689C15.947 18.3211 16.4777 17.8258 17.0051 17.2363C18.1081 16.0035 19.0002 14.5727 19.0002 13.2988C19.0002 12.4391 18.643 11.605 17.9914 10.9824C17.3382 10.3585 16.4428 10 15.5002 10ZM9.50023 2C8.94806 2.00014 8.50023 2.4478 8.50023 3V4H13.5002V3C13.5002 2.48232 13.1069 2.05621 12.6028 2.00488L12.5002 2H9.50023Z" fill="currentColor" />

</g>
</svg>
