<svg viewBox="0 0 24 24" fill="none" xmlns="http://www.w3.org/2000/svg">
<g transform="translate(2.2502, 6.7931)">
<path d="M13.207 4.5C13.3945 4.68752 13.5 4.94184 13.5 5.20703C13.5 5.4391 13.4192 5.66287 13.2734 5.84082L13.207 5.91406L8.70703 10.4141L7.29297 9L10.0859 6.20703H0V4.20703H10.0859L7.29297 1.41406L8.70703 0L13.207 4.5ZM19.207 4.5C19.3945 4.68752 19.5 4.94184 19.5 5.20703C19.5 5.4391 19.4192 5.66287 19.2734 5.84082L19.207 5.91406L14.707 10.4141L13.293 9L17.0859 5.20703L13.293 1.41406L14.707 0L19.207 4.5Z" fill="currentColor" />

</g>
</svg>
