<svg viewBox="0 0 24 24" fill="none" xmlns="http://www.w3.org/2000/svg">
<g transform="translate(2.0000, 2.0000)">
<path d="M10 0C15.5228 0 20 4.47715 20 10C20 15.5228 15.5228 20 10 20C4.47715 20 6.12063e-07 15.5228 0 10C0 4.47715 4.47715 5.15406e-07 10 0ZM10 2C5.58172 2 2 5.58172 2 10C2 14.4183 5.58172 18 10 18C14.4183 18 18 14.4183 18 10C18 5.58172 14.4183 2 10 2ZM10 3.625C10.3473 3.625 10.6622 3.83037 10.8018 4.14844L12.084 7.07324L15.1084 7.45117C15.4421 7.49282 15.722 7.7223 15.8291 8.04102C15.9361 8.35998 15.8515 8.71271 15.6104 8.94727L13.3467 11.1475L13.9502 14.3379C14.0137 14.675 13.8744 15.0184 13.5938 15.2158C13.3129 15.4133 12.9424 15.428 12.6465 15.2539L10 13.6963L7.35352 15.2539C7.05765 15.428 6.68709 15.4133 6.40625 15.2158C6.12564 15.0184 5.98626 14.675 6.0498 14.3379L6.65234 11.1475L4.38965 8.94727C4.14846 8.71271 4.06389 8.35998 4.1709 8.04102C4.27801 7.7223 4.55794 7.49282 4.8916 7.45117L7.91504 7.07324C8.09554 6.66179 8.27653 6.25032 8.45703 5.83887C8.7042 5.27543 8.95107 4.71187 9.19824 4.14844L9.25879 4.03516C9.41715 3.78251 9.69593 3.625 10 3.625ZM9.31836 8.23242C9.19451 8.51474 8.93092 8.71186 8.625 8.75L6.91602 8.96191L8.20996 10.2207C8.42039 10.4254 8.51447 10.7223 8.45996 11.0107L8.12695 12.7676L9.55664 11.9268L9.66211 11.874C9.91412 11.7685 10.2039 11.786 10.4434 11.9268L11.8721 12.7676L11.54 11.0107C11.4855 10.7223 11.5796 10.4254 11.79 10.2207L13.083 8.96191L11.375 8.75C11.0691 8.71186 10.8055 8.51474 10.6816 8.23242L9.99902 6.67773C9.77176 7.1958 9.54562 7.71436 9.31836 8.23242Z" fill="currentColor" />

</g>
</svg>
