<svg viewBox="0 0 24 24" fill="none" xmlns="http://www.w3.org/2000/svg">
<g transform="translate(2.0042, 2.0042)">
<path d="M9.54004 0.001948C10.109 -0.0238322 10.6311 0.208311 11 0.577143L19.4141 8.99121C19.7829 9.36007 20.0149 9.8822 19.9893 10.4512C19.7485 15.7609 15.3687 19.9912 10 19.9912C4.47715 19.9912 2.41411e-07 15.5141 0 9.99121C0.000177127 4.62267 4.2304 0.242742 9.54004 0.001948ZM9.59668 2.00292C5.36636 2.21262 2.00018 5.70837 2 9.99121C2 14.4095 5.58172 17.9912 10 17.9912C14.283 17.9912 17.7786 14.625 17.9883 10.3945L9.59668 2.00292ZM13.8945 12.4394C13.1585 13.9088 11.7276 14.9912 10 14.9912C8.27243 14.9912 6.84149 13.9088 6.10547 12.4394L7.89453 11.543C8.35618 12.4647 9.16379 12.9912 10 12.9912C10.8362 12.9912 11.6438 12.4647 12.1055 11.543L13.8945 12.4394Z" fill="currentColor" />

</g>
</svg>
