<svg viewBox="0 0 24 24" fill="none" xmlns="http://www.w3.org/2000/svg">
<g transform="translate(0.0000, 3.2499)">
<path d="M11.6123 0.0782868C11.9014 -0.0433306 12.2343 -0.0233262 12.5088 0.138834L23.5088 6.63883C23.8133 6.81875 24 7.14651 24 7.50016C24 7.85382 23.8133 8.18157 23.5088 8.36149L12.5088 14.8615C12.195 15.0468 11.805 15.0468 11.4912 14.8615L8 12.798V17.5002H6V11.6164L0.491211 8.36149C0.186739 8.18157 1.23099e-08 7.85382 0 7.50016C2.65803e-07 7.14651 0.186739 6.81875 0.491211 6.63883L11.4912 0.138834L11.6123 0.0782868ZM2.96582 7.50016L6.93164 9.84294L12.4453 6.16813L13.5547 7.83219L8.84277 10.9728L12 12.8381L21.0332 7.50016L12 2.16129L2.96582 7.50016Z" fill="currentColor" />

</g>
</svg>
