<svg viewBox="0 0 24 24" fill="none" xmlns="http://www.w3.org/2000/svg">
<g transform="translate(5.2630, 1.7497)">
<path d="M6.97363 16.5C8.07805 16.5002 8.97363 17.3955 8.97363 18.5C8.97363 19.6045 8.07805 20.4998 6.97363 20.5C5.86906 20.5 4.97363 19.6046 4.97363 18.5C4.97363 17.3954 5.86906 16.5 6.97363 16.5ZM6.97363 0C10.698 0.000189572 13.4736 2.83605 13.4736 6.4209C13.4735 8.23748 12.7296 9.75165 11.5029 10.8125C10.6506 11.5495 9.60208 12.036 8.47363 12.2939V14.5H5.47363V9.59082L6.87988 9.50293C8.02111 9.43173 8.93715 9.06422 9.54004 8.54297C10.1144 8.04622 10.4735 7.35751 10.4736 6.4209C10.4736 4.49847 9.04669 3.00018 6.97363 3C4.87762 3 3.361 4.53671 2.94727 6.70215L1.47363 6.4209L0 6.13867C0.611432 2.93911 3.08322 0 6.97363 0Z" fill="currentColor" />

</g>
</svg>
