<svg viewBox="0 0 24 24" fill="none" xmlns="http://www.w3.org/2000/svg">
<g transform="translate(2.5003, 2.5003)">
<path d="M13.5 8C16.5376 8 19 10.4624 19 13.5C19 16.5376 16.5376 19 13.5 19C10.4624 19 8 16.5376 8 13.5C8 10.4624 10.4624 8 13.5 8ZM4.5 0C6.98528 0 9 2.01472 9 4.5C9 6.98528 6.98528 9 4.5 9C2.01472 9 0 6.98528 0 4.5C0 2.01472 2.01472 0 4.5 0ZM4.5 2C3.11929 2 2 3.11929 2 4.5C2 5.88071 3.11929 7 4.5 7C5.88071 7 7 5.88071 7 4.5C7 3.11929 5.88071 2 4.5 2Z" fill="currentColor" />

</g>
</svg>
