<svg viewBox="0 0 24 24" fill="none" xmlns="http://www.w3.org/2000/svg">
<g transform="translate(1.5434, 2.5004)">
<path d="M16.707 6.5V15.5859L19.5 12.793L20.9141 14.207L16.4141 18.707C16.2265 18.8946 15.9722 19 15.707 19C15.4749 19 15.2512 18.9193 15.0732 18.7734L15 18.707L10.5 14.207L11.9141 12.793L14.707 15.5859V6.5H16.707ZM5.20703 0C5.47224 1.06789e-06 5.72653 0.105445 5.91406 0.292969L10.4141 4.79297L9 6.20703L6.20703 3.41406V12.5H4.20703V3.41406L1.41406 6.20703L0 4.79297L4.5 0.292969L4.57324 0.226562C4.75119 0.0807236 4.97494 8.39732e-06 5.20703 0Z" fill="currentColor" />

</g>
</svg>
