<svg viewBox="0 0 24 24" fill="none" xmlns="http://www.w3.org/2000/svg">
<g transform="translate(4.7721, 0.7934)">
<path d="M9.81445 0C16.0037 6.18946 16.0037 16.2246 9.81445 22.4141L8.40039 21C13.8086 15.5916 13.8086 6.82248 8.40039 1.41406L9.81445 0ZM7.01367 2.7998C11.6568 7.44292 11.6568 14.9711 7.01367 19.6143L5.59961 18.2002C9.46168 14.3381 9.46168 8.07594 5.59961 4.21387L7.01367 2.7998ZM4.21387 5.59961C7.31059 8.69633 7.31059 13.7177 4.21387 16.8145L2.7998 15.4004C5.11548 13.0847 5.11547 9.32934 2.7998 7.01367L4.21387 5.59961ZM1.41406 8.40039C2.96412 9.95066 2.96412 12.4634 1.41406 14.0137L0 12.5996C0.769014 11.8304 0.769013 10.5837 0 9.81445L1.41406 8.40039Z" fill="currentColor" />

</g>
</svg>
