<svg viewBox="0 0 24 24" fill="none" xmlns="http://www.w3.org/2000/svg">
<g transform="translate(1.5004, 2.0003)">
<path d="M10.5 3.5C14.3745 3.5 16.6636 5.32649 17.9473 7.18066C18.5769 8.0902 18.958 8.99409 19.1826 9.66797C19.2217 9.7852 19.2548 9.89676 19.2852 10H21V12H19.5V18H21V20H0V18H1.5V12H0V10H1.71484C1.74521 9.89676 1.77831 9.7852 1.81738 9.66797C2.04203 8.99411 2.42307 8.0902 3.05273 7.18066C4.33641 5.32649 6.62555 3.50005 10.5 3.5ZM3.5 18H6.5V12H3.5V18ZM8.5 18H12.5V12H8.5V18ZM14.5 18H17.5V12H14.5V18ZM10.5 5.5C7.37469 5.50005 5.66356 6.92358 4.69727 8.31934C4.28886 8.90929 4.0116 9.50428 3.82422 10H17.1758C16.9884 9.50427 16.7112 8.90929 16.3027 8.31934C15.3364 6.92358 13.6254 5.5 10.5 5.5ZM12.5 2H9.5V0H13.5L12.5 2Z" fill="currentColor" />

</g>
</svg>
