<svg viewBox="0 0 24 24" fill="none" xmlns="http://www.w3.org/2000/svg">
<g transform="translate(0.9999, 3.9999)">
<path d="M7 0C8.19628 0 9.42058 0.209566 10.376 0.834961C10.6061 0.985593 10.8144 1.15744 11 1.34863C11.1856 1.15744 11.3939 0.985593 11.624 0.834961C12.5794 0.209566 13.8037 0 15 0H21C21.5523 0 22 0.447715 22 1V13.0908C22 13.6431 21.5523 14.0908 21 14.0908H15C13.9694 14.0908 13.191 14.2595 12.7002 14.5654C12.2863 14.8234 12 15.2203 12 16H10C10 15.2203 9.71372 14.8234 9.2998 14.5654C8.80899 14.2595 8.03058 14.0908 7 14.0908H1C0.447715 14.0908 0 13.6431 0 13.0908V1C0 0.447715 0.447715 0 1 0H7ZM2 12.0908H7C8.03648 12.0908 9.10621 12.2315 10 12.6709V4C10 3.21537 9.70766 2.78759 9.28027 2.50781C8.78794 2.18574 8.01248 2 7 2H2V12.0908ZM15 2C13.9875 2 13.2121 2.18574 12.7197 2.50781C12.2923 2.78759 12 3.21537 12 4V12.6709C12.8938 12.2315 13.9635 12.0908 15 12.0908H20V2H15Z" fill="currentColor" />

</g>
</svg>
