<svg viewBox="0 0 24 24" fill="none" xmlns="http://www.w3.org/2000/svg">
<g transform="translate(2.0000, 2.0000)">
<path d="M10 0C15.5228 0 20 4.47715 20 10C20 10.0332 19.9984 10.0665 19.9951 10.0996C19.8523 11.5278 19.3582 12.5676 18.5059 13.2246C17.687 13.8556 16.7033 13.9996 15.8809 14.0273C15.4615 14.0415 15.0423 14.0262 14.668 14.0107C14.2798 13.9947 13.9479 13.979 13.6426 13.9844C12.9717 13.9963 12.7925 14.114 12.7451 14.167C12.5463 14.3892 12.4375 14.702 12.4131 15.1865C12.3868 15.7078 12.4584 16.2134 12.5049 16.8701C12.5433 17.4136 12.5816 18.2119 12.2275 18.8721C11.7897 19.6886 10.9588 20 10 20C4.47715 20 0 15.5228 0 10C0 4.47715 4.47715 0 10 0ZM10 2C5.58172 2 2 5.58172 2 10C2 14.4183 5.58172 18 10 18C10.2811 18 10.4084 17.9563 10.4502 17.9365C10.4722 17.926 10.4643 17.9278 10.4648 17.9268C10.5095 17.8434 10.5523 17.612 10.5098 17.0107C10.4752 16.5227 10.3806 15.7684 10.415 15.0859C10.4513 14.3666 10.6298 13.5314 11.2549 12.833C11.9199 12.09 12.9094 11.9968 13.6064 11.9844C13.9851 11.9777 14.3878 11.9967 14.751 12.0117C15.128 12.0273 15.4783 12.0396 15.8135 12.0283C16.4999 12.0051 16.9675 11.8854 17.2852 11.6406C17.5653 11.4247 17.8861 10.9852 17.998 9.94727C17.9697 5.55326 14.4007 2 10 2ZM5.75 10.75C6.44036 10.75 7 11.3096 7 12C7 12.6904 6.44036 13.25 5.75 13.25C5.05964 13.25 4.5 12.6904 4.5 12C4.5 11.3096 5.05964 10.75 5.75 10.75ZM5.75 6.25C6.44036 6.25 7 6.80964 7 7.5C7 8.19036 6.44036 8.75 5.75 8.75C5.05964 8.75 4.5 8.19036 4.5 7.5C4.5 6.80964 5.05964 6.25 5.75 6.25ZM13.5 5.5C14.1904 5.5 14.75 6.05964 14.75 6.75C14.75 7.44036 14.1904 8 13.5 8C12.8096 8 12.25 7.44036 12.25 6.75C12.25 6.05964 12.8096 5.5 13.5 5.5ZM9.25 4C9.94036 4 10.5 4.55964 10.5 5.25C10.5 5.94036 9.94036 6.5 9.25 6.5C8.55964 6.5 8 5.94036 8 5.25C8 4.55964 8.55964 4 9.25 4Z" fill="currentColor" />

</g>
</svg>
