<svg viewBox="0 0 24 24" fill="none" xmlns="http://www.w3.org/2000/svg">
<g transform="translate(3.0256, 2.3257)">
<path d="M10.9775 0.013833C12.535 -0.115823 14.0224 0.674324 14.79 2.03239H14.791L17.5195 6.49235L17.542 6.53239C18.7333 8.69836 17.1663 11.3488 14.6943 11.3488H12.2051L13.1846 16.5724C13.4548 18.0152 12.3478 19.3487 10.8799 19.3488C9.94737 19.3487 9.10409 18.7956 8.73242 17.9406C7.96509 16.1751 7.25092 14.6163 6.0957 13.3156C4.96742 12.0453 3.36887 10.9723 0.757812 10.3195C0.312772 10.2081 3.15722e-05 9.80757 0 9.34879V1.84879C3.11741e-05 1.32881 0.398832 0.895998 0.916992 0.8527L10.9775 0.013833ZM11.1436 2.007L2 2.76872V8.58805C4.5457 9.34683 6.29437 10.5279 7.59082 11.9875C8.98527 13.5575 9.80832 15.3995 10.5664 17.1437C10.6208 17.2685 10.744 17.3487 10.8799 17.3488C11.0956 17.3487 11.2585 17.1527 11.2188 16.9406L10.0176 10.5334C9.96277 10.241 10.0406 9.93902 10.2305 9.71012C10.4204 9.4813 10.7026 9.34886 11 9.34879H14.6943C15.6427 9.34879 16.2446 8.33497 15.793 7.50309L13.085 3.07633C13.077 3.06324 13.0689 3.04974 13.0615 3.03629C12.6812 2.34487 11.93 1.94156 11.1436 2.007Z" fill="currentColor" />

</g>
</svg>
