<svg viewBox="0 0 24 24" fill="none" xmlns="http://www.w3.org/2000/svg">
<g transform="translate(3.0256, 2.3257)">
<path d="M10.8799 0C12.3479 0.000126207 13.4551 1.33442 13.1846 2.77734L12.2051 8H14.6943C17.1663 8 18.7333 10.6504 17.542 12.8164C17.5346 12.8298 17.5275 12.8434 17.5195 12.8564L14.791 17.3164L14.79 17.3154C14.0225 18.674 12.5353 19.4646 10.9775 19.335L0.916992 18.4961C0.398746 18.4529 0 18.0201 0 17.5V10C0 9.54116 0.312693 9.1416 0.757812 9.03027C3.36903 8.37743 4.96739 7.30358 6.0957 6.0332C7.25091 4.73252 7.96509 3.17367 8.73242 1.4082C9.10412 0.553155 9.94735 3.7708e-05 10.8799 0ZM10.8799 2C10.7439 2.00004 10.6208 2.08032 10.5664 2.20508C9.80832 3.94927 8.98526 5.79129 7.59082 7.36133C6.29442 8.82092 4.54558 10.001 2 10.7598V16.5801L11.1436 17.3418C11.93 17.4072 12.6812 17.004 13.0615 16.3125C13.0689 16.299 13.077 16.2856 13.085 16.2725L15.793 11.8447C16.2438 11.013 15.6424 10 14.6943 10H11C10.7026 9.99997 10.4204 9.86756 10.2305 9.63867C10.0405 9.40976 9.96277 9.10779 10.0176 8.81543L11.2188 2.4082C11.2584 2.19615 11.0956 2.00013 10.8799 2Z" fill="currentColor" />

</g>
</svg>
