<svg viewBox="0 0 24 24" fill="none" xmlns="http://www.w3.org/2000/svg">
<g transform="translate(2.0000, 2.0000)">
<path d="M2.92893 2.92893C6.83417 -0.976311 13.1663 -0.976311 17.0715 2.92893C20.9768 6.83418 20.9768 13.1663 17.0715 17.0715C13.1663 20.9768 6.83418 20.9768 2.92893 17.0715C-0.976311 13.1663 -0.97631 6.83417 2.92893 2.92893ZM15.6574 4.34299C12.5333 1.2188 7.46719 1.2188 4.34299 4.34299C1.2188 7.46719 1.2188 12.5333 4.34299 15.6574C7.46719 18.7816 12.5333 18.7816 15.6574 15.6574C18.7816 12.5333 18.7816 7.46719 15.6574 4.34299ZM11.0002 10.0002H13.5002V12.0002H10.0002C9.44794 12.0002 9.00022 11.5525 9.00022 11.0002V6.50022H11.0002V10.0002Z" fill="currentColor" />

</g>
</svg>
