<svg viewBox="0 0 24 24" fill="none" xmlns="http://www.w3.org/2000/svg">
<g transform="translate(2.9066, 1.5004)">
<path d="M9 3C11.247 3 13.3005 3.8266 14.877 5.1875L16.7725 3.29297L17.4805 4L18.1875 4.70703L16.2383 6.6543C17.3438 8.14907 18 9.99828 18 12C18 16.9706 13.9706 21 9 21C4.02944 21 0 16.9706 0 12C1.54626e-06 7.02944 4.02944 3 9 3ZM9 5C5.13401 5 2 8.13401 2 12C2 15.866 5.13401 19 9 19C12.866 19 16 15.866 16 12C16 10.1733 15.3014 8.51175 14.1553 7.26465C12.8745 5.87113 11.0397 5 9 5ZM10 11H12.5V13H9C8.44772 13 8 12.5523 8 12V8H10V11ZM12 2H6V0H12V2Z" fill="currentColor" />

</g>
</svg>
