<svg viewBox="0 0 24 24" fill="none" xmlns="http://www.w3.org/2000/svg">
<g transform="translate(3.9998, 2.9998)">
<path d="M14.8906 0.00390625C15.3231 0.0415998 15.6864 0.356392 15.7803 0.787109C16.0381 1.97324 16.0765 3.00144 15.8555 3.91406C15.6299 4.84512 15.1535 5.57695 14.5185 6.19238C13.902 6.78994 13.1301 7.28268 12.3057 7.75195C11.8896 7.98874 11.4433 8.22874 10.9824 8.47656C10.6698 8.64469 10.3486 8.81831 10.0176 9C10.3486 9.18169 10.6698 9.35531 10.9824 9.52344C11.4433 9.77126 11.8896 10.0113 12.3057 10.248C13.1301 10.7173 13.902 11.2101 14.5185 11.8076C15.1535 12.423 15.6299 13.1549 15.8555 14.0859C16.0765 14.9986 16.0381 16.0268 15.7803 17.2129C15.6864 17.6436 15.3231 17.9584 14.8906 17.9961L14.8037 18H1.19628C0.755446 17.9998 0.370873 17.7115 0.242178 17.2969L0.219717 17.2129C-0.0381688 16.0268 -0.0765344 14.9986 0.144522 14.0859C0.370086 13.1549 0.846447 12.423 1.48144 11.8076C2.09803 11.2101 2.86983 10.7173 3.69433 10.248C4.11051 10.0112 4.55753 9.77135 5.01855 9.52344C5.33083 9.35551 5.65099 9.1815 5.98144 9C5.65099 8.8185 5.33083 8.64449 5.01855 8.47656C4.55752 8.22865 4.11051 7.98882 3.69433 7.75195C2.86983 7.28268 2.09803 6.78995 1.48144 6.19238C0.846446 5.57695 0.370086 4.84512 0.144522 3.91406C-0.0765347 3.00144 -0.038169 1.97324 0.219717 0.787109L0.242178 0.703125C0.370874 0.288457 0.755444 0.000214028 1.19628 0H14.8037L14.8906 0.00390625ZM8.5498 10.4736C8.21025 10.283 7.78973 10.283 7.45019 10.4736C6.92624 10.7678 6.42709 11.0366 5.96483 11.2852C5.49955 11.5354 5.07496 11.7636 4.68358 11.9863C3.8924 12.4366 3.30163 12.8288 2.87304 13.2441C2.4631 13.6415 2.21126 14.0517 2.08886 14.5566C1.99813 14.9312 1.97025 15.3977 2.04101 16H13.959C14.0297 15.3977 14.0028 14.9312 13.9121 14.5566C13.7897 14.0515 13.5369 13.6416 13.1269 13.2441C12.6984 12.8288 12.1076 12.4366 11.3164 11.9863C10.925 11.7636 10.5004 11.5354 10.0351 11.2852C9.57288 11.0366 9.07376 10.7678 8.5498 10.4736ZM2.04101 2C1.97025 2.60233 1.99813 3.06878 2.08886 3.44336C2.21126 3.94834 2.4631 4.35849 2.87304 4.75586C3.30163 5.17125 3.8924 5.56335 4.68358 6.01367C5.07496 6.23643 5.49955 6.46464 5.96483 6.71484C6.42709 6.96342 6.92624 7.23221 7.45019 7.52637C7.78973 7.717 8.21025 7.71699 8.5498 7.52637C9.07376 7.23221 9.57288 6.96342 10.0351 6.71484C10.5004 6.46464 10.925 6.23642 11.3164 6.01367C12.1076 5.56336 12.6984 5.17125 13.1269 4.75586C13.5369 4.35843 13.7897 3.94845 13.9121 3.44336C14.0028 3.06877 14.0297 2.60234 13.959 2H2.04101Z" fill="currentColor" />

</g>
</svg>
