<svg viewBox="0 0 24 24" fill="none" xmlns="http://www.w3.org/2000/svg">
<g transform="translate(2.0000, 2.0000)">
<path d="M14.5 0C17.5853 2.02269e-07 20 2.61789 20 5.7373C19.9998 8.4676 18.305 10.9728 15.5215 11.6035C13.4761 12.0669 11.4437 11.4575 9.72266 10.9609C7.89347 10.4331 6.37509 10.0179 4.91992 10.3477C3.16904 10.7446 2.00019 12.3366 2 14.2627C2 16.3754 3.61472 18 5.5 18C7.38528 18 9 16.3754 9 14.2627V13.3154H11V14.2627C11 17.3821 8.58528 20 5.5 20C2.41472 20 0 17.3821 0 14.2627C0.00019152 11.5324 1.69501 9.02722 4.47852 8.39648C6.52389 7.93309 8.5563 8.54246 10.2773 9.03906C12.1065 9.56687 13.6249 9.98208 15.0801 9.65234C16.831 9.25537 17.9998 7.66335 18 5.7373C18 3.62455 16.3853 2 14.5 2C12.6147 2 11 3.62455 11 5.7373V6.68457H9V5.7373C9 2.61789 11.4147 0 14.5 0Z" fill="currentColor" />

</g>
</svg>
