<svg viewBox="0 0 24 24" fill="none" xmlns="http://www.w3.org/2000/svg">
<g transform="translate(2.2502, 2.8967)">
<path d="M9.08984 0C10.9731 1.28873e-07 12.5 1.52692 12.5 3.41016C12.4999 5.10699 11.2521 6.54518 9.57227 6.78516L3.90039 7.5957C2.81003 7.75147 2 8.68568 2 9.78711C2.00014 11.0092 2.9908 11.9998 4.21289 12H16.0859L13.293 9.20703L14.707 7.79297L19.207 12.293C19.5731 12.6591 19.5957 13.2381 19.2754 13.6309L19.207 13.707L14.707 18.207L13.293 16.793L16.0859 14H4.21289C1.88623 13.9998 0.000138494 12.1138 0 9.78711C0 7.69047 1.54166 5.91285 3.61719 5.61621L9.28906 4.80566C9.98357 4.70645 10.4999 4.11168 10.5 3.41016C10.5 2.63149 9.86851 2 9.08984 2H4.5V0H9.08984Z" fill="currentColor" />

</g>
</svg>
