<svg viewBox="0 0 24 24" fill="none" xmlns="http://www.w3.org/2000/svg">
<g transform="translate(2.2928, 2.2928)">
<path d="M19.4141 1.41406L15.5371 5.29004C15.6472 5.74448 15.707 6.21875 15.707 6.70703V12.707C15.707 16.0207 13.0207 18.707 9.70703 18.707C7.64468 18.707 5.82506 17.6667 4.74512 16.082L1.41406 19.4141L0 18L3.87695 14.1221C3.76719 13.6682 3.70703 13.1946 3.70703 12.707V6.70703C3.70707 3.39338 6.39338 0.707072 9.70703 0.707031C11.7688 0.707031 13.5879 1.74704 14.668 3.33105L18 0L19.4141 1.41406ZM6.19824 14.6289C6.87804 15.8675 8.19446 16.707 9.70703 16.707C11.9162 16.707 13.707 14.9162 13.707 12.707V7.12109L6.19824 14.6289ZM9.70703 2.70703C7.49795 2.70707 5.70707 4.49795 5.70703 6.70703V12.293L13.2148 4.78418C12.5348 3.54634 11.2191 2.70703 9.70703 2.70703Z" fill="currentColor" />

</g>
</svg>
