<svg width="24" height="24" viewBox="0 0 24 24" fill="none" xmlns="http://www.w3.org/2000/svg">
<path fill-rule="evenodd" clip-rule="evenodd" d="M13.4658 3.51367L13.7334 3.53125C15.0607 3.63975 16.2158 4.02096 17.0645 4.76758C17.9972 5.58829 18.4286 6.73425 18.4287 8.0498C18.4287 9.6421 17.6703 10.8523 16.5059 11.6348C16.8483 11.8132 17.1564 12.0176 17.4297 12.2461C18.5916 13.2178 19 14.5097 19 15.7031C19 17.1319 18.4722 18.3752 17.4375 19.2441C16.4306 20.0896 15.0476 20.4938 13.4658 20.499V23H11.4658V20.5H7V3.5H8C8.90372 3.5 9.80746 3.50292 10.709 3.50586C10.9612 3.50668 11.2139 3.50608 11.4658 3.50684V1H13.4658V3.51367ZM9 18.5H13.4346C14.7121 18.5 15.6004 18.1754 16.1514 17.7129C16.6809 17.2682 17 16.6135 17 15.7031C17 14.9738 16.7642 14.2968 16.1465 13.7803C15.5029 13.2423 14.3099 12.7647 12.168 12.7646H9V18.5ZM9 10.7646H12.168L12.6543 10.752C13.7643 10.6922 14.6922 10.4273 15.3398 10.0107C16.0362 9.56262 16.4287 8.93595 16.4287 8.0498C16.4286 7.19106 16.1629 6.63894 15.7432 6.26953C15.2969 5.877 14.5454 5.57558 13.3691 5.51074C12.4798 5.51065 11.5904 5.50875 10.7031 5.50586C10.135 5.50401 9.56704 5.50307 9 5.50195V10.7646Z" fill="black"/>
</svg>
