<svg width="24" height="24" viewBox="0 0 24 24" fill="none" xmlns="http://www.w3.org/2000/svg">
<g clip-path="url(#clip0_15719_5011)">
<path d="M12 23C18.0751 23 23 18.0751 23 12C23 5.92487 18.0751 1 12 1M12 23C5.92487 23 1 18.0751 1 12C1 5.92487 5.92487 1 12 1M12 23C12 23 8 19.7 8 12C8 4.3 12 1 12 1M12 23C12 23 16 19.7 16 12C16 4.3 12 1 12 1M1 9H23M1 15H23" stroke="black" stroke-width="2"/>
</g>
<defs>
<clipPath id="clip0_15719_5011">
<rect width="24" height="24" fill="white"/>
</clipPath>
</defs>
</svg>
