<svg width="24" height="24" viewBox="0 0 24 24" fill="none" xmlns="http://www.w3.org/2000/svg">
<path fill-rule="evenodd" clip-rule="evenodd" d="M12.9995 3.26172C15.5112 3.58884 17.3098 5.12577 18.1724 6.83789L16.3862 7.73828C15.8314 6.63676 14.6777 5.59183 12.9995 5.28809V10.9766C14.0472 11.2086 15.1621 11.5088 16.0679 12.0391C16.6563 12.3836 17.1952 12.8447 17.5825 13.4785C17.9726 14.1169 18.1714 14.87 18.1714 15.7363C18.1713 17.2108 17.5356 18.5202 16.4136 19.4424C15.5183 20.1781 14.3482 20.6421 12.9995 20.7939V22.5H10.9995V20.8018C8.01159 20.5157 6.05541 18.9431 4.97998 16.8682L6.75537 15.9482C7.49773 17.3804 8.80604 18.5259 10.9995 18.791V12.5957C9.9758 12.3737 8.88872 12.0969 8.00635 11.6162C7.42179 11.2976 6.87641 10.8657 6.48096 10.2598C6.08048 9.64606 5.8755 8.91816 5.87549 8.08008C5.87549 6.69518 6.4624 5.43711 7.56689 4.5459C8.44976 3.83358 9.61778 3.38849 10.9995 3.24609V1.5H12.9995V3.26172ZM12.9995 18.7773C13.9182 18.64 14.6354 18.3155 15.144 17.8975C15.8123 17.3483 16.1713 16.6016 16.1714 15.7363C16.1714 15.1862 16.0485 14.8046 15.8755 14.5215C15.6997 14.2338 15.4348 13.9852 15.0581 13.7646C14.5103 13.444 13.8125 13.2259 12.9995 13.0303V18.7773ZM10.9995 5.26074C10.0291 5.39054 9.31215 5.70767 8.82275 6.10254C8.19409 6.60982 7.87549 7.29303 7.87549 8.08008C7.8755 8.5801 7.99324 8.91793 8.15576 9.16699C8.32334 9.42372 8.58284 9.65198 8.96338 9.85938C9.5088 10.1566 10.1971 10.3584 10.9995 10.5449V5.26074Z" fill="black"/>
</svg>
